<?xml version="1.0" encoding="utf-8"?>
<!-- Generator: Adobe Illustrator 24.0.3, SVG Export Plug-In . SVG Version: 6.00 Build 0)  -->
<svg version="1.1" id="Layer_1" xmlns="http://www.w3.org/2000/svg" xmlns:xlink="http://www.w3.org/1999/xlink" x="0px" y="0px"
	 viewBox="0 0 1160 772" style="enable-background:new 0 0 1160 772;" xml:space="preserve">
<style type="text/css">
	.st0{fill-rule:evenodd;clip-rule:evenodd;fill:#FFD87A;}
	.st1{fill-rule:evenodd;clip-rule:evenodd;fill:#F6CC1B;}
	.st2{fill-rule:evenodd;clip-rule:evenodd;fill:#F8F8FD;}
	.st3{fill-rule:evenodd;clip-rule:evenodd;fill:#FFDF76;}
	.st4{fill-rule:evenodd;clip-rule:evenodd;fill:#752D0D;}
	.st5{fill-rule:evenodd;clip-rule:evenodd;fill:#EB8B23;}
	.st6{fill-rule:evenodd;clip-rule:evenodd;fill:#EA801E;}
	.st7{fill-rule:evenodd;clip-rule:evenodd;fill:#E54355;}
	.st8{fill-rule:evenodd;clip-rule:evenodd;fill:#BE7F79;}
	.st9{fill-rule:evenodd;clip-rule:evenodd;fill:#563A82;}
	.st10{fill-rule:evenodd;clip-rule:evenodd;fill:#D2B4B3;}
	.st11{fill-rule:evenodd;clip-rule:evenodd;fill:#241318;}
	.st12{fill-rule:evenodd;clip-rule:evenodd;fill:#44245B;}
	.st13{fill-rule:evenodd;clip-rule:evenodd;fill:#2C1100;}
	.st14{fill-rule:evenodd;clip-rule:evenodd;fill:#3B1706;}
	.st15{fill-rule:evenodd;clip-rule:evenodd;fill:#A05E55;}
	.st16{fill-rule:evenodd;clip-rule:evenodd;fill:#F1D5D2;}
	.st17{fill-rule:evenodd;clip-rule:evenodd;fill:#612D1F;}
	.st18{fill-rule:evenodd;clip-rule:evenodd;fill:#532517;}
	.st19{fill-rule:evenodd;clip-rule:evenodd;fill:#E7C0BF;}
	.st20{fill-rule:evenodd;clip-rule:evenodd;fill:#FFFFFF;}
	.st21{fill-rule:evenodd;clip-rule:evenodd;fill:#C55936;}
	.st22{fill-rule:evenodd;clip-rule:evenodd;fill:#E6E6E6;}
	.st23{fill-rule:evenodd;clip-rule:evenodd;fill:#40292D;}
	.st24{fill-rule:evenodd;clip-rule:evenodd;fill:#261316;}
	.st25{fill-rule:evenodd;clip-rule:evenodd;fill:#D34499;}
	.st26{fill-rule:evenodd;clip-rule:evenodd;fill:#AF206E;}
	.st27{fill-rule:evenodd;clip-rule:evenodd;fill:#FF8237;}
	.st28{fill-rule:evenodd;clip-rule:evenodd;fill:#DD321F;}
	.st29{fill-rule:evenodd;clip-rule:evenodd;fill:#CB6342;}
	.st30{fill-rule:evenodd;clip-rule:evenodd;fill:#A0211A;}
	.st31{fill-rule:evenodd;clip-rule:evenodd;fill:#FFC44E;}
	.st32{fill-rule:evenodd;clip-rule:evenodd;fill:#573139;}
	.st33{fill-rule:evenodd;clip-rule:evenodd;fill:#331F1E;}
	.st34{fill-rule:evenodd;clip-rule:evenodd;fill:#2C1A1E;}
	.st35{fill-rule:evenodd;clip-rule:evenodd;fill:#855C60;}
	.st36{fill-rule:evenodd;clip-rule:evenodd;fill:#E46531;}
	.st37{fill-rule:evenodd;clip-rule:evenodd;fill:#221316;}
	.st38{fill-rule:evenodd;clip-rule:evenodd;fill:#DB663B;}
	.st39{fill-rule:evenodd;clip-rule:evenodd;fill:#FF9959;}
	.st40{fill-rule:evenodd;clip-rule:evenodd;fill:#EC6929;}
	.st41{fill-rule:evenodd;clip-rule:evenodd;fill:#D26118;}
	.st42{fill-rule:evenodd;clip-rule:evenodd;fill:#D69A46;}
	.st43{fill-rule:evenodd;clip-rule:evenodd;fill:#B84D14;}
	.st44{fill-rule:evenodd;clip-rule:evenodd;fill:#B05F2A;}
	.st45{fill-rule:evenodd;clip-rule:evenodd;fill:#D57831;}
	.st46{fill-rule:evenodd;clip-rule:evenodd;fill:#EF3234;}
	.st47{fill-rule:evenodd;clip-rule:evenodd;fill:#9C3A0E;}
	.st48{fill-rule:evenodd;clip-rule:evenodd;fill:#E26644;}
	.st49{fill-rule:evenodd;clip-rule:evenodd;fill:#D69F89;}
	.st50{fill-rule:evenodd;clip-rule:evenodd;fill:#FFD27B;}
	.st51{fill-rule:evenodd;clip-rule:evenodd;fill:#7F4336;}
	.st52{fill-rule:evenodd;clip-rule:evenodd;fill:#DD6F18;}
	.st53{fill-rule:evenodd;clip-rule:evenodd;fill:#E8801E;}
	.st54{fill-rule:evenodd;clip-rule:evenodd;fill:#FF7A48;}
	.st55{fill-rule:evenodd;clip-rule:evenodd;fill:#F29C3B;}
</style>
<path class="st0" d="M1042.9,459.6H716.1l68.5-127.6c4.5-8.4,15.6-13.2,24.3-7.9c0.4,0.2,0.7,0.4,1,0.6l3.8,2.3l0.5,0.3
	c8.2,5.1,18.9,2.1,23.6-6.8l1.3-2.4l7.3-13.6l2.4-4.5c3.2-6,10.4-8.1,16-4.6l1.1,0.7l3.2,2c0.2,0.1,0.4,0.3,0.7,0.4
	c0.4,0.5,0.8,1.1,1.1,1.7l2.6,4.9l6,11.2c4.8,8.9,15.4,11.9,23.6,6.8l3.2-2l1.1-0.7c5.6-3.5,12.8-1.4,16,4.6l2.4,4.5l7.3,13.6
	l1.3,2.4c4.8,8.8,15.4,11.9,23.6,6.8l0.5-0.3l3.8-2.3c8.8-5.5,20.2-2.2,25.3,7.3L1042.9,459.6z"/>
<path class="st1" d="M769.7,248L769.7,248c0-19.6-16-35.7-35.6-35.7h-1.3c0-0.7,0.1-1.3,0.1-2v0c0-19.6-16.1-35.7-35.6-35.7h-29.4
	c0-19.6-16-35.7-35.7-35.7h-14.6c-19.6,0-35.7,16-35.7,35.7h-29.4c-19.6,0-35.6,16-35.6,35.7v0c0,0.7,0,1.3,0.1,2h-38.7
	c-1.7-18-17-32.2-35.5-32.2h-14.6c-18.5,0-33.8,14.2-35.5,32.2H262.7c-19.6,0-35.7,16-35.7,35.7v0c0,19.6,16.1,35.7,35.7,35.7h407.1
	c1.2,0,2.4-0.1,3.5-0.2c1.2,0.1,2.3,0.2,3.5,0.2h57.2C753.7,283.6,769.7,267.6,769.7,248z"/>
<path class="st2" d="M633.8,217.3H351.2c-5.6,0-10.2-4.6-10.2-10.2v0c0-5.6,4.6-10.2,10.2-10.2h16.6c0-5.6,4.6-10.2,10.2-10.2h35.3
	c5.6,0,10.2,4.6,10.2,10.2h47.6c0-5.6,4.6-10.2,10.2-10.2h18.2c0-5.6,4.6-10.2,10.2-10.2H545c5.6,0,10.2,4.6,10.2,10.2h18.2
	c5.6,0,10.2,4.6,10.2,10.2h50.3c5.6,0,10.2,4.6,10.2,10.2v0C643.9,212.8,639.4,217.3,633.8,217.3z"/>
<path class="st3" d="M435.1,278.6H169.3c-5.3,0-9.6-4.3-9.6-9.6v0c0-5.3,4.3-9.6,9.6-9.6h15.6c0-5.3,4.3-9.6,9.6-9.6h33.2
	c5.3,0,9.6,4.3,9.6,9.6h44.8c0-5.3,4.3-9.6,9.6-9.6h17.1c0-5.3,4.3-9.6,9.6-9.6h33.2c5.3,0,9.6,4.3,9.6,9.6h17.1
	c5.3,0,9.6,4.3,9.6,9.6h47.3c5.3,0,9.6,4.3,9.6,9.6v0C444.6,274.3,440.3,278.6,435.1,278.6z"/>
<path class="st0" d="M933.1,611.1c0,0-197.8,67.6-249.5,47.6c-51.7-20,21.7-52.6-40.9-44.2c-62.6,8.3-217.8,65.1-240.4,52.6
	c-22.5-12.5,69.8-54.6,3.2-51.9c-66.6,2.7-285.3,50.2-289.5,33.5c-4.2-16.7,96-61.8,61.8-66.8c-34.2-5-175.1,0.1-21.3-37.8
	C310.3,506.1,1150,531,933.1,611.1z"/>
<path class="st4" d="M834.5,615c-14.9,0-27.1-3.6-27.1-8c0-4.4,12.2-8,27.1-8s27.1,3.6,27.1,8C861.5,611.4,849.4,615,834.5,615z"/>
<path class="st5" d="M348.4,305.2l1-0.6c5-3.1,11.5-1.2,14.4,4.1l2.2,4l6.6,12.3l1.2,2.2c4.3,7.9,13.8,10.7,21.2,6.1l0.5-0.3
	l3.4-2.1c7.9-4.9,18.2-2,22.7,6.5L483,452c-210.8,0-162.7,0-373.4,0l61.5-114.6c4.6-8.5,14.8-11.5,22.7-6.5l3.4,2.1l0.5,0.3
	c7.4,4.6,16.9,1.8,21.2-6.1l1.2-2.2l6.6-12.3l2.1-4c2.9-5.4,9.4-7.3,14.4-4.1l1,0.6l2.9,1.8c7.4,4.6,16.9,1.8,21.2-6.1l5.4-10.1
	l2.4-4.4c6.1-11.3,34.4-11.3,40.5,0l2.4,4.4l5.4,10.1c4.3,8,13.8,10.7,21.2,6.1L348.4,305.2z"/>
<path class="st6" d="M578,417.7c-263.6,0-477.2,18-477.2,40.1c0,22.1,213.7,40.1,477.2,40.1c45.2,0,88.9-0.5,130.3-1.5
	c13.8,5.1,68.1,8.9,133.1,8.9c75.3,0,136.4-5.1,136.4-11.5c0-3.5-19.2-6.7-49.4-8.8c78.7-7.2,126.8-16.7,126.8-27.2
	C1055.2,435.6,841.6,417.7,578,417.7z"/>
<path class="st7" d="M472.6,235.9l1.1-0.7c5.5-3.4,12.7-1.4,15.9,4.6l2.4,4.4l7.3,13.5l1.3,2.4c4.7,8.8,15.2,11.8,23.4,6.7l0.5-0.3
	l3.7-2.3c8.7-5.4,20-2.2,25.1,7.2l67.8,126.3c-232.3,0-179.3,0-411.6,0l67.8-126.3c5-9.4,16.3-12.6,25.1-7.2l3.7,2.3l0.5,0.3
	c8.2,5.1,18.7,2,23.4-6.7l1.3-2.4l7.3-13.5l2.4-4.4c3.2-5.9,10.3-8,15.9-4.6l1.1,0.7l3.2,2c8.2,5.1,18.7,2,23.4-6.7l6-11.1l2.6-4.8
	c6.7-12.5,37.9-12.5,44.6,0l2.6,4.8l6,11.1c4.7,8.8,15.2,11.8,23.4,6.7L472.6,235.9z"/>
<path class="st5" d="M428.8,397.7H209.3l67.8-126.3c5-9.4,16.3-12.6,25.1-7.2l3.7,2.3l0.5,0.3c8.2,5.1,18.7,2,23.4-6.7l1.3-2.4
	l5.6-10.4c8.8,0.2,17.3,5.2,22,14L428.8,397.7z"/>
<path class="st5" d="M546.4,243.9l1.1-0.7c5.6-3.4,12.7-1.4,15.9,4.6l2.4,4.4l7.3,13.6l1.3,2.4c4.7,8.8,15.3,11.8,23.5,6.8l0.5-0.3
	l3.8-2.3c8.8-5.4,20.1-2.2,25.2,7.2l68.2,126.9c-233.5,0-180.2,0-413.7,0l68.2-126.9c5.1-9.4,16.4-12.7,25.2-7.2l3.8,2.3l0.5,0.3
	c8.2,5.1,18.8,2,23.5-6.8l1.3-2.4l7.3-13.6l2.4-4.4c3.2-6,10.4-8,15.9-4.6l1.1,0.7l3.2,2c8.2,5.1,18.8,2,23.5-6.8l6-11.1l2.6-4.9
	c6.7-12.5,38.1-12.5,44.8,0l2.6,4.9l6,11.1c4.7,8.8,15.3,11.9,23.5,6.8L546.4,243.9z"/>
<path class="st7" d="M607.1,406.6H280.2L348.8,279c4.5-8.4,15.6-13.2,24.3-7.9c0.4,0.2,0.7,0.4,1,0.6l3.8,2.3l0.5,0.3
	c8.2,5.1,18.9,2.1,23.6-6.8l1.3-2.4l7.3-13.6l2.4-4.5c3.2-6,10.4-8.1,16-4.6l1.1,0.7l3.2,2c0.2,0.1,0.4,0.3,0.7,0.4
	c0.4,0.5,0.8,1.1,1.1,1.7l2.6,4.9l6,11.2c4.8,8.9,15.4,11.9,23.6,6.8l3.2-2l1.1-0.7c5.6-3.5,12.8-1.4,16,4.6l2.4,4.5l7.3,13.6
	l1.3,2.4c4.8,8.8,15.4,11.9,23.6,6.8l0.5-0.3l3.8-2.3c8.8-5.5,20.2-2.2,25.3,7.3L607.1,406.6z"/>
<path class="st5" d="M464.9,406.6H280.2l67.7-125.9c2,1.1,3.7,2.7,4.8,4.9l2.4,4.5l7.3,13.6l1.3,2.4c4.8,8.8,15.4,11.9,23.6,6.8
	l0.5-0.3l3.8-2.3c8.8-5.5,20.2-2.2,25.3,7.3L464.9,406.6z"/>
<path class="st4" d="M318,582.1c-85,5.5-153.8,22.4-153.8,37.9c0,15.4,68.9,23.5,153.8,18c85-5.5,153.8-22.4,153.8-37.9
	C471.9,584.7,403,576.6,318,582.1z"/>
<path class="st8" d="M786.1,362.9h-7.6c-7.6,0-13.8,6.2-13.8,13.8v0c0,7.6,6.2,13.8,13.8,13.8h7.6c7.6,0,13.8-6.2,13.8-13.8v0
	C799.8,369.1,793.6,362.9,786.1,362.9z"/>
<path class="st9" d="M621.2,309.9c55.3,0,124.3,34.8,173.4,83.7H580.4h-27.2H419.1l40.8-83.7H621.2z"/>
<path class="st8" d="M760.2,380.5H528.6c9.5-25,7-45.2-7.3-57.5h99.8C668.2,322.9,720.6,349.2,760.2,380.5z"/>
<path class="st10" d="M692.2,380.5h-55.9c12.6-16,15.2-35.8,13.3-54.6c19.2,3.8,38.6,11,57.2,20.4
	C703.6,359.7,698.4,371,692.2,380.5z"/>
<path class="st6" d="M567.3,483.6c-263.6,0-477.2,17.9-477.2,40.1c0,22.1,213.7,40.1,477.2,40.1c45.2,0,88.9-0.5,130.4-1.5
	c13.8,5.1,68.1,8.9,133.1,8.9c75.3,0,136.4-5.1,136.4-11.5c0-3.5-19.2-6.7-49.4-8.8c78.7-7.2,126.8-16.7,126.8-27.2
	C1044.6,501.5,830.9,483.6,567.3,483.6z"/>
<path class="st4" d="M546.5,532.9c-229,0-415.7-8.1-415.7-18.1c0-10,186.7-18.1,415.7-18.1c229,0,415.7,8.1,415.7,18.1
	C962.2,524.8,775.5,532.9,546.5,532.9z"/>
<path class="st11" d="M927.7,475.1l1.2,9.6c2.2,17.7-9.4,32.4-26.4,34.3v0h0c-1.2,0.1-2.5,0.2-3.8,0.2l0,0c-1.3,0-2.6-0.1-3.8-0.2
	h-22.8l-1.6-12.3c-5.7-6-9.7-13.7-10.7-22l-4.8-38.2c-1.1-8.3,1-16,5.2-22l-1.6-12.5h22.6c13,8.7,22.7,22.9,24.7,38.7l1,7.8
	c1.2,9.1,9.6,16.6,18.7,16.6H927.7z"/>
<path class="st11" d="M858.6,412L858.6,412c-19,0-32.6,15.5-30.2,34.5l4.8,38.2c2.4,19,19.9,34.5,38.9,34.5h0
	c19,0,32.6-15.5,30.2-34.5l-4.8-38.2C895.1,427.5,877.6,412,858.6,412z"/>
<path class="st9" d="M917.7,387.4H233.1c-24.1,0-59.2-4.7-59.2,19.4l0,0c0,24.1,35,68.4,59.2,68.4h684.5c24.1,0,43.9-19.7,43.9-43.9
	l0,0C961.5,407.1,941.8,387.4,917.7,387.4z"/>
<path class="st12" d="M924.8,387.4H663.6c-24.1,0-43.9,19.7-43.9,43.9l0,0c0,24.1,19.7,43.9,43.9,43.9h261.2
	c24.1,0,43.9-19.7,43.9-43.9l0,0C968.7,407.1,948.9,387.4,924.8,387.4z"/>
<path class="st13" d="M522.5,403c-26.2,0-47.7,21.5-47.7,47.7v24.5h94.7v-24.5C569.5,424.7,548,403,522.5,403L522.5,403L522.5,403z"
	/>
<path class="st13" d="M588.1,475.1v9.6c0,17.7-13.5,32.4-30.7,34.3v0h0c-1.2,0.1-2.5,0.2-3.8,0.2l0,0c-1.3,0-2.5-0.1-3.8-0.2H518
	v-12.3c-5-6,1.1-13.7,1.1-22v-38.2c0-8.3,3-16,8-22V412h22.6c11.9,8.7,19.8,22.9,19.8,38.7v7.8c0,9.1,7.5,16.6,16.6,16.6H588.1z"/>
<path class="st14" d="M524.9,412L524.9,412c-19,0-35.5,15.5-36.7,34.5l-2.4,38.2c-1.2,19,13.3,34.5,32.3,34.5h0
	c19,0,35.5-15.5,36.7-34.5l2.4-38.2C558.4,427.5,543.8,412,524.9,412z"/>
<path class="st8" d="M523.2,437.8L523.2,437.8c-9.9,0-18.4,8.1-19.1,17.9l-1.3,19.9c-0.6,9.9,6.9,17.9,16.8,17.9h0
	c9.9,0,18.4-8.1,19.1-17.9l1.3-19.9C540.6,445.8,533.1,437.8,523.2,437.8z"/>
<path class="st15" d="M524.9,451.5L524.9,451.5c-5,0-9.4,4.1-9.7,9.1l-0.6,10.1c-0.3,5,3.5,9.1,8.5,9.1h0c5,0,9.4-4.1,9.7-9.1
	l0.6-10.1C533.8,455.6,530,451.5,524.9,451.5z"/>
<path class="st13" d="M296.4,394.3c-29.4,0-53.4,24-53.4,53.4v27.4h106v-27.4C349,418.6,324.9,394.3,296.4,394.3L296.4,394.3
	L296.4,394.3z"/>
<path class="st13" d="M369.9,475.1v10.8c0,19.8-15.1,36.3-34.4,38.4v0h0c-1.4,0.2-2.8,0.2-4.3,0.2l0,0c-1.4,0-2.9-0.1-4.2-0.2h-34.2
	v-13.8c-5.6-6.7-8.9-15.3-8.9-24.6v-42.8c0-9.3,3.4-17.9,8.9-24.6v-14h34c13.3,9.8,22.2,25.7,22.2,43.3v8.8
	c0,10.2,8.4,18.6,18.6,18.6H369.9z"/>
<path class="st14" d="M304.8,404.4L304.8,404.4c-21.3,0-40.4,17.4-42.5,38.7l-4.3,42.8c-2.1,21.3,13.5,38.7,34.8,38.7h0
	c21.3,0,40.4-17.4,42.5-38.7l4.3-42.8C341.7,421.8,326.1,404.4,304.8,404.4z"/>
<path class="st8" d="M301.9,433.3L301.9,433.3c-11,0-21,9-22.1,20.1l-2.2,22.3c-1.1,11,7,20.1,18.1,20.1h0c11,0,21-9,22.1-20.1
	l2.2-22.3C321.1,442.3,313,433.3,301.9,433.3z"/>
<path class="st15" d="M303.3,448.6L303.3,448.6c-5.6,0-10.7,4.6-11.2,10.2l-1.1,11.3c-0.6,5.6,3.6,10.2,9.2,10.2h0
	c5.6,0,10.7-4.6,11.2-10.2l1.1-11.3C313.1,453.2,308.9,448.6,303.3,448.6z"/>
<path class="st15" d="M525.2,441.4L525.2,441.4c-1.5,0-2.8,1.2-2.9,2.8l-0.2,3.1c-0.1,1.5,1.1,2.8,2.6,2.8h0c1.5,0,2.8-1.2,2.9-2.8
	l0.2-3.1C527.8,442.7,526.7,441.4,525.2,441.4z"/>
<path class="st15" d="M522.6,481.2L522.6,481.2c-1.5,0-2.8,1.2-2.9,2.8l-0.2,3.1c-0.1,1.5,1.1,2.8,2.6,2.8h0c1.5,0,2.8-1.2,2.9-2.8
	l0.2-3.1C525.3,482.5,524.1,481.2,522.6,481.2z"/>
<path class="st15" d="M509.1,472.3L509.1,472.3c-1.5,0-2.8,1.2-2.9,2.8l-0.2,3.1c-0.1,1.5,1.1,2.8,2.6,2.8l0,0
	c1.5,0,2.8-1.2,2.9-2.8l0.2-3.1C511.7,473.5,510.6,472.3,509.1,472.3z"/>
<path class="st15" d="M510.3,452.4L510.3,452.4c-1.5,0-2.8,1.2-2.9,2.8l-0.2,3.1c-0.1,1.5,1.1,2.8,2.6,2.8l0,0
	c1.5,0,2.8-1.2,2.9-2.8l0.2-3.1C513,453.7,511.8,452.4,510.3,452.4z"/>
<path class="st15" d="M301.1,438.6L301.1,438.6c-1.5,0-2.9,1.2-3,2.8l-0.3,3.1c-0.2,1.5,1,2.8,2.5,2.8l0,0c1.5,0,2.9-1.2,3-2.8
	l0.3-3.1C303.7,439.9,302.6,438.6,301.1,438.6z"/>
<path class="st15" d="M296.7,482.6L296.7,482.6c-1.5,0-2.9,1.2-3,2.8l-0.3,3.1c-0.2,1.5,1,2.8,2.5,2.8l0,0c1.5,0,2.9-1.2,3-2.8
	l0.3-3.1C299.3,483.8,298.2,482.6,296.7,482.6z"/>
<path class="st15" d="M283.8,469.5L283.8,469.5c-1.5,0-2.9,1.2-3,2.8l-0.3,3.1c-0.2,1.5,1,2.8,2.5,2.8h0c1.5,0,2.9-1.2,3-2.8
	l0.3-3.1C286.5,470.7,285.4,469.5,283.8,469.5z"/>
<path class="st15" d="M285.8,449.6L285.8,449.6c-1.5,0-2.9,1.2-3,2.8l-0.3,3.1c-0.2,1.5,1,2.8,2.5,2.8l0,0c1.5,0,2.9-1.2,3-2.8
	l0.3-3.1C288.5,450.8,287.3,449.6,285.8,449.6z"/>
<path class="st16" d="M928.3,443.7c-11.8,0-21.4-9.6-21.4-21.4c0-11.8,9.6-21.4,21.4-21.4c11.8,0,21.4,9.6,21.4,21.4
	C949.7,434,940.1,443.7,928.3,443.7z"/>
<path class="st17" d="M923.7,436.5c-7.9,0-14.3-6.4-14.3-14.3c0-7.9,6.4-14.3,14.3-14.3c7.9,0,14.3,6.4,14.3,14.3
	C938,430.1,931.6,436.5,923.7,436.5z"/>
<path class="st16" d="M669.4,443.7c-11.8,0-21.4-9.6-21.4-21.4c0-11.8,9.6-21.4,21.4-21.4c11.8,0,21.4,9.6,21.4,21.4
	C690.9,434,681.2,443.7,669.4,443.7z"/>
<path class="st17" d="M664.8,436.5c-7.9,0-14.3-6.4-14.3-14.3c0-7.9,6.4-14.3,14.3-14.3c7.9,0,14.3,6.4,14.3,14.3
	C679.1,430.1,672.7,436.5,664.8,436.5z"/>
<path class="st8" d="M896.4,405.9h-82.1c-2.2,0-4.1,1.8-4.1,4.1v0c0,2.2,1.8,4.1,4.1,4.1h82.1c2.2,0,4.1-1.8,4.1-4.1v0
	C900.5,407.8,898.7,405.9,896.4,405.9z"/>
<path class="st8" d="M896.4,419.4h-82.1c-2.2,0-4.1,1.8-4.1,4.1v0c0,2.2,1.8,4.1,4.1,4.1h82.1c2.2,0,4.1-1.8,4.1-4.1v0
	C900.5,421.3,898.7,419.4,896.4,419.4z"/>
<path class="st8" d="M896.4,433h-82.1c-2.2,0-4.1,1.8-4.1,4.1v0c0,2.2,1.8,4.1,4.1,4.1h82.1c2.2,0,4.1-1.8,4.1-4.1v0
	C900.5,434.8,898.7,433,896.4,433z"/>
<path class="st16" d="M712,405.9h89.8c2.2,0,4.1,1.8,4.1,4.1v0c0,2.2-1.8,4.1-4.1,4.1H712c-2.2,0-4.1-1.8-4.1-4.1v0
	C707.9,407.8,709.8,405.9,712,405.9z"/>
<path class="st16" d="M712,419.4h89.8c2.2,0,4.1,1.8,4.1,4.1v0c0,2.2-1.8,4.1-4.1,4.1H712c-2.2,0-4.1-1.8-4.1-4.1v0
	C707.9,421.3,709.8,419.4,712,419.4z"/>
<path class="st16" d="M712,433h89.8c2.2,0,4.1,1.8,4.1,4.1v0c0,2.2-1.8,4.1-4.1,4.1H712c-2.2,0-4.1-1.8-4.1-4.1v0
	C707.9,434.8,709.8,433,712,433z"/>
<path class="st9" d="M463.1,309.9C351.1,309.9,311,383,213,387l29,3.8l267.5,2.7C534.6,344.7,518.4,309.9,463.1,309.9z"/>
<path class="st17" d="M502.2,380.5c13.6-37.2-6-57.5-45.5-57.5c-18.5,0-39.2,4.2-60.7,11.3l-27.9,46.2H502.2L502.2,380.5z
	 M303.6,380.5c25-16.6,52.4-31.1,79.3-41.5l-26.2,41.5H303.6z"/>
<path class="st18" d="M399.1,380.5c24.6-40.6,55.3-52.7,72.8-56.4c-4.7-0.8-9.7-1.2-15.2-1.2c-18.5,0-39.2,4.2-60.7,11.3l-27.9,46.2
	H399.1L399.1,380.5z M303.6,380.5c25-16.6,52.4-31.1,79.3-41.5l-26.2,41.5H303.6z"/>
<path class="st18" d="M610.4,327.7h-37.3c-5.2,0-9.5,4.3-9.5,9.5l0,0c0,5.2,4.3,9.5,9.5,9.5h37.3c5.2,0,9.5-4.3,9.5-9.5l0,0
	C619.9,331.9,615.6,327.7,610.4,327.7z"/>
<path class="st18" d="M570.8,355.1c-11,0-20.9,4.5-28.1,11.6c-3.9,3.9-7,8.5-9,13.7h10.6c1.4-2.5,3.1-4.9,5.2-6.9
	c5.4-5.4,13-8.8,21.3-8.8c8.3,0,15.9,3.4,21.3,8.8c2,2,3.8,4.4,5.2,6.9h10.6c-2-5.2-5.1-9.8-8.9-13.7l0,0
	C591.7,359.6,581.8,355.1,570.8,355.1z"/>
<path class="st16" d="M179.5,400.9h-5.9c-9.5,0-17.3,7.8-17.3,17.3v0c0,9.5,7.8,17.3,17.3,17.3h5.9c9.5,0,17.3-7.8,17.3-17.3v0
	C196.9,408.7,189.1,400.9,179.5,400.9z"/>
<path class="st13" d="M392.7,388.7H374c-2.7,0-4.9,2.2-4.9,5v0c0,2.7,2.2,4.9,4.9,4.9h18.8c2.7,0,4.9-2.2,4.9-4.9v0
	C397.7,390.9,395.4,388.7,392.7,388.7z"/>
<path class="st17" d="M366.6,409.8c-2.4,0-4.3-1.9-4.3-4.3c0-2.4,1.9-4.3,4.3-4.3c2.4,0,4.3,1.9,4.3,4.3
	C370.9,407.9,369,409.8,366.6,409.8z"/>
<path class="st19" d="M646.3,448.6h-44.6c-9.5,0-17.3,7.8-17.3,17.3v0c0,9.5,7.8,17.3,17.3,17.3h44.6c9.5,0,17.3-7.8,17.3-17.3v0
	C663.6,456.4,655.8,448.6,646.3,448.6z"/>
<path class="st16" d="M959,448.6H629.4c-9.5,0-17.3,7.8-17.3,17.3v0c0,9.5,7.8,17.3,17.3,17.3H959c9.5,0,17.3-7.8,17.3-17.3v0
	C976.3,456.4,968.5,448.6,959,448.6z"/>
<path class="st20" d="M959,448.6h-75.5c-9.5,0-17.3,7.8-17.3,17.3v0c0,9.5,7.8,17.3,17.3,17.3H959c9.5,0,17.3-7.8,17.3-17.3v0
	C976.3,456.4,968.5,448.6,959,448.6z"/>
<path class="st21" d="M220.5,408.5h-7c-2.7,0-4.9,2.2-4.9,5v0c0,2.7,2.2,4.9,4.9,4.9h7c2.7,0,4.9-2.2,4.9-4.9v0
	C225.4,410.7,223.2,408.5,220.5,408.5z"/>
<path class="st18" d="M458.1,439.7l-7,17.4c-1,2.5,0.2,5.4,2.7,6.4l0,0c2.5,1,5.4-0.2,6.4-2.7l7-17.4c1-2.5-0.2-5.4-2.7-6.4h0
	C462,435.9,459.1,437.1,458.1,439.7z"/>
<path class="st18" d="M441.5,439.7l-7,17.4c-1,2.5,0.2,5.4,2.7,6.4l0,0c2.5,1,5.4-0.2,6.4-2.7l7-17.4c1-2.5-0.2-5.4-2.7-6.4h0
	C445.5,435.9,442.6,437.1,441.5,439.7z"/>
<path class="st22" d="M317.7,429.6c1.1,1.2,2.9,1.3,4.1,0.2c1.2-1.1,1.3-2.9,0.2-4.1c0,0-14.8-16.7-35.4-2.8c-1.3,0.9-1.7,2.7-0.8,4
	c0.9,1.3,2.7,1.7,4,0.8C306.3,416.6,317.7,429.5,317.7,429.6z"/>
<path class="st22" d="M306,502.2c1.1-1.2,2.9-1.3,4.1-0.2c1.2,1.1,1.3,2.9,0.2,4.1c0,0-14.8,16.7-35.4,2.8c-1.3-0.9-1.7-2.7-0.8-4
	c0.9-1.3,2.7-1.7,4-0.8C294.6,515.2,306,502.3,306,502.2z"/>
<path class="st22" d="M302.6,456.1L302.6,456.1c-3,0-5.6,2.4-5.9,5.4l-0.6,6c-0.3,3,1.9,5.4,4.8,5.4h0c3,0,5.6-2.4,5.9-5.4l0.6-6
	C307.7,458.5,305.5,456.1,302.6,456.1z"/>
<path class="st22" d="M525,456.1L525,456.1c-3,0-5.6,2.4-5.9,5.4l-0.6,6c-0.3,3,1.9,5.4,4.8,5.4h0c3,0,5.6-2.4,5.9-5.4l0.6-6
	C530.2,458.5,528,456.1,525,456.1z"/>
<path class="st23" d="M728.5,366.5c-5,4.2-5.7,11.6-1.5,16.6c4.2,5,11.6,5.7,16.6,1.5c0.3-0.3,79.7-72.1,103.4-51.6
	c11.4,9.8,4.2,49.3-19.4,111.5c-0.5,1.4-0.8,2.8-0.8,4.2h24.4C952.9,177.4,729.2,365.9,728.5,366.5z"/>
<path class="st24" d="M724.6,372.9c-0.8,3.5,0,7.2,2.5,10.2c4.2,5,11.6,5.7,16.6,1.5c0.3-0.3,79.7-72.1,103.4-51.6
	c11.4,9.8,4.2,49.3-19.4,111.5c-0.5,1.4-0.8,2.8-0.8,4.2h15.2C918,233.1,767,340,724.6,372.9z"/>
<path class="st23" d="M729.9,348.4h-48.1v19.5c0,10.7,8.8,19.5,19.5,19.5H736c7.3,0,13.3-6,13.3-13.3v-6.1
	C749.4,357.2,740.6,348.4,729.9,348.4z"/>
<path class="st4" d="M634,517.3c33,13.1,128.5,46,259.1,48c6.5,0.1,12.1-5.1,12.4-11.6c0.3-6.5-4.7-11.9-11.2-12
	c-84.3-1.3-153.1-15.7-199.1-28.9v5L634,517.3z"/>
<path class="st24" d="M703,362.9c-3.7-5.3-11.1-6.6-16.4-2.9c-5.3,3.7-6.6,11.1-2.9,16.4c0.2,0.3,69.5,99.9,208.8,184.9
	c5.6,3.4,12.8,1.6,16.2-3.9c3.4-5.6,1.6-12.8-3.9-16.2C769.6,458.7,703.2,363.2,703,362.9z"/>
<path class="st23" d="M905.3,560.9c1.3-0.9,2.5-2.1,3.4-3.6c3.4-5.6,1.6-12.8-3.9-16.2C807,481.5,745.2,415,718.5,382.7
	c0,2.3,0.7,4.7,2.1,6.8C720.7,389.7,781.9,478.8,905.3,560.9z"/>
<path class="st23" d="M828.7,448.6c0,0,27.3-15.4,51-15.7c23.8-0.3,35.1,15.7,35.1,15.7H828.7z"/>
<path class="st24" d="M911.5,552.2l-18.5-0.9c0,0-3.7,11.5,2.2,13.2C901.1,566.3,909.3,564.2,911.5,552.2z"/>
<path class="st23" d="M928.3,500.8c0.4-2.3,8.2-27.2,8.2-27.2s-49.1,13.9-42.5,74.3L928.3,500.8z"/>
<path class="st24" d="M936.5,473.5c0,0,6.5,49.5-26.3,74.8l-16.2-0.6C894,547.8,911.1,483.3,936.5,473.5z"/>
<path class="st25" d="M769.7,220.6l-16.1,36l-53.2-2L670,216.8C670,216.8,697.7,201.4,769.7,220.6z"/>
<path class="st7" d="M768,250.1c-8.6-0.9-16.4,5.4-17.3,14c-0.9,8.6,5.4,16.4,14,17.2c0.1,0,47.8,4.8,87.6,30.7
	c7.3,4.7,17,2.7,21.7-4.6c4.7-7.3,2.7-17-4.6-21.7C823.3,255.6,768.2,250.1,768,250.1z"/>
<path class="st7" d="M768,250.1c-2.1-0.2-4.1,0-5.9,0.5c1.6,6.1,6.9,10.9,13.6,11.6c0.1,0,47.8,4.8,87.6,30.7
	c4,2.6,8.7,3.1,12.9,1.9c-1-3.6-3.2-6.9-6.6-9.1C823.3,255.6,768.2,250.1,768,250.1z"/>
<path class="st26" d="M769.9,251h-21.8c-12,0-21.7,9.8-21.7,21.8v59.7h43.5V251z"/>
<path class="st7" d="M761.8,233.9h14.3l0.3,98.5h-6.6l-19.2-84.2C749,240.3,754,233.9,761.8,233.9z"/>
<path class="st20" d="M752,251h-69.3v97.4h34.6c19,0,34.6-15.6,34.6-34.6V251z"/>
<path class="st22" d="M682.7,254.6v55.5h59.5c3.4,0,6.8-0.6,9.8-1.8v-53.7c-0.4,0-0.8,0-1.2,0H682.7z"/>
<polygon class="st27" points="732.8,215.2 697.7,213.2 697.7,251 743.6,251 "/>
<path class="st28" d="M732.8,215.2l-25.8-1.4v17.6c0,6.7,5.4,12.1,12.1,12.1h22.3L732.8,215.2z"/>
<path class="st27" d="M758.7,184.7h-60.9v31.1c0,12,9.9,21.9,21.9,21.9h26.9c6.7,0,12.1-5.4,12.1-12.1V184.7z"/>
<path class="st29" d="M697.7,208.3v7.5c0,12,9.9,21.9,21.9,21.9h26.9c6.7,0,12.1-5.4,12.1-12.1v-17.3H697.7z"/>
<path class="st28" d="M753.8,198.5v2.4c0,1.9-1.6,3.5-3.5,3.5h0c-1.9,0-3.5-1.6-3.5-3.5v-2.4c0,1.9,1.6,3.5,3.5,3.5h0
	C752.2,202,753.8,200.4,753.8,198.5z"/>
<path class="st28" d="M729.4,198.5v2.4c0,1.9-1.6,3.5-3.5,3.5h0c-1.9,0-3.5-1.6-3.5-3.5v-2.4c0,1.9,1.6,3.5,3.5,3.5h0
	C727.8,202,729.4,200.4,729.4,198.5z"/>
<path class="st30" d="M718.7,212.8c5.2,0,9.4,4.2,9.4,9.4c0,5.2-4.2,9.4-9.4,9.4c-5.2,0-9.4-4.2-9.4-9.4
	C709.3,217,713.5,212.8,718.7,212.8z"/>
<path class="st31" d="M682.4,216h32.3c2.2,0,4.1,1.8,4.1,4.1v0c0,2.2-1.8,4.1-4.1,4.1h-32.3c-2.2,0-4.1-1.8-4.1-4.1v0
	C678.3,217.9,680.2,216,682.4,216z"/>
<path class="st20" d="M682.4,216H703c2.2,0,4.1,1.8,4.1,4.1v0c0,2.2-1.8,4.1-4.1,4.1h-20.6c-2.2,0-4.1-1.8-4.1-4.1v0
	C678.3,217.9,680.2,216,682.4,216z"/>
<path class="st28" d="M682.4,217.1L682.4,217.1c1.7,0,3,1.3,3,3v0c0,1.6-1.3,3-3,3h0c-1.6,0-3-1.3-3-3v0
	C679.4,218.5,680.7,217.1,682.4,217.1z"/>
<path class="st20" d="M718.7,212.8c3.1,0,5.8,1.5,7.5,3.8c-1.6,1.1-3.6,1.8-5.7,1.8c-3.1,0-5.8-1.4-7.6-3.6
	C714.5,213.6,716.5,212.8,718.7,212.8z"/>
<path class="st20" d="M718.7,228.4c3.1,0,5.8-1.5,7.5-3.8c-1.6-1.1-3.6-1.8-5.7-1.8c-3.1,0-5.8,1.4-7.6,3.6
	C714.5,227.6,716.5,228.4,718.7,228.4z"/>
<path class="st32" d="M746.6,164.9h-58.9V177c0,6.7,5.4,12.1,12.1,12.1h58.9V177C758.7,170.3,753.2,164.9,746.6,164.9z"/>
<path class="st33" d="M707.3,164.9h-25.5V177c0,6.7,5.4,12.1,12.1,12.1h25.5V177C719.4,170.3,714,164.9,707.3,164.9z"/>
<path class="st34" d="M688.2,192.7l-2.7-4.7c3.3,5.8,11.6,7.3,18.6,3.4l12.6-7.1l2.7,4.7l-12.6,7.1
	C699.9,200.1,691.5,198.5,688.2,192.7z"/>
<path class="st24" d="M699.8,172h-18v8.5c0,4.7,3.8,8.5,8.5,8.5h18v-8.5C708.4,175.8,704.5,172,699.8,172z"/>
<path class="st35" d="M741.9,164.9h-9.4c6.7,0,12.1,5.4,12.1,12.1v12.1h9.4V177C754,170.3,748.6,164.9,741.9,164.9z"/>
<path class="st27" d="M697.7,207.2c-3.2,0-5.9-2.6-5.9-5.9c0-3.2,2.6-5.9,5.9-5.9c3.2,0,5.9,2.6,5.9,5.9
	C703.6,204.6,701,207.2,697.7,207.2z"/>
<path class="st28" d="M697.7,204c-1.4,0-2.6-1.2-2.6-2.6c0-1.4,1.2-2.6,2.6-2.6s2.6,1.2,2.6,2.6C700.3,202.8,699.2,204,697.7,204z"
	/>
<path class="st35" d="M717.1,160.2l-5.4,0.1c6.7-0.1,12.2,6.4,12.3,14.4l0.2,14.5l5.4-0.1l-0.2-14.5
	C729.3,166.5,723.8,160.1,717.1,160.2z"/>
<path class="st20" d="M750.7,251h-68v55.5h59.5c15.3,0,27.8-12.5,27.8-27.8v-8.6C769.9,259.6,761.3,251,750.7,251z"/>
<path class="st26" d="M697.7,251H676c-12,0-21.8,9.8-21.8,21.8v59.7h43.5V251z"/>
<path class="st27" d="M737.2,249.6l6.4,1.4c0,0,28,17.4,1.1,17.4c-27,0-43.5-18.8-43.5-18.8L737.2,249.6z"/>
<path class="st36" d="M745.1,257.7L745.1,257.7c-0.5-0.5-1.3-0.5-1.8,0l-1.8,1.8l-1.8-1.8c-0.5-0.5-1.3-0.5-1.8,0l0,0
	c-0.5,0.5-0.5,1.3,0,1.8l2.7,2.7c0.1,0.1,0.3,0.2,0.5,0.3l0,0l0,0l0,0l0,0l0,0l0,0l0,0l0,0l0,0l0,0l0,0c0.4,0.1,0.9,0,1.3-0.3
	l2.7-2.7C745.6,259,745.6,258.2,745.1,257.7z"/>
<path class="st36" d="M732.9,257L732.9,257c-0.5-0.5-1.3-0.5-1.8,0l-1.8,1.8l-1.8-1.8c-0.5-0.5-1.3-0.5-1.8,0l0,0
	c-0.5,0.5-0.5,1.3,0,1.8l2.7,2.7c0.1,0.1,0.3,0.2,0.4,0.3l0,0l0,0l0,0l0,0l0,0l0,0l0,0l0,0l0,0l0,0l0,0c0.4,0.1,0.9,0,1.3-0.3
	l2.7-2.7C733.4,258.3,733.4,257.5,732.9,257z"/>
<path class="st36" d="M738.5,251.5L738.5,251.5c-0.5-0.5-1.3-0.5-1.8,0l-1.8,1.8l-1.8-1.8c-0.5-0.5-1.3-0.5-1.8,0l0,0
	c-0.5,0.5-0.5,1.3,0,1.8l2.7,2.7c0.1,0.1,0.3,0.2,0.5,0.3l0,0l0,0l0,0l0,0l0,0l0,0l0,0l0,0l0,0l0,0l0,0c0.4,0.1,0.9,0,1.3-0.3
	l2.7-2.7C739,252.9,739,252,738.5,251.5z"/>
<path class="st7" d="M654.2,260.3c1.8-8.5,10.1-14,18.6-12.2c8.5,1.8,14,10.1,12.2,18.6c0,0.1-9.9,47,2.7,92.8
	c2.3,8.4-2.6,17-11,19.3c-8.4,2.3-17-2.6-19.3-11C642.7,314.7,654.1,260.4,654.2,260.3z"/>
<path class="st7" d="M671,247.8c0.6,0.1,1.2,0.1,1.8,0.3c8.5,1.8,14,10.1,12.2,18.6c0,0.1-9.6,45.5,2.1,90.5
	c-5.3-1.3-9.8-5.4-11.3-11.1C664.7,306.1,668.4,265.6,671,247.8z"/>
<path class="st26" d="M861.9,317.9c-11.3,0-20.4-9.2-20.4-20.4c0-11.3,9.2-20.4,20.4-20.4c11.3,0,20.4,9.2,20.4,20.4
	C882.3,308.7,873.2,317.9,861.9,317.9z"/>
<path class="st27" d="M870.5,289.7c-5.7-4-13.6-2.6-17.6,3.1c-4,5.7-2.6,13.6,3.1,17.6c0.1,0.1,31.7,22.1,49.5,55.8
	c3.3,6.2,10.9,8.5,17.1,5.3c6.2-3.3,8.5-10.9,5.3-17.1C907.1,315.3,870.6,289.8,870.5,289.7z"/>
<path class="st26" d="M672.8,382.5c-11.3,0-20.4-9.2-20.4-20.4c0-11.3,9.2-20.4,20.4-20.4c11.3,0,20.4,9.2,20.4,20.4
	C693.2,373.4,684,382.5,672.8,382.5z"/>
<path class="st37" d="M722.6,422.4l-6.3,0c-3,0-5.4,2.4-5.4,5.4l-0.2,61.7c0,3,2.4,5.4,5.4,5.5l6.3,0c3,0,5.4-2.4,5.4-5.4l0.2-61.7
	C728,424.8,725.6,422.4,722.6,422.4z"/>
<path class="st38" d="M722,432.8c1.6,6.8-2.7,13.6-9.5,15.1c-6.8,1.6-13.6-2.7-15.1-9.5c0-0.1-8.5-37.7-33.1-66.9
	c-4.5-5.3-3.8-13.3,1.5-17.8c5.3-4.5,13.3-3.8,17.8,1.5C712.2,389.3,722,432.7,722,432.8z"/>
<path class="st39" d="M665.1,354.5c0.2-0.2,0.5-0.5,0.7-0.7c5.3-4.5,13.3-3.8,17.8,1.6c17,20.2,27.4,43.8,33,59.6
	c-0.3-0.4-0.5-0.9-0.8-1.3c-0.1-0.1-17.4-34.5-48.3-56.9C666.6,356.1,665.8,355.3,665.1,354.5z"/>
<path class="st40" d="M712.6,418.8c-9-5.2-20.5-2.2-25.8,6.8c-5.2,9-2.2,20.5,6.8,25.8c9,5.2,20.5,2.2,25.8-6.8
	C724.6,435.6,721.6,424,712.6,418.8z"/>
<path class="st24" d="M680.7,424l-0.1,16.9c0,2.1,1.7,3.9,3.9,3.9l4.5,0c2.1,0,3.9-1.7,3.9-3.9L693,424c0-2.1-1.7-3.9-3.9-3.9
	l-4.5,0C682.5,420.1,680.7,421.8,680.7,424z"/>
<path class="st23" d="M706.8,459.6l-0.1,20c0,2.1,1.7,3.9,3.9,3.9l4.5,0c2.1,0,3.9-1.7,3.9-3.9l0.1-20c0-2.1-1.7-3.9-3.9-3.9l-4.5,0
	C708.6,455.7,706.8,457.4,706.8,459.6z"/>
<path class="st6" d="M654.2,580.5c-5.7,0-10.4-1.5-10.4-3.3c0-1.8,4.7-3.3,10.4-3.3c5.7,0,10.4,1.5,10.4,3.3
	C664.6,579,659.9,580.5,654.2,580.5z"/>
<path class="st6" d="M694.4,580.5c-4,0-7.3-1.5-7.3-3.3c0-1.8,3.3-3.3,7.3-3.3c4,0,7.3,1.5,7.3,3.3
	C701.7,579,698.5,580.5,694.4,580.5z"/>
<path class="st6" d="M729.1,591.6c-7.2,0-13.1-2.8-13.1-6.3c0-3.5,5.9-6.3,13.1-6.3c7.2,0,13.1,2.8,13.1,6.3
	C742.2,588.8,736.3,591.6,729.1,591.6z"/>
<path class="st41" d="M716.7,583.3c-0.5,0.6-0.7,1.3-0.7,2.1c0,3.5,5.9,6.3,13.1,6.3l0.3,0c2.6-0.9,4.3-2.4,4.3-4.1
	c0-2.8-4.8-5.2-10.8-5.2C720.6,582.3,718.5,582.7,716.7,583.3z"/>
<path class="st4" d="M808.7,608.2c-14.9,0-27.1-3.6-27.1-8c0-4.4,12.2-8,27.1-8c14.9,0,27.1,3.6,27.1,8
	C835.8,604.6,823.6,608.2,808.7,608.2z"/>
<path class="st42" d="M1002,551.7c-2.5,0-4.6-1.1-4.6-2.5c0-1.4,2.1-2.5,4.6-2.5c2.5,0,4.6,1.1,4.6,2.5
	C1006.6,550.5,1004.6,551.7,1002,551.7z"/>
<path class="st43" d="M650.1,545c-3.6,0-6.5-1.6-6.5-3.5c0-1.9,2.9-3.5,6.5-3.5c3.6,0,6.5,1.6,6.5,3.5
	C656.5,543.4,653.6,545,650.1,545z"/>
<path class="st43" d="M674.8,548.5c-1.8,0-3.2-0.8-3.2-1.8c0-1,1.5-1.8,3.2-1.8c1.8,0,3.2,0.8,3.2,1.8
	C678,547.7,676.6,548.5,674.8,548.5z"/>
<path class="st43" d="M647.8,553.4c-1.8,0-3.2-0.8-3.2-1.8c0-1,1.5-1.8,3.2-1.8c1.8,0,3.2,0.8,3.2,1.8
	C651,552.6,649.6,553.4,647.8,553.4z"/>
<path class="st43" d="M584.3,546.3c-3.6,0-6.6-1.6-6.6-3.6c0-2,3-3.6,6.6-3.6s6.6,1.6,6.6,3.6C590.9,544.7,588,546.3,584.3,546.3z"
	/>
<path class="st44" d="M377.8,492.3L377.8,492.3h-35.1v26.2c-1,3.3-1.5,6.7-1.5,10.3v57.6c0,2.2,0.5,4.2,1.5,6v6.8H354h23.8h23.8
	c7,0,12.8-5.7,12.8-12.8v-57.6C414.4,508.8,397.9,492.3,377.8,492.3z"/>
<path class="st4" d="M342.8,492.3L342.8,492.3c-20.1,0-36.6,16.4-36.6,36.6v65.7c0,7,5.7,12.8,12.8,12.8h47.6
	c7,0,12.8-5.7,12.8-12.8v-65.7C379.3,508.8,362.9,492.3,342.8,492.3z"/>
<path class="st45" d="M447.2,528.5L447.2,528.5H424v17.4c-0.6,2.2-1,4.5-1,6.8v38.2c0,1.4,0.4,2.8,1,4v4.5h7.5h15.7h15.7
	c4.6,0,8.5-3.8,8.5-8.5v-38.2C471.4,539.3,460.5,528.5,447.2,528.5z"/>
<path class="st4" d="M424,528.5L424,528.5c-13.3,0-24.2,10.9-24.2,24.2V595c0,4.6,3.8,8.5,8.5,8.5h31.5c4.6,0,8.5-3.8,8.5-8.5v-42.3
	C448.2,539.3,437.3,528.5,424,528.5z"/>
<path class="st45" d="M391.6,545.9L391.6,545.9h-23.2v17.4c-0.6,2.2-1,4.5-1,6.8v38.2c0,1.4,0.4,2.8,1,4v4.5h7.5h15.7h15.7
	c4.7,0,8.5-3.8,8.5-8.4v-38.2C415.8,556.8,404.9,545.9,391.6,545.9z"/>
<path class="st4" d="M368.4,545.9L368.4,545.9c-13.3,0-24.2,10.9-24.2,24.2v42.3c0,4.6,3.8,8.5,8.5,8.5h31.5c4.6,0,8.4-3.8,8.4-8.5
	v-42.3C392.6,556.8,381.7,545.9,368.4,545.9z"/>
<path class="st43" d="M825.8,603.2c-7.5,0-13.5-4.1-13.5-9.2c0-5.1,6.1-9.2,13.5-9.2c7.5,0,13.5,4.1,13.5,9.2
	C839.3,599,833.3,603.2,825.8,603.2z"/>
<path class="st41" d="M848.4,606.8c-12.7,0-23-7.1-23-15.7c0-8.6,10.3-15.7,23-15.7c12.7,0,23,7.1,23,15.7
	C871.5,599.8,861.1,606.8,848.4,606.8z"/>
<path class="st46" d="M706.3,338.2c-4.3,0-7.9-3.5-7.9-7.9c0-4.3,3.5-7.9,7.9-7.9c4.3,0,7.9,3.5,7.9,7.9
	C714.2,334.6,710.6,338.2,706.3,338.2z"/>
<path class="st46" d="M701.3,340.8c-2.4,0-4.4-2-4.4-4.4c0-2.4,2-4.4,4.4-4.4c2.4,0,4.4,2,4.4,4.4
	C705.7,338.8,703.7,340.8,701.3,340.8z"/>
<path class="st7" d="M688.4,233.9h-14.3l22.1,98.5h6.6v-84.2C702.8,240.3,696.3,233.9,688.4,233.9z"/>
<path class="st20" d="M685.8,251.9c-1.6,0-2.9-1.3-2.9-2.9c0-1.6,1.3-2.9,2.9-2.9c1.6,0,2.9,1.3,2.9,2.9
	C688.7,250.6,687.4,251.9,685.8,251.9z"/>
<path class="st46" d="M731.2,288.8c-1.8,0-3.3-1.5-3.3-3.3c0-1.8,1.5-3.3,3.3-3.3c1.8,0,3.3,1.5,3.3,3.3
	C734.5,287.3,733,288.8,731.2,288.8z"/>
<path class="st46" d="M724.8,281.4c-0.9,0-1.6-0.7-1.6-1.6c0-0.9,0.7-1.6,1.6-1.6c0.9,0,1.6,0.7,1.6,1.6
	C726.4,280.6,725.7,281.4,724.8,281.4z"/>
<path class="st46" d="M760.3,266.8c-0.9,0-1.6-0.7-1.6-1.6s0.7-1.6,1.6-1.6c0.9,0,1.6,0.7,1.6,1.6S761.2,266.8,760.3,266.8z"/>
<path class="st1" d="M308,164c-1.1-1.4-2.7-2.4-4.4-2.9c-1.5-0.5-3.2-0.7-4.7-0.6c-1.1,0.1-2.7,0.4-3.7,1.1c-1,0.7-1.1,2.1-0.4,3
	c0.7,1,2.1,1.1,3,0.5c0.3-0.1,1-0.2,1.3-0.2c1-0.1,2.1,0.1,3.1,0.4c1,0.3,1.9,0.9,2.5,1.7c0.7,0.9,1,2,1,3.1c0.1,1.2,1.1,2.1,2.2,2
	h0c1.2,0,2.2-0.9,2.2-2c0.1-1.1,0.3-2.2,1-3.1c0.6-0.8,1.5-1.4,2.5-1.7c1-0.3,2.1-0.5,3.1-0.4c0.3,0,1.1,0.1,1.3,0.2
	c1,0.7,2.3,0.5,3-0.4c0.7-1,0.5-2.3-0.4-3c-0.9-0.7-2.5-1-3.7-1.1c-1.6-0.1-3.2,0.1-4.7,0.6C310.7,161.6,309.1,162.6,308,164z"/>
<path class="st47" d="M513.4,274.9c-1.1-1.4-2.7-2.4-4.4-2.9c-1.5-0.5-3.2-0.7-4.7-0.6c-1.1,0.1-2.7,0.4-3.7,1.1
	c-1,0.7-1.1,2.1-0.4,3c0.7,1,2.1,1.1,3,0.5c0.3-0.1,1-0.2,1.3-0.2c1-0.1,2.1,0.1,3.1,0.4c1,0.3,1.9,0.9,2.5,1.7c0.7,0.9,1,2,1,3.1
	c0.1,1.2,1.1,2.1,2.2,2h0c1.2,0,2.2-0.9,2.2-2c0.1-1.1,0.3-2.2,1-3.1c0.6-0.8,1.5-1.4,2.5-1.7c1-0.3,2.1-0.5,3.1-0.4
	c0.3,0,1.1,0.1,1.3,0.2c1,0.7,2.3,0.5,3-0.4c0.7-1,0.5-2.3-0.4-3c-0.9-0.7-2.5-1-3.7-1.1c-1.6-0.1-3.2,0.1-4.7,0.6
	C516.1,272.6,514.6,273.6,513.4,274.9z"/>
<path class="st47" d="M444.5,294.4c-1.1-1.4-2.7-2.4-4.4-2.9c-1.5-0.5-3.2-0.7-4.7-0.6c-1.1,0.1-2.7,0.4-3.7,1.1
	c-1,0.7-1.1,2.1-0.4,3c0.7,1,2.1,1.1,3,0.5c0.3-0.1,1-0.2,1.3-0.2c1-0.1,2.1,0.1,3.1,0.4c1,0.3,1.9,0.9,2.5,1.7c0.7,0.9,1,2,1,3.1
	c0.1,1.2,1.1,2.1,2.2,2h0c1.2,0,2.2-0.9,2.2-2c0.1-1.1,0.3-2.2,1-3.1c0.6-0.8,1.5-1.4,2.5-1.7c1-0.3,2.1-0.5,3.1-0.4
	c0.3,0,1.1,0.1,1.3,0.2c1,0.7,2.3,0.5,3-0.4c0.7-1,0.5-2.3-0.4-3c-0.9-0.7-2.5-1-3.7-1.1c-1.6-0.1-3.2,0.1-4.7,0.6
	C447.2,292,445.7,293,444.5,294.4z"/>
<path class="st1" d="M904.9,158.2c0,45.9,37.2,83.1,83.1,83.1c45.9,0,83.1-37.2,83.1-83.1c0-45.9-37.2-83.1-83.1-83.1
	C942.1,75.1,904.9,112.3,904.9,158.2z"/>
<path class="st5" d="M936.9,158.2c0,28.2,22.9,51.1,51.1,51.1c28.2,0,51.1-22.9,51.1-51.1c0-28.2-22.9-51.1-51.1-51.1
	C959.7,107.1,936.9,130,936.9,158.2z"/>
<path class="st48" d="M956.2,158.2c0,17.5,14.2,31.7,31.7,31.7c17.5,0,31.7-14.2,31.7-31.7c0-17.5-14.2-31.7-31.7-31.7
	C970.4,126.4,956.2,140.7,956.2,158.2z"/>
<path class="st20" d="M958.6,182.1c0,5.2,4.2,9.3,9.3,9.3c5.2,0,9.3-4.2,9.3-9.3c0-5.2-4.2-9.3-9.3-9.3
	C962.8,172.8,958.6,177,958.6,182.1z"/>
<path class="st46" d="M721.1,193.4c-0.9,0-1.6-0.7-1.6-1.6c0-0.9,0.7-1.6,1.6-1.6c0.9,0,1.6,0.7,1.6,1.6
	C722.7,192.7,722,193.4,721.1,193.4z"/>
<path class="st46" d="M715.9,200c-2,0-3.5-1.6-3.5-3.5c0-2,1.6-3.5,3.5-3.5s3.5,1.6,3.5,3.5C719.4,198.4,717.8,200,715.9,200z"/>
<path class="st47" d="M966.2,132.6c-1.2-1.5-2.8-2.5-4.6-3.1c-1.6-0.5-3.3-0.7-5-0.6c-1.2,0.1-2.9,0.4-3.8,1.1
	c-1,0.8-1.2,2.2-0.4,3.2c0.8,1,2.2,1.2,3.1,0.5c0.3-0.1,1.1-0.2,1.4-0.2c1.1-0.1,2.2,0.1,3.3,0.4c1,0.3,2,0.9,2.6,1.8
	c0.7,0.9,1,2.1,1.1,3.2c0.1,1.2,1.1,2.2,2.3,2.1h0c1.2,0,2.3-0.9,2.3-2.1c0.1-1.2,0.4-2.3,1.1-3.2c0.7-0.9,1.6-1.5,2.6-1.8
	c1-0.3,2.2-0.5,3.3-0.4c0.3,0,1.1,0.1,1.4,0.2c1,0.8,2.4,0.6,3.2-0.4c0.8-1,0.6-2.4-0.4-3.2c-1-0.7-2.6-1-3.8-1.1
	c-1.6-0.1-3.4,0.1-5,0.6C969,130.1,967.4,131.1,966.2,132.6z"/>
<path class="st20" d="M861.9,150.1c-1-1.2-2.2-2-3.7-2.4c-1.2-0.4-2.6-0.6-3.9-0.5c-1,0.1-2.3,0.3-3.1,0.9c-0.8,0.6-1,1.7-0.4,2.5
	c0.6,0.8,1.7,1,2.5,0.4c0.2-0.1,0.9-0.2,1.1-0.2c0.9-0.1,1.8,0.1,2.6,0.3c0.8,0.3,1.6,0.7,2.1,1.4c0.6,0.7,0.8,1.7,0.8,2.6
	c0.1,1,0.9,1.7,1.8,1.7h0c1,0,1.8-0.7,1.9-1.7c0.1-0.9,0.3-1.8,0.8-2.6c0.5-0.7,1.3-1.2,2.1-1.4c0.8-0.3,1.7-0.4,2.6-0.3
	c0.3,0,0.9,0.1,1.1,0.2c0.8,0.6,1.9,0.4,2.5-0.4c0.6-0.8,0.4-1.9-0.4-2.5c-0.8-0.6-2.1-0.8-3.1-0.9c-1.3-0.1-2.7,0.1-3.9,0.5
	C864.2,148.1,862.9,148.9,861.9,150.1z"/>
<path class="st13" d="M439.1,410.9c-2.4,0-4.4-2-4.4-4.4c0-2.4,2-4.4,4.4-4.4c2.4,0,4.4,2,4.4,4.4
	C443.5,409,441.5,410.9,439.1,410.9z"/>
<path class="st13" d="M395.9,446.5c-2.4,0-4.4-2-4.4-4.4c0-2.4,2-4.4,4.4-4.4c2.4,0,4.4,2,4.4,4.4
	C400.3,444.5,398.3,446.5,395.9,446.5z"/>
<path class="st13" d="M398.5,419c-2.4,0-4.4-2-4.4-4.4c0-2.4,2-4.4,4.4-4.4s4.4,2,4.4,4.4C402.9,417,400.9,419,398.5,419z"/>
<path class="st13" d="M571.4,410.9c-2.4,0-4.4-2-4.4-4.4c0-2.4,2-4.4,4.4-4.4c2.4,0,4.4,2,4.4,4.4
	C575.7,409,573.8,410.9,571.4,410.9z"/>
<path class="st13" d="M282.4,391.8c-2.4,0-4.4-2-4.4-4.4c0-2.4,2-4.4,4.4-4.4c2.4,0,4.4,2,4.4,4.4
	C286.8,389.8,284.8,391.8,282.4,391.8z"/>
<path class="st13" d="M227.4,443c-2.4,0-4.4-2-4.4-4.4c0-2.4,2-4.4,4.4-4.4c2.4,0,4.4,2,4.4,4.4C231.8,441,229.9,443,227.4,443z"/>
<path class="st49" d="M909.1,362.2L909.1,362.2c-6.8,6.8-6.8,18,0,24.8l30.8,30.8c6.8,6.8,18,6.8,24.8,0l0,0c6.8-6.8,6.8-18,0-24.8
	L934,362.2C927.1,355.4,916,355.4,909.1,362.2z"/>
<path class="st50" d="M913,366.1c4.7-4.7,12.4-4.7,17.1,0l21.3,21.3h-34.3l-4.2-4.2C908.3,378.5,908.3,370.8,913,366.1z"/>
<path class="st51" d="M951.5,387.4l9.5,9.5c4.7,4.7,4.7,12.4,0,17.1c-4.7,4.7-12.4,4.7-17.1,0l-26.6-26.6H951.5z"/>
<path class="st52" d="M942.4,383.5l16,16c3.3,3.3,3.3,8.7,0,12c-3.3,3.3-8.7,3.3-12,0l-28-28H942.4z"/>
<path class="st53" d="M942.4,383.5l16,16c1.6,1.6,2.5,3.8,2.5,6c-2.8,0.6-5.8-0.1-7.9-2.2l-19.7-19.7H942.4z"/>
<path class="st54" d="M911.9,384.6c-10.4,0-18.8-8.5-18.8-18.8c0-10.4,8.5-18.8,18.8-18.8c10.4,0,18.8,8.5,18.8,18.8
	C930.7,376.2,922.3,384.6,911.9,384.6z"/>
<path class="st39" d="M870.5,289.7c-3-2.1-6.5-2.7-9.7-2c-0.2,4.2,1.7,8.4,5.4,10.9c0.1,0.1,31.7,22.1,49.5,55.8
	c2.7,5.1,8.3,7.6,13.7,6.5c0.1-2.2-0.4-4.4-1.5-6.5C907.1,315.3,870.6,289.8,870.5,289.7z"/>
<path class="st4" d="M889.1,342.2L889.1,342.2c-3.2,3.2-3.2,8.4,0,11.6l14.4,14.4c3.2,3.2,8.4,3.2,11.6,0l0,0
	c3.2-3.2,3.2-8.4,0-11.6l-14.4-14.4C897.5,339,892.3,339,889.1,342.2z"/>
<path class="st6" d="M894.3,352.7c-2.8,0-5.1-2.3-5.1-5.1c0-2.8,2.3-5.1,5.1-5.1c2.8,0,5.1,2.3,5.1,5.1
	C899.4,350.4,897.1,352.7,894.3,352.7z"/>
<path class="st55" d="M941.7,393.3c-1.4,0-2.5-1.1-2.5-2.5c0-1.4,1.1-2.5,2.5-2.5c1.4,0,2.5,1.1,2.5,2.5
	C944.2,392.2,943,393.3,941.7,393.3z"/>
<path class="st55" d="M930.2,390c-1,0-1.8-0.8-1.8-1.8c0-1,0.8-1.8,1.8-1.8c1,0,1.8,0.8,1.8,1.8C932,389.2,931.2,390,930.2,390z"/>
<path class="st51" d="M486.1,362.9h-13.5c-7.6,0-13.8,6.2-13.8,13.8v0c0,7.6,6.2,13.8,13.8,13.8h13.5c7.6,0,13.8-6.2,13.8-13.8v0
	C499.9,369.1,493.7,362.9,486.1,362.9z"/>
</svg>
