<svg xmlns="http://www.w3.org/2000/svg" viewBox="0 0 32.93 32.82"><defs><style>.cls-1{fill:#f6cc1b;}.cls-1,.cls-2{fill-rule:evenodd;}.cls-2{fill:#fff;}</style></defs><g id="Layer_2" data-name="Layer 2"><g id="Layer_1-2" data-name="Layer 1"><path class="cls-1" d="M15.15,0A18.11,18.11,0,0,1,32.88,16.41a14.93,14.93,0,0,1-15.1,16.41A18.11,18.11,0,0,1,.05,16.41,14.93,14.93,0,0,1,15.15,0Z"/><path class="cls-1" d="M16.69,2.84C21.53,5.51,23,12.59,20,18.67s-9.38,8.84-14.22,6.17S-.55,15.09,2.46,9,11.84.17,16.69,2.84Z"/><path class="cls-2" d="M4,26.09A18.59,18.59,0,0,1,1.61,22.3a6.36,6.36,0,0,0,.87.06H14.2a5.48,5.48,0,0,0,4.06-1.74h0a5.49,5.49,0,0,0,1.41-4.2,6.6,6.6,0,0,0-6.43-5.95H1.52a4.8,4.8,0,0,0-.85.07,14.66,14.66,0,0,1,1.77-3.8H13A10.42,10.42,0,0,1,20,9.58a10.55,10.55,0,0,1,3.39,6.83,8.94,8.94,0,0,1-2.3,6.83h0a8.91,8.91,0,0,1-6.6,2.84Z"/></g></g></svg>