<svg xmlns="http://www.w3.org/2000/svg" viewBox="0 0 30.9 30.9"><defs><style>.cls-1{fill:#f6cc1b;}.cls-1,.cls-2{fill-rule:evenodd;}.cls-2{fill:#fff;}</style></defs><g id="Layer_2" data-name="Layer 2"><g id="Layer_1-2" data-name="Layer 1"><path class="cls-1" d="M25.25,3.5A15.45,15.45,0,1,1,3.5,5.66,15.45,15.45,0,0,1,25.25,3.5Z"/><path class="cls-1" d="M24.27,5.52c1.78,4.7-1.78,10.41-7.95,12.75S3.7,18.68,1.92,14s1.77-10.42,8-12.75S22.49.81,24.27,5.52Z"/><path class="cls-2" d="M0,14.59a15.35,15.35,0,0,1,.75-4,5.21,5.21,0,0,0,.59.56l8.53,7A5.63,5.63,0,0,0,14,19.38h0a5.59,5.59,0,0,0,5-6.12,5.63,5.63,0,0,0-2-3.78l-8.53-7A5.71,5.71,0,0,0,7.81,2,15.39,15.39,0,0,1,11.58.49l7.65,6.28a9.1,9.1,0,0,1-4.87,16.1h0a9,9,0,0,1-6.66-2Z"/></g></g></svg>