<?xml version="1.0" encoding="utf-8"?>
<!-- Generator: Adobe Illustrator 24.0.3, SVG Export Plug-In . SVG Version: 6.00 Build 0)  -->
<svg version="1.1" id="Layer_1" xmlns="http://www.w3.org/2000/svg" xmlns:xlink="http://www.w3.org/1999/xlink" x="0px" y="0px"
	 viewBox="0 0 213.8 301.2" style="enable-background:new 0 0 213.8 301.2;" xml:space="preserve">
<style type="text/css">
	.st0{fill:#C4C4C4;}
	.st1{fill:#EB8B23;}
	.st2{fill:#F6CC1B;}
	.st3{fill:#5F2D78;}
</style>
<g>
	<rect x="48.6" class="st0" width="9.7" height="301.1"/>
	<g>
		<g>
			<path class="st1" d="M106.8,165.2c-16.1,0-29.1,13-29.1,29.1s13,29.1,29.1,29.1s29.1-13,29.1-29.1S122.9,165.2,106.8,165.2z
				 M106.8,213.8c-10.7,0-19.4-8.7-19.4-19.4c0-10.7,8.7-19.4,19.4-19.4c10.7,0,19.4,8.7,19.4,19.4
				C126.3,205.1,117.6,213.8,106.8,213.8z"/>
		</g>
		<g>
			<path class="st1" d="M106.9,136L106.9,136c-5.4,0-9.7-4.3-9.7-9.7l0,0c0-5.4,4.3-9.7,9.7-9.7l0,0c5.4,0,9.7,4.3,9.7,9.7l0,0
				C116.6,131.7,112.3,136,106.9,136z"/>
			<path class="st1" d="M107,87.4L107,87.4c-2.7,0-4.9,2.2-4.9,4.9v204.1c0,2.7,2.2,4.9,4.9,4.9l0,0c2.7,0,4.9-2.2,4.9-4.9V92.3
				C111.8,89.6,109.6,87.4,107,87.4z"/>
			<path class="st1" d="M106.9,272L106.9,272c-5.4,0-9.7-4.3-9.7-9.7v0c0-5.4,4.3-9.7,9.7-9.7l0,0c5.4,0,9.7,4.3,9.7,9.7v0
				C116.6,267.7,112.3,272,106.9,272z"/>
		</g>
		<g>
			<path class="st1" d="M165.1,194.3L165.1,194.3c0-5.4,4.3-9.7,9.7-9.7l0,0c5.4,0,9.7,4.3,9.7,9.7l0,0c0,5.4-4.3,9.7-9.7,9.7l0,0
				C169.5,204,165.1,199.7,165.1,194.3z"/>
			<path class="st1" d="M213.8,194.4L213.8,194.4c0-2.7-2.2-4.9-4.9-4.9H4.9c-2.7,0-4.9,2.2-4.9,4.9l0,0c0,2.7,2.2,4.9,4.9,4.9
				h204.1C211.6,199.2,213.8,197,213.8,194.4z"/>
			<path class="st1" d="M29.1,194.3L29.1,194.3c0-5.4,4.3-9.7,9.7-9.7l0,0c5.4,0,9.7,4.3,9.7,9.7l0,0c0,5.4-4.3,9.7-9.7,9.7l0,0
				C33.5,204,29.1,199.7,29.1,194.3z"/>
		</g>
		<g>
			<path class="st1" d="M148.1,153.1L148.1,153.1c-3.8-3.8-3.8-9.9,0-13.7l0,0c3.8-3.8,9.9-3.8,13.7,0l0,0c3.8,3.8,3.8,9.9,0,13.7v0
				C158,156.9,151.9,156.9,148.1,153.1z"/>
			<path class="st1" d="M182.5,118.8L182.5,118.8c-1.9-1.9-5-1.9-6.9,0L31.4,263.1c-1.9,1.9-1.9,5,0,6.9l0,0c1.9,1.9,5,1.9,6.9,0
				l144.3-144.3C184.4,123.7,184.4,120.7,182.5,118.8z"/>
			<path class="st1" d="M51.9,249.3L51.9,249.3c-3.8-3.8-3.8-9.9,0-13.7l0,0c3.8-3.8,9.9-3.8,13.7,0h0c3.8,3.8,3.8,9.9,0,13.7h0
				C61.9,253.1,55.7,253.1,51.9,249.3z"/>
		</g>
		<g>
			<path class="st1" d="M148.1,235.5L148.1,235.5c3.8-3.8,9.9-3.8,13.7,0l0,0c3.8,3.8,3.8,9.9,0,13.7l0,0c-3.8,3.8-9.9,3.8-13.7,0
				l0,0C144.3,245.4,144.3,239.3,148.1,235.5z"/>
			<path class="st1" d="M182.4,269.9L182.4,269.9c1.9-1.9,1.9-5,0-6.9L38.1,118.8c-1.9-1.9-5-1.9-6.9,0l0,0c-1.9,1.9-1.9,5,0,6.9
				l144.3,144.3C177.5,271.8,180.5,271.8,182.4,269.9z"/>
			<path class="st1" d="M51.9,139.3L51.9,139.3c3.8-3.8,9.9-3.8,13.7,0h0c3.8,3.8,3.8,9.9,0,13.7h0c-3.8,3.8-9.9,3.8-13.7,0l0,0
				C48.1,149.3,48.1,143.1,51.9,139.3z"/>
		</g>
		<path class="st2" d="M106.8,106.9L106.8,106.9c-48.3,0-87.5,39.2-87.5,87.5v0c0,48.3,39.2,87.5,87.5,87.5h0
			c48.3,0,87.5-39.2,87.5-87.5v0C194.2,146.1,155.1,106.9,106.8,106.9z M184.5,194.4c0,42.9-34.8,77.8-77.8,77.8h0
			c-42.9,0-77.8-34.8-77.8-77.8v0c0-42.9,34.8-77.8,77.8-77.8h0C149.7,116.6,184.5,151.4,184.5,194.4L184.5,194.4z"/>
		<g>
			<path class="st1" d="M106.8,116.6L106.8,116.6c-42.9,0-77.8,34.8-77.8,77.8v0c0,42.9,34.8,77.8,77.8,77.8h0
				c42.9,0,77.8-34.8,77.8-77.8v0C184.5,151.4,149.7,116.6,106.8,116.6z M174.8,194.4c0,37.6-30.5,68-68,68h0c-37.6,0-68-30.5-68-68
				v0c0-37.6,30.5-68,68-68h0C144.4,126.3,174.8,156.8,174.8,194.4L174.8,194.4z"/>
		</g>
	</g>
	<path class="st3" d="M213.8,0L213.8,0H58.3v77.8h97.1c10.7,0,19.4-8.7,19.4-19.4v-0.1h-14.6c-2.7,0-4.8-2.2-4.8-4.8v-0.1
		c0-2.7,2.2-4.8,4.8-4.8h24.3c10.7,0,19.4-8.7,19.4-19.4v-0.1h-24.3c-2.7,0-4.8-2.2-4.8-4.8v0c0-2.7,2.2-4.8,4.8-4.8h14.6
		C205.1,19.4,213.8,10.7,213.8,0z"/>
	<g>
		<g>
			
				<rect x="97.2" y="33.9" transform="matrix(0.7071 0.7071 -0.7071 0.7071 61.5805 -71.0926)" class="st1" width="38.9" height="9.7"/>
			<path class="st1" d="M137.2,45.7L137.2,45.7c-1.9-1.9-5-1.9-6.9,0l0,0c-1.9,1.9-1.9,5,0,6.9l0,0c1.9,1.9,5,1.9,6.9,0v0
				C139.1,50.6,139.1,47.6,137.2,45.7z"/>
			<path class="st1" d="M130.3,52.5L130.3,52.5c-1.9-1.9-5-1.9-6.9,0l0,0c-1.9,1.9-1.9,5,0,6.9h0c1.9,1.9,5,1.9,6.9,0l0,0
				C132.2,57.5,132.2,54.4,130.3,52.5z"/>
			<path class="st1" d="M109.7,18.2L109.7,18.2c-1.9-1.9-5-1.9-6.9,0h0c-1.9,1.9-1.9,5,0,6.9h0c1.9,1.9,5,1.9,6.9,0l0,0
				C111.6,23.2,111.6,20.1,109.7,18.2z"/>
			<path class="st1" d="M102.9,25L102.9,25c-1.9-1.9-5-1.9-6.9,0l0,0c-1.9,1.9-1.9,5,0,6.9l0,0c1.9,1.9,5,1.9,6.9,0l0,0
				C104.8,30,104.8,26.9,102.9,25z"/>
		</g>
		<g>
			
				<rect x="97.2" y="33.9" transform="matrix(-0.7071 0.7071 -0.7071 -0.7071 226.4866 -16.2381)" class="st1" width="38.9" height="9.7"/>
			<path class="st1" d="M109.7,59.4L109.7,59.4c1.9-1.9,1.9-5,0-6.9l0,0c-1.9-1.9-5-1.9-6.9,0h0c-1.9,1.9-1.9,5,0,6.9h0
				C104.8,61.3,107.8,61.3,109.7,59.4z"/>
			<path class="st1" d="M102.9,52.5L102.9,52.5c1.9-1.9,1.9-5,0-6.9h0c-1.9-1.9-5-1.9-6.9,0l0,0c-1.9,1.9-1.9,5,0,6.9l0,0
				C97.9,54.4,101,54.4,102.9,52.5z"/>
			<path class="st1" d="M137.2,31.9L137.2,31.9c1.9-1.9,1.9-5,0-6.9l0,0c-1.9-1.9-5-1.9-6.9,0l0,0c-1.9,1.9-1.9,5,0,6.9l0,0
				C132.2,33.8,135.3,33.8,137.2,31.9z"/>
			<path class="st1" d="M130.3,25L130.3,25c1.9-1.9,1.9-5,0-6.9l0,0c-1.9-1.9-5-1.9-6.9,0h0c-1.9,1.9-1.9,5,0,6.9h0
				C125.4,26.9,128.4,26.9,130.3,25z"/>
		</g>
	</g>
</g>
</svg>
