<?xml version="1.0" encoding="utf-8"?>
<!-- Generator: Adobe Illustrator 24.0.3, SVG Export Plug-In . SVG Version: 6.00 Build 0)  -->
<svg version="1.1" id="Layer_1" xmlns="http://www.w3.org/2000/svg" xmlns:xlink="http://www.w3.org/1999/xlink" x="0px" y="0px"
	 viewBox="0 0 213.8 301.1" style="enable-background:new 0 0 213.8 301.1;" xml:space="preserve">
<style type="text/css">
	.st0{fill:#E54355;}
	.st1{fill:#EB8B23;}
	.st2{fill:#36234C;}
	.st3{fill:#5F2D78;}
	.st4{fill:#2E1A47;}
	.st5{fill:#DDDDDD;}
	.st6{fill:#C4C4C4;}
</style>
<g>
	<g>
		<path class="st0" d="M29.2,58.3c0,2.7,2.2,4.9,4.9,4.9h38.9c2.7,0,4.9-2.2,4.9-4.9l0,0H29.2L29.2,58.3z"/>
		<path class="st1" d="M72.9,53.4H34.1c-2.7,0-4.9,2.2-4.9,4.9h48.6C77.8,55.6,75.6,53.4,72.9,53.4z"/>
	</g>
	<g>
		<path class="st0" d="M97.2,38.9L97.2,38.9c0,2.7,2.2,4.9,4.9,4.9h38.9c2.7,0,4.9-2.2,4.9-4.9v0H97.2z"/>
		<path class="st1" d="M145.8,38.9c0-2.7-2.2-4.9-4.9-4.9h-38.9c-2.7,0-4.9,2.2-4.9,4.9H145.8L145.8,38.9z"/>
	</g>
	<g>
		<path class="st1" d="M150.5,102H92.3c-2.7,0-4.8,2.2-4.9,4.8h68C155.4,104.2,153.2,102,150.5,102z"/>
		<path class="st0" d="M87.4,106.9C87.4,106.9,87.4,106.9,87.4,106.9L87.4,106.9c0,2.7,2.2,4.9,4.9,4.9h58.2c2.7,0,4.9-2.2,4.9-4.9
			l0,0c0,0,0,0,0,0H87.4z"/>
	</g>
	<g>
		<path class="st0" d="M24.3,121.4h58.4c2.7,0,4.9-2.2,4.9-4.9H19.4C19.4,119.3,21.6,121.4,24.3,121.4z"/>
		<path class="st1" d="M82.7,111.7H24.3c-2.7,0-4.9,2.2-4.9,4.9l0,0h68.1l0,0C87.5,113.9,85.4,111.7,82.7,111.7z"/>
	</g>
	<path class="st0" d="M116.9,281.7H29.1c-16.1,0-29.1-13-29.1-29.1v-58.4h184.6V214C184.6,251.4,154.3,281.7,116.9,281.7z"/>
	<path class="st0" d="M207,165.2L207,165.2c-1.9,0-3.6,0.7-4.9,2l-27.2,27l9.7,9.8l27.1-27.1c1.3-1.3,2-3,2-4.8l0,0
		C213.8,168.2,210.7,165.2,207,165.2z"/>
	<path class="st1" d="M184.6,214v-19.7H0v48.6h178.2C182.3,234.1,184.6,224.3,184.6,214z"/>
	<rect x="0" y="194.3" class="st0" width="184.6" height="9.7"/>
	<path class="st2" d="M82.6,19.4h34.1V9.7H82.6c-2.7,0-4.9,2.2-4.9,4.9l0,0C77.7,17.3,79.9,19.4,82.6,19.4z"/>
	<path class="st2" d="M34.1,48.6h14.6v-9.7H34.1c-2.7,0-4.9,2.2-4.9,4.9v0C29.2,46.4,31.4,48.6,34.1,48.6z"/>
	<path class="st2" d="M87.4,19.4h29.2v9.7H92.3c-2.7,0-4.9-2.2-4.9-4.9V19.4z"/>
	<path class="st3" d="M184.6,291.4H0l0,0c0-5.4,4.3-9.7,9.7-9.7h165.2C180.3,281.7,184.6,286,184.6,291.4L184.6,291.4z"/>
	<path class="st4" d="M208.9,301.1H9.7c-5.4,0-9.7-4.3-9.7-9.7v0h208.9c2.7,0,4.9,2.2,4.9,4.9l0,0
		C213.8,298.9,211.6,301.1,208.9,301.1z"/>
	<path class="st1" d="M58.4,194.3h-9.7V34c0-2.7,2.2-4.9,4.9-4.9h0c2.7,0,4.9,2.2,4.9,4.9V194.3z"/>
	<path class="st1" d="M126.3,194.3h-9.7V4.9c0-2.7,2.2-4.9,4.9-4.9l0,0c2.7,0,4.9,2.2,4.9,4.9V194.3z"/>
	<g>
		<circle class="st5" cx="29.2" cy="223.4" r="9.7"/>
		<path class="st2" d="M33.9,223.4c0,2.6-2.1,4.7-4.7,4.7c-2.6,0-4.7-2.1-4.7-4.7c0-2.6,2.1-4.7,4.7-4.7
			C31.8,218.8,33.9,220.8,33.9,223.4z"/>
	</g>
	<g>
		<circle class="st5" cx="58.3" cy="223.4" r="9.7"/>
		<circle class="st2" cx="58.3" cy="223.4" r="4.7"/>
	</g>
	<g>
		<path class="st5" d="M97.2,223.4c0,5.4-4.4,9.7-9.7,9.7c-5.4,0-9.7-4.4-9.7-9.7c0-5.4,4.4-9.7,9.7-9.7
			C92.9,213.7,97.2,218,97.2,223.4z"/>
		<path class="st2" d="M92.1,223.4c0,2.6-2.1,4.7-4.7,4.7c-2.6,0-4.7-2.1-4.7-4.7c0-2.6,2.1-4.7,4.7-4.7
			C90.1,218.8,92.1,220.8,92.1,223.4z"/>
	</g>
	<g>
		<circle class="st5" cx="116.6" cy="223.4" r="9.7"/>
		<circle class="st2" cx="116.6" cy="223.4" r="4.7"/>
	</g>
	<path class="st1" d="M29.3,184.6H0v9.7h38.9v0C38.9,188.9,34.6,184.6,29.3,184.6z"/>
	<path class="st1" d="M9.8,174.9H0v9.7h19.5l0,0C19.5,179.3,15.1,174.9,9.8,174.9z"/>
	<g>
		<path class="st6" d="M150.9,106.8h-10H97.2c18.8,0,34,15.2,34,34v0c0,5.2-1.2,10.2-3.3,14.6c-5.5,11.5-17.2,19.4-30.7,19.4h53.7
			c18.8,0,34-15.2,34-34v0C184.9,122.1,169.7,106.8,150.9,106.8z"/>
		<g>
			<path class="st5" d="M184.9,140.8c0-18.8-15.2-34-34-34h-10H97.2c18.8,0,34,15.2,34,34l0,0H184.9L184.9,140.8z"/>
		</g>
	</g>
	<g>
		<path class="st6" d="M77.7,116.6h-8.6H29.2c16.1,0,29.1,13,29.1,29.1v0c0,4.5-1,8.7-2.8,12.5c-4.7,9.8-14.7,16.6-26.3,16.6h48.5
			c16.1,0,29.1-13,29.1-29.1v0C106.8,129.7,93.8,116.6,77.7,116.6z"/>
		<g>
			<path class="st5" d="M106.8,145.8c0-16.1-13-29.1-29.1-29.1h-8.6H29.2c16.1,0,29.1,13,29.1,29.1H106.8L106.8,145.8z"/>
		</g>
	</g>
	<g>
		<path class="st6" d="M150.6,38.9h-7.2h-36.6c13.4,0,24.3,10.9,24.3,24.3l0,0c0,3.7-0.8,7.3-2.3,10.4c-3.9,8.2-12.3,13.9-21.9,13.9
			h43.7c13.4,0,24.3-10.9,24.3-24.3l0,0C174.9,49.7,164,38.9,150.6,38.9z"/>
		<g>
			<path class="st5" d="M174.9,63.1c0-13.4-10.9-24.3-24.3-24.3h-7.2h-36.6c13.4,0,24.3,10.9,24.3,24.3H174.9L174.9,63.1z"/>
		</g>
	</g>
	<g>
		<path class="st6" d="M68.1,58.4h-5.7H39c10.7,0,19.3,8.6,19.3,19.3l0,0c0,3-0.7,5.8-1.9,8.3c-3.1,6.5-9.7,11-17.4,11h29.1
			c10.7,0,19.3-8.6,19.3-19.3l0,0C87.4,67,78.8,58.4,68.1,58.4z"/>
		<g>
			<path class="st5" d="M87.4,77.7c0-10.7-8.6-19.3-19.3-19.3h-5.7H39c10.7,0,19.3,8.6,19.3,19.3H87.4L87.4,77.7z"/>
		</g>
	</g>
	<g>
		<g>
			<path class="st1" d="M150.6,242.8c-5.4,0-9.7-4.3-9.7-9.7h-9.8c0,10.8,8.7,19.5,19.5,19.5c10.8,0,19.5-8.7,19.5-19.5h-9.8
				C160.3,238.5,155.9,242.8,150.6,242.8z"/>
		</g>
		<path class="st1" d="M155.4,242.9h-9.7V204c0,0,0,0,0,0h9.7c0,0,0,0,0,0V242.9z"/>
		<polygon class="st1" points="165.2,223.4 155.5,223.4 145.8,223.4 136,223.4 136,213.7 165.2,213.7 		"/>
	</g>
	<path class="st1" d="M43.7,262.3H24.3c-2.7,0-4.9-2.2-4.9-4.9l0,0c0-2.7,2.2-4.9,4.9-4.9h19.4c2.7,0,4.9,2.2,4.9,4.9l0,0
		C48.6,260.1,46.4,262.3,43.7,262.3z"/>
	<path class="st1" d="M121.4,262.3H73.1c-2.7,0-4.9-2.2-4.9-4.9l0,0c0-2.7,2.2-4.9,4.9-4.9h48.3c2.7,0,4.9,2.2,4.9,4.9l0,0
		C126.3,260.1,124.1,262.3,121.4,262.3z"/>
</g>
</svg>
