<?xml version="1.0" encoding="utf-8"?>
<!-- Generator: Adobe Illustrator 24.0.3, SVG Export Plug-In . SVG Version: 6.00 Build 0)  -->
<svg version="1.1" xmlns="http://www.w3.org/2000/svg" xmlns:xlink="http://www.w3.org/1999/xlink" x="0px" y="0px"
	 viewBox="0 0 3001 3000" style="enable-background:new 0 0 3001 3000;" xml:space="preserve">
<style type="text/css">
	.st0{fill:none;stroke:#000000;stroke-width:4.5361;stroke-linecap:round;}
	.st1{fill:none;stroke:#000000;stroke-width:4.7604;stroke-linecap:round;}
	.st2{fill:none;stroke:#FFB905;stroke-width:92;stroke-linecap:round;}
	.st3{fill:none;stroke:#F6CC1B;stroke-width:4.5361;stroke-linecap:round;}
	.st4{fill:none;stroke:#000000;stroke-width:5;stroke-linecap:round;}
	.st5{fill:none;stroke:#000000;stroke-width:5.7124;}
	.st6{fill:none;stroke:#000000;stroke-width:17.1373;}
	.st7{fill:none;stroke:#000000;stroke-width:13.6082;}
	.st8{fill:none;stroke:#000000;stroke-width:4.7604;}
	.st9{fill:none;stroke:#000000;stroke-width:10.4728;}
	.st10{fill:none;stroke:#000000;stroke-width:3.8083;}
	.st11{fill:none;stroke:#000000;stroke-width:20.7803;}
	.st12{fill:none;stroke:#EB8B23;stroke-width:28.1237;}
	.st13{fill:none;stroke:#EB8B23;stroke-width:57;}
	.st14{fill:none;stroke:#EB8B23;stroke-width:33.3224;}
	.st15{fill:#E54355;}
	.st16{fill:#140A23;}
	.st17{fill:none;stroke:#000000;stroke-width:5.1913;stroke-linecap:round;}
	.st18{fill:none;stroke:#000000;stroke-width:5.1913;}
	.st19{fill:#5F2D78;}
	.st20{fill:none;stroke:#FFFFFF;stroke-width:15;}
	.st21{display:none;fill:none;stroke:#000000;stroke-width:5;stroke-linecap:round;}
</style>
<g id="Background_Details">
	<g id="Layer_1">
	</g>
	<g id="Waves">
		<path class="st0" d="M2252.5,1768c-4.7-9.7-11.6-37.8,21.4-34.9c27.1,2.3,25.7-23,21.4-35.6"/>
		<path class="st1" d="M1854.1,1336.2c-7.8-16-19.1-62.3,35.3-57.6c44.7,3.9,42.4-37.9,35.2-58.8"/>
		<path class="st0" d="M647.4,1129.8c-7.7-15.5-20.5-57.6,24.6-40.5c37.1,14.1,31.9-22,24.5-41.5"/>
		<path class="st0" d="M2643.5,1669.3c-14-28.3-37.6-105.5,45.1-74.2c67.9,25.8,58.5-40.3,44.8-76"/>
		<path class="st0" d="M1821.4,2614.7c-11.5-29-25-111.7,69.9-96.8c78,12.2,79.6-61.4,69.9-98.9"/>
		<path class="st0" d="M811.7,2063.7c-5.8-14.6-12.7-56.5,35.3-49c39.4,6.2,40.2-31,35.4-50"/>
		<path class="st2" d="M1067.5,2298.3c-107.6-266.1-244.4-1012.7,592.1-818c687.4,160,685.3-495.5,592.1-836.4"/>
	</g>
	<g id="Lines">
		<path class="st3" d="M965.3,1972.5l-566.9,680.3"/>
		<path class="st3" d="M1072.2,1932l-422.7,508"/>
		<path class="st0" d="M529.7,685.7L341.8,911.1l-187.9,225.4"/>
		<path class="st4" d="M819.9,472.3l-557.7,667.6"/>
		<path class="st0" d="M625.7,774.6L153.9,1351"/>
		<path class="st4" d="M2749.7,1932l-300.5,363.7"/>
		<g>
			<path class="st0" d="M2582.6,2244l-266.8,321.8"/>
		</g>
	</g>
	<g id="Black_Elipses">
		<circle class="st5" cx="2588.6" cy="1239.4" r="34.7"/>
		<circle class="st6" cx="362.2" cy="673.4" r="27.6"/>
		<circle class="st7" cx="2512.3" cy="1932" r="13.7"/>
		<circle class="st8" cx="573.7" cy="2285.2" r="49.6"/>
		<circle class="st9" cx="2528" cy="843.3" r="43.7"/>
		<circle class="st10" cx="2172.1" cy="2149.4" r="67.6"/>
		<circle class="st11" cx="2218.4" cy="1330" r="12.9"/>
		<circle class="st11" cx="1679.6" cy="2474.4" r="12.9"/>
		<circle class="st11" cx="876.5" cy="1449.7" r="12.9"/>
	</g>
	<g id="Color_Elipses">
		<circle class="st12" cx="362.2" cy="1846" r="153.5"/>
		<circle class="st13" cx="2687.2" cy="738.3" r="155.6"/>
		<circle class="st14" cx="903.6" cy="2488.5" r="39"/>
	</g>
</g>
<g id="Girl">
	<g id="Hands">
		<path class="st15" d="M1813.7,522.8c-31.9-13-36.9,26.8-30.6,45.7l60,107.6c0,0-106.5-43.3-120.1-33
			c-32,24.2,103.7,106.7,166.3,159c26.3,22,59.9,64,59.9,64l179-87.3c-41.7-105.1-128.7-316.8-143.7-322.4c-18.7-7-21,5.8-35.4,16.4
			c-14.3,10.5-11,2.7-30,0c-25.5-3.6-21.4,15.7-33.9,23.4c-12.5,7.7-15.1-8.6-40.9,0C1830.3,500.8,1830.2,529.6,1813.7,522.8z"/>
		<path class="st1" d="M1841.7,550.3l52,74.4"/>
		<path class="st1" d="M1900.5,521.6l41.3,80.8"/>
		<path class="st1" d="M1957.2,500.3l25.3,87.2"/>
		<path class="st1" d="M1868.5,678.5c38.7,2.3,112.1,31.9,146.6,68.6"/>
		<path class="st15" d="M1454.9,569.1c33.9-6.2,30.7,33.8,20.7,51l-80.8,93.1c0,0,113.1-20.7,124.3-7.7
			c26.4,30.3-123.3,83.2-195.3,121.7c-30.2,16.2-71.7,50.4-71.7,50.4l-157.4-122.1c62.3-94.4,190.7-283.8,206.5-286.3
			c19.7-3,19.4,10,31.3,23.2c11.9,13.2,10.2,4.9,29.4,6.1c25.7,1.7,17.7,19.7,28.4,29.8c10.7,10.1,16.5-5.4,40,8.4
			C1443.2,544.1,1437.4,572.3,1454.9,569.1z"/>
		<path class="st1" d="M1421.9,590.2l-66.1,62.2"/>
		<path class="st1" d="M1370.2,550.2l-56.9,70.7"/>
		<path class="st1" d="M1319,517.7l-42.6,80.2"/>
		<path class="st1" d="M1369.4,710.3c-38.3-5.7-116.2,8.3-157.5,37.2"/>
	</g>
	<g id="Head">
		<path class="st15" d="M1269.9,1213.8c-17.1,128.4,84.5,161.2,137,165.4c0,0,38.1,120,33.1,140.2s-115.5,80.8-170.1,108.7
			c9.4,13.6,62,50.1,196.8,86.6c274,52,370.1-161.4,370.1-171.7c-256.5-119.7-228.3-247.2-228.3-256.7c4.9,0,63.5-38,74.6-79.7
			c11.1-41.7,13.3-83,13.3-83s-7.2-61.7-21.8-97.2c-20.2-49.1-130.8-103.5-192.1-103.9C1353.9,921.5,1283.5,1111.8,1269.9,1213.8z"
			/>
		<path class="st4" d="M1354.3,1215.6c0,0-30.2-25-24.7-41c3.5-10.2,60.5-48.1,60.5-48.1"/>
		<path class="st15" d="M1637.9,1197.4c-14.7-14.5-41.6-3.4-53.2,3.9c36.3-2.9,48.6,1.5,57.2,19.1
			C1643.8,1216.7,1645.6,1206.9,1637.9,1197.4z"/>
		<path class="st15" d="M1583.8,1293.9c-13.5,2.3-21.3-14.2-23.5-22.8c11.3,14.7,24.1,19,36.1,12.5
			C1595.6,1286.4,1591.7,1291.6,1583.8,1293.9z"/>
		<path class="st15" d="M1574.1,1313.7c-70.6,40.5-143.3,61.7-167.1,65.4l24.6,86.3L1574.1,1313.7z"/>
		<path class="st16" d="M1619,1282.5c-5.9,2.5-13.8,4.1-13.8,4.1c103.9-82.7,49-137.6-23.9-96.9c0,0-105.6-174.2-113.4-235.7
			l-161.4,132c7.8-46.5,46.1-147.3,136.4-179c113-39.6,255.2,13.5,274.7,165.1C1722.5,1172,1696.4,1224,1619,1282.5z"/>
		<path class="st16" d="M1878.2,896.4c-95-99.5-206.5-18.4-250.4,34.6c-20.4,69.3,72.5,153.2,107.3,163.4
			C1830.5,1122.6,1997,1020.9,1878.2,896.4z"/>
		<ellipse transform="matrix(0.4935 -0.8698 0.8698 0.4935 -258.847 1840.1239)" cx="1450.4" cy="1142.3" rx="17.4" ry="10.4"/>
		<ellipse transform="matrix(0.2221 -0.975 0.975 0.2221 -38.6964 2157.439)" cx="1332.7" cy="1103" rx="17.4" ry="10.4"/>
		<path class="st17" d="M1420.2,1377.9c30.4-7.3,99.8-28.3,134.3-53.7"/>
		<path class="st18" d="M1529.1,1183.8c-20.2,44.5-63.9,66.9-97.1,51.9c-33.2-15.1-45.2-62.7-24.9-107.3
			c20.2-44.5,63.9-66.9,97.1-51.9C1537.3,1091.6,1549.3,1139.3,1529.1,1183.8z"/>
		<path class="st18" d="M1367.8,1110.7c-19.7,44.8-63.2,67.6-96.6,52.9c-33.3-14.7-45.8-62.2-26.1-107c19.7-44.8,63.2-67.6,96.6-53
			C1375,1018.5,1387.5,1066,1367.8,1110.7z"/>
		<path class="st17" d="M1373.8,1098.3l37.2,19.2"/>
	</g>
	<g id="Body">
		<path class="st19" d="M2122.5,764.2l-180.2,93.4l10,14.5c46.2,76.9,113.4,172.4,148.1,313.6l0.2,0.8
			c21.7,88.2,44.9,182.5-28.8,223.7c-129.5,72.2-301.4,77.6-341.2,72.2c-14.5,18.1-59.6,59.2-127,67.9
			c-67.3,8.7-138.5-14.5-165.6-27.2c0,0-199.2,7.2-343.5-25.2c-158.9-35.6-136.9-88.6-94.4-191.4l0.1-0.3
			c42.6-103.1,136.7-311.8,253.4-429.5L1094.4,755c-97.7,86.7-220.2,275.2-296.6,374C693,1264.5,593.7,1476.2,686,1625.5
			c92.3,149.3,362.2,166.4,522,310.4c78.4,70.7,56.2,389.2,42.6,496.9l743.9-106.7c-26.2-73.3-64.3-195.4-18.9-390.2
			c47.7-205,302.9-211.3,417.8-437.9C2476.6,1334,2232,920.8,2122.5,764.2z"/>
		<circle class="st20" cx="1761.8" cy="1807" r="37"/>
		<circle class="st20" cx="1447.6" cy="2199.5" r="37"/>
		<circle class="st20" cx="1845.5" cy="2240.7" r="37"/>
		<circle class="st20" cx="1531.7" cy="1918.8" r="37"/>
		<circle class="st20" cx="1274.1" cy="1593.9" r="37"/>
		<circle class="st20" cx="939" cy="1652.1" r="37"/>
		<circle class="st20" cx="885.8" cy="1291.7" r="37"/>
		<circle class="st20" cx="2172.1" cy="1592.8" r="37"/>
		<circle class="st20" cx="2323.7" cy="1353.3" r="37"/>
		<circle class="st20" cx="2107.7" cy="975.7" r="37"/>
		<circle class="st20" cx="1087.5" cy="838.9" r="37"/>
		<path class="st4" d="M2013.4,1712.3c-44.4,144.9-58.9,282.5-31.3,520.4"/>
		<path class="st4" d="M1153,1762.5c54.4,101,85.5,200.8,100.4,381.4"/>
		<path class="st4" d="M1946,1712.3c-4.6,31.2-3.2,76.4,12.6,114.9"/>
		<path class="st21" d="M1743.7,1465.1c-70.5,99.1-196.1,105.5-291.5,65.2"/>
		<path class="st4" d="M2070.3,1191.1c19,28.7,59.2,106.1,68,186.2"/>
		<path class="st4" d="M1025,1287c-19,28.7-59.2,106.1-68,186.2"/>
		<path class="st4" d="M1228.6,859.5c-43.5-35.9-86.5-69.3-163.9-121.8"/>
		<path class="st4" d="M1173.2,896.7c-43.5-35.9-86.5-69.3-163.9-121.8"/>
		<path class="st4" d="M2152.3,755c-52,21.8-101.6,44.3-184.1,88.4"/>
		<path class="st4" d="M2140.9,835.7c-52,21.8-101.6,44.3-184.1,88.4"/>
	</g>
	<g id="Wire">
		<path class="st1" d="M214.3,569C341.3,1019,676.7,892.6,868.3,714.5c186.9-173.8,435.8-129.5,623.9-71.2"/>
		<path class="st1" d="M2927.4,541.2c-120.1,450.1-497.9,205.6-618,145.5c-178.8-89.5-369.8-108.7-589.5-71.2"/>
		<path class="st1" d="M1631.2,278.8v206.8"/>
		<path class="st1" d="M1631.2,627.9v206.8"/>
		<path class="st1" d="M1784,437l-70.4,73.4"/>
		<path class="st1" d="M1472.6,449l83.7,71.1"/>
		<path class="st1" d="M1762.4,719.4L1698,643"/>
		<path class="st1" d="M1478.3,708.6l86-72.2"/>
	</g>
</g>
</svg>
