<?xml version="1.0" encoding="utf-8"?>
<!-- Generator: Adobe Illustrator 24.1.0, SVG Export Plug-In . SVG Version: 6.00 Build 0)  -->
<svg version="1.1" id="Layer_1" xmlns="http://www.w3.org/2000/svg" xmlns:xlink="http://www.w3.org/1999/xlink" x="0px" y="0px"
	 viewBox="0 0 99.5 143.2" style="enable-background:new 0 0 99.5 143.2;" xml:space="preserve">
<style type="text/css">
	.st0{fill:#E54355;}
	.st1{fill:#F0929C;}
	.st2{fill:#F19DA7;}
	.st3{fill:#ED7D8A;}
</style>
<g id="Layer_2_1_">
	<g id="Layer_1-2">
		<path class="st0" d="M99.5,141.4L99.5,141.4c0-0.2,0-0.5,0-0.8c0-0.1,0-0.2,0-0.3v-0.5c0-0.1,0-0.2,0-0.3s0-0.3,0-0.4
			s0-0.2-0.1-0.4s0-0.2-0.1-0.4s0-0.2-0.1-0.4s-0.1-0.2-0.1-0.3s-0.1-0.3-0.1-0.4s0-0.2-0.1-0.3c-0.4-1.2-0.8-2.4-1.5-3.5
			c-0.2-0.3-0.3-0.5-0.5-0.8s-0.4-0.7-0.7-1c-1-1.2-2.1-2.3-3.4-3.2c-0.3-0.2-0.6-0.4-0.8-0.6c-0.3-0.2-0.6-0.4-0.9-0.5
			c-0.3-0.2-0.7-0.3-1-0.5c-2.1-0.9-4.3-1.4-6.6-1.4h1.6v-5c2.4-0.6,4.3-2.4,5-4.8c0.2-0.7,0.3-1.4,0.3-2.1l0,0c0-0.2,0-0.4,0-0.6
			V113c-0.2-1.8-1-3.5-2.3-4.7c-0.2-0.2-0.3-0.3-0.5-0.4c-1.2-0.9-2.7-1.4-4.3-1.4h-2.7l0.1-0.2c0.1-0.3,0.2-0.7,0.3-1l0.2-0.5
			c0.1-0.4,0.3-0.9,0.4-1.3c0,0,0-0.1,0-0.1l0.4-1.5l0,0c1-3.8,1.8-7.7,2.3-11.6c2.9-8.9,4.4-18.3,4.3-27.6c0-5.3-0.5-10.5-1.4-15.7
			c-0.1-0.5-0.2-1-0.3-1.5c-0.3-1.3-0.6-2.5-0.9-3.8c-0.1-0.5-0.3-1-0.4-1.5c-0.5-1.7-1.1-3.4-1.7-5c-0.2-0.5-0.4-0.9-0.6-1.4
			c-0.3-0.7-0.6-1.4-0.9-2L82,30.4c-0.6-1.3-1.3-2.6-2.1-3.9c-0.2-0.4-0.5-0.8-0.7-1.2c-0.4-0.6-0.8-1.2-1.2-1.8
			c-2.4-3.5-5.3-6.6-8.6-9.3l-0.6-0.4c-0.9-0.7-1.9-1.4-2.9-2l-0.6-0.4c-2-1.2-4.2-2.3-6.4-3.1c-0.2-0.1-0.5-0.2-0.7-0.2
			c-0.7-0.2-1.4-0.5-2.1-0.7l-0.7-0.2c-3.9-1-7.9-1.4-11.9-1.3c-1.4,0-2.9,0.1-4.4,0.3c-0.6,0.1-1.2,0.1-1.8,0.2
			C33.5,7.1,29.6,8,25.9,9.2c-0.3,0.1-0.5,0.3-0.7,0.5C25.1,9.7,25,9.8,25,9.9c-0.1,0.1-0.2,0.3-0.2,0.5c0,0,0,0.1,0,0.1
			c0,0.1,0,0.2,0,0.3c0,0,0,0,0,0.1c0,0.3,0,0.6,0.2,0.9c0.2,0.4,0.4,0.7,0.5,1.1v0.1c0.2,0.4,0.3,0.7,0.5,1v0.1l0.5,1.1l0,0
			c0.7,1.5,1.4,2.8,2,4c-1.1,0.4-2.2,0.9-3.2,1.4c-5.3,2.6-9.2,7.3-10.9,13c-1.2,4-3.6,7.6-6.8,10.3l-5.8,4.8
			c-1.3,1.1-2,2.9-1.6,4.6l0,0c1.1,5.2,4.6,9.6,9.5,11.7h0.1c0.3,0.1,0.6,0.2,0.9,0.3h0.1c0.3,0.1,0.6,0.2,0.9,0.3l1.7,0.5
			c2.1,0.6,4.3-0.3,5.4-2.1c0.7-1.2,1.9-2,3.2-2.2l18.6-3.2l-2,3.9l0,0L29.9,79c-0.2,0.3-0.3,0.7-0.5,1c0,0.1-0.1,0.2-0.1,0.3
			L28.9,81c0,0.1-0.1,0.2-0.1,0.3l-0.4,0.9l-0.1,0.2c-0.1,0.3-0.2,0.6-0.3,0.8c0,0.1,0,0.1-0.1,0.2l-0.1,0.3l-0.2,0.5
			c0,0.1-0.1,0.2-0.1,0.3s-0.1,0.2-0.1,0.3c-0.1,0.3-0.2,0.6-0.3,0.9l-0.1,0.2c-0.1,0.4-0.2,0.7-0.3,1.1c0,0.1,0,0.1,0,0.2L26.7,88
			l-0.1,0.3l-0.2,0.9c0,0.1,0,0.1,0,0.2c-0.1,0.7-0.2,1.5-0.3,2.2c0,0.1,0,0.2,0,0.2c0,0.3-0.1,0.6-0.1,0.9c0,0.1,0,0.1,0,0.2
			c-0.1,0.8-0.1,1.5-0.1,2.3v1.3c0,0.6,0,1.2,0.1,1.8c0,0.4,0.1,0.8,0.1,1.3c0.1,0.8,0.2,1.5,0.3,2.3l0,0c0,0,0,0,0,0.1l0.1,0.4l0,0
			c0,0.3,0.1,0.7,0.2,1l0,0c0.1,0.4,0.2,0.9,0.3,1.3c0,0.1,0,0.1,0,0.2c0.1,0.4,0.2,0.9,0.4,1.3l0.1,0.2h-5.2c-0.2,0-0.5,0-0.7,0
			c-0.4,0-0.7,0.1-1.1,0.2c-0.3,0.1-0.7,0.2-1,0.3l-0.3,0.2c-0.3,0.2-0.6,0.3-0.9,0.5l-0.3,0.2c-0.2,0.1-0.4,0.3-0.5,0.4
			c-0.1,0.1-0.2,0.2-0.2,0.2c-0.3,0.3-0.6,0.6-0.9,1c-0.3,0.4-0.5,0.8-0.6,1.2c-0.3,0.7-0.5,1.5-0.6,2.3v0.1c0,0.2,0,0.4,0,0.6l0,0
			c0,0.7,0.1,1.4,0.3,2.1c0.2,0.7,0.5,1.3,0.9,1.9c1.2,1.7,3,2.9,5.1,3.1v4.8h1.6c-2.3,0-4.6,0.5-6.6,1.5c-0.4,0.2-0.8,0.4-1.1,0.6
			c-3.3,1.9-5.8,4.9-7.1,8.4l0,0c-0.1,0.3-0.2,0.7-0.3,1l-0.1,0.3l-0.1,0.4c0,0.1-0.1,0.2-0.1,0.4s-0.1,0.2-0.1,0.4s0,0.3-0.1,0.4
			s0,0.2,0,0.4l-0.1,0.4v0.3c0,0.2,0,0.3,0,0.5s0,0.2,0,0.3c0,0.2,0,0.5,0,0.8l0,0v0.2l0,0c0,0.1,0,0.1,0,0.1c0.1,0.4,0.3,0.7,0.6,1
			h0.1l0.2,0.1c0.3,0.2,0.6,0.2,0.9,0.2h88.8c0.5,0,1-0.2,1.3-0.6l0.1-0.1c0-0.1,0.1-0.1,0.1-0.2c0.1-0.2,0.2-0.4,0.2-0.6v-0.1l0,0
			l0,0C99.5,141.5,99.5,141.4,99.5,141.4L99.5,141.4z"/>
		<path class="st1" d="M24.8,5.7c2.6,5.4,5.5,11,5.5,11S61,39.8,61,66c0,6.8-0.7,13.5-2.2,20.2h25.1c3.3-9.4,5-19.4,5-29.4
			c0-34.1-19.6-67.4-63-53.5c-0.9,0.3-1.5,1.3-1.2,2.2C24.7,5.6,24.8,5.6,24.8,5.7z"/>
		<path class="st1" d="M18.6,57.9L18.6,57.9c0.7-1.2,1.9-2,3.2-2.2l18.7-3.3L29.9,73c-4.6,8.9-5.4,19.3-2.2,28.8h52.6
			c3.3-9.4,5-19.4,5-29.4c0-33.8-18.2-61.4-40.9-62.5H43c-5.3,0-11.9,1.8-17.8,4.6c-5.3,2.6-9.2,7.3-10.9,13
			c-1.2,4-3.6,7.6-6.8,10.2l-5.8,4.8c-1.3,1.1-2,2.9-1.6,4.6l0,0c1.2,6,5.6,10.7,11.5,12.4l1.7,0.5C15.4,60.6,17.5,59.7,18.6,57.9z"
			/>
		<path class="st2" d="M25.9,3.2c-0.9,0.3-1.5,1.3-1.1,2.3c0,0.1,0.1,0.2,0.1,0.2c0.7,1.5,1.5,3,2.2,4.4c5-2.3,10.5-3.6,16-3.8h0.7
			h0.5h0.2C67.1,7.4,85.3,35,85.3,68.9c0,5.8-0.5,11.6-1.6,17.3h0.2c3.3-9.4,5-19.4,5-29.4C88.8,22.7,69.2-10.7,25.9,3.2z"/>
		<path class="st2" d="M0.1,47.1c0.1,0.3,0.2,0.6,0.2,0.9c0.3-0.8,0.8-1.4,1.4-1.9l5.8-4.8c3.2-2.7,5.6-6.3,6.8-10.3
			c1.7-5.7,5.6-10.4,10.9-13c5.8-2.9,12.5-4.6,17.8-4.6h0.2h0.5h0.7c22.3,1.1,40.2,27.7,40.9,60.8c0-0.6,0-1.2,0-1.8
			c0-33.8-18.2-61.4-40.9-62.5H43c-5.3,0-11.9,1.8-17.8,4.6c-5.3,2.6-9.2,7.3-10.9,13c-1.2,4-3.6,7.6-6.8,10.2l-5.8,4.8
			C0.4,43.6-0.3,45.4,0.1,47.1z"/>
		<path class="st2" d="M40.5,56l-2,0.4L29.9,73c-3,5.8-4.4,12.2-4.1,18.7c0.3-5.3,1.6-10.5,4.1-15.2L40.5,56z"/>
		<path class="st3" d="M64.6,40.8c0,0,0,3.1-7.8,9.3c-4.6,3.6-10.8,4.5-16.2,2.4L29.9,73c-4.6,8.9-5.4,19.3-2.2,28.8
			c0,0,1.5-8.6,4.4-13.7s6.3-9.3,20.4-16.9S64.6,40.8,64.6,40.8z"/>
		<path class="st3" d="M82.2,96H26.3c0.3,2,0.8,4,1.5,5.9h52.6C81,100,81.6,98,82.2,96z"/>
		<rect x="21.3" y="101.9" class="st1" width="64" height="17.7"/>
		<path class="st1" d="M22.9,119.5h60.7c8.8,0,15.9,7.1,15.9,15.9l0,0l0,0c0,1-0.8,1.8-1.8,1.8H8.8c-1,0-1.8-0.7-1.8-1.7
			c0,0,0,0,0-0.1l0,0C7,126.6,14.1,119.5,22.9,119.5L22.9,119.5L22.9,119.5z"/>
		<path class="st2" d="M83.7,119.5H22.9c-8.8,0-15.9,7.1-15.9,15.9l0,0l0,0c0,0.3,0.1,0.5,0.2,0.8c1.2-7.7,7.9-13.4,15.7-13.4h60.7
			c7.8,0,14.5,5.7,15.7,13.4c0.1-0.2,0.2-0.5,0.2-0.8l0,0C99.5,126.6,92.4,119.5,83.7,119.5z"/>
		<path class="st3" d="M97.8,130.2H8.8c-0.3,0-0.6-0.1-0.8-0.2c-0.6,1.7-0.9,3.6-0.9,5.4l0,0c0,1,0.8,1.8,1.8,1.8c0,0,0,0,0,0h88.9
			c1,0,1.8-0.8,1.8-1.8l0,0c0-1.8-0.3-3.7-0.9-5.4C98.3,130.1,98,130.2,97.8,130.2z"/>
		<path class="st1" d="M22.1,100.5h61.3c3.9,0,7.2,3.2,7.2,7.1v0c0,3.9-3.2,7.1-7.2,7.1H22.1c-3.9,0-7.1-3.2-7.1-7.1v0
			C15,103.7,18.2,100.5,22.1,100.5z"/>
		<path class="st2" d="M83.5,100.5H22.1c-3.9,0-7.1,3.2-7.1,7.2l0,0l0,0c0,0.2,0,0.4,0,0.7c0.3-3.7,3.4-6.5,7.1-6.5h61.4
			c3.7,0,6.8,2.8,7.1,6.5c0-0.2,0-0.4,0-0.7l0,0C90.6,103.7,87.4,100.5,83.5,100.5z"/>
		<path class="st3" d="M83.5,110.3H22.1c-3.1,0-5.8-2-6.8-4.9c-0.2,0.7-0.4,1.5-0.4,2.3l0,0c0,3.9,3.2,7.1,7.2,7.1h61.3
			c3.9,0,7.1-3.2,7.1-7.1l0,0c0-0.8-0.1-1.5-0.4-2.3C89.3,108.3,86.5,110.3,83.5,110.3z"/>
		<path class="st3" d="M4.6,55.5c1.9,1.9,4.3,3.3,6.9,4.1l1.7,0.5c2.1,0.6,4.3-0.3,5.4-2.1c0.7-1.2,1.9-2,3.2-2.2l18.7-3.3
			c-2.8-2.4-6.3-3.9-10-4.3c-5.6-0.4-13.4,3.1-16,4.3C12.6,53.3,8.7,55.2,4.6,55.5z"/>
		<path class="st3" d="M38.2,21.9c0,0-1.3,4.5-5,6.6S25,29.3,25,29.3s1.4-4.5,5-6.6S38.2,21.9,38.2,21.9z"/>
	</g>
</g>
</svg>
