<svg xmlns="http://www.w3.org/2000/svg" viewBox="0 0 97 140"><defs><style>.cls-1{fill:#8d6a9f;}.cls-2{fill:#f9db5f;}.cls-3{fill:#f6cc1b;}.cls-4{fill:#5f2d78;}.cls-5{fill:#fff;}.cls-6{fill:#f8d8b4;}.cls-7{fill:#fae58d;}.cls-8{fill:#fcf0e2;}.cls-9{fill:#c96a9e;}.cls-10{fill:#bf4d8b;}.cls-11{fill:#794f8e;}</style></defs><g id="Layer_2" data-name="Layer 2"><g id="Layer_1-2" data-name="Layer 1"><rect class="cls-1" y="16" width="97" height="124" rx="5" transform="translate(97 156) rotate(-180)"/><path class="cls-2" d="M42,5V8a5,5,0,0,0,5,5h3a5,5,0,0,0,5-5V5a5,5,0,0,0-5-5H47A5,5,0,0,0,42,5Zm4.67.5A1.83,1.83,0,1,1,48.5,7.33,1.83,1.83,0,0,1,46.67,5.5Z"/><path class="cls-3" d="M46.67,5.5A1.83,1.83,0,1,0,48.5,3.67h6.3A4.86,4.86,0,0,1,55,5V7.33H42V5a4.86,4.86,0,0,1,.2-1.33h6.3A1.83,1.83,0,0,0,46.67,5.5Z"/><rect class="cls-4" x="6.5" y="24.58" width="84" height="110.83" rx="2.7" transform="translate(97 160) rotate(-180)"/><rect class="cls-5" x="6.5" y="22.58" width="84" height="110.83" rx="2.7" transform="translate(97 156) rotate(-180)"/><path class="cls-4" d="M26.43,22.58a4.53,4.53,0,0,1-.1-.91V14.33a5,5,0,0,1,5-5H65.67a5,5,0,0,1,5,5v7.34a4.53,4.53,0,0,1-.1.91Z"/><path class="cls-6" d="M70.57,22.58a5,5,0,0,1-4.9,4.09H31.33a5,5,0,0,1-4.9-4.09Z"/><rect class="cls-2" x="26.33" y="7.33" width="44.33" height="17.33" rx="5" transform="translate(97 32) rotate(-180)"/><path class="cls-3" d="M31.33,19.67H65.67a5,5,0,0,0,5-5v5a5,5,0,0,1-5,5H31.33a5,5,0,0,1-5-5v-5A5,5,0,0,0,31.33,19.67Z"/><path class="cls-7" d="M31.33,7.33H65.67a5,5,0,0,1,5,5v2a5,5,0,0,0-5-5H31.33a5,5,0,0,0-5,5v-2A5,5,0,0,1,31.33,7.33Z"/><path class="cls-8" d="M22.71,58.62l-5.43-5.44a2.84,2.84,0,0,1,4-4l5.43,5.44,5.44-5.44a2.84,2.84,0,0,1,4,4l-5.43,5.44,5.43,5.44a2.84,2.84,0,0,1-4,4l-5.44-5.44L21.3,68.08a2.84,2.84,0,0,1-4-4Z"/><path class="cls-8" d="M66.24,101.38l-5.43-5.44a2.84,2.84,0,0,1,4-4l5.44,5.44,5.43-5.44a2.84,2.84,0,0,1,4,4l-5.43,5.44,5.43,5.44a2.84,2.84,0,1,1-4,4l-5.43-5.44-5.44,5.44a2.84,2.84,0,0,1-4-4Z"/><path class="cls-8" d="M16.58,100.38A11.29,11.29,0,1,0,27.86,89.1,11.29,11.29,0,0,0,16.58,100.38Zm11.28-6a6,6,0,1,1-6,6A6,6,0,0,1,27.86,94.35Z"/><path class="cls-8" d="M77.56,70.44a3,3,0,0,0,3-3V51.33a3,3,0,0,0-3-3H61.45a3,3,0,0,0,0,6H74.56V67.44A3,3,0,0,0,77.56,70.44Z"/><rect class="cls-8" x="24.2" y="70.43" width="62.51" height="6" transform="translate(-35.68 60.72) rotate(-45)"/><path class="cls-9" d="M22.71,56.62l-5.43-5.44a2.84,2.84,0,0,1,4-4l5.43,5.44,5.44-5.44a2.84,2.84,0,0,1,4,4l-5.43,5.44,5.43,5.44a2.84,2.84,0,0,1-4,4l-5.44-5.44L21.3,66.08a2.84,2.84,0,0,1-4-4Z"/><path class="cls-9" d="M66.24,99.38l-5.43-5.44a2.84,2.84,0,0,1,4-4l5.44,5.44,5.43-5.44a2.84,2.84,0,0,1,4,4l-5.43,5.44,5.43,5.44a2.84,2.84,0,1,1-4,4l-5.43-5.44-5.44,5.44a2.84,2.84,0,0,1-4-4Z"/><path class="cls-10" d="M74.29,99.38l-1.5-1.5,6.93-6.94a2.43,2.43,0,0,0,.4-.51,2.82,2.82,0,0,1-.4,3.51Z"/><path class="cls-10" d="M60.81,90.94l6.93,6.94-1.5,1.5-5.43-5.44a2.84,2.84,0,0,1-.4-3.51A2.43,2.43,0,0,0,60.81,90.94Z"/><path class="cls-10" d="M60.81,105.84a2.84,2.84,0,0,0,4,0l5.44-5.44,5.43,5.44a2.84,2.84,0,0,0,4,0,2.72,2.72,0,0,0,.4-.51,2.84,2.84,0,0,1-4.42,3.51l-5.43-5.44-5.44,5.44a2.84,2.84,0,0,1-4.42-3.51A2.72,2.72,0,0,0,60.81,105.84Z"/><path class="cls-10" d="M30.76,56.62l-1.5-1.5,6.93-6.94a2.43,2.43,0,0,0,.4-.51,2.84,2.84,0,0,1-.4,3.51Z"/><path class="cls-10" d="M17.28,48.18l6.93,6.94-1.5,1.5-5.43-5.44a2.82,2.82,0,0,1-.4-3.51A2.43,2.43,0,0,0,17.28,48.18Z"/><path class="cls-10" d="M17.28,63.08a2.84,2.84,0,0,0,4,0l5.43-5.44,5.44,5.44a2.84,2.84,0,0,0,4,0,2.72,2.72,0,0,0,.4-.51,2.84,2.84,0,0,1-4.42,3.51l-5.44-5.44L21.3,66.08a2.84,2.84,0,0,1-4.42-3.51A2.72,2.72,0,0,0,17.28,63.08Z"/><rect class="cls-1" x="24.2" y="68.43" width="62.51" height="6" transform="translate(-34.27 60.13) rotate(-45)"/><path class="cls-11" d="M74.36,48.28H75.6a3,3,0,0,1,1.13.23l1.65,1.64a3,3,0,0,1,.22,1.13v1.25l-6,6V54.28H68.36Z"/><polygon class="cls-11" points="35.48 92.65 78.18 49.95 79.68 51.45 35.48 95.65 31.24 91.41 32.74 89.91 35.48 92.65"/><path class="cls-1" d="M77.56,68.44a3,3,0,0,0,3-3V49.33a3,3,0,0,0-3-3H61.45a3,3,0,0,0,0,6H74.56V65.44A3,3,0,0,0,77.56,68.44Z"/><path class="cls-11" d="M60.64,46.46a2.69,2.69,0,0,0-.13.81,3,3,0,0,0,3,3H76.62V63.38a3,3,0,0,0,3,3,3.12,3.12,0,0,0,.81-.13,3,3,0,0,1-5.87-.81V52.33H61.45a3,3,0,0,1-.81-5.87Z"/><path class="cls-1" d="M16.58,98.38A11.29,11.29,0,1,0,27.86,87.1,11.29,11.29,0,0,0,16.58,98.38Zm11.28-6a6,6,0,1,1-6,6A6,6,0,0,1,27.86,92.35Z"/><path class="cls-11" d="M19.52,98.38A8.35,8.35,0,1,0,27.86,90,8.35,8.35,0,0,0,19.52,98.38Zm2.31,0a6,6,0,1,1,6,6A6,6,0,0,1,21.83,98.38Z"/></g></g></svg>