<svg xmlns="http://www.w3.org/2000/svg" viewBox="0 0 504.2 526.31"><defs><style>.cls-1{fill:#ea8b23;}.cls-2{fill:#f9d96f;}.cls-3{fill:#f6cc1c;}.cls-4{fill:#fbe296;}.cls-5{fill:#bb5482;}.cls-6{fill:#c36e92;}.cls-7{fill:#fadfc3;}.cls-8{fill:#e54355;}.cls-9{fill:#fcebda;}</style></defs><g id="Layer_2" data-name="Layer 2"><g id="Layer_1-2" data-name="Layer 1"><circle class="cls-1" cx="252.1" cy="274.21" r="252.1"/><circle class="cls-2" cx="252.1" cy="252.1" r="252.1"/><path class="cls-3" d="M455.55,253.16c0,112.36-91.09,203.44-203.45,203.44A202.49,202.49,0,0,1,133,418.08c-1.71-1.22-3.41-2.49-5.06-3.78A203.1,203.1,0,0,1,48.65,253.16c0-112.36,91.09-203.45,203.45-203.45S455.55,140.8,455.55,253.16Z"/><path class="cls-1" d="M372.36,377.89l-17.21-57.25a120.11,120.11,0,0,0,14.42-34.73l52.61-28.28-52.61-28.29a120.11,120.11,0,0,0-14.42-34.73l17.21-57.24-57.25,17.21a120.11,120.11,0,0,0-34.73-14.42L252.1,87.55l-28.28,52.61a120,120,0,0,0-34.73,14.42l-57.25-17.21,17.21,57.24a120.11,120.11,0,0,0-14.42,34.73L82,257.63l52.61,28.28a120.11,120.11,0,0,0,14.42,34.73l-17.21,57.25,57.25-17.21a120,120,0,0,0,34.73,14.42l28.28,52.6,28.28-52.6a120.11,120.11,0,0,0,34.73-14.42Zm-219-120.26a98.71,98.71,0,1,1,98.71,98.71A98.82,98.82,0,0,1,153.39,257.63Z"/><path class="cls-4" d="M252.1,372.92A120.82,120.82,0,1,1,372.92,252.1,121,121,0,0,1,252.1,372.92Zm0-219.53a98.71,98.71,0,1,0,98.71,98.71A98.82,98.82,0,0,0,252.1,153.39Z"/><path class="cls-1" d="M252.1,70.76c108.65,0,197.4,85.18,203.15,192.4.19-3.66.3-7.35.3-11.06,0-112.36-91.09-203.45-203.45-203.45S48.65,139.74,48.65,252.1c0,3.71.11,7.4.3,11.06C54.7,155.94,143.45,70.76,252.1,70.76Z"/><polygon class="cls-4" points="285.82 144.75 218.38 144.75 252.1 82.02 285.82 144.75"/><polygon class="cls-4" points="218.38 359.45 285.82 359.45 252.1 422.18 218.38 359.45"/><polygon class="cls-4" points="359.45 285.82 359.45 218.38 422.18 252.1 359.45 285.82"/><polygon class="cls-4" points="144.75 218.38 144.75 285.82 82.02 252.1 144.75 218.38"/><polygon class="cls-4" points="152.34 304.16 200.04 351.86 131.84 372.36 152.34 304.16"/><polygon class="cls-4" points="351.86 200.04 304.16 152.34 372.36 131.84 351.86 200.04"/><polygon class="cls-4" points="304.16 351.86 351.86 304.16 372.36 372.36 304.16 351.86"/><polygon class="cls-4" points="200.04 152.34 152.34 200.04 131.84 131.84 200.04 152.34"/><path class="cls-1" d="M376.3,150.54v21L284.45,328.14,133,417c-1.71-1.23-3.41-2.49-5.06-3.79V399l22-37.52,69.85-119Z"/><path class="cls-3" d="M322,182.43a98.89,98.89,0,0,1,24.37,40.25l14.09-24c-1.62-3.28-3.37-6.48-5.27-9.57l9.54-31.73Z"/><path class="cls-3" d="M176.71,315.74l-26.81,45.7L146,368.1l43.1-13A120.1,120.1,0,0,0,217,367.7l29.11-17.08A98.55,98.55,0,0,1,176.71,315.74Z"/><polygon class="cls-5" points="219.75 241.32 284.45 306.03 376.31 149.47 376.31 128.43 219.75 220.28 219.75 241.32"/><polygon class="cls-6" points="376.31 128.43 219.75 220.28 284.45 284.99 376.31 128.43"/><polygon class="cls-7" points="284.45 284.99 219.75 220.28 127.89 376.85 127.89 397.88 284.45 306.03 284.45 284.99"/><polygon class="cls-8" points="127.89 376.85 284.45 284.99 219.75 220.28 127.89 376.85"/><circle class="cls-9" cx="252.1" cy="252.64" r="24.19"/><path class="cls-7" d="M235,238.69a24.17,24.17,0,0,1,41.23,15.53,24.17,24.17,0,1,0-48.24,0A24.08,24.08,0,0,1,235,238.69Z"/><path class="cls-7" d="M238,252.59a14.11,14.11,0,1,0,28.22,0v-5.16a14.11,14.11,0,1,0-28.22,0Z"/><circle class="cls-8" cx="252.1" cy="247.38" r="14.12"/></g></g></svg>