<svg xmlns="http://www.w3.org/2000/svg" viewBox="0 0 467 388"><defs><style>.cls-1{fill:#f9d96f;}.cls-2{fill:#fbe296;}.cls-3{fill:#f6cc1c;}.cls-4{fill:#e54355;}.cls-5{fill:#fef5e0;}.cls-6{fill:#ea8b23;}.cls-7{fill:#c36e92;}.cls-8{fill:#bb5482;}.cls-9{fill:#af206e;}</style></defs><g id="Layer_2" data-name="Layer 2"><g id="Layer_1-2" data-name="Layer 1"><rect class="cls-1" x="27.5" y="259" width="412" height="86"/><rect class="cls-2" x="2.5" y="345" width="462" height="43" rx="21.5"/><path class="cls-3" d="M443,368H24A21.49,21.49,0,0,1,5,356.5,21.48,21.48,0,0,0,24,388H443a21.48,21.48,0,0,0,19-31.5A21.49,21.49,0,0,1,443,368Z"/><rect class="cls-1" x="2.5" y="216" width="462" height="43" rx="21.5"/><path class="cls-3" d="M443,239H24A21.49,21.49,0,0,1,5,227.5,21.48,21.48,0,0,0,24,259H443a21.48,21.48,0,0,0,19-31.5A21.49,21.49,0,0,1,443,239Z"/><path class="cls-3" d="M94.18,309.92c0-.34-.09-.68-.15-1s-.07-.39-.11-.58c-.1-.45-.21-.89-.34-1.33h0a17.24,17.24,0,0,0-33,0h0c-.14.43-.25.88-.35,1.33,0,.19-.07.39-.11.58s-.11.67-.15,1l-.06.53c0,.51-.08,1-.08,1.55h0a17.21,17.21,0,0,0,17.25,17.24h0A17.21,17.21,0,0,0,94.32,312c0-.53,0-1.05-.08-1.56C94.23,310.26,94.2,310.09,94.18,309.92Z"/><path class="cls-3" d="M407.17,312c0-.52,0-1-.08-1.55l-.06-.52c0-.34-.09-.68-.15-1s-.07-.39-.11-.58c-.1-.45-.21-.9-.35-1.33h0a17.24,17.24,0,0,0-33,0h0c-.13.44-.24.88-.34,1.33,0,.19-.07.38-.11.58s-.11.67-.15,1c0,.17-.05.34-.06.52-.05.51-.08,1-.08,1.56h0A17.23,17.23,0,0,0,379,325.31c.43.35.87.68,1.33,1a17.15,17.15,0,0,0,9.64,2.94h0A17.24,17.24,0,0,0,407.17,312Z"/><path class="cls-3" d="M172.45,310.44a4.6,4.6,0,0,0-.06-.52c0-.34-.09-.68-.15-1s-.07-.39-.11-.58c-.1-.45-.21-.9-.34-1.33h0a17.24,17.24,0,0,0-33,0h0c-.13.44-.25.88-.34,1.33a5.4,5.4,0,0,0-.11.58c-.06.33-.12.67-.16,1l-.06.52c0,.51-.07,1-.08,1.56h0a17.24,17.24,0,0,0,6.28,13.31c.43.35.87.68,1.33,1a17.15,17.15,0,0,0,9.64,2.94h0A17.24,17.24,0,0,0,172.53,312h0C172.53,311.47,172.5,311,172.45,310.44Z"/><path class="cls-3" d="M250.66,310.44c0-.18,0-.35,0-.52-.05-.34-.1-.68-.16-1s-.07-.39-.11-.58c-.1-.45-.21-.89-.34-1.33h0a17.24,17.24,0,0,0-33,0h0c-.13.44-.24.88-.34,1.33,0,.19-.08.38-.11.58s-.11.67-.16,1c0,.17,0,.34,0,.52-.05.51-.08,1-.08,1.56h0a17.23,17.23,0,0,0,6.27,13.31c.43.35.87.68,1.33,1a17.15,17.15,0,0,0,9.64,2.94h0A17.24,17.24,0,0,0,250.74,312h0C250.74,311.47,250.71,311,250.66,310.44Z"/><path class="cls-3" d="M328.88,310.44l-.06-.52c0-.34-.1-.68-.16-1a5.4,5.4,0,0,0-.11-.58c-.09-.45-.21-.89-.34-1.33h0a17.24,17.24,0,0,0-33,0h0c-.13.43-.24.88-.34,1.33,0,.19-.08.38-.11.58s-.11.67-.15,1a4.6,4.6,0,0,0-.06.52c-.05.51-.08,1-.08,1.55h0a17.24,17.24,0,0,0,9,15.16,16.16,16.16,0,0,0,1.51.73,17.21,17.21,0,0,0,6.71,1.35h0A17.25,17.25,0,0,0,329,312h0C329,311.47,328.92,311,328.88,310.44Z"/><circle class="cls-4" cx="77.08" cy="302" r="17.24"/><path class="cls-5" d="M77.08,309.24A17.24,17.24,0,0,1,60.58,297a17.24,17.24,0,1,0,33,0A17.26,17.26,0,0,1,77.08,309.24Z"/><circle class="cls-4" cx="155.29" cy="302" r="17.24"/><circle class="cls-4" cx="233.5" cy="302" r="17.24"/><circle class="cls-4" cx="311.71" cy="302" r="17.24"/><circle class="cls-4" cx="389.92" cy="302" r="17.24"/><path class="cls-5" d="M155.29,309.24A17.24,17.24,0,0,1,138.79,297a17.24,17.24,0,1,0,33,0A17.25,17.25,0,0,1,155.29,309.24Z"/><path class="cls-5" d="M233.5,309.24A17.25,17.25,0,0,1,217,297a17.24,17.24,0,1,0,33,0A17.25,17.25,0,0,1,233.5,309.24Z"/><path class="cls-5" d="M311.71,309.24A17.25,17.25,0,0,1,295.21,297a17.24,17.24,0,1,0,33,0A17.24,17.24,0,0,1,311.71,309.24Z"/><path class="cls-5" d="M389.92,309.24A17.26,17.26,0,0,1,373.42,297a17.25,17.25,0,1,0,33,0A17.24,17.24,0,0,1,389.92,309.24Z"/><polygon class="cls-2" points="0 72.39 30 216 218.76 216 0 72.39"/><polygon class="cls-6" points="120 216 0 72.39 218.76 216 120 216"/><polygon class="cls-3" points="467 72.39 437 216 248.24 216 467 72.39"/><polygon class="cls-6" points="347 216 467 72.39 248.24 216 347 216"/><polygon class="cls-3" points="389.92 216 77.08 216 233.5 0 389.92 216"/><polygon class="cls-2" points="233.5 0 233.5 216 77.08 216 233.5 0"/><path class="cls-6" d="M264.31,151.71a14.46,14.46,0,0,1-2.75,8.5l-16.33,22.55a14.48,14.48,0,0,1-23.46,0l-16.33-22.55a14.46,14.46,0,0,1-2.75-8.5v-10l19.08-21a14.48,14.48,0,0,1,23.46,0l19.08,21Z"/><path class="cls-7" d="M264.31,141.71a14.46,14.46,0,0,1-2.75,8.5l-16.33,22.55a14.48,14.48,0,0,1-23.46,0l-16.33-22.55a14.48,14.48,0,0,1,0-17l16.33-22.56a14.48,14.48,0,0,1,23.46,0l16.33,22.56A14.38,14.38,0,0,1,264.31,141.71Z"/><path class="cls-8" d="M264.31,141.71H233.5v-37a14.4,14.4,0,0,1,11.73,6l16.33,22.56A14.38,14.38,0,0,1,264.31,141.71Z"/><path class="cls-8" d="M202.69,141.71H233.5v37a14.4,14.4,0,0,1-11.73-6l-16.33-22.56A14.38,14.38,0,0,1,202.69,141.71Z"/><path class="cls-9" d="M264.31,141.71H233.5v37a14.4,14.4,0,0,0,11.73-6l16.33-22.56A14.38,14.38,0,0,0,264.31,141.71Z"/><rect class="cls-6" x="27.5" y="259" width="412" height="11"/><rect class="cls-3" x="27.5" y="334" width="412" height="11"/></g></g></svg>