<?xml version="1.0" encoding="utf-8"?>
<!-- Generator: Adobe Illustrator 24.1.0, SVG Export Plug-In . SVG Version: 6.00 Build 0)  -->
<svg version="1.1" id="Layer_1" xmlns="http://www.w3.org/2000/svg" xmlns:xlink="http://www.w3.org/1999/xlink" x="0px" y="0px"
	 viewBox="0 0 689.5 523" style="enable-background:new 0 0 689.5 523;" xml:space="preserve">
<style type="text/css">
	.st0{fill-rule:evenodd;clip-rule:evenodd;fill:#6C297B;}
	.st1{fill-rule:evenodd;clip-rule:evenodd;fill:#EA6A79;}
	.st2{fill-rule:evenodd;clip-rule:evenodd;fill:#F6CC1B;}
	.st3{fill-rule:evenodd;clip-rule:evenodd;fill:#E54355;}
	.st4{fill-rule:evenodd;clip-rule:evenodd;fill:#C6ABCB;}
	.st5{fill-rule:evenodd;clip-rule:evenodd;fill:#FBD0CD;}
	.st6{fill-rule:evenodd;clip-rule:evenodd;fill:#FFFFFF;}
	.st7{fill-rule:evenodd;clip-rule:evenodd;fill:#EFA04B;}
	.st8{fill-rule:evenodd;clip-rule:evenodd;fill:#ED9537;}
	.st9{fill-rule:evenodd;clip-rule:evenodd;fill:#EB8B23;}
	.st10{fill-rule:evenodd;clip-rule:evenodd;fill:#EE9B42;}
	.st11{fill-rule:evenodd;clip-rule:evenodd;fill:#F1AF67;}
	.st12{fill-rule:evenodd;clip-rule:evenodd;fill:#F3B879;}
	.st13{fill-rule:evenodd;clip-rule:evenodd;fill:#EFA553;}
	.st14{fill-rule:evenodd;clip-rule:evenodd;fill:#8E5A99;}
	.st15{fill-rule:evenodd;clip-rule:evenodd;fill:#A074A9;}
	.st16{fill-rule:evenodd;clip-rule:evenodd;fill:#EF4136;}
	.st17{fill-rule:evenodd;clip-rule:evenodd;fill:#874F93;}
	.st18{fill-rule:evenodd;clip-rule:evenodd;fill:#EC9332;}
	.st19{fill-rule:evenodd;clip-rule:evenodd;fill:#F4BF86;}
</style>
<path class="st0" d="M346.7,66.5c108.9,0,204.3,88.3,213.1,197.2c8.8,108.9-72.3,197.2-181.3,197.2c-3.7,0-7.3-0.1-11-0.3
	C471,454.9,546.5,368.9,538,263.7c-8.5-105.2-97.9-191.2-202.2-196.9C339.4,66.6,343.1,66.5,346.7,66.5z"/>
<path class="st1" d="M142.3,413.7c23-5.1,46.6,8.7,52.7,30.9c1.9,6.8,1.9,13.6,0.3,19.9c-10.5-11.2-26.7-16.8-42.7-13.2
	c-23,5.1-46.6-8.7-52.7-30.9c-1.9-6.8-1.9-13.6-0.3-19.9C110.1,411.7,126.3,417.3,142.3,413.7z"/>
<ellipse transform="matrix(0.6783 -0.7348 0.7348 0.6783 -108.9352 371.377)" class="st0" cx="369.7" cy="310.1" rx="182.2" ry="213.8"/>
<path class="st2" d="M272.7,132c-0.5,1.2-1.1,2.5-1.1,2.5l-3.6,0.1c0,0,3,6.7,9.3,8C273.2,139.4,272.7,134.1,272.7,132z"/>
<ellipse transform="matrix(0.6927 -0.7212 0.7212 0.6927 -116.9357 347.1023)" class="st3" cx="348.9" cy="310.8" rx="184.4" ry="199.9"/>
<ellipse transform="matrix(0.3429 -0.9394 0.9394 0.3429 -86.5298 601.2092)" class="st1" cx="386.5" cy="362.5" rx="137.9" ry="156.3"/>
<path class="st2" d="M265.6,138.7c0.9-0.1,1.8,0.6,1.9,1.5c0,0.1,0,0.2,0,0.3c0,1.8-0.8,3.7,1.1,7.8c-3.7-2.2-4.4-6.8-4.5-7.6
	c0-0.1,0-0.1,0-0.2C264,139.6,264.7,138.7,265.6,138.7z"/>
<path class="st1" d="M209.7,389c28.1-7.4,57.7,8.5,66.3,35.6c2.6,8.3,3,16.6,1.4,24.4c-13.4-13.3-33.7-19.4-53.2-14.2
	c-28.1,7.4-57.7-8.5-66.3-35.6c-2.6-8.3-3-16.6-1.4-24.4C169.9,388,190.2,394.1,209.7,389z"/>
<ellipse transform="matrix(0.6927 -0.7212 0.7212 0.6927 -147.5933 422.7291)" class="st4" cx="422.3" cy="384.6" rx="113.4" ry="123"/>
<ellipse transform="matrix(0.6615 -0.75 0.75 0.6615 -165.1623 476.2169)" class="st5" cx="444.9" cy="421.1" rx="72" ry="92.5"/>
<path class="st6" d="M420.1,370.7c33.1,0,66.7,26.8,75,59.9c8.3,33.1-11.7,59.9-44.8,59.9s-66.7-26.8-75-59.9
	C366.9,397.5,387,370.7,420.1,370.7z"/>
<path class="st5" d="M367.5,376.4c15.8,0,31.9,12.8,35.9,28.7c4,15.8-5.6,28.7-21.5,28.7c-15.8,0-31.9-12.8-35.9-28.7
	C342,389.2,351.6,376.4,367.5,376.4z"/>
<path class="st5" d="M362.7,335.8c3,0,6,2.4,6.7,5.4c0.7,3-1.1,5.4-4,5.4c-3,0-6-2.4-6.7-5.4C357.9,338.2,359.7,335.8,362.7,335.8z"
	/>
<path class="st0" d="M654.8,14c13.7,0.5,25.6,4.2,33.3,9.6c-4.3-0.9-8.9-1.5-13.7-1.7c-25-1-46.5,8.8-48,21.8
	c-0.7,5.9,2.8,11.5,9.1,15.9c-17.8-3.8-30-13.2-28.7-23.8C608.4,22.8,629.9,13,654.8,14z"/>
<path class="st0" d="M592.3,240.1c32.4,104-23.6,221.3-124.9,262.1C366,543,257.6,491.8,225.2,387.8c-1.1-3.5-2.1-7-3-10.6
	c36.1,97,140.7,143.5,238.6,104.1s153.5-150.3,127.9-251.6C590,233.2,591.2,236.6,592.3,240.1z"/>
<path class="st5" d="M329.8,322.9c3,0,5.6-2.2,6-5.2c0.4-3-1.5-5.8-4.3-6.7L299,297.2c-1.5-0.8-3.2-1.3-5-1.6
	c-8.6-1.3-16.5,4.7-17.6,13.3c-1.1,8.6,5,16.6,13.7,17.9c1,0.2,2.1,0.2,3.1,0.1v0l0,0c0.6,0,1.2-0.1,1.9-0.2L329.8,322.9
	L329.8,322.9z"/>
<path class="st5" d="M332.7,269.4c-0.2-16.2-12.5-22.5-27.5-13.9c-14.9,8.6-26.8,28.7-26.6,44.9c0.2,16.2,12.5,22.5,27.5,13.9
	C321.1,305.8,333,285.6,332.7,269.4z"/>
<path class="st0" d="M616.3,444c-6.3,17-27.7,32.5-47.8,34.6c-20.1,2.1-31.3-10-25.1-27c6.3-17,27.7-32.5,47.8-34.6
	C611.4,414.9,622.6,427,616.3,444z"/>
<path class="st0" d="M564.5,371.9c0,11.2-9,24.6-20.2,30.1c-11.2,5.5-20.2,0.9-20.2-10.3c0-11.2,9-24.6,20.2-30.1
	C555.4,356.2,564.5,360.8,564.5,371.9z"/>
<path class="st2" d="M364.6,181.3c6.5-19.3,9.4-37.8,8.5-51.2c-1.4,6.4-3.2,13.1-5.5,19.9c-2.6,7.6-5.5,14.8-8.7,21.2
	c1.1-6.3,1.9-12.9,2.5-19.6c2.3-26.4,0.3-50.5-4.7-67.4c0.2,8.5-0.1,17.5-0.9,26.8c-4.1,48.1-20.9,85.4-37.5,83.1
	c-1.1-0.1-2.1-0.5-3.2-0.9c-0.6-2.6-1-5.6-1.2-8.8c-0.5,2.5-1,4.9-1.4,7.2c-4.9-3.7-9-11.2-12-21.3c0.6,24.1,5,44.3,11.9,55.3
	c1.6,5.8,4.2,9.7,8,11.1C332.8,241.4,352.6,216.6,364.6,181.3z"/>
<path class="st0" d="M608.1,402.7c-7,19.1-31,36.4-53.5,38.8c-22.5,2.3-35.1-11.2-28.1-30.3c7-19.1,31-36.4,53.5-38.8
	C602.6,370.1,615.1,383.6,608.1,402.7z"/>
<path class="st2" d="M217.5,104.7c-10.3-3.2-18.6-8.4-23.3-14.1c3.1,1.6,6.4,2.9,10.1,4.1c18.8,5.9,37.1,2.8,41-6.8
	c1.7-4.3,0.2-9.3-3.7-13.9c12.8,6.5,20.1,16.2,17,23.9C254.6,107.5,236.2,110.5,217.5,104.7z"/>
<path class="st2" d="M217.3,97.4c-6.6,0-12.4-1.5-16.2-3.9c2.1,0.3,4.3,0.5,6.6,0.5c12.1-0.1,22.2-5.2,22.7-11.6
	c0.2-2.9-1.6-5.5-4.8-7.5c8.7,1.4,14.7,5.7,14.4,10.8C239.6,92.1,229.4,97.3,217.3,97.4z"/>
<path class="st2" d="M230,68.6c1.3-0.1,2.7-0.1,4.2,0.1c13.5,1.2,26.3,11.3,28.7,22.5l0.1,0.6c-3.9-5.1-9.9-9.4-16.5-11.6
	C242.5,75.1,236.6,70.9,230,68.6z"/>
<path class="st0" d="M430,254.7c91.1,68.1,144.8,146.7,125.4,192c-23.9,55.8-149.4,40.2-280.3-34.8c-38.6-22.1-73.4-47-102.6-72.4
	c21,15.7,43.9,30.8,68.5,44.9c130.9,75,256.4,90.6,280.3,34.8C538.1,379.8,499.9,315.5,430,254.7z"/>
<path class="st7" d="M461.5,281c-8-14.2-17.3-25.6-25.5-32.1c3,4.2,6,8.9,8.9,13.9c14.7,25.8,19.6,51,11,56.3
	c-3.9,2.4-9.9,0.2-16.6-5.2c12.7,17.6,26.3,27.7,33.3,23.5C481,332,476.1,306.8,461.5,281z"/>
<path class="st7" d="M442.7,281.1c-8.2-12.2-17.3-21.8-25-27.2c3,3.6,6,7.6,8.9,11.9c14.9,22.2,21,44.5,13.6,49.8
	c-3.3,2.4-8.9,0.9-15.3-3.5c12.6,15,25.5,23.1,31.4,18.9C463.7,325.7,457.6,303.4,442.7,281.1z"/>
<path class="st2" d="M331.5,321.8c3,0,5.6-2.2,6-5.2c0.4-3-1.5-5.8-4.3-6.7l-32.5-13.7c-1.5-0.8-3.2-1.3-5-1.6
	c-8.6-1.3-16.5,4.7-17.6,13.3c-1.1,8.6,5,16.6,13.7,17.9c1,0.2,2.1,0.2,3.1,0.1v0l0,0c0.6,0,1.2-0.1,1.9-0.2L331.5,321.8
	L331.5,321.8z"/>
<path class="st7" d="M336.2,269.4c0.9-16.2-10.9-22.5-26.5-13.9c-15.5,8.6-28.9,28.7-29.8,44.9c-0.9,16.2,10.9,22.5,26.5,13.9
	C322,305.8,335.3,285.6,336.2,269.4z"/>
<path class="st2" d="M337.4,323.3c3,0,5.9-2.2,6.7-5.2c0.8-3-0.7-5.8-3.4-6.7L310,297.6c-1.4-0.8-3-1.3-4.8-1.6
	c-8.5-1.3-17.1,4.7-19.4,13.3c-2.2,8.6,2.9,16.6,11.3,17.9c1,0.2,2.1,0.2,3.1,0.2l0,0l0,0c0.6,0,1.3-0.1,1.9-0.2L337.4,323.3
	L337.4,323.3z"/>
<path class="st2" d="M348.7,270.9c3.1-16.2-8-22.5-24.6-13.9c-16.7,8.6-32.7,28.7-35.7,44.9c-3.1,16.2,8,22.5,24.6,13.9
	C329.6,307.2,345.6,287.1,348.7,270.9z"/>
<path class="st2" d="M335.5,361c-0.5,2.9-3.2,5-6.1,4.8c-2.8-0.2-4.7-2.7-4.2-5.6l3.9-42.2c0-0.5,0.1-1.1,0.2-1.7
	c0.9-5,5.7-8.8,10.7-8.5c5,0.4,8.3,4.8,7.4,9.8c-0.1,0.6-0.3,1.1-0.5,1.6L335.5,361z"/>
<path class="st2" d="M350.4,339c-1.4,0.1-3,0.3-4.5,0.6c-14.8,3.4-29.9,18.6-33.7,34.1c-3.8,15.5,5.1,25.3,19.9,21.9
	c2.9-0.7,5.8-1.8,8.7-3.3c-12,0.6-18.7-8.7-15.3-22.5C328.4,357.3,338.8,345,350.4,339z"/>
<path class="st2" d="M349.3,341.2c-1,0.2-2,0.5-3.1,0.9c-10,3.9-19.1,15.7-20.4,26.2c-1.2,10.6,5.8,15.9,15.8,12
	c2-0.8,3.9-1.8,5.7-3.2c-8.3,1.8-13.8-3.5-12.7-12.9C335.7,355.8,341.8,346.6,349.3,341.2z"/>
<path class="st2" d="M353.7,320.6c0.1,0.6,0.2,1.3,0.3,2c0.3,6.6-4.4,15-10.6,18.6c-6.2,3.6-11.5,1.2-11.9-5.4
	c-0.1-1.3,0.1-2.7,0.4-4.1c1.2,5.1,6,6.7,11.6,3.5C348.4,332.2,352.4,326.2,353.7,320.6z"/>
<path class="st2" d="M304.6,376.5c-0.2-0.7-0.4-1.4-0.5-2.2c-1.1-7.6,3.5-17.6,10.4-22.4c6.9-4.8,13.4-2.6,14.5,4.9
	c0.2,1.5,0.2,3.1,0,4.7c-2-5.7-7.8-7-13.9-2.7C309.5,362.6,305.4,369.9,304.6,376.5z"/>
<path class="st2" d="M304.6,376.5c-0.4-0.7-0.7-1.4-1-2.2c-2.8-7.6-0.4-17.6,5.3-22.4l0.3-0.2c-1.9,3.7-2.7,8.2-2.3,12.5
	C305,367.8,304.2,372.3,304.6,376.5L304.6,376.5z M320.2,350.8c1.8,1.3,3.3,3.3,4.3,5.9c0.6,1.5,0.9,3.1,1.1,4.7
	c-3.2-5.6-9.2-7-14.3-2.9c1.1-2.1,2.4-3.9,4.1-5.3C317,351.9,318.6,351.1,320.2,350.8z"/>
<path class="st0" d="M195.3,419.3c14.2,0,31.4,11.5,38.4,25.8c7,14.2,1.1,25.8-13.1,25.8c-14.2,0-31.4-11.5-38.4-25.8
	C175.2,430.8,181.1,419.3,195.3,419.3z"/>
<path class="st0" d="M125.4,429.8c14.9,0,32.9,12.1,40.2,26.9c7.3,14.9,1.2,26.9-13.7,26.9c-14.9,0-32.9-12.1-40.2-26.9
	C104.4,441.9,110.6,429.8,125.4,429.8z"/>
<ellipse transform="matrix(4.110930e-02 -0.9992 0.9992 4.110930e-02 -162.6848 791.3372)" class="st5" cx="330.9" cy="480.4" rx="35.1" ry="275"/>
<path class="st2" d="M344.9,523c159.7,0,289.9-16.3,289.9-36.3c0-20-130.2-36.3-289.9-36.3C185.2,450.3,55,466.6,55,486.6
	C55,506.6,185.2,523,344.9,523z"/>
<path class="st0" d="M249.2,501.6c96.9,0,175.9-9.9,175.9-22c0-12.1-79-22-175.9-22c-96.9,0-175.9,9.9-175.9,22
	C73.3,491.7,152.3,501.6,249.2,501.6z"/>
<path class="st8" d="M300.3,117.3c-6.5-5.1-15.8-2.6-23.3,5.2c1,0.4,1.9,1,2.8,1.7c8.4,6.6,8.9,23.5,1,37.7
	c-1.8,3.3-3.9,6.1-6.2,8.5c8.3,3.5,19.6-2.7,26.7-15.4C309.1,140.8,308.7,123.9,300.3,117.3z"/>
<path class="st2" d="M286.1,158.7c0.2-1.1-0.6-2.2-1.7-2.4c-0.1,0-0.2,0-0.4,0c-2.2-0.1-4.6,0.6-9.4-2c2.3,4.7,7.9,6,8.8,6.1
	c0.1,0,0.2,0,0.2,0.1C284.8,160.6,285.9,159.8,286.1,158.7z"/>
<path class="st2" d="M291.3,149.3c0.1-0.8-0.4-1.6-1.2-1.8c-0.1,0-0.2,0-0.3,0c-1.6-0.1-3.3,0.5-6.8-1.5c1.7,3.4,5.7,4.3,6.4,4.4
	c0.1,0,0.1,0,0.2,0C290.4,150.7,291.2,150.1,291.3,149.3z"/>
<path class="st9" d="M364.4,190.5c8.1-19.3,12.4-37.8,12.7-51.2c-1.9,6.4-4.3,13.1-7.2,19.9c-14.8,35.2-36.6,60.1-48.7,55.4
	c-5.5-2.1-8-9.9-7.8-21c-8,26.8-7.5,48.6,2.2,52.3C327.8,250.6,349.6,225.8,364.4,190.5z"/>
<path class="st2" d="M383.1,247.8c96.3,65.7,166.4,147.1,160.3,185.7c-6.1,38.6-54.3,38.9-123.2,18.4c53.4,9.6,85.4,1.3,82.2-26.7
	c-4.8-41.5-85.1-113.6-192.3-177.4H383.1z"/>
<path class="st2" d="M149.3,228.4c61.5-25.6,140.2-1.2,163.2,55.4c14.2-14.3,24.3-30.7,29.2-48.2c-65.7-15.5-115.1-57.8-120.5-109.9
	c-1.2-11.6-0.1-22.9,2.9-33.8c-44.6-10.5-90.1-7.7-128.9,4.8c3.1,0.3,6.3,0.7,9.4,1.1c-38.3,14.4-60.9,39.4-65,69.5
	c13.7-18.9,35.8-29.6,61.8-24.9C127.4,147.1,167.4,162.4,149.3,228.4z"/>
<path class="st2" d="M381.9,258.4c22.1,26.7,21.6,50.9-1,54.1c-22.6,3.2-58.8-15.9-80.9-42.6c-22.1-26.7-21.6-50.9,1-54.1
	C323.6,212.6,359.9,231.7,381.9,258.4z"/>
<path class="st7" d="M296.1,257.6c6.8,7.7,16.1,12.6,20.1,22.3c10.9-11,15.7-19.4,21.3-32.5c-1.6-4.8-3.2-9.7-4.9-14.2
	c-61.2-17.1-106.4-57.8-111.5-107.5c-0.5-4.5-0.6-9-0.4-13.4c0,0-6.7,65.4,49.6,103.3C291.7,230,297.7,244.6,296.1,257.6z"/>
<path class="st2" d="M146.8,234.6c-1.4,9-0.6,17.3,2,23c0-2.9,0.2-6,0.7-9.2c2.6-16.5,11.9-29.3,20.7-28.6c4,0.3,7.2,3.3,9.3,8
	c-0.2-12.2-4.8-21.3-12-21.9C158.7,205.3,149.4,218.1,146.8,234.6z"/>
<path class="st9" d="M245.9,206.4c0,0-68.6-33.7-103.6,14C142.3,220.4,175.1,181.1,245.9,206.4z"/>
<path class="st9" d="M222,165.7c0,0-79.9-57.3-143.5-25.2C78.5,140.5,136.2,115.5,222,165.7z"/>
<path class="st10" d="M21.6,115.7c14.3-3.9,29.3-6.7,44.6-8.5c-45.4,31.1-57.6,62.3-49.9,90.9c3.1,1.6,5.7,4.9,6.5,8.3
	c0.4,1.9,0.2,3.5-0.4,4.6c7.7,1.7,15.4,9.6,17.3,18c0.7,3,0.6,5.7-0.3,7.8l0.2,0.2c3-0.8,5.7-2.7,7.6-5.4c4.1-5.9,12.2-7.7,18.2-4
	c1.8,1.1,3.2,2.6,4.2,4.4c-4.7-0.3-9.4,1.8-12.3,5.9c-2.6,3.7-6.7,5.8-10.9,5.9c46.1,43.9,131.2,75.2,182.9,80
	C48.6,233.9,96.8,65,223.9,91.8C153.3,62.3,68.9,71.3,21.6,115.7L21.6,115.7z M52.1,196.6c-3.8,1.7-8.3,0.1-10.2-3.5
	c-0.6-1.1-0.8-2.3-0.8-3.4c2.2,1.6,5.2,2,7.8,0.8c3.8-1.7,8.3-0.1,10.2,3.5c0.6,1.1,0.8,2.3,0.8,3.4
	C57.7,195.8,54.7,195.4,52.1,196.6z"/>
<path class="st9" d="M133.6,311.4c1.5,1,3.2,1.8,5,2.6c16.7,7.4,38.5,3.8,48.6-8l0.5-0.6c-8,3.5-17.8,4.6-27.1,3
	C152.7,311.9,142.9,313.1,133.6,311.4z"/>
<path class="st9" d="M98.5,296.3c1.5,1,3.2,1.8,5,2.6c16.7,7.4,38.5,3.8,48.6-8l0.5-0.6c-8,3.5-17.8,4.6-27.1,3
	C117.5,296.8,107.8,297.9,98.5,296.3z"/>
<path class="st7" d="M399,254.7c100.5,68.1,165,146.7,151.9,192c-16.2,55.8-143.8,40.2-285.1-34.8c-41.7-22.1-79.9-47-112.6-72.4
	c23.1,15.7,48.2,30.8,74.6,44.9c141.3,75,268.9,90.6,285.1,34.8C524.3,379.8,477.2,315.5,399,254.7z"/>
<path class="st11" d="M348.9,82.3c0.7,0.9,1.4,1.9,2.1,2.9c6,10,5.5,24.1-1.2,31.4l-0.3,0.4c1.6-5.3,1.5-11.6-0.3-17.4
	C350.7,94.3,350.7,88,348.9,82.3z"/>
<path class="st0" d="M307.1,84.3c-0.7,0.7-1.4,1.5-2.1,2.3c-6.3,8.1-7.3,20.4-2.2,27.4l0.3,0.3c-0.8-4.8-0.1-10.3,2.1-15.1
	C304.3,94.6,305,89.1,307.1,84.3z"/>
<path class="st0" d="M350,75.3c-1.1,0.2-2.3,0.4-3.5,0.7c-11.2,3.2-20.4,13.8-20.6,23.8v0.5c2.5-5,6.8-9.5,12.1-12.5
	C340.4,82.8,344.8,78.3,350,75.3z"/>
<path class="st2" d="M644.3,130.5c-12.2-0.7-24.7-0.7-37.5,0c-29.2-40.3-79.3-38-105.6-8.9c-4.8-0.2-9.7,2-12.6,6.2
	c-3,4.3-8,6.5-12.9,6.2c1,1.8,2.5,3.4,4.4,4.6c2.8,1.7,6,2.3,9.2,1.9c-6.2,15-7.6,33.5-1.6,54.8c-78.1-14.6-142.4,40.9-115,66.4
	c-18.4-12.7-31.9-30.7-40.8-48.9c50-3.8,104.7-94.8,101.8-130.3c-2.9-35.5-4.5-25.1-10-36.3c46.6-20.6,96.8-26.8,141.8-21.1
	c-3.4,1-6.7,2-10.1,3.1C617,38.8,650.2,77.7,644.3,130.5L644.3,130.5z M515.1,78.8c-4.8,3.9-11.3,4.7-16.7,2.7
	c0.5,2.4,1.7,4.7,3.5,6.7c5.8,6.5,16.1,7.2,23.1,1.6c4.8-3.9,11.3-4.7,16.7-2.7c-0.5-2.4-1.7-4.7-3.5-6.7
	C532.4,73.9,522.1,73.2,515.1,78.8L515.1,78.8z M470,123.7c0.9-1.3,2.5-2,4-1.9c-0.3-0.6-0.8-1-1.4-1.4c-1.9-1.2-4.6-0.6-5.9,1.3
	c-0.9,1.3-2.5,2-4,1.9c0.3,0.6,0.8,1,1.4,1.4C466,126.2,468.7,125.7,470,123.7z"/>
<path class="st7" d="M332.5,214.1c-0.3-0.6-0.6-1.2-0.9-1.8c40.6-3.1,84.3-63.6,97.7-105.3C414.4,174,356.2,225,346,222.8
	C337.8,221,334,216.6,332.5,214.1z"/>
<path class="st2" d="M433.6,386.4c0.5,3.5-2,6.6-5.4,7.1c-3.5,0.5-6.6-2-7.1-5.4l-11.3-50.2c-0.2-0.6-0.4-1.3-0.4-2
	c-0.8-6.1,3.5-11.7,9.6-12.5c6.1-0.8,11.7,3.5,12.5,9.6c0.1,0.7,0.1,1.4,0.1,2L433.6,386.4z"/>
<path class="st9" d="M290.5,94.4c-2.4,4.4-4.4,9.4-5.9,14.9c-1.3,4.6-2,9.2-2.3,13.4c-5-3.4-7.7-11.6-7.7-21.9
	c1.3,4.6,3.4,8.2,6.3,10.2C281.1,106.7,284.1,101,290.5,94.4L290.5,94.4z"/>
<path class="st2" d="M331.4,182.5c-6.5,15.8-15.8,27.5-25.2,33.1c2.9-4.5,5.5-9.5,7.8-15.1c11.9-28.9,10.1-60.6-4-70.8
	c-6.4-4.6-14.2-4.1-21.9,0.6c12-18.7,27.9-26.9,39.3-18.6C341.5,121.9,343.3,153.6,331.4,182.5z"/>
<path class="st7" d="M341.8,182.2c-10.8,20-25.1,35-38.8,42.5c4.5-5.7,8.7-12.1,12.6-19.2c19.8-36.5,20.8-75.9,2.3-88
	c-8.4-5.4-19.3-4.4-30.6,1.8c18.8-23.8,41.9-34.9,56.8-25.2C362.6,106.2,361.6,145.6,341.8,182.2z"/>
<path class="st11" d="M306.5,220c3.2-4.5,6.2-9.3,9-14.5c19.8-36.5,20.8-75.9,2.3-88c-1.1-0.7-2.3-1.4-3.6-1.9
	c7.4-4.7,14.6-5.8,20.2-2.3c13.5,8.3,13.2,39.7-0.7,70.2C326.3,200.1,316.3,213,306.5,220z"/>
<path class="st2" d="M296.5,114.4c-1.5-1.2-3.2-2-4.9-2.4c-3.3,1.4-6.6,3.7-9.7,6.9c1,0.4,1.9,1,2.7,1.8c8,7,7.3,24.8-1.5,39.7
	c-2,3.5-4.3,6.5-6.8,9c3.5,1.6,7.8,1.3,12.1-0.8c4.5-2.9,8.7-7.8,11.8-14.5C307,139.1,305.4,121.4,296.5,114.4z"/>
<path class="st0" d="M296.5,114.4c-0.7-0.6-1.5-1-2.2-1.4c-2.7,1.4-5.4,3.4-8.1,5.9c0.9,0.4,1.8,1,2.6,1.8c7.4,7,5.2,24.8-4.8,39.7
	c-2.3,3.5-4.9,6.5-7.5,9c1,0.5,2.1,0.8,3.2,0.9h0l0.2,0h0l0.2,0h0l0.2,0h0l0.2,0h0l0.2,0h0l0.2,0h0l0.2,0l0.2,0h0h0.2l0.2,0h0l0.2,0
	h0l0.2,0h0l0.2,0h0l0.2,0h0l0.2,0h0l0.2,0h0l0.2,0c1.8-0.2,3.7-0.8,5.6-1.7c4.5-2.9,8.7-7.8,11.8-14.5
	C307,139.1,305.4,121.4,296.5,114.4z"/>
<path class="st2" d="M296.5,114.4c-0.4-0.3-0.7-0.5-1.1-0.8c-2.2,1.3-4.4,3-6.6,5.1c0.9,0.4,1.8,1,2.6,1.8c7.4,7,5.2,24.8-4.8,39.7
	c-2.3,3.5-4.9,6.5-7.5,9c1,0.5,2.1,0.8,3.2,0.9h0l0.2,0h0l0.2,0h0l0.2,0h0l0.2,0h0l0.2,0h0l0.2,0h0l0.1,0c1.6-0.3,3.3-0.8,5-1.6
	c4.5-2.9,8.7-7.8,11.8-14.5C307,139.1,305.4,121.4,296.5,114.4z"/>
<path class="st7" d="M284.2,164.5c-1.2,0.6-2.6,1.4-2.6,1.4l0.1,3.8c0,0-7.3-2.7-9.1-9.3C276.3,164.4,281.9,164.6,284.2,164.5z"/>
<path class="st5" d="M316.7,116.7c3.9,6.1,0,15.7-8.9,23.9c-0.2-1-0.6-1.9-1.2-2.7c-5.1-7.9-21.6-7-36.7,2.2c-3.5,2.1-6.7,4.5-9.4,7
	c-2.1-8.1,12.4-23.9,19.4-28.2c7.1-4.2,2-0.5,2.5-0.8c-0.5-3.1,1.5-6.7,3.2-7.3c1.7-0.6,0.8-0.2,1.3-0.3l0,0l0,0c0.3,0,0.5,0,0.8,0
	l14.9-0.8l0,0c1.2-0.2,2.5,0.5,3,1.7C310.7,111.8,314.7,113.5,316.7,116.7z"/>
<path class="st11" d="M294.6,152.2c-1,0.7-2,1.4-2,1.4l0.5,3.2c0,0-6.3-1.5-8.5-6.9C288,152.9,292.7,152.5,294.6,152.2z"/>
<path class="st7" d="M292,160.9c-1,0.5-2.2,1.2-2.2,1.2l0.1,3.2c0,0-6.1-2.3-7.6-7.8C285.3,160.8,290.1,161,292,160.9z"/>
<path class="st7" d="M316.7,112.6c3.9,5.8,0,15.7-8.9,24.6c-0.2-0.9-0.6-1.8-1.2-2.6c-5.1-7.6-21.6-5.4-36.7,4.9
	c-3.5,2.4-6.7,5-9.4,7.7c-2.1-7.9,5.9-20.5,19.4-29.6c0.5-0.4,1.1-0.7,1.6-1c-0.5-3.1,1.1-6.2,4.1-7.5c0.4-0.2,0.8-0.3,1.3-0.4l0,0
	l0,0c0.3,0,0.5-0.1,0.8-0.1l14.9-1.9l0,0c1.2-0.3,2.5,0.3,3,1.5C310.7,108,314.7,109.5,316.7,112.6z"/>
<path class="st7" d="M275.5,128.7c-0.8,0-7.5-0.8-7.5-0.8l-1.9-5.4c0,0-12.6,11.3-5.5,24.5L275.5,128.7z"/>
<path class="st2" d="M283.8,123.4l9.9-3.6c0.3-0.1,0.7-0.1,0.9,0.1c0.3,0.2,0.5,0.5,0.5,0.8c0.1,2.9-1.6,5.5-4.3,6.4
	c-2.7,1-5.7,0.1-7.4-2.2c-0.2-0.3-0.3-0.6-0.2-0.9C283.3,123.8,283.5,123.5,283.8,123.4z"/>
<path class="st11" d="M322.4,114.5c-5.7-5.4-17.3-2.8-28.7,5.5c1,0.4,1.9,1,2.7,1.8c7.4,7,2.1,24.8-11.9,39.7
	c-3.2,3.5-6.7,6.5-10.1,9c5.8,2.6,14.9,0.2,24.1-5.9c2.1-7.3,7-15.7,14.1-23.3c3.9-4.1,8-7.6,12.1-10.4
	C326.7,124,326.1,118,322.4,114.5z"/>
<path class="st7" d="M301.6,116.2c1.2-1.2,3.8-0.8,6.4,0.9c-0.2,0.1-0.4,0.2-0.6,0.4c-1.6,1.6-0.2,5.5,3.1,8.6
	c0.8,0.7,1.5,1.3,2.3,1.9c-1.8,0.9-5.2-0.4-8.1-3.2C301.4,121.7,300,117.8,301.6,116.2z"/>
<path class="st11" d="M274.4,120.5c0.3-0.6,1.6-1.2,3.3-1.4c-0.1,0.1-0.1,0.2-0.2,0.3c-0.4,0.8,1.1,1.5,3.4,1.4c0.5,0,1-0.1,1.5-0.1
	c-0.7,0.7-2.6,1.3-4.6,1.3C275.5,122,274,121.3,274.4,120.5z"/>
<path class="st11" d="M270,124.1c0.3-0.6,1.6-1.2,3.3-1.4c-0.1,0.1-0.1,0.2-0.2,0.3c-0.4,0.8,1.1,1.5,3.4,1.4c0.5,0,1-0.1,1.5-0.1
	c-0.7,0.7-2.6,1.3-4.6,1.3C271.1,125.6,269.6,124.9,270,124.1z"/>
<path class="st8" d="M271.7,132.8c-0.3-0.1-2.7-0.9-2.7-0.9l-0.3-2.2c0,0-5.7,3.2-4.1,8.8L271.7,132.8z"/>
<path class="st9" d="M270.7,132.5c-0.8-0.3-1.8-0.6-1.8-0.6l-0.3-2.2c0,0-0.9,0.5-2,1.5c-0.6,1.3-0.9,2.9-0.4,4.7L270.7,132.5z"/>
<path class="st11" d="M275.2,129.6c-0.4-0.1-3.9-1.3-3.9-1.3l-0.4-3.1c0,0-3.3,1.9-5.1,5.3c1.7-2.1,3.7-3.2,3.7-3.2l0.4,3.1
	c0,0,1.8,0.6,3,1L275.2,129.6z"/>
<path class="st11" d="M303.3,164.8c-4.5,1.9-9.7,3.5-15.3,4.4c-4.7,0.8-9.2,1.2-13.5,1.1c2.9,5.2,10.8,8.7,20.9,9.6
	c-4.5-1.7-7.8-4.1-9.5-7.2C290.3,172.9,296.2,170.5,303.3,164.8L303.3,164.8z"/>
<path class="st7" d="M295.8,151.8c0.4-0.9,0.1-2-0.8-2.4c-0.1,0-0.2-0.1-0.3-0.1c-1.8-0.7-4-0.6-7.3-4c0.8,4.4,5,6.9,5.7,7.2
	c0.1,0,0.1,0.1,0.2,0.1C294.3,153.1,295.3,152.7,295.8,151.8z"/>
<path class="st7" d="M291.6,158.1c0.3-0.9-0.3-1.8-1.2-2.1c-0.1,0-0.2,0-0.3-0.1c-1.7-0.3-3.8,0.1-7.4-2.4c1.5,4,5.8,5.4,6.6,5.7
	c0.1,0,0.1,0,0.2,0.1C290.4,159.5,291.3,158.9,291.6,158.1z"/>
<path class="st9" d="M302.6,133.8l-1.8,9.9c0,0,4.1-7,12-10.2L302.6,133.8z"/>
<path class="st11" d="M279,112.9c-0.3-0.2-0.5-0.6-0.4-1c0.1-0.4,0.5-0.6,0.9-0.5l4.5,0.5c0.2,0,0.4,0,0.7,0.1
	c1.1,0.4,1.6,1.6,1.2,2.6c-0.4,1.1-1.6,1.6-2.6,1.2c-0.1,0-0.2-0.1-0.4-0.2h0l0,0c-0.1,0-0.1-0.1-0.2-0.1L279,112.9L279,112.9z"/>
<path class="st11" d="M285.7,105.8c-0.2-0.4,0-0.8,0.3-1c0.3-0.2,0.8-0.1,1,0.1l3.3,3.1c0.2,0.1,0.3,0.3,0.4,0.5
	c0.6,1,0.3,2.2-0.7,2.8c-1,0.6-2.2,0.3-2.8-0.7c-0.1-0.1-0.1-0.2-0.2-0.4l0,0l0,0c0-0.1-0.1-0.2-0.1-0.2L285.7,105.8L285.7,105.8z"
	/>
<path class="st5" d="M286.7,124.5l5.5-2c0.2-0.1,0.4,0,0.5,0.1c0.2,0.1,0.2,0.3,0.3,0.5c0.1,1.6-0.9,3-2.4,3.6
	c-1.5,0.5-3.2,0-4.1-1.2c-0.1-0.2-0.1-0.3-0.1-0.5C286.4,124.7,286.5,124.5,286.7,124.5z"/>
<path class="st9" d="M363.6,160.8c4.4-26.4,4.4-50.5,0.7-67.4c-0.5,8.5-1.5,17.5-3,26.8c-8,48.1-27.8,85.4-44.2,83.1
	c-7.4-1-12.8-9.9-15.8-23.8c-2,35.6,4.9,62.6,18.1,64.3C335.7,246.1,355.5,208.9,363.6,160.8z"/>
<path class="st2" d="M440.1,61.8c5,12.8,6.4,25.1,4.5,34.3c-0.9-4.3-2.2-8.7-3.9-13.2c-9.1-23.3-26.6-39.1-39.2-35.3
	c-5.7,1.7-9.4,7.1-10.9,14.7c-3.7-17.9,0.1-32.8,10.3-35.8C413.4,22.8,431,38.6,440.1,61.8z"/>
<path class="st7" d="M387.3,254.2c19.5,25.8,16.6,50-6.4,54.1c-23,4.1-57.5-13.4-77-39.1c-19.5-25.8-16.6-50,6.4-54.1
	C333.4,210.9,367.8,228.4,387.3,254.2z"/>
<path class="st9" d="M387.3,254.2c17.5,23.1,17,45.1,0,52.3c-14.7-7-29-18.3-39.2-31.8c-17.5-23.1-17-45.1,0-52.3
	C362.7,229.4,377.1,240.7,387.3,254.2z"/>
<path class="st2" d="M402.7,263c-15.1-19.8-30-23-33.2-7.2c-3.2,15.9,6.5,44.8,21.7,64.7c15.1,19.8,30,23,33.2,7.2
	C427.5,311.8,417.8,282.9,402.7,263z"/>
<path class="st7" d="M347,183.7c4.5-19.2,5.7-37,3.9-49.6c-0.8,6.3-2,12.8-3.6,19.6c-8.3,35-24.7,61.5-36.7,59
	c-5.4-1.1-9-7.9-10.5-18.3c-3.3,26.1,0.5,46.3,10.2,48.3C322.3,245.2,338.7,218.8,347,183.7z"/>
<path class="st7" d="M315,212.5c-1.5,0.5-2.9,0.6-4.3,0.3c-1.4,2.6-2.9,5.1-4.5,7.4C309.2,218.1,312.1,215.6,315,212.5z"/>
<path class="st2" d="M430,348.2c0.3,2.9-1.6,5.7-4.5,6.5c-2.9,0.7-5.8-0.7-7-3.3l-16.6-30c-0.9-1.4-1.6-3-2.1-4.7
	c-2.1-8.3,2.9-16.7,11.1-18.8c8.3-2.1,16.7,2.9,18.8,11.1c0.3,1,0.4,2,0.5,3h0v0c0,0.6,0,1.2,0,1.8L430,348.2L430,348.2z"/>
<path class="st9" d="M392.9,256.2c-17.1-21.9-34.5-25.4-38.9-7.9c-4.4,17.5,5.9,49.4,23,71.3c17.1,21.9,34.5,25.4,38.9,7.9
	C420.3,310,410,278.1,392.9,256.2z"/>
<path class="st7" d="M368.2,237.4c-6.8-1.2-12.1,2.4-14.2,10.9c-4.4,17.5,5.9,49.4,23,71.3c3.4,4.4,6.9,8,10.2,10.9
	c6.7,1,11.8-2.6,13.9-11c4.4-17.5-5.9-49.5-23-71.5C374.8,243.8,371.5,240.3,368.2,237.4z"/>
<path class="st2" d="M403.3,365.8c1.7,0.3,3.5,0.8,5.4,1.4c17.4,6.4,34,28.3,37.1,49.1c3.1,20.7-8.5,32.4-25.9,26
	c-3.4-1.2-6.8-3.1-10.1-5.4c14.3,2.3,23.3-8.9,20.5-27.4C427.9,392.8,416.6,375.3,403.3,365.8z"/>
<path class="st2" d="M407.8,371.6c1,0.4,2.1,0.9,3.1,1.5c10,5.9,18.1,20.9,18.1,33.5c0,12.6-8.2,18.1-18.2,12.2
	c-2-1.2-3.9-2.7-5.6-4.4c8.5,3.1,15.1-2.4,15.1-13.7C420.3,390.5,415,378.8,407.8,371.6z"/>
<path class="st2" d="M447.9,424.8c0.6-0.7,1.1-1.5,1.6-2.4c4.6-8.3,3.4-21.2-2.7-28.8c-6-7.6-14.6-7-19.2,1.3
	c-0.9,1.6-1.6,3.4-2,5.4c4.8-6,12.2-5.7,17.6,1.1C448.1,407.4,449.8,416.9,447.9,424.8z"/>
<path class="st2" d="M401.3,342.9c0,0.7,0.1,1.5,0.2,2.3c1.1,7.8,6.7,19.2,12.5,25.3c5.8,6.1,9.6,4.7,8.5-3.1
	c-0.2-1.5-0.6-3.2-1.1-5c0.1,5.8-3.5,6.3-8.7,0.8C408,358.3,403.5,350,401.3,342.9z"/>
<path class="st11" d="M389.6,272.4c-8.9-14.4-20-16.7-24.8-5.2c-4.8,11.5-1.4,32.6,7.5,47c8.9,14.4,20,16.7,24.8,5.2
	C401.9,307.8,398.5,286.8,389.6,272.4z"/>
<path class="st11" d="M296.4,236.9c-2.2,2.3-3.3,5.8-2.9,10.6c1.2,14.5,15.9,34.4,32.8,44.5c16.9,10.1,29.6,6.6,28.4-7.9
	c-0.2-2.6-0.9-5.4-1.9-8.3c-4.6,4.7-14.1,4.1-25.5-2.7C313.4,264.7,301.1,249.9,296.4,236.9z"/>
<path class="st12" d="M303.8,272.5c3.8,4.3,8.1,8.2,12.7,11.6c18,13.3,33.3,12.4,34.3-2.1c0.5-7-2.6-16-7.8-24.9
	c2.9,6.6,4.4,12.9,4,18.3c-1,15.6-17.5,16.6-36.9,2.2C307.9,276,305.8,274.3,303.8,272.5z"/>
<path class="st12" d="M295.8,261.5c3.8,4.3,8.1,8.2,12.7,11.6c18,13.3,33.3,12.4,34.3-2.1c0.5-7-2.6-16-7.8-24.9
	c2.9,6.6,4.4,12.9,4,18.3c-1,15.6-17.5,16.6-36.9,2.2C299.9,265,297.8,263.3,295.8,261.5z"/>
<path class="st5" d="M291.4,252.7c3.3,3.7,7,7.2,11,10.1c15.6,11.6,28.9,10.8,29.8-1.8c0.4-6.1-2.2-13.9-6.8-21.6
	c2.5,5.7,3.8,11.2,3.5,15.8c-0.9,13.5-15.2,14.4-32,1.9C295,255.8,293.1,254.3,291.4,252.7z"/>
<path class="st5" d="M287.6,242c2.7,3,5.8,5.9,9,8.3c12.8,9.5,23.7,8.8,24.4-1.5c0.3-5-1.8-11.4-5.6-17.7c2.1,4.7,3.1,9.2,2.9,13
	c-0.7,11.1-12.5,11.8-26.3,1.6C290.5,244.5,289,243.3,287.6,242z"/>
<path class="st2" d="M497.2,220.4c-0.9,12.3-4.7,22.8-9.8,29.6c1-3.8,1.6-7.9,2-12.2c1.7-22.4-6.5-42.1-18.3-44
	c-5.3-0.8-10.5,2.1-14.7,7.6c4-15.9,13-26.5,22.5-25C490.8,178.3,499,197.9,497.2,220.4z"/>
<path class="st0" d="M649.6,30.8c-16.4-1.4-33.4-1.4-50.5-0.1C785.5,113,570,270.8,465.2,300.6c43.9-33.1,72.8-71.4,88.1-108.4
	c4.6-0.4,8.9-3.1,11-7.5c2.2-4.4,6.6-7.2,11.2-7.5c-1.2-1.6-2.8-2.8-4.7-3.7c-3.6-1.6-7.6-1.3-11,0.3C584.9,89.3,536.7,18,430,43.3
	C476.3-2,573.4-4.9,649.6,30.8z"/>
<path class="st13" d="M566.5,250.9c-35,23.4-72.3,41.4-101.2,49.6c43.9-33.1,72.8-71.4,88.1-108.4c4.6-0.4,8.9-3.1,11-7.5
	c2.2-4.4,6.6-7.2,11.2-7.5c-1.2-1.6-2.8-2.8-4.7-3.7c-3.6-1.6-7.6-1.3-11,0.3C584.9,89.3,536.7,18,430,43.3
	c19.1-18.7,46.9-30.2,78.3-34.7c23.3-1.7,45.4,3.4,63.9,16.2c56.5,39.1,57.6,135.3,2.5,214.9C572.1,243.5,569.3,247.3,566.5,250.9z"
	/>
<path class="st2" d="M432.9,67.7c5.3,6.5,8.4,13.5,9,19.2c-1.3-2.3-2.9-4.7-4.8-7c-9.6-11.9-22.8-17.9-29.5-13.3
	c-3,2.1-4.2,5.9-3.6,10.6c-5.5-9.8-6-19.2-0.6-22.8C410.1,49.8,423.3,55.8,432.9,67.7z"/>
<path class="st2" d="M450.6,419.9c0.5-0.8,1-1.6,1.5-2.5c4.2-8.6,2.7-20.1-3.3-25.6l-0.3-0.3c1.7,4.2,2.1,9.4,1.1,14.2
	C451.2,410,451.6,415.1,450.6,419.9z"/>
<path class="st9" d="M320.4,76.4c-1.1,0.6-2.2,1.2-3.4,2c-10.4,7.3-16.2,21.5-12.9,31.7l0.2,0.5c0.8-6,3.7-12.2,8-17.1
	C313.2,87.5,316.1,81.3,320.4,76.4z"/>
<path class="st9" d="M331.8,82.2c-0.9,0.1-1.8,0.3-2.7,0.6c-8.5,2.4-15.5,10.5-15.6,18v0.4c1.9-3.8,5.2-7.2,9.1-9.5
	C324.6,87.9,327.9,84.4,331.8,82.2z"/>
<path class="st9" d="M343.2,90c0.5,0.6,1,1.3,1.5,2.1c4.3,7.1,3.9,17.2-0.9,22.4l-0.2,0.3c1.1-3.8,1.1-8.3-0.2-12.4
	C344.5,98.6,344.4,94.1,343.2,90z"/>
<path class="st9" d="M363,99.2c0.1,1.1,0.2,2.2,0.1,3.3c-0.3,10.8-7.7,21.5-16.5,23.9l-0.4,0.1c3.9-3.4,7-8.3,8.4-13.7
	C358.5,109.4,361.6,104.5,363,99.2z"/>
<path class="st9" d="M287.9,191.4c-0.2,1.5-0.3,3.1-0.2,4.8c0.4,15.5,11.1,30.9,23.8,34.4l0.6,0.2c-5.6-4.8-10-12-12.1-19.7
	C294.4,206.2,290,199.1,287.9,191.4z"/>
<path class="st9" d="M278.7,216.8c0.3,1.5,0.8,3,1.4,4.6c5.4,14.5,20.5,25.6,33.7,24.8l0.6-0.1c-6.9-2.8-13.4-8-17.9-14.7
	C289.7,228.7,283.2,223.4,278.7,216.8z"/>
<path class="st2" d="M394.9,67.6c-1.1-1-2.2-2.1-3.2-3.4c-9.6-11.6-11.6-29.7-4.5-40.3l0.4-0.5c-1,7.1,0.3,15.1,3.7,22.1
	C390.3,52.6,391.6,60.6,394.9,67.6z"/>
<path class="st2" d="M218.7,360.1c-0.2,1.2-0.3,2.5-0.3,3.9c0,12.7,8.3,25.6,18.6,28.7l0.5,0.1c-4.5-4.1-7.9-10-9.4-16.4
	C223.6,372.3,220.2,366.4,218.7,360.1z"/>
<path class="st9" d="M296.1,431.1c1.2,1.4,2.5,2.7,3.9,4c13.7,12.1,35.5,15.4,48.7,7.2l0.6-0.4c-8.7,0.9-18.3-1-26.7-5.4
	C314.1,437.4,304.4,435.5,296.1,431.1z"/>
<path class="st9" d="M348.6,454.4c1.3,1.3,2.7,2.5,4.3,3.6c14.8,10.8,36.8,11.9,49.2,2.5l0.6-0.5c-8.5,1.7-18.4,0.8-27.1-2.8
	C367.1,458.9,357.4,457.9,348.6,454.4z"/>
<path class="st9" d="M245.6,345.4c-1,1.7-1.9,3.5-2.6,5.5c-7.3,18.5-2.5,41.9,10.8,52.4l0.7,0.5c-4.2-8.5-5.8-19.1-4.4-29.3
	C245.9,366.1,244.2,355.6,245.6,345.4z"/>
<path class="st9" d="M215.4,402.2c0.5-0.7,1-1.4,1.7-2.1c6-6.5,16.3-9.2,23.1-6l0.3,0.2c-4.2,0-8.8,1.4-12.6,4
	C223.7,398.2,219.1,399.6,215.4,402.2z"/>
<path class="st9" d="M220.1,430.1c1-1.7,2.2-3.3,3.6-4.9c12.9-15.1,35.9-21.8,51.3-15l0.8,0.3c-9.5,0.3-19.6,3.8-27.9,9.8
	C238.5,420.6,228.4,424.1,220.1,430.1z"/>
<path class="st2" d="M549.6,275.2c-1.4,1.2-2.9,2.3-4.6,3.3c-15.5,9.7-37.6,9.2-49.3-1.1l-0.6-0.5c8.4,2.4,18.3,2.1,27.3-0.9
	C530.9,278.4,540.7,278.2,549.6,275.2z"/>
<path class="st2" d="M584.3,248.9c-1.1,1.4-2.3,2.8-3.8,4.2c-13.1,12.7-34.8,16.9-48.4,9.3l-0.7-0.4c8.7,0.5,18.3-1.8,26.5-6.6
	C566.6,255.9,576.2,253.6,584.3,248.9z"/>
<path class="st11" d="M335.3,105.2c1.5,1.4,0.9,4.5-1.4,6.9c-2.3,2.4-5.4,3.2-6.9,1.7c-1.5-1.4-0.9-4.5,1.4-6.9
	C330.7,104.5,333.8,103.7,335.3,105.2z"/>
<path class="st11" d="M325.4,107.1c0.8,0.7,0.4,2.3-0.7,3.5c-1.1,1.2-2.7,1.6-3.4,0.9c-0.8-0.7-0.4-2.3,0.7-3.5
	C323.1,106.8,324.6,106.4,325.4,107.1z"/>
<path class="st11" d="M328.9,103.1c0.5,0.5,0.3,1.7-0.5,2.5c-0.8,0.9-2,1.2-2.5,0.6c-0.5-0.5-0.3-1.7,0.5-2.5
	C327.3,102.8,328.4,102.5,328.9,103.1z"/>
<path class="st11" d="M323.4,102.8c1.2,1.8-0.8,4.6-4.6,6.1c-3.8,1.5-7.9,1.3-9.1-0.6c-1.2-1.8,0.8-4.6,4.6-6.1
	C318.1,100.7,322.2,100.9,323.4,102.8z"/>
<path class="st11" d="M327.7,98.1c0.6,0.9-0.4,2.2-2.2,2.9c-1.8,0.7-3.7,0.6-4.3-0.3c-0.6-0.9,0.4-2.2,2.2-2.9
	C325.2,97.1,327.2,97.2,327.7,98.1z"/>
<path class="st2" d="M318,168.6c-5.1-0.6-10.7-0.6-16.5,0.1c-4.9,0.6-9.5,1.6-13.7,2.9c1.4-6.1,8.2-11.9,18-15.7
	c-3.9,3-6.5,6.4-7.3,9.9C302.6,164.4,309.2,165.1,318,168.6L318,168.6z"/>
<path class="st5" d="M293.7,135.4c-2.3,1.6-40.8,27.3-40.8,27.3l13.9-5.6l-78.4,59.6l68.3-43.2l-51.4,44.8l14.9-7.3l-21.3,20
	l32.6-27.6l-7.6,2.1l54.5-47.5l-14.5,6.1l19.6-15.1l-8.6,1.3L293.7,135.4z"/>
<path class="st7" d="M278.9,170.6c0.3-0.9-0.3-1.8-1.2-2.1c-0.1,0-0.2,0-0.3-0.1c-1.7-0.3-3.8,0.1-7.4-2.4c1.5,4,5.8,5.4,6.6,5.7
	c0.1,0,0.1,0,0.2,0.1C277.7,172,278.6,171.5,278.9,170.6z"/>
<path class="st11" d="M287.4,162.1c-1,0.5-2.2,1.2-2.2,1.2l0.1,3.2c0,0-6.1-2.3-7.6-7.8C280.8,162,285.5,162.2,287.4,162.1z"/>
<path class="st8" d="M281.7,167.8c0,0,12.9-8.3,18.2-22.4C299.9,145.4,296.9,162.4,281.7,167.8z"/>
<path class="st5" d="M233.5,171.6c-1.5-5.1,1.3-10.5,6.2-12.2c1.5-0.5,3-0.6,4.4-0.3c-2.4,2.5-3.4,6.2-2.4,9.7
	c1.5,5.1-1.3,10.5-6.2,12.2c-1.5,0.5-3,0.6-4.4,0.3C233.4,178.8,234.5,175.1,233.5,171.6z"/>
<path class="st0" d="M270.2,156.7c-1.3,0.9-22.6,15.1-22.6,15.1l7.7-3.1l-43.4,33l37.8-24l-28.5,24.8l8.2-4l-11.8,11.1l18-15.3
	l-4.2,1.2l30.2-26.3l-8,3.4l10.9-8.3l-4.8,0.7L270.2,156.7z"/>
<path class="st4" d="M206.1,177.1c-5.3-11.2-1-24.8,9.6-30.5c3.3-1.7,6.7-2.5,10.1-2.5c-4.5,6.7-5.5,15.6-1.8,23.4
	c5.3,11.2,1,24.8-9.6,30.5c-3.3,1.7-6.7,2.5-10.1,2.5C208.8,193.8,209.8,184.9,206.1,177.1z"/>
<path class="st5" d="M261.6,181.4c4.9,0.5,9.4-2.9,10.1-7.6c0.2-1.4,0.1-2.8-0.4-4.1c-1.9,2.6-5.1,4.1-8.5,3.8
	c-4.9-0.5-9.4,2.9-10.1,7.6c-0.2,1.4-0.1,2.8,0.4,4.1C255,182.6,258.2,181,261.6,181.4z"/>
<path class="st5" d="M250.3,169c2.1,0.2,4-1.2,4.3-3.3c0.1-0.6,0-1.2-0.2-1.8c-0.8,1.1-2.2,1.8-3.6,1.6c-2.1-0.2-4,1.2-4.3,3.3
	c-0.1,0.6,0,1.2,0.2,1.8C247.4,169.5,248.8,168.8,250.3,169z"/>
<path class="st5" d="M250.2,188.2c6.9-5.6,17.3-4.9,23.1,1.6c1.8,2,2.9,4.3,3.5,6.7c-5.4-2-11.9-1.2-16.7,2.7
	c-6.9,5.6-17.3,4.9-23.1-1.6c-1.8-2-2.9-4.3-3.5-6.7C238.9,192.9,245.3,192.1,250.2,188.2z"/>
<path class="st0" d="M241.8,190.4c3.5-2.8,8.6-2.4,11.5,0.8c0.9,1,1.5,2.1,1.7,3.3c-2.7-1-5.9-0.6-8.3,1.3
	c-3.5,2.8-8.6,2.4-11.5-0.8c-0.9-1-1.5-2.1-1.7-3.3C236.2,192.8,239.4,192.4,241.8,190.4z"/>
<path class="st4" d="M162.2,225.9c3.6-17,21.5-33.9,40-37.6c18.5-3.8,30.7,6.9,27.1,23.9c-3.5,17-21.4,33.9-40,37.6
	C170.8,253.6,158.6,242.9,162.2,225.9z"/>
<path class="st4" d="M179.5,197.1c1.5-7,8.9-14,16.5-15.5c7.6-1.6,12.7,2.9,11.2,9.9c-1.5,7-8.9,14-16.5,15.5
	C183,208.5,178,204.1,179.5,197.1z"/>
<path class="st5" d="M210.9,221.5c2-9.6,12.1-19.1,22.6-21.2c10.5-2.1,17.3,3.9,15.3,13.5c-2,9.6-12.1,19.1-22.6,21.2
	C215.7,237.1,208.8,231.1,210.9,221.5z"/>
<path class="st5" d="M240.6,223.3c1-4.6,5.8-9.2,10.8-10.2c5-1,8.3,1.9,7.4,6.5c-1,4.6-5.8,9.2-10.8,10.2
	C243,230.9,239.7,227.9,240.6,223.3z"/>
<path class="st5" d="M210.2,245.7c0.5-2.3,2.9-4.6,5.4-5.1c2.5-0.5,4.2,0.9,3.7,3.2c-0.5,2.3-2.9,4.6-5.4,5.1
	C211.3,249.4,209.7,248,210.2,245.7z"/>
<path class="st5" d="M273.5,185.5c0.1-0.6,0.7-1.2,1.4-1.3c0.6-0.1,1,0.2,0.9,0.8c-0.1,0.6-0.7,1.2-1.4,1.3
	C273.8,186.4,273.4,186,273.5,185.5z"/>
<path class="st5" d="M277.9,182.3c0.1-0.3,0.4-0.7,0.8-0.8c0.4-0.1,0.6,0.1,0.5,0.5c-0.1,0.3-0.4,0.7-0.8,0.8
	C278,182.8,277.8,182.6,277.9,182.3z"/>
<path class="st5" d="M264.7,182.9c0.1-0.3,0.4-0.7,0.8-0.8c0.4-0.1,0.6,0.1,0.5,0.5c-0.1,0.3-0.4,0.7-0.8,0.8
	C264.9,183.4,264.7,183.2,264.7,182.9z"/>
<path class="st5" d="M243,152c0.1-0.6,0.7-1.2,1.4-1.3c0.6-0.1,1,0.2,0.9,0.8c-0.1,0.6-0.7,1.2-1.4,1.3
	C243.3,152.9,242.9,152.6,243,152z"/>
<path class="st5" d="M205.3,185.3c-3.5-7.2-0.6-16.1,6.3-19.8c2.1-1.1,4.4-1.7,6.6-1.6c-2.9,4.3-3.5,10.2-1.1,15.2
	c3.5,7.2,0.6,16.1-6.3,19.8c-2.1,1.1-4.4,1.7-6.6,1.6C207.1,196.2,207.7,190.3,205.3,185.3z"/>
<path class="st4" d="M220.1,215.9c1.3-6.1,7.6-12.1,14.2-13.4c6.6-1.3,10.9,2.5,9.7,8.5c-1.3,6.1-7.6,12-14.2,13.4
	C223.2,225.7,218.9,221.9,220.1,215.9z"/>
<path class="st5" d="M221.9,211.7c1-5,6.3-9.9,11.7-11c5.4-1.1,9,2,7.9,7c-1,5-6.3,9.9-11.7,11C224.4,219.8,220.8,216.7,221.9,211.7
	z"/>
<path class="st0" d="M229.4,207.5c0.6-3.1,3.9-6.1,7.2-6.8c3.3-0.7,5.5,1.2,4.9,4.3c-0.6,3.1-3.9,6.1-7.2,6.8
	C231,212.5,228.8,210.5,229.4,207.5z"/>
<path class="st0" d="M183.8,209.8c1.3-6,4.3-12,8.5-17.4c-2.3,3.9-4,8-4.9,12.1c-3.5,17,8.6,27.7,27.1,23.9
	c12-2.5,23.7-10.4,31.4-20.2c-7.3,12.3-21,22.7-35.1,25.6C192.4,237.5,180.3,226.8,183.8,209.8z"/>
<path class="st4" d="M199.1,241.4c9.4-7.6,23.4-6.6,31.3,2.2c2.4,2.7,4,5.8,4.7,9.1c-7.4-2.8-16.1-1.6-22.7,3.7
	c-9.4,7.6-23.4,6.6-31.3-2.2c-2.4-2.7-4-5.8-4.7-9.1C183.8,247.8,192.6,246.7,199.1,241.4z"/>
<path class="st5" d="M193.3,240.1c7-5.7,17.4-4.9,23.2,1.6c1.8,2,2.9,4.3,3.5,6.7c-5.5-2-12-1.2-16.8,2.7c-7,5.7-17.4,4.9-23.2-1.6
	c-1.8-2-2.9-4.3-3.5-6.7C181.9,244.8,188.4,244,193.3,240.1z"/>
<path class="st5" d="M172.9,218.4c5.4-7.2,4.4-17.5-2.4-23.2c-2.1-1.7-4.4-2.8-6.8-3.3c2.2,5.4,1.6,11.9-2.2,16.9
	c-5.4,7.2-4.4,17.5,2.4,23.2c2.1,1.7,4.4,2.8,6.8,3.3C168.5,229.9,169.1,223.4,172.9,218.4z"/>
<path class="st4" d="M246.9,233.5c3.9-3.1,9.7-2.7,12.9,0.9c1,1.1,1.6,2.4,1.9,3.7c-3-1.1-6.7-0.7-9.3,1.5
	c-3.9,3.1-9.7,2.7-12.9-0.9c-1-1.1-1.6-2.4-1.9-3.7C240.6,236.1,244.2,235.7,246.9,233.5z"/>
<path class="st1" d="M155,213.1c2.8-13.5,9.7-26.9,19.2-39c-5.2,8.7-9,17.9-10.9,27.1c-8,38.1,19.3,62.2,60.9,53.7
	c26.9-5.5,53.2-23.3,70.6-45.4c-16.5,27.6-47.2,50.9-78.8,57.4C174.3,275.3,147,251.2,155,213.1z"/>
<path class="st2" d="M215.6,483.4c-3,5.8-14.3,5.2-25.4-1.4c-11.1-6.6-17.6-16.7-14.7-22.5c3-5.8,14.3-5.2,25.4,1.4
	C212,467.5,218.6,477.5,215.6,483.4z"/>
<path class="st0" d="M212.5,480.2c-2.9,3.6-10.8,1.5-17.5-4.8c-6.7-6.3-9.8-14.3-6.8-17.9c2.9-3.6,10.8-1.5,17.5,4.8
	C212.4,468.6,215.5,476.6,212.5,480.2z"/>
<path class="st9" d="M212,475.8c-1.8,2.2-6.4,0.9-10.5-2.9c-4-3.8-5.9-8.6-4.1-10.7c1.8-2.2,6.4-0.9,10.5,2.9
	C211.9,468.8,213.7,473.6,212,475.8z"/>
<path class="st2" d="M165,451.5c-0.3,3.3-5.9,5.1-12.4,4c-6.5-1.1-11.6-4.8-11.2-8.1c0.3-3.3,5.9-5.1,12.4-4
	C160.3,444.6,165.3,448.2,165,451.5z"/>
<path class="st0" d="M162.9,450.6c-0.7,2.3-4.9,2.7-9.3,0.9c-4.4-1.8-7.3-5.1-6.6-7.3c0.7-2.3,4.9-2.7,9.3-0.9
	C160.7,445,163.6,448.3,162.9,450.6z"/>
<path class="st9" d="M161.8,448.6c-0.4,1.4-2.9,1.6-5.6,0.6c-2.6-1.1-4.4-3-3.9-4.4c0.4-1.4,2.9-1.6,5.6-0.6
	C160.5,445.2,162.2,447.2,161.8,448.6z"/>
<path class="st2" d="M305.9,394.4c-2.4,4.7-11.5,4.2-20.3-1.1c-8.9-5.3-14.1-13.4-11.8-18c2.4-4.7,11.5-4.2,20.3,1.1
	C303,381.6,308.3,389.7,305.9,394.4z"/>
<path class="st0" d="M303.5,391.9c-2.4,2.9-8.6,1.2-14-3.8s-7.8-11.4-5.5-14.3c2.4-2.9,8.6-1.2,14,3.8
	C303.4,382.5,305.8,389,303.5,391.9z"/>
<path class="st7" d="M303,388.3c-1.4,1.7-5.2,0.7-8.4-2.3c-3.2-3-4.7-6.9-3.3-8.6c1.4-1.7,5.2-0.7,8.4,2.3
	C302.9,382.7,304.4,386.6,303,388.3z"/>
<path class="st2" d="M225.2,350.7c-1.3,2.6-6.4,2.3-11.3-0.6c-4.9-2.9-7.8-7.4-6.5-10c1.3-2.6,6.4-2.3,11.3,0.6
	C223.6,343.6,226.6,348.1,225.2,350.7z"/>
<path class="st0" d="M223.9,349.3c-1.3,1.6-4.8,0.7-7.8-2.1c-3-2.8-4.3-6.4-3-8c1.3-1.6,4.8-0.7,7.8,2.1
	C223.8,344.1,225.2,347.7,223.9,349.3z"/>
<path class="st9" d="M223.6,347.3c-0.8,1-2.9,0.4-4.7-1.3c-1.8-1.7-2.6-3.8-1.8-4.8c0.8-1,2.9-0.4,4.7,1.3
	C223.6,344.2,224.4,346.3,223.6,347.3z"/>
<path class="st2" d="M134.2,427.1c-0.2,1.7-3,2.6-6.2,2c-3.3-0.6-5.8-2.4-5.6-4c0.2-1.7,3-2.6,6.2-2
	C131.9,423.7,134.4,425.5,134.2,427.1z"/>
<path class="st2" d="M105.2,418.6c-0.1,0.8-1.5,1.3-3.1,1c-1.6-0.3-2.9-1.2-2.8-2c0.1-0.8,1.5-1.3,3.1-1
	C104,416.9,105.3,417.8,105.2,418.6z"/>
<ellipse transform="matrix(0.9735 -0.2287 0.2287 0.9735 -96.639 141.4345)" class="st14" cx="562" cy="487.7" rx="11" ry="11"/>
<path class="st15" d="M469.7,436.3c-2.7,0.8-5.1,3.2-5.4,5.4c-0.4,2.3,1.6,3.6,4.4,2.8c2.9-0.8,5.4-3.4,5.6-5.7
	C474.4,436.6,472.3,435.5,469.7,436.3z"/>
<path class="st16" d="M399.9,459.1c-1.6,0.6-2.3,2.2-1.7,3.8c0.7,1.6,2.5,2.5,4.2,1.9c1.7-0.6,2.4-2.4,1.7-4
	C403.4,459.3,401.5,458.5,399.9,459.1z"/>
<path class="st2" d="M364.3,502.2c8.3,0,15.1-6.8,15.1-15.1c0-8.3-6.8-15.1-15.1-15.1c-8.3,0-15.1,6.8-15.1,15.1
	C349.2,495.4,356,502.2,364.3,502.2z"/>
<path class="st14" d="M395,508.7c20.5,0,37.3-16.7,37.3-37.3c0-20.5-16.7-37.3-37.3-37.3c-20.5,0-37.3,16.7-37.3,37.3
	C357.8,492,374.5,508.7,395,508.7z"/>
<path class="st14" d="M444,445.2c17,0,27.7,13.8,23.8,30.8c-3.8,17-20.7,30.8-37.7,30.8c-17,0-27.7-13.8-23.8-30.8
	C410.1,459,427,445.2,444,445.2z"/>
<path class="st17" d="M444.8,506.6c10.4,0,18.8-8.5,18.8-18.8c0-10.4-8.5-18.8-18.8-18.8c-10.4,0-18.8,8.5-18.8,18.8
	C426,498.2,434.4,506.6,444.8,506.6z"/>
<path class="st17" d="M491.8,505.7c10.4,0,18.8-8.5,18.8-18.8c0-10.4-8.5-18.8-18.8-18.8c-10.4,0-18.8,8.5-18.8,18.8
	C473,497.2,481.5,505.7,491.8,505.7z"/>
<path class="st14" d="M334.2,464.2c10.1,0,19.9,8.1,22.1,18.2c2.2,10-4.3,18.2-14.3,18.2c-10.1,0-19.9-8.1-22.1-18.2
	C317.7,472.3,324.1,464.2,334.2,464.2z"/>
<path class="st2" d="M273,481.9c5,0,10,4.1,11,9.1c1.1,5-2.1,9.1-7.2,9.1s-10-4.1-11-9.1C264.8,486,268,481.9,273,481.9z"/>
<path class="st14" d="M286.8,470.4c8.2,0,16.3,6.7,18.1,14.9c1.8,8.2-3.5,14.9-11.7,14.9c-8.2,0-16.3-6.7-18.1-14.9
	C273.4,477,278.6,470.4,286.8,470.4z"/>
<path class="st14" d="M244.8,464.5c4.9,0,9.7,4,10.8,8.9c1.1,4.9-2.1,8.9-7,8.9c-4.9,0-9.7-4-10.8-8.9
	C236.7,468.4,239.9,464.5,244.8,464.5z"/>
<path class="st14" d="M235.1,434.5c2.9,0,6.3,2.4,7.5,5.3c1.2,2.9-0.2,5.3-3.2,5.3c-2.9,0-6.3-2.4-7.5-5.3
	C230.8,436.9,232.2,434.5,235.1,434.5z"/>
<path class="st2" d="M378,425.7c0.7,0,1.4,0,2,0.1c-17.2,3.1-27.3,20.3-23.1,41c4.5,22.2,23.8,40.3,43.7,41.5
	c-1.8,0.3-3.7,0.5-5.7,0.5c-20.6,0-41.1-18.6-45.8-41.5C344.6,444.2,357.4,425.7,378,425.7z"/>
<path class="st14" d="M336.1,449.4c0.5,0,1,0,1.5,0c-12.3,2.2-19.5,14.5-16.5,29.3c3.2,15.8,17,28.8,31.2,29.6
	c-1.3,0.2-2.6,0.4-4,0.4c-14.7,0-29.3-13.3-32.7-29.6C312.3,462.7,321.4,449.4,336.1,449.4z"/>
<path class="st2" d="M286.1,457.6c0.3,0,0.7,0,1,0c-8.6,1.5-13.7,10.1-11.5,20.5c2.3,11.1,11.9,20.1,21.9,20.7
	c-0.9,0.2-1.9,0.2-2.8,0.2c-10.3,0-20.5-9.3-22.9-20.8C269.4,466.9,275.8,457.6,286.1,457.6z"/>
<path class="st2" d="M292.6,479.7c5.6,0,11.2,4.6,12.4,10.2c1.2,5.6-2.4,10.2-8,10.2c-5.6,0-11.2-4.6-12.4-10.2
	C283.4,484.3,287,479.7,292.6,479.7z"/>
<path class="st5" d="M334.9,465.3c8.5,0,16.9,6.9,18.7,15.4c1.8,8.5-3.6,15.4-12.1,15.4c-8.5,0-16.9-6.9-18.7-15.4
	C320.9,472.2,326.3,465.3,334.9,465.3z"/>
<path class="st17" d="M534.3,456.2c13.8,0,22.4,11.2,19.3,25c-3.1,13.8-16.9,25-30.6,25c-13.8,0-22.4-11.2-19.3-25
	C506.8,467.4,520.5,456.2,534.3,456.2z"/>
<circle class="st14" cx="551" cy="483.9" r="14.8"/>
<path class="st14" d="M558.2,426.4c-2,0-4.1,0.2-6.3,0.5c14.5,2.8,17.1,17.1,5.2,34.3c-11.8,17.2-34.2,31.5-52.5,34.3
	c1.7,0.3,3.6,0.5,5.6,0.5c19.2,0,45.6-15.6,58.8-34.8C582.3,442,577.5,426.4,558.2,426.4z"/>
<path class="st17" d="M604.8,452.4c-1.3,0-2.7,0.1-4.1,0.3c8.2,1.8,5.4,10.7-7.3,21.5c-12.7,10.8-31.1,19.8-43.5,21.5
	c1,0.2,2.1,0.3,3.4,0.3c12.1,0,33.4-9.8,47.6-21.8C615.1,462.2,616.9,452.4,604.8,452.4z"/>
<path class="st14" d="M596,416.9c-5.1,0-10.1,4.1-11.2,9.2c-1.1,5.1,2.2,9.2,7.3,9.2c5.1,0,10.1-4.1,11.2-9.2
	C604.3,421,601.1,416.9,596,416.9z"/>
<path class="st14" d="M620.1,407.6c-2.5,0-5.1,2.1-5.6,4.6c-0.5,2.5,1.1,4.6,3.6,4.6c2.5,0,5.1-2.1,5.6-4.6
	C624.3,409.7,622.6,407.6,620.1,407.6z"/>
<path class="st2" d="M233.3,477.2c2.5,0,5,2,5.5,4.5c0.5,2.5-1.1,4.6-3.6,4.6c-2.5,0-5-2-5.5-4.6
	C229.2,479.2,230.8,477.2,233.3,477.2z"/>
<path class="st15" d="M391.1,437.7c7.3,0,14.6,6,16.1,13.3c1.6,7.3-3.1,13.3-10.5,13.3c-7.3,0-14.6-6-16.1-13.3
	C379.1,443.6,383.8,437.7,391.1,437.7z"/>
<path class="st2" d="M340.6,438.4c2,0,4,1.6,4.5,3.7c0.4,2-0.9,3.7-2.9,3.7s-4-1.6-4.5-3.7C337.3,440.1,338.6,438.4,340.6,438.4z"/>
<path class="st2" d="M366.2,458.8c1.5,0,3,1.2,3.3,2.7c0.3,1.5-0.6,2.7-2.2,2.7c-1.5,0-3-1.2-3.3-2.7
	C363.7,460.1,364.7,458.8,366.2,458.8z"/>
<path class="st2" d="M371.7,491.8c1.5,0,3,1.2,3.3,2.7c0.3,1.5-0.6,2.7-2.2,2.7c-1.5,0-3-1.2-3.3-2.7
	C369.2,493,370.2,491.8,371.7,491.8z"/>
<path class="st14" d="M234.9,497.7c1.6,0,3.2,1.3,3.5,2.9c0.3,1.6-0.7,2.9-2.3,2.9c-1.6,0-3.2-1.3-3.5-2.9
	C232.3,499,233.3,497.7,234.9,497.7z"/>
<path class="st14" d="M244.5,461.1c0.2,0,0.3,0,0.5,0c-4.2,0.8-6.7,5-5.6,10c1.1,5.4,5.8,9.8,10.7,10.1c-0.4,0.1-0.9,0.1-1.4,0.1
	c-5,0-10-4.5-11.2-10.1C236.4,465.6,239.5,461.1,244.5,461.1z"/>
<path class="st2" d="M472.4,472.6c11.7,0,17.1,9.5,12,21.2c-5.1,11.7-18.7,21.2-30.4,21.2c-11.7,0-17.1-9.5-12-21.2
	C447.1,482.1,460.7,472.6,472.4,472.6z"/>
<path class="st17" d="M477.7,482.7c6.8,0,9.9,5.5,6.9,12.3c-2.9,6.8-10.8,12.3-17.6,12.3c-6.8,0-9.9-5.5-6.9-12.3
	C463,488.2,470.9,482.7,477.7,482.7z"/>
<path class="st17" d="M490,491.4c6,0,8.8,4.9,6.2,10.9c-2.6,6-9.6,10.9-15.7,10.9c-6,0-8.8-4.9-6.2-10.9
	C476.9,496.3,483.9,491.4,490,491.4z"/>
<path class="st2" d="M316.9,407.4c2.5,0,5,2.1,5.6,4.6c0.5,2.5-1.1,4.6-3.6,4.6c-2.5,0-5.1-2.1-5.6-4.6
	C312.7,409.5,314.3,407.4,316.9,407.4z"/>
<path class="st14" d="M300.9,451.6c2.3,0,4.5,1.8,5,4.1c0.5,2.3-1,4.1-3.2,4.1c-2.3,0-4.5-1.8-5-4.1
	C297.3,453.5,298.7,451.6,300.9,451.6z"/>
<path class="st2" d="M526.4,425.7c16.3,0,26.4,13.2,22.7,29.4c-3.7,16.3-19.9,29.4-36.1,29.4c-16.3,0-26.4-13.2-22.7-29.4
	C494,438.9,510.1,425.7,526.4,425.7z"/>
<ellipse transform="matrix(0.7459 -0.666 0.666 0.7459 -171.144 457.7344)" class="st17" cx="514.4" cy="453.2" rx="33" ry="26.3"/>
<path class="st2" d="M423.3,425.7c-0.7,0-1.4,0-2,0.1c17.2,3.1,27.3,20.3,23.1,41c-4.5,22.2-23.8,40.3-43.7,41.5
	c1.8,0.3,3.7,0.5,5.7,0.5c20.6,0,41.1-18.6,45.8-41.5C456.8,444.2,443.9,425.7,423.3,425.7z"/>
<path class="st2" d="M392.1,514.3c12.6,0,22.9-10.3,22.9-22.9c0-12.6-10.3-22.9-22.9-22.9s-22.9,10.3-22.9,22.9
	C369.2,504.1,379.5,514.3,392.1,514.3z"/>
<ellipse transform="matrix(0.9728 -0.2318 0.2318 0.9728 -101.7637 105.3011)" class="st17" cx="397.3" cy="485.7" rx="20.4" ry="20.4"/>
<path class="st2" d="M437.2,470.3l0,0.2c0,12.6-10.2,22.9-22.9,22.9c-12.6,0-22.9-10.2-22.9-22.9c0-3.7,0.9-7.1,2.4-10.2
	c0.1,12.5,10.3,22.6,22.9,22.6C425.7,482.9,433.5,477.8,437.2,470.3z"/>
<path class="st2" d="M528.7,485.7l0,0.2c0,12.6-10.2,22.9-22.9,22.9c-12.6,0-22.9-10.2-22.9-22.9c0-3.7,0.9-7.1,2.4-10.2
	c0.1,12.5,10.3,22.6,22.9,22.6C517.2,498.4,525,493.2,528.7,485.7z"/>
<path class="st2" d="M515.6,484.4l0,0.1c0,5.6-4.5,10.1-10.1,10.1c-5.6,0-10.1-4.5-10.1-10.1c0-1.6,0.4-3.2,1.1-4.5
	c0.1,5.5,4.6,10,10.1,10C510.5,490,513.9,487.8,515.6,484.4z"/>
<path class="st14" d="M513.4,416.5c16.3,0,26.4,13.2,22.7,29.4c-3.7,16.3-19.9,29.4-36.1,29.4c-16.3,0-26.4-13.2-22.7-29.4
	C481,429.7,497.1,416.5,513.4,416.5z"/>
<path class="st15" d="M511.2,405.1c10.1,0,16.4,8.2,14.1,18.3c-2.3,10.1-12.3,18.3-22.4,18.3s-16.4-8.2-14.1-18.3
	C491.1,413.3,501.1,405.1,511.2,405.1z"/>
<path class="st17" d="M521.9,439.5c2.3,3.3,3.2,7.6,2.1,12.5c-2.3,10.1-12.3,18.3-22.4,18.3c-8.7,0-14.5-6-14.6-14.1
	c2.5,3.6,6.8,5.8,12,5.8c10.1,0,20.1-8.2,22.4-18.3C521.8,442.2,521.9,440.9,521.9,439.5z"/>
<path class="st17" d="M508.9,429.9c1,1.5,1.4,3.4,0.9,5.6c-1,4.5-5.5,8.2-10,8.2c-3.9,0-6.5-2.7-6.5-6.3c1.1,1.6,3,2.6,5.4,2.6
	c4.5,0,9-3.7,10-8.2C508.9,431.1,508.9,430.5,508.9,429.9z"/>
<path class="st14" d="M567.5,392.3c-2.7,0.8-5.1,3.2-5.4,5.4c-0.4,2.3,1.6,3.6,4.4,2.8c2.9-0.8,5.4-3.4,5.6-5.7
	C572.2,392.6,570.2,391.5,567.5,392.3z"/>
<path class="st7" d="M123.6,313.6c0.9,3.2,2,6.5,3.5,9.8c13.6,30.8,47.8,53,76.2,49.5l1.4-0.2c-15.3-5.1-30-15.8-40.7-29.6
	C148.9,337.9,134.2,327.3,123.6,313.6z"/>
<path class="st2" d="M121.8,307.1c0.1,3.3,0.5,6.8,1.2,10.3c6.4,33.1,34.7,62.4,63.2,65.3l1.4,0.1c-13.7-8.4-25.7-22.1-33-38
	C141,336.5,129,322.9,121.8,307.1z"/>
<path class="st6" d="M210,179.3c-1.7-3.6-0.3-8.1,3.1-9.9c1.1-0.6,2.2-0.8,3.3-0.8c-1.5,2.2-1.8,5.1-0.6,7.6
	c1.7,3.6,0.3,8.1-3.1,9.9c-1.1,0.6-2.2,0.8-3.3,0.8C210.8,184.7,211.2,181.8,210,179.3z"/>
<path class="st5" d="M250.4,153.4c0.2-1,1.3-2,2.4-2.3c1.1-0.2,1.9,0.4,1.6,1.4c-0.2,1-1.3,2-2.4,2.3
	C250.9,155.1,250.2,154.4,250.4,153.4z"/>
<path class="st5" d="M205.9,143.9c0.1-0.5,0.6-1,1.2-1.1c0.6-0.1,0.9,0.2,0.8,0.7c-0.1,0.5-0.6,1-1.2,1.1
	C206.2,144.7,205.8,144.4,205.9,143.9z"/>
<path class="st5" d="M313.2,148.8c0.1-0.3,0.4-0.6,0.7-0.7c0.3-0.1,0.6,0.1,0.5,0.4c-0.1,0.3-0.4,0.6-0.7,0.7
	C313.4,149.2,313.1,149.1,313.2,148.8z"/>
<path class="st5" d="M311.7,178.6c0.1-0.3,0.4-0.6,0.7-0.7c0.3-0.1,0.6,0.1,0.5,0.4c-0.1,0.3-0.4,0.6-0.7,0.7
	C311.8,179.1,311.6,178.9,311.7,178.6z"/>
<path class="st5" d="M249.1,130.4c0.1-0.5,0.6-1,1.2-1.1c0.6-0.1,0.9,0.2,0.8,0.7c-0.1,0.5-0.6,1-1.2,1.1
	C249.3,131.3,248.9,131,249.1,130.4z"/>
<path class="st5" d="M128.8,115.2c11.7-12.5,27.1-20.4,44.6-24.1c-14.7,4.2-27.7,11.8-37.7,22.9c-39,43-19.2,122.2,44.2,176.8
	c25.3,21.8,53.7,36.4,81.2,43.4c-30.6-5.5-62.8-20.7-91-44.9C107.6,235.4,89.1,157.5,128.8,115.2z"/>
<path class="st5" d="M415.2,139.4c8.2-13.4,14.7-27.1,18.6-39.3c-10.4,46.9-42,85.9-63.5,104.4C384.3,190.7,402,167.6,415.2,139.4z"
	/>
<path class="st5" d="M354.3,265.5c0.8,15.7,6,33.6,14.6,47.4c12.3,19.9,27.4,24.6,35.5,12.1c-9,8.9-23.3,3-35.2-16.2
	C361.4,296.1,356.2,280.3,354.3,265.5z"/>
<path class="st12" d="M374.9,265.6c-4.1-6.6-9.2-7.7-11.4-2.4c-2.2,5.3-0.6,14.9,3.4,21.5c4.1,6.6,9.2,7.7,11.4,2.4
	C380.6,281.8,379,272.2,374.9,265.6z"/>
<path class="st5" d="M122.6,234.2c3.6-14,12.3-28,24.3-40.6c-6.6,9.1-11.5,18.6-13.9,28.2c-10.1,39.7,24.7,64.7,77.7,55.9
	c34.3-5.7,67.8-24.2,89.9-47.3c-20.9,28.7-60.1,53-100.4,59.7C147.3,298.9,112.5,273.9,122.6,234.2z"/>
<path class="st5" d="M189.6,266.2c0.5-2.2,2.7-4.3,5.1-4.8c2.4-0.5,3.9,0.9,3.5,3.1c-0.5,2.2-2.7,4.3-5.1,4.8
	C190.7,269.7,189.1,268.3,189.6,266.2z"/>
<path class="st5" d="M88.2,284c0.3-1.3,1.6-2.5,2.9-2.8c1.4-0.3,2.3,0.5,2,1.8c-0.3,1.3-1.6,2.5-2.9,2.8
	C88.9,286.1,88,285.3,88.2,284z"/>
<path class="st5" d="M113.3,264.8c0.3-1.3,1.7-2.7,3.1-3c1.5-0.3,2.4,0.5,2.1,1.9c-0.3,1.3-1.7,2.7-3.1,3
	C114,267,113,266.2,113.3,264.8z"/>
<path class="st5" d="M252.8,284.5c0.1-0.7,0.8-1.3,1.6-1.5c0.7-0.1,1.2,0.3,1.1,0.9c-0.1,0.7-0.8,1.3-1.6,1.5
	C253.1,285.6,252.6,285.2,252.8,284.5z"/>
<path class="st6" d="M192.1,264c0.3-1.4,1.8-2.9,3.4-3.2c1.6-0.3,2.6,0.6,2.3,2c-0.3,1.4-1.8,2.9-3.4,3.2
	C192.8,266.4,191.8,265.5,192.1,264z"/>
<path class="st4" d="M130.5,249.9c0.8-3.7,4.7-7.4,8.7-8.2c4-0.8,6.7,1.5,5.9,5.2c-0.8,3.7-4.7,7.4-8.7,8.2
	C132.4,255.9,129.7,253.6,130.5,249.9z"/>
<path class="st4" d="M136.6,238.5c0.2-1,1.2-1.9,2.3-2.2c1.1-0.2,1.8,0.4,1.6,1.4c-0.2,1-1.2,1.9-2.3,2.2
	C137.1,240.1,136.4,239.5,136.6,238.5z"/>
<path class="st4" d="M153.1,263c0.2-1,1.2-1.9,2.3-2.2c1.1-0.2,1.8,0.4,1.6,1.4c-0.2,1-1.2,1.9-2.3,2.2
	C153.6,264.6,152.9,264,153.1,263z"/>
<path class="st0" d="M109.2,447c11.9,0,26.2,9.6,32,21.5c5.8,11.9,0.9,21.5-10.9,21.5c-11.9,0-26.2-9.6-32-21.5
	C92.5,456.6,97.4,447,109.2,447z"/>
<path class="st0" d="M58.3,421.4c10.7-5.1,27.8-2.5,38.1,5.7c10.3,8.2,10,19-0.7,24.1c-10.7,5.1-27.8,2.5-38.1-5.7
	C47.3,437.2,47.6,426.4,58.3,421.4z"/>
<path class="st0" d="M158.3,399c8.1,0,17.9,6.6,21.8,14.6c4,8.1,0.6,14.6-7.5,14.6c-8.1,0-17.9-6.6-21.8-14.6
	C146.9,405.5,150.2,399,158.3,399z"/>
<path class="st5" d="M475.8,460.8c-1.5-4.7-1.8-10.1-0.6-15.8c1.6-7.7,5.7-14.7,11.1-20.2c0-1.3,0.2-2.7,0.5-4.1
	c2.3-10.8,12.3-19.6,22.4-19.6c1,0,1.9,0.1,2.8,0.2c-10.5,0.6-20.7,9.8-23.1,21.1c-0.3,1.5-0.5,3-0.5,4.4
	c-5.8,5.9-10.2,13.5-11.9,21.8C475.4,452.9,475.2,457,475.8,460.8z"/>
<path class="st5" d="M441.6,442.7c11,0,19.3,5.8,22.8,14.4c-4-7.3-11.8-12-21.7-12c-6.3,0-12.6,1.9-18.2,5.2
	c-6.7-9.8-18-16.2-30.8-16.2c-20.6,0-37.3,16.7-37.3,37.3c0,5.2,1.1,10.2,3,14.7c-2.6-5.1-4.1-10.9-4.1-17.1
	c0-20.6,16.7-37.3,37.3-37.3c12.8,0,24,6.4,30.8,16.2C429,444.6,435.3,442.7,441.6,442.7z"/>
<path class="st5" d="M372.3,425.7c0.7,0,1.4,0,2,0.1c-17,3.1-25.9,20.3-20.2,41c6.1,22.2,26.6,40.3,46.6,41.5
	c-1.8,0.3-3.7,0.5-5.6,0.5c-20.6,0-42.3-18.6-48.6-41.5C340.1,444.2,351.7,425.7,372.3,425.7z"/>
<path class="st5" d="M319.2,449.4c0.3,0,0.6,0,0.9,0c-7.1,1.3-10.3,8.7-7,17.5c3.5,9.5,13,17.2,21.6,17.7c-0.8,0.1-1.5,0.2-2.4,0.2
	c-8.8,0-18.9-7.9-22.5-17.7S310.4,449.4,319.2,449.4z"/>
<path class="st5" d="M265.3,444.2c5.9,0,11.7,4.8,12.9,10.6c1.3,5.9-2.5,10.6-8.4,10.6c-5.9,0-11.7-4.8-12.9-10.6
	C255.7,449,259.4,444.2,265.3,444.2z"/>
<path class="st14" d="M264.9,445.2c5.9,0,11.7,4.8,12.9,10.6c1.3,5.9-2.5,10.6-8.4,10.6c-5.9,0-11.7-4.8-12.9-10.6
	C255.3,449.9,259,445.2,264.9,445.2z"/>
<path class="st2" d="M262.2,451.8c4,0,8,3.3,8.9,7.3c0.9,4-1.7,7.3-5.8,7.3c-4,0-8-3.3-8.9-7.3C255.6,455.1,258.2,451.8,262.2,451.8
	z"/>
<path class="st14" d="M215.6,438.5c1.5,0,3,1.2,3.4,2.8c0.3,1.5-0.6,2.8-2.2,2.8c-1.5,0-3-1.2-3.4-2.8
	C213.1,439.8,214.1,438.5,215.6,438.5z"/>
<path class="st7" d="M525.8,331.6c-1-0.5-2.1-1-3.3-1.4c-11-3.9-24.7-0.6-30.6,7.3l-0.3,0.4c4.9-2.6,11.1-3.8,17.1-3.1
	C513.7,332.1,519.8,330.9,525.8,331.6z"/>
<path class="st7" d="M510.5,308.3c-1.1-0.1-2.3-0.1-3.6,0c-11.6,0.7-22.9,9.2-25.2,18.8l-0.1,0.5c3.5-4.3,8.7-7.9,14.5-9.6
	C499.5,313.6,504.7,310.1,510.5,308.3z"/>
<path class="st2" d="M650.9,324.1c0,7.2-5.8,15.9-13,19.4c-7.2,3.5-13,0.6-13-6.6c0-7.2,5.8-15.9,13-19.4
	C645.1,313.9,650.9,316.9,650.9,324.1z"/>
<path class="st0" d="M579.6,306.7c0,3.6-2.9,7.9-6.5,9.7c-3.6,1.8-6.5,0.3-6.5-3.3c0-3.6,2.9-8,6.5-9.7
	C576.7,301.6,579.6,303.1,579.6,306.7z"/>
<path class="st18" d="M547.8,363.1c-1-1.3-2.1-2.7-3.3-4c-11.8-12.1-31.6-16.5-44.4-9.9l-0.6,0.3c8-0.3,16.8,2.2,24.2,6.8
	C531.7,356.1,540.4,358.5,547.8,363.1z"/>
<path class="st2" d="M624.5,347.1c0,3.4-2.8,7.5-6.2,9.2c-3.4,1.7-6.2,0.3-6.2-3.2c0-3.4,2.8-7.5,6.2-9.2
	C621.7,342.2,624.5,343.7,624.5,347.1z"/>
<path class="st14" d="M586.9,369.1c-1.1,0.6-2.3,1.4-3.4,2.3c8-2.5,10,6.6,4.3,22.3c-5.7,15.7-17.3,32.6-27.2,40.2
	c0.9-0.3,2-0.8,3.1-1.4c10.5-6,24.2-25,30.6-42.5C600.7,372.5,597.4,363.2,586.9,369.1z"/>
<path class="st14" d="M143.8,385.2c2.4,0.6,4.8,1.4,7.3,2.3c-17-2.5-21.3,6.6-9.1,22.3c12.2,15.7,36.7,32.6,57.6,40.2
	c-2-0.3-4.2-0.8-6.5-1.4c-22.2-6-51.3-25-64.9-42.5C114.6,388.7,121.6,379.3,143.8,385.2z"/>
<path class="st14" d="M104.4,433.4c2.4-0.4,4.9-0.7,7.6-0.9c-16.5,4.7-16.6,14.8,0.9,24.1c17.5,9.3,46.9,14.5,69.1,12.8
	c-1.9,0.6-4.1,1-6.5,1.4c-22.7,3.8-57.1-1.6-76.7-11.9C79.1,448.6,81.7,437.2,104.4,433.4z"/>
<path class="st0" d="M61.3,358.9c2.7,0,5.9,2.2,7.3,4.9c1.3,2.7,0.2,4.9-2.5,4.9c-2.7,0-5.9-2.2-7.3-4.9
	C57.5,361.1,58.6,358.9,61.3,358.9z"/>
<path class="st0" d="M109.5,391.1c1.3,0,3,1.1,3.6,2.4c0.7,1.3,0.1,2.4-1.2,2.4c-1.3,0-3-1.1-3.6-2.4
	C107.6,392.2,108.2,391.1,109.5,391.1z"/>
<path class="st11" d="M16.9,136.5c9.5-10.1,22-16.6,36.2-19.6c-12,3.4-22.5,9.6-30.6,18.6C-9,170.3,7,234.6,58.5,279
	c20.5,17.7,43.6,29.6,65.9,35.2c-24.8-4.5-51-16.8-73.8-36.5C-0.2,234-15.2,170.8,16.9,136.5z"/>
<path class="st19" d="M559.1,5.8c-17.6-6.9-36.8-7.4-56.1-2.7c16.7-2.8,33.3-1.4,48.5,4.8c59.4,24.3,77.5,112.7,40.5,197.6
	c-14.8,33.9-36.2,62-60.3,82.1c27.9-20.1,52.8-50.7,69.3-88.4C637.7,115.6,618.9,29,559.1,5.8z"/>
<path class="st0" d="M644.3,54.1c-14.2-12.5-32-19.7-51.7-21.9c16.7,3.1,31.7,10.1,43.9,21.3c47.4,43.3,33.8,132.6-30.3,199.4
	c-25.6,26.7-55.3,45.7-84.9,56.2c33.1-9.3,67.1-29.4,95.5-59C680.1,184.3,692.3,96.6,644.3,54.1z"/>
<path class="st2" d="M294.8,405c3.8,0,7.5,3.1,8.3,6.8c0.8,3.8-1.6,6.8-5.4,6.8c-3.8,0-7.5-3.1-8.3-6.8
	C288.6,408.1,291,405,294.8,405z"/>
<path class="st2" d="M267,393.9c1.9,0,3.8,1.5,4.2,3.4c0.4,1.9-0.8,3.4-2.7,3.4c-1.9,0-3.8-1.5-4.2-3.4
	C263.9,395.4,265.1,393.9,267,393.9z"/>
<path class="st2" d="M258.1,378.3c3.8,0,7.5,3.1,8.3,6.9c0.8,3.8-1.6,6.9-5.4,6.9c-3.8,0-7.5-3.1-8.3-6.9
	C251.8,381.3,254.3,378.3,258.1,378.3z"/>
<path class="st5" d="M231.1,363.5c0.9,0,1.9,0.8,2.1,1.7c0.2,0.9-0.4,1.7-1.3,1.7c-0.9,0-1.9-0.8-2.1-1.7
	C229.5,364.3,230.1,363.5,231.1,363.5z"/>
<path class="st2" d="M312.4,413.9c3.8,0,7.7,1.4,10.9,3.7c-2-0.8-4.2-1.2-6.3-1.2c-8.6,0-14.2,7-12.3,15.7c1,4.8,4.1,9.1,8.1,12
	c-6.1-2.4-11.3-7.9-12.7-14.4C298.3,421,303.8,413.9,312.4,413.9z"/>
<path class="st2" d="M306.1,396.5c6.1,0,12.1,2.2,17.2,5.8c-3.2-1.2-6.6-1.9-10-1.9c-13.7,0-22.4,11.1-19.4,24.7
	c1.6,7.6,6.5,14.4,12.9,18.9c-9.7-3.7-17.8-12.5-20-22.8C283.8,407.6,292.5,396.5,306.1,396.5z"/>
<path class="st2" d="M278.6,353.6c10.6,0,21.2,3.8,30,10.2c-5.6-2.2-11.6-3.4-17.5-3.4c-23.9,0-39.1,19.4-34,43.3
	c2.8,13.3,11.4,25.2,22.5,33.1c-17-6.6-31.2-21.9-35-39.9C239.5,373,254.7,353.6,278.6,353.6z"/>
<path class="st9" d="M68.8,419.9c6.1-2.9,15.9-1.4,21.8,3.3c5.9,4.7,5.7,10.9-0.4,13.8c-6.1,2.9-15.9,1.4-21.8-3.3
	C62.5,428.9,62.7,422.8,68.8,419.9z"/>
<path class="st5" d="M80.1,422c3.5-1.6,9-0.8,12.4,1.9c3.4,2.7,3.3,6.2-0.2,7.8c-3.5,1.7-9,0.8-12.4-1.9
	C76.5,427.1,76.6,423.6,80.1,422z"/>
<path class="st5" d="M196.8,163.7l9.1-1.7C205.9,162,200.3,161.1,196.8,163.7z"/>
<path class="st5" d="M196.1,129.6l8,4.6C204.1,134.2,200.4,129.9,196.1,129.6z"/>
<path class="st5" d="M327.4,181.3l8,4.6C335.4,185.9,331.7,181.6,327.4,181.3z"/>
<path class="st5" d="M181.6,184.8l8,4.6C189.6,189.4,186,185.1,181.6,184.8z"/>
<path class="st5" d="M161.9,235.6l8.3-4C170.2,231.6,164.6,232.2,161.9,235.6z"/>
<path class="st5" d="M93.9,172.7l8-4.6C101.9,168.1,96.4,169.1,93.9,172.7z"/>
<path class="st5" d="M157.9,162.1l8-4.6C165.8,157.5,160.3,158.5,157.9,162.1z"/>
<path class="st5" d="M298.8,143.2l8-4.6C306.7,138.6,301.2,139.7,298.8,143.2z"/>
<path class="st5" d="M325.4,114.4c-2.2-2.2-5.6-3.1-9.7-2.7c2.5,0.3,4.7,1.2,6.3,2.7c3.6,3.4,4.1,9.4,2.1,16.4
	c-4.1,2.7-8.3,6.2-12.2,10.4c-7.2,7.6-12.2,16-14.4,23.3c-5.8,3.8-11.5,6.2-16.4,6.8c4.9-0.6,10.8-3,16.8-6.8
	c2.6-7.3,8.1-15.7,15.7-23.3c4.2-4.1,8.5-7.6,12.8-10.4C329,123.9,328.8,117.8,325.4,114.4z"/>
<path class="st0" d="M342.8,50.3c1.6,0.2,3.3,1.8,3.8,3.5c0.5,1.7-0.3,2.9-1.9,2.6c-1.6-0.2-3.3-1.8-3.8-3.5
	C340.4,51.3,341.3,50.1,342.8,50.3z"/>
<path class="st0" d="M336,49.7c0.8,0.1,1.6,0.9,1.9,1.7c0.3,0.8-0.2,1.4-0.9,1.3c-0.8-0.1-1.6-0.9-1.9-1.7
	C334.8,50.1,335.2,49.5,336,49.7z"/>
<path class="st9" d="M350.5,157.8c0,3.3-2.6,7.2-5.9,8.8c-3.3,1.6-5.9,0.3-5.9-3c0-3.3,2.6-7.2,5.9-8.8
	C347.8,153.2,350.5,154.6,350.5,157.8z"/>
<path class="st7" d="M347.6,160.1c0,2.5-2,5.5-4.5,6.7c-2.5,1.2-4.5,0.2-4.5-2.3c0-2.5,2-5.5,4.5-6.7
	C345.6,156.6,347.6,157.6,347.6,160.1z"/>
<path class="st11" d="M346,170.1c0,2.3-1.8,5-4.1,6.1c-2.3,1.1-4.1,0.2-4.1-2.1c0-2.3,1.8-5,4.1-6.1
	C344.2,166.9,346,167.9,346,170.1z"/>
<path class="st7" d="M344,171.7c0,1.7-1.4,3.8-3.1,4.6c-1.7,0.8-3.1,0.1-3.1-1.6c0-1.7,1.4-3.8,3.1-4.6
	C342.7,169.3,344,170,344,171.7z"/>
<path class="st11" d="M342.7,190.2c-1.2,2.5-4.7,4.5-7.7,4.5c-3.1,0-4.6-2-3.4-4.5c1.2-2.5,4.7-4.5,7.7-4.5
	C342.4,185.8,343.9,187.8,342.7,190.2z"/>
<path class="st7" d="M339.7,190.9c-0.9,1.9-3.5,3.4-5.9,3.4c-2.3,0-3.5-1.5-2.6-3.4c0.9-1.9,3.5-3.4,5.9-3.4
	C339.4,187.5,340.6,189.1,339.7,190.9z"/>
<path class="st11" d="M350.8,199.7c-0.8,1.6-3.1,3-5.1,3c-2,0-3-1.3-2.2-2.9c0.8-1.6,3.1-3,5.1-3C350.6,196.7,351.6,198,350.8,199.7
	z"/>
<path class="st7" d="M348.8,200.1c-0.6,1.2-2.3,2.2-3.8,2.3c-1.5,0-2.3-1-1.7-2.2c0.6-1.2,2.3-2.2,3.8-2.2
	C348.6,197.9,349.4,198.9,348.8,200.1z"/>
<path class="st9" d="M329.9,201.6c-1.3,2.7-5,4.9-8.3,4.9c-3.3,0-5-2.1-3.7-4.8c1.3-2.7,5-4.9,8.3-4.9
	C329.5,196.8,331.1,198.9,329.9,201.6z"/>
<path class="st7" d="M326.6,202.4c-1,2-3.8,3.7-6.3,3.7c-2.5,0-3.8-1.6-2.8-3.6c1-2,3.8-3.7,6.3-3.7
	C326.3,198.7,327.6,200.3,326.6,202.4z"/>
<path class="st11" d="M337.6,207.3c-1.2,2.5-4.8,4.6-7.9,4.6c-3.1,0-4.7-2-3.5-4.6c1.2-2.5,4.8-4.6,7.9-4.6
	C337.3,202.8,338.9,204.8,337.6,207.3z"/>
<path class="st7" d="M334.6,208c-0.9,1.9-3.6,3.5-6,3.5c-2.4,0-3.6-1.5-2.6-3.4c0.9-1.9,3.6-3.5,6-3.5
	C334.3,204.6,335.5,206.1,334.6,208z"/>
<path class="st11" d="M340.6,183.1c-0.6,1.3-2.4,2.3-3.9,2.3c-1.6,0-2.3-1-1.7-2.3c0.6-1.3,2.4-2.3,3.9-2.3
	C340.4,180.8,341.2,181.8,340.6,183.1z"/>
<path class="st7" d="M339.1,183.5c-0.5,1-1.8,1.7-3,1.7c-1.2,0-1.8-0.8-1.3-1.7c0.5-1,1.8-1.7,3-1.7
	C339,181.7,339.5,182.5,339.1,183.5z"/>
<path class="st9" d="M351.4,181.9c-1,2.1-4,3.8-6.6,3.9c-2.6,0-3.9-1.7-2.9-3.8c1-2.1,4-3.8,6.6-3.9
	C351.1,178.1,352.4,179.8,351.4,181.9z"/>
<path class="st7" d="M348.8,182.5c-0.8,1.6-3,2.9-5,2.9c-2,0-3-1.3-2.2-2.9c0.8-1.6,3-2.9,5-2.9
	C348.6,179.6,349.6,180.9,348.8,182.5z"/>
<path class="st11" d="M350.8,146.4c0,2-1.6,4.4-3.6,5.4c-2,1-3.6,0.2-3.6-1.9c0-2,1.6-4.4,3.6-5.4
	C349.2,143.5,350.8,144.3,350.8,146.4z"/>
<path class="st11" d="M352.8,150.7c0,1.3-1,2.8-2.3,3.4c-1.3,0.6-2.3,0.1-2.3-1.2c0-1.3,1-2.8,2.3-3.4
	C351.8,148.9,352.8,149.4,352.8,150.7z"/>
<path class="st11" d="M351.3,166.2c0,1.3-1,2.8-2.3,3.4c-1.3,0.6-2.3,0.1-2.3-1.2c0-1.3,1-2.8,2.3-3.4
	C350.3,164.4,351.3,165,351.3,166.2z"/>
<path class="st11" d="M348.6,188c0,1.3-1,2.8-2.3,3.4c-1.3,0.6-2.3,0.1-2.3-1.2c0-1.3,1-2.8,2.3-3.4
	C347.6,186.2,348.6,186.7,348.6,188z"/>
<path class="st11" d="M353.9,173.9c-1,1.6-3.5,2.8-5.6,2.6c-2.1-0.2-3-1.7-2.1-3.3c1-1.6,3.5-2.8,5.6-2.6
	C354,170.8,354.9,172.2,353.9,173.9z"/>
<path class="st2" d="M355.6,247.5c0-3.3-2.6-7.2-5.9-8.8c-3.3-1.6-5.9-0.3-5.9,3c0,3.3,2.6,7.2,5.9,8.8
	C353,252.1,355.6,250.8,355.6,247.5z"/>
<path class="st7" d="M352.8,245.2c0-2.5-2-5.5-4.5-6.7c-2.5-1.2-4.5-0.2-4.5,2.3c0,2.5,2,5.5,4.5,6.7
	C350.8,248.7,352.8,247.7,352.8,245.2z"/>
<path class="st11" d="M357.3,260.8c0-2.6-2.1-5.9-4.8-7.2c-2.6-1.3-4.8-0.2-4.8,2.4c0,2.6,2.1,5.9,4.8,7.2
	C355.1,264.6,357.3,263.5,357.3,260.8z"/>
<path class="st7" d="M355,259c0-2-1.6-4.4-3.6-5.4c-2-1-3.6-0.2-3.6,1.9c0,2,1.6,4.4,3.6,5.4C353.3,261.8,355,261,355,259z"/>
<path class="st11" d="M367.4,254.7c-1-2.4-4.1-4.6-7-4.8c-2.9-0.2-4.5,1.5-3.5,4c1,2.4,4.1,4.6,7,4.8
	C366.8,258.9,368.4,257.1,367.4,254.7z"/>
<path class="st7" d="M364.6,253.8c-0.7-1.8-3.1-3.5-5.3-3.6c-2.2-0.2-3.4,1.2-2.7,3c0.7,1.8,3.1,3.5,5.3,3.6
	C364.2,257,365.4,255.6,364.6,253.8z"/>
<path class="st2" d="M387.5,255.6c-1.3-3.2-5.4-6.1-9.3-6.4c-3.9-0.3-6,2.1-4.7,5.3c1.3,3.2,5.4,6.1,9.3,6.4
	C386.7,261.2,388.7,258.8,387.5,255.6z"/>
<path class="st7" d="M383.7,254.4c-1-2.5-4.1-4.6-7-4.9c-2.9-0.2-4.5,1.6-3.5,4c1,2.5,4.1,4.6,7,4.9
	C383.1,258.7,384.7,256.9,383.7,254.4z"/>
<path class="st11" d="M339.9,109.6c0.8,0.7,0.4,2.3-0.7,3.5c-1.1,1.2-2.7,1.6-3.4,0.9c-0.8-0.7-0.4-2.3,0.7-3.5
	C337.6,109.2,339.2,108.9,339.9,109.6z"/>
<path class="st9" d="M350,114c0.4,1-0.6,2.2-2.2,2.8c-1.6,0.6-3.1,0.2-3.5-0.8c-0.4-1,0.6-2.2,2.2-2.8
	C348.1,112.7,349.7,113.1,350,114z"/>
<path class="st9" d="M351.3,110.2c0.2,0.6-0.4,1.4-1.4,1.8c-1,0.4-2,0.1-2.2-0.5c-0.2-0.6,0.4-1.4,1.4-1.8
	C350.1,109.4,351,109.6,351.3,110.2z"/>
<path class="st2" d="M316.2,204.9c-0.6,1.4-1.2,2.9-1.7,4.5c-4.3,14.9,1.1,32.8,12.2,40l0.6,0.3c-3.9-6.3-5.9-14.4-5.5-22.5
	C317.9,221,315.9,212.9,316.2,204.9z"/>
<path class="st7" d="M374.7,301.9c-0.4,0.6-0.8,1.3-1.1,2c-2.8,6.5,2.6,13.3,11.9,15.1l0.5,0.1c-3.5-2.2-5.5-5.3-5.7-8.6
	C376.9,308.3,374.8,305.2,374.7,301.9z"/>
<path class="st7" d="M393,290c0.7,0.2,1.5,0.5,2.1,0.8c6.3,3.2,6.5,11.8,0.4,19.2l-0.3,0.4c1.3-3.9,0.9-7.6-1.1-10.2
	C395.4,296.3,395,292.6,393,290z"/>
<path class="st5" d="M368.8,262.7c-2-3.3-4.6-3.8-5.7-1.2c-1.1,2.6-0.3,7.5,1.7,10.7c2,3.3,4.6,3.8,5.7,1.2
	C371.6,270.8,370.8,266,368.8,262.7z"/>
<path class="st11" d="M341.8,224.4c-1.2,2.5-4.8,4.6-7.9,4.6c-3.1,0-4.7-2-3.5-4.6c1.2-2.5,4.8-4.6,7.9-4.6
	C341.5,219.9,343.1,221.9,341.8,224.4z"/>
<path class="st11" d="M332.6,220.6c-0.6,1.3-2.5,2.4-4.2,2.4c-1.7,0-2.5-1.1-1.8-2.4c0.6-1.3,2.5-2.4,4.2-2.4
	C332.4,218.2,333.2,219.2,332.6,220.6z"/>
<path class="st11" d="M329.6,226.4c-0.6,1.3-2.5,2.4-4.2,2.4c-1.7,0-2.5-1.1-1.8-2.4c0.6-1.3,2.5-2.4,4.2-2.4
	C329.5,224,330.3,225.1,329.6,226.4z"/>
<path class="st11" d="M328.9,231.2c-0.4,0.9-1.6,1.6-2.7,1.6c-1.1,0-1.6-0.7-1.2-1.6c0.4-0.9,1.6-1.6,2.7-1.6
	S329.3,230.4,328.9,231.2z"/>
<path class="st11" d="M341.4,233.6c-1.2,2.4-4.5,4.3-7.4,4.4c-3,0-4.4-1.9-3.3-4.3c1.2-2.4,4.5-4.3,7.4-4.4
	C341.1,229.3,342.5,231.2,341.4,233.6z"/>
<path class="st11" d="M345,228.5c-0.5,0.9-1.8,1.7-3,1.7c-1.2,0-1.8-0.8-1.3-1.7c0.5-0.9,1.8-1.7,3-1.7
	C344.8,226.8,345.4,227.6,345,228.5z"/>
<path class="st11" d="M355.2,214.9c-1.4,2.9-5.4,5.3-9,5.3c-3.6,0-5.4-2.3-4-5.2c1.4-2.9,5.4-5.3,9-5.3
	C354.8,209.6,356.6,212,355.2,214.9z"/>
<path class="st11" d="M185.6,61.4c2.5,0.4,5.2,2.9,6.1,5.5c0.9,2.7-0.5,4.6-3,4.2c-2.5-0.4-5.2-2.9-6.1-5.5
	C181.8,62.9,183.1,61,185.6,61.4z"/>
<path class="st11" d="M174.8,60.3c1.3,0.2,2.6,1.4,3,2.8c0.4,1.3-0.2,2.3-1.5,2.1c-1.3-0.2-2.6-1.4-3-2.8
	C172.9,61,173.5,60.1,174.8,60.3z"/>
<path class="st11" d="M129.1,60.2c1.3,0.2,2.6,1.4,3,2.8c0.4,1.3-0.2,2.3-1.5,2.1c-1.3-0.2-2.6-1.4-3-2.8
	C127.2,60.9,127.8,60,129.1,60.2z"/>
<path class="st2" d="M531.2,136.1c-1.5,1.1-4.1,1.2-5.9,0.3c-1.8-0.9-2.1-2.5-0.6-3.6c1.5-1.1,4.1-1.2,5.9-0.3
	C532.4,133.4,532.7,135,531.2,136.1z"/>
<path class="st2" d="M537.3,131.2c-0.7,0.5-2,0.6-2.9,0.1c-0.9-0.5-1-1.3-0.3-1.8c0.7-0.5,2-0.6,2.9-0.1
	C537.8,129.8,538,130.6,537.3,131.2z"/>
<path class="st6" d="M183.1,237.8c2.8-2.2,6.9-1.9,9.2,0.7c0.7,0.8,1.2,1.7,1.4,2.7c-2.2-0.8-4.8-0.5-6.7,1.1
	c-2.8,2.2-6.9,2-9.2-0.7c-0.7-0.8-1.2-1.7-1.4-2.7C178.6,239.7,181.2,239.3,183.1,237.8z"/>
<path class="st5" d="M310.8,185c0.1-0.6,0.7-1.2,1.4-1.3c0.6-0.1,1,0.2,0.9,0.8c-0.1,0.6-0.7,1.2-1.4,1.3
	C311.1,186,310.7,185.6,310.8,185z"/>
<path class="st5" d="M363.5,207.3c0.1-0.6,0.7-1.2,1.4-1.3c0.6-0.1,1,0.2,0.9,0.8c-0.1,0.6-0.7,1.2-1.4,1.3
	C363.8,208.2,363.4,207.9,363.5,207.3z"/>
<path class="st0" d="M604.8,281.8c-1-4.3,1.3-10.3,5.1-13.5c3.8-3.1,7.7-2.2,8.7,2.2c1,4.3-1.3,10.3-5.1,13.5
	C609.7,287,605.8,286.1,604.8,281.8z"/>
<path class="st0" d="M619.5,257.6c-0.5-2.2,0.6-5.2,2.5-6.7c1.9-1.6,3.9-1.1,4.4,1.1c0.5,2.2-0.6,5.2-2.5,6.7
	C622,260.2,620,259.7,619.5,257.6z"/>
<path class="st0" d="M618.4,238.5c0.7-2.1,3.2-4.1,5.6-4.5c2.4-0.4,3.9,1,3.2,3.1c-0.7,2.1-3.2,4.1-5.6,4.5
	C619.2,242,617.7,240.6,618.4,238.5z"/>
<path class="st0" d="M568.3,205.6c0.7-2.1,3.2-4.1,5.6-4.5c2.4-0.4,3.9,1,3.2,3.1c-0.7,2.1-3.2,4.1-5.6,4.5
	C569.1,209.1,567.7,207.7,568.3,205.6z"/>
<path class="st0" d="M662.6,160.4c-0.5-1-0.2-2.6,0.6-3.6c0.8-1,1.8-0.9,2.2,0.1c0.5,1,0.2,2.6-0.6,3.6
	C664.1,161.4,663.1,161.4,662.6,160.4z"/>
<path class="st0" d="M653,142.8c-0.5-1-0.2-2.6,0.6-3.6c0.8-1,1.8-0.9,2.2,0.1c0.5,1,0.2,2.6-0.6,3.6
	C654.5,143.9,653.5,143.8,653,142.8z"/>
<path class="st0" d="M684,100.2c-0.8-1.8-0.4-4.7,1-6.4c1.4-1.7,3.2-1.7,4.1,0.2c0.8,1.8,0.4,4.7-1,6.4
	C686.7,102.1,684.9,102,684,100.2z"/>
<path class="st0" d="M674.2,75.2c-0.6-0.9-0.6-2.5,0-3.6c0.6-1.1,1.6-1.2,2.2-0.3c0.6,0.9,0.6,2.5,0,3.6
	C675.8,75.9,674.8,76.1,674.2,75.2z"/>
<path class="st0" d="M664.4,68.4c-0.6-0.3-1.1-1.2-1.1-2c0-0.8,0.5-1.2,1.2-0.9c0.6,0.3,1.1,1.2,1.1,2
	C665.5,68.3,665,68.7,664.4,68.4z"/>
<path class="st0" d="M96.1,291.4c2.7,0,5.9,2.2,7.3,4.9c1.3,2.7,0.2,4.9-2.5,4.9s-5.9-2.2-7.3-4.9C92.3,293.6,93.4,291.4,96.1,291.4
	z"/>
<path class="st0" d="M74,275.5c1.3,0,3,1.1,3.6,2.4c0.7,1.3,0.1,2.4-1.2,2.4c-1.3,0-3-1.1-3.6-2.4C72.1,276.6,72.6,275.5,74,275.5z"
	/>
<path class="st0" d="M70.3,256.6c0.8,0.6,1.3,1.9,1.1,2.9c-0.2,1.1-0.9,1.5-1.7,0.9c-0.8-0.6-1.3-1.9-1.1-2.9
	C68.8,256.4,69.6,256,70.3,256.6z"/>
<path class="st11" d="M24.4,261.9c1.7-0.1,3.8,1.2,4.8,2.8c0.9,1.7,0.3,3.1-1.4,3.2c-1.7,0.1-3.8-1.2-4.8-2.8
	C22.1,263.4,22.7,262,24.4,261.9z"/>
<path class="st11" d="M19.5,252.1c0.9,0,1.9,0.6,2.4,1.4c0.5,0.8,0.1,1.5-0.7,1.6c-0.9,0-1.9-0.6-2.4-1.4
	C18.3,252.8,18.6,252.1,19.5,252.1z"/>
<path class="st9" d="M315.6,119.1c0.9-0.2,2,0.7,2.7,2.3c-0.1,0-0.3,0-0.4,0c-1.2,0.3-1.7,2.5-1.1,4.8c0.1,0.6,0.3,1.1,0.5,1.5
	c-1.1-0.1-2.3-1.7-2.8-3.8C313.9,121.6,314.4,119.4,315.6,119.1z"/>
<path class="st9" d="M335,125.6c0.8,0.4,1,1.9,0.5,3.5c-0.1-0.1-0.2-0.2-0.3-0.2c-1.1-0.6-2.9,0.7-4.1,2.9c-0.3,0.5-0.5,1-0.6,1.5
	c-0.7-0.8-0.6-2.8,0.5-4.7C332.1,126.3,333.9,125,335,125.6z"/>
<path class="st0" d="M64,405.3c3.8-1.5,9.5-0.2,12.8,2.8c3.3,3,3,6.7-0.8,8.2c-3.8,1.5-9.5,0.2-12.8-2.8
	C59.8,410.5,60.2,406.8,64,405.3z"/>
<path class="st0" d="M27.5,408.3c1.4-1.4,4.3-2,6.4-1.3c2.1,0.7,2.7,2.4,1.3,3.9c-1.4,1.4-4.3,2-6.4,1.3
	C26.7,411.5,26.1,409.8,27.5,408.3z"/>
<path class="st0" d="M6.4,419.2c1.1-1.1,3.3-1.6,5-1c1.7,0.5,2.1,1.9,1,3c-1.1,1.1-3.3,1.6-5,1C5.8,421.7,5.3,420.3,6.4,419.2z"/>
<path class="st0" d="M51.3,452.3c2.6-3.1,8.3-4.7,12.6-3.6c4.4,1.1,5.8,4.5,3.2,7.6c-2.6,3.1-8.3,4.7-12.6,3.6
	C50.1,458.7,48.7,455.3,51.3,452.3z"/>
<path class="st0" d="M39.5,463.7c1.3-1.5,4.1-2.4,6.3-1.8c2.2,0.5,2.9,2.2,1.6,3.8c-1.3,1.5-4.1,2.4-6.3,1.8
	C38.9,466.9,38.2,465.2,39.5,463.7z"/>
<path class="st0" d="M622.6,387.7c1.4-3.8,6.1-7.3,10.6-7.7c4.5-0.5,7,2.2,5.6,6c-1.4,3.8-6.1,7.3-10.6,7.7
	C623.7,394.1,621.2,391.4,622.6,387.7z"/>
<path class="st0" d="M641,367c1-2.9,4.6-5.5,8-5.9c3.4-0.4,5.3,1.6,4.3,4.5c-1,2.9-4.6,5.5-8,5.9C641.9,371.9,640,369.9,641,367z"/>
<path class="st0" d="M669.9,360.8c0.8-1.3,2.9-2.2,4.6-2c1.7,0.2,2.4,1.4,1.6,2.7c-0.8,1.3-2.9,2.2-4.6,2
	C669.8,363.3,669.1,362.1,669.9,360.8z"/>
<path class="st0" d="M371.2,50.3c2.7,0.4,5.7,3.1,6.7,6.1c0.9,2.9-0.5,5-3.3,4.6c-2.7-0.4-5.7-3.1-6.7-6.1
	C367,51.9,368.4,49.9,371.2,50.3z"/>
<path class="st0" d="M284.5,65.5c1,0.2,2.1,1.1,2.4,2.2c0.3,1.1-0.2,1.8-1.2,1.7c-1-0.2-2.1-1.1-2.4-2.2
	C283,66.1,283.5,65.3,284.5,65.5z"/>
<path class="st2" d="M578.5,146.7c3.1-13.3,2.8-25.8-0.3-34.6c-0.3,4.4-1,8.9-2.1,13.6c-5.7,24.3-20.9,42.4-33.9,40.4
	c-5.9-0.9-10.3-5.8-12.8-13.1c-1.2,18.2,4.7,32.4,15.2,34C557.6,189.1,572.8,171,578.5,146.7z"/>
<path class="st5" d="M282.4,274.8c0.1-0.7,0.8-1.3,1.6-1.5c0.7-0.1,1.2,0.3,1.1,0.9c-0.1,0.7-0.8,1.3-1.6,1.5
	C282.7,275.9,282.3,275.5,282.4,274.8z"/>
<path class="st5" d="M262.9,274l9.1-1.7C272,272.3,266.4,271.4,262.9,274z"/>
<path class="st5" d="M219.6,305.3l17.8-1.7C237.4,303.6,226.4,302.7,219.6,305.3z"/>
<path class="st5" d="M254.5,302.4l-4,8.7C250.5,311.2,254.8,306.1,254.5,302.4z"/>
<path class="st5" d="M372.2,195.8l-4,17.4C368.3,213.3,372.5,203.2,372.2,195.8z"/>
<path class="st5" d="M411.6,224.9l-4,17.4C407.6,242.4,411.9,232.2,411.6,224.9z"/>
<path class="st5" d="M330.6,111.9c4.3-1.1,8.3-0.6,11.6,1.5c13,8.3,10.4,39.7-5.8,70.2c-8.7,16.6-19.7,29.4-29.9,36.4
	c9.7-7,19.6-19.9,27.1-36.4c13.8-30.5,13.9-62,0.3-70.2C332.9,112.7,331.8,112.2,330.6,111.9z"/>
<path class="st2" d="M332.8,482.6c9.5,0,18.8,7.7,20.8,17.1c2,9.5-4,17.1-13.5,17.1c-9.5,0-18.8-7.7-20.8-17.1
	C317.3,490.3,323.4,482.6,332.8,482.6z"/>
<path class="st2" d="M457.6,492.4c1.4,9.4-4.8,19.7-13.9,23.1c-9.1,3.4-17.5-1.4-18.9-10.8c-1.4-9.4,4.8-19.7,13.9-23.1
	C447.7,478.2,456.2,483,457.6,492.4z"/>
<path class="st2" d="M467.7,500.8c0.9,6.2-3.2,13.1-9.2,15.4c-6,2.3-11.7-1-12.6-7.2c-0.9-6.2,3.2-13.1,9.2-15.4
	C461.2,491.4,466.8,494.6,467.7,500.8z"/>
<path class="st2" d="M564.7,490.9c0.9,6.2-3.2,13.1-9.2,15.4c-6,2.3-11.7-1-12.6-7.2c-0.9-6.2,3.2-13.1,9.2-15.4
	C558.2,481.5,563.8,484.7,564.7,490.9z"/>
<path class="st2" d="M147.9,504.3c20.2,0,40.1,4.1,44.5,9.1c4.3,5-8.6,9.1-28.8,9.1c-20.2,0-40.1-4.1-44.5-9.1
	C114.7,508.4,127.6,504.3,147.9,504.3z"/>
<path class="st0" d="M144.6,503.6c11.9,0,23.6,2.4,26.1,5.4c2.5,3-5,5.4-16.9,5.4c-11.9,0-23.6-2.4-26.1-5.4
	C125.2,506,132.7,503.6,144.6,503.6z"/>
<path class="st2" d="M93.7,498.4c13.2,0,26.1,2.7,28.9,5.9c2.8,3.3-5.6,5.9-18.7,5.9c-13.2,0-26.1-2.7-28.9-5.9
	C72.2,501.1,80.5,498.4,93.7,498.4z"/>
<path class="st0" d="M91.6,498c7.7,0,15.4,1.6,17,3.5c1.7,1.9-3.3,3.5-11,3.5c-7.7,0-15.4-1.6-17-3.5C78.9,499.5,83.9,498,91.6,498z
	"/>
<path class="st2" d="M620.1,493.6c19.6,0,38.8,3.9,43,8.8c4.2,4.9-8.3,8.8-27.8,8.8c-19.6,0-38.8-3.9-43-8.8
	C588,497.5,600.5,493.6,620.1,493.6z"/>
<path class="st0" d="M616.9,492.9c11.5,0,22.8,2.3,25.3,5.2c2.5,2.9-4.9,5.2-16.4,5.2c-11.5,0-22.8-2.3-25.3-5.2
	C598.1,495.2,605.4,492.9,616.9,492.9z"/>
<path class="st4" d="M278.6,327.3c9.9-1.4,19.4,5.2,21.3,14.8c0.6,2.9,0.4,5.8-0.5,8.4c-4.1-5.1-10.8-8-17.6-7
	c-9.9,1.4-19.4-5.2-21.3-14.8c-0.6-2.9-0.4-5.8,0.5-8.4C265.1,325.4,271.7,328.3,278.6,327.3z"/>
<path class="st5" d="M432.4,243.3c1.5,0,3.1,1.2,3.5,2.8c0.4,1.5-0.5,2.8-2.1,2.8c-1.5,0-3.1-1.2-3.5-2.8
	C429.9,244.5,430.8,243.3,432.4,243.3z"/>
<path class="st6" d="M383.3,350.8c6.7,0.4,12,6,12,12.5c0,2-0.5,3.8-1.4,5.4c-2-3.9-6-6.7-10.6-6.9c-6.7-0.4-12-6-12-12.5
	c0-2,0.5-3.8,1.4-5.4C374.7,347.8,378.7,350.6,383.3,350.8z"/>
<path class="st6" d="M363,378.3c3.3,0.2,6,3,6,6.3c0,1-0.3,1.9-0.7,2.7c-1-1.9-3-3.3-5.3-3.5c-3.3-0.2-6-3-6-6.3
	c0-1,0.3-1.9,0.7-2.7C358.6,376.8,360.6,378.2,363,378.3z"/>
<path class="st1" d="M119.8,361.6c7.8-3.9,17.5-1,21.6,6.5c1.3,2.3,1.9,4.7,1.9,7.1c-4.7-3.1-11.1-3.7-16.5-1
	c-7.8,3.9-17.5,1-21.6-6.5c-1.3-2.3-1.9-4.7-1.9-7.1C108,363.7,114.3,364.3,119.8,361.6z"/>
<path class="st1" d="M193.1,336.7c6.7,0,12.4,5.2,12.7,11.7c0.1,2-0.3,3.9-1.1,5.5c-2.2-3.7-6.4-6.3-11-6.2
	c-6.7,0-12.4-5.2-12.7-11.7c-0.1-2,0.3-3.9,1.1-5.5C184.3,334.2,188.4,336.7,193.1,336.7z"/>
<path class="st1" d="M93.1,337.4c4.9-1.6,10.2,1,12,5.7c0.5,1.4,0.7,2.9,0.5,4.3c-2.5-2.2-6.1-3.1-9.5-2c-4.9,1.6-10.2-1-12-5.7
	c-0.5-1.4-0.7-2.9-0.5-4.3C86.1,337.6,89.7,338.5,93.1,337.4z"/>
<path class="st5" d="M422.1,234.8c0.8,0,1.6,0.6,1.7,1.4c0.2,0.8-0.3,1.4-1,1.4s-1.6-0.6-1.7-1.4
	C420.9,235.4,421.4,234.8,422.1,234.8z"/>
<path class="st4" d="M360.9,376.4c11.2,0,22.6,9.1,25.4,20.3c2.8,11.2-4,20.3-15.2,20.3c-11.2,0-22.6-9.1-25.4-20.3
	C342.9,385.5,349.7,376.4,360.9,376.4z"/>
<path class="st5" d="M346.9,393c8.3,0,16.8,6.7,18.8,15.1c2.1,8.3-2.9,15.1-11.3,15.1c-8.3,0-16.8-6.7-18.8-15.1
	C333.6,399.7,338.6,393,346.9,393z"/>
<path class="st4" d="M343.5,393c5.9,0,11.8,4.8,13.3,10.6c1.5,5.9-2.1,10.6-8,10.6c-5.9,0-11.8-4.8-13.3-10.6
	C334.1,397.8,337.6,393,343.5,393z"/>
<path class="st5" d="M451.3,365.7c8.3,0,16.8,6.7,18.8,15.1c2.1,8.3-3,15.1-11.3,15.1c-8.3,0-16.8-6.7-18.8-15.1
	C437.9,372.4,442.9,365.7,451.3,365.7z"/>
<path class="st4" d="M447.8,365.7c5.9,0,11.8,4.8,13.3,10.6c1.5,5.9-2.1,10.6-8,10.6c-5.9,0-11.8-4.8-13.3-10.6
	C438.4,370.4,441.9,365.7,447.8,365.7z"/>
<path class="st5" d="M361.1,360c7,0,14.1,5.7,15.8,12.6c1.8,7-2.5,12.6-9.4,12.6c-7,0-14.1-5.7-15.8-12.6
	C349.9,365.6,354.2,360,361.1,360z"/>
<path class="st6" d="M356.4,360c3.6,0,7.3,2.9,8.2,6.6c0.9,3.6-1.3,6.6-4.9,6.6c-3.6,0-7.3-2.9-8.2-6.6
	C350.6,362.9,352.8,360,356.4,360z"/>
<path class="st5" d="M461,245.5c0.9,0,1.8,0.7,2.1,1.6c0.2,0.9-0.3,1.6-1.2,1.6c-0.9,0-1.8-0.7-2.1-1.6
	C459.6,246.3,460.1,245.5,461,245.5z"/>
<path class="st5" d="M463.9,257.9c0.6,0,1.1,0.5,1.3,1c0.1,0.6-0.2,1-0.8,1c-0.6,0-1.1-0.5-1.3-1C463,258.3,463.3,257.9,463.9,257.9
	z"/>
<path class="st5" d="M465,227.8c0.6,0,1.1,0.5,1.3,1c0.1,0.6-0.2,1-0.8,1c-0.6,0-1.1-0.5-1.3-1C464,228.3,464.4,227.8,465,227.8z"/>
<path class="st5" d="M338.9,387.9l17.8-1.7C356.7,386.3,345.8,385.4,338.9,387.9z"/>
<path class="st5" d="M210.4,381.6c0.5,0,0.9,0.4,1,0.9c0.1,0.5-0.2,0.9-0.7,0.9c-0.5,0-0.9-0.4-1-0.9
	C209.6,382,209.9,381.6,210.4,381.6z"/>
<path class="st5" d="M289.1,405c1.6,0.3,3.2,0.6,4.6,1.1c8.9,3.1,11.1,9.9,4.9,15.2c-6.2,5.3-18.4,7.1-27.3,4l-0.1,0
	c8.2,1.3,17.6-0.7,22.7-5.2C300.1,414.9,297.9,408.1,289.1,405z"/>
<path class="st5" d="M190.5,360.6c1.2,0.2,2.3,0.5,3.4,0.8c6.5,2.2,8.1,7.2,3.6,11.1c-4.5,3.9-13.4,5.2-19.9,2.9l-0.1,0
	c5.9,0.9,12.8-0.5,16.5-3.8C198.5,367.8,196.9,362.8,190.5,360.6z"/>
<path class="st2" d="M561.3,373.7c0,4.7-3.8,10.3-8.5,12.6c-4.7,2.3-8.5,0.4-8.5-4.3c0-4.7,3.8-10.3,8.5-12.6
	C557.5,367.1,561.3,369,561.3,373.7z"/>
<path class="st0" d="M271.3,169.9c-1.5,1.9-3.7,3.5-6.1,4.6c1.5-1,2.8-2.1,3.9-3.4c4.3-5.4,1.9-11.4-5.3-13.3
	c-4.7-1.3-10.3-0.6-14.8,1.6c4.8-3,11.5-4.3,17-2.8C273.2,158.6,275.6,164.5,271.3,169.9z"/>
<path class="st15" d="M423.6,452c4.1,0,8.2,3.3,9.1,7.5c0.9,4.1-1.7,7.5-5.9,7.5c-4.1,0-8.2-3.3-9.1-7.5
	C416.9,455.4,419.5,452,423.6,452z"/>
<path class="st1" d="M156.7,279.9c0.4-1.9,2.3-3.7,4.4-4.1c2-0.4,3.3,0.8,3,2.6c-0.4,1.9-2.3,3.7-4.4,4.1
	C157.7,282.9,156.3,281.7,156.7,279.9z"/>
<path class="st1" d="M142.6,274c0.2-0.9,1.2-1.8,2.2-2.1c1-0.2,1.7,0.4,1.5,1.3c-0.2,0.9-1.2,1.8-2.2,2.1
	C143.1,275.6,142.4,275,142.6,274z"/>
<path class="st0" d="M91.7,77.7c13.5-7.8,29.1-10.6,45.3-9.2c-14-0.2-27.3,2.9-38.9,9.9c-45.4,27.1-49.2,101.4-8.5,165.9
	c16.2,25.7,37.1,46,59.2,59.4c-25.2-13-49.3-34.8-67.3-63.4C41.3,176.9,45.9,104,91.7,77.7z"/>
<path class="st5" d="M387.2,310.7c-1.3-2-2.8-2.4-3.5-0.7c-0.7,1.6-0.2,4.6,1.1,6.7c1.3,2,2.8,2.4,3.5,0.7
	C388.9,315.7,388.5,312.7,387.2,310.7z"/>
<path class="st6" d="M380.1,406.3c3.6-0.8,7.3,1.4,8.2,4.9c0.3,1.1,0.3,2.1,0,3.1c-1.6-1.8-4.1-2.7-6.6-2.1
	c-3.6,0.8-7.3-1.4-8.2-4.9c-0.3-1.1-0.3-2.1,0-3.1C375.1,405.9,377.6,406.8,380.1,406.3z"/>
<path class="st4" d="M479.4,268.4c4.3,5.1,4,12.8-0.8,17.3c-1.5,1.4-3.1,2.3-4.9,2.7c1.4-4.1,0.7-8.9-2.4-12.5
	c-4.3-5.1-4-12.8,0.8-17.3c1.5-1.4,3.1-2.3,4.9-2.7C475.7,260.1,476.4,264.9,479.4,268.4z"/>
<path class="st4" d="M452.5,231.9c2.7,3.1,2.5,7.9-0.5,10.7c-0.9,0.8-1.9,1.4-3,1.7c0.9-2.5,0.4-5.5-1.5-7.7
	c-2.7-3.1-2.5-7.9,0.5-10.7c0.9-0.8,1.9-1.4,3-1.7C450.2,226.7,450.6,229.7,452.5,231.9z"/>
<path class="st9" d="M317.6,105.9c-6,1.7-12.4,4.3-18.7,7.8c-5.3,2.9-10.1,6.2-14.2,9.7c-1.3-7.5,3.7-17.3,13-26.3
	c-3,5.2-4.4,10.3-3.6,14.6C298.2,108.4,306,106,317.6,105.9L317.6,105.9z"/>
<path class="st6" d="M288,124.9l2.9-1c0.1,0,0.2,0,0.3,0c0.1,0.1,0.1,0.1,0.1,0.2c0,0.8-0.5,1.6-1.3,1.9c-0.8,0.3-1.7,0-2.2-0.6
	c-0.1-0.1-0.1-0.2,0-0.3C287.8,125,287.9,124.9,288,124.9z"/>
<path class="st9" d="M292.7,115.7c0.9-0.4,2-0.1,2.5,0.8c0.5,0.8,0.3,1.9-0.4,2.5l-7.8,8.2c-0.3,0.4-0.8,0.8-1.3,1.1
	c-2.4,1.5-5.6,0.8-7-1.7c-1.4-2.3-0.8-5.3,1.4-6.9c1.6,2,4.5,2.5,6.7,1.1c0.5-0.3,0.9-0.7,1.3-1.1l3.7-3.9L292.7,115.7L292.7,115.7z
	"/>
<path class="st7" d="M270.3,135.3c1.2,0.1,2.1,1.2,1.9,2.4c0,0.1,0,0.3-0.1,0.4c-0.5,2.2-1.9,4.4-0.6,9.9c-4-3.6-3.7-9.5-3.6-10.5
	c0-0.1,0-0.2,0-0.2C268,136,269.1,135.2,270.3,135.3z"/>
<path class="st5" d="M551,24c-14.1-5.5-29.4-5.9-44.8-2.2c13.4-2.2,26.6-1.1,38.8,3.8c47.5,19.4,62,90.1,32.3,157.9
	c-11.8,27.1-28.9,49.6-48.1,65.6c22.3-16.1,42.2-40.5,55.4-70.6C613.8,111.7,598.8,42.5,551,24z"/>
<path class="st5" d="M576,76.5l-4,17.4C572,93.9,576.3,83.8,576,76.5z"/>
<path class="st5" d="M622.1,100.9l-17.8,3.8C604.3,104.7,615.2,106.1,622.1,100.9z"/>
<path class="st5" d="M557.2,49.8c1.5,0,3.1,1.2,3.5,2.8c0.4,1.5-0.5,2.8-2.1,2.8c-1.5,0-3.1-1.2-3.5-2.8
	C554.7,51,555.6,49.8,557.2,49.8z"/>
<path class="st5" d="M546.1,45.6c0.8,0,1.6,0.6,1.7,1.4c0.2,0.8-0.3,1.4-1,1.4s-1.6-0.6-1.7-1.4C544.8,46.2,545.3,45.6,546.1,45.6z"
	/>
</svg>
