<?xml version="1.0" encoding="utf-8"?>
<!-- Generator: Adobe Illustrator 24.0.3, SVG Export Plug-In . SVG Version: 6.00 Build 0)  -->
<svg version="1.1" xmlns="http://www.w3.org/2000/svg" xmlns:xlink="http://www.w3.org/1999/xlink" x="0px" y="0px"
	 viewBox="0 0 3001 3000" style="enable-background:new 0 0 3001 3000;" xml:space="preserve">
<style type="text/css">
	.st0{fill:none;stroke:#000000;stroke-width:5;stroke-linecap:round;}
	.st1{fill:none;stroke:#000000;stroke-width:4.7644;stroke-linecap:round;}
	.st2{fill:none;stroke:#5F2D78;stroke-width:4.7644;stroke-linecap:round;}
	.st3{fill:none;stroke:#000000;stroke-width:18;}
	.st4{fill:none;stroke:#000000;stroke-width:14.2933;}
	.st5{fill:none;stroke:#000000;stroke-width:6;}
	.st6{fill:none;stroke:#000000;stroke-width:5;}
	.st7{fill:none;stroke:#000000;stroke-width:11;}
	.st8{fill:none;stroke:#5F2D78;stroke-width:34;}
	.st9{fill:none;stroke:#F6CC1B;stroke-width:38;}
	.st10{fill:none;stroke:#5F2D78;stroke-width:8;}
	.st11{fill:none;stroke:#5F2D78;stroke-width:35;}
	.st12{fill:#FF6B6B;}
	.st13{fill:#E54355;}
	.st14{fill:#EB8B23;}
	.st15{fill:#FFFFFF;}
	.st16{fill:#5F2D78;}
	.st17{fill:none;stroke:#000000;stroke-width:6;stroke-linecap:round;}
	.st18{fill:none;stroke:#000000;stroke-width:30;stroke-linecap:round;}
	.st19{fill:none;stroke:#000000;stroke-width:47;}
</style>
<g id="Background_Details">
	<g id="Layer_1">
		<g>
			<defs>
				<rect id="SVGID_1_" x="0.6" y="0" width="3000" height="3000"/>
			</defs>
			<clipPath id="SVGID_2_">
				<use xlink:href="#SVGID_1_"  style="overflow:visible;"/>
			</clipPath>
		</g>
	</g>
	<g id="Waves">
		<path class="st0" d="M513.7,1692.7c-18.5-46.2-40.6-177.9,110.4-153.6c124,19.9,126.1-97.1,110.4-156.9"/>
		<path class="st1" d="M2290.4,844.4c-11-28.3-23.5-108.7,68.3-92.9c75.4,13,77.5-58.4,68.3-94.9"/>
		<path class="st1" d="M1659.2,755.6c-4.5-11.5-9.6-44.1,27.7-37.7c30.7,5.3,31.5-23.7,27.8-38.5"/>
		<path class="st1" d="M1093.1,1819.8c-4.5-11.5-9.6-44.1,27.7-37.7c30.6,5.3,31.5-23.7,27.8-38.5"/>
		<path class="st1" d="M2233.6,2002.3c-4.5-11.5-9.6-44.1,27.7-37.7c30.6,5.3,31.5-23.7,27.8-38.5"/>
		<path class="st1" d="M2152,1646.3c-9.1-18.7-22.3-72.9,41.3-67.4c52.3,4.5,49.6-44.3,41.2-68.7"/>
		<path class="st0" d="M2161.5,2519.6c-8.3-17-20.3-66.1,37.5-61.1c47.4,4.1,45-40.2,37.4-62.4"/>
		<path class="st1" d="M571.4,1167.1c-8.1-16.4-21.8-61.1,26.1-42.9c39.3,14.9,33.9-23.3,25.9-44"/>
		<path class="st1" d="M787.9,2519.6c-9.2-23-19.9-88.8,55.6-77c62,9.7,63.3-48.8,55.6-78.6"/>
	</g>
	<g id="Lines">
		<path class="st1" d="M1901.4,2089.5l-226.8,272.2"/>
		<path class="st1" d="M2108.3,1916.2l-290.1,348.6"/>
		<path class="st2" d="M2163.3,368.3l-290.1,348.6"/>
		<path class="st2" d="M2150.8,477l-290.1,348.6"/>
		<path class="st1" d="M339.1,1542L49,1890.6"/>
		<path class="st1" d="M1978.3,2165.9l-160.1,197.7"/>
		<path class="st1" d="M499.1,786.1l-134.3,161l-134.3,161"/>
		<path class="st0" d="M842.5,464l-503.4,602.6"/>
		<path class="st1" d="M744.4,660.5l-414.8,506.7"/>
		<path class="st0" d="M2966,1658l-441.6,534.4"/>
		<g>
			<path class="st1" d="M2905.9,1829.9l-392,472.8"/>
		</g>
	</g>
	<g id="Black_Elipses">
		<circle class="st3" cx="268.9" cy="683" r="29.3"/>
		<circle class="st4" cx="2311.1" cy="2083.2" r="14.6"/>
		<circle class="st4" cx="1300" cy="1596" r="14.6"/>
		<circle class="st4" cx="1773" cy="885.6" r="14.6"/>
		<circle class="st5" cx="1614.9" cy="370.4" r="33.9"/>
		<circle class="st6" cx="1730.1" cy="1951.4" r="107.9"/>
		<circle class="st7" cx="2618.5" cy="1273.9" r="46.4"/>
	</g>
	<g id="Color_Elipses">
		<circle class="st8" cx="2524.4" cy="1735.8" r="160.7"/>
		<circle class="st9" cx="1821.7" cy="1021.6" r="517"/>
		<circle class="st10" cx="935.1" cy="799.6" r="101.6"/>
		<circle class="st11" cx="2729.5" cy="662.2" r="41.6"/>
	</g>
</g>
<g id="Man">
	<g id="Hands">
		<path class="st12" d="M2360.5,1304.2c-79.6,85.1-194.7-6.2-216-44.2l80.2-76.4c13.3,15,45.3,43.4,68.4,35.4
			c28.8-10,102.3-120.9,105.6-127.8c13.6-27.8,12.5-53.1,18.9-88c6.4-34.9,11-45.1,18.9-43c7.9,2.1,4,45.4,10.9,54.1
			c5.6,7,12.4,3.8,15.1,1.3c16.2-21.5,42.1-59.3,49.7-65.6c6-5,12.6-2,13.2,3c0.7,5.9-1.5,11.9-5.4,18.9
			c9.7-12.2,18.8-28.2,30.2-24.4c11.3,3.8-4.2,32.9-4.2,32.9s3.8-4.4,11-10.4c7.2-6.1,14.3,0,13.5,6.4c-0.5,4.2-6.4,16.1-11.1,24.1
			c2.3-2.8,6.1-5.3,10.8-3.9c10.6,3.3,0.4,25-6,35.5C2529.5,1087.3,2440.2,1219.1,2360.5,1304.2z"/>
		<path class="st0" d="M2459.4,1035.8c2.4,7.1,6.2,27,2.2,50.1"/>
		<path class="st0" d="M2514,980.5l-18.5,28.8"/>
		<path class="st0" d="M2537.8,991.1l-16.6,25.1"/>
		<path class="st0" d="M2553.1,1007.4l-18.5,28.8"/>
		<path class="st12" d="M1618.4,1198.8c79.6,85.1,194.7-6.2,216-44.2l-80.2-76.4c-13.2,15-45.3,43.4-68.3,35.4
			c-28.8-10-102.3-120.9-105.6-127.8c-13.6-27.9-12.5-53.1-18.9-88c-6.4-34.9-11-45.1-19-43c-7.9,2.1-4,45.4-10.9,54.1
			c-5.6,7-12.4,3.8-15.1,1.3c-16.2-21.5-42.1-59.3-49.7-65.6c-6-5-12.6-2-13.2,3c-0.7,5.9,1.5,11.9,5.4,18.9
			c-9.7-12.2-18.8-28.2-30.2-24.4s4.2,32.9,4.2,32.9s-3.8-4.4-11-10.4c-7.2-6.1-14.3,0-13.5,6.4c0.5,4.2,6.4,16.1,11.1,24.1
			c-2.3-2.8-6.1-5.3-10.8-3.9c-10.6,3.3-0.4,25,6,35.5C1449.4,981.9,1538.8,1113.7,1618.4,1198.8z"/>
		<path class="st0" d="M1519.5,930.4c-2.4,7.1-6.2,27-2.2,50.1"/>
		<path class="st0" d="M1465,875.1l18.5,28.8"/>
		<path class="st0" d="M1441.1,885.6l16.6,25.1"/>
		<path class="st0" d="M1425.8,901.9l18.5,28.8"/>
		<path class="st0" d="M2260.7,1198.5c11,11.9,27.8,27,50.5,40"/>
		<path class="st0" d="M1665.2,1092.8c11,11.9,27.8,27,50.5,40"/>
	</g>
	<g id="Head">
		<path class="st12" d="M2006.1,782.8c94.9-39.4,130.5,24.8,136.4,61.9c2.2,7.1,3.8,26.8-7.8,49.2c-14.5,28-75.7,48.5-76.6,54.3
			c1.5,41.2,24.3,73,35.5,83.7l-70.4,73.7c-18.6-25.6-55.8-77.5-55.4-80.2c-15.9-58.8-9.6-98.9-9.6-98.9
			C1934.5,916.8,1887.4,832.1,2006.1,782.8z"/>
		<path class="st0" d="M1976.5,846.2c0,0-7.8-14.3-2.5-20.1c3.4-3.7,34.4-11.7,34.4-11.7"/>
		<path class="st13" d="M2056.6,914.9c-6.5-3-8.8-7.7-9.2-9.7c-1.1,1.7-2.7,5.7-0.2,7.7C2049.8,915,2054.6,915.1,2056.6,914.9z"/>
		<path class="st13" d="M2089.9,891.4c-6.8-5.6-17-3-21.3-1.1c0,0,10.2,0.6,16.1,3.3c5.6,2.6,7,8.3,7,8.3
			C2092.6,899.8,2093.6,894.8,2089.9,891.4z"/>
		<path class="st13" d="M2027.4,926c0,0-17.1,7.2-69.1,0.2c0,0-2.8,34.9,2.7,57.7C2005.8,948.2,2027.4,926,2027.4,926z"/>
		<path class="st0" d="M1967.5,928.5c13.1,2.1,55.8,1.8,75.1-7.3"/>
		<path d="M2122.5,754.9c-1.4-27.7-17.1-78.1-68.2-58.2c-45.3,17.6,16.6,102.1,47.6,155.7c4,6.8-16.4,26.7-16.4,26.7
			c14,0,30.9,14.9,15,29.5c-13.7,12.6-40.6,10.2-42.6,8c0,0-1.6,9.8,0.2,30.3c28.4-6.3,89.6-24.6,106.5-47.2
			c21.1-28.3,40.2-81,18.3-116.1c-17.5-28.1-33.2-23.5-38.8-17.8c2.6-4.3,5.4-14.4-4.2-20.6C2133,740.7,2124.3,749.1,2122.5,754.9z"
			/>
		<ellipse transform="matrix(0.156 -0.9878 0.9878 0.156 889.7785 2715.3701)" cx="2033.8" cy="837" rx="6" ry="5.8"/>
		<ellipse transform="matrix(0.8184 -0.5747 0.5747 0.8184 -94.727 1293.3032)" cx="1998.7" cy="796.5" rx="5.8" ry="4"/>
	</g>
	<g id="Body">
		<path class="st14" d="M2079.8,1016.9l-107.8,11.6l-12.8-48.8c-7.7-3.9-34.7-9.2-80.9,0c-46.2,9.2-130.4,44.7-157,78.1l74.8,113.2
			l-55.2,112.9c134.5,13.3,221.2,98,247.7,138.6c26.1-72.3,82.4-216.7,98.8-215.6c16.4,1,47.9,40.6,61.6,60.3l102.9-103.4
			C2203.7,1088.8,2108,1041.3,2079.8,1016.9z"/>
		<circle class="st15" cx="1812.6" cy="1055.5" r="17.9"/>
		<circle class="st15" cx="1945" cy="1083.8" r="17.9"/>
		<circle class="st15" cx="1955.9" cy="1183.4" r="17.9"/>
		<circle class="st15" cx="1840.2" cy="1228.6" r="17.9"/>
		<circle class="st15" cx="1991.7" cy="1279.3" r="17.9"/>
		<circle class="st15" cx="2083.1" cy="1083.8" r="17.9"/>
		<circle class="st15" cx="2163.5" cy="1202.4" r="17.9"/>
		<path class="st14" d="M2072.2,1218.9l-80.6,194c0,0-45-33.1-105.4-85.2c28,6.4,73.4,10.4,111.1-5.5
			C2018.3,1313.3,2057.3,1246.6,2072.2,1218.9z"/>
		<path class="st0" d="M1955.9,972.3l16.3,56.4l82.9-8.7"/>
		<path class="st0" d="M2122.3,1143.4c-9.2,13.4-20.4,33-28.1,57.9"/>
		<path class="st0" d="M2095,1147.7c-9.2,42.4-24.9,100.2-51.1,161.8"/>
		<path class="st0" d="M1832.3,1119.2c-19.3,22.7-43.3,56.6-61.7,101.1"/>
	</g>
	<g id="Legs">
		<path class="st12" d="M1387.2,1401.4c38-12.8,90.3-5.3,111.7,0l24-171.8c-11.1-3.6-42.1-11.7-77.9-14.9
			c-44.7-4-125.4,25.2-138,32.1c-10.1,5.5-128.6,66.8-186.7,96.8l49.8,190.7C1226.7,1495.3,1349.2,1414.2,1387.2,1401.4z"/>
		<path class="st13" d="M1500.7,1401.3l22.8-170.8c-61.3,60.7-33.1,101.4-106,164.5C1466.9,1393.2,1478.3,1399.1,1500.7,1401.3z"/>
		<path class="st13" d="M1365.9,1286.1c-10.4-26.7,5.2-50.7,14.3-59.4c-21.2,9-64.5,29.8-67.9,41
			C1308.1,1281.8,1364.9,1289.1,1365.9,1286.1z"/>
		<path class="st12" d="M1693.7,1963.8c6.3-220.8,37.2-210,60.8-247.8c-49.9-36.2-151.1-108.4-155.9-108.4
			c-42.6,29.2-85.3,185-98.7,245.9c-10.7,48.7-39.6,159.8-51.4,184.6l209.8,139.7C1664.3,2146.9,1690.7,2066.1,1693.7,1963.8z"/>
		<path class="st13" d="M1754.2,1715.7l-157.7-106.6c28.1,90.8,89.1,81.2,113.7,184.5C1728.1,1736.5,1740.6,1738.3,1754.2,1715.7z"
			/>
		<path class="st13" d="M1585.9,1757.3c-28.4-2.9-42.8-27.7-46.4-39.8c-1.6,23-2.8,71,5.7,79.1
			C1555.8,1806.9,1588.1,1759.6,1585.9,1757.3z"/>
		<path class="st0" d="M1553.3,1654.8c-23.1,52.8-26.3,99.3-17.2,162.8"/>
		<path class="st0" d="M1708.4,1892.6c0,120-5.2,153.4-24.8,235.5"/>
		<path class="st0" d="M1444.1,1186c-55.4,15.9-93.2,43.1-136.3,90.6"/>
		<path class="st0" d="M1418.6,1379.3c-16.4,15.1-58.7,49.8-97,67.5"/>
		<path class="st16" d="M1863.7,1608.3c72.7-67.6,108.7-151.4,125.6-188c-14.9-29.4-46.8-62.7-118.7-99.8
			c-65.1-33.6-112.1-36.7-129.4-36.9c-3.4,3-4.2,2.6-5.4,2.6l-210-78.5l-27.6,194.5c62.7,5.8,149.1,58.1,183.3,84.2
			c-13.5,8.7-84.6,74.8-114.8,105.3l187.5,124.6C1767.5,1701.4,1808.7,1659.4,1863.7,1608.3z"/>
		<path class="st0" d="M1611.3,1618.7c0,0,76.2,59.9,167.7,117.1"/>
		<path class="st0" d="M1523.1,1240.6c0,0-18.7,95.1-28,202.6"/>
		<path class="st0" d="M1690.3,1417.4c0,0,4.2,57.5-45,87.5"/>
		<path class="st16" d="M1916.7,1495.1c-19.3-18-54.9-68.5-42.6-126.7L1916.7,1495.1z"/>
		<path class="st0" d="M2007.9,1424.6c0,0-57-93.7-209-145.3"/>
		<path d="M1628.1,2274.9l31.6-104.7l-210.9-133.7c-8.3,7.5-46-1.3-133.4,10.7c-69.9,9.6-102.4,60.2-109.9,84.3L1628.1,2274.9z"/>
		<path d="M1049.3,1580.3c0,0,69.4-8.6,121.1-45.9c2,0.1-39.2-195.3-39.2-195.3c-32.3-45-89-90.4-135.8-110.8
			c-46.8-20.4-91.9-12.1-108.6-5.4L1049.3,1580.3z"/>
		<path class="st0" d="M1815.9,1339.9l-55.9-10.8"/>
		<path class="st0" d="M1695.2,1364.1l-53.2,20.3"/>
		<path class="st0" d="M1628.3,1306.5l-53.9-18.5"/>
		<path class="st0" d="M1737.4,1614.5l-53.9-18.5"/>
		<path class="st0" d="M1838.3,1557.5l-27.3,50"/>
		<path class="st0" d="M1815.7,1471.1l-55.5,13"/>
		<path class="st17" d="M1873.4,1380.8c-1.4,21.6,3.5,74,34,111.1"/>
		<path class="st6" d="M1435.8,2061.8c5.1-51.3,6.5-152.2-29.2-144.8C1371,1924.3,1411.2,2016.6,1435.8,2061.8z"/>
		<path class="st6" d="M1441.1,2065.1c-17.4-49.9-59.4-144.3-87.9-123S1399.9,2033,1441.1,2065.1z"/>
		<path class="st6" d="M1100.1,1344.6c33.8-38.9,93.2-120.5,59.8-135.1S1106.2,1293.5,1100.1,1344.6z"/>
		<path class="st6" d="M1102.5,1350.3c14.6-50.8,34.9-152.1-0.7-151.1C1066.2,1200.2,1087.4,1300.3,1102.5,1350.3z"/>
	</g>
</g>
<g id="Skateboard">
	<path class="st18" d="M768.2,1801.5l91.7,172.1l596.8,423.1l226.8,45.1"/>
	<circle class="st19" cx="527.6" cy="2049.8" r="66"/>
	<circle class="st19" cx="1412.6" cy="2507.8" r="66"/>
	<path class="st0" d="M713.3,1787.9v156"/>
	<path class="st0" d="M713.3,2028.3v155.9"/>
	<path class="st0" d="M931.4,1988.4l-155.9-3.9"/>
	<path class="st0" d="M645.9,1986.4l-155.9-3.9"/>
	<path class="st0" d="M829.5,1879l-59,65.4"/>
	<path class="st0" d="M662.4,2040.9l-59,65.4"/>
	<path class="st0" d="M826.5,2096.5l-66.9-57.3"/>
	<path class="st0" d="M660.3,1933.6l-66.9-57.3"/>
</g>
</svg>
