<?xml version="1.0" encoding="utf-8"?>
<!-- Generator: Adobe Illustrator 24.0.3, SVG Export Plug-In . SVG Version: 6.00 Build 0)  -->
<svg version="1.1" id="Layer" xmlns="http://www.w3.org/2000/svg" xmlns:xlink="http://www.w3.org/1999/xlink" x="0px" y="0px"
	 viewBox="0 0 1986 1352.92" style="enable-background:new 0 0 1986 1352.92;" xml:space="preserve">
<style type="text/css">
	.st0{fill:none;stroke:#000000;stroke-width:4;stroke-miterlimit:10;}
	.st1{fill:#AF206E;}
	.st2{fill:#5F2D78;}
	.st3{fill:#E54355;}
	.st4{fill:#F6CC1B;}
	.st5{fill:#140A23;}
	.st6{fill:#EB8B23;}
	.st7{fill:none;stroke:#000000;stroke-width:8;stroke-miterlimit:10;}
	.st8{fill:#FFFFFF;stroke:#000000;stroke-width:4;stroke-miterlimit:10;}
	.st9{fill:none;stroke:#FFFFFF;stroke-width:3;stroke-miterlimit:10;}
	.st10{fill:none;stroke:#FFFFFF;stroke-width:4;stroke-miterlimit:10;}
</style>
<g id="Man_and_woman">
	<path class="st0" d="M568.1,437.42l122.06,8.13c0,0,38.93-180.76,60.13-194.23c21.2-13.47,64.31,26.59,61.83,42.48
		s-29.6,43.63-29.6,43.63s-21.51,156-39.28,171.09c-17.77,15.09-165.47,6.36-165.47,6.36"/>
	<path class="st1" d="M593.4,454.69c8.86,55.63-29.05,107.92-84.69,116.78c-55.63,8.86-107.92-29.05-116.78-84.69"/>
	<polyline class="st2" points="348.83,849.66 258.8,810.13 204.96,989.65 292.83,865.39 353.55,891.72 	"/>
	<polyline class="st2" points="572.34,981.69 496.84,1044.68 633.57,1172.87 561.47,1038.84 612.1,996.22 	"/>
	<path class="st3" d="M525.84,628.51c-29.39-1.23-81.07-9.72-112.78,61.13c0,0-28.04,59.17,61.13,183.37L345.54,830
		c0,0-25.6,11.63-31,60.69s20.1,75.28,20.1,75.28l204.28,76.71c47.49,17.83,95.54-24.81,83.49-74.08L574.17,771.5l124.14,90.26
		L588.3,954.93c0,0-3.68,30.85,13.89,55.33s48.05,33.81,48.05,33.81l147.2-115.46c43.77-34.33,45.79-99.86,4.28-136.89
		C720.22,719.02,594.87,631.39,525.84,628.51z"/>
	<path class="st4" d="M531.7,393.58c0.61,28.09-21.66,51.35-49.76,51.96c-24.83,0.54-45.89-16.81-50.86-40.25
		c-0.65-3.08-1.03-6.25-1.1-9.51c-0.61-28.08,21.66-51.35,49.76-51.96c14.62-0.32,27.92,5.56,37.41,15.22
		C525.91,367.97,531.41,380.11,531.7,393.58z"/>
	<path class="st5" d="M517.15,359.04c-13.06,27.23-40.62,46.3-72.88,47c-4.48,0.1-8.89-0.17-13.19-0.75
		c-0.65-3.08-1.03-6.25-1.1-9.51c-0.61-28.08,21.66-51.35,49.76-51.96C494.36,343.5,507.66,349.38,517.15,359.04z"/>
	<circle class="st5" cx="433.77" cy="342.86" r="19.38"/>
	<circle class="st5" cx="441.32" cy="269.76" r="55.18"/>
	<ellipse transform="matrix(0.9998 -0.0216 0.0216 0.9998 -8.4359 11.3862)" cx="521.87" cy="395.47" rx="5.51" ry="8.77"/>
	<ellipse transform="matrix(0.9998 -0.0216 0.0216 0.9998 -8.4618 10.9905)" cx="503.58" cy="396.47" rx="5.51" ry="8.77"/>
	<path class="st6" d="M1482.3,299.96c0.61,28.09,23.87,50.37,51.96,49.76c24.83-0.54,45.12-18.78,49.07-42.41
		c0.51-3.1,0.75-6.29,0.68-9.55c-0.61-28.08-23.87-50.37-51.96-49.76c-14.62,0.32-27.65,6.76-36.71,16.83
		C1486.98,274.12,1482.01,286.5,1482.3,299.96z"/>
	<path class="st5" d="M1485.46,244.61c0.25,11.67,9.91,20.92,21.58,20.67c10.32-0.22,18.74-7.8,20.38-17.62
		c0.21-1.29,0.31-2.61,0.28-3.97c-0.25-11.67-9.91-20.92-21.58-20.67c-6.07,0.13-11.49,2.81-15.25,6.99
		C1487.4,233.88,1485.34,239.02,1485.46,244.61z"/>
	<path class="st5" d="M1520.35,237.92c0.15,7.11,6.04,12.75,13.15,12.59c6.28-0.14,11.42-4.75,12.42-10.73
		c0.13-0.78,0.19-1.59,0.17-2.42c-0.15-7.11-6.04-12.75-13.15-12.59c-3.7,0.08-7,1.71-9.29,4.26
		C1521.53,231.38,1520.27,234.51,1520.35,237.92z"/>
	<ellipse transform="matrix(0.9998 -0.0216 0.0216 0.9998 -6.3315 32.5077)" cx="1498.83" cy="308.8" rx="5.51" ry="8.77"/>
	<ellipse transform="matrix(0.9998 -0.0216 0.0216 0.9998 -6.3317 32.9042)" cx="1517.15" cy="309" rx="5.51" ry="8.77"/>
	<g>
		<g>
			<path d="M1364.91,687.22c-24.9-7.69-46.54-22.06-63.34-41.98c-16.62-19.7-27.62-43.05-37.11-66.8
				c-10.19-25.51-18.03-51.88-26.32-78.04c-4.17-13.17-8.44-26.31-13.12-39.3c-5.3-14.7-9.98-29.7-10.24-45.47
				c-0.26-15.52,4.3-30.9,16.18-41.46c10.9-9.69,25.87-13.48,40.11-14.4c15.76-1.03,31.53,1.18,46.96,4.27
				c17.43,3.49,34.57,8.48,51.27,14.56c33.48,12.18,65.18,28.8,95.78,46.94c30.32,17.98,60.02,37.19,89,57.26
				c28.64,19.83,56.42,40.99,81.97,64.71c25.26,23.46,49.28,49.58,67.27,79.12c17.75,29.16,29,66.45,14.07,99.26
				c-13.71,30.15-46.94,44.9-78.49,46.76c-38.28,2.26-77.23-9.76-113.27-21.42c-36.15-11.7-71.37-26.09-106.07-41.52
				c-69.26-30.81-138.21-63.36-204.46-100.25c-31.54-17.56-62.77-36.11-92.14-57.16c-26.64-19.09-52.04-40.94-71.59-67.43
				c-9.64-13.07-20.01-28.15-23.82-44.14c-3.88-16.28,4.49-28.84,19.5-34.6c14.24-5.47,30.03-5.79,45.05-6.78
				c19.46-1.29,38.95-2.12,58.44-2.43c76.37-1.2,153.26,5.76,227.06,26.08c64.4,17.73,126.17,45.72,180.27,85.1
				c53.17,38.7,103.75,90.3,125.19,153.8c19.62,58.14,9.73,130.61-42.87,168.42c-51.95,37.35-122.62,32.55-181.26,16.67
				c-69.49-18.82-132.98-55.2-193.26-93.69c-58.75-37.5-115.9-81.03-154.51-140.05c-18.12-27.7-31.94-58.3-38.72-90.79
				c-5.1-24.46-10.7-67.1,18.96-78.85c7.8-3.09,16.36-3.46,24.64-3.53c9.5-0.09,19,0.27,28.47,0.99c19.2,1.45,38.25,4.48,57.06,8.57
				c36.06,7.83,71.44,19.22,105.74,32.79c34.07,13.48,67.13,29.52,98.85,47.86c28.97,16.75,57.26,35.17,82.79,56.87
				c46.17,39.26,84.33,92.17,83.98,155.05c-0.15,27.15-7.18,54.61-22.66,77.14c-17.71,25.77-45.68,40.54-75.98,46.14
				c-32.91,6.08-67.51,2.66-100.15-3.47c-32.46-6.1-64.28-15.97-94.46-29.4c-30.05-13.37-58.58-30.15-84.83-49.98
				c-26.52-20.03-51.53-43.3-71.18-70.22c-19-26.04-33.66-56.58-34.93-89.27c-0.61-15.76,1.63-32.11,9.02-46.22
				c7.67-14.65,20.55-24.38,36.32-28.96c15.46-4.49,31.81-4.56,47.77-3.77c18.12,0.9,36.18,3.09,53.98,6.6
				c35.49,6.98,70.05,18.49,103.1,33.1c63.94,28.27,124.45,67.03,174.3,116.26c23.92,23.63,47.93,50.29,59.79,82.29
				c10.13,27.33,9.82,59.35-7.41,83.89c-20.02,28.53-58.46,29.89-90.11,30.32c-36.96,0.5-73.82-4.32-109.64-13.28
				c-70.66-17.68-136.15-51.21-195.97-92.28c-29.61-20.33-57.9-42.5-85.27-65.74c-23.84-20.24-51.72-42.97-60.18-74.52
				c-8.6-32.03,9.77-62.48,34.58-81.61c26.99-20.81,60.67-30.71,94.06-34.87c34.95-4.36,70.7-4.01,105.74-1.08
				c36.59,3.05,72.85,9.62,108.22,19.45c35.18,9.78,69.56,22.73,102.26,39.01c27.48,13.68,53.89,30.08,76.98,50.4
				c22.66,19.94,42.2,43.87,54.29,71.71c12.23,28.17,19.84,67.56-10.1,87.44c-27.56,18.29-61.46,10.14-88.55-4.54
				c-28.97-15.69-55.96-36.28-81.74-56.69c-50.09-39.67-95.96-84.8-135.71-134.86c-39.6-49.87-72.92-104.95-98.16-163.43
				c-6.41-14.86-12.52-30-17.46-45.42c-5.05-15.76-8.85-34.65,0.94-49.45c16.52-24.97,54.69-23.92,80.84-22.35
				c68.56,4.12,138.27,28.26,194.49,67.83c49.46,34.81,89.51,85.72,97.67,147c7.52,56.45-12.25,119.04-62.78,149.85
				c-53.38,32.55-121.96,31.05-180.9,16.57c-28.39-6.98-56.23-17.98-79.87-35.45c-25.15-18.59-43.09-44.76-49.81-75.44
				c-7.65-34.9-1.15-71.19,12.05-103.9c12.73-31.55,31.12-61.98,52.44-88.47c19.17-23.83,42.32-45.87,70.08-59.32
				c27.51-13.34,58.79-16.95,88.25-8.24c28.2,8.33,53.62,26.81,69.5,51.65c19.12,29.91,21.7,66.41,20.87,100.99
				c-1.88,78.12-14.58,155.89-32.19,231.88c-14.61,63.06-32.55,127.85-70.84,181.11c-18.13,25.21-41.82,50.55-71.91,60.89
				c-14.4,4.95-30.63,6.18-44.43-1.26c-13.24-7.13-21.42-20.32-26.27-34.17c-5.55-15.85-7.71-32.84-8.93-49.52
				c-1.4-19.05-1.06-38.19,0.53-57.22c3.15-37.85,11.09-75.32,21.06-111.92c19.05-69.95,47.57-137.31,84.7-199.59
				c30.69-51.48,71.9-105.85,131.27-125.15c29.5-9.59,66.17-11.38,88.75,13.49c19.47,21.45,23.87,53.19,25.39,80.96
				c3.57,65.4-9.06,131.58-35.76,191.35c-26.39,59.07-66.83,115.49-120.14,153.05c-26.23,18.48-56.54,32.7-88.79,35.83
				c-31.2,3.02-61.99-4.85-88.6-21.22c-57.72-35.52-84.93-101.66-85.9-167.52c-1.06-71.47,27.07-140.8,62.14-201.86
				c15.65-27.25,34.06-53.83,57.85-74.63c25.29-22.1,56.37-35.97,89.9-39.07c34.53-3.2,69.22,3.71,101.75,15
				c31.77,11.03,62.46,26.26,90.8,44.36c27.13,17.33,52.59,38.52,70.87,65.27c20.29,29.68,29.37,64.78,32.66,100.23
				c6.52,70.35-6.65,142.66-38.68,205.71c-30.08,59.21-77.09,111.1-141.55,132.26c-65.13,21.39-136.3,13.24-201.96-1.31
				c-64.86-14.37-134.96-38.36-169.63-99.65c-16.26-28.74-21.29-61.97-10.68-93.57c11.14-33.19,35.14-61.49,59.16-86.25
				c24.93-25.7,52.75-48.4,81.54-69.62c27.83-20.51,56.75-39.57,86.72-56.81c60.15-34.61,124.76-62.04,192.47-77.78
				c33.75-7.85,68.14-12.58,102.78-13.73c17.09-0.57,34.21-0.27,51.27,0.93c10.89,0.77,31.95,3.01,31.96,17.94
				c0,7.77-6.81,14-12.38,18.5c-7.37,5.95-15.41,11.18-23.13,16.67c-15.98,11.35-32.03,22.61-48.12,33.8
				c-32.46,22.57-65.11,44.88-97.86,67.02c-65.01,43.96-130.44,87.32-196.04,130.39c-31.47,20.67-63.31,40.93-96.84,58.12
				c-16.68,8.56-33.86,17.01-52.28,21.08c-15.96,3.52-39.19,4.83-50.52-9.5c-9.85-12.46-9-31.28-6.97-46.09
				c2.43-17.64,8.36-34.68,15.89-50.75c14.89-31.74,34.89-61.51,55.79-89.56c41.5-55.7,91.82-106.36,149.02-145.95
				c56.31-38.97,121.98-66.39,191.44-64.57c33.6,0.88,67.33,8.83,96.96,24.9c27.64,14.99,53.14,37.67,65.05,67.41
				c13.34,33.31,6.92,70.31-6.26,102.6c-12.38,30.32-30.8,58.45-52.43,82.96c-44.96,50.93-104.69,86.55-169.38,106.36
				c-34.17,10.47-69.6,16.77-105.25,19.18c-31.89,2.15-64.61,0.94-95.36-8.45c-30.03-9.17-56.66-26.97-74.38-53.15
				c-16.86-24.93-25.66-54.91-28.51-84.69c-2.68-27.99-1.12-56.7,5.04-84.15c6.44-28.7,18.66-56.6,40.58-76.84
				c3.33-3.08-1.65-8.04-4.97-4.97c-24.22,22.37-37.53,53.37-44.07,85.2c-6.42,31.21-7.59,63.78-2.84,95.3
				c4.64,30.77,15.67,60.91,35.31,85.32c20.36,25.31,49.33,41.35,80.56,49.18c33.45,8.4,68.51,8.36,102.64,5.07
				c37.31-3.6,74.28-11.25,109.67-23.64c65.9-23.08,126.19-62.88,169.45-118.12c40.7-51.98,77.66-129.82,41.35-193.51
				c-34.11-59.83-109.47-84.66-174.8-83.53c-72.24,1.25-139.73,32.73-196.99,75.03c-58.58,43.28-109.67,97.07-151.32,156.74
				c-20.84,29.86-41.38,61.67-52.94,96.44c-5.54,16.66-9.19,34.85-7.89,52.49c1.08,14.67,6.42,30.06,20.19,37.34
				c15.7,8.3,35.81,6.58,52.4,2.24c18.58-4.86,36.06-13.65,53.03-22.46c35.68-18.53,69.45-40.44,102.99-62.53
				c69.22-45.58,138.41-91.2,206.99-137.75c34.34-23.31,68.46-46.94,102.33-70.93c15.93-11.28,32.63-22.06,47.75-34.42
				c10.5-8.58,20.15-22.97,10.39-35.85c-8.31-10.96-24.36-12.34-36.96-13.13c-17.91-1.12-35.89-1.23-53.82-0.41
				c-35.73,1.65-71.35,7-106.13,15.32c-70.72,16.92-138.17,46.43-200.62,83.42c-31.6,18.72-62.03,39.4-91.16,61.77
				c-29.61,22.74-57.96,47.35-82.56,75.53c-22.99,26.34-44.98,56.86-50.42,92.24c-5.02,32.63,5.16,65.52,23.77,92.32
				c41.52,59.77,115.56,81.4,183.41,94.97c68.79,13.75,143.48,18.9,209.41-9.49c64.4-27.74,109.85-87,136.83-150.08
				c28.77-67.25,38.99-144.25,25.75-216.43c-6.49-35.35-20.88-67.91-44.66-95.01c-22.12-25.21-50.05-44.77-79.21-60.99
				c-60.42-33.62-134.88-61.37-204.44-42.63c-66.49,17.91-108.68,77.52-139.27,135.27c-34.58,65.27-59.09,139.15-48.96,213.8
				c4.66,34.32,16.58,68.17,37.22,96.21c18.87,25.64,44.25,46.47,73.73,58.7c30.25,12.55,63.5,14.37,95.15,6.16
				c32.8-8.51,62.46-26.55,88.17-48.27c52-43.93,90.6-104.27,114.02-167.82c11.83-32.09,19.72-65.54,23.62-99.51
				c3.74-32.65,4.49-66.77-1.2-99.25c-4.96-28.34-17.49-58.75-45.1-71.7c-29.81-13.98-66.55-6.31-95.14,7.17
				c-59.94,28.26-99.38,88.03-130.38,144.14c-36.71,66.44-64.18,138.01-81.07,212.02c-8.98,39.34-15.27,79.68-14.57,120.14
				c0.32,18.59,1.87,37.49,5.96,55.66c3.29,14.64,8.76,29.2,18.53,40.79c22.08,26.2,57.78,22.12,84.97,6.89
				c28.6-16.01,50.99-43.19,68.27-70.55c37.52-59.41,54.25-130.06,68.63-198.02c8.48-40.05,15.32-80.47,19.92-121.15
				c2.33-20.63,4.06-41.31,5.09-62.04c0.95-19.13,1.54-38.38-0.1-57.49c-2.92-33.97-13.92-66.35-38.4-90.82
				c-21.39-21.38-50.11-35.24-80.22-38.29c-65.89-6.67-121.16,41.5-157.1,91.45c-41.33,57.43-75.37,135.16-45.96,205.3
				c24.54,58.52,87.75,86.88,146.61,97.74c61.97,11.44,134.48,9.4,184.93-33.13c45.86-38.66,59.23-103.93,47.31-160.75
				c-13.13-62.56-58.6-112.71-111.27-146.24c-28.95-18.42-60.65-32.51-93.32-42.86c-36.75-11.64-75.92-18.83-114.58-18.02
				c-26.52,0.56-59.31,8.08-69.11,36.25c-5.88,16.9-0.9,35.52,4.64,51.8c5.31,15.61,11.31,30.99,17.8,46.15
				c26.36,61.54,62.54,118.53,105.05,170.16c42.74,51.91,92.07,98.21,145.81,138.57c13.64,10.24,27.56,20.12,41.77,29.54
				c15.26,10.12,31.17,19.67,48.62,25.51c27.72,9.29,62.4,7.08,83.15-15.86c23.56-26.04,13.41-64.9,0.09-93.33
				c-13.37-28.55-34.47-52.93-58.53-73.04c-24.78-20.71-52.73-37.35-81.9-51.09c-34.58-16.3-70.74-29.24-107.81-38.59
				c-37.04-9.35-75.02-15.16-113.16-17.34c-36.33-2.07-73.5-1.58-109.37,5.05c-33.26,6.15-66.7,18.19-91.66,41.84
				c-23.5,22.27-37.03,54.69-25.7,86.46c11.44,32.06,39.59,54.95,64.79,76.17c28.72,24.18,58.47,47.22,89.64,68.18
				c63.37,42.62,133.34,76.66,208.37,92.56c37.16,7.87,75.37,11.34,113.32,9.01c17.67-1.08,35.76-3,51.99-10.56
				c13.7-6.39,24.75-17.29,31.98-30.51c34.97-63.91-17.49-129.92-61.71-172.5c-52.68-50.71-116.71-90.43-184-118.67
				c-35.14-14.74-71.5-25.47-109.06-31.87c-17.86-3.04-36.1-4.9-54.22-5.04c-16.23-0.13-32.89,1.54-47.85,8.22
				c-31.27,13.95-42.38,48.73-40.75,80.76c1.73,33.93,16.63,65.72,36.48,92.78c20.36,27.74,45.83,51.51,73.16,72.26
				c27.72,21.05,58.02,38.7,89.97,52.5c31.82,13.75,65.16,23.86,99.34,29.68c33.9,5.77,69.39,8.57,103.25,1.06
				c31.02-6.88,58.66-23.66,76.49-50.25c15.8-23.57,22.98-52.39,23.13-80.57c0.35-65.48-39-121.04-87.24-161.89
				c-27.1-22.94-57.1-42.43-87.91-59.99c-33.03-18.82-67.49-35.11-102.95-48.79c-36.57-14.11-74.37-25.84-112.92-33.12
				c-19.67-3.72-39.61-6.22-59.63-6.98c-16.6-0.63-36.37-1.87-50.77,8c-25.62,17.57-22.4,54.78-17.35,81.33
				c6.48,34.08,20.74,66.48,39.53,95.52c39.95,61.75,99.5,107.02,160.83,145.97c63.2,40.14,130.12,77.95,203.46,95.72
				c61.19,14.82,134.39,16.1,185.46-26.36c51.13-42.51,59.14-117.93,36.95-177.42c-24.32-65.18-76.97-117.44-132.9-156.77
				c-57.45-40.4-123.34-68.5-191.32-85.57c-78.42-19.69-159.88-25.07-240.48-21.97c-19.18,0.74-38.62,1.35-57.68,3.75
				c-13.13,1.65-27.14,4.82-37.31,13.84c-27.07,24,2,64.72,18.49,85.95c21.03,27.08,47.62,49.24,75.59,68.82
				c31.39,21.97,64.64,41.38,98.27,59.69c35.17,19.16,71.09,36.91,107.25,54.11c36.08,17.16,72.27,34.18,109.03,49.84
				c36.66,15.62,73.99,29.81,112.39,40.53c36.19,10.1,75.74,19.48,113.03,9.59c31.64-8.38,58.48-30.74,65.53-63.65
				c7.55-35.21-6.42-69.98-25.94-98.77c-40.78-60.12-99.7-105.92-159.37-146.03c-60.98-40.99-124.98-82.35-196.13-103.06
				c-17.02-4.95-34.55-8.68-52.19-10.55c-14.92-1.58-30.49-1.39-44.98,2.85c-13.76,4.02-26.16,12.14-33.68,24.55
				c-8,13.2-9.35,29.22-7.48,44.24c1.95,15.65,7.46,30.06,12.64,44.83c4.89,13.92,9.38,27.98,13.86,42.04
				c8.61,27.02,17.08,54.16,28.7,80.06c9.8,21.85,21.92,43.01,38.51,60.45c16.75,17.6,37.69,30.1,60.99,36.88
				C1365.88,690.36,1366.59,687.74,1364.91,687.22L1364.91,687.22z"/>
		</g>
	</g>
	<path class="st7" d="M1135.65,652.69c0,0-315.34-240.25-355.74-353.24c-4.37-12.22-6.81,121.61-35.49,104.59
		c-28.68-17.02-0.36-150.94,37.97-122.7c236.87,174.56,652.71,292.37,695.86,310.74"/>
	<path class="st7" d="M675.65,647.73c266.13,88.98,499.52-29.67,581.59-96.08"/>
	<path class="st7" d="M641.61,684.84c2.39,31.41,3.46,68.9-14.99,63.98c-15.68-4.18-20.36-34.08-15.9-61.75"/>
	<path class="st7" d="M1361.74,687.68c0,0-400.75,184.65-693.11-22.31"/>
	<path class="st8" d="M770.63,257.13c0,0-17.56,56.09-13.47,60.15c4.09,4.07,25.88-43.09,25.88-43.09s-26.65,57.57-20.08,62.2
		s33.2-51.35,33.2-51.35s-23.7,49.6-16.69,53.45s32.49-43.82,32.49-43.82"/>
	<path class="st0" d="M442.6,507.34c0,0-42.87,130.05-14.51,153.95c32.79,27.63,195.94-10.56,195.94-10.56s-27.24,30.85-24.64,36.95
		c2.59,6.1,35.54-7.33,35.54-7.33s-6.12,1.77-2.32,6.62c3.8,4.84,20.71-10.3,20.71-10.3s-12.08,29.4-5.91,30.49
		c6.18,1.1,43.97-82.08,34.26-94.59c-9.71-12.51-192.4-13.74-192.4-13.74l21.97-104"/>
	<path class="st2" d="M1621.06,1098.62c0,0-16.05,20.32-54.91,30.42c-37.57,9.76-63.13,0.24-63.13,0.24l-48.35-186.17
		c0,0,16.07-1.79,57.29-18.95c42.45-17.67,55.23-32.98,55.23-32.98L1621.06,1098.62z"/>
	<path class="st2" d="M996.94,1002.18c0,0,7.24,24.86,39.47,48.82c31.15,23.15,58.42,23.94,58.42,23.94l117.66-160.91
		c0,0-16.77-3.69-54.02-28.99c-38.04-25.83-44.28-40.61-44.28-40.61L996.94,1002.18z"/>
	
		<ellipse transform="matrix(0.5928 -0.8054 0.8054 0.5928 -409.6203 1265.4768)" class="st5" cx="1046.54" cy="1037.79" rx="20.6" ry="60.82"/>
	
		<ellipse transform="matrix(0.9684 -0.2494 0.2494 0.9684 -228.5283 424.8071)" class="st5" cx="1562.08" cy="1114.21" rx="60.96" ry="20.6"/>
	<polyline class="st4" points="1052.78,1029.1 991.27,1112.29 855.23,979.23 993.55,1046.61 1020.7,1010.49 	"/>
	<polyline class="st4" points="1563.87,1102.16 1586.53,1197.07 1764.16,1128.82 1610.46,1135.87 1601.22,1098.37 	"/>
	<path class="st6" d="M1565.54,298.16c0.22,10.2,8.67,18.29,18.87,18.07c9.02-0.2,16.39-6.82,17.82-15.41
		c0.19-1.13,0.27-2.28,0.25-3.47c-0.22-10.2-8.67-18.29-18.87-18.07c-5.31,0.11-10.04,2.46-13.34,6.11
		C1567.24,288.78,1565.44,293.27,1565.54,298.16z"/>
	<path class="st5" d="M1497.67,263.42c0,0,18.29,11.11,50.83,4.45l2.92,30.6l19.8-4.83c0,0,4.76-17.8,22.01-11.89
		c0,0,0.67-34.97-19.99-41.4C1537.15,229.12,1505.76,245.61,1497.67,263.42z"/>
	<line class="st0" x1="495.95" y1="383.74" x2="504.57" y2="382.4"/>
	<line class="st0" x1="515.31" y1="373.78" x2="524.22" y2="373.58"/>
	<path class="st9" d="M612.92,1023.64c0,0,17.67-20.23,12.25-48.59c-4.29-22.41-60.03-247.99-60.03-247.99"/>
	<line class="st10" x1="273.03" y1="864.19" x2="283.05" y2="900.6"/>
	<line class="st10" x1="263.04" y1="880.9" x2="273.07" y2="917.31"/>
	<line class="st10" x1="253.34" y1="899.42" x2="263.36" y2="935.83"/>
	<line class="st10" x1="551.04" y1="1053.82" x2="587.96" y2="1061.76"/>
	<line class="st10" x1="561.24" y1="1070.4" x2="598.16" y2="1078.34"/>
	<line class="st10" x1="573.18" y1="1087.57" x2="610.1" y2="1095.51"/>
	<line class="st10" x1="1616.03" y1="1148.89" x2="1643.73" y2="1123.22"/>
	<line class="st10" x1="1635.47" y1="1150.05" x2="1663.16" y2="1124.38"/>
	<line class="st10" x1="1656.38" y1="1150.13" x2="1684.07" y2="1124.47"/>
	<line class="st10" x1="977.93" y1="1053.96" x2="964.7" y2="1018.59"/>
	<line class="st10" x1="960.04" y1="1046.27" x2="946.81" y2="1010.9"/>
	<line class="st10" x1="941.31" y1="1036.96" x2="928.09" y2="1001.59"/>
	<line class="st9" x1="471.13" y1="870.08" x2="486.78" y2="882.11"/>
	<line class="st9" x1="693.31" y1="861.87" x2="713.9" y2="860.19"/>
	<path class="st0" d="M522.7,414.3c0,0-8.41-1.84-8.1-9.59"/>
	<path class="st0" d="M1507.62,318.74c0,0-3.49,7.88-11.01,6.02"/>
</g>
</svg>
