<svg xmlns="http://www.w3.org/2000/svg" viewBox="0 0 3000 3000"><defs><style>.cls-1,.cls-11,.cls-12,.cls-13,.cls-14,.cls-18,.cls-2,.cls-28,.cls-3,.cls-4,.cls-5,.cls-6,.cls-7,.cls-8,.cls-9{fill:none;}.cls-2,.cls-21,.cls-22,.cls-23,.cls-24,.cls-25,.cls-3,.cls-6,.cls-7{stroke:#eb8b23;}.cls-2{stroke-width:17px;}.cls-3{stroke-width:12px;}.cls-20,.cls-4,.cls-5{stroke:#5f2d78;}.cls-12,.cls-4{stroke-width:11px;}.cls-5{stroke-width:26px;}.cls-6{stroke-width:51px;}.cls-7{stroke-width:24px;}.cls-10,.cls-8,.cls-9{stroke:#af206e;}.cls-10,.cls-18,.cls-22,.cls-24,.cls-28,.cls-31,.cls-8,.cls-9{stroke-linecap:round;}.cls-8{stroke-width:4.76px;}.cls-10,.cls-18,.cls-22,.cls-24,.cls-25,.cls-28,.cls-31,.cls-32,.cls-9{stroke-width:5px;}.cls-10,.cls-22,.cls-23,.cls-25,.cls-29{fill:#5f2d78;}.cls-11,.cls-12,.cls-13,.cls-14,.cls-26,.cls-27,.cls-28{stroke:#e54355;}.cls-11{stroke-width:14.29px;}.cls-13{stroke-width:6px;}.cls-14{stroke-width:7px;}.cls-15{fill:#f6cc1b;}.cls-16,.cls-26{fill:#ff6b6b;}.cls-16,.cls-17,.cls-18,.cls-19{stroke:#140a23;}.cls-16,.cls-17,.cls-19,.cls-20,.cls-21,.cls-23,.cls-26,.cls-27{stroke-miterlimit:10;}.cls-17,.cls-27{fill:#e34545;}.cls-20,.cls-21,.cls-24{fill:#e26644;}.cls-30,.cls-31,.cls-32{fill:#44245b;}.cls-31{stroke:#000;}.cls-32{stroke:#f6cc1b;}</style></defs><title>keyhole</title><g id="Background_Details" data-name="Background Details"><rect class="cls-1" width="3000" height="3000"/><g id="Color_Elipses" data-name="Color Elipses"><circle class="cls-2" cx="1694" cy="1095.54" r="612"/><circle class="cls-3" cx="642.55" cy="2431.44" r="91.73"/><circle class="cls-4" cx="614.66" cy="1653.93" r="22.39"/><circle class="cls-5" cx="2549.61" cy="2264.08" r="35.97"/><circle class="cls-4" cx="2376.41" cy="487.59" r="43.47"/><circle class="cls-6" cx="530.13" cy="877.98" r="82.35"/><circle class="cls-7" cx="2583.18" cy="1595.3" r="142.15"/></g><g id="Waves"><path class="cls-8" d="M912.31,901.43C919.93,881.8,928.65,826,864.92,837c-52.38,9-53.78-40.51-47.44-65.85" transform="translate(-0.65 -0.54)"/><path class="cls-8" d="M994.27,1730.76c5-10.25,12.27-40-22.66-37-28.7,2.48-27.2-24.34-22.63-37.74" transform="translate(-0.65 -0.54)"/><path class="cls-8" d="M1606.93,1160c2.75-5.63,6.73-22-12.44-20.31-15.76,1.37-14.93-13.35-12.42-20.71" transform="translate(-0.65 -0.54)"/><path class="cls-9" d="M1470,2611.16c8.27-16.92,20.24-66-37.41-61-47.37,4.09-44.9-40.17-37.34-62.29" transform="translate(-0.65 -0.54)"/><path class="cls-8" d="M2375.28,1328.43c8.11-16.38,21.74-61-26.05-42.86-39.27,14.91-33.83-23.31-25.91-43.93" transform="translate(-0.65 -0.54)"/><path class="cls-8" d="M514.22,1312.81c8.11-16.38,21.73-61-26.06-42.86-39.27,14.91-33.83-23.31-25.91-43.93" transform="translate(-0.65 -0.54)"/><path class="cls-8" d="M391.89,2041.76c8.75-24,17.69-92.43-60.37-78.88-64.14,11.13-67.45-49.54-60.47-80.6" transform="translate(-0.65 -0.54)"/><path class="cls-8" d="M2429.77,2041.77c9.15-23,19.87-88.65-55.47-76.87-61.91,9.68-63.19-48.75-55.51-78.52" transform="translate(-0.65 -0.54)"/></g><g id="Lines"><path class="cls-10" d="M1492.73,411.46l87.54,94.18,87.55,94.19" transform="translate(-0.65 -0.54)"/><path class="cls-10" d="M1271.85,269.65,1600,622" transform="translate(-0.65 -0.54)"/><path class="cls-10" d="M1357.37,460.37,1628.09,757" transform="translate(-0.65 -0.54)"/><path class="cls-10" d="M2697.89,1959.27l76.79,82.61,76.78,82.61" transform="translate(-0.65 -0.54)"/><path class="cls-10" d="M2565.72,1139.27l33.51,36.06,33.51,36.05" transform="translate(-0.65 -0.54)"/><path class="cls-10" d="M2514.78,1868.72,2881,2260.57" transform="translate(-0.65 -0.54)"/><path class="cls-10" d="M128.58,1307.73,602,1829.33" transform="translate(-0.65 -0.54)"/><path class="cls-10" d="M236.77,1539.39l393.47,440.75" transform="translate(-0.65 -0.54)"/></g><g id="Black_Elipses" data-name="Black Elipses"><circle class="cls-11" cx="2557.06" cy="796.32" r="14.55" transform="translate(-120.79 723.12) rotate(-15.74)"/><circle class="cls-12" cx="1067.72" cy="488.74" r="52.25" transform="translate(-93.2 307.49) rotate(-15.74)"/><circle class="cls-12" cx="1560.95" cy="946.14" r="29.37"/><circle class="cls-13" cx="680.43" cy="1466.13" r="15.87"/><circle class="cls-12" cx="430.78" cy="655.04" r="19.82"/><circle class="cls-12" cx="695.78" cy="2204.31" r="26.37"/><circle class="cls-12" cx="2208.36" cy="1676.51" r="60.43" transform="translate(-372.68 661.53) rotate(-15.74)"/><circle class="cls-14" cx="2676.13" cy="647.51" r="85.99" transform="translate(325.31 2081.42) rotate(-45)"/><circle class="cls-14" cx="1217.3" cy="2266.97" r="49.9" transform="translate(-570.06 414.78) rotate(-15.74)"/></g></g><g id="Lock"><path class="cls-15" d="M2019.7,358c-158.08,0-286.22,192-286.22,428.78,0,165.28,62.43,308.72,153.88,380.29L1591.92,2522.36l744.92,107.16-213.35-1443c106.77-62.26,182.43-217.75,182.43-399.71C2305.92,550,2177.78,358,2019.7,358Z" transform="translate(-0.65 -0.54)"/><path d="M2156.15,388.17a2.5,2.5,0,0,0-.67-5Zm-145.24,792.05,2.46.47.28-1.5-1.2-.94Zm-238.29,1247.4-2.45-.47-.44,2.29,2.25.6Zm53.47-1616.19c0-94.48,23-192.23,75.71-270.37s135.1-136.67,254.35-152.89l-.67-5c-120.7,16.42-204.38,75.84-257.83,155.06s-76.56,178-76.56,273.16Zm186.36,366.82c-89.07-69.7-186.36-206.07-186.36-366.82h-5c0,162.71,98.37,300.4,188.28,370.76Zm-4,1.5-238.28,1247.4,4.91.94,238.29-1247.4ZM1772,2430l604.44,160.11,1.28-4.83-604.43-160.11Z" transform="translate(-0.65 -0.54)"/></g><g id="Man"><g id="Head"><path class="cls-16" d="M1287.66,890.05c11.55,39.8-19.74,83.37-43.19,91.41-1.51,19-3.38,59.18,1.27,67.79s62.12,23.39,90.26,29.71c-2.71,7.33-22.45,30.09-79.67,62.49-118.93,55.68-187.64-30.41-188.84-35.11,103-84.51,75.3-139.42,74.19-143.73-2.22.57-28.93-11.7-41.34-27.47-9.56-12.14-14.14-21.43-17.76-36.46-4.29-17.81-5.55-29-1.39-46.87,9.11-39.12,47.56-62.48,75.5-69.84s50.93,7.19,76.06,31C1260.05,839,1276.12,850.24,1287.66,890.05Z" transform="translate(-0.65 -0.54)"/><path class="cls-17" d="M1181.06,974.51s15,8.44,63.25,6.59c0,0-1.68,52.71-1.68,54.3C1204.78,997.09,1181.06,974.51,1181.06,974.51Z" transform="translate(-0.65 -0.54)"/><path class="cls-18" d="M1246.1,901.52s12.47-10.42,9.62-17.79C1253.9,879,1228,860.32,1228,860.32" transform="translate(-0.65 -0.54)"/><path class="cls-19" d="M1245.41,740.46c13.86,9.54-92.57,120.59-138.11,153.12L1120.44,909c-5.38-.51-19.94-1.46-21.59,9.23-2.16,21.64,26.59,26.79,45.23,26-1.25,7-2.13,18.65-2.13,18.65-108.86-43.53-73.15-140.58-54-168.19,52.37-64.48,105.38-69.62,115-69.62,12.5,7-12,44.28-12,44.28S1231.54,730.92,1245.41,740.46Z" transform="translate(-0.65 -0.54)"/><ellipse class="cls-19" cx="1197.01" cy="878.52" rx="4.91" ry="8.22" transform="translate(-275.24 1075.51) rotate(-43.92)"/><ellipse class="cls-19" cx="1246.1" cy="846.85" rx="4.91" ry="8.17" transform="translate(-249.89 662.3) rotate(-27.18)"/><path class="cls-18" d="M1238.26,982.45c-14.72.21-48.82-1.25-67.53-8.83" transform="translate(-0.65 -0.54)"/></g><g id="Legs"><path class="cls-20" d="M1232.29,2134.66c124.12,22.17,164.39-52.2,187.68-82.65s25.08-68.07,25.08-68.07c-39.41-76-139.16-136.3-177.84-152.06-13.28,47.47-16.82,124.54-151.29,95a694.85,694.85,0,0,0-105.39-15.16l44.14,206.72C1084.34,2113,1131.7,2116.7,1232.29,2134.66Z" transform="translate(-0.65 -0.54)"/><path class="cls-21" d="M1436,2019.91c-44.87-97.41-135.24-149.45-172.87-169.29,21.21,20.06,79.16,85.7,76.42,137.14-3.53,66.49-49,56.76-53.2,151.2C1379.61,2139,1433.73,2031.31,1436,2019.91Z" transform="translate(-0.65 -0.54)"/><path class="cls-20" d="M1290.64,1871c-167.55-115.06-201.89-284.88-196.31-346.32,0,0,88.82-41.46,153.94-54.75,105.51-21.52,173.66-3.28,173.66-3.28s33.07,79.32,47.64,121.77c20.87,60.84,34.73,164.12,34.73,164.12.47.34,7.61,5.17,7.61,5.17C1637,1848.19,1719.76,2060,1743,2148.86c6.69,27.92,21.38,75.21,52.09,117.28l-279.86,98.64C1501.4,2201.76,1454.73,1983.67,1290.64,1871Z" transform="translate(-0.65 -0.54)"/><path class="cls-22" d="M1490.33,2334.25l215.83-80.48" transform="translate(-0.65 -0.54)"/><path class="cls-22" d="M1027.39,1866.86,1076.11,2092" transform="translate(-0.65 -0.54)"/><path class="cls-21" d="M1504.29,1752.49c-115.79-94.79-147.38-177.17-169.67-210.59,16.6,13.75,40.28,55.38,88.11,75s67.28,55.17,69.68,63.75S1504.29,1752.49,1504.29,1752.49Z" transform="translate(-0.65 -0.54)"/><path class="cls-23" d="M1515.84,2540.73c-12-53.35-6.85-146.23-.49-175.87l253.77-90a68.91,68.91,0,0,0,10.43,17.68c9.78,12.39,42.36,49.82,129.17,82.9,69.45,26.46,117,90.4,132.24,117.68-105,8.54-208.69,20.09-321.81,31.12,0,0-6.21.47-26.55-8.61s-36-4.94-51-3.54l-12,20.65C1588.71,2536.47,1516,2542.05,1515.84,2540.73Z" transform="translate(-0.65 -0.54)"/><path class="cls-23" d="M885.63,1896.37c39-3.73,104.51,8.31,125,15.5l41.05,188.41a49.11,49.11,0,0,0-13.51,5.82c-9.68,5.83-39.22,25.6-70.54,84.3-25.06,47-74.77,75-95.53,83.35,3.39-75.38,4.54-150.09,6.89-231.45,0,0,.23-4.45,8.52-18.09s6.74-25.12,7.1-35.91L881,1977.9C882.09,1948.53,884.68,1896.34,885.63,1896.37Z" transform="translate(-0.65 -0.54)"/><path class="cls-23" d="M1233.22,1524.34c3,33.86-6.3,112.88-68,158.11Z" transform="translate(-0.65 -0.54)"/><path class="cls-22" d="M1160.1,1916.39c19.8,5.64,58.37,14.6,104,5" transform="translate(-0.65 -0.54)"/><path class="cls-22" d="M1394.6,1537.16l-56.1-9.34" transform="translate(-0.65 -0.54)"/><path class="cls-22" d="M1232.54,1527.25s5.61,86.64-56.09,144" transform="translate(-0.65 -0.54)"/><path class="cls-24" d="M1335.22,1544.82c18.65,40.53,110.83,148,204,226.92,148.39,125.71,195,337.68,221.81,398.08" transform="translate(-0.65 -0.54)"/><path class="cls-22" d="M1294.67,1504.05l.95,56.87" transform="translate(-0.65 -0.54)"/><path class="cls-22" d="M1247.34,1744.75l39,41.36" transform="translate(-0.65 -0.54)"/><path class="cls-22" d="M1329.87,1643.42l-51.89,23.3" transform="translate(-0.65 -0.54)"/><path class="cls-22" d="M1436.52,1758.18l-10.64,55.87" transform="translate(-0.65 -0.54)"/><path class="cls-22" d="M1462.44,1946.13l25.43,50.87" transform="translate(-0.65 -0.54)"/><path class="cls-22" d="M1659,2016.79l-10.9,55.83" transform="translate(-0.65 -0.54)"/><path class="cls-22" d="M1565.91,2204.24l28,49.5" transform="translate(-0.65 -0.54)"/><path class="cls-22" d="M1289.49,1991.61l56.87.87" transform="translate(-0.65 -0.54)"/><path class="cls-22" d="M1134.86,2031l28,49.5" transform="translate(-0.65 -0.54)"/><path class="cls-25" d="M1785.34,2332.29c40.84-9.66,118.48-35,102.34-59.24S1812.72,2302.46,1785.34,2332.29Z" transform="translate(-0.65 -0.54)"/><path class="cls-25" d="M1784.35,2337c33.09-25.82,93.07-81.27,68.3-96.53S1796.8,2298.45,1784.35,2337Z" transform="translate(-0.65 -0.54)"/><path class="cls-25" d="M1001.6,2097.08c4.7,41.7,20.6,121.83,46.56,108.69S1027.93,2127.84,1001.6,2097.08Z" transform="translate(-0.65 -0.54)"/><path class="cls-25" d="M997.05,2095.53c21.67,35.94,69.54,102.14,87.66,79.37S1033.82,2112.5,997.05,2095.53Z" transform="translate(-0.65 -0.54)"/></g><g id="Hands"><path class="cls-26" d="M1460,1241.34c13.08,21.51,18.71,59.89,93.55,58.35s102.22-16.08,106.56-23.15c11.89-31.82,38.58-95,50.15-93.06,14.46,2.41,7.71,28.45,0,72.33-4.82,33.75,80.51-10.48,87.28-14.47,6.93-4.08,21.85-10.63,26.52,0,2.87,6.56-27.06,29.32-55.66,45.23,16.45-7.75,71-30.76,79.77-30.76,9.06,0,18.26,16.45-62.15,53.55,22.73-9.5,54.11-19.32,57.32-12.57,4.51,9.47-31,28.61-60,40.13,11.34-3.61,34.86-10.08,40.76-9.27,7.46,1,8.68,7.16,3.37,11.58-4.83,4-195.77,81-252.19,88.24s-91.61,14.46-131.63,0c-23.9-8.64-37.5-21.5-41-25.68l-21.77-74.37Z" transform="translate(-0.65 -0.54)"/><path class="cls-26" d="M1012.88,1295.85c-16.41,11.59-183.76,85.37-40.38,211,44.42,38.92,86.13,66.85,94.41,66.31,32.86-8.64,79.67-7.75,84.77,2.82,6.37,13.21-16,14.31-36,24.54-30.35,15.53,43.9,64.19,51.06,67.42,7.34,3.31,21.29,11.72,15.3,21.66-3.7,6.14-39.56-5.18-69-19.38,15.82,9,66.09,40.27,71.13,47.42,5.23,7.41-2.89,24.41-79.59-19.88,20.88,13.09,47,33.06,43.33,39.58-5.13,9.14-41.23-8.8-67.4-25.9,9.48,7.18,28.33,22.66,31.07,27.95,3.46,6.69-.84,11.22-7.51,9.43-6.07-1.63-170.4-120.87-212.59-159-45.56-41.19-111.89-113.07-128.73-153-29.14-69.12,15.46-116.18,16.84-121.48l131.92-122.66Z" transform="translate(-0.65 -0.54)"/><path class="cls-27" d="M1360.29,1354.73,1463,1254.12c-51.11,66.74-65.82,124.29-67.19,123C1393.94,1375.33,1375.67,1363,1360.29,1354.73Z" transform="translate(-0.65 -0.54)"/><path class="cls-27" d="M1008.35,1298.5,906.9,1196.44c50.74,67,64.44,125.53,65.81,124.24C974.59,1318.91,992.93,1306.7,1008.35,1298.5Z" transform="translate(-0.65 -0.54)"/><path class="cls-28" d="M1721,1281c0,16.31-17.22,45.29-40.76,57.11" transform="translate(-0.65 -0.54)"/><path class="cls-28" d="M1762.48,1336.25c-11.15-3.25-34.8-4.33-48.14-.25" transform="translate(-0.65 -0.54)"/><path class="cls-28" d="M949.77,1349.37c-26.44,18.42-44.83,56.7-46.86,76" transform="translate(-0.65 -0.54)"/><path class="cls-28" d="M1471.2,1244.35c7.53,31.33,36.47,62.4,53.68,71.31" transform="translate(-0.65 -0.54)"/><path class="cls-28" d="M1089.49,1654.47l10.77,6.21" transform="translate(-0.65 -0.54)"/><path class="cls-28" d="M1074.14,1673.41l10.78,6.2" transform="translate(-0.65 -0.54)"/><path class="cls-28" d="M1059,1689.84l10.77,6.2" transform="translate(-0.65 -0.54)"/></g><g id="Body"><path class="cls-29" d="M1249.45,1052.47c-62.93,44.83-110.74,15.32-125.47-5.51,0,0-61.33,1.69-102,22.11-63.87,32.09-124.43,89.74-139,105.71l139,141.51,47.41-33.4c7.9,82.24,24.57,248.69,24.57,244.38,127.2-66.52,283.59-71.58,327.76-60.14L1383,1333.53l101.84-102.85c-20.84-44.89-77.14-106.51-114.79-133.57C1342.45,1077.28,1278.9,1057.14,1249.45,1052.47Z" transform="translate(-0.65 -0.54)"/><path class="cls-30" d="M1366.77,1094.89c-33.82-21.56-91.73-38.55-117.67-42.09l-15,9.36c2.37,2.74,16.74,10.84,55.33,21.28C1339.77,1098,1362,1097.25,1366.77,1094.89Z" transform="translate(-0.65 -0.54)"/><path class="cls-30" d="M1264,1471.36c-83.59,15.59-148.55,43.55-170.12,56.28l-24.46-238.86s59.56-148.16,41.31-59.93,41.79,209.12,92.32,221.59S1260.21,1467.22,1264,1471.36Z" transform="translate(-0.65 -0.54)"/><path class="cls-31" d="M1145.45,1069c19.91,8.52,71.08,14.92,116.46-27.67" transform="translate(-0.65 -0.54)"/><path class="cls-31" d="M1370.13,1284.2c7.23,57.12,23.64,107,70.25,185.14" transform="translate(-0.65 -0.54)"/><path class="cls-31" d="M1346.35,1455.14c-86.32,6.75-162.21,26.57-282,86.45" transform="translate(-0.65 -0.54)"/><path class="cls-31" d="M1064.81,1228.12c4.67,38.73,4.22,73.43-5.86,129.54" transform="translate(-0.65 -0.54)"/><path class="cls-31" d="M1110.42,1203.57c-13.12,17.14-22.19,34.37-31.44,66" transform="translate(-0.65 -0.54)"/><circle class="cls-32" cx="1265.07" cy="1131.27" r="16.04"/><circle class="cls-32" cx="1196.36" cy="1292.83" r="16.04"/><circle class="cls-32" cx="1347.36" cy="1375.66" r="16.04"/><circle class="cls-32" cx="1017.46" cy="1149.82" r="16.04"/><circle class="cls-32" cx="1398.64" cy="1243.81" r="16.04"/><circle class="cls-32" cx="1161.77" cy="1435.28" r="16.04"/></g></g></svg>