<svg id="Layer_1" data-name="Layer 1" xmlns="http://www.w3.org/2000/svg" viewBox="0 0 634.8 544.81"><defs><style>.cls-1{fill:#6c297b;}.cls-1,.cls-10,.cls-11,.cls-12,.cls-13,.cls-14,.cls-15,.cls-16,.cls-17,.cls-18,.cls-19,.cls-20,.cls-21,.cls-22,.cls-23,.cls-24,.cls-25,.cls-26,.cls-27,.cls-28,.cls-29,.cls-3,.cls-4,.cls-5,.cls-6,.cls-7,.cls-8,.cls-9{fill-rule:evenodd;}.cls-2,.cls-4{fill:#301347;}.cls-3{fill:#7f458c;}.cls-5{fill:#fffefd;}.cls-6{fill:#efe7f0;}.cls-7{fill:#aa83b2;}.cls-8{fill:#fff;}.cls-9{fill:#ef8e99;}.cls-10{fill:#e64b5c;}.cls-11{fill:#e54355;}.cls-12{fill:#8e5a99;}.cls-13{fill:#e95d6d;}.cls-14{fill:#f0929c;}.cls-15{fill:#f8cacf;}.cls-16{fill:#ba9ac1;}.cls-17{fill:#773884;}.cls-18{fill:#b796be;}.cls-19{fill:#e6e7e8;}.cls-20{fill:#d9c7dd;}.cls-21{fill:#874f93;}.cls-22{fill:#b694bd;}.cls-23{fill:#eb8b23;}.cls-24{fill:#f6cc1b;}.cls-25{fill:#c4a9ca;}.cls-26{fill:#ed9435;}.cls-27{fill:#f0aa5e;}.cls-28{fill:#885294;}.cls-29{fill:#94639f;}</style></defs><path class="cls-1" d="M630.3,499c-.86,5-9.38,7.06-19,4.69s-16.75-8.33-15.89-13.3,9.39-7.06,19-4.69S631.17,494,630.3,499Z" transform="translate(-82.6 -27.59)"/><circle class="cls-2" cx="400" cy="300" r="212.66" transform="translate(-177.57 343.12) rotate(-45)"/><path class="cls-1" d="M650.72,529.85c-2.44,14-26.51,20-53.76,13.25s-47.36-23.54-44.91-37.57,26.51-20,53.76-13.25S653.17,515.81,650.72,529.85Z" transform="translate(-82.6 -27.59)"/><path class="cls-3" d="M645.55,521.82c-2.24,8.28-17,10.51-33,5s-27.1-16.74-24.86-25,17-10.51,33-5S647.8,513.54,645.55,521.82Z" transform="translate(-82.6 -27.59)"/><path class="cls-1" d="M175.74,531.35c20.22-.23,36.61,2.76,36.62,6.67s-16.36,7.25-36.58,7.47-36.6-2.76-36.61-6.67S155.53,531.57,175.74,531.35Z" transform="translate(-82.6 -27.59)"/><path class="cls-4" d="M246.12,146.57c-28.24,11.57-53.18,22.53-73.43,32.27L516.78,55c-21.56,5.34-47.41,12.66-76.13,21.6A40.34,40.34,0,0,0,416.85,78,41.13,41.13,0,0,0,399.25,90q-7.71,2.57-15.61,5.26c-10.13-2.87-22.36-2.47-34.45,1.88a63.71,63.71,0,0,0-9.61,4.38,81.48,81.48,0,0,0-27.56,5,80.16,80.16,0,0,0-29.21,18.09,69,69,0,0,0-8.75,2.51C262.26,131.29,252.59,138.33,246.12,146.57Z" transform="translate(-82.6 -27.59)"/><path class="cls-5" d="M378.86,435.8c-27.52,11.27-51.81,21.95-71.54,31.44L642.58,346.57c-21,5.2-46.19,12.34-74.17,21.05A39.27,39.27,0,0,0,545.22,369a40.08,40.08,0,0,0-17.15,11.61q-7.53,2.52-15.21,5.13c-9.87-2.79-21.79-2.41-33.57,1.83a62.85,62.85,0,0,0-9.36,4.27,79.56,79.56,0,0,0-26.86,4.82,78.14,78.14,0,0,0-28.46,17.63,67.64,67.64,0,0,0-8.53,2.45C394.59,420.91,385.17,427.77,378.86,435.8Z" transform="translate(-82.6 -27.59)"/><path class="cls-6" d="M519.94,100c25.53-12.25,21-45.7,14.32-65.17a1.94,1.94,0,0,1,.14-1.59,2.16,2.16,0,0,1,1.25-1.09l5.07-1.77a1.86,1.86,0,0,1,2.45,1.13c3.77,11.62,13.7,41.69,20.92,50.08,2.85,3.31,7.62,4.66,12.62,5l-58,15.1A2.2,2.2,0,0,1,519.94,100Z" transform="translate(-82.6 -27.59)"/><path class="cls-4" d="M231.28,366.35c-50.72,20.76-95.5,40.46-131.87,57.95l618-222.43c-38.72,9.59-85.14,22.74-136.73,38.81-12.63-3.39-27.78-2.8-42.74,2.58-13.13,4.73-24,12.4-31.61,21.42q-13.86,4.62-28,9.45c-18.19-5.15-40.17-4.44-61.87,3.37a114.53,114.53,0,0,0-17.26,7.87,147,147,0,0,0-49.51,8.89c-20.86,7.51-38.74,18.93-52.45,32.49a123.76,123.76,0,0,0-15.73,4.52C260.27,338.9,242.91,351.55,231.28,366.35Z" transform="translate(-82.6 -27.59)"/><path class="cls-4" d="M160.47,310.34c-29.95,12.26-56.39,23.9-77.87,34.22L447.53,213.21c-22.86,5.67-50.28,13.43-80.74,22.92a42.82,42.82,0,0,0-25.24,1.52,43.9,43.9,0,0,0-18.67,12.65q-8.17,2.73-16.55,5.58c-10.74-3-23.72-2.62-36.54,2a67.06,67.06,0,0,0-10.19,4.64,86.61,86.61,0,0,0-29.24,5.25,85,85,0,0,0-31,19.19,73,73,0,0,0-9.29,2.66C177.59,294.13,167.34,301.6,160.47,310.34Z" transform="translate(-82.6 -27.59)"/><path class="cls-4" d="M221.37,262.05c-44.85,18.36-84.45,35.79-116.61,51.25L651.2,116.62c-34.24,8.48-75.29,20.11-120.9,34.32-11.17-3-24.57-2.48-37.79,2.28a65.4,65.4,0,0,0-27.95,18.93q-12.27,4.09-24.8,8.37c-16.08-4.56-35.51-3.93-54.7,3a100.53,100.53,0,0,0-15.26,6.95A130.15,130.15,0,0,0,326,198.31,127.38,127.38,0,0,0,279.64,227a108.88,108.88,0,0,0-13.9,4C247,237.78,231.65,249,221.37,262.05Z" transform="translate(-82.6 -27.59)"/><path class="cls-1" d="M401.06,508.64c126.12,4.78,228.42,20.48,228.49,35.06s-102.11,22.52-228.24,17.74S172.89,541,172.82,526.38,274.94,503.86,401.06,508.64Z" transform="translate(-82.6 -27.59)"/><path class="cls-7" d="M585.87,94l3.53,7a1.81,1.81,0,0,1-.56,2.44c-6.22,3.75-14.86,10.89-14.19,19.38.91,11.52,15,42.62,20.47,54.6a1.77,1.77,0,0,1-.88,2.49l-4.66,1.77a2,2,0,0,1-1.61-.1,2.4,2.4,0,0,1-1.2-1.23c-8.92-20.3-29.45-54.09-55.25-47.92a2.28,2.28,0,0,1-2.26-.85c-4.59-5.7-14.75-6.73-20.69-6a2.38,2.38,0,0,1-2.32-1.32Z" transform="translate(-82.6 -27.59)"/><path class="cls-5" d="M512.08,469.1a28.9,28.9,0,0,1,12.48,2.06c10.05,4.34,11.67,14,3.88,22l-9.09.71-11.05.87-17.76,1.4-3.25.25-23.62,1.85L455,499l-12.93,1-8.31.65a10.4,10.4,0,0,1,3.38-5.69,19.88,19.88,0,0,1,8.23-4.45,22.35,22.35,0,0,1,2.36-2.57,31.27,31.27,0,0,1,10.08-6.15,30.91,30.91,0,0,1,4-4.46c12.12-11.34,33.7-15.45,48.21-9.2C510.72,468.42,511.42,468.75,512.08,469.1Z" transform="translate(-82.6 -27.59)"/><path class="cls-5" d="M349.27,262c-52-12-120,25.59-151.83,84-9.72,17.85-14.94,35.57-16,51.92,34.07-29.88,77.9-45.49,114-37.13,52,12,120-25.59,151.84-84,9.72-17.85,14.93-35.57,16-51.93C429.23,254.79,385.41,270.4,349.27,262Z" transform="translate(-82.6 -27.59)"/><path class="cls-8" d="M339.59,150.4c-17.25,8.43-29.36,14.15-32.38,15.11a280.07,280.07,0,0,1-28.13,7.24s-42.95,17.44-95.27,70.45l121.78-58.27L183.81,243.2c70.14-5.59,111.11-28.3,111.11-28.3s11.15-9.22,24.17-17.78c2.05-1.35,9.47-5,20.5-10.28Z" transform="translate(-82.6 -27.59)"/><path class="cls-5" d="M456.11,93.65c-13.77,2.41-26.91,13.88-30.78,27.67s2.84,25.26,15.26,27.67c13.77-2.41,26.91-13.88,30.78-27.67S468.53,96.06,456.11,93.65Z" transform="translate(-82.6 -27.59)"/><path class="cls-9" d="M345.62,269.89c-52-12-120,25.59-151.83,84-9.72,17.84-14.94,35.56-16,51.92,34.07-29.89,77.9-45.49,114-37.14,52,12,120-25.59,151.83-84,9.72-17.84,14.94-35.57,16-51.92C425.58,262.64,381.76,278.24,345.62,269.89Z" transform="translate(-82.6 -27.59)"/><path class="cls-8" d="M345.34,204.81a55.18,55.18,0,1,0-55.17-55.18A55.29,55.29,0,0,0,345.34,204.81Z" transform="translate(-82.6 -27.59)"/><path class="cls-9" d="M426.57,187.9C380.18,174,306,211.71,261,272c-13.76,18.42-23.22,36.82-28.4,53.9,40-30.42,85.57-45.65,117.79-36,46.39,13.86,120.54-23.8,165.62-84.12,13.76-18.42,23.22-36.83,28.4-53.9C504.4,182.29,458.79,197.53,426.57,187.9Z" transform="translate(-82.6 -27.59)"/><path class="cls-10" d="M361.48,303.43c-43-25.51-112.94-2.46-156.17,51.47-13.2,16.47-22.38,33.92-27.55,50.94,34.17-20.94,72.4-27.64,101.49-15.74a23.4,23.4,0,0,0,6.42-5.42,12.92,12.92,0,0,1-.3,5.74,13.33,13.33,0,0,1,4.72-1.06c4.2-.1,8.63-2.62,11.62-6.24a10.62,10.62,0,0,1-.44,5.24,17.78,17.78,0,0,1-7.4,9.19c11.21,5.33,23.95,7.72,37.39,7.44,3.55-3.19,8-5.28,12.28-5.38,5.3-.13,10.91-3.32,14.69-7.89a13.32,13.32,0,0,1-.56,6.62,19.36,19.36,0,0,1-1.41,3.25c31.53-7.73,64.09-28.24,88.29-58.43,13.21-16.48,22.38-33.92,27.55-50.94C434.22,315.43,391.37,321.15,361.48,303.43Z" transform="translate(-82.6 -27.59)"/><path class="cls-10" d="M419,223.16c-43-25.51-112.94-2.47-156.17,51.47-13.2,16.47-22.38,33.92-27.55,50.94,37.88-23.21,80.74-28.93,110.62-11.21,43,25.51,112.94,2.46,156.17-51.47C515.22,246.41,524.4,229,529.57,212,491.69,235.16,448.83,240.87,419,223.16Z" transform="translate(-82.6 -27.59)"/><path class="cls-10" d="M409.46,322.29c21.94-4.59,44.58-15.48,64.74-31.61a53.07,53.07,0,0,0-3.12-4.5c-14.73-18.86-38.07-20.5-52.15-3.67C410.24,292.9,407.12,307.9,409.46,322.29Z" transform="translate(-82.6 -27.59)"/><path class="cls-11" d="M419,223.16c-39.54-23.45-101.8-5.87-145.18,39,33.55-15.76,69-17.91,94.74-2.63,39.54,23.44,101.8,5.87,145.18-39C480.13,236.29,444.72,238.44,419,223.16Z" transform="translate(-82.6 -27.59)"/><path class="cls-8" d="M448.25,129.75c-16.55-8.45-43.13-3.71-59.37,10.59s-16,32.73.57,41.17,43.13,3.71,59.37-10.59S464.8,138.19,448.25,129.75Z" transform="translate(-82.6 -27.59)"/><path class="cls-12" d="M452,137.93c-16.56-10-43.14-7.73-59.37,5s-16,31.23.56,41.22,43.13,7.73,59.37-5S468.59,147.92,452,137.93Z" transform="translate(-82.6 -27.59)"/><path class="cls-1" d="M368.69,189.11A10.64,10.64,0,0,1,360.36,178a10.25,10.25,0,0,1,9.76-9.15l60.58-8.6a28.8,28.8,0,0,1,9.17-.5c15.23,1.57,26.53,14.6,25.23,29.09s-14.7,25-29.94,23.39a30.16,30.16,0,0,1-5.35-1.06h0a29.09,29.09,0,0,1-3.09-1.12l-58-20.95Z" transform="translate(-82.6 -27.59)"/><path class="cls-1" d="M294,177.18a10.35,10.35,0,0,1-7.85-11.56,11.3,11.3,0,0,1,10.68-9.29l63-8a30.27,30.27,0,0,1,9.48-.38c15.6,1.86,26.37,15.45,24.05,30.38S376.54,203.89,360.94,202a29,29,0,0,1-5.44-1.17h0a29.17,29.17,0,0,1-3.12-1.2L294,177.18Z" transform="translate(-82.6 -27.59)"/><path class="cls-7" d="M288.23,161.41a11.52,11.52,0,0,1,10.1-7l63.53-8a30.13,30.13,0,0,1,9.55-.39,28,28,0,0,1,20.71,13A29.61,29.61,0,0,1,369,174.63a30.57,30.57,0,0,1-5.65.1h0a31,31,0,0,1-3.37-.46l-63.11-8.58h0A11.09,11.09,0,0,1,288.23,161.41Z" transform="translate(-82.6 -27.59)"/><path class="cls-1" d="M413.3,185.63c-11.43,6.5-32.74,7.7-47.58,2.66s-17.62-14.41-6.18-20.92,32.74-7.7,47.58-2.66S424.74,179.12,413.3,185.63Z" transform="translate(-82.6 -27.59)"/><path class="cls-1" d="M486.51,229h0a16.68,16.68,0,0,1,7,22.93L478.8,278.81a17.87,17.87,0,0,1-23.6,7.24h0a16.66,16.66,0,0,1-7-22.93l14.73-26.83A17.88,17.88,0,0,1,486.51,229Z" transform="translate(-82.6 -27.59)"/><path class="cls-7" d="M288.09,152.2c5.25-2.46,12.31,1.54,15.76,8.92s2,15.37-3.26,17.82-12.31-1.54-15.76-8.93S282.84,154.65,288.09,152.2Z" transform="translate(-82.6 -27.59)"/><path class="cls-1" d="M287.21,156.92c4.35-2,10.19,1.28,13.05,7.39s1.65,12.72-2.7,14.76-10.2-1.28-13.05-7.4S282.86,159,287.21,156.92Z" transform="translate(-82.6 -27.59)"/><path class="cls-1" d="M460.93,152.22c-16.55-10-43.13-7.73-59.37,5.05s-16,31.24.57,41.23,43.13,7.73,59.37-5.05S477.48,162.21,460.93,152.22Z" transform="translate(-82.6 -27.59)"/><path class="cls-6" d="M544.79,90s-71.64,28-136.36,52.82l-2.19,6.61-2.56-4.79c-20.18,7.73-39.49,15.06-55.51,21l-1.39,4.19-1.64-3.06c-20.18,7.51-34.59,12.66-37.93,13.32a261.87,261.87,0,0,1-28.13,3.9s-42.95,12.35-95.27,59.14l121.78-43.81L183.81,243.2c70.14,2.74,111.11-15.11,111.11-15.11s4.77-3.38,11.71-7.68l2.25-4.19,2.53,1.3c2.43-1.43,5-2.9,7.68-4.34,4.08-2.2,29.84-14.13,62.48-25.27,71.45-24.39,178.07-56.6,178.07-56.6l4.57-25h0Z" transform="translate(-82.6 -27.59)"/><path class="cls-7" d="M432.79,133.49l-4.07,1.57c-3.16,15.49,2.51,28.22,15.41,33.06l-.34-.13c-1.67-7.09-1.3-15.32,1.26-24.12A24,24,0,0,1,432.79,133.49Z" transform="translate(-82.6 -27.59)"/><path class="cls-7" d="M559.64,131.31S332.1,206.17,319.09,213.18c-2.67,1.44-5.25,2.91-7.68,4.34l-2.53-1.3-2.25,4.2c-6.94,4.29-11.71,7.67-11.71,7.67s-41,17.85-111.11,15.11l380.4-136.85Z" transform="translate(-82.6 -27.59)"/><path class="cls-12" d="M320.08,212.7c-.4.18-.75.35-1,.48-2.67,1.44-5.25,2.91-7.68,4.34l-2.53-1.3-2.25,4.2c-6.94,4.29-11.71,7.67-11.71,7.67s-3.45,1.5-10.05,3.57l-.54-22.35,5.19-4.14,23.06-8.3h0Z" transform="translate(-82.6 -27.59)"/><path class="cls-12" d="M527.94,102.54c24.51-12.25,15-48.25,6.7-67.72a2,2,0,0,1,0-1.59,1.92,1.92,0,0,1,1.16-1.09l4.92-1.77a2,2,0,0,1,2.55,1.13c4.74,11.62,17.18,41.69,25.1,50.08,5.84,6.19,17.84,5.53,25.45,4.11a2,2,0,0,1,2.26,1.3l5,14a2,2,0,0,1-.92,2.44c-6.76,3.75-16.44,10.89-17,19.38-.76,11.52,8.8,42.62,12.55,54.6a2,2,0,0,1-1.24,2.49l-4.92,1.77a2,2,0,0,1-2.62-1.33c-6-20.3-21.61-54.09-48.3-47.92a2,2,0,0,1-2.13-.86c-3.77-5.69-13.78-6.72-19.82-6a2,2,0,0,1-1.33-3.69c5.1-3.31,12.16-10.48,11.44-17.27A2,2,0,0,1,527.94,102.54Z" transform="translate(-82.6 -27.59)"/><path class="cls-1" d="M598.61,94l2.51,7a2,2,0,0,1-.92,2.44c-6.76,3.75-16.43,10.89-17,19.38-.76,11.52,8.8,42.62,12.55,54.6a2,2,0,0,1-1.24,2.49l-4.92,1.77a2,2,0,0,1-2.61-1.33c-6-20.3-21.61-54.09-48.31-47.92a2,2,0,0,1-2.13-.85c-3.77-5.7-13.78-6.73-19.82-6a2,2,0,0,1-2.12-1.32Z" transform="translate(-82.6 -27.59)"/><path class="cls-1" d="M692.53,60.19c1.46,4-29,18.7-68,32.73S552.7,115.06,551.25,111s29-18.7,68-32.74S691.08,56.15,692.53,60.19Z" transform="translate(-82.6 -27.59)"/><path class="cls-12" d="M545.53,32.28A7.08,7.08,0,1,1,536.47,28,7.09,7.09,0,0,1,545.53,32.28Z" transform="translate(-82.6 -27.59)"/><path class="cls-1" d="M597,175.35a7.08,7.08,0,1,1-9.06-4.26A7.08,7.08,0,0,1,597,175.35Z" transform="translate(-82.6 -27.59)"/><path class="cls-1" d="M574.7,102.32c2.33,6.46-4.41,14.8-15,18.62s-21.14,1.69-23.46-4.77,4.41-14.8,15-18.63S572.38,95.85,574.7,102.32Z" transform="translate(-82.6 -27.59)"/><path class="cls-12" d="M566.11,105.41c1.29,3.57-2.44,8.19-8.33,10.31s-11.7.94-13-2.64,2.44-8.2,8.33-10.32S564.83,101.83,566.11,105.41Z" transform="translate(-82.6 -27.59)"/><path class="cls-1" d="M700.28,57.14c1.86,5.16-3.52,11.83-12,14.89s-16.9,1.35-18.75-3.82,3.52-11.83,12-14.89S698.43,52,700.28,57.14Z" transform="translate(-82.6 -27.59)"/><path class="cls-1" d="M287.26,232.84a5.14,5.14,0,0,1-5.32,3.69,4.51,4.51,0,0,1-4.18-4.33l-3.22-26.86a12.22,12.22,0,0,1-.12-4.06,13.17,13.17,0,0,1,14-11.16A11.57,11.57,0,0,1,299,203.4a12.42,12.42,0,0,1-.57,2.37h0v0c-.17.47-.36.93-.57,1.37l-10.63,25.68Z" transform="translate(-82.6 -27.59)"/><path class="cls-1" d="M285.85,221.5a3.9,3.9,0,0,1-2.14,4.43,3.42,3.42,0,0,1-4.38-1.29l-12.2-16.54a9.12,9.12,0,0,1-1.59-2.65,10,10,0,0,1,5.08-12.62,8.78,8.78,0,0,1,12,4.81,9.48,9.48,0,0,1,.51,1.78h0a10.38,10.38,0,0,1,.14,1.12l2.6,20.95Z" transform="translate(-82.6 -27.59)"/><path class="cls-12" d="M301.08,168.75c3.61,10.72-2.37,26.53-13.36,35.31s-22.83,7.22-26.44-3.49,2.38-26.52,13.37-35.31S297.47,158,301.08,168.75Z" transform="translate(-82.6 -27.59)"/><path class="cls-7" d="M288.61,170.29c2.47,7.33-1.63,18.14-9.14,24.15s-15.62,4.94-18.09-2.39,1.63-18.15,9.14-24.16S286.14,163,288.61,170.29Z" transform="translate(-82.6 -27.59)"/><path class="cls-1" d="M306.07,212.6a4.09,4.09,0,0,1-4.23,2.93,3.59,3.59,0,0,1-3.32-3.45L296,190.72a9.41,9.41,0,0,1-.09-3.23A10.47,10.47,0,0,1,307,178.61a9.22,9.22,0,0,1,8.43,10.57,10,10,0,0,1-.46,1.89h0a10.57,10.57,0,0,1-.45,1.1l-8.46,20.43Z" transform="translate(-82.6 -27.59)"/><path class="cls-7" d="M316.11,176.15c-1.16,6.24-7.65,12.2-14.51,13.31s-11.48-3.05-10.32-9.29,7.65-12.19,14.51-13.3S317.26,169.92,316.11,176.15Z" transform="translate(-82.6 -27.59)"/><path class="cls-5" d="M358,489.72c143,5.6,259,21.6,259.06,35.73s-115.78,21-258.77,15.45-259-21.6-259-35.73S215,484.12,358,489.72Z" transform="translate(-82.6 -27.59)"/><path class="cls-10" d="M516.35,206.34c7.74,11.85,8.41,9.87,13.83,12.87a39.26,39.26,0,0,1,17.64-36.51,39.28,39.28,0,0,0-2.39-67.23C500.89,121.84,495.57,174.48,516.35,206.34Z" transform="translate(-82.6 -27.59)"/><path class="cls-11" d="M532.06,203.09a39.12,39.12,0,0,1,15.76-20.39,39.23,39.23,0,0,0,11.08-10.88,41.65,41.65,0,0,0-1.47-9.46c-4.55-16.8-18.57-31.23-34.75-37.56C501.37,141.54,500,176,513.22,201a46.66,46.66,0,0,0,14.34,2.35A38.88,38.88,0,0,0,532.06,203.09Z" transform="translate(-82.6 -27.59)"/><path class="cls-13" d="M441.64,84.63a21.31,21.31,0,0,1-28.35-6.38,19.69,19.69,0,0,1-3.35-9A21.11,21.11,0,0,0,431,69a21.32,21.32,0,0,1,28.36,6.38,19.79,19.79,0,0,1,3.34,9A21.11,21.11,0,0,0,441.64,84.63Z" transform="translate(-82.6 -27.59)"/><path class="cls-14" d="M447.61,76.52a15.18,15.18,0,0,1-17.38-11.29,13.39,13.39,0,0,1,.19-6.73,15.36,15.36,0,0,0,14.27,5.13,15.19,15.19,0,0,1,17.38,11.29,13.32,13.32,0,0,1-.19,6.74A15.39,15.39,0,0,0,447.61,76.52Z" transform="translate(-82.6 -27.59)"/><path class="cls-12" d="M457.53,95.06a1.84,1.84,0,0,1-2.29.62,1.71,1.71,0,0,1-.84-2.09l2.48-10a4.8,4.8,0,0,1,.51-1.46A4.75,4.75,0,0,1,463.61,80a4.4,4.4,0,0,1,1.82,6.11,5.14,5.14,0,0,1-.51.77h0a5,5,0,0,1-.37.42l-7,7.75Z" transform="translate(-82.6 -27.59)"/><path class="cls-12" d="M414.45,168c-14.31,10.59-21.68,33.1-16.46,50.28S419,240.8,433.35,230.21s21.68-33.1,16.46-50.28S428.76,157.4,414.45,168Z" transform="translate(-82.6 -27.59)"/><path class="cls-1" d="M477.33,285.66c14.73,18.86,15.25,47.79,1.18,64.62s-37.43,15.19-52.15-3.67-15.25-47.79-1.17-64.62S462.61,266.8,477.33,285.66Z" transform="translate(-82.6 -27.59)"/><path class="cls-1" d="M541.34,501.64a11.08,11.08,0,0,1-11.24,11.81c-6.6.12-13-4.57-15.2-10.85l-32.59-73.89a38.54,38.54,0,0,1-3.91-11.28c-3.41-19.08,9.25-34.83,28.28-35.17s37.22,14.86,40.63,33.95a35,35,0,0,1,.54,6.76h0v0a32.53,32.53,0,0,1-.33,4l-6.18,74.64Z" transform="translate(-82.6 -27.59)"/><path class="cls-1" d="M484.8,414.9a11.07,11.07,0,0,1-11.23,11.81c-6.61.12-13-4.56-15.2-10.85L425.77,342a39,39,0,0,1-3.91-11.28c-3.41-19.08,9.26-34.83,28.29-35.16s37.21,14.85,40.62,33.94a35.06,35.06,0,0,1,.55,6.77h0v0a32.53,32.53,0,0,1-.33,4L484.8,414.9Z" transform="translate(-82.6 -27.59)"/><path class="cls-1" d="M500,321c19.32,13.24,31.55,41.39,27.34,62.86S504,412,484.7,398.75s-31.55-41.38-27.33-62.85S480.65,307.74,500,321Z" transform="translate(-82.6 -27.59)"/><path class="cls-1" d="M503.71,324.1c12.5,8.57,20.41,26.78,17.69,40.67s-15.07,18.22-27.56,9.65-20.42-26.78-17.69-40.67S491.21,315.53,503.71,324.1Z" transform="translate(-82.6 -27.59)"/><path class="cls-1" d="M442.64,394.05c-1.06,13,8.76,29.53,21.94,36.9s24.71,2.79,25.77-10.22-8.76-29.53-21.94-36.9S443.7,381,442.64,394.05Z" transform="translate(-82.6 -27.59)"/><path class="cls-1" d="M444.81,399.42c-.69,8.42,5.67,19.11,14.19,23.88s16,1.81,16.67-6.61-5.67-19.11-14.19-23.88S445.49,391,444.81,399.42Z" transform="translate(-82.6 -27.59)"/><path class="cls-1" d="M541,480.44a6.78,6.78,0,0,1-7.33,6.75,10.1,10.1,0,0,1-9-7.08l-17.45-45.74a23.17,23.17,0,0,1-2-6.94c-1.42-11.64,6.92-20.72,18.63-20.27s22.37,10.25,23.79,21.89a21.07,21.07,0,0,1,.1,4.11h0v0a18.74,18.74,0,0,1-.35,2.4L541,480.44Z" transform="translate(-82.6 -27.59)"/><path class="cls-1" d="M514.61,497.43c7.08-7.43,22.14-9.16,33.65-3.87,11.15,5.13,14.87,15,8.66,22.33H515.77C510,510.38,509.24,503.07,514.61,497.43Z" transform="translate(-82.6 -27.59)"/><path class="cls-1" d="M485.75,494.77c9.89-10.39,31-12.81,47-5.41,13.32,6.12,19.05,17.06,15,26.53H483.51C479.23,509,479.68,501.14,485.75,494.77Z" transform="translate(-82.6 -27.59)"/><path class="cls-1" d="M473.75,504.27c7.08-7.42,22.14-9.15,33.65-3.86,7.92,3.64,12.09,9.66,11.62,15.48H470.58A11.72,11.72,0,0,1,473.75,504.27Z" transform="translate(-82.6 -27.59)"/><path class="cls-1" d="M464.48,510.46c4.34-4.55,13.57-5.61,20.62-2.37,4.1,1.88,6.55,4.79,7,7.8H462.26A7.38,7.38,0,0,1,464.48,510.46Z" transform="translate(-82.6 -27.59)"/><path class="cls-1" d="M545.61,472.84c5,7.3,5,18.26-.07,24.47s-13.22,5.33-18.24-2-5-18.26.07-24.47S540.59,465.54,545.61,472.84Z" transform="translate(-82.6 -27.59)"/><path class="cls-1" d="M544.5,478.37c2.66,3.87,2.64,9.67,0,13s-7,2.83-9.67-1-2.64-9.67,0-13S541.83,474.5,544.5,478.37Z" transform="translate(-82.6 -27.59)"/><path class="cls-1" d="M433,254.26h0a22.76,22.76,0,0,1,25.74,9.18L464,284a25.37,25.37,0,0,1-17,30.19h0A22.74,22.74,0,0,1,421.24,305L416,284.46A25.37,25.37,0,0,1,433,254.26Z" transform="translate(-82.6 -27.59)"/><path class="cls-12" d="M507.46,138.12c9.9,18.87,6.25,42.54-8.14,52.87s-34.07,3.41-44-15.45-6.25-42.54,8.14-52.87S497.57,119.25,507.46,138.12Z" transform="translate(-82.6 -27.59)"/><path class="cls-1" d="M462.47,195.45c-9.18-1.56-16.18-8.58-18.1-19.91-3.21-18.87,8.82-42.54,26.87-52.87a36.91,36.91,0,0,1,10.5-4.15c9.19,1.56,16.18,8.58,18.11,19.92C503.06,157.31,491,181,473,191.31A36.81,36.81,0,0,1,462.47,195.45Z" transform="translate(-82.6 -27.59)"/><path class="cls-1" d="M529.64,199.93h0a17.83,17.83,0,0,1,.44,25.66L507,248.82a19.13,19.13,0,0,1-26.42.47h0a17.84,17.84,0,0,1-.43-25.67l23.1-23.23A19.12,19.12,0,0,1,529.64,199.93Z" transform="translate(-82.6 -27.59)"/><path class="cls-1" d="M493.82,181.74h0a30.27,30.27,0,0,1,11.74,41.95l-27.95,48.09a32.47,32.47,0,0,1-43.18,12.1h0a30.28,30.28,0,0,1-11.74-41.95l27.95-48.08A32.47,32.47,0,0,1,493.82,181.74Z" transform="translate(-82.6 -27.59)"/><path class="cls-12" d="M508.69,285.55c10.69,18.85,5,47.79-12.66,64.62s-40.67,15.19-51.36-3.67-5-47.79,12.66-64.63c14.41-13.72,32.36-15.16,44.29-5l-1.38,6.39s2.32-1.73,4.4-3.41A33,33,0,0,1,508.69,285.55Z" transform="translate(-82.6 -27.59)"/><path class="cls-1" d="M433.57,210.18a9.66,9.66,0,0,1-12.5,1.22,9.24,9.24,0,0,1-2.48-11.82l21.86-50.76a26.14,26.14,0,0,1,3.92-7.3c8.39-11,23.78-13.61,34.37-5.81s12.39,23.06,4,34.07a26.85,26.85,0,0,1-3.34,3.62h0l0,0a25.53,25.53,0,0,1-2.32,1.86l-43.49,34.9Z" transform="translate(-82.6 -27.59)"/><path class="cls-1" d="M442.56,196.94a8.19,8.19,0,0,1-10.3,2.34,7.6,7.6,0,0,1-3.33-9.46l12.83-44.12a21.47,21.47,0,0,1,2.49-6.43c5.83-10,18.4-13.73,28.07-8.43s12.79,17.66,7,27.62a23.24,23.24,0,0,1-2.4,3.34h0a19.54,19.54,0,0,1-1.74,1.78l-32.57,33.35Z" transform="translate(-82.6 -27.59)"/><path class="cls-1" d="M454.2,111.68h0a17.49,17.49,0,0,1,17.6,18.58l-.67,12.54a19.88,19.88,0,0,1-19.57,18.58h0A17.49,17.49,0,0,1,434,142.8l.67-12.54A19.88,19.88,0,0,1,454.2,111.68Z" transform="translate(-82.6 -27.59)"/><path class="cls-15" d="M457.93,103.68h0a17.48,17.48,0,0,1,17.59,18.58l-.66,12.54a19.9,19.9,0,0,1-19.58,18.58h0a17.49,17.49,0,0,1-17.6-18.58l.67-12.54A19.89,19.89,0,0,1,457.93,103.68Z" transform="translate(-82.6 -27.59)"/><path class="cls-14" d="M458.06,103.68h0a17.7,17.7,0,0,1,17.81,18.81l-.67,12.69A20.14,20.14,0,0,1,455.38,154h0a18.2,18.2,0,0,1-5.47-.83,17.82,17.82,0,0,1-4.64-13.1l1.19-22.47a19.82,19.82,0,0,1,6-13.09A19.09,19.09,0,0,1,458.06,103.68Z" transform="translate(-82.6 -27.59)"/><path class="cls-1" d="M446,169.07c13.88-2.72,28.74-15.7,34.94-31.3,3.49-8.77,3.58-16.72.9-22.48a41.24,41.24,0,0,1-2.07,6.8c-6.2,15.6-21.06,28.58-34.94,31.3l-.3-.07a31.06,31.06,0,0,0,1.24,15.7Z" transform="translate(-82.6 -27.59)"/><path class="cls-16" d="M433.9,144.57c-2.61,12.45,2.17,22.19,12.14,24.5l-.23,0a31.06,31.06,0,0,1-1.24-15.7A15.56,15.56,0,0,1,433.9,144.57Z" transform="translate(-82.6 -27.59)"/><path class="cls-17" d="M482.32,98.07c-.64,0-1.28,0-1.93,0a50.6,50.6,0,0,0-18.66,14.4l1.07-.5c.65,0,1.29,0,1.93,0,11.36,4.62,15.62,17,9.39,29.65a34.32,34.32,0,0,1-2.63,4.44c8.55-3.52,16.16-10.09,20.22-18.34C497.94,115.06,493.68,102.69,482.32,98.07Z" transform="translate(-82.6 -27.59)"/><path class="cls-1" d="M470.26,86.11c-8.49,1.49-18.92,18.46-21.14,26.38-3.19,11.37-.48,21.44,6.3,27.67,13.34-2.48,26-13.62,29.76-27S482.41,88.47,470.26,86.11Z" transform="translate(-82.6 -27.59)"/><path class="cls-7" d="M459.52,91.24c-13.77,2.41-26.91,13.88-30.78,27.67s2.83,25.27,15.26,27.67c13.77-2.4,26.91-13.88,30.78-27.67S471.94,93.65,459.52,91.24Z" transform="translate(-82.6 -27.59)"/><path class="cls-12" d="M459.52,91.24c-.66.12-1.31.25-2,.41-9.27,6.42-16.68,15.94-19.66,26.58-3.26,11.62-.49,21.92,6.43,28.29,13.65-2.53,26.61-13.93,30.45-27.61S471.94,93.65,459.52,91.24Z" transform="translate(-82.6 -27.59)"/><path class="cls-12" d="M428.07,130.18a15.15,15.15,0,0,0,12.18,11.39c9.65-1.72,18.9-9.24,22.87-18.69a38.64,38.64,0,0,1-23.52,13.21A19.42,19.42,0,0,1,428.07,130.18Z" transform="translate(-82.6 -27.59)"/><path class="cls-1" d="M460.12,128.32a30.73,30.73,0,0,0,3-5.44,38.64,38.64,0,0,1-23.52,13.21,20.87,20.87,0,0,1-8.8-3.48A15.24,15.24,0,0,0,441.39,140C448.5,138.76,455.39,134.34,460.12,128.32Z" transform="translate(-82.6 -27.59)"/><path class="cls-1" d="M461.45,101a19.58,19.58,0,0,0-7.2,10.13c-1.3,4.63-.19,8.73,2.56,11.27A16.36,16.36,0,0,0,467,115.55a15.3,15.3,0,0,1-5.84,2.5c-2.76-2.54-3.86-6.65-2.56-11.27A17.73,17.73,0,0,1,461.45,101Z" transform="translate(-82.6 -27.59)"/><path class="cls-1" d="M467.43,99.39a12.9,12.9,0,0,0-4.73,6.67c-.86,3-.13,5.74,1.68,7.41a10.79,10.79,0,0,0,6.7-4.52,10,10,0,0,1-3.84,1.64c-1.81-1.67-2.54-4.36-1.68-7.41A12.08,12.08,0,0,1,467.43,99.39Z" transform="translate(-82.6 -27.59)"/><path class="cls-12" d="M474.38,114.28c4,0,6.33,5.44,5.26,12.15s-5.14,12.15-9.11,12.15-6.32-5.44-5.26-12.15S470.41,114.28,474.38,114.28Z" transform="translate(-82.6 -27.59)"/><path class="cls-7" d="M474.38,114.28c3.07,0,5.18,3.25,5.48,7.83-.69.94-1.23.63-1.23.63l-4.24,5.61-3.53.54c.44,2.82-.54,5.52-2.18,6.05-1.39.44-2.81-.82-3.49-2.91a18.57,18.57,0,0,1,.08-5.6C466.33,119.72,470.41,114.28,474.38,114.28Z" transform="translate(-82.6 -27.59)"/><path class="cls-1" d="M475.69,119.55c2.25,0,3.59,3.08,3,6.89s-2.92,6.88-5.17,6.88-3.59-3.08-3-6.88S473.44,119.55,475.69,119.55Z" transform="translate(-82.6 -27.59)"/><path class="cls-1" d="M537.5,175.32a7.59,7.59,0,0,1,3.59,9.59,8.47,8.47,0,0,1-8.92,5.47L487,187.88a20.1,20.1,0,0,1-6.66-1c-10.56-3.45-15.86-14.95-11.84-25.69s15.84-16.65,26.39-13.2a19.46,19.46,0,0,1,3.6,1.59h0a19.17,19.17,0,0,1,2,1.3l37,24.4Z" transform="translate(-82.6 -27.59)"/><path class="cls-1" d="M514.34,162.64c18.44,4.91,33.45,25.34,33.52,45.63S533.05,241,514.62,236.12s-33.45-25.34-33.52-45.63S495.9,157.73,514.34,162.64Z" transform="translate(-82.6 -27.59)"/><path class="cls-7" d="M516.86,494.12a13.8,13.8,0,0,1-13.2,11.34,12.1,12.1,0,0,1-12.36-10.41l-3.64-16-1.59-29.76a35.52,35.52,0,0,0-.22-4v0h0a33.61,33.61,0,0,0-1.36-6.41,31.81,31.81,0,0,0-9.2-14.29l-.09-.39a32.13,32.13,0,0,1-1.44-10.82,35.39,35.39,0,0,1,34.37-33.75,31.12,31.12,0,0,1,32,32.57,33.92,33.92,0,0,1-.87,6.49h0v0a32.91,32.91,0,0,1-1.13,3.82l-21.26,71.63Z" transform="translate(-82.6 -27.59)"/><path class="cls-3" d="M514.63,379.93a31.06,31.06,0,0,1,26.49,32.21,33.92,33.92,0,0,1-.87,6.49h0l0,0a32.91,32.91,0,0,1-1.13,3.82l-18.76,63.18c-1.43-.29-2.68-.57-3.69-.79a8,8,0,0,0,1.53-4.44h0L523.65,440a17.77,17.77,0,0,0,.29-2.16v0h0a18.23,18.23,0,0,0-.07-3.54A15.26,15.26,0,0,0,514,421.44C515.78,417.17,515.38,397.38,514.63,379.93Z" transform="translate(-82.6 -27.59)"/><path class="cls-7" d="M490.64,406.91a14.39,14.39,0,0,1-13.76,11.81A12.62,12.62,0,0,1,464,407.87L447.22,334a33.76,33.76,0,0,1-1.49-11.28,36.86,36.86,0,0,1,35.81-35.16,32.43,32.43,0,0,1,33.36,33.94,35.16,35.16,0,0,1-.91,6.76h0v0a36,36,0,0,1-1.19,4l-22.15,74.64Z" transform="translate(-82.6 -27.59)"/><path class="cls-18" d="M490.64,406.91a14.39,14.39,0,0,1-13.76,11.81A12.62,12.62,0,0,1,464,407.87L447.22,334a33.51,33.51,0,0,1-1.49-11.28l0-.84v-.15l.05-.75,0-.27.05-.59,0-.27.07-.57.05-.38.07-.46.06-.34.09-.54,0-.28.12-.56.06-.27.12-.56.07-.27.15-.6.06-.22.15-.54.09-.31.14-.47.11-.36.14-.43.12-.35.24-.65,0-.1.27-.71,0-.09c.21-.52.43-1,.66-1.54v0l.06-.12c.21-.47.43-.93.67-1.38l.15-.28L450,307l.19-.35.23-.41.13-.23.31-.52.12-.21.29-.46.2-.31.23-.35.23-.34.27-.4.2-.28.25-.35.23-.31.35-.47.12-.16.35-.44.2-.25.33-.39.19-.24.36-.4.16-.19.07-.08.5-.55,0,0,.55-.58h0l.57-.57,0,0,.23-.22.36-.34.18-.17.43-.4.19-.17.45-.39.14-.12.52-.44.12-.09.49-.4.25-.19.38-.29.3-.22.4-.29.24-.17.44-.31.27-.18.43-.28.25-.17.5-.31.19-.12.53-.31.21-.13.43-.24L465,292l.57-.31.14-.07.52-.27.23-.11h0l.72-.35h0l.71-.32.07,0,.67-.28h0l.48-.19.36-.14.28-.1.5-.19.4-.14.34-.11.53-.17.24-.07.52-.16.33-.09.46-.13.33-.08.47-.12.38-.09.44-.1.4-.08.4-.08.48-.09.35-.06.49-.07.37-.06.38-.05.49-.06h0a36.14,36.14,0,0,0-11.24,20.32,33.75,33.75,0,0,0-.09,11.38l6.35,75.5a12.62,12.62,0,0,0,11.25,12.54,13.9,13.9,0,0,0,6.3-.69l0,.1Z" transform="translate(-82.6 -27.59)"/><path class="cls-3" d="M526.34,464.85c3.46,7.3,1.08,18.25-5.3,24.47s-14.36,5.33-17.82-2-1.08-18.26,5.3-24.47S522.88,457.55,526.34,464.85Z" transform="translate(-82.6 -27.59)"/><path class="cls-7" d="M524.05,470.38c1.83,3.86.57,9.67-2.81,13s-7.61,2.83-9.45-1-.57-9.68,2.81-13S522.22,466.5,524.05,470.38Z" transform="translate(-82.6 -27.59)"/><path class="cls-1" d="M450.11,101.57a2.26,2.26,0,0,1-2.94.26,2.18,2.18,0,0,1-.56-2.79l5.26-11.9a6,6,0,0,1,.94-1.71,5.87,5.87,0,0,1,8.1-1.29,5.66,5.66,0,0,1,.86,8A7.1,7.1,0,0,1,461,93h0a4.53,4.53,0,0,1-.55.43l-10.3,8.12Z" transform="translate(-82.6 -27.59)"/><path class="cls-1" d="M534.46,312.92a11.62,11.62,0,0,1-13.9,5.17,10.52,10.52,0,0,1-6.46-12.36l9.45-63a29.38,29.38,0,0,1,2.24-9.3c6.21-14.78,23-22.36,37.49-16.94s21.2,21.81,15,36.59a30.47,30.47,0,0,1-2.7,5.05h0l0,0a31.92,31.92,0,0,1-2.08,2.78l-39,52Z" transform="translate(-82.6 -27.59)"/><path class="cls-12" d="M517.16,317a11,11,0,0,1-4.42-11.62l9.76-65.15a30.52,30.52,0,0,1,2.32-9.62,31.75,31.75,0,0,1,19.4-17.84,28,28,0,0,1,9.71,26.53,30.44,30.44,0,0,1-1.52,5.66h0v0a31.78,31.78,0,0,1-1.44,3.27l-26.91,61.11h0A12.36,12.36,0,0,1,517.16,317Z" transform="translate(-82.6 -27.59)"/><path class="cls-18" d="M515.15,318a10.76,10.76,0,0,1-3.9-6.76l.06-.25,6.32-42.18a19.76,19.76,0,0,1,1.5-6.22A20.5,20.5,0,0,1,531.69,251,18.14,18.14,0,0,1,538,268.16a19.64,19.64,0,0,1-1,3.67h0v0a20.79,20.79,0,0,1-.93,2.11l-17.42,39.56h0A8,8,0,0,1,515.15,318Z" transform="translate(-82.6 -27.59)"/><path class="cls-12" d="M464.2,166.36c-15.94,11.8-24.15,36.88-18.33,56s23.45,25.09,39.39,13.29,24.15-36.88,18.34-56S480.14,154.56,464.2,166.36Z" transform="translate(-82.6 -27.59)"/><path class="cls-1" d="M451.22,180.52c-7.72,13.28-10.55,30.26-6.3,44.24,2.07,6.82,5.56,12.05,9.92,15.51,7.33-13.58,9.88-30.48,5.63-44.48A33.06,33.06,0,0,0,451.22,180.52Z" transform="translate(-82.6 -27.59)"/><path class="cls-1" d="M501.61,217.47c5.08-11.82,6.5-25.5,3-37.08-4-13-13.21-20.19-23.77-20.1-3.48,7.14-4.28,16-1.67,25.69C482.54,198.46,491,209.68,501.61,217.47Z" transform="translate(-82.6 -27.59)"/><path class="cls-12" d="M510.74,140.28c22.64,0,46,18.35,52.1,41s-7.24,41-29.88,41-46-18.35-52.09-41S488.1,140.28,510.74,140.28Z" transform="translate(-82.6 -27.59)"/><path class="cls-7" d="M510.74,140.28c13.85,0,28,6.87,38.22,17.38,0,0-13.79,7.79-17.24,9.68-2,1.1-11.22,9.08-18.44,15.46a24.32,24.32,0,0,1,6,10.34c2.74,10.1-3.23,18.29-13.34,18.29a20.33,20.33,0,0,1-4.31-.48c-9.86-7.47-17.61-18-20.77-29.69C474.73,158.63,488.1,140.28,510.74,140.28Z" transform="translate(-82.6 -27.59)"/><path class="cls-1" d="M510.74,140.28a49.83,49.83,0,0,1,23.08,6.05,35.78,35.78,0,0,0-1,4.14,35.56,35.56,0,0,1-53.2,24,39.44,39.44,0,0,1-.21-4,35.52,35.52,0,0,0,20.77-26.06c.17-.94.38-1.87.63-2.77A36.79,36.79,0,0,1,510.74,140.28Z" transform="translate(-82.6 -27.59)"/><path class="cls-1" d="M577.64,232.73c.16-.48.3-1,.43-1.44,4.2-15.49-5-28-20.44-28s-31.45,12.55-35.65,28a25.28,25.28,0,0,0-.12,13.77c4.77-14.82,20.21-26.6,35.22-26.6C567.56,218.46,575.14,224.21,577.64,232.73Z" transform="translate(-82.6 -27.59)"/><path class="cls-19" d="M497.05,166a4.15,4.15,0,0,1,3.5,3.23,2.18,2.18,0,0,1-2.38,2.77,4.13,4.13,0,0,1-3.5-3.23A2.18,2.18,0,0,1,497.05,166Z" transform="translate(-82.6 -27.59)"/><path class="cls-8" d="M490.8,199a53.67,53.67,0,0,1-10.92-20.36c-5.64-20.81,5.2-38,24.58-40.63-17.53,4.89-26.85,22.64-21.37,43.8A58.53,58.53,0,0,0,490.8,199Z" transform="translate(-82.6 -27.59)"/><path class="cls-5" d="M433.8,143.63c-1.72,8.25-.21,15.3,3.9,19.8-2.49-4.56-3.36-10.47-2.35-17.13A16.76,16.76,0,0,1,433.8,143.63Z" transform="translate(-82.6 -27.59)"/><path class="cls-5" d="M429.85,135.65A15.35,15.35,0,0,0,439.8,142c7.24-1.29,14.26-5.85,19-12.05a35.29,35.29,0,0,1-19.41,10.45A17.62,17.62,0,0,1,429.85,135.65Z" transform="translate(-82.6 -27.59)"/><path class="cls-1" d="M426.88,162.23c-4.16,2.69-7.17,8.39-6.72,12.74s4.2,5.71,8.36,3,7.17-8.38,6.71-12.73S431,159.55,426.88,162.23Z" transform="translate(-82.6 -27.59)"/><path class="cls-18" d="M423.9,161.2c-4.16,2.69-7.16,8.39-6.71,12.74s4.19,5.71,8.35,3,7.17-8.39,6.72-12.74S428.06,158.52,423.9,161.2Z" transform="translate(-82.6 -27.59)"/><path class="cls-20" d="M422.28,163.61a7.93,7.93,0,0,0-3.53,6.68c.24,2.28,2.2,3,4.39,1.59a7.94,7.94,0,0,0,3.52-6.69C426.42,162.91,424.46,162.2,422.28,163.61Z" transform="translate(-82.6 -27.59)"/><path class="cls-12" d="M458,264.44a2.7,2.7,0,0,1-3.31-.94,2.45,2.45,0,0,1,.49-3.21l10.43-10.5a6.75,6.75,0,0,1,1.69-1.43,7,7,0,0,1,9.35,2,6.32,6.32,0,0,1-2.22,8.91,7.29,7.29,0,0,1-1.2.57h0a6.82,6.82,0,0,1-.77.23L458,264.44Z" transform="translate(-82.6 -27.59)"/><path class="cls-7" d="M417.36,175.26c-15.94,11.8-24.15,36.88-18.33,56s23.45,25.09,39.39,13.29,24.15-36.88,18.33-56S433.3,163.46,417.36,175.26Z" transform="translate(-82.6 -27.59)"/><path class="cls-12" d="M417.36,175.26c-15.94,11.8-24.15,36.88-18.33,56a33.06,33.06,0,0,0,4.36,9.26c8.05,5.79,18.95,5.51,29.15-2,15.94-11.8,24.15-36.88,18.33-56a33.34,33.34,0,0,0-4.36-9.26C438.46,167.43,427.56,167.71,417.36,175.26Z" transform="translate(-82.6 -27.59)"/><path class="cls-7" d="M414.32,178c-10.31,7.63-15.62,23.86-11.86,36.25s15.17,16.23,25.49,8.6,15.62-23.87,11.86-36.25S424.64,170.4,414.32,178Z" transform="translate(-82.6 -27.59)"/><path class="cls-18" d="M410.28,181c-6.6,4.89-10,15.27-7.59,23.2s9.71,10.39,16.31,5.5,10-15.27,7.59-23.19S416.88,176.09,410.28,181Z" transform="translate(-82.6 -27.59)"/><path class="cls-5" d="M415.07,181.29a8.16,8.16,0,0,0-4.32,7.67c.29,3,2.7,4.37,5.38,3.1a8.18,8.18,0,0,0,4.33-7.67C420.17,181.41,417.76,180,415.07,181.29Z" transform="translate(-82.6 -27.59)"/><path class="cls-5" d="M416.92,172.87c-15.94,11.8-24.15,36.88-18.34,56,2.18,7.16,6,12.47,10.78,15.7a35.58,35.58,0,0,1-7.26-13.43c-5.84-19.25.82-43.8,15-58.44Z" transform="translate(-82.6 -27.59)"/><path class="cls-5" d="M406.62,195.23a5.33,5.33,0,0,0-2.82,5,2.32,2.32,0,0,0,3.51,2,5.34,5.34,0,0,0,2.82-5A2.31,2.31,0,0,0,406.62,195.23Z" transform="translate(-82.6 -27.59)"/><path class="cls-1" d="M493.89,216.28a1.56,1.56,0,0,1,1.51,2.2,3.25,3.25,0,0,1-2.89,2.19,1.55,1.55,0,0,1-1.5-2.19A3.26,3.26,0,0,1,493.89,216.28Z" transform="translate(-82.6 -27.59)"/><path class="cls-1" d="M483.79,227a1.56,1.56,0,0,1,1.51,2.19,3.27,3.27,0,0,1-2.89,2.2,1.56,1.56,0,0,1-1.5-2.2A3.25,3.25,0,0,1,483.79,227Z" transform="translate(-82.6 -27.59)"/><path class="cls-1" d="M520.88,141.5c14.06,0,28.54,11.4,32.36,25.46s-4.5,25.45-18.56,25.45S506.14,181,502.33,167,506.82,141.5,520.88,141.5Z" transform="translate(-82.6 -27.59)"/><path class="cls-9" d="M526.08,146.24A35.57,35.57,0,0,1,469,167.55a35.53,35.53,0,0,0,24.42-27.42,35.56,35.56,0,0,1,57.06-21.32h0A39.46,39.46,0,0,1,564,138.42C551.9,118.38,530.23,124.05,526.08,146.24Z" transform="translate(-82.6 -27.59)"/><path class="cls-1" d="M466.29,165.9a14.49,14.49,0,0,0-4.85,14.83c1.54,5.06,6.21,6.64,10.43,3.51a14.49,14.49,0,0,0,4.85-14.82C475.18,164.35,470.51,162.78,466.29,165.9Z" transform="translate(-82.6 -27.59)"/><path class="cls-7" d="M462.59,164.7a14.49,14.49,0,0,0-4.85,14.83c1.54,5.06,6.21,6.64,10.42,3.52A14.5,14.5,0,0,0,473,168.22C471.48,163.15,466.81,161.58,462.59,164.7Z" transform="translate(-82.6 -27.59)"/><path class="cls-18" d="M461.26,167.5a7.59,7.59,0,0,0-2.55,7.78c.81,2.66,3.26,3.48,5.47,1.84a7.6,7.6,0,0,0,2.55-7.78C465.92,166.69,463.47,165.86,461.26,167.5Z" transform="translate(-82.6 -27.59)"/><path class="cls-5" d="M469.42,420a12.57,12.57,0,0,1-8.72-10.27l-16.78-73.89a33.73,33.73,0,0,1-1.5-11.28c0-.28,0-.56,0-.83v-.16l.06-.75,0-.26.06-.6,0-.27.07-.57,0-.38.07-.45.06-.35.09-.54.05-.27.12-.57,0-.27.13-.56.06-.26.16-.6.06-.23.14-.53.09-.32.15-.47.11-.35.14-.43.12-.35.24-.66,0-.09.27-.71,0-.1c.21-.52.43-1,.66-1.54v0l.05-.13c.22-.46.44-.92.68-1.38l.14-.28.23-.42.19-.35.23-.41.13-.23.31-.52.12-.21.29-.46.2-.31.22-.34.24-.35.27-.4.2-.28.24-.34.24-.32.35-.46.12-.17.35-.44.2-.24.33-.4.19-.23.36-.41.16-.19.07-.07.5-.56,0,0,.55-.58h0l.57-.56,0,0,.23-.22.36-.34.18-.17.43-.39.19-.17.45-.4.14-.12.52-.43.12-.1.49-.39.25-.2.38-.29.3-.22.4-.29.24-.17.44-.3.27-.19.43-.28.25-.16.5-.32.18-.11-.13.1-.12.1-.54.45-.15.13-.47.41-.2.18-.45.41-.19.17-.37.36-.24.23,0,0-.58.59h0l-.57.61,0,0-.52.57-.08.08-.17.2-.37.43-.2.24-.34.41-.21.26-.36.46-.13.17-.37.49-.24.32-.26.36-.21.3-.28.41-.24.36-.24.36-.2.32-.31.49-.13.21-.32.55-.14.24-.23.43-.21.36-.23.44-.15.29c-.24.48-.48,1-.7,1.44l-.06.13v0c-.24.53-.47,1.06-.69,1.61l0,.09-.28.74,0,.1-.24.69-.13.36-.15.45-.11.37-.15.5-.1.32-.15.56-.06.23-.16.63-.07.28-.13.58-.06.28-.12.59-.05.29-.1.56-.06.36-.07.48-.06.4-.07.59,0,.28-.06.62,0,.28-.06.78v.16c0,.29,0,.59,0,.88a35.1,35.1,0,0,0,1.56,11.77l17.51,77.11A13.18,13.18,0,0,0,469.42,420Z" transform="translate(-82.6 -27.59)"/><path class="cls-1" d="M448.39,383.38c-2.38,15.62,5.77,35.45,18.2,44.29S491,431,493.39,415.42s-5.77-35.45-18.2-44.3S450.76,367.76,448.39,383.38Z" transform="translate(-82.6 -27.59)"/><path class="cls-12" d="M448.39,383.38c-2.38,15.62,5.77,35.45,18.2,44.29a26.87,26.87,0,0,0,2.61,1.65c10.05,3.55,18.75-2.43,20.74-15.47,2.37-15.62-5.77-35.45-18.2-44.29a25.21,25.21,0,0,0-2.61-1.66C459.08,364.36,450.37,370.33,448.39,383.38Z" transform="translate(-82.6 -27.59)"/><path class="cls-5" d="M446.74,383.36c-2.37,15.62,5.77,35.45,18.2,44.29a27.38,27.38,0,0,0,3,1.89c-12.67-9.8-20.83-30.29-18.36-46.51,1.18-7.77,4.59-13.19,9.24-15.81C452.77,368.61,448.13,374.27,446.74,383.36Z" transform="translate(-82.6 -27.59)"/><path class="cls-7" d="M449.34,388.19c-1.53,10.1,3.74,22.93,11.78,28.66s15.8,2.17,17.34-7.93-3.73-22.94-11.77-28.66S450.88,378.08,449.34,388.19Z" transform="translate(-82.6 -27.59)"/><path class="cls-5" d="M448.23,394.43c-.69,4.54,1.67,10.3,5.28,12.86s7.09,1,7.78-3.55-1.67-10.3-5.28-12.86S448.92,389.9,448.23,394.43Z" transform="translate(-82.6 -27.59)"/><path class="cls-5" d="M448.24,382.78A4.8,4.8,0,0,0,450,387c1.19.85,2.35.32,2.57-1.18a4.8,4.8,0,0,0-1.75-4.26C449.62,380.75,448.47,381.28,448.24,382.78Z" transform="translate(-82.6 -27.59)"/><path class="cls-5" d="M427.88,119.67c-1.95,2.3-2.46,6.08-1.13,8.44s4,2.41,5.92.11,2.45-6.08,1.12-8.44S429.82,117.37,427.88,119.67Z" transform="translate(-82.6 -27.59)"/><path class="cls-5" d="M431.05,114.46a1.75,1.75,0,0,0-.25,1.82c.29.51.86.52,1.28,0a1.72,1.72,0,0,0,.24-1.82C432,114,431.47,114,431.05,114.46Z" transform="translate(-82.6 -27.59)"/><path class="cls-1" d="M429.26,224.84a19.22,19.22,0,0,0-7,9.9c-1.27,4.53-.19,8.54,2.51,11a16,16,0,0,0,10-6.72,14.77,14.77,0,0,1-5.71,2.44c-2.7-2.48-3.78-6.49-2.51-11A17.76,17.76,0,0,1,429.26,224.84Z" transform="translate(-82.6 -27.59)"/><path class="cls-1" d="M441.33,216.19a13.5,13.5,0,0,0-4.94,7c-.89,3.17-.14,6,1.76,7.73a11.19,11.19,0,0,0,7-4.71,10.38,10.38,0,0,1-4,1.71c-1.89-1.74-2.65-4.56-1.76-7.74A12.48,12.48,0,0,1,441.33,216.19Z" transform="translate(-82.6 -27.59)"/><path class="cls-3" d="M519.21,373.71c9.35,7.57,12.83,23.61,7.77,35.81s-16.74,16-26.1,8.4-12.83-23.61-7.77-35.81S509.85,366.14,519.21,373.71Z" transform="translate(-82.6 -27.59)"/><path class="cls-21" d="M514.27,421.48c-4.38,1-9.13-.11-13.39-3.56-9.35-7.57-12.83-23.61-7.77-35.81a22,22,0,0,1,6.44-8.91c4.39-1,9.13.12,13.39,3.56,9.35,7.58,12.83,23.61,7.77,35.82A21.84,21.84,0,0,1,514.27,421.48Z" transform="translate(-82.6 -27.59)"/><path class="cls-7" d="M522,381.21c6.22,4.7,8.92,15.08,6.05,23.19s-10.23,10.88-16.44,6.19-8.91-15.07-6-23.19S515.81,376.52,522,381.21Z" transform="translate(-82.6 -27.59)"/><path class="cls-3" d="M490.09,486.27c8.66-6.79,24.09-7.39,34.47-1.34,10.05,5.86,11.67,15.82,3.88,22.61l-41.15-3C482.72,498.69,483.5,491.44,490.09,486.27Z" transform="translate(-82.6 -27.59)"/><path class="cls-3" d="M461.79,481.55c12.12-9.5,33.7-10.35,48.21-1.89,12,7,15.4,18.18,9.35,27.22L455,502.18C452.22,495.11,454.36,487.38,461.79,481.55Z" transform="translate(-82.6 -27.59)"/><path class="cls-7" d="M447.76,490c8.66-6.79,24.1-7.4,34.47-1.35,7.15,4.16,10,10.4,8.31,16.09l-48.44-3.54C441.82,497.25,443.67,493.24,447.76,490Z" transform="translate(-82.6 -27.59)"/><path class="cls-22" d="M437.17,495.44c5.31-4.16,14.76-4.53,21.13-.83,3.68,2.15,5.52,5.2,5.37,8.2l-29.88-2.19A8.58,8.58,0,0,1,437.17,495.44Z" transform="translate(-82.6 -27.59)"/><path class="cls-23" d="M394.25,480c-2.41,1.88.72,8.54,7,14.9s13.32,10,15.73,8.1a1.88,1.88,0,0,0,.34-.35c2.45-1.65,4.77-5.67,5.94-10.79,1.69-7.43.31-14.33-3.08-15.42s-7.53,4-9.22,11.45l-.22,1-.76-.79c-6.27-6.35-13.31-10-15.72-8.11Zm1.79-9.77c1.28-1,5,.94,8.37,4.32l.41.42.11-.53c.91-4,3.11-6.69,4.92-6.11s2.54,4.26,1.64,8.22c-.62,2.73-1.86,4.87-3.17,5.75a.77.77,0,0,1-.18.18c-1.28,1-5-.93-8.38-4.31S394.76,471.26,396,470.26Z" transform="translate(-82.6 -27.59)"/><path class="cls-1" d="M535.58,306c11.87,2.22,20.14,12.9,18.48,23.85s-12.63,18.05-24.49,15.84-20.13-12.9-18.47-23.85S523.72,303.74,535.58,306Z" transform="translate(-82.6 -27.59)"/><path class="cls-1" d="M537.68,286c7.53,10.28,7.29,28-.53,39.53s-20.27,12.58-27.8,2.3-7.29-28,.54-39.53S530.15,275.71,537.68,286Z" transform="translate(-82.6 -27.59)"/><path class="cls-1" d="M539.61,351.94a4.28,4.28,0,0,1-1,5.3,3.76,3.76,0,0,1-5-.1L516,343.23a9.94,9.94,0,0,1-2.45-2.32,10.94,10.94,0,0,1,1.69-14.8,9.63,9.63,0,0,1,14,1.59,10.64,10.64,0,0,1,1,1.73h0a9.42,9.42,0,0,1,.47,1.14l8.84,21.36Z" transform="translate(-82.6 -27.59)"/><path class="cls-12" d="M527.73,290.57c5.44,7.44,5.27,20.24-.39,28.6s-14.66,9.1-20.11,1.66-5.27-20.24.39-28.6S522.28,283.13,527.73,290.57Z" transform="translate(-82.6 -27.59)"/><path class="cls-18" d="M518.66,294.54c3.57,4.87,3.45,13.25-.25,18.72s-9.6,6-13.16,1.09-3.46-13.25.25-18.73S515.09,289.67,518.66,294.54Z" transform="translate(-82.6 -27.59)"/><path class="cls-24" d="M401.06,498.5c126.12-.82,228.42,10.33,228.49,24.91s-102.11,27.06-228.24,27.88S172.89,541,172.82,526.38,274.94,499.32,401.06,498.5Z" transform="translate(-82.6 -27.59)"/><path class="cls-14" d="M396.08,73.92a13.12,13.12,0,0,0-22,4.42,13.11,13.11,0,0,1,13,3.84,13.12,13.12,0,0,0,22-4.41A13.13,13.13,0,0,1,396.08,73.92Z" transform="translate(-82.6 -27.59)"/><path class="cls-20" d="M562.3,106.78c.82,2.3-1.57,5.26-5.35,6.62s-7.52.6-8.35-1.69,1.57-5.27,5.35-6.63S561.47,104.48,562.3,106.78Z" transform="translate(-82.6 -27.59)"/><path class="cls-18" d="M490,189.89c-.5,6.49,4,13.93,10,16.6s11.27-.43,11.77-6.92-4-13.93-10-16.6S490.5,183.4,490,189.89Z" transform="translate(-82.6 -27.59)"/><path class="cls-25" d="M490,186.23a9.62,9.62,0,0,0,5.33,8.88c3.21,1.43,6-.23,6.3-3.71a9.62,9.62,0,0,0-5.33-8.88C493.07,181.09,490.25,182.75,490,186.23Z" transform="translate(-82.6 -27.59)"/><path class="cls-1" d="M481.44,348.14a24.91,24.91,0,0,0-2.34,15.61c1.18,6,4.79,10,9.37,11.29a20.86,20.86,0,0,0,7.59-13.63,19.37,19.37,0,0,1-5.18,6.18c-4.58-1.29-8.18-5.3-9.37-11.29A23.05,23.05,0,0,1,481.44,348.14Z" transform="translate(-82.6 -27.59)"/><path class="cls-1" d="M487.65,339.74a16,16,0,0,0-1.5,10c.76,3.85,3.08,6.43,6,7.26a13.34,13.34,0,0,0,4.88-8.76,12.37,12.37,0,0,1-3.33,4c-2.94-.83-5.26-3.41-6-7.26A14.64,14.64,0,0,1,487.65,339.74Z" transform="translate(-82.6 -27.59)"/><path class="cls-26" d="M367.52,498.76c90.74-.71,164.35,8.91,164.4,21.48S458.45,543.59,367.7,544.3s-164.35-8.92-164.4-21.49S276.77,499.46,367.52,498.76Z" transform="translate(-82.6 -27.59)"/><path class="cls-23" d="M340.88,534.65c-1.53,1.13-.35,4.86,2.63,8.32s6.65,5.35,8.17,4.22a1.15,1.15,0,0,0,.23-.21c1.53-1,3.2-3.36,4.31-6.31,1.62-4.28,1.45-8.18-.38-8.72s-4.61,2.5-6.22,6.78l-.21.58-.36-.43c-3-3.47-6.64-5.36-8.17-4.23Zm1.87-5.62c.82-.6,2.77.41,4.36,2.25l.19.23.11-.3c.86-2.28,2.35-3.9,3.32-3.61s1.06,2.36.2,4.64a7.13,7.13,0,0,1-2.3,3.36.63.63,0,0,1-.12.11c-.81.61-2.76-.4-4.35-2.24S341.94,529.63,342.75,529Z" transform="translate(-82.6 -27.59)"/><path class="cls-12" d="M448,350.43c.4-.85,6.05-15.91,6.05-15.91l0,6.42,15.56-28.66-8.8,27.26,13.35-17.25-.76,6.49,6.33-6.78-8,11.14-.49-3.75-14.1,18.34.19-6.61-4,7.15-1.16-4.53Z" transform="translate(-82.6 -27.59)"/><path class="cls-12" d="M399.37,227.59c.58-1.24,8.79-23.13,8.79-23.13l0,9.33,22.62-41.66L418,211.76l19.41-25.08-1.11,9.43,9.2-9.86-11.67,16.2-.71-5.44L412.6,223.67l.27-9.61-5.76,10.38-1.69-6.58Z" transform="translate(-82.6 -27.59)"/><path class="cls-5" d="M430.87,121c.2-.43,3-8,3-8v3.21l7.77-14.31-4.39,13.61,6.66-8.61-.38,3.24,3.16-3.39-4,5.57-.25-1.87-7,9.15.1-3.3-2,3.57-.58-2.26Z" transform="translate(-82.6 -27.59)"/><path class="cls-7" d="M566.63,195.35c12.44,0,17.32,8.65,12.22,20.05-.31-6.66-5.33-11.06-14.2-11.06-13.95,0-32.14,10.89-40.62,24.32a34.8,34.8,0,0,0-2.31,4.27c-.17-3.81,1.2-8.37,4.29-13.26C534.49,206.24,552.68,195.35,566.63,195.35Z" transform="translate(-82.6 -27.59)"/><path class="cls-7" d="M566.63,211.43c12.44,0,17.32,5.61,12.22,13-.31-4.32-5.33-7.17-14.2-7.17-13.95,0-32.14,7.06-40.62,15.77a21.17,21.17,0,0,0-2.31,2.77c-.17-2.48,1.2-5.43,4.29-8.6C534.49,218.49,552.68,211.43,566.63,211.43Z" transform="translate(-82.6 -27.59)"/><path class="cls-5" d="M215.14,286.15c-5.33,11.41,9.44,22.56,33,24.92,13.69,1.37,27.33-.53,37.4-4.61a84.11,84.11,0,0,1-34.15,3.41c-23.55-2.35-38.32-13.51-33-24.91,2.23-4.78,7.64-8.84,14.9-11.78C224.4,276.16,217.69,280.69,215.14,286.15Z" transform="translate(-82.6 -27.59)"/><path class="cls-9" d="M186,349.34c-2.17,15.68,26.39,27,63.8,25.28,21.73-1,41.67-6.18,55-13.42-13.12,6.08-31.15,10.34-50.63,11.23-37.4,1.72-66-9.6-63.8-25.28.91-6.57,7.07-12.86,16.68-18.08C195,334.67,187,341.82,186,349.34Z" transform="translate(-82.6 -27.59)"/><path class="cls-14" d="M371.59,81.54a3.57,3.57,0,0,0-5-.23,3.63,3.63,0,0,0-1,1.43,3.59,3.59,0,0,1,3.54,1.05,3.57,3.57,0,0,0,5,.22,3.46,3.46,0,0,0,.95-1.43A3.56,3.56,0,0,1,371.59,81.54Z" transform="translate(-82.6 -27.59)"/><path class="cls-27" d="M342.64,497.9c42.07-.32,76.19,4.13,76.21,10S384.79,518.68,342.73,519s-76.18-4.13-76.21-10S300.58,498.23,342.64,497.9Z" transform="translate(-82.6 -27.59)"/><path class="cls-1" d="M206,548.36c13.34-.14,24.15,1.83,24.16,4.41s-10.8,4.78-24.13,4.93-24.15-1.83-24.16-4.41S192.68,548.51,206,548.36Z" transform="translate(-82.6 -27.59)"/><path class="cls-27" d="M263.21,484.26c-2.41,1.88.72,8.54,7,14.9s13.31,10,15.72,8.1a2.19,2.19,0,0,0,.34-.34c2.45-1.66,4.78-5.68,5.94-10.8,1.7-7.43.31-14.33-3.08-15.42s-7.52,4-9.22,11.46l-.22,1-.76-.79c-6.27-6.35-13.31-10-15.72-8.11Zm1.79-9.77c1.28-1,5,.94,8.37,4.32l.42.43.11-.54c.9-3.95,3.1-6.69,4.91-6.11s2.54,4.27,1.64,8.22c-.62,2.73-1.86,4.87-3.16,5.75a1.07,1.07,0,0,1-.19.18c-1.28,1-5-.93-8.37-4.31S263.72,475.49,265,474.49Z" transform="translate(-82.6 -27.59)"/><path class="cls-27" d="M263.28,463.66c-.94.74.28,3.34,2.74,5.83s5.2,3.9,6.15,3.17a.86.86,0,0,0,.13-.14,7.13,7.13,0,0,0,2.33-4.22c.66-2.9.12-5.6-1.21-6s-2.94,1.58-3.61,4.48l-.08.4-.3-.31c-2.45-2.49-5.21-3.91-6.15-3.18Zm.7-3.82c.5-.39,2,.37,3.28,1.69l.16.17,0-.21c.36-1.55,1.22-2.62,1.92-2.39s1,1.67.65,3.21a3.82,3.82,0,0,1-1.24,2.25l-.07.07c-.51.39-2-.36-3.28-1.68S263.48,460.23,264,459.84Z" transform="translate(-82.6 -27.59)"/><path class="cls-27" d="M210.06,460.77c-.94.73.28,3.34,2.73,5.83s5.21,3.9,6.15,3.17a.62.62,0,0,0,.14-.14,7.08,7.08,0,0,0,2.32-4.22c.67-2.9.12-5.6-1.2-6s-2.95,1.58-3.61,4.48l-.08.39-.3-.31c-2.46-2.48-5.21-3.9-6.15-3.17Zm.7-3.82c.5-.39,2,.37,3.27,1.69l.16.17.05-.21c.35-1.55,1.21-2.62,1.92-2.39s1,1.67.64,3.21a3.77,3.77,0,0,1-1.24,2.25l-.07.07c-.5.39-2-.36-3.27-1.69S210.26,457.34,210.76,457Z" transform="translate(-82.6 -27.59)"/><path class="cls-1" d="M529.82,161.44a12.83,12.83,0,0,0-21.54,4.32,12.82,12.82,0,0,1,12.7,3.76,12.83,12.83,0,0,0,21.53-4.32A12.82,12.82,0,0,1,529.82,161.44Z" transform="translate(-82.6 -27.59)"/><polygon class="cls-1" points="458.28 70.57 473.81 56.69 468.76 65.97 488.06 51.91 480.43 61.66 498.81 49.89 475.19 68 478.23 61.2 464.17 72.5 467.84 63.95 458.28 70.57"/><polygon class="cls-7" points="257.73 160.01 269.56 142.88 266.83 153.09 282.28 134.88 277.15 146.15 292.25 130.39 273.56 153.54 274.9 146.22 263.9 160.51 265.46 151.34 257.73 160.01"/><path class="cls-5" d="M555.45,107.13c.24.68-.46,1.55-1.57,1.94s-2.21.18-2.45-.49.46-1.55,1.57-2S555.21,106.46,555.45,107.13Z" transform="translate(-82.6 -27.59)"/><polygon class="cls-5" points="129.75 224.05 141.17 207.51 138.53 217.36 153.45 199.79 148.5 210.66 163.08 195.45 145.03 217.8 146.33 210.73 135.71 224.53 137.22 215.67 129.75 224.05"/><path class="cls-17" d="M691.76,55.64c1,2.68-1.83,6.14-6.24,7.72s-8.75.7-9.72-2,1.83-6.13,6.24-7.71S690.79,53,691.76,55.64Z" transform="translate(-82.6 -27.59)"/><path class="cls-26" d="M387,373.9s73,61.92,92.7,143.94l-5.71.89S467.38,454.86,387,373.9Z" transform="translate(-82.6 -27.59)"/><path class="cls-23" d="M463.89,386.34s73,61.92,92.7,143.94l-5.71.88S544.26,467.29,463.89,386.34Z" transform="translate(-82.6 -27.59)"/><path class="cls-1" d="M449.53,405.91s73,61.92,92.7,143.94l-5.71.89S529.9,486.86,449.53,405.91Z" transform="translate(-82.6 -27.59)"/><path class="cls-1" d="M436.62,418.21s79.63,53.07,108.73,132.26L539.78,552S525.81,489.33,436.62,418.21Z" transform="translate(-82.6 -27.59)"/><path class="cls-1" d="M329.7,425.13s79.63,53.06,108.73,132.25l-5.57,1.54S418.89,496.25,329.7,425.13Z" transform="translate(-82.6 -27.59)"/><path class="cls-1" d="M399.45,457.3s51.05,41.55,57,103.56l-4.69,1.21S454.15,513,399.45,457.3Z" transform="translate(-82.6 -27.59)"/><path class="cls-27" d="M290.4,426.41s52.46,35,71.62,87.12l-3.67,1S349.15,473.26,290.4,426.41Z" transform="translate(-82.6 -27.59)"/><path class="cls-27" d="M304.78,424.05S343.2,464.92,349.31,514l-3.39.14S346.27,476.49,304.78,424.05Z" transform="translate(-82.6 -27.59)"/><path class="cls-1" d="M544.24,375.12s56.38,80.17,54.83,166.57l-5.89-.6S603.07,476.07,544.24,375.12Z" transform="translate(-82.6 -27.59)"/><path class="cls-1" d="M244.66,484.07c7.53,10.55-4,29.94-25.76,43.32s-45.51,15.66-53,5.11,4-29.94,25.76-43.32S237.12,473.52,244.66,484.07Z" transform="translate(-82.6 -27.59)"/><path class="cls-28" d="M236.15,482.29c3.94,6.75-4.06,17.74-17.85,24.56s-28.17,6.88-32.1.13,4.05-17.74,17.85-24.56S232.22,475.55,236.15,482.29Z" transform="translate(-82.6 -27.59)"/><path class="cls-29" d="M228.84,480.58c2.35,4-2.43,10.63-10.69,14.71s-16.87,4.12-19.23.08,2.43-10.63,10.69-14.71S226.48,476.54,228.84,480.58Z" transform="translate(-82.6 -27.59)"/><path class="cls-1" d="M257.72,519c1.82,7.21-8.39,15.15-22.8,17.75s-27.57-1.14-29.39-8.34,8.39-15.15,22.8-17.75S255.9,511.76,257.72,519Z" transform="translate(-82.6 -27.59)"/><path class="cls-28" d="M253.54,516.25c.7,4.42-5.87,8.62-14.66,9.38s-16.47-2.21-17.16-6.63,5.87-8.63,14.66-9.39S252.85,511.83,253.54,516.25Z" transform="translate(-82.6 -27.59)"/><path class="cls-29" d="M250,513.81c.41,2.65-3.52,5.16-8.78,5.62s-9.87-1.33-10.28-4,3.51-5.17,8.78-5.63S249.58,511.16,250,513.81Z" transform="translate(-82.6 -27.59)"/><path class="cls-1" d="M254.21,533.05c.88,3.51-4.09,7.38-11.11,8.65s-13.42-.56-14.31-4.06,4.09-7.38,11.1-8.65S253.32,529.55,254.21,533.05Z" transform="translate(-82.6 -27.59)"/><path class="cls-28" d="M253.75,533.49c.33,2.15-2.86,4.2-7.14,4.57s-8-1.08-8.36-3.23,2.86-4.2,7.14-4.58S253.41,531.33,253.75,533.49Z" transform="translate(-82.6 -27.59)"/><path class="cls-29" d="M252,532.3c.2,1.29-1.71,2.51-4.28,2.73s-4.8-.64-5-1.93,1.71-2.52,4.27-2.74S251.82,531,252,532.3Z" transform="translate(-82.6 -27.59)"/><path class="cls-1" d="M529.41,538c3.62,12.45-13.69,26.93-38.65,32.35s-48.13-.29-51.74-12.74,13.68-26.93,38.65-32.34S525.8,525.56,529.41,538Z" transform="translate(-82.6 -27.59)"/><path class="cls-28" d="M522,533.52c1.48,7.67-9.7,15.4-25,17.26s-28.85-2.83-30.33-10.5,9.7-15.4,25-17.27S520.49,525.85,522,533.52Z" transform="translate(-82.6 -27.59)"/><path class="cls-29" d="M515.64,529.49c.88,4.59-5.81,9.22-15,10.33s-17.28-1.7-18.17-6.29,5.81-9.22,15-10.34S514.75,524.89,515.64,529.49Z" transform="translate(-82.6 -27.59)"/><path class="cls-1" d="M458,546.5c2,6.84-7.52,14.8-21.24,17.78s-26.45-.16-28.44-7,7.53-14.8,21.24-17.78S456,539.66,458,546.5Z" transform="translate(-82.6 -27.59)"/><path class="cls-1" d="M542.05,556.28c1.41,4.86-5.34,10.5-15.07,12.62s-18.77-.12-20.18-5,5.34-10.5,15.07-12.61S540.64,551.43,542.05,556.28Z" transform="translate(-82.6 -27.59)"/><path class="cls-28" d="M452,541.78c.72,3.7-4.68,7.43-12.05,8.33S426,548.74,425.28,545s4.68-7.43,12.05-8.33S451.26,538.08,452,541.78Z" transform="translate(-82.6 -27.59)"/><path class="cls-29" d="M445.85,540.45c.43,2.25-2.84,4.51-7.31,5.06s-8.45-.83-8.89-3.08,2.85-4.51,7.32-5S445.42,538.21,445.85,540.45Z" transform="translate(-82.6 -27.59)"/><path class="cls-28" d="M535.73,549.89c.29,1.49-1.88,3-4.85,3.35s-5.59-.55-5.88-2,1.88-3,4.85-3.35S535.44,548.4,535.73,549.89Z" transform="translate(-82.6 -27.59)"/><path class="cls-1" d="M557.71,491.41c.78,1,.13,2.86-1.47,4.07s-3.52,1.36-4.31.33-.13-2.86,1.47-4.07S556.92,490.38,557.71,491.41Z" transform="translate(-82.6 -27.59)"/><path class="cls-1" d="M558.66,482.52c.4.53.06,1.46-.76,2.08s-1.8.7-2.21.17-.07-1.47.75-2.09S558.25,482,558.66,482.52Z" transform="translate(-82.6 -27.59)"/><path class="cls-1" d="M489.19,477.45c.79,1,.13,2.87-1.48,4.09s-3.55,1.37-4.34.33-.13-2.88,1.48-4.1S488.39,476.4,489.19,477.45Z" transform="translate(-82.6 -27.59)"/><path class="cls-1" d="M477.24,479.73c.55.72.09,2-1,2.84s-2.46.94-3,.22-.09-2,1-2.84S476.69,479,477.24,479.73Z" transform="translate(-82.6 -27.59)"/><path class="cls-1" d="M493.42,491.28c.19,1.92-2.05,3.72-5,4s-5.52-1-5.71-2.94,2-3.72,5-4S493.22,489.36,493.42,491.28Z" transform="translate(-82.6 -27.59)"/><path class="cls-1" d="M465.85,494.53c.07.75-.8,1.45-2,1.56s-2.15-.39-2.22-1.14.79-1.45,1.94-1.56S465.77,493.78,465.85,494.53Z" transform="translate(-82.6 -27.59)"/><path class="cls-1" d="M586.2,236.51c2.07,6.8-1.31,16.07-7.56,20.71s-13,2.89-15-3.91,1.31-16.07,7.56-20.71S584.13,229.71,586.2,236.51Z" transform="translate(-82.6 -27.59)"/><path class="cls-12" d="M586.27,241.58c1.18,3.89-.76,9.19-4.33,11.85s-7.43,1.66-8.61-2.24.75-9.19,4.32-11.85S585.08,237.69,586.27,241.58Z" transform="translate(-82.6 -27.59)"/><path class="cls-1" d="M520.52,385.46c4.41,3.34,6.34,10.72,4.3,16.48-1.2,3.39-3.5,5.46-6.08,5.92a9.54,9.54,0,0,0,3.63-4.94c2-5.76.11-13.14-4.3-16.48a7.17,7.17,0,0,0-5.6-1.52A6.78,6.78,0,0,1,520.52,385.46Z" transform="translate(-82.6 -27.59)"/><path class="cls-26" d="M366.42,440.35c-.91,2,.79,4.69,3.81,6.11s6.21,1,7.13-1-.79-4.69-3.81-6.11S367.34,438.4,366.42,440.35Z" transform="translate(-82.6 -27.59)"/><path class="cls-26" d="M361.75,426.22c-.47,1,.4,2.41,1.95,3.13s3.19.5,3.66-.51-.4-2.41-1.95-3.13S362.22,425.21,361.75,426.22Z" transform="translate(-82.6 -27.59)"/><path class="cls-26" d="M217.63,434.22c-.53,2.1,1.66,4.46,4.89,5.28s6.28-.22,6.81-2.32-1.66-4.46-4.89-5.27S218.16,432.12,217.63,434.22Z" transform="translate(-82.6 -27.59)"/><path class="cls-26" d="M210.37,421.22c-.27,1.07.85,2.29,2.51,2.71s3.23-.11,3.5-1.19-.85-2.29-2.51-2.71S210.65,420.14,210.37,421.22Z" transform="translate(-82.6 -27.59)"/><path class="cls-26" d="M376.32,494.56c-.76,3,2.37,6.36,7,7.53s9-.31,9.72-3.3-2.37-6.37-7-7.53S377.07,491.57,376.32,494.56Z" transform="translate(-82.6 -27.59)"/><path class="cls-26" d="M367.15,488.78c-.26,1.05.83,2.23,2.45,2.64s3.13-.11,3.4-1.16-.83-2.23-2.44-2.64S367.42,487.73,367.15,488.78Z" transform="translate(-82.6 -27.59)"/><path class="cls-26" d="M354.93,518.89c-.76,3,2.37,6.36,7,7.53s9-.31,9.73-3.31-2.38-6.36-7-7.53S355.69,515.9,354.93,518.89Z" transform="translate(-82.6 -27.59)"/><path class="cls-26" d="M340.46,512c-.44,1.74,1.38,3.7,4.06,4.37s5.2-.18,5.65-1.92-1.38-3.69-4.06-4.37S340.9,510.26,340.46,512Z" transform="translate(-82.6 -27.59)"/><path class="cls-5" d="M519.88,235.4c.11-.71.24-1.43.39-2.15,4.62-21.71,27.61-39.74,51.36-40.27a45.23,45.23,0,0,1,7.07.39h-.64C552.28,194,527.26,212.36,519.88,235.4Z" transform="translate(-82.6 -27.59)"/><path class="cls-1" d="M466.57,198.62a1.41,1.41,0,0,0-.46,1.76,1.35,1.35,0,0,0,1.64.63l7.75-2a3.51,3.51,0,0,0,1.14-.39,3.6,3.6,0,0,0,1.61-4.77,3.47,3.47,0,0,0-4.78-1.35,3.35,3.35,0,0,0-.59.39h0a3,3,0,0,0-.32.29l-6,5.41Z" transform="translate(-82.6 -27.59)"/><path class="cls-5" d="M523.74,102.18c.87,2.44-1.67,5.59-5.69,7s-8,.64-8.86-1.81,1.66-5.59,5.68-7S522.86,99.74,523.74,102.18Z" transform="translate(-82.6 -27.59)"/><path class="cls-5" d="M507.11,106.08c.34.93-.63,2.13-2.15,2.67s-3,.25-3.37-.68.63-2.12,2.16-2.67S506.78,105.16,507.11,106.08Z" transform="translate(-82.6 -27.59)"/><path class="cls-5" d="M335.15,177c.87,2.44-1.67,5.59-5.69,7s-8,.64-8.86-1.8,1.67-5.59,5.68-7S334.27,174.53,335.15,177Z" transform="translate(-82.6 -27.59)"/><path class="cls-5" d="M338.09,149.5a5.28,5.28,0,0,0-5.55,1.2,2.29,2.29,0,0,0,.8,3.92,5.28,5.28,0,0,0,5.55-1.19A2.3,2.3,0,0,0,338.09,149.5Z" transform="translate(-82.6 -27.59)"/><path class="cls-5" d="M330.08,150.33a2.18,2.18,0,0,0-2.31.5,1,1,0,0,0,.33,1.63,2.19,2.19,0,0,0,2.32-.5A1,1,0,0,0,330.08,150.33Z" transform="translate(-82.6 -27.59)"/><path class="cls-5" d="M494.15,193.81a5.28,5.28,0,0,0,3.61,4.39,2.29,2.29,0,0,0,3.11-2.51,5.26,5.26,0,0,0-3.6-4.39A2.3,2.3,0,0,0,494.15,193.81Z" transform="translate(-82.6 -27.59)"/><path class="cls-5" d="M501.77,201.6a2.65,2.65,0,0,0,1.81,2.2,1.15,1.15,0,0,0,1.56-1.26,2.65,2.65,0,0,0-1.81-2.19A1.15,1.15,0,0,0,501.77,201.6Z" transform="translate(-82.6 -27.59)"/><path class="cls-5" d="M511.37,298.81a5.27,5.27,0,0,0,.19,5.67,2.3,2.3,0,0,0,4-.1,5.27,5.27,0,0,0-.2-5.67A2.29,2.29,0,0,0,511.37,298.81Z" transform="translate(-82.6 -27.59)"/><path class="cls-5" d="M515.54,317.13c-3.66,3.71-8.58,3.56-11.7-.71-3.57-4.87-3.46-13.25.25-18.72a10.43,10.43,0,0,1,4.4-3.86,12.84,12.84,0,0,0-1.46,1.8c-3.71,5.47-3.82,13.85-.25,18.72C509.12,317.56,512.47,318.45,515.54,317.13Z" transform="translate(-82.6 -27.59)"/><path class="cls-7" d="M517.25,412.51a12.26,12.26,0,0,1-6.54-2.59c-7.1-5.37-10.2-17.24-6.92-26.52,2.64-7.45,8.59-11,14.51-9.27-5.13-.35-10,3.16-12.27,9.67-3.28,9.27-.18,21.15,6.92,26.52A13.18,13.18,0,0,0,517.25,412.51Z" transform="translate(-82.6 -27.59)"/><path class="cls-26" d="M595.1,448.72c-1.52,3.25,1.31,7.78,6.32,10.12a14.08,14.08,0,0,0,5.2,1.35c-4.65-2.41-7.21-6.71-5.75-9.84,1-2.11,3.57-3.16,6.62-3-.18-.1-.37-.19-.57-.28C601.91,444.73,596.62,445.47,595.1,448.72Z" transform="translate(-82.6 -27.59)"/><path class="cls-26" d="M567.32,320.65c-.78,1.67.67,4,3.24,5.2s5.29.82,6.07-.84-.67-4-3.24-5.2S568.1,319,567.32,320.65Z" transform="translate(-82.6 -27.59)"/><path class="cls-26" d="M558.81,302.21c-.45,1,.38,2.29,1.86,3s3,.48,3.47-.48-.39-2.28-1.86-3S559.26,301.26,558.81,302.21Z" transform="translate(-82.6 -27.59)"/><path class="cls-1" d="M588.67,418.47c-.76,1.62.65,3.89,3.15,5.06s5.15.8,5.91-.82-.65-3.89-3.16-5.06S589.43,416.84,588.67,418.47Z" transform="translate(-82.6 -27.59)"/><path class="cls-1" d="M571.8,520.51c-1.31,2.79,1.13,6.69,5.43,8.7s8.86,1.38,10.16-1.41-1.12-6.69-5.43-8.7S573.11,517.72,571.8,520.51Z" transform="translate(-82.6 -27.59)"/><path class="cls-1" d="M551.12,514.55c-.58,1.23.5,3,2.39,3.84s3.91.61,4.49-.62-.5-2.95-2.4-3.84S551.69,513.32,551.12,514.55Z" transform="translate(-82.6 -27.59)"/><path class="cls-26" d="M171,200.44c-.53,2.1,1.66,4.46,4.89,5.28s6.28-.22,6.81-2.32-1.66-4.46-4.89-5.27S171.54,198.35,171,200.44Z" transform="translate(-82.6 -27.59)"/><path class="cls-26" d="M159.47,188.37c-.27,1.08.86,2.29,2.51,2.71s3.23-.11,3.5-1.19-.85-2.29-2.51-2.7S159.75,187.3,159.47,188.37Z" transform="translate(-82.6 -27.59)"/><path class="cls-1" d="M549.73,532.25c-1.82.47-2.11,4.33-.65,8.61s4.13,7.36,5.95,6.89l.28-.11c1.78-.36,4.18-1.91,6.29-4.2,3.06-3.34,4.34-7,2.87-8.15s-5.16.59-8.22,3.92l-.4.46-.18-.53c-1.46-4.28-4.12-7.37-5.94-6.89Zm3.79-4.47c1-.25,2.39,1.39,3.17,3.67l.09.28.22-.24c1.63-1.77,3.59-2.71,4.38-2.09s.1,2.57-1.53,4.34A7.1,7.1,0,0,1,556.5,536l-.15.06c-1,.25-2.39-1.39-3.17-3.67S552.56,528,553.52,527.78Z" transform="translate(-82.6 -27.59)"/><path class="cls-1" d="M170,548.09c3.57-.05,6.45.61,6.46,1.46s-2.89,1.59-6.45,1.64-6.45-.61-6.45-1.46S166.41,548.14,170,548.09Z" transform="translate(-82.6 -27.59)"/><path class="cls-26" d="M164,250.09c-.68,1.46.58,3.49,2.83,4.54s4.61.72,5.29-.74-.59-3.48-2.83-4.53S164.7,248.64,164,250.09Z" transform="translate(-82.6 -27.59)"/><path class="cls-26" d="M601.24,454.4c-.77,1.64.66,3.93,3.19,5.11a7,7,0,0,0,2.62.68c-2.34-1.21-3.64-3.39-2.9-5a3.29,3.29,0,0,1,3.34-1.52l-.29-.14C604.68,452.39,602,452.76,601.24,454.4Z" transform="translate(-82.6 -27.59)"/><path class="cls-27" d="M306.55,485.59c-2.63,5.63,2.27,13.47,10.93,17.52a24.65,24.65,0,0,0,9,2.35c-8.05-4.17-12.48-11.63-9.95-17,1.71-3.65,6.17-5.47,11.45-5.18-.32-.17-.65-.33-1-.49C318.34,478.7,309.18,480,306.55,485.59Z" transform="translate(-82.6 -27.59)"/><path class="cls-27" d="M317.17,495.43c-1.33,2.84,1.14,6.8,5.52,8.84a12.4,12.4,0,0,0,4.55,1.19c-4.07-2.11-6.3-5.87-5-8.6.86-1.84,3.11-2.76,5.78-2.62l-.5-.24C323.12,492,318.5,492.59,317.17,495.43Z" transform="translate(-82.6 -27.59)"/><path class="cls-27" d="M296.41,451.08c-2,1.53-1.76,5.29.59,8.41a10.24,10.24,0,0,0,2.81,2.57c-2.11-3.05-2.28-6.58-.34-8.05,1.31-1,3.27-.79,5.12.32l-.26-.36C302,450.85,298.43,449.56,296.41,451.08Z" transform="translate(-82.6 -27.59)"/><path class="cls-27" d="M198.44,302.87c-2,1.52-1.75,5.29.6,8.41a10.15,10.15,0,0,0,2.8,2.56c-2.11-3-2.28-6.58-.33-8,1.31-1,3.26-.8,5.12.32l-.27-.37C204,302.64,200.47,301.34,198.44,302.87Z" transform="translate(-82.6 -27.59)"/><path class="cls-1" d="M181.5,505.68c5,4.13,1.89,15-6.92,24.23s-20,13.38-25,9.25-1.9-15,6.92-24.24S176.51,501.54,181.5,505.68Z" transform="translate(-82.6 -27.59)"/><path class="cls-28" d="M164.82,511c2.65,1.57,2,6.89-1.47,11.88s-8.4,7.76-11,6.19-2-6.9,1.47-11.89S162.17,509.44,164.82,511Z" transform="translate(-82.6 -27.59)"/><path class="cls-7" d="M537.53,29c2,.32,3.07,2.51,2.3,4.88s-3.06,4-5.1,3.72-3.07-2.51-2.29-4.88S535.49,28.64,537.53,29Z" transform="translate(-82.6 -27.59)"/><path class="cls-14" d="M519.51,115.66a15.18,15.18,0,0,1-17.38-11.29,13.32,13.32,0,0,1,.19-6.74,15.37,15.37,0,0,0,14.27,5.14A15.18,15.18,0,0,1,534,114.06a13.32,13.32,0,0,1-.19,6.74A15.39,15.39,0,0,0,519.51,115.66Z" transform="translate(-82.6 -27.59)"/><path class="cls-14" d="M504.84,93.47a6.28,6.28,0,0,1-7.2-4.68,5.58,5.58,0,0,1,.07-2.79,6.4,6.4,0,0,0,5.92,2.13,6.28,6.28,0,0,1,7.2,4.67,5.7,5.7,0,0,1-.08,2.79A6.38,6.38,0,0,0,504.84,93.47Z" transform="translate(-82.6 -27.59)"/></svg>