<svg xmlns="http://www.w3.org/2000/svg" viewBox="0 0 124.59 170.47"><defs><style>.cls-1{fill:#301347;}.cls-2{fill:#eb8b23;}.cls-3{fill:#6c297b;}.cls-4{fill:#f9d2d6;}.cls-5{fill:#f9db5d;}.cls-6{fill:#f6cc1b;}.cls-7{fill:#926ab1;}.cls-8{fill:#7e4fa3;}.cls-9{fill:#662d91;}.cls-10{fill:#fce7e9;}</style></defs><g id="Layer_2" data-name="Layer 2"><g id="Layer_1-2" data-name="Layer 1"><path class="cls-1" d="M17.05,26.86v0c0,.12,0,.24,0,.36v.05c0,.11,0,.23,0,.34a.22.22,0,0,0,0,.08c0,.1,0,.2,0,.31l0,.1a2.86,2.86,0,0,0,.07.28.69.69,0,0,0,.05.13,2.25,2.25,0,0,0,.08.24,1.19,1.19,0,0,0,.08.16l.09.2.11.18a1,1,0,0,0,.1.17l.15.21.09.12c.09.11.19.22.29.32l6.34,6.34a4.15,4.15,0,0,0,7.09-2.94c0-.14,0-.27,0-.41l0-.2,0-.19a2.68,2.68,0,0,0-.07-.27s0-.07,0-.1-.07-.21-.11-.32,0,0,0-.05-.1-.22-.15-.33v0a4.1,4.1,0,0,0-.67-.95h0l-.09-.1-6.34-6.34a4.15,4.15,0,0,0-5.88,0h0a4.17,4.17,0,0,0-1.16,2.22h0C17.07,26.6,17.06,26.73,17.05,26.86Z"/><path class="cls-1" d="M107.54,109.1v0a2.47,2.47,0,0,0-.05-.38h0a4.11,4.11,0,0,0-1.15-2.23L100,100.12a4.16,4.16,0,0,0-5.88,0h0A4.11,4.11,0,0,0,93,102.35h0c0,.13,0,.25,0,.38v0c0,.13,0,.25,0,.37v0c0,.11,0,.22,0,.34s0,0,0,.07,0,.21,0,.31l0,.11a2.68,2.68,0,0,0,.07.27s0,.09,0,.13l.09.25.07.15a2,2,0,0,0,.1.21l.1.18.11.17c0,.07.1.14.15.21l.09.12a4.12,4.12,0,0,0,.28.31l6.34,6.34a4.15,4.15,0,0,0,5.88,0c.1-.1.2-.2.29-.31l.09-.12.15-.21.1-.17.11-.18.09-.2.08-.16a2.25,2.25,0,0,0,.08-.24,1.12,1.12,0,0,0,0-.13c0-.1.05-.19.07-.28a.43.43,0,0,0,0-.11,1.54,1.54,0,0,0,0-.31.17.17,0,0,0,0-.07,1.94,1.94,0,0,0,0-.34s0,0,0-.05S107.55,109.22,107.54,109.1Z"/><path class="cls-1" d="M31.67,102.75v0c0-.13,0-.25-.05-.38h0a4.11,4.11,0,0,0-1.15-2.23,4.16,4.16,0,0,0-5.88,0l-6.34,6.34-.09.1h0a4.18,4.18,0,0,0-1.06,2.13h0c0,.13,0,.26,0,.38v0c0,.12,0,.24,0,.36a.09.09,0,0,0,0,.05,1.94,1.94,0,0,0,0,.34.25.25,0,0,0,0,.08c0,.1,0,.2,0,.3l0,.11a2.68,2.68,0,0,0,.07.27.78.78,0,0,0,.05.14,2.25,2.25,0,0,0,.08.24c0,.05.05.1.08.16l.09.2.11.18a1,1,0,0,0,.1.17l.15.21L18,112c.09.11.19.21.29.31h0a4.15,4.15,0,0,0,5.88,0L30.47,106a4.12,4.12,0,0,0,.28-.31l.09-.12c.05-.07.11-.14.15-.21l.1-.17a1.74,1.74,0,0,0,.11-.18,2,2,0,0,0,.1-.21l.07-.15.09-.25s0-.08,0-.13a2.68,2.68,0,0,0,.07-.27l0-.11c0-.1,0-.2,0-.31a.17.17,0,0,1,0-.07c0-.12,0-.23,0-.34v0C31.68,103,31.68,102.88,31.67,102.75Z"/><path class="cls-1" d="M17.28,68.29a2.82,2.82,0,0,0,0-.41,1.08,1.08,0,0,0,0-.19,1.52,1.52,0,0,0,0-.21,2.44,2.44,0,0,0-.06-.26l0-.12c0-.1-.07-.2-.11-.3a.64.64,0,0,1,0-.07l-.15-.31v0c-.06-.12-.13-.22-.19-.33h0a4.13,4.13,0,0,0-3.49-1.92h-9a4.14,4.14,0,0,0-3.5,1.92h0a3.54,3.54,0,0,0-.19.33l0,0a2.92,2.92,0,0,0-.14.31l0,.07c0,.1-.07.2-.1.3s0,.08,0,.12l-.06.26,0,.21,0,.19c0,.14,0,.27,0,.41a4.16,4.16,0,0,0,4.16,4.16h9A4.15,4.15,0,0,0,17.28,68.29Z"/><path class="cls-1" d="M124.57,67.88l0-.19,0-.21a2.5,2.5,0,0,0-.07-.26l0-.12c0-.1-.06-.2-.1-.3l0-.07a2.92,2.92,0,0,0-.14-.31l0,0a3.54,3.54,0,0,0-.19-.33h0a4.14,4.14,0,0,0-3.5-1.92h-9a4.14,4.14,0,0,0-3.5,1.92h0a3.54,3.54,0,0,0-.19.33v0l-.15.31a.64.64,0,0,1,0,.07c0,.1-.08.2-.11.3l0,.12a2.44,2.44,0,0,0-.06.26,1.52,1.52,0,0,0,0,.21,1.08,1.08,0,0,0,0,.19,2.82,2.82,0,0,0,0,.41,4.15,4.15,0,0,0,4.15,4.16h9a4.16,4.16,0,0,0,4.16-4.16C124.59,68.15,124.58,68,124.57,67.88Z"/><path class="cls-1" d="M93.35,31.66c0,.11-.11.22-.15.33s0,0,0,.05-.08.21-.11.32,0,.07,0,.1a2.68,2.68,0,0,0-.07.27l0,.19,0,.2c0,.14,0,.27,0,.41a4.16,4.16,0,0,0,7.1,2.94l6.34-6.34c.1-.1.2-.21.29-.32a1,1,0,0,0,.08-.11c.06-.07.11-.15.16-.22a1.4,1.4,0,0,0,.1-.16l.11-.19.09-.2c0-.05,0-.11.08-.16s0-.16.08-.24a.69.69,0,0,0,0-.13,2.86,2.86,0,0,0,.07-.28.36.36,0,0,0,0-.1,1.81,1.81,0,0,0,0-.31.22.22,0,0,0,0-.08,1.88,1.88,0,0,0,0-.34.43.43,0,0,0,0-.05c0-.12,0-.24,0-.36v0a2.6,2.6,0,0,0-.05-.39h0a4.15,4.15,0,0,0-7-2.22l-6.34,6.34-.09.1h0a4.1,4.1,0,0,0-.67.95Z"/><path class="cls-1" d="M62.29,23.28a4.15,4.15,0,0,0,4.16-4.15v-9a4.16,4.16,0,1,0-8.31,0v9A4.15,4.15,0,0,0,62.29,23.28Z"/><path class="cls-1" d="M110.3,161.55v-.07c0-.15,0-.3,0-.44a.41.41,0,0,0,0-.11c0-.13,0-.27,0-.41s0-.08,0-.13-.05-.27-.08-.4l0-.14c0-.17-.09-.35-.15-.53l-8.84-28.8a8.63,8.63,0,0,0-7.14-6L79.2,122.56h0a1.7,1.7,0,0,0-.43-1.39l-4-4.44a3.53,3.53,0,0,0,1.38-1.19,2.75,2.75,0,0,0,.17-.29,3.41,3.41,0,0,0,.43-1.68,3,3,0,0,0,0-.43.43.43,0,0,0,0-.11,1.86,1.86,0,0,0-.07-.34s0-.05,0-.08A3.52,3.52,0,0,0,73.23,110h3a3.53,3.53,0,0,0,2.92-1.56,2.75,2.75,0,0,0,.17-.29,3.23,3.23,0,0,0,.36-1,3.35,3.35,0,0,0,.07-.71,3,3,0,0,0,0-.43.43.43,0,0,0,0-.11,2.05,2.05,0,0,0-.07-.34s0,0,0-.07A3.52,3.52,0,0,0,76.23,103h3a3.53,3.53,0,0,0,3.52-3.53,3.11,3.11,0,0,0,0-.43.43.43,0,0,0,0-.11,2.05,2.05,0,0,0-.07-.34s0,0,0-.07A3.51,3.51,0,0,0,81.4,96.7l.23-.14A37.77,37.77,0,0,0,85.11,94c.44-.37.88-.74,1.3-1.13s.84-.78,1.25-1.19a37.77,37.77,0,0,0,2.85-3.21L91,87.8c.34-.46.67-.93,1-1.4l.47-.73c.25-.39.5-.79.74-1.2.49-.84,1-1.7,1.37-2.58s.73-1.58,1-2.4c.18-.44.34-.9.5-1.35s.26-.75.38-1.13c.26-.84.49-1.7.69-2.57a36,36,0,0,0,.92-8.1h0c0-.31,0-.61,0-.92s0-.35,0-.52,0-.26,0-.39,0-.49,0-.74a.91.91,0,0,1,0-.17c0-.28,0-.57-.08-.85v0a35.87,35.87,0,0,0-71.37,0v0c0,.28-.06.57-.08.85a.91.91,0,0,1,0,.17c0,.25,0,.49-.05.74s0,.26,0,.39,0,.35,0,.52,0,.61,0,.92h0a36,36,0,0,0,.92,8.1c.2.87.43,1.73.69,2.57.14.46.3.92.46,1.37s.27.75.42,1.11q.48,1.23,1,2.4c.19.4.39.79.6,1.19l.37.69c.22.4.45.79.68,1.17.39.64.8,1.26,1.22,1.87l.42.59c.27.37.54.73.82,1.09.71.9,1.46,1.77,2.25,2.6.6.62,1.21,1.22,1.85,1.8.42.39.86.76,1.3,1.13a36.3,36.3,0,0,0,3.7,2.68,3.49,3.49,0,0,0-.87,1h0a3.65,3.65,0,0,0-.34.81.19.19,0,0,1,0,.07c0,.11-.05.23-.07.34s0,.07,0,.11a3.11,3.11,0,0,0,0,.43A3.53,3.53,0,0,0,45.36,103h3a3.53,3.53,0,0,0-3,1.76h0a3.65,3.65,0,0,0-.34.81.19.19,0,0,1,0,.07c0,.11-.05.23-.07.34s0,.07,0,.11a3,3,0,0,0,0,.43,3.35,3.35,0,0,0,.07.71,3.51,3.51,0,0,0,.35,1l.18.29A3.52,3.52,0,0,0,48.36,110h3a3.51,3.51,0,0,0-3,1.76h0a3.77,3.77,0,0,0-.34.8.24.24,0,0,1,0,.08c0,.11-.05.22-.07.34s0,.07,0,.11a3,3,0,0,0,0,.43,3.35,3.35,0,0,0,.07.71,3.63,3.63,0,0,0,.35,1l.18.29a3.53,3.53,0,0,0,1.38,1.19l-4,4.44a1.7,1.7,0,0,0-.43,1.39l-14.76,2a8.6,8.6,0,0,0-6.08,3.78,8.69,8.69,0,0,0-.61,1.07,9.79,9.79,0,0,0-.46,1.17l-8.83,28.8c-.06.18-.11.36-.15.53l0,.14c0,.13-.06.27-.08.4s0,.09,0,.13l-.06.41V161c0,.14,0,.29,0,.44v.07c0,.16,0,.31,0,.47v0c0,.17,0,.33,0,.49v0c0,.17,0,.34,0,.51h0l.09.52h0a8.63,8.63,0,0,0,8.45,6.87h78.77a8.51,8.51,0,0,0,3.52-.75l.45-.21a8.37,8.37,0,0,0,1.63-1.11,8.63,8.63,0,0,0,2.84-4.8h0c0-.17.07-.34.1-.52h0c0-.17,0-.34,0-.51v0c0-.16,0-.32,0-.49v0C110.31,161.86,110.3,161.71,110.3,161.55Z"/><rect class="cls-2" x="50.84" y="104.46" width="22.9" height="16.42"/><circle class="cls-3" cx="62.29" cy="60.34" r="35.87"/><path class="cls-4" d="M62.29,81.84A35.88,35.88,0,0,1,27.15,53.16a35.87,35.87,0,1,0,70.29,0A35.89,35.89,0,0,1,62.29,81.84Z"/><path class="cls-5" d="M71.39,68.39A3.53,3.53,0,0,1,69.84,68l-7.55-3.81L54.75,68a3.47,3.47,0,0,1-3.11,0l-9.09-4.6a3.45,3.45,0,1,1,3.11-6.15l7.54,3.81,7.54-3.81a3.41,3.41,0,0,1,3.11,0l7.54,3.81,7.54-3.81A3.45,3.45,0,1,1,82,63.42L73,68A3.57,3.57,0,0,1,71.39,68.39Z"/><path class="cls-6" d="M83.44,58.56a3.52,3.52,0,0,1-1.4,1.3L73,64.45a3.44,3.44,0,0,1-1.56.37,3.4,3.4,0,0,1-1.55-.37l-7.55-3.81-7.54,3.81a3.41,3.41,0,0,1-3.11,0l-9.09-4.59a3.52,3.52,0,0,1-1.4-1.3l-.13.23a3.45,3.45,0,0,0,1.53,4.63L51.64,68a3.47,3.47,0,0,0,3.11,0l7.54-3.81L69.84,68a3.53,3.53,0,0,0,1.55.37A3.57,3.57,0,0,0,73,68L82,63.42a3.46,3.46,0,0,0,1.53-4.63Z"/><path class="cls-7" d="M55.29,96A3.44,3.44,0,0,1,52,93.65L40.84,61.47a3.45,3.45,0,0,1,6.52-2.26L58.54,91.39a3.44,3.44,0,0,1-2.12,4.39A3.48,3.48,0,0,1,55.29,96Z"/><path class="cls-8" d="M58.54,91.39,47.36,59.21A3.44,3.44,0,0,0,43,57.09h0a3.46,3.46,0,0,1,2.11,2.12L56.24,91.39a3.44,3.44,0,0,1-2.1,4.38,3.39,3.39,0,0,0,1.15.2,3.48,3.48,0,0,0,1.13-.19A3.44,3.44,0,0,0,58.54,91.39Z"/><path class="cls-7" d="M69.3,96a3.48,3.48,0,0,1-1.13-.19,3.44,3.44,0,0,1-2.12-4.39L77.23,59.21a3.45,3.45,0,0,1,6.51,2.26L72.56,93.65A3.45,3.45,0,0,1,69.3,96Z"/><path class="cls-4" d="M62.29,81.84A35.88,35.88,0,0,1,27.15,53.16a35.87,35.87,0,1,0,70.29,0A35.89,35.89,0,0,1,62.29,81.84Z"/><path class="cls-8" d="M52,93.65a3.41,3.41,0,0,0,.81,1.3,37.19,37.19,0,0,0,3.66.79,3.43,3.43,0,0,0,2-4.35L55,81.09a35.48,35.48,0,0,1-8.28-2.82Z"/><path class="cls-9" d="M52.45,80.47l3.79,10.92a3.43,3.43,0,0,1-1.41,4c.56.11,1.11.22,1.67.31h0a3.4,3.4,0,0,0,1.75-1.47h0l.15-.28v0a2,2,0,0,0,.11-.26s0,0,0-.06a2.33,2.33,0,0,0,.07-.25.29.29,0,0,0,0-.09,1.89,1.89,0,0,0,0-.23.49.49,0,0,0,0-.12l0-.21V92.4c0-.06,0-.12,0-.18s0-.1,0-.16a1.55,1.55,0,0,0,0-.21.59.59,0,0,0,0-.13c0-.11-.06-.22-.1-.33L55,81.09C54.11,80.91,53.27,80.7,52.45,80.47Z"/><path class="cls-8" d="M69.63,81.09l-3.58,10.3a3.43,3.43,0,0,0,2,4.35A36.77,36.77,0,0,0,71.75,95a3.54,3.54,0,0,0,.81-1.3l5.35-15.38A35.48,35.48,0,0,1,69.63,81.09Z"/><path class="cls-8" d="M68.34,91.39,79.53,59.21a3.46,3.46,0,0,1,2.11-2.12h0a3.44,3.44,0,0,0-4.39,2.12L66.05,91.39a3.44,3.44,0,0,0,2.12,4.39A3.48,3.48,0,0,0,69.3,96a3.39,3.39,0,0,0,1.15-.2A3.45,3.45,0,0,1,68.34,91.39Z"/><path class="cls-9" d="M65.93,91.85a1.55,1.55,0,0,0,0,.21c0,.06,0,.11,0,.16s0,.12,0,.18a1.2,1.2,0,0,0,0,.19v.14a1.49,1.49,0,0,1,0,.21s0,.08,0,.12a1.89,1.89,0,0,0,0,.23s0,.06,0,.09.05.17.08.25,0,0,0,.06a2,2,0,0,0,.11.26v0l.15.28h0a3.49,3.49,0,0,0,1.75,1.47h0c.57-.09,1.12-.2,1.67-.31a3.46,3.46,0,0,1-1.41-4l3.8-10.92c-.83.23-1.66.44-2.51.62l-3.58,10.3c0,.11-.07.22-.1.33A.59.59,0,0,0,65.93,91.85Z"/><rect class="cls-5" x="41.84" y="89.94" width="40.91" height="7.05" rx="3.52"/><path class="cls-6" d="M79.23,93.46H45.36a3.53,3.53,0,0,1-3-1.76,3.53,3.53,0,0,0,3,5.29H79.23a3.53,3.53,0,0,0,3.52-3.53,3.42,3.42,0,0,0-.48-1.76A3.5,3.5,0,0,1,79.23,93.46Z"/><rect class="cls-5" x="44.84" y="96.99" width="34.91" height="7.05" rx="3.52"/><path class="cls-6" d="M76.23,100.51H48.36a3.53,3.53,0,0,1-3-1.76,3.53,3.53,0,0,0,3,5.29H76.23a3.53,3.53,0,0,0,3.52-3.53,3.42,3.42,0,0,0-.48-1.76A3.5,3.5,0,0,1,76.23,100.51Z"/><rect class="cls-5" x="47.84" y="104.04" width="28.91" height="7.05" rx="3.52"/><path class="cls-6" d="M73.23,107.56H51.36a3.53,3.53,0,0,1-3-1.76,3.52,3.52,0,0,0,3,5.28H73.23a3.52,3.52,0,0,0,3.52-3.52,3.42,3.42,0,0,0-.48-1.76A3.5,3.5,0,0,1,73.23,107.56Z"/><path class="cls-5" d="M66.45,4.16v9a4.16,4.16,0,0,1-8.31,0v-9a4.16,4.16,0,1,1,8.31,0Zm54,54h-9a4.16,4.16,0,0,0,0,8.31h9a4.16,4.16,0,1,0,0-8.31Zm-107.3,0h-9a4.16,4.16,0,1,0,0,8.31h9a4.16,4.16,0,0,0,0-8.31ZM97.06,31.68A4.13,4.13,0,0,0,100,30.47l6.34-6.34a4.16,4.16,0,0,0,0-5.88,4.15,4.15,0,0,0-5.88,0l-6.34,6.34a4.15,4.15,0,0,0,2.94,7.09ZM24.59,94.12l-6.34,6.34a4.15,4.15,0,0,0,0,5.88h0a4.15,4.15,0,0,0,5.88,0L30.47,100a4.16,4.16,0,1,0-5.88-5.88Zm75.41,0a4.16,4.16,0,0,0-5.88,0h0a4.16,4.16,0,0,0,0,5.88l6.34,6.34a4.16,4.16,0,1,0,5.88-5.88ZM24.13,18.25a4.15,4.15,0,0,0-5.88,0h0a4.15,4.15,0,0,0,0,5.88l6.34,6.34a4.16,4.16,0,0,0,5.88-5.88Z"/><path class="cls-2" d="M30.47,94.32l-6.34,6.34a4.15,4.15,0,0,1-5.88,0h0a.43.43,0,0,1-.09-.1,4.15,4.15,0,0,0,.09,5.78h0a4.15,4.15,0,0,0,5.88,0L30.47,100a4.16,4.16,0,0,0,.09-5.78Z"/><path class="cls-2" d="M30.47,24.79a4.18,4.18,0,0,1-5.88,0l-6.34-6.34-.09-.1a4.16,4.16,0,0,0,.09,5.78l6.34,6.34a4.16,4.16,0,0,0,6-5.78Z"/><path class="cls-2" d="M16.15,59.45a4.11,4.11,0,0,1-3,1.32h-9a4.14,4.14,0,0,1-3-1.32,4.15,4.15,0,0,0,3,7h9a4.15,4.15,0,0,0,3-7Z"/><path class="cls-2" d="M106.34,100.66a4.15,4.15,0,0,1-5.88,0l-6.34-6.34-.09-.1a4.16,4.16,0,0,0,.09,5.78l6.34,6.34a4.16,4.16,0,0,0,6-5.78A.43.43,0,0,1,106.34,100.66Z"/><path class="cls-2" d="M120.43,60.77h-9a4.15,4.15,0,0,1-3-1.32,4.16,4.16,0,0,0,3,7h9a4.15,4.15,0,0,0,3-7A4.14,4.14,0,0,1,120.43,60.77Z"/><path class="cls-2" d="M97.06,31.68A4.13,4.13,0,0,0,100,30.47l6.34-6.34a4.16,4.16,0,0,0,.09-5.78l-.09.1L100,24.79a4.18,4.18,0,0,1-5.88,0l-.09-.1a4.15,4.15,0,0,0,3,7Z"/><path class="cls-2" d="M62.29,11.6a4.15,4.15,0,0,1-4.15-4.15v5.68a4.16,4.16,0,0,0,8.31,0V7.45A4.15,4.15,0,0,1,62.29,11.6Z"/><path class="cls-10" d="M101.68,164.47H22.91a8.62,8.62,0,0,1-8.24-11.15l8.83-28.8a8.64,8.64,0,0,1,7.15-6l31.64-4.18,31.65,4.18a8.63,8.63,0,0,1,7.14,6l8.84,28.8A8.62,8.62,0,0,1,101.68,164.47Z"/><rect class="cls-4" x="57.34" y="118.11" width="9.91" height="9.91" rx="1.8" transform="translate(-68.78 80.1) rotate(-45)"/><path class="cls-3" d="M14.67,156.79,23.5,128a8.61,8.61,0,0,1,7.15-6l31.64-4.18L93.94,122a8.6,8.6,0,0,1,7.14,6l8.84,28.79a8,8,0,0,1,.2.81,8.46,8.46,0,0,0-.2-4.28l-8.84-28.8a8.63,8.63,0,0,0-7.14-6l-31.65-4.18L30.65,118.5a8.64,8.64,0,0,0-7.15,6l-8.83,28.8a8.58,8.58,0,0,0-.21,4.28A8,8,0,0,1,14.67,156.79Z"/><path class="cls-4" d="M62.29,114.35l-6.82,9.55a2.21,2.21,0,0,1-3.47.18l-6.61-7.52Z"/><path class="cls-4" d="M62.29,114.35l6.83,9.55a2.21,2.21,0,0,0,3.47.18l6.61-7.52Z"/><path class="cls-4" d="M109.61,152.29a8.61,8.61,0,0,1-7.93,5.23H22.91A8.61,8.61,0,0,1,15,152.29l-.31,1a8.62,8.62,0,0,0,8.24,11.15h78.77a8.62,8.62,0,0,0,8.24-11.15Z"/><path class="cls-3" d="M70,122a1.73,1.73,0,0,0,2.23.19l6.28-4.45a1.74,1.74,0,0,0,.28-2.57l-4.17-4.65a1.74,1.74,0,0,0-2-.44l-10.34,4.28Z"/><path class="cls-3" d="M54.63,122a1.73,1.73,0,0,1-2.23.19l-6.28-4.45a1.74,1.74,0,0,1-.28-2.57L50,110.51a1.74,1.74,0,0,1,2-.44l10.33,4.28Z"/><polygon class="cls-8" points="54.44 164.47 59.82 120.89 64.77 120.89 70.15 164.47 54.44 164.47"/><rect class="cls-4" x="71.41" y="137.29" width="16.07" height="3.48" rx="1.74"/><path class="cls-4" d="M28,164.47l3.74-20.7a.69.69,0,0,1,1.37,0L36,164.47Z"/><path class="cls-4" d="M96.59,164.47l-3.74-20.7a.7.7,0,0,0-1.38,0L88.6,164.47Z"/><path class="cls-9" d="M59.15,127.63,61,129.5a1.79,1.79,0,0,0,2.55,0l1.87-1.87-.67-6.74H59.82Z"/><rect class="cls-7" x="57.34" y="116.38" width="9.91" height="9.91" rx="1.8" transform="translate(-67.55 79.59) rotate(-45)"/><polygon class="cls-9" points="55.29 157.6 54.44 164.47 70.15 164.47 69.3 157.6 55.29 157.6"/></g></g></svg>