<svg xmlns="http://www.w3.org/2000/svg" id="logo_white_horizontal_no_marketing" width="707.769" height="125.328" data-name="logo / white / horizontal / no marketing" viewBox="0 0 707.769 125.328">
    <defs>
        <style>
            .cls-1{fill:#fff}
        </style>
    </defs>
    <path id="Path_78" d="M-2350.018-2440.346c-1.258-1.471-3.342-3.278-5.293-3.651-2.3-.441-3.908 1.9-5.262 3.366q-.606.655-1.228 1.3c-8.855 9.123-30.4 27.05-42.445 13.561-2.771-3.1-3.8-6.873-3.979-10.936-.057-1.3.085-1.314 1.362-1.63a71.075 71.075 0 0 0 8.862-2.451 71.235 71.235 0 0 0 22.069-14.234c5.067-4.638 9.33-9.883 11.178-16.7a14.376 14.376 0 0 0-1.337-11.677c-3.1-5.1-8.029-7.154-13.658-7.812-6.732-.787-12.916 1.063-18.658 4.436-10.974 6.444-18.878 15.722-24.522 27.015a52.689 52.689 0 0 0-4.863 14.333 44.534 44.534 0 0 1-8.364-.72c-6.928-1.238-9.509-4.784-9.365-6.654q.748-1.214 1.487-2.438c3.482-5.784 6.755-11.688 8.848-18.153.715-2.2.988-4.428-.148-6.595a20.513 20.513 0 0 0-12.582-10.156c-2.482-.784-3.2-.134-3.993 2.374-.9 2.838-1.84 5.67-2.92 8.443a201.328 201.328 0 0 1-10.4 22.221c-5.9 10.973-11.918 21.875-19.239 31.986a72.643 72.643 0 0 1-5.564 6.47 2.046 2.046 0 0 1-1.806.548c-.431-.2-.736-1.131-.728-1.737a24.066 24.066 0 0 1 .423-4.3 124.262 124.262 0 0 1 5.48-18.233c2.832-7.853 5.927-15.625 7.551-23.858a13.125 13.125 0 0 0-.445-7.46 19.463 19.463 0 0 0-7.646-9 17.862 17.862 0 0 0-8.385-3.394c-2.438-.226-3.574.724-3.763 3.14-.159 2.029-.241 4.065-.471 6.085-.267 2.343-.6 4.683-1.013 7a247.873 247.873 0 0 1-1.7 8.583c-.68 3.171-1.41 6.331-2.156 9.488-1.119 4.725-2.115 8.284-3.247 13a11.3 11.3 0 0 1-2.9 5.421c-1.408 1.236-2.7 2.607-4.126 3.829-4.312 3.694-10.7 7.559-16.605 5.915-5.089-1.416-5.577-6.99-4.8-11.452 1.186-6.81 9.614-19.469 13.242-25.339a4.4 4.4 0 0 0-.057-5.195 15.984 15.984 0 0 0-5.777-5.375 16.985 16.985 0 0 0-4.815-1.871c-2.8-.562-4.979.694-6.774 2.864-9.5 11.488-24.629 28.579-36.124 38.062-3.036 2.5-6.1 4.99-9.792 6.5-1.138.466-2.4.886-3.451-.009-1.12-.957-.818-2.314-.554-3.589a30.954 30.954 0 0 1 3.606-8.672 76.551 76.551 0 0 1 15.575-19.281 86.715 86.715 0 0 1 27.252-17.251c3.047-1.183 6.2-2.107 9.313-3.1 1.438-.459 1.846-.9 1.755-2.4a9.581 9.581 0 0 0-2.005-4.949c-2.762-3.9-6.284-6.621-11.292-6.71a37.3 37.3 0 0 0-12.369 2.052 60.222 60.222 0 0 0-19.74 11.358 92.592 92.592 0 0 0-5.448 4.95c-6.054 1.141-25.47-.067-26.9-9.553a8.375 8.375 0 0 0-.676-1.726c-2.816-5.737-7.612-8.865-13.715-10.1-2.331-.47-3.268.536-3.75 2.888-2.336 11.443-5.074 23.152-9.1 34.24-3.53 9.727-8.226 19.724-16.061 26.751q-.332.3-.67.585a13.2 13.2 0 0 1-7.493 3.43 3.914 3.914 0 0 1-4.355-2.643 9.831 9.831 0 0 1-.753-3.914 67.956 67.956 0 0 1 1.319-9.851 116.922 116.922 0 0 1 6.083-18.045 17.154 17.154 0 0 0 1.326-4c.387-2.737-1.261-4.551-3.36-5.915-3.843-2.5-9.565-5.054-14.241-4.628-5.036.459-6.738 6.222-7.8 10.318-3.405 13.156-8.061 27.8-18.777 36.941a13.185 13.185 0 0 1-7.49 3.429c-12.028 1.039 2.4-36.436 3.489-41.718a16.213 16.213 0 0 0-.451-8.893 21.7 21.7 0 0 0-9.913-11.473 12.759 12.759 0 0 0-6.781-2.157 2.373 2.373 0 0 0-2.452 1.51 14.963 14.963 0 0 0-.543 2.155c-3.2 16.323-9.057 32.531-9.476 49.475-.28 11.331 1.913 25.314 14.833 28.21 4.878 1.093 9.56.252 14.115-1.586a53.315 53.315 0 0 0 16.482-11.024q2.033-1.915 3.947-3.915a24.335 24.335 0 0 0 1.825 5.208c2.417 4.967 6.174 8.392 11.68 9.627 19.816 4.442 35.7-13.524 45.459-28.29 6.379-9.655 11.954-20.579 15.142-31.925 4.977 3.767 18.066 4.9 22.131 4.2a99.349 99.349 0 0 0-7.969 11.282c-5.238 8.637-9.412 17.7-10.6 27.884a23.307 23.307 0 0 0 1.069 10.868 10.98 10.98 0 0 0 10.943 7.554 25.874 25.874 0 0 0 11.106-3 75.044 75.044 0 0 0 16.332-11.043c5.443-4.684 10.719-9.562 16.071-14.352.306-.273.635-.518 1.152-.937-.324 1.564-.6 2.863-.864 4.163-1.305 6.417-.826 14.254 4.813 18.524 4.423 3.349 10.494 3.75 15.81 3.067 9.045-1.164 16.506-5.977 22.878-12.38-.051 1.231-.092 2.46-.06 3.688a24.707 24.707 0 0 0 3.633 13.1c2.361 3.646 5.618 5.573 10.109 5.1a21.146 21.146 0 0 0 8.346-3.005 67.246 67.246 0 0 0 14.156-11.358 183 183 0 0 0 21.017-25.421 33.931 33.931 0 0 0 11.8 5.033c3.632.793 8.7.614 12.452.51a28.027 28.027 0 0 0 .215 3.241 38.874 38.874 0 0 0 1.125 5.279 25.017 25.017 0 0 0 11.234 14.393c18.372 11.111 40.262 1.078 54.968-10.926 2.857-2.333 5.675-5.865 8.389-8.365 2.069-1.892 4.995-5.036 2.607-7.828zm-55.052-12.584a52.024 52.024 0 0 1 14.673-19.84 15.827 15.827 0 0 1 6.052-3.39 8.241 8.241 0 0 1 2.818-.2 2 2 0 0 1 1.847 1.89 8.145 8.145 0 0 1-1.191 4.862c-2.47 4.691-6.126 8.375-10.149 11.708a57.227 57.227 0 0 1-14.354 8.717c-.28.118-.573.2-.86.3l-.275-.237c.477-1.268.892-2.568 1.439-3.81z" class="cls-1" data-name="Path 78" transform="translate(3056.894 2496.82)"/>
    <path id="Path_87" d="M-2980.4-2502.753a59.5 59.5 0 0 0-41.106-.791c-13.761 4.548-23.99 13.382-30.159 26.55-5.584 11.917-6.544 24.41-3.6 37.165a49.267 49.267 0 0 0 20.919 30.7 56.125 56.125 0 0 0 31.5 9.4 61.265 61.265 0 0 0 22.327-3.813c13.219-5.1 22.917-14 28.647-26.982a55.344 55.344 0 0 0 3.336-34.827c-3.927-18.065-14.584-30.717-31.864-37.402zm2.374 67.164c-4.48 7.061-11.2 10.819-19.4 11.947a30.7 30.7 0 0 1-16.8-2.059c-9.213-4.04-14.313-11.306-16.188-21.008-.213-1.1-.345-2.225-.448-3.344-.1-1.045-.1-2.1-.136-2.849.056-7.145 1.642-13.533 5.775-19.12 4.764-6.438 11.284-9.854 19.149-10.8a31.048 31.048 0 0 1 16.133 2.085 25.79 25.79 0 0 1 15.081 16.5c3.184 9.962 2.532 19.668-3.166 28.648z" class="cls-1" data-name="Path 87" transform="translate(3056.894 2506.82)"/>
    <path id="Path_88" d="M-2844.707-2475.615c-3.216-13.186-10.769-22.79-23.657-27.595-11.947-4.455-24.209-4.6-36.468-1.317-10.276 2.751-18.231 8.676-23.371 18.1a47.349 47.349 0 0 0-5.552 22.74c-.122 20.3-.061 40.6-.068 60.908a9.248 9.248 0 0 0 .09.939h24.839v-29.092h40.295v29.115h25.464v-1.3q0-28.99.006-57.982a60.751 60.751 0 0 0-1.578-14.516zm-24.806 22.57q-19.452-.029-38.905-.024a1.367 1.367 0 0 1-.3-.064c0-4.251-.189-8.417.073-12.556a24.3 24.3 0 0 1 1.632-7.082c2.065-5.358 6.186-8.441 11.756-9.619a29.651 29.651 0 0 1 14.394.355 15.135 15.135 0 0 1 11.08 11.494 35.376 35.376 0 0 1 1.032 6.764c.187 3.256.08 6.527.124 9.792.007.651-.168.941-.886.94z" class="cls-1" data-name="Path 88" transform="translate(3056.894 2506.82)"/>
    <path id="Path_89" d="M-2745.934-2415.867c-14.461-9.842-21.426-29.372-24.212-39.081q1.652-1.687 3.22-3.514c15.693-18.346 20.029-37.276 20.828-41.45a118.886 118.886 0 0 0-11.661-2.635c-4.4-.7-8.683 0-11.387-.124a71.628 71.628 0 0 1-15.257 29.4 67.383 67.383 0 0 1-14.338 12.209c-.01-18.275-.015-36.766 0-42.238 0-.975-.18-1.365-1.282-1.357-7.669.05-15.339.026-23.008.029-.367 0-.733.033-1.142.053v102.731h25.47c0-5.221-.008-18.473-.018-33.811a107.51 107.51 0 0 0 8.033-3.976c4.963 13.4 14.336 31.466 31.077 42.859 19.269 13.114 44.7 15.275 59.372 15.275 3.734 0 6.767-.14 8.828-.275a118.216 118.216 0 0 0 .77-11.879 100.324 100.324 0 0 0-.839-11.5c-3.967.342-35.035 2.499-54.454-10.716z" class="cls-1" data-name="Path 89" transform="translate(3056.894 2506.82)"/>
</svg>
