<?xml version="1.0" encoding="utf-8"?>
<!-- Generator: Adobe Illustrator 24.0.3, SVG Export Plug-In . SVG Version: 6.00 Build 0)  -->
<svg version="1.1" id="Layer" xmlns="http://www.w3.org/2000/svg" xmlns:xlink="http://www.w3.org/1999/xlink" x="0px" y="0px"
	 viewBox="0 0 1986 1352.92" style="enable-background:new 0 0 1986 1352.92;" xml:space="preserve">
<style type="text/css">
	.st0{fill:#D9D8E2;}
	.st1{fill:#FCCE44;}
	.st2{fill:#E54355;}
	.st3{fill:none;stroke:#140A23;stroke-width:3;stroke-miterlimit:10;}
	.st4{fill:#AF206E;}
	.st5{fill:#5F2D78;}
	.st6{fill:#140A23;}
	.st7{fill:none;stroke:#FFFFFF;stroke-width:3;stroke-miterlimit:10;}
	.st8{fill:#FFFFFF;}
	.st9{fill:none;stroke:#5F2D78;stroke-width:12;stroke-miterlimit:10;}
</style>
<g>
	<path class="st0" d="M865.36,285.86c-107.8,35.97-131.22,216.12-221.53,253.36c-95.09,39.21-183.96-55.23-126.54,69.53
		s-123.15,272.3,83.44,411.99c115.07,77.8,533.76,136.08,789.62-39.79c329.6-226.55,158.1-434.16-27.93-517.03
		C1099.94,347,1005.71,239.02,865.36,285.86z"/>
	<path class="st1" d="M1311.16,885.21c10.85,15.26,34.89,16.78,34.89,16.78s6.44-23.21-4.41-38.47
		c-10.85-15.26-34.89-16.78-34.89-16.78S1300.31,869.95,1311.16,885.21z"/>
	<path class="st2" d="M1665.47,802.88c-10.85,15.26-34.89,16.78-34.89,16.78s-6.44-23.21,4.41-38.47s34.89-16.78,34.89-16.78
		S1676.33,787.62,1665.47,802.88z"/>
	<line class="st3" x1="519.35" y1="1117.64" x2="596.74" y2="1266.6"/>
	<line class="st3" x1="1406.83" y1="1146.92" x2="1469.01" y2="1266.6"/>
	<line class="st3" x1="1311.59" y1="1117.64" x2="1388.98" y2="1266.6"/>
	<path class="st4" d="M1075.75,689.08l-43.74,67.16c-6.72,10.32-21.59,10.99-29.21,1.31l-55.94-71.02
		c-9.5-12.06-0.51-29.7,14.83-29.11l99.68,3.86C1075.33,661.83,1083.38,677.37,1075.75,689.08z"/>
	<path class="st5" d="M1021.68,675.61l3.86-40.1c0,0,20.96-4.54,21.14-18.66s-14.89-11.8-14.89-11.8s-1.63-19.86-20.81-26.45
		c-19.18-6.6-37.79,18.19-40.49,34.13c-3.98,23.54,7.86,26.72,32.23,27.63l-3.57,26.33"/>
	<path class="st6" d="M1041.27,606.46c0,0,11.39-19.09-11.98-35.36c-23.37-16.28-31.42-8.94-39.01-18.02
		c-7.59-9.08-30.06,17.12-3.59,33.61s26.31,14.31,26.31,14.31s-5.41,12.9,2.26,15.37s16.05-9.63,16.05-9.63"/>
	<line class="st7" x1="984.73" y1="603.81" x2="977.77" y2="613.7"/>
	<circle class="st8" cx="993.97" cy="601.67" r="3.29"/>
	<circle class="st8" cx="980.8" cy="595.9" r="3.29"/>
	<polyline class="st3" points="1058.06,529.64 1115.35,587.52 1066.69,641.21 	"/>
	<polyline class="st3" points="956.44,642.95 910.36,586.45 971.93,527.22 	"/>
	<path class="st3" d="M1095.11,487.43c11.61,8.19,96.2,62.79,93.58,101.36c-2.39,35.18-102.67,114.84-102.67,114.84"/>
	<path class="st3" d="M923.81,694.19c0,0-94.66-78.88-87.47-116.43c6.05-31.63,78.59-79.46,102.04-93.74"/>
	<path class="st3" d="M1058.06,529.64c-14.88,6.1-22.48,9.57-40.75,9.57c-21.41,0-28.88-3.82-45.38-11.99"/>
	<path class="st6" d="M1243.28,1266.6H1077.3l-60.89-335.65l-60.89,335.65H789.55c0,0,38.27-20.23,72.21-21.42l78-385.57
		c8.02-39.63,39.87-67.81,76.65-67.81h0c36.78,0,68.63,28.18,76.65,67.81l78,385.57C1205.01,1246.38,1243.28,1266.6,1243.28,1266.6z
		"/>
	<g>
		<path class="st6" d="M545.34,412.56c50.97,0,92.43,41.47,92.43,92.43c0,31.01-15.44,59.8-41.29,77l-1.91,1.27l0.72,2.18
			l90.72,272.32h-49.77l-86.05-258.3l-4.59-13.76c8.07-5.64,15.22-12.43,21.3-20.21c13.59-17.43,20.77-38.34,20.77-60.49
			c0-21.48-6.8-41.9-19.66-59.03c-10.44-13.91-24.59-24.93-40.53-31.68C533.34,413.14,539.31,412.56,545.34,412.56 M545.34,409.56
			c-9.77,0-19.18,1.46-28.05,4.19c39.02,11.98,67.39,48.3,67.39,91.24c0,22.11-7.52,42.46-20.14,58.64
			c-6.32,8.11-13.92,15.16-22.49,20.85l5.3,15.91l86.73,260.35h56.09l-92.03-276.27c25.69-17.09,42.63-46.31,42.63-79.5
			C640.77,452.29,598.05,409.56,545.34,409.56L545.34,409.56z"/>
	</g>
	<path class="st5" d="M487.24,600.41l5.3-15.91c-8.57-5.7-16.17-12.75-22.49-20.85c-12.62-16.18-20.14-36.54-20.14-58.64
		c0-42.94,28.36-79.27,67.39-91.24c39.02,11.98,67.39,48.3,67.39,91.24c0,22.11-7.52,42.46-20.14,58.64
		c-6.32,8.11-13.92,15.16-22.49,20.85l5.3,15.91l86.73,260.35H400.5L487.24,600.41z"/>
	<g>
		<path class="st8" d="M328.3,1042.84l-1.14-0.12c-5.1-0.55-9.55-3.59-11.91-8.14c-1.88-3.62-2.24-7.75-1.01-11.63
			c1.23-3.89,3.9-7.06,7.51-8.94c2.17-1.13,4.6-1.72,7.02-1.72c5.72,0,10.92,3.15,13.55,8.23c2.36,4.54,2.29,9.93-0.19,14.42
			l-0.55,1l36.03,34.94l-41.44,21.53L328.3,1042.84z"/>
		<path class="st6" d="M328.77,1013.78L328.77,1013.78c5.16,0,9.84,2.84,12.22,7.42c2.13,4.1,2.06,8.96-0.17,13l-1.11,2.01l1.65,1.6
			l33.72,32.7l-37.75,19.61l-7.37-46.39l-0.36-2.26l-2.28-0.25c-4.6-0.5-8.61-3.24-10.74-7.34c-3.5-6.73-0.87-15.05,5.86-18.55
			C324.43,1014.3,326.56,1013.78,328.77,1013.78 M328.77,1010.78c-2.6,0-5.24,0.61-7.71,1.89c-8.21,4.27-11.41,14.38-7.14,22.59
			c2.69,5.17,7.69,8.35,13.08,8.94l8.02,50.5l45.14-23.45l-36.7-35.59c2.62-4.74,2.89-10.67,0.2-15.84
			C340.67,1014.07,334.83,1010.78,328.77,1010.78L328.77,1010.78z"/>
	</g>
	<path class="st4" d="M497.67,1130.95l-8.02-50.5c-5.39-0.58-10.39-3.77-13.08-8.94c-4.27-8.21-1.07-18.33,7.14-22.59
		c8.21-4.27,18.33-1.07,22.59,7.14c2.69,5.17,2.41,11.09-0.2,15.84l36.7,35.59L497.67,1130.95z"/>
	<line class="st3" x1="306.14" y1="1178.62" x2="351.85" y2="1266.6"/>
	<path class="st5" d="M284.47,1191.93l-8.02-50.5c-5.39-0.58-10.39-3.77-13.08-8.94c-4.27-8.21-1.07-18.33,7.14-22.59
		c8.21-4.27,18.33-1.07,22.59,7.14c2.69,5.17,2.41,11.09-0.2,15.84l36.7,35.59L284.47,1191.93z"/>
	<line class="st3" x1="1678.36" y1="1178.47" x2="1724.07" y2="1266.45"/>
	<path class="st4" d="M1656.68,1191.78l-8.02-50.5c-5.39-0.58-10.39-3.77-13.08-8.94c-4.27-8.21-1.07-18.33,7.14-22.59
		c8.21-4.27,18.33-1.07,22.59,7.14c2.69,5.17,2.41,11.09-0.2,15.84l36.7,35.59L1656.68,1191.78z"/>
	<line class="st3" x1="222.19" y1="1266.6" x2="1748.9" y2="1266.6"/>
	<path class="st3" d="M938.38,484.02c-1.98-6.52-3.04-13.4-3.04-20.51c0-35.07,23.44-65.47,58.47-74.07V187.57
		c0-10.24,8.21-18.54,19.49-18.54c11.6,0,19.49,8.3,19.49,18.54v9.75h8.2h32.06v25.95h-39.99v15.75h25.74v22.11h-26.21v127.19
		c40.78,4.35,66.7,36.35,66.7,75.18c0,8.36-1.47,16.41-4.18,23.93"/>
	<line class="st3" x1="357.59" y1="1082.97" x2="453" y2="1266.6"/>
	<path class="st5" d="M1426.79,1044.37l-8.02-50.5c-5.39-0.58-10.39-3.77-13.08-8.94c-4.27-8.21-1.07-18.33,7.14-22.59
		c8.21-4.27,18.33-1.07,22.59,7.14c2.69,5.17,2.41,11.09-0.21,15.84l36.7,35.59L1426.79,1044.37z"/>
	<g>
		<path class="st8" d="M1378.04,1107.73l-1.14-0.12c-5.1-0.55-9.55-3.59-11.91-8.14c-1.88-3.62-2.24-7.75-1.01-11.63
			c1.23-3.89,3.9-7.06,7.51-8.94c2.2-1.14,4.56-1.72,7.02-1.72c5.72,0,10.92,3.15,13.55,8.23c2.36,4.54,2.29,9.93-0.19,14.42
			l-0.55,1l36.03,34.94l-41.44,21.53L1378.04,1107.73z"/>
		<path class="st6" d="M1378.51,1078.68L1378.51,1078.68c5.16,0,9.84,2.84,12.22,7.42c2.13,4.1,2.06,8.96-0.17,13l-1.11,2.01
			l1.65,1.6l33.72,32.7l-37.75,19.61l-7.37-46.39l-0.36-2.26l-2.28-0.25c-4.6-0.5-8.61-3.24-10.74-7.34
			c-1.69-3.26-2.02-6.99-0.91-10.49s3.51-6.37,6.77-8.06C1374.17,1079.2,1376.3,1078.68,1378.51,1078.68 M1378.51,1075.68
			c-2.6,0-5.24,0.61-7.71,1.89c-8.21,4.27-11.41,14.38-7.14,22.59c2.69,5.17,7.69,8.35,13.08,8.94l8.02,50.5l45.14-23.45
			l-36.7-35.59c2.62-4.74,2.89-10.67,0.2-15.84C1390.41,1078.97,1384.57,1075.68,1378.51,1075.68L1378.51,1075.68z"/>
	</g>
	<line class="st3" x1="814.46" y1="1212.18" x2="842.74" y2="1266.6"/>
	<path class="st5" d="M792.39,1224.85l-8.02-50.5c-5.39-0.58-10.39-3.77-13.08-8.94c-4.27-8.21-1.07-18.33,7.14-22.59
		c8.21-4.27,18.33-1.07,22.59,7.14c2.69,5.17,2.41,11.09-0.21,15.84l36.7,35.59L792.39,1224.85z"/>
	<line class="st3" x1="937.78" y1="1147.71" x2="999.96" y2="1267.39"/>
	<g>
		<path class="st8" d="M908.98,1108.51l-1.14-0.12c-5.1-0.55-9.55-3.59-11.91-8.13c-3.88-7.46-0.96-16.69,6.5-20.57
			c2.2-1.14,4.56-1.72,7.02-1.72c5.72,0,10.92,3.15,13.55,8.23c2.36,4.54,2.29,9.93-0.19,14.42l-0.55,1l36.03,34.94l-41.44,21.53
			L908.98,1108.51z"/>
		<path class="st6" d="M909.46,1079.46L909.46,1079.46c5.16,0,9.84,2.84,12.22,7.42c2.13,4.1,2.06,8.96-0.17,13l-1.11,2.01l1.65,1.6
			l33.72,32.7l-37.75,19.61l-7.37-46.39l-0.36-2.26l-2.28-0.25c-4.6-0.5-8.61-3.24-10.74-7.34c-3.5-6.73-0.87-15.05,5.86-18.55
			C905.11,1079.98,907.24,1079.46,909.46,1079.46 M909.46,1076.46c-2.6,0-5.24,0.61-7.71,1.89c-8.21,4.27-11.41,14.38-7.14,22.59
			c2.69,5.17,7.69,8.35,13.08,8.94l8.02,50.5l45.14-23.45l-36.7-35.59c2.62-4.74,2.89-10.67,0.2-15.84
			C921.36,1079.75,915.51,1076.46,909.46,1076.46L909.46,1076.46z"/>
	</g>
	<path class="st2" d="M1290.82,1133.57l-8.02-50.5c-5.39-0.58-10.39-3.77-13.08-8.94c-4.27-8.21-1.07-18.33,7.14-22.59
		c8.21-4.27,18.33-1.07,22.59,7.14c2.69,5.17,2.41,11.09-0.2,15.84l36.7,35.59L1290.82,1133.57z"/>
	<line class="st3" x1="1449.36" y1="1032.64" x2="1571.48" y2="1267.68"/>
	<g>
		<line class="st3" x1="543.99" y1="584.42" x2="595.65" y2="584.42"/>
	</g>
	<line class="st3" x1="1391.51" y1="903.38" x2="1327.28" y2="903.38"/>
	<line class="st3" x1="1382.04" y1="903.38" x2="1382.04" y2="927.61"/>
	<line class="st3" x1="1372.35" y1="903.38" x2="1372.35" y2="919.83"/>
	<path class="st1" d="M1380.64,885.21c-10.85,15.26-34.89,16.78-34.89,16.78s-6.44-23.21,4.41-38.47
		c10.85-15.26,34.89-16.78,34.89-16.78S1391.49,869.95,1380.64,885.21z"/>
	<circle class="st3" cx="1310.83" cy="903.38" r="16.45"/>
	<path class="st1" d="M634.39,1027.23c10.85,15.26,34.89,16.78,34.89,16.78s6.44-23.21-4.41-38.47
		c-10.85-15.26-34.89-16.78-34.89-16.78S623.54,1011.98,634.39,1027.23z"/>
	<line class="st3" x1="714.74" y1="1045.4" x2="650.51" y2="1045.4"/>
	<line class="st3" x1="705.27" y1="1045.4" x2="705.27" y2="1069.64"/>
	<line class="st3" x1="695.58" y1="1045.4" x2="695.58" y2="1061.85"/>
	<path class="st1" d="M703.87,1027.23c-10.85,15.26-34.89,16.78-34.89,16.78s-6.44-23.21,4.41-38.47
		c10.85-15.26,34.89-16.78,34.89-16.78S714.73,1011.98,703.87,1027.23z"/>
	<circle class="st3" cx="634.06" cy="1045.4" r="16.45"/>
	<line class="st3" x1="1585.13" y1="821.05" x2="1649.35" y2="821.05"/>
	<line class="st3" x1="1594.59" y1="821.05" x2="1594.59" y2="845.28"/>
	<line class="st3" x1="1604.28" y1="821.05" x2="1604.28" y2="837.5"/>
	<path class="st2" d="M1595.99,802.88c10.85,15.26,34.89,16.78,34.89,16.78s6.44-23.21-4.41-38.47
		c-10.85-15.26-34.89-16.78-34.89-16.78S1585.14,787.62,1595.99,802.88z"/>
	<circle class="st3" cx="1665.8" cy="821.05" r="16.45"/>
	<line class="st9" x1="1010.22" y1="85.24" x2="1011.18" y2="138.6"/>
	<line class="st9" x1="945.89" y1="126.76" x2="976.03" y2="160.5"/>
	<line class="st9" x1="1076.46" y1="126.76" x2="1046.33" y2="160.5"/>
	<circle class="st3" cx="1016.88" cy="463.92" r="37.04"/>
	<path class="st2" d="M343.81,749.63c-10.85,15.26-34.89,16.78-34.89,16.78s-6.44-23.21,4.41-38.47
		c10.85-15.26,34.89-16.78,34.89-16.78S354.66,734.37,343.81,749.63z"/>
	<line class="st3" x1="263.46" y1="767.8" x2="327.69" y2="767.8"/>
	<line class="st3" x1="272.93" y1="767.8" x2="272.93" y2="792.03"/>
	<line class="st3" x1="282.62" y1="767.8" x2="282.62" y2="784.25"/>
	<path class="st2" d="M274.33,749.63c10.85,15.26,34.89,16.78,34.89,16.78s6.44-23.21-4.41-38.47
		c-10.85-15.26-34.89-16.78-34.89-16.78S263.48,734.37,274.33,749.63z"/>
	<circle class="st3" cx="344.14" cy="767.8" r="16.45"/>
	<line class="st7" x1="938.27" y1="1148.65" x2="966.38" y2="1202.76"/>
	<line class="st7" x1="834.84" y1="1251.4" x2="842.74" y2="1266.6"/>
</g>
</svg>
