<?xml version="1.0" encoding="utf-8"?>
<!-- Generator: Adobe Illustrator 24.0.3, SVG Export Plug-In . SVG Version: 6.00 Build 0)  -->
<svg version="1.1" id="Layer_1" xmlns="http://www.w3.org/2000/svg" xmlns:xlink="http://www.w3.org/1999/xlink" x="0px" y="0px"
	 viewBox="0 0 213.7 301.2" style="enable-background:new 0 0 213.7 301.2;" xml:space="preserve">
<style type="text/css">
	.st0{fill:#E54355;}
	.st1{fill:#24205B;}
	.st2{fill:#5F2D78;}
	.st3{fill:#AF206E;}
	.st4{fill:#FFAA00;}
	.st5{fill:#FFBC00;}
	.st6{fill:#E2832D;}
	.st7{fill:#AF571C;}
	.st8{fill:#EFEFEF;}
	.st9{fill:#36234C;}
	.st10{fill:#FFFFFF;}
	.st11{fill:#FF0000;}
</style>
<g>
	<path class="st0" d="M29.1,174.9L29.1,174.9h-9.7v116.6c0,5.4,4.4,9.7,9.7,9.7v0c0,0,0,0,0,0l0,0v0c5.4,0,9.7-4.4,9.7-9.7V174.9
		H29.1z"/>
	<path class="st0" d="M48.6,174.9L48.6,174.9h-9.7V272c0,5.4,4.4,9.7,9.7,9.7v0c0,0,0,0,0,0l0,0v0c5.4,0,9.7-4.4,9.7-9.7v-97.2H48.6
		z"/>
	<path class="st0" d="M68,174.9L68,174.9h-9.7v77.7c0,5.4,4.4,9.7,9.7,9.7v0l0,0c0,0,0,0,0,0l0,0c5.4,0,9.7-4.4,9.7-9.7v-77.7H68z"
		/>
	<g>
		<path class="st1" d="M204,58.3h-97.1V68v9.7H204c5.4,0,9.7-4.3,9.7-9.7C213.7,62.6,209.4,58.3,204,58.3z"/>
		<path class="st1" d="M184.6,77.7h-77.7v9.7v9.7h77.7c5.4,0,9.7-4.3,9.7-9.7C194.3,82.1,189.9,77.7,184.6,77.7z"/>
		<path class="st1" d="M165.1,97.1h-58.3v9.7v9.7h58.3c5.4,0,9.7-4.3,9.7-9.7v0C174.9,101.5,170.5,97.1,165.1,97.1z"/>
		<g>
			<path class="st2" d="M213.7,68L213.7,68c0-5.4-4.3-9.7-9.7-9.7h-97.1V68H213.7z"/>
			<path class="st2" d="M194.3,87.4L194.3,87.4c0-5.4-4.3-9.7-9.7-9.7h-77.7v9.7H194.3z"/>
			<path class="st2" d="M174.9,106.9L174.9,106.9c0-5.4-4.3-9.7-9.7-9.7h-58.3v9.7H174.9z"/>
		</g>
		
			<rect x="82.6" y="82.6" transform="matrix(-1.836970e-16 1 -1 -1.836970e-16 199.1393 -24.292)" class="st3" width="58.3" height="9.7"/>
		<g>
			<path class="st4" d="M126.3,97.2h-9.7v9.7v9.7h9.7c5.4,0,9.7-4.3,9.7-9.7l0,0l0,0C136,101.5,131.7,97.2,126.3,97.2z"/>
			<path class="st4" d="M126.3,77.7h-9.7v9.7v9.7h9.7c5.4,0,9.7-4.3,9.7-9.7l0,0l0,0C136,82.1,131.7,77.7,126.3,77.7z"/>
			<path class="st4" d="M126.3,58.3h-9.7V68v9.7h9.7c5.4,0,9.7-4.3,9.7-9.7l0,0C136,62.6,131.7,58.3,126.3,58.3z"/>
		</g>
		<g>
			<path class="st5" d="M136,106.9L136,106.9c0-5.4-4.3-9.7-9.7-9.7h-9.7v9.7H136z"/>
		</g>
		<g>
			<path class="st5" d="M136,87.4L136,87.4c0-5.4-4.3-9.7-9.7-9.7h-9.7v9.7H136z"/>
		</g>
		<g>
			<path class="st5" d="M136,68L136,68c0-5.4-4.3-9.7-9.7-9.7h-9.7V68H136z"/>
		</g>
	</g>
	<path class="st3" d="M29.1,301.2L29.1,301.2c-5.4,0-9.7-4.4-9.7-9.7V174.9h9.7V301.2z"/>
	<path class="st3" d="M48.6,281.8L48.6,281.8c-5.4,0-9.7-4.4-9.7-9.7v-97.2h9.7V281.8z"/>
	<path class="st3" d="M68,262.3L68,262.3c-5.4,0-9.7-4.4-9.7-9.7v-77.7H68V262.3z"/>
	<path class="st6" d="M0,194.3h145.7l0,0c0-5.4-4.3-9.7-9.7-9.7H9.7C4.3,184.6,0,189,0,194.3L0,194.3z"/>
	<path class="st7" d="M9.7,204H136c5.4,0,9.7-4.3,9.7-9.7l0,0H0l0,0C0,199.7,4.3,204,9.7,204z"/>
	<path class="st0" d="M58.3,184.6h9.8c21.4,0,38.8-17.4,38.8-38.8V28.9c0-16-13-28.9-28.9-28.9H58.3V184.6z"/>
	<path class="st8" d="M77.7,0H58.3v38.9h19.4c10.7,0,19.4-8.7,19.4-19.4v0C97.1,8.7,88.4,0,77.7,0z"/>
	<path class="st4" d="M58.3,29.1H19.4v-9.7C19.4,8.7,28.1,0,38.9,0h19.4V29.1z"/>
	<path class="st9" d="M29.1,29.1h29.1v9.7H38.9C33.5,38.9,29.1,34.5,29.1,29.1L29.1,29.1z"/>
	<polygon class="st4" points="19.4,38.9 19.4,29.1 29.1,29.1 	"/>
	<g>
		<path class="st2" d="M82.9,19.4c-2.7,0-4.9-2.2-4.9-4.9v0c0-0.8,0.2-1.6,0.6-2.3c-0.3,0-0.6-0.1-0.9-0.1c-4,0-7.2,3.2-7.2,7.2
			c0,4,3.2,7.2,7.2,7.2c4,0,7.2-3.2,7.2-7.2c0-0.2,0-0.3,0-0.5C84.3,19.3,83.6,19.4,82.9,19.4L82.9,19.4z"/>
		<path class="st10" d="M78.6,12.3C78.2,13,78,13.7,78,14.6v0c0,2.7,2.2,4.9,4.9,4.9l0,0c0.7,0,1.4-0.2,2.1-0.5
			C84.7,15.5,82,12.7,78.6,12.3z"/>
	</g>
	<rect x="38.9" y="38.9" class="st3" width="19.4" height="19.4"/>
	<polygon class="st3" points="97.1,58.3 106.9,58.3 102,68 	"/>
	<polygon class="st3" points="87.4,58.3 97.1,58.3 92.3,68 	"/>
	<polygon class="st3" points="77.7,58.3 87.4,58.3 82.6,68 	"/>
	<polygon class="st3" points="97.1,68 106.9,68 102,77.7 	"/>
	<polygon class="st3" points="87.4,68 97.1,68 92.3,77.7 	"/>
	<polygon class="st3" points="77.7,68 87.4,68 82.6,77.7 	"/>
	<polygon class="st3" points="97.1,77.7 106.9,77.7 102,87.4 	"/>
	<polygon class="st3" points="87.4,77.7 97.1,77.7 92.3,87.4 	"/>
	<polygon class="st3" points="77.7,77.7 87.4,77.7 82.6,87.4 	"/>
	<polygon class="st3" points="97.1,87.4 106.9,87.4 102,97.1 	"/>
	<polygon class="st3" points="87.4,87.4 97.1,87.4 92.3,97.1 	"/>
	<polygon class="st3" points="77.7,87.4 87.4,87.4 82.6,97.1 	"/>
	<polygon class="st3" points="97.1,97.1 106.9,97.1 102,106.9 	"/>
	<polygon class="st3" points="87.4,97.1 97.1,97.1 92.3,106.9 	"/>
	<polygon class="st3" points="77.7,97.1 87.4,97.1 82.6,106.9 	"/>
	<polygon class="st3" points="97.1,106.9 106.9,106.9 102,116.6 	"/>
	<polygon class="st3" points="87.4,106.9 97.1,106.9 92.3,116.6 	"/>
	<polygon class="st3" points="77.7,106.9 87.4,106.9 82.6,116.6 	"/>
	<polygon class="st3" points="97.1,116.6 106.9,116.6 102,126.3 	"/>
	<polygon class="st3" points="87.4,116.6 97.1,116.6 92.3,126.3 	"/>
	<polygon class="st3" points="77.7,116.6 87.4,116.6 82.6,126.3 	"/>
	<polygon class="st3" points="97.1,126.3 106.9,126.3 102,136 	"/>
	<polygon class="st3" points="87.4,126.3 97.1,126.3 92.3,136 	"/>
	<polygon class="st3" points="77.7,126.3 87.4,126.3 82.6,136 	"/>
	<polygon class="st3" points="97.1,136 106.9,136 102,145.7 	"/>
	<polygon class="st3" points="87.4,136 97.1,136 92.3,145.7 	"/>
	<polygon class="st3" points="77.7,136 87.4,136 82.6,145.7 	"/>
	<polygon class="st3" points="97.1,145.7 106.9,145.7 102,155.4 	"/>
	<polygon class="st3" points="87.4,145.7 97.1,145.7 92.3,155.4 	"/>
	<polygon class="st3" points="77.7,145.7 87.4,145.7 82.6,155.4 	"/>
	<path class="st11" d="M48.7,116.6H19.4V77.7c0-10.7,8.7-19.4,19.4-19.4h19.5c10.7,0,19.4,8.7,19.4,19.4v9.9
		C77.7,103.6,64.7,116.6,48.7,116.6z"/>
	<path class="st6" d="M126.3,184.6h-9.7v-9.7l0,0C121.9,174.9,126.3,179.2,126.3,184.6L126.3,184.6z"/>
	<path class="st7" d="M116.6,184.6h-9.7l0,0c0-5.4,4.3-9.7,9.7-9.7l0,0V184.6z"/>
	<g>
		<path class="st2" d="M29.1,106.9h-9.7V204c0,5.4,4.3,9.7,9.7,9.7c5.4,0,9.7-4.3,9.7-9.7v-97.1H29.1z"/>
		<path class="st2" d="M48.6,106.9h-9.7v77.7c0,5.4,4.3,9.7,9.7,9.7c5.4,0,9.7-4.3,9.7-9.7v-77.7H48.6z"/>
		<path class="st2" d="M68,106.9h-9.7v58.3c0,5.4,4.3,9.7,9.7,9.7c5.4,0,9.7-4.3,9.7-9.7v-58.3H68z"/>
		<g>
			<path class="st1" d="M29.1,213.7L29.1,213.7c-5.4,0-9.7-4.3-9.7-9.7v-97.1h9.7V213.7z"/>
			<path class="st1" d="M48.6,194.3L48.6,194.3c-5.4,0-9.7-4.3-9.7-9.7v-77.7h9.7V194.3z"/>
			<path class="st1" d="M68,174.9L68,174.9c-5.4,0-9.7-4.3-9.7-9.7v-58.3H68V174.9z"/>
		</g>
		<g>
			<path class="st4" d="M68,116.6h-9.7v9.7c0,5.4,4.3,9.7,9.7,9.7l0,0l0,0c5.4,0,9.7-4.3,9.7-9.7v-9.7H68z"/>
			<path class="st4" d="M38.9,116.6v9.7c0,5.4,4.3,9.7,9.7,9.7l0,0l0,0c5.4,0,9.7-4.3,9.7-9.7v-9.7h-9.7H38.9z"/>
			<path class="st4" d="M19.4,116.6v9.7c0,5.4,4.3,9.7,9.7,9.7l0,0l0,0c5.4,0,9.7-4.3,9.7-9.7v-9.7h-9.7H19.4z"/>
		</g>
		<path class="st5" d="M68,136L68,136v-19.4h9.7v9.7C77.7,131.7,73.4,136,68,136z"/>
		<path class="st5" d="M48.6,136L48.6,136l0-19.4h9.7v9.7C58.3,131.7,53.9,136,48.6,136z"/>
		<path class="st5" d="M29.1,136L29.1,136v-19.4h9.7v9.7C38.9,131.7,34.5,136,29.1,136z"/>
		<path class="st0" d="M77.7,116.6H19.4V77.3c0-10.5,8.5-19,19-19h20.2c10.5,0,19,8.5,19,19V116.6z"/>
	</g>
	<g>
		<path class="st4" d="M63.2,174.9L63.2,174.9c-2.7,0-4.9,2.2-4.9,4.9v9.7c0,2.7,2.2,4.9,4.9,4.9l0,0c2.7,0,4.9-2.2,4.9-4.9v-9.7
			C68,177,65.8,174.9,63.2,174.9z"/>
		<path class="st5" d="M72.9,174.9L72.9,174.9c-2.7,0-4.9,2.2-4.9,4.9v9.7c0,2.7,2.2,4.9,4.9,4.9l0,0c2.7,0,4.9-2.2,4.9-4.9v-9.7
			C77.7,177,75.6,174.9,72.9,174.9z"/>
	</g>
	<g>
		<path class="st4" d="M82.6,174.9L82.6,174.9c-2.7,0-4.9,2.2-4.9,4.9v9.7c0,2.7,2.2,4.9,4.9,4.9l0,0c2.7,0,4.9-2.2,4.9-4.9v-9.7
			C87.4,177,85.3,174.9,82.6,174.9z"/>
		<path class="st5" d="M92.3,174.9L92.3,174.9c-2.7,0-4.9,2.2-4.9,4.9v9.7c0,2.7,2.2,4.9,4.9,4.9l0,0c2.7,0,4.9-2.2,4.9-4.9v-9.7
			C97.2,177,95,174.9,92.3,174.9z"/>
	</g>
</g>
</svg>
