<?xml version="1.0" encoding="utf-8"?>
<!-- Generator: Adobe Illustrator 24.0.3, SVG Export Plug-In . SVG Version: 6.00 Build 0)  -->
<svg version="1.1" id="Layer_1" xmlns="http://www.w3.org/2000/svg" xmlns:xlink="http://www.w3.org/1999/xlink" x="0px" y="0px"
	 viewBox="0 0 1001.9 650.5" style="enable-background:new 0 0 1001.9 650.5;" xml:space="preserve">
<style type="text/css">
	.st0{fill-rule:evenodd;clip-rule:evenodd;fill:#D8C8C3;}
	.st1{fill-rule:evenodd;clip-rule:evenodd;fill:#FFFFFF;}
	.st2{fill-rule:evenodd;clip-rule:evenodd;fill:#5F2D78;}
	.st3{fill-rule:evenodd;clip-rule:evenodd;fill:#E54355;}
	.st4{fill-rule:evenodd;clip-rule:evenodd;fill:#F9B9CA;}
	.st5{fill-rule:evenodd;clip-rule:evenodd;fill:#E8697B;}
	.st6{fill-rule:evenodd;clip-rule:evenodd;fill:#F7E0DD;}
	.st7{fill-rule:evenodd;clip-rule:evenodd;fill:#E26174;}
	.st8{fill-rule:evenodd;clip-rule:evenodd;fill:#50404E;}
	.st9{fill-rule:evenodd;clip-rule:evenodd;fill:#EB8B23;}
	.st10{fill-rule:evenodd;clip-rule:evenodd;fill:#B29086;}
	.st11{fill-rule:evenodd;clip-rule:evenodd;fill:#AF1B38;}
	.st12{fill-rule:evenodd;clip-rule:evenodd;fill:#F6CC1B;}
	.st13{fill-rule:evenodd;clip-rule:evenodd;fill:#AF206E;}
	.st14{fill-rule:evenodd;clip-rule:evenodd;fill:#E6EFEE;}
	.st15{fill-rule:evenodd;clip-rule:evenodd;fill:#B2C8C3;}
	.st16{fill-rule:evenodd;clip-rule:evenodd;fill:#3F4468;}
	.st17{fill-rule:evenodd;clip-rule:evenodd;fill:#4F557C;}
	.st18{fill-rule:evenodd;clip-rule:evenodd;fill:#A08B8F;}
	.st19{fill-rule:evenodd;clip-rule:evenodd;fill:#535B86;}
	.st20{fill-rule:evenodd;clip-rule:evenodd;fill:#A06B53;}
	.st21{fill-rule:evenodd;clip-rule:evenodd;fill:#5D5468;}
	.st22{fill-rule:evenodd;clip-rule:evenodd;fill:#931C2E;}
	.st23{fill-rule:evenodd;clip-rule:evenodd;fill:#A31126;}
	.st24{fill-rule:evenodd;clip-rule:evenodd;fill:#C6ADA5;}
	.st25{fill-rule:evenodd;clip-rule:evenodd;fill:#D4BCB4;}
	.st26{fill-rule:evenodd;clip-rule:evenodd;fill:#E89C4F;}
</style>
<g>
	<path class="st0" d="M505.5,94.7c-159.6,0-289.1,129.4-289.1,289.1c0,55,15.4,106.4,42.1,150.2h494c26.7-43.8,42.1-95.2,42.1-150.2
		C794.5,224.1,665.1,94.7,505.5,94.7z"/>
	<path class="st1" d="M235.2,172.3c-3.3,4.6-8.3,8-14.4,9.2c-6,1.2-11.9-0.1-16.8-3.1c3.3-4.6,8.4-8,14.4-9.2
		C224.5,168.1,230.4,169.3,235.2,172.3z"/>
	<path class="st1" d="M236.5,177.3c-5.6,1.2-11.5,0.4-16.8-2.8c-5.3-3.1-8.8-8-10.4-13.5c5.6-1.2,11.5-0.4,16.8,2.8
		C231.4,166.9,234.9,171.8,236.5,177.3z"/>
	<path class="st1" d="M257.1,147.8L257.1,147.8c10.7,0,20,6.1,24.7,15c-17.4,20.7-51.4,15.1-51.4,15.1l-1.2-1v-1.1
		C229.1,160.4,241.7,147.8,257.1,147.8z"/>
	<polygon class="st2" points="739.7,427.2 731.2,450.5 762.4,428.6 752.6,418.2 762.2,411.4 745.5,393.7 731,433.4 	"/>
	<path class="st2" d="M726.2,342.2L726.2,342.2c-15.9,10.6-20,32.1-9.1,47.8l40.4,58.5c10.8,15.7,32.7,19.9,48.5,9.3h0
		c15.9-10.6,20-32.1,9.1-47.8l-40.4-58.5C763.9,335.8,742.1,331.6,726.2,342.2z"/>
	<path class="st2" d="M628.1,319.2L628.1,319.2c-19,3.5-31,21.8-26.7,40.6l15.3,66.9c4.3,18.8,23.4,31.4,42.3,27.8h0
		c19-3.5,31-21.8,26.7-40.6L670.5,347C666.2,328.2,647.1,315.6,628.1,319.2z"/>
	<path class="st3" d="M792.5,402L792.5,402c-19-5.3-38.1,5.7-42.6,24.4l-15.2,64.2c-1.9,8.2-0.8,16.5,2.7,23.8l63.6,2.9
		c1.1-2.3,2-4.7,2.7-7.4l15.2-64.2C823.3,427,811.4,407.3,792.5,402z"/>
	<path class="st4" d="M889.5,367.3L889.5,367.3c10.7-17.4,5.4-40.7-11.8-51.8l-47.1-30.3c-17.2-11.1-40-5.9-50.7,11.5l0,0
		c-10.7,17.4-5.4,40.7,11.8,51.8l47.1,30.3C856,389.9,878.8,384.7,889.5,367.3z"/>
	<path class="st5" d="M775.1,309.2c-2.7,14.9,4,31.2,17.8,40.1l44.6,28.7c11.5,7.4,25.2,8.1,36.5,3c2.7-14.9-4-31.2-17.8-40.1
		l-44.6-28.7C800.1,304.8,786.3,304.2,775.1,309.2z"/>
	<path class="st2" d="M755.9,365.8L755.9,365.8c0.9-20.8-15.3-39.3-36-41.2l-52.2-4.7c-20.7-1.9-38.5,13.6-39.4,34.4v0
		c-0.9,20.8,15.3,39.3,36,41.2l52.2,4.7C737.2,402.1,755,386.6,755.9,365.8z"/>
	<path class="st3" d="M779.8,214.6L779.8,214.6c-20.3,3.9-33,23.6-28.2,43.7l12.4,52.4c4.8,20.1,25.2,33.4,45.5,29.5l0,0
		c20.3-3.9,33-23.6,28.2-43.7l-12.4-52.4C820.6,224,800.1,210.7,779.8,214.6z"/>
	<path class="st1" d="M757.3,280.9l-76.8-3.5c-25.7-1.2-46.8,19-46.8,44.7v0c0,25.8,21,47.8,46.8,49l76.8,3.5
		c25.7,1.2,46.8-19,46.8-44.7v0C804.1,304.1,783,282.1,757.3,280.9z"/>
	<path class="st1" d="M761,238.4l-93.5-4.3c-25.7-1.2-46.8,19-46.8,44.7v0c0,25.8,21,47.8,46.8,49l93.5,4.3
		c25.7,1.2,46.8-19,46.8-44.7v0C807.7,261.6,786.7,239.5,761,238.4z"/>
	<path class="st1" d="M801.6,193.9L673.8,188c-25.7-1.2-46.8,19-46.8,44.7v0c0,25.8,21,47.8,46.8,49l127.8,5.8
		c25.7,1.2,46.8-19,46.8-44.7v0C848.4,217.1,827.3,195,801.6,193.9z"/>
	<path class="st6" d="M633.6,242.5c-4,6.7-6.3,14.7-6.3,23.2v0c0,25.8,21.1,47.8,46.9,49l93.3,4.2c20.9,0.9,38.7-12.1,44.7-30.7
		c-8.1,13.6-23.3,22.3-40.5,21.5l-93.3-4.2c-25.8-1.2-46.9-23.2-46.9-49v0C631.4,251.6,632.2,246.9,633.6,242.5z"/>
	<path class="st6" d="M661.8,216c-4,7.1-6.3,15.3-6.3,23.8v0c0,25.8,21.1,45.7,46.9,44.3l93.3-5.1c20.9-1.2,38.7-16,44.7-35.2
		c-8.1,14.4-23.3,24.7-40.5,25.6l-93.3,5.1c-25.8,1.4-46.9-18.5-46.9-44.3v0C659.6,225.4,660.3,220.6,661.8,216z"/>
	<path class="st6" d="M766.2,192.3l-74.5-3.4c-25.8-1.2-46.9,19-46.9,44.7v0c0,6.3,1.3,12.4,3.5,17.9c-6.1,7.6-9.8,17.4-9.8,28.1v0
		c0,13,5.4,25,14,33.9c-0.6,3-1,6.1-1,9.4v0c0,25.8,21.1,47.8,46.9,49l74.5,3.4c-25.8-1.2-46.9-23.2-46.9-49v0c0-3.2,0.3-6.3,1-9.4
		c-8.6-8.9-14-20.9-14-33.9v0c0-10.7,3.7-20.5,9.8-28.1c-2.3-5.6-3.5-11.7-3.5-17.9v0C719.4,211.2,740.5,191.1,766.2,192.3z"/>
	<path class="st6" d="M634.5,302.4l0,0.5v0c0,25.8,21.1,47.8,46.9,49l76.6,3.5c20.8,0.9,38.5-12,44.6-30.5
		c-8.5,11.7-22.5,19-38.4,18.3l-84.4-3.8C658.2,338.4,639.9,322.7,634.5,302.4z"/>
	<path class="st7" d="M692.1,212.7L692.1,212.7c-14.3-15.8-39-17-54.9-2.8L602,241.6c-15.8,14.3-17.1,38.9-2.7,54.7v0
		c14.3,15.8,39,17,54.9,2.8l35.1-31.7C705.2,253.1,706.4,228.5,692.1,212.7z"/>
	<path class="st5" d="M692.1,212.7L692.1,212.7c-1.8-2-3.8-3.8-5.8-5.3c-6.7,1.1-13.1,4-18.3,8.7l-37.7,34
		c-15.1,13.6-15.8,37.7-1.5,53.5l0,0c1.8,2,3.8,3.8,5.8,5.3c6.7-1.1,13.1-4,18.3-8.7l37.7-34C705.8,252.6,706.4,228.5,692.1,212.7z"
		/>
	<path class="st4" d="M692.9,324.4L692.9,324.4c10.9-17.3,5.8-40.6-11.3-51.8l-46.9-30.8c-17.1-11.2-40-6.2-50.8,11.1v0
		c-10.9,17.3-5.8,40.6,11.3,51.8l46.9,30.8C659.1,346.7,682,341.7,692.9,324.4z"/>
	<path class="st5" d="M598.8,239.6c-6,2.8-11.2,7.2-15,13.2l0,0c-10.9,17.3-5.2,41,12.6,52.7l44.3,29.1c3.4,2.2,6.9,3.8,10.6,4.9
		c6-2.8,11.2-7.2,15-13.2l0,0c10.9-17.3,5.2-41-12.6-52.7l-44.3-29.1C606.1,242.3,602.5,240.7,598.8,239.6z"/>
	<path class="st2" d="M676.9,271.1l-14.1-0.6c-22.2-1-40.4,16.4-40.4,38.6l0,0c0,22.3,18.2,41.3,40.4,42.3l14.1,0.6
		c22.2,1,40.4-16.4,40.4-38.6l0,0C717.3,291.2,699.1,272.1,676.9,271.1z"/>
	<path class="st1" d="M837.1,201.7L837.1,201.7c-9.8-10.8-24.3-15.1-37.3-12.2c10.3,1.2,20.4,6.1,28.1,14.5l0,0
		c14.4,15.9,15.5,39.2,3.5,55.1l4.2-3.8C850.8,241.6,851.5,217.5,837.1,201.7z"/>
	<path class="st2" d="M835.2,329.3l-4.4,8.5c-9.4,18-2.5,40.9,15.3,50.7l0,0c17.8,9.9,40,3.2,49.4-14.9l4.4-8.5
		c9.4-18,2.5-40.9-15.3-50.7l0,0C866.8,304.5,844.6,311.2,835.2,329.3z"/>
	<path class="st5" d="M689.9,245l22.2,11.4c0,0-27.5,4.7-26.8,3C685.9,257.9,689.9,245,689.9,245z"/>
	<path class="st7" d="M690.9,256.2c-3.4-3.2-8.3-7.1-14-11.1c7.2-0.2,13.6-0.8,18.4-1.6c-5.7-0.9-13.7-1.4-22.7-1.3
		c-7.3-4.8-14.2-8.7-19.4-11c3.4,3.2,8.3,7.1,14,11.1c-7.2,0.2-13.6,0.8-18.4,1.6c5.7,0.9,13.7,1.4,22.7,1.3
		C678.8,250,685.7,253.9,690.9,256.2z"/>
	<path class="st5" d="M760.2,281.2l-1.6-0.1c-2.5-0.1-5.1,1.8-5.9,4.2l0,0c-0.8,2.4,0.6,4.5,3.1,4.6l1.6,0.1
		c2.5,0.1,5.1-1.8,5.9-4.2v0C764,283.4,762.7,281.3,760.2,281.2z"/>
	<path class="st2" d="M847.1,334.7l-4.4,8.5c-9.4,18-2.5,40.9,15.3,50.7h0c17.8,9.9,40,3.2,49.4-14.9l4.4-8.5
		c9.4-18,2.5-40.9-15.3-50.7l0,0C878.7,309.9,856.5,316.6,847.1,334.7z"/>
	<path class="st5" d="M763.6,190.7c-20.9-0.9-37.8,15.2-37.8,36.1c0,20.9,16.9,38.6,37.8,39.5c20.9,1,37.8-15.2,37.8-36.1
		C801.4,209.3,784.5,191.6,763.6,190.7z"/>
	<path class="st5" d="M697.6,211.6l-2.4-0.1c-3.8-0.2-6.9,2.8-6.9,6.6l0,0c0,3.8,3.1,7,6.9,7.2l2.4,0.1c3.8,0.2,6.9-2.8,6.9-6.6l0,0
		C704.5,215,701.4,211.8,697.6,211.6z"/>
	<path class="st3" d="M791.9,172.1L791.9,172.1c-12-8.2-28.3-4.9-36.3,7.2l-17.8,27.2c-7.9,12.2-4.6,28.8,7.4,36.9l0,0
		c12,8.2,28.3,4.9,36.3-7.2l17.8-27.2C807.3,196.9,803.9,180.3,791.9,172.1z"/>
	<path class="st2" d="M758.7,175.8c-4.1,3.5-9.6,5.5-15.5,5.1c-6-0.4-11.4-3-15.4-7c4.1-3.5,9.6-5.5,15.5-5.1
		C749.3,169.1,754.7,171.8,758.7,175.8z"/>
	<path class="st2" d="M759,180.8c-8.7-0.4-17.4-3.9-24.3-10.6c-6.9-6.7-10.7-15.3-11.3-24c8.7,0.4,17.4,3.9,24.3,10.6
		C754.5,163.5,758.3,172.1,759,180.8z"/>
	<path class="st5" d="M804,184.3L804,184.3c3.5,0.2,6.2,3.2,5.9,6.7l-0.3,3.9c-0.3,3.5-3.4,6.3-7,6.1l0,0c-3.5-0.2-6.2-3.2-5.9-6.7
		l0.3-3.9C797.3,186.9,800.4,184.1,804,184.3z"/>
	<path class="st2" d="M799.3,181.3L799.3,181.3c4.2,0.2,7.6,3.8,7.6,8v34.5c0,4.2-3.4,7.5-7.6,7.3h0c-4.2-0.2-7.6-3.8-7.6-8v-34.5
		C791.7,184.4,795.1,181.1,799.3,181.3z"/>
	<path class="st7" d="M779.8,158.4L779.8,158.4c13.5,0.6,24.5,12.1,24.5,25.6v27c0,13.5-11,24-24.5,23.4h0
		c-13.5-0.6-24.5-12.1-24.5-25.6v-27C755.3,168.3,766.3,157.8,779.8,158.4z"/>
	<path class="st4" d="M779.8,158.4L779.8,158.4c1.1,0,2.2,0.2,3.3,0.4c4.4,4.6,7.2,10.9,7.2,17.6v41.1c0,6.7-2.7,12.7-7.2,16.9
		c-1.1,0.1-2.1,0.1-3.3,0.1h0c-13.5-0.6-24.5-12.1-24.5-25.6v-27.1C755.3,168.3,766.3,157.8,779.8,158.4z"/>
	<path class="st7" d="M780.5,190.5c-0.5,2.2-2.5,3.8-4.9,3.7l0,0c-2.4-0.1-4.4-1.9-4.9-4.1L780.5,190.5z"/>
	<path class="st5" d="M805.2,250.8c-1.8-0.1-2.8,1.4-2,3.2c0.7,1.9,2.8,3.5,4.6,3.5c1.8,0.1,2.7-1.4,2-3.2
		C809.1,252.5,807,250.9,805.2,250.8z"/>
	<path class="st2" d="M784.5,158L784.5,158c10.2,2.6,17.9,10.7,20.5,20.2c-20.7,15.3-52.1,1.6-52.1,1.6l-1-1.2l0.2-1.1
		C755.4,163.1,769.9,154.3,784.5,158z"/>
	<path class="st8" d="M773.6,159.5c4.8,1.2,6.8,7,4.5,12.8c-2.3,5.9-8,9.6-12.8,8.4c-4.8-1.2-6.8-7-4.5-12.8
		C763.1,162,768.9,158.2,773.6,159.5z"/>
	<g>
		<path class="st9" d="M789.8,169.5c2.5,1,4.7,1.5,3.7,4.4c-1,2.9-3.9,4.4-6.4,3.5c-2.5-1-3.8-4.1-2.8-7
			C785.3,167.3,787.3,168.5,789.8,169.5z"/>
		<path class="st9" d="M782.2,172.9c0.8-0.8,2.7-1,4.1-0.3c1.4,0.6,1.8,1.8,1,2.6c-0.8,0.8-2.7,1-4.1,0.3
			C781.8,174.9,781.4,173.7,782.2,172.9z"/>
		<path class="st9" d="M793.8,177.3c-0.2-1.2-1.5-2.5-2.9-3c-1.5-0.4-2.5,0.2-2.3,1.4c0.2,1.2,1.5,2.5,2.9,3
			C792.9,179.1,794,178.5,793.8,177.3z"/>
		<path class="st9" d="M785.4,175.4c-0.6,0-1.3,0.6-1.6,1.3c-0.3,0.7,0,1.3,0.6,1.3c0.6,0,1.3-0.6,1.6-1.3
			C786.3,176,786,175.4,785.4,175.4z"/>
		<path class="st9" d="M787.2,179.1c0.5-0.2,0.9-1.1,0.9-1.8c-0.1-0.8-0.5-1.2-1.1-0.9c-0.5,0.2-0.9,1.1-0.9,1.8
			C786.2,179,786.7,179.4,787.2,179.1z"/>
		<path class="st9" d="M789.8,177.1c0.5,0.4,0.7,1.3,0.4,2c-0.2,0.7-0.8,1-1.3,0.5c-0.5-0.4-0.7-1.3-0.4-2
			C788.8,176.9,789.4,176.6,789.8,177.1z"/>
		<path class="st2" d="M785.3,171.8c0.7-0.1,1.4,1.4,1.9,2.1c0.5,0.7,0.5,1-0.1,1.1c-0.7,0.1-1.6-0.4-2.1-1.1
			C784.5,173.3,784.7,171.9,785.3,171.8z"/>
		<path class="st2" d="M792,174.4c-0.4-0.5-1.9,0.1-2.7,0.4c-0.8,0.2-1,0.4-0.6,1c0.4,0.5,1.5,0.8,2.3,0.6
			C791.8,176.1,792.5,175,792,174.4z"/>
	</g>
	<path class="st2" d="M786.6,157L786.6,157c10.2,2.6,17.9,10.7,20.5,20.2c-8.6,6.4-19.1,7.7-28.4,7.1c8.2,0,16.9-1.8,24.3-7.3
		c-2.7-9.5-10.4-17.6-20.5-20.2h0c-1.3-0.3-2.6-0.6-4-0.7C781.2,156.1,783.9,156.3,786.6,157z"/>
	<path class="st8" d="M756,177.4c-5.1-0.2-10.3-2.3-14.3-6.3c-4.1-3.9-6.3-9-6.7-14.2c5.1,0.2,10.3,2.3,14.3,6.3
		C753.4,167.1,755.6,172.2,756,177.4z"/>
	<path class="st1" d="M845.2,328.6l-5.7,10.9c-6,11.5-4.9,25.1,1.7,35.9c-4.2-9.8-4.2-21.2,0.9-31l5.7-10.9
		c9.1-17.4,31-23.5,48.8-13.7l0,0c6,3.3,10.9,8.1,14.2,13.7c-3.2-7.6-9-14.3-16.8-18.6l0,0C876.2,305,854.2,311.2,845.2,328.6z"/>
	<path class="st1" d="M780,190.5c-0.3,1.5-1.7,2.6-3.3,2.5l0,0c-1.6-0.1-3-1.3-3.3-2.8L780,190.5z"/>
	<path class="st2" d="M779.2,193.8l7.2,0.3c15.5,0.7,28.2,14,28.2,29.6v0c0,15.5-12.7,27.7-28.2,27l-7.2-0.3
		c-15.5-0.7-28.2-14-28.2-29.6v0C751,205.2,763.7,193.1,779.2,193.8z"/>
	<path class="st3" d="M791.5,190.8c0.5,2,2.2,3.5,4.3,3.6l0,0c2.1,0.1,3.8-1.3,4.3-3.2L791.5,190.8z"/>
	<path class="st1" d="M792,190.9c0.3,1.4,1.5,2.4,2.9,2.5l0,0c1.4,0.1,2.6-0.9,2.9-2.2L792,190.9z"/>
	<path class="st2" d="M758.6,179.5L758.6,179.5c4.2,0.2,7.6,3.8,7.6,8V222c0,4.2-3.4,7.5-7.6,7.3h0c-4.2-0.2-7.6-3.8-7.6-8v-34.5
		C751,182.6,754.5,179.3,758.6,179.5z"/>
	<path class="st4" d="M749.1,184.7L749.1,184.7c5,0.2,9.9,4.5,10.9,9.5l0.1,0.5c1.1,5-2.1,8.9-7.1,8.7h0c-4.9-0.2-9.9-4.5-10.9-9.5
		l-0.1-0.5C741,188.4,744.2,184.5,749.1,184.7z"/>
	<path class="st7" d="M751.5,189.8L751.5,189.8c2.3,0.1,4.5,2.1,5,4.3l0,0.2c0.5,2.3-1,4.1-3.2,4h0c-2.3-0.1-4.5-2.1-5-4.3l0-0.2
		C747.8,191.5,749.3,189.7,751.5,189.8z"/>
	<path class="st2" d="M781.6,196.4l7.1,0.3c15.5,0.7,28.3,14,28.3,29.6l0,0c0,15.5-12.6,27.5-28,27c12.1-2.7,21-13.3,21-26.4v0
		c0-15.5-12.7-28.8-28.3-29.6l-7.1-0.3l-0.3,0C776.6,196.5,779.1,196.3,781.6,196.4z"/>
	<path class="st5" d="M658.4,395.9L658.4,395.9c-19-5.3-38.1,5.7-42.6,24.4l-15.2,64.2c-1.9,8.2-0.8,16.5,2.7,23.8l63.6,2.9
		c1.1-2.3,2.1-4.7,2.7-7.3l15.2-64.2C689.3,420.9,677.4,401.2,658.4,395.9z"/>
	<path class="st3" d="M669.8,503l15-63.4c4.1-17.2-5.6-35.2-21.8-42.2c-4.4,4.3-7.7,9.8-9.2,16.3l-15.2,64.2
		c-1.9,8.2-0.8,16.5,2.7,23.8L669.8,503z"/>
	<path class="st2" d="M783.3,476.2c-21.5-1-38.9,15.6-38.9,37.1c0,1,0,2,0.1,3.1c0.3,3.2,2.9,5.8,6.2,6l65.2,3
		c3.2,0.1,5.9-2.2,6.2-5.4c0.1-1,0.1-2,0.1-3.1C822.2,495.4,804.8,477.2,783.3,476.2z"/>
	<path class="st2" d="M750.8,496.5c-11.6-0.5-21.1,8.5-21.1,20.1c0,0.6,0,1.1,0.1,1.7c0.1,1.8,1.6,3.2,3.3,3.2l35.4,1.6
		c1.8,0.1,3.2-1.2,3.3-2.9c0-0.6,0.1-1.1,0.1-1.7C771.9,506.9,762.4,497.1,750.8,496.5z"/>
	<path class="st2" d="M646.3,469.9c-21.5-1-38.9,15.6-38.9,37.1c0,1,0,2,0.1,3.1c0.3,3.2,2.9,5.8,6.2,6l65.2,3
		c3.2,0.1,5.9-2.2,6.2-5.4c0.1-1,0.1-2,0.1-3.1C685.2,489.1,667.7,470.9,646.3,469.9z"/>
	<path class="st2" d="M613.8,490.3c-11.6-0.5-21.1,8.5-21.1,20.1c0,0.6,0,1.1,0.1,1.7c0.1,1.8,1.6,3.2,3.3,3.3l35.4,1.6
		c1.8,0.1,3.2-1.2,3.3-2.9c0-0.6,0.1-1.1,0.1-1.7C634.8,500.7,625.4,490.8,613.8,490.3z"/>
	<path class="st2" d="M669.6,280.6l-9.1,5.2c-19.7,11.2-26.3,36.4-14.6,55.9l0,0c11.7,19.5,37.4,26.2,57.1,15l9.1-5.2
		c19.7-11.2,26.3-36.4,14.6-55.9l0,0C715.1,276.1,689.4,269.3,669.6,280.6z"/>
	<path class="st3" d="M775.3,200.2c4.9,0.2,9.3,2.8,12,6.6c-6.3,1.4-11,7-11,13.9c0,3.3,1.1,6.4,2.9,8.9c-1.2,0.3-2.5,0.4-3.9,0.3
		c-8.2-0.4-14.9-7.3-14.9-15.6C760.4,206.1,767.1,199.8,775.3,200.2z"/>
	<path class="st1" d="M779.9,229.4c-1.4,0.4-3,0.6-4.6,0.5c-7.9-0.4-14.3-6.7-14.8-14.5c1.4-0.4,3-0.6,4.6-0.5
		C772.9,215.3,779.4,221.7,779.9,229.4z"/>
	<path class="st1" d="M775.3,200.2c5.3,0.2,10,3.3,12.7,7.6c-2.6,2.2-6.1,3.4-9.8,3.3c-5.3-0.2-10-3.3-12.7-7.6
		C768.1,201.2,771.6,200,775.3,200.2z"/>
	<path class="st2" d="M792.7,186.6l9.3-1c1.2-0.1,2.3,0.8,2.3,2l0,0c0,1.3-1,2.4-2.3,2.5l-9.3,1c-1.2,0.1-2.3-0.8-2.3-2l0,0
		C790.5,187.9,791.5,186.7,792.7,186.6z"/>
	<path class="st2" d="M780.3,185.6l-10.7-2.1c-1.4-0.3-2.5,0.7-2.5,2.1v0c0,1.4,1.1,2.8,2.5,3.1l10.7,2.1c1.4,0.3,2.5-0.7,2.5-2.1v0
		C782.8,187.3,781.6,185.9,780.3,185.6z"/>
	<path class="st10" d="M487.4,489.4c-242.2-6.6-439,11.5-439.5,40.4c-0.5,28.9,195.5,57.7,437.8,64.3c242.2,6.6,439-11.5,439.5-40.4
		C925.7,524.7,729.7,496,487.4,489.4z"/>
	<g>
		<path class="st2" d="M111.6,448.5c-1.1-0.1-2,0.7-2.1,1.8c-0.1,1.1,0.7,2,1.8,2.1c0,0,6.6,0.4,10.9,10.3c5.2,12.3,18.7,12,18.7,12
			c1.1,0,1.9-0.9,1.9-1.9c0-1.1-0.9-1.9-1.9-1.9c0,0-11,0.2-15.2-9.7C120.5,449.1,111.7,448.5,111.6,448.5z"/>
		<path class="st2" d="M128.5,482c-5.7,16.6,3,34.6,19.6,40.4c16.5,5.7,34.6-3,40.4-19.6c5.7-16.6-3-34.6-19.6-40.4
			C152.3,456.7,134.2,465.4,128.5,482z"/>
		<path class="st2" d="M125,462.7L125,462.7c-2.5,3-2.1,7.5,0.9,10l6.8,5.6c3,2.5,7.5,2.1,10-0.9v0c2.5-3,2.1-7.5-0.9-10l-6.8-5.6
			C132,459.3,127.5,459.7,125,462.7z"/>
	</g>
	<g>
		<path class="st8" d="M248.6,430.7c0-1.2-1-2.2-2.2-2.2c-1.2,0-2.2,1-2.2,2.2c0,0,0.2,7.4-10.4,13.1c-13.1,7-11.5,22-11.5,22
			c0.1,1.2,1.2,2.1,2.4,2c1.2-0.1,2.1-1.2,2-2.4c0,0-1.3-12.2,9.2-17.8C248.8,440.6,248.6,430.7,248.6,430.7z"/>
		<path class="st8" d="M213,452.7c-19-4.7-38.2,6.8-43,25.8c-4.7,19,6.8,38.2,25.8,43c19,4.7,38.2-6.8,43-25.8
			C243.5,476.7,232,457.5,213,452.7z"/>
		<path class="st8" d="M234.1,446.9L234.1,446.9c-3.6-2.5-8.6-1.6-11,2l-5.6,8.2c-2.5,3.6-1.6,8.6,2,11v0c3.6,2.5,8.6,1.6,11-2
			l5.6-8.2C238.6,454.3,237.7,449.4,234.1,446.9z"/>
	</g>
	<path class="st2" d="M466,490.6c-208.3,0-377.2,15.6-377.2,34.9c0,19.3,168.9,34.9,377.2,34.9c208.3,0,377.2-15.6,377.2-34.9
		C843.1,506.2,674.3,490.6,466,490.6z"/>
	<path class="st2" d="M344,393.9L344,393.9c18.1-4.4,38.7,7.3,45.9,26l24.7,64c2.1,5.4,2.8,10.8,2.4,15.9H349l-24.7-64
		C317.1,417.2,326,398.3,344,393.9z"/>
	<path class="st2" d="M399.3,334.4L399.3,334.4c17.3,11.2,23.2,35,13.1,53l-25.3,45c-10.1,18-32.6,23.6-49.9,12.4l0,0
		c-17.3-11.2-23.2-35-13.1-53l25.3-45C359.5,328.9,382,323.3,399.3,334.4z"/>
	<path class="st2" d="M237.3,390.4L237.3,390.4c19.2-4.4,36.7,7.3,38.9,26l7.4,64.1c0.9,8.1-1.2,16.3-5.5,23.3h-62.7
		c-0.9-2.3-1.5-4.8-1.8-7.4l-7.4-64C204.1,413.7,218.1,394.8,237.3,390.4z"/>
	<path class="st2" d="M306.6,334.4L306.6,334.4c14.3,11.2,16.5,31.7,4.9,45.7l-49.7,59.7c-11.6,14-32.8,16.2-47.2,5.1l0,0
		c-14.3-11.2-16.5-31.7-4.9-45.7l49.7-59.7C271.1,325.6,292.3,323.3,306.6,334.4z"/>
	<path class="st4" d="M202,399.3L202,399.3c-20.4-3.1-34.5-22.2-31.4-42.6l7.6-50.7c3.1-20.4,22.2-34.5,42.6-31.4h0
		c20.4,3.1,34.5,22.2,31.4,42.6l-7.6,50.7C241.5,388.2,222.4,402.4,202,399.3z"/>
	<path class="st5" d="M233.5,279c13.2,7.4,21.1,22.5,18.7,38.2l-7.6,50.7c-2,13.1-10.6,23.6-21.9,28.6
		c-13.2-7.4-21.1-22.5-18.7-38.2l7.6-50.7C213.6,294.5,222.2,284,233.5,279z"/>
	<path class="st2" d="M248.2,363.1L248.2,363.1c-3.2-19.8,10.2-40.4,29.7-45.6l54.6-14.8c19.5-5.3,38,6.6,41.2,26.5l0,0
		c3.2,19.8-10.2,40.3-29.7,45.6l-54.6,14.8C269.9,394.8,251.4,382.9,248.2,363.1z"/>
	<path class="st3" d="M257.6,206.1L257.6,206.1c20,4.8,32.5,25.1,27.7,45.1l-11.9,49.8c-4.8,20-25.1,32.5-45.1,27.7l0,0
		c-20-4.8-32.5-25.1-27.7-45.1l11.9-49.8C217.3,213.8,237.6,201.4,257.6,206.1z"/>
	<path class="st1" d="M279.9,272.5h75.6c25.4,0,46.3,20.8,46.3,46.3v0c0,25.4-20.8,46.3-46.3,46.3h-75.6
		c-25.4,0-46.3-20.8-46.3-46.3v0C233.7,293.4,254.5,272.5,279.9,272.5z"/>
	<path class="st1" d="M276.3,230.4h92.1c25.4,0,46.3,20.8,46.3,46.3v0c0,25.4-20.8,46.3-46.3,46.3h-92.1
		c-25.4,0-46.3-20.8-46.3-46.3v0C230.1,251.2,250.9,230.4,276.3,230.4z"/>
	<path class="st1" d="M236.2,184.7h126c25.4,0,46.3,20.8,46.3,46.3v0c0,25.4-20.8,46.3-46.3,46.3h-126c-25.4,0-46.3-20.8-46.3-46.3
		v0C190,205.5,210.8,184.7,236.2,184.7z"/>
	<path class="st6" d="M401.9,240.2c4,6.8,6.3,14.7,6.3,23.2v0c0,25.4-20.8,46.3-46.3,46.3h-92.1c-20.6,0-38.2-13.6-44.1-32.3
		c8,13.8,23,23.1,40,23.1h92.1c25.4,0,46.3-20.8,46.3-46.3l0,0C404.1,249.3,403.3,244.6,401.9,240.2z"/>
	<path class="st6" d="M374.1,207.7c4,6.8,6.3,14.7,6.3,23.2l0,0c0,25.4-20.8,46.3-46.3,46.3h-92.1c-20.6,0-38.2-13.6-44.1-32.3
		c8,13.8,23,23.1,40,23.1H330c25.4,0,46.3-20.8,46.3-46.3v0C376.3,216.8,375.5,212.1,374.1,207.7z"/>
	<path class="st6" d="M271,184.7h73.5c25.4,0,46.3,20.8,46.3,46.3l0,0c0,6.2-1.2,12.1-3.5,17.5c6,7.8,9.7,17.6,9.7,28.2v0
		c0,12.8-5.3,24.5-13.8,32.9c0.6,3,0.9,6.1,0.9,9.3v0c0,25.4-20.8,46.3-46.3,46.3h-73.5c25.4,0,46.3-20.8,46.3-46.3v0
		c0-3.2-0.3-6.3-0.9-9.3c8.5-8.4,13.8-20,13.8-32.9v0c0-10.6-3.6-20.4-9.7-28.2c2.2-5.4,3.5-11.3,3.5-17.5l0,0
		C317.3,205.5,296.5,184.7,271,184.7z"/>
	<path class="st6" d="M401,299.3l0,0.5v0c0,25.4-20.8,46.3-46.3,46.3h-75.6c-20.5,0-38-13.5-44-32.1c8.4,11.9,22.3,19.8,37.9,19.8
		h83.3C377.7,333.7,395.7,319,401,299.3z"/>
	<path class="st7" d="M344.2,208.2L344.2,208.2c14.2-14.9,38-15.6,52.9-1.4l37.2,35.2c14.9,14.2,15.6,38,1.4,52.9h0
		c-14.1,14.9-38,15.6-52.9,1.4l-37.2-35.2C330.7,246.9,330.1,223.1,344.2,208.2z"/>
	<path class="st5" d="M344.2,208.2L344.2,208.2c1.8-1.9,3.7-3.5,5.8-5c6.6,1.4,12.9,4.5,18.1,9.4l37.2,35.2
		c14.9,14.1,15.6,38,1.4,52.9l0,0c-1.8,1.9-3.7,3.5-5.8,5c-6.6-1.4-12.9-4.5-18.1-9.4l-37.2-35.2
		C330.7,246.9,330.1,223.1,344.2,208.2z"/>
	<path class="st4" d="M341.3,331.2L341.3,331.2c-11.6-19-5.6-44.1,13.5-55.7l47.4-28.9c19-11.6,44.1-5.6,55.7,13.5l0,0
		c11.6,19,5.6,44.1-13.5,55.7L397,344.7C378,356.3,352.9,350.2,341.3,331.2z"/>
	<path class="st7" d="M441.8,245.2c6.4,3.3,12,8.3,16,14.8l0,0c11.6,19,5.6,44.1-13.5,55.7L397,344.7c-3.6,2.2-7.4,3.8-11.3,4.7
		c-6.4-3.3-12-8.3-16-14.8l0,0c-11.6-19-5.6-44.1,13.5-55.7l47.4-28.9C434.1,247.7,437.9,246.1,441.8,245.2z"/>
	<path class="st8" d="M356.7,280.9h13.8c22,0,39.9,18,39.9,39.9v0c0,22-18,39.9-39.9,39.9h-13.8c-22,0-39.9-18-39.9-39.9v0
		C316.7,298.8,334.7,280.9,356.7,280.9z"/>
	<path class="st7" d="M355.2,265.3c-0.2-6.4,0.3-15.3,1.6-25.2c1.3-9.9,3.1-18.6,4.9-24.8c0.2,6.4-0.3,15.3-1.6,25.2
		C358.9,250.4,357.1,259.2,355.2,265.3z"/>
	<path class="st11" d="M369.6,263c-3.7-5.2-8.2-13-12.6-21.9c-4.4-8.9-7.7-17.2-9.6-23.3c3.7,5.2,8.2,13,12.6,21.9
		C364.4,248.5,367.7,256.8,369.6,263z"/>
	<path class="st8" d="M195.2,333.5h12.3c19.7,0,35.8,16.1,35.8,35.8l0,0c0,19.7-16.1,35.8-35.8,35.8h-12.3
		c-19.7,0-35.8-16.1-35.8-35.8l0,0C159.4,349.6,175.5,333.5,195.2,333.5z"/>
	<path class="st5" d="M357.1,390.2h4.1c6.5,0,11.8,5.3,11.8,11.8v0c0,6.5-5.3,11.8-11.8,11.8h-4.1c-6.5,0-11.8-5.3-11.8-11.8v0
		C345.3,395.5,350.6,390.2,357.1,390.2z"/>
	<path class="st5" d="M335.7,402.1h1.2c1.8,0,3.4,1.5,3.4,3.4v0c0,1.8-1.5,3.4-3.4,3.4h-1.2c-1.8,0-3.4-1.5-3.4-3.4v0
		C332.3,403.6,333.8,402.1,335.7,402.1z"/>
	<path class="st5" d="M246.1,284.6h1.5c2.4,0,5.1,2,5.8,4.4l0,0c0.8,2.4-0.6,4.4-3,4.4h-1.5c-2.4,0-5.1-2-5.8-4.4l0,0
		C242.3,286.6,243.7,284.6,246.1,284.6z"/>
	<path class="st8" d="M358.3,466.8c21.1,0,40.8,17.1,44,38.2c0.2,1,0.3,2,0.3,3c0.2,3.2-2,5.6-5.2,5.6h-64c-3.2,0-6.2-2.4-6.9-5.6
		c-0.2-1-0.4-2-0.6-3C322.6,483.9,337.2,466.8,358.3,466.8z"/>
	<path class="st8" d="M142.2,268c0.2-1.2,1.3-2.1,2.5-1.9c1.2,0.2,2.1,1.3,1.9,2.5c0,0-1.2,7.6,9,14.8c12.5,8.9,9,24,9,24.1
		c-0.3,1.2-1.5,2-2.7,1.7c-1.2-0.3-2-1.5-1.7-2.7c0,0,2.9-12.3-7.2-19.5C140.6,278.1,142.2,268,142.2,268z"/>
	<path class="st2" d="M181.1,301.4c20.1-2.4,38.3,11.9,40.7,32c2.4,20.1-11.9,38.3-32,40.7c-20.1,2.4-38.3-11.9-40.7-32
		C146.7,322,161,303.8,181.1,301.4z"/>
	<path class="st2" d="M160.2,292.6L160.2,292.6c4-2.1,9-0.5,11.1,3.5l4.7,9.1c2.1,4,0.5,9-3.5,11h0c-4,2.1-9,0.5-11-3.5l-4.7-9.1
		C154.6,299.7,156.2,294.7,160.2,292.6z"/>
	<path class="st8" d="M169.2,313.6c8.2-1,15.7,4.9,16.7,13.1c1,8.2-4.9,15.7-13.1,16.7c-8.2,1-15.7-4.9-16.7-13.1
		C155.1,322,161,314.6,169.2,313.6z"/>
	<path class="st12" d="M142.1,251.9c3.9,2.5,5.2,7.6,3,11.4c-0.7,1.2-1.6,2.1-2.7,2.7c0.1-2.9-1.4-5.9-4.1-7.6
		c-3.9-2.5-5.2-7.6-3-11.4c0.7-1.2,1.6-2.1,2.7-2.7C137.9,247.2,139.4,250.2,142.1,251.9z"/>
	<path class="st1" d="M141.1,253.6c1.8,1.2,2.5,3.6,1.4,5.3c-0.3,0.5-0.8,1-1.3,1.3c0-1.4-0.6-2.8-1.9-3.6c-1.8-1.2-2.5-3.6-1.4-5.4
		c0.3-0.5,0.8-1,1.3-1.3C139.1,251.4,139.8,252.8,141.1,253.6z"/>
	<path class="st12" d="M131.1,278.1c1.6-0.2,3,0.9,3.2,2.5c0.2,1.6-0.9,3-2.5,3.2c-1.6,0.2-3-0.9-3.2-2.5
		C128.4,279.7,129.5,278.3,131.1,278.1z"/>
	<path class="st2" d="M663.1,4.5L663.1,4.5c-3.2,0-5.5,2.6-5.2,5.8l53.6,456.2c0.4,3.2,3.3,5.8,6.5,5.8h0c3.2,0,5.5-2.6,5.2-5.8
		L669.6,10.4C669.2,7.1,666.3,4.5,663.1,4.5z"/>
	<path class="st12" d="M115,294.6c0.7-0.1,1.3,0.4,1.3,1.1c0.1,0.7-0.4,1.3-1.1,1.4c-0.7,0.1-1.3-0.4-1.3-1.1
		C113.8,295.3,114.3,294.6,115,294.6z"/>
	<path class="st12" d="M153.3,259.3c1.4-0.2,2.7,0.8,2.9,2.3c0.2,1.4-0.8,2.7-2.3,2.9c-1.4,0.2-2.7-0.8-2.9-2.3
		C150.9,260.8,151.9,259.5,153.3,259.3z"/>
	<path class="st12" d="M158.7,269.8c0.5-0.1,0.9,0.3,0.9,0.7c0.1,0.5-0.3,0.9-0.7,0.9c-0.5,0.1-0.9-0.3-0.9-0.7
		C157.9,270.3,158.2,269.9,158.7,269.8z"/>
	<path class="st12" d="M145.4,248.7c0.7-0.1,1.3,0.4,1.4,1.1c0.1,0.7-0.4,1.3-1.1,1.4c-0.7,0.1-1.3-0.4-1.4-1.1
		C144.2,249.4,144.7,248.8,145.4,248.7z"/>
	<path class="st12" d="M151.4,242.6c0.3,0,0.7,0.2,0.7,0.6c0,0.3-0.2,0.7-0.6,0.7c-0.3,0-0.7-0.2-0.7-0.6
		C150.8,242.9,151.1,242.6,151.4,242.6z"/>
	<path class="st12" d="M160.9,225.8c0.3,0,0.7,0.2,0.7,0.6c0,0.3-0.2,0.7-0.6,0.7c-0.3,0-0.7-0.2-0.7-0.6
		C160.3,226.1,160.5,225.8,160.9,225.8z"/>
	<path class="st12" d="M130,258c0.7-0.1,1.3,0.4,1.4,1.1c0.1,0.7-0.4,1.3-1.1,1.4c-0.7,0.1-1.3-0.4-1.4-1.1
		C128.8,258.7,129.3,258,130,258z"/>
	<path class="st12" d="M117.6,246.6c3.4-0.4,6.5,2,6.9,5.4c0.4,3.4-2,6.5-5.4,6.9c-3.4,0.4-6.5-2-6.9-5.4
		C111.8,250.1,114.2,247,117.6,246.6z"/>
	<path class="st12" d="M150.2,269.3c0.7-0.1,1.3,0.4,1.4,1.1c0.1,0.7-0.4,1.3-1.1,1.4c-0.7,0.1-1.3-0.4-1.4-1.1
		C149,270,149.5,269.4,150.2,269.3z"/>
	<path class="st12" d="M171.5,272.4c0.5-0.1,0.9,0.3,0.9,0.7c0.1,0.5-0.3,0.9-0.7,0.9c-0.5,0.1-0.9-0.3-0.9-0.7
		C170.8,272.8,171.1,272.4,171.5,272.4z"/>
	<path class="st12" d="M139.8,296c0.5-0.1,0.9,0.3,0.9,0.7c0.1,0.5-0.3,0.9-0.7,0.9c-0.5,0.1-0.9-0.3-0.9-0.7
		C139,296.5,139.3,296.1,139.8,296z"/>
	<path class="st12" d="M178.3,297.6c8.9-1.1,17.4,1.1,24.3,5.7c-6-2.8-12.7-4-19.7-3.1c-20.1,2.4-34.4,20.6-32,40.7
		c1.3,11.2,7.6,20.6,16.4,26.3c-11.1-5.2-19.4-15.8-21-28.9C143.9,318.3,158.2,300,178.3,297.6z"/>
	<path class="st2" d="M194.2,346.2h12.3c19.7,0,35.8,16.1,35.8,35.8l0,0c0,19.7-16.1,35.8-35.8,35.8h-12.3
		c-19.7,0-35.8-16.1-35.8-35.8l0,0C158.4,362.3,174.5,346.2,194.2,346.2z"/>
	<path class="st9" d="M382.7,221c6.4-2.1,11.4-4.7,13.9,2.7c0.5,1.5,0.8,3,0.8,4.5c2,0.2,3.8,0.9,5,2c2.1,2.2,1.1,5.1-2.4,6.6
		c-0.9,0.4-1.9,0.6-3,0.8c0.5,0.6,1,1.3,1.3,2c0.6,1.8-0.1,3.2-1.6,3.1c-1.5-0.1-3.3-1.6-3.9-3.4l0-0.1c-0.3,0.2-0.6,0.5-1,0.7
		c1,1.4,1.3,3.4,0.7,4.6c-0.7,1.4-2.3,1.3-3.5-0.1c-0.7-0.8-1.2-1.9-1.3-3c-0.4,0.1-0.8,0.1-1.2,0.1l0,0c0.6,1.8,0.1,4.1-1.1,5.1
		c-1.2,1-2.6,0.3-3.2-1.5c-0.3-0.8-0.3-1.7-0.2-2.5c-0.9,0.5-1.8,0.9-2.8,1.2c-3.7,1-6.3-0.7-5.9-3.7c0.2-1.5,1-3,2.3-4.3
		c-0.9-1.3-1.7-2.8-2.2-4.4C370.7,224.1,376.2,223.1,382.7,221L382.7,221z M377.6,233c-1.1,1.3,0.6,4.2,2.7,4.9
		c2,0.7,4.6,0.2,5.7-1.1c1.1-1.3,0.6-1.8-1.5-2.5C382.4,233.6,378.7,231.7,377.6,233L377.6,233z M394.5,227.4
		c-1.7-0.4-3.5,3.4-4.7,5.1c-1.2,1.8-1.3,2.5,0.3,2.9c1.7,0.4,4-0.8,5.2-2.5C396.5,231.1,396.1,227.7,394.5,227.4z"/>
	<path class="st5" d="M341.1,203L341.1,203c9.7-10.3,24-13.8,36.8-10.4c-10.2,0.7-20.2,5.1-27.7,13.1h0c-14.2,15-15.3,38-3.5,54.2
		l-4.2-4C327.6,241.7,327,217.9,341.1,203z"/>
	<path class="st5" d="M279.6,183.5c20.6,0,37.3,16.7,37.3,37.3c0,20.6-16.7,37.3-37.3,37.3c-20.6,0-37.3-16.7-37.3-37.3
		C242.3,200.2,259,183.5,279.6,183.5z"/>
	<path class="st5" d="M317.5,244.5h2.3c3.7,0,6.8,3.1,6.8,6.8v0c0,3.7-3.1,6.8-6.8,6.8h-2.3c-3.7,0-6.8-3.1-6.8-6.8v0
		C310.7,247.6,313.8,244.5,317.5,244.5z"/>
	<path class="st3" d="M245.7,163.6L245.7,163.6c11.8-7.5,27.7-4,35.2,7.9l18.7,29.5c7.5,11.8,4,27.7-7.9,35.2l0,0
		c-11.8,7.5-27.7,4-35.2-7.9l-18.7-29.5C230.3,187,233.8,171.2,245.7,163.6z"/>
	<path class="st2" d="M239.6,173.2c-3,4.2-7.6,7.2-13,8.3c-5.4,1.1-10.8-0.1-15.2-2.8c3-4.2,7.6-7.2,13-8.3
		C229.8,169.4,235.2,170.5,239.6,173.2z"/>
	<path class="st2" d="M240.8,177.7c-5,1.1-10.5,0.3-15.2-2.5c-4.8-2.8-8-7.3-9.4-12.2c5-1.1,10.5-0.3,15.2,2.5
		C236.1,168.3,239.3,172.8,240.8,177.7z"/>
	<path class="st5" d="M283.2,176.2L283.2,176.2c3.5,0,6.1,2.9,5.9,6.3l-0.5,7c-0.2,3.5-3.3,6.3-6.8,6.3h0c-3.5,0-6.1-2.9-5.9-6.3
		l0.5-7C276.7,179,279.7,176.2,283.2,176.2z"/>
	<path class="st7" d="M259.3,151.7L259.3,151.7c13.3,0,24.2,10.9,24.2,24.2v26.7c0,13.3-10.9,24.2-24.2,24.2h0
		c-13.3,0-24.2-10.9-24.2-24.2v-26.7C235.2,162.5,246,151.7,259.3,151.7z"/>
	<path class="st4" d="M259.3,151.7L259.3,151.7c1.1,0,2.2,0.1,3.2,0.2c4.4,4.4,7.1,10.4,7.1,17v40.5c0,6.6-2.7,12.7-7.1,17
		c-1.1,0.1-2.1,0.2-3.2,0.2l0,0c-13.3,0-24.2-10.9-24.2-24.2v-26.7C235.2,162.5,246,151.7,259.3,151.7z"/>
	<path class="st7" d="M250.1,195.2c-1.1-4-0.6-8.5,1.6-12.4c2.2-3.9,5.8-6.6,9.8-7.8c-2.6,2.6-5,5.8-7,9.4
		C252.5,187.9,251,191.6,250.1,195.2z"/>
	<path class="st7" d="M258.2,181.8c-0.6,2.4-2.9,3.9-5.6,3.5l0,0c-2.7-0.5-5-2.8-5.6-5.4L258.2,181.8z"/>
	<path class="st5" d="M232.6,240.7c1.8,0,2.7,1.5,2,3.3c-0.7,1.8-2.8,3.3-4.6,3.3c-1.8,0-2.7-1.5-2-3.3
		C228.7,242.2,230.8,240.7,232.6,240.7z"/>
	<path class="st5" d="M225.4,225.2c1.2,0,1.9,1,1.4,2.2c-0.5,1.2-1.9,2.2-3.1,2.2c-1.2,0-1.9-1-1.4-2.2
		C222.8,226.2,224.2,225.2,225.4,225.2z"/>
	<path class="st7" d="M262.7,205.1h6.6c6.4,0,11.6,5.2,11.6,11.6l0,0c0,6.4-5.2,11.6-11.6,11.6h-6.6c-6.4,0-11.6-5.2-11.6-11.6l0,0
		C251.1,210.3,256.4,205.1,262.7,205.1z"/>
	<path class="st4" d="M254.7,208.1h6.5c5,0,9.1,4.1,9.1,9.1l0,0c0,5-4.1,9.1-9.1,9.1h-6.5c-5,0-9.1-4.1-9.1-9.1l0,0
		C245.6,212.2,249.7,208.1,254.7,208.1z"/>
	<path class="st2" d="M259.4,151L259.4,151c9.7,0,18.1,5.5,22.4,13.6c-15.7,18.8-46.6,13.7-46.6,13.7l-1.1-0.9v-1
		C234.1,162.4,245.5,151,259.4,151z"/>
	<path class="st4" d="M230.8,176.2L230.8,176.2c3.5,0,6.8,2.9,7.2,6.3l1,7c0.5,3.5-2,6.3-5.4,6.3h0c-3.5,0-6.8-2.9-7.2-6.3l-1-7
		C224.9,179,227.3,176.2,230.8,176.2z"/>
	<path class="st7" d="M232.5,181.5L232.5,181.5c1.6,0,3.1,1.3,3.3,2.9l0.5,3.2c0.2,1.6-0.9,2.9-2.5,2.9l0,0c-1.6,0-3.1-1.3-3.3-2.9
		l-0.5-3.2C229.8,182.8,230.9,181.5,232.5,181.5z"/>
	<path class="st8" d="M249.9,154.9c4.5,0,7.5,4.7,6.5,10.6c-0.9,5.9-5.4,10.6-9.9,10.6c-4.5,0-7.5-4.7-6.5-10.6
		C240.9,159.6,245.3,154.9,249.9,154.9z"/>
	<g>
		<path class="st9" d="M260.8,163.4c2.2-1.2,3.9-2.4,5.2,0.2c1.3,2.6,0.6,5.6-1.6,6.7c-2.2,1.2-5.1,0-6.4-2.5
			C256.7,165.2,258.6,164.5,260.8,163.4z"/>
		<path class="st9" d="M258.5,170.9c0-1.1,1-2.5,2.2-3.1c1.3-0.6,2.3-0.1,2.4,1c0,1.1-1,2.5-2.2,3.1
			C259.6,172.5,258.5,172,258.5,170.9z"/>
		<path class="st9" d="M268.5,165.6c-0.9-0.7-2.6-0.6-3.8,0.2c-1.2,0.7-1.4,1.9-0.5,2.5c0.9,0.7,2.6,0.6,3.8-0.2
			C269.2,167.4,269.4,166.2,268.5,165.6z"/>
		<path class="st9" d="M262.1,170.3c-0.4,0.4-0.4,1.3-0.1,1.9c0.3,0.6,0.9,0.8,1.3,0.4c0.4-0.4,0.4-1.3,0.1-1.9
			C263,170,262.5,169.9,262.1,170.3z"/>
		<path class="st9" d="M265.7,171.4c0.2-0.5-0.1-1.3-0.7-1.8c-0.5-0.4-1.1-0.4-1.3,0.2c-0.2,0.5,0.1,1.3,0.7,1.8
			C265,172,265.6,171.9,265.7,171.4z"/>
		<path class="st9" d="M265.9,168.2c0.6-0.1,1.3,0.4,1.6,1c0.3,0.6,0.2,1.2-0.4,1.2c-0.6,0.1-1.3-0.4-1.6-1
			C265.2,168.8,265.4,168.3,265.9,168.2z"/>
		<path class="st2" d="M259.7,168c0.3-0.5,1.8-0.1,2.6,0.1c0.8,0.1,1,0.3,0.7,0.8c-0.3,0.5-1.2,0.9-2,0.7
			C260.1,169.5,259.3,168.6,259.7,168z"/>
		<path class="st2" d="M265.5,165c-0.6,0-1.1,1.4-1.4,2.2c-0.3,0.7-0.3,1,0.3,1c0.6,0,1.4-0.5,1.8-1.2
			C266.5,166.2,266.1,165,265.5,165z"/>
	</g>
	<path class="st13" d="M232,193.1c2,1.1,3.4,3.2,3.4,5.7c0,3.5-2.9,6.4-6.4,6.4c-3.5,0-6.4-2.9-6.4-6.4c0-2.4,1.4-4.6,3.4-5.7
		c-1.1,0.9-1.7,2.2-1.7,3.7c0,2.6,2.1,4.8,4.8,4.8c2.6,0,4.8-2.1,4.8-4.8C233.7,195.3,233.1,194,232,193.1z"/>
	<path class="st1" d="M189.1,204.1L189.1,204.1c9.7-10.3,24-13.8,36.8-10.4c-10.2,0.7-20.2,5.1-27.7,13.1h0
		c-14.2,15-15.3,38-3.5,54.2l-4.2-4C175.6,242.8,174.9,219,189.1,204.1z"/>
	<path class="st2" d="M261.1,149.6L261.1,149.6c9.7,0,18.1,5.5,22.4,13.6c-6.5,7.8-15.7,11.5-24.2,13.1c7.4-1.9,14.9-5.6,20.5-12.3
		c-4.2-8-12.7-13.6-22.4-13.6h0c-1.3,0-2.5,0.1-3.7,0.3C256,150,258.5,149.6,261.1,149.6z"/>
	<path class="st8" d="M238.6,176.2c-3,0.6-6.2,0.2-9-1.5c-2.8-1.7-4.7-4.3-5.6-7.2c3-0.6,6.2-0.2,9,1.5
		C235.9,170.6,237.8,173.2,238.6,176.2z"/>
	<path class="st1" d="M191.1,341.8h12.3c13,0,24.5,7,30.7,17.5c-6.6-8-16.5-13.1-27.7-13.1h-12.3c-19.7,0-35.8,16.1-35.8,35.8v0
		c0,6.7,1.9,13,5.1,18.3c-5.1-6.2-8.2-14.1-8.2-22.7v0C155.3,357.9,171.4,341.8,191.1,341.8z"/>
	<path class="st1" d="M257.6,181.7c-0.4,1.7-2,2.7-3.8,2.4l0,0c-1.8-0.3-3.4-1.9-3.8-3.7L257.6,181.7z"/>
	<path class="st1" d="M614.6,519.4c94.2,0,170.6,7.2,170.6,16.2s-76.4,16.2-170.6,16.2c-94.2,0-170.6-7.2-170.6-16.2
		S520.4,519.4,614.6,519.4z"/>
	<path class="st2" d="M276.9,172.7c3.8,0,6.9,4.3,6.9,9.6c0,5.3-3.1,9.6-6.9,9.6c-3.8,0-6.9-4.3-6.9-9.6
		C270,177.1,273.1,172.7,276.9,172.7z"/>
	<path class="st2" d="M268.7,170.5c8.9,0,16.2,9.1,16.2,20.4c0,0.3,0,0.6,0,0.9c-1.4-10.6-10.4-18.9-20.8-18.9
		c-1.2,0-2.3,0.1-3.4,0.3C263.1,171.5,265.8,170.5,268.7,170.5z"/>
	<path class="st12" d="M160.2,314.2c4.9-0.6,9.4,2.9,10,7.8c0.6,4.9-2.9,9.4-7.8,10c-4.9,0.6-9.4-2.9-10-7.8
		C151.8,319.3,155.3,314.8,160.2,314.2z"/>
	<path class="st1" d="M155.2,317.1c2.1-0.3,4.1,1.3,4.3,3.4c0.3,2.1-1.3,4.1-3.4,4.3c-2.1,0.3-4.1-1.3-4.3-3.4
		C151.5,319.3,153.1,317.3,155.2,317.1z"/>
	<path class="st9" d="M113.1,227l20.1,21.1C133.2,248.1,128.3,235.5,113.1,227z"/>
	<path class="st9" d="M97.2,266.1l45.7,5.6C142.8,271.7,120.2,262.1,97.2,266.1z"/>
	<path class="st9" d="M161.8,249.1l-15.6,17.3C146.3,266.4,151.7,255.2,161.8,249.1z"/>
	<g>
		<path class="st12" d="M313.3,305.4L313.3,305.4c3.8-6.1,11.9-8.1,18-4.3l63.5,39.1c6.1,3.8,8.1,11.9,4.3,18l0,0
			c-3.8,6.1-11.9,8.1-18,4.3l-63.5-39.1C311.4,319.7,309.5,311.6,313.3,305.4z"/>
		<path class="st14" d="M341.1,307.1c-40.1,17.2-87.5,17.3-127.9-3.6c-40.4-21-64.7-58.3-69.3-98.7L341.1,307.1z"/>
		<path class="st15" d="M325.2,298.9c-29.5,12.7-64.3,12.7-94-2.7c-29.7-15.4-47.6-42.8-50.9-72.6L325.2,298.9z"/>
		<path class="st12" d="M392.5,359.2l4.4-7.1c2.6-4.2,8.1-5.5,12.3-2.9l0,0c4.2,2.6,5.5,8.1,2.9,12.3l-4.4,7.1
			c-2.6,4.2-8.1,5.5-12.3,2.9l0,0C391.3,368.9,390,363.3,392.5,359.2z"/>
		<path class="st12" d="M302.7,316.1l15.4-25c2.6-4.2,8.1-5.5,12.3-2.9l0,0c4.2,2.6,5.5,8.1,2.9,12.3l-15.4,25
			c-2.6,4.2-8.1,5.5-12.3,2.9l0,0C301.5,325.8,300.2,320.3,302.7,316.1z"/>
		<path class="st2" d="M312.8,320l7.4-12.1c11.9-19.3,37.3-25.3,56.6-13.4l0,0c19.3,11.9,25.3,37.3,13.4,56.6l-7.4,12.1
			c-11.9,19.3-37.3,25.3-56.6,13.4l0,0C307,364.7,301,339.2,312.8,320z"/>
		<path class="st12" d="M308.8,316.7l8.3-13.5c1.2-2,2.6-3.8,4-5.6c-8.8,20.6-1.4,45.2,18.2,57.3l0,0c19.6,12.1,44.9,7.6,59.4-9.5
			c-0.9,2.1-1.9,4.1-3.2,6.1l-8.3,13.5c-13.3,21.6-41.8,28.4-63.4,15.1l0,0C302.3,366.8,295.5,338.2,308.8,316.7z"/>
	</g>
	<g>
		<path class="st13" d="M448.4,119.8c25.2-21.3,68.1-12.1,95.8,20.7c17.2,20.3,24.6,44.9,21.7,65.8c-1.8-16.4-9.1-33.8-21.9-48.8
			c-21.6-25.5-52.4-36.8-76.9-30.4c-1.9-4.3-4.4-9.3-4.4-9.3l-3.2,12c-4,1.8-7.8,4.1-11.3,7.1c-9.5,8.1-15.2,19.4-16.9,32.2
			C429.2,149.5,434.8,131.3,448.4,119.8z"/>
		<path class="st3" d="M465.6,160.5c10.4-19.8,39.7-24.9,65.5-11.4c16,8.4,26.9,22,30.3,35.8c-5.3-9.9-14.3-18.9-26.1-25.1
			c-9.8-5.1-20-7.6-29.6-7.6l-1.6-4.3l-2.4,4.5c-1.6,0.1-3.3,0.3-4.8,0.6l-3.1-6.2c0,0-1,3.7-1.8,7.3c-9.7,2.8-17.7,8.6-22.1,17.1
			c-3.9,7.5-4.6,16.1-2.5,24.5C461.1,184,460,171.2,465.6,160.5z"/>
	</g>
	<path class="st16" d="M519.3,250.4L519.3,250.4c37.5,0,63.2,30.7,57.2,68.1l-11.7,73.4c-6,37.5-41.5,68.1-79,68.1l0,0
		c-37.5,0-63.2-30.6-57.2-68.1l11.7-73.4C446.3,281.1,481.9,250.4,519.3,250.4z"/>
	<g>
		<path class="st1" d="M517.1,357.6l16.6,63.7c4.1,15.9-5.5,32.3-21.4,36.5l0,0c-15.9,4.1-32.3-5.5-36.5-21.4l-16.6-63.7
			c-4.1-15.9,5.5-32.3,21.4-36.5l0,0C496.5,332,512.9,341.7,517.1,357.6z"/>
		<path class="st2" d="M505.7,458.7c-0.9,0-1.8,0-2.7,0c-7-3.8-12.4-10.4-14.6-18.7l-16.6-63.7c-3-11.4,1.1-23,9.5-30.2
			c-3.9-2.1-8.2-3.4-12.7-3.7c3.3-2.9,7.4-5.1,11.9-6.2l0,0c0.5-0.1,1.1-0.3,1.6-0.4c3.5,0.9,6.8,2.4,9.8,4.4
			c0.4-0.1,0.9-0.3,1.4-0.4l0,0c3.1-0.8,6.2-1.1,9.2-0.9c2.1,1.1,4,2.5,5.8,4.2c-2.1,0.1-4.3,0.4-6.5,0.9l0,0
			c-1.4,0.4-2.8,0.8-4.1,1.4c2.9,3.3,5,7.3,6.2,11.8l16.6,63.7c3.4,12.9-2.4,26.2-13.2,32.9c5.3-7,7.4-16.3,5.1-25.5l-16.6-63.7
			c-1.3-5.1-3.9-9.6-7.3-13.1c-7.4,7.3-10.8,18.2-8.1,28.9l16.6,63.7C498.5,450,501.6,454.9,505.7,458.7z"/>
		<path class="st2" d="M500.4,444c7.3-1.9,14.8,2.5,16.8,9.8c1.9,7.3-2.5,14.8-9.8,16.8c-7.3,1.9-14.8-2.5-16.8-9.8
			C488.6,453.4,493,445.9,500.4,444z"/>
		<path class="st1" d="M500.1,453.5c7.3-1.9,14.8,2.5,16.8,9.8c1.1,4.3,3.2,12.6-0.5,14.9c-2.6,1.5-12.4-7.5-15.4-6.7
			c-7.4,2-14.3,8-16.2,0.7C482.8,464.8,492.7,455.4,500.1,453.5z"/>
	</g>
	<path class="st1" d="M651.8,304.8l47.7-18.6c6.3-2.5,13.5,0.7,16,7l0,0c2.5,6.3-0.7,13.5-7,16l-47.7,18.6c-6.3,2.5-13.5-0.7-16-7v0
		C642.4,314.4,645.5,307.3,651.8,304.8z"/>
	<path class="st1" d="M609.2,200L609.2,200c13.3,0,24.1,10.9,24.1,24.1v4.3c0,4.9-1.5,9.5-4,13.3c0.7,2.5,1.1,5.2,1.1,8v21.9
		c0,5-1.3,9.7-3.5,13.7l16.7,16.2c10.2,9.9,10.4,26.2,0.4,36.3l0,0c-10,10.1-26.5,10.3-36.7,0.4l-41.1-39.7
		c-10.2-9.9-10.4-26.2-0.4-36.3l0,0c2-2,4.2-3.6,6.6-4.8v-7.7c0-9.9,5-18.6,12.6-23.9v-1.7C585.1,210.8,595.9,200,609.2,200z"/>
	<path class="st2" d="M521.7,187.3h24c14.6,0,26.6,12,26.6,26.6v0c0,14.6-12,26.6-26.6,26.6h-24c-14.6,0-26.6-12-26.6-26.6v0
		C495.1,199.3,507.1,187.3,521.7,187.3z"/>
	<path class="st17" d="M533,213.9l54.1,17.8c19.3,6.4,30,27.4,23.6,46.7l0,0c-6.4,19.3-27.4,30-46.7,23.6l-54.1-17.8
		c-19.3-6.4-30-27.4-23.6-46.7l0,0C492.7,218.1,513.7,207.5,533,213.9z"/>
	<path class="st2" d="M544.5,172h24c14.6,0,26.6,12,26.6,26.6v0c0,14.6-12,26.6-26.6,26.6h-24c-14.6,0-26.6-12-26.6-26.6v0
		C517.9,184,529.8,172,544.5,172z"/>
	<path class="st7" d="M569.6,271.4L569.6,271.4c10-10.1,26.5-10.3,36.7-0.4l41.1,39.7c10.2,9.9,10.4,26.2,0.4,36.3v0
		c-10,10.1-26.5,10.3-36.7,0.4L570,307.7C559.8,297.8,559.6,281.5,569.6,271.4z"/>
	<path class="st3" d="M644.3,349.9c-10,7.1-24.1,6.3-33.2-2.5L570,307.7c-3.8-3.7-6.2-8.2-7.2-13c10-7.1,24.1-6.3,33.2,2.5
		l41.1,39.7C640.9,340.6,643.3,345.1,644.3,349.9z"/>
	<path class="st6" d="M574.3,344l23.1,61.3c5.8,15.4-2.1,32.7-17.4,38.4h0c-15.4,5.8-32.7-2.1-38.4-17.4l-23-61.3
		c-5.8-15.4,2.1-32.7,17.4-38.4l0,0C551.2,320.8,568.5,328.6,574.3,344z"/>
	<path class="st1" d="M574.3,344l23.1,61.3c2.8,7.4,2.4,15.2-0.4,22c-14.3,3.2-29.2-4.5-34.5-18.6l-23-61.3
		c-2.8-7.4-2.4-15.2,0.4-22C554,322.2,569,329.9,574.3,344z"/>
	<path class="st2" d="M536.5,354.9l25.1,67.2c0,0-6.3,6.6-6.6,5.1c-0.3-1.6-27-68.3-27-68.3L536.5,354.9z"/>
	<polygon class="st2" points="563.9,350.2 585.8,412.4 577.9,414.8 556.5,354.3 	"/>
	<path class="st6" d="M482.1,291.4h56.9c20.4,0,37,16.7,37,37l0,0c0,20.4-16.7,37-37,37h-56.9c-20.4,0-37-16.7-37-37l0,0
		C445.1,308.1,461.8,291.4,482.1,291.4z"/>
	<path class="st16" d="M504.1,269.4h56.9c20.4,0,37,16.7,37,37l0,0c0,20.4-16.7,37-37,37h-56.9c-20.4,0-37-16.7-37-37l0,0
		C467.1,286.1,483.8,269.4,504.1,269.4z"/>
	<path class="st1" d="M558.4,219c15.6,0,28.3,12.7,28.3,28.3c0,15.6-12.7,28.3-28.3,28.3c-15.6,0-28.3-12.7-28.3-28.3
		C530.1,231.7,542.8,219,558.4,219z"/>
	<path class="st7" d="M547.9,226.5l23.7-33.8c7.8-11.1,23.2-13.8,34.4-6.1l0,0c11.1,7.8,13.8,23.2,6.1,34.4l-23.7,33.8
		c-7.8,11.1-23.2,13.8-34.4,6.1l0,0C542.8,253.1,540.1,237.6,547.9,226.5z"/>
	<path class="st5" d="M547.9,226.5l23.7-33.8c2.6-3.8,6.2-6.6,10.1-8.3c6,8.3,6.4,19.8,0.3,28.7l-23.7,33.8
		c-2.6,3.8-6.2,6.6-10.1,8.3C542.2,246.9,541.7,235.3,547.9,226.5z"/>
	<path class="st2" d="M604.4,194.8L604.4,194.8c13.3,0,24.1,10.9,24.1,24.1v4.2c0,13.3-10.9,24.1-24.1,24.1h0
		c-13.3,0-24.1-10.9-24.1-24.1V219C580.2,205.7,591.1,194.8,604.4,194.8z"/>
	<path class="st3" d="M592.5,182.5L592.5,182.5c15.3,0,27.8,12.5,27.8,27.8v1.2c0,15.3-12.5,27.8-27.8,27.8h0
		c-15.3,0-27.8-12.5-27.8-27.8v-1.2C564.7,195,577.2,182.5,592.5,182.5z"/>
	<path class="st7" d="M586.4,238.6c-12.4-2.8-21.7-13.9-21.7-27.1v-1.2c0-13.2,9.3-24.3,21.7-27.1c12.4,2.8,21.7,13.9,21.7,27.1v1.2
		C608.2,224.7,598.8,235.8,586.4,238.6z"/>
	<path class="st2" d="M596.6,215.5L596.6,215.5c15.9,0,29,13,29,29v21.9c0,15.9-13,29-29,29h0c-15.9,0-29-13-29-29v-21.9
		C567.7,228.6,580.7,215.5,596.6,215.5z"/>
	<path class="st2" d="M573,202.2L573,202.2c4.1,0,7.5,3.4,7.5,7.5V221c0,4.1-3.4,7.5-7.5,7.5l0,0c-4.1,0-7.5-3.4-7.5-7.5v-11.4
		C565.5,205.5,568.9,202.2,573,202.2z"/>
	<path class="st7" d="M560.6,206.3L560.6,206.3c4.8,0,9.2,3.9,9.9,8.7l0.1,0.4c0.7,4.8-2.7,8.7-7.5,8.7h0c-4.8,0-9.2-3.9-9.9-8.7
		l-0.1-0.4C552.5,210.2,555.8,206.3,560.6,206.3z"/>
	<path class="st18" d="M587.3,221.4h8.4c2.9,0,5.2,2.3,5.2,5.2v0c0,2.9-2.3,5.2-5.2,5.2h-8.4c-2.9,0-5.2-2.3-5.2-5.2v0
		C582.2,223.8,584.5,221.4,587.3,221.4z"/>
	<path class="st1" d="M600.9,227.6c-0.5,2.4-2.6,4.2-5.1,4.2h-8.4c-1.1,0-2-0.3-2.9-0.9c0.5-2.4,2.6-4.2,5.1-4.2h8.4
		C599.1,226.7,600.1,227.1,600.9,227.6z"/>
	<path class="st2" d="M487.5,384.6L487.5,384.6c4.6,1.1,7.4,5.8,6.2,10.3l-28.5,115.2c-1.1,4.6-5.8,7.4-10.3,6.2h0
		c-4.6-1.1-7.4-5.8-6.2-10.3l28.5-115.2C478.3,386.3,483,383.4,487.5,384.6z"/>
	<path class="st19" d="M497.3,320.3v22.2c0,17.8-14.6,32.4-32.4,32.4h0c-17.8,0-32.4-14.6-32.4-32.4v-22.2
		c0-17.8,14.6-32.4,32.4-32.4h0C482.7,287.9,497.3,302.5,497.3,320.3z"/>
	<path class="st2" d="M491.7,363L491.7,363c9.8,2.4,15.9,12.5,13.5,22.3l-9.7,39.2c-2.4,9.8-12.5,15.9-22.3,13.5h0
		c-9.8-2.4-15.9-12.5-13.5-22.3l9.7-39.2C471.8,366.6,481.9,360.5,491.7,363z"/>
	<path class="st2" d="M575,256.4h24c14.6,0,26.6,12,26.6,26.6v0c0,14.6-12,26.6-26.6,26.6h-24c-14.6,0-26.6-12-26.6-26.6v0
		C548.4,268.4,560.3,256.4,575,256.4z"/>
	<path class="st2" d="M491.1,253.9l90.5,50c5,2.8,6.9,9.2,4.1,14.2l0,0c-2.8,5-9.2,6.9-14.2,4.1l-90.5-50c-5-2.8-6.9-9.2-4.1-14.2v0
		C479.6,253,486,251.1,491.1,253.9z"/>
	<path class="st19" d="M502.2,200.7L502.2,200.7c17.5-1.5,33.1,11.7,34.5,29.2l3.7,44.6c1.5,17.5-11.7,33.1-29.2,34.5h0
		c-17.5,1.5-33.1-11.7-34.5-29.2l-3.7-44.6C471.6,217.7,484.7,202.2,502.2,200.7z"/>
	<path class="st2" d="M495,268.2L495,268.2c3.2,0.8,5.2,4.1,4.4,7.3l-22.7,91.9c-0.8,3.2-4.1,5.2-7.3,4.4l0,0
		c-3.2-0.8-5.2-4.1-4.4-7.3l22.7-91.9C488.5,269.4,491.8,267.4,495,268.2z"/>
	<path class="st16" d="M508.6,200.8c14.8,1.7,26.9,13.7,28.2,29.1l3.7,44.6c0.7,8.3-1.9,16.2-6.7,22.3
		c-14.8-1.7-26.9-13.7-28.2-29.1l-3.7-44.6C501.2,214.8,503.8,207,508.6,200.8z"/>
	<path class="st2" d="M470.3,358.6l16.6,4.1c5.6,1.4,9,7.1,7.6,12.7l0,0c-1.4,5.6-7.1,9-12.7,7.7l-16.6-4.1c-5.6-1.4-9-7.1-7.6-12.7
		l0,0C459,360.6,464.7,357.2,470.3,358.6z"/>
	
		<ellipse transform="matrix(0.7071 -0.7071 0.7071 0.7071 -56.8177 446.1972)" class="st1" cx="510.2" cy="291.7" rx="36.6" ry="36.6"/>
	<path class="st7" d="M507.7,269.9L507.7,269.9c14.2-1,26.7,9.8,27.8,23.9l4.6,57c1.2,14.1-9.5,26.5-23.6,27.5h0
		c-14.2,1-26.7-9.8-27.8-23.9l-4.6-57C482.9,283.3,493.5,270.9,507.7,269.9z"/>
	<path class="st5" d="M507.7,269.9L507.7,269.9c1.7-0.1,3.4-0.1,5.1,0.1c3.4,4,5.7,9.1,6.2,14.7l4.6,57c1.2,14.1-9.5,26.5-23.6,27.5
		l0,0c-1.7,0.1-3.4,0.1-5.1-0.1c-3.4-4-5.7-9.1-6.2-14.7l-4.6-57C482.9,283.3,493.5,270.9,507.7,269.9z"/>
	<path class="st7" d="M508.5,343.4h10.8c17.3,0,31.4,14.1,31.4,31.4v0c0,17.3-14.1,31.4-31.4,31.4h-10.8
		c-17.3,0-31.4-14.1-31.4-31.4v0C477.1,357.5,491.2,343.4,508.5,343.4z"/>
	<path class="st2" d="M528.7,373l16.6,4.1c5.6,1.4,9,7.1,7.6,12.7v0c-1.4,5.6-7.1,9-12.7,7.7l-16.6-4.1c-5.6-1.4-9-7.1-7.6-12.7v0
		C517.4,375.1,523.1,371.7,528.7,373z"/>
	<path class="st1" d="M548.1,163.7c11.1-42.2,39.6-52.2,59-29.9v75H505.9c-3,0-5.5-3.1-5.5-7c0-3.9,2.4-7.1,5.4-7.2
		c5.9-0.2,13.3-2.2,18.8-4.6C534.8,185.6,544.5,177.6,548.1,163.7z"/>
	<path class="st2" d="M556.8,166.2c14.7-56,59.7-56,74.4,0c3.7,14.1,13.5,22.1,23.9,26.6c5.6,2.4,13.1,4.4,19.1,4.6
		c3,0.1,5.5,3.4,5.4,7.3c0,3.9-2.5,7.1-5.6,7.1H514c-3,0-5.5-3.2-5.6-7.1c0-3.9,2.4-7.2,5.4-7.3c6-0.2,13.4-2.2,19.1-4.6
		C543.3,188.3,553.1,180.3,556.8,166.2z"/>
	<path class="st8" d="M591.9,137.7c10.8,0,19.6,15.8,19.6,35.3c0,19.5-8.8,35.3-19.6,35.3c-10.8,0-19.6-15.8-19.6-35.3
		C572.3,153.5,581.1,137.7,591.9,137.7z"/>
	<g>
		<path class="st9" d="M603.9,171.5c5,0,9-0.6,9.2,5.1c0.2,5.7-3.7,10.4-8.7,10.4c-5,0-9.2-4.7-9.3-10.4
			C594.8,170.9,598.9,171.5,603.9,171.5z"/>
		<path class="st9" d="M593.1,182.6c0.9-2,3.9-3.5,6.7-3.3c2.8,0.2,4.3,1.9,3.4,4c-0.9,2-3.9,3.5-6.7,3.3
			C593.8,186.4,592.2,184.7,593.1,182.6z"/>
		<path class="st9" d="M615.7,182.6c-1.1-2-4.2-3.4-6.9-3.2c-2.8,0.2-4.2,2-3.1,4c1.1,2,4.2,3.4,6.9,3.2
			C615.4,186.4,616.8,184.6,615.7,182.6z"/>
		<path class="st9" d="M600.2,184.9c-1,0.4-1.9,1.9-1.8,3.3c0,1.4,0.9,2.2,1.9,1.8c1-0.4,1.9-1.9,1.8-3.3
			C602.1,185.3,601.2,184.5,600.2,184.9z"/>
		<path class="st9" d="M605.7,190.2c0.8-0.8,0.9-2.5,0.3-3.8c-0.6-1.3-1.7-1.7-2.5-0.9c-0.8,0.8-0.9,2.5-0.3,3.8
			C603.8,190.6,604.9,191,605.7,190.2z"/>
		<path class="st9" d="M608.8,184.8c1.1,0.4,2,1.9,2,3.3c0.1,1.4-0.7,2.2-1.8,1.8c-1.1-0.4-2-1.9-2-3.3
			C607,185.2,607.8,184.4,608.8,184.8z"/>
		<path class="st2" d="M597.7,178.7c1.1-0.6,3.3,1.5,4.6,2.5c1.3,0.9,1.6,1.5,0.5,2.1c-1.1,0.6-3,0.4-4.3-0.5
			C597.3,181.8,596.7,179.4,597.7,178.7z"/>
		<path class="st2" d="M610.8,178.7c-1.1-0.6-3.2,1.5-4.4,2.5c-1.2,0.9-1.5,1.5-0.4,2.1c1.1,0.6,3,0.4,4.2-0.5
			C611.5,181.8,611.9,179.4,610.8,178.7z"/>
	</g>
	<path class="st16" d="M456.7,372.6c-9-5.8-15-15.9-15-27.3v-22.2c0-14.2,9.2-26.3,22-30.6c-8.3,5.9-13.7,15.5-13.7,26.4v33.9
		C450,360.3,452.5,367.1,456.7,372.6z"/>
	<path class="st1" d="M616.7,211.9c-0.7,1.4-2.1,2.4-3.8,2.4c-1.7,0-3.1-1-3.8-2.4H616.7z"/>
	<path class="st1" d="M593.8,211.9c-0.7,1.4-2.1,2.4-3.8,2.4c-1.7,0-3.1-1-3.8-2.4H593.8z"/>
	<path class="st2" d="M602.3,417.9l23,61.3c5.8,15.4-2.1,32.7-17.4,38.4h0c-15.4,5.8-32.7-2.1-38.4-17.4l-23-61.3
		c-5.8-15.4,2.1-32.7,17.4-38.4h0C579.2,394.7,596.5,402.5,602.3,417.9z"/>
	<path class="st8" d="M650.7,476c6.1,10.1-5.1,28.2-25,40.3c-20,12.1-41.2,13.8-47.3,3.7c-6.1-10.1,5.1-28.2,25-40.3
		C623.3,467.5,644.5,465.8,650.7,476z"/>
	<path class="st2" d="M651.6,484.5c6.1,10.1-5.1,28.2-25,40.3c-20,12.1-41.2,13.8-47.3,3.7c-6.1-10.1,5.1-28.2,25-40.3
		C624.3,476,645.5,474.4,651.6,484.5z"/>
	<path class="st1" d="M484,296.4c-6.8-5.3-11.5-13.3-12.2-22.5l-3.7-44.6c-1.4-16.7,10.5-31.6,26.8-34.2c-12.3,5.3-20.4,18-19.2,32
		l3.7,44.6c0.5,5.9,2.6,11.4,5.9,15.9C484.3,290.3,483.8,293.3,484,296.4z"/>
	<path class="st5" d="M490.7,238.8c2.7,0,4.8,3,4.8,6.8c0,3.7-2.2,6.8-4.8,6.8c-2.7,0-4.8-3-4.8-6.8
		C485.9,241.8,488,238.8,490.7,238.8z"/>
	<path class="st5" d="M496.8,225.3c1.1,0,2,1.3,2,2.9c0,1.6-0.9,2.9-2,2.9c-1.1,0-2-1.3-2-2.9C494.8,226.6,495.7,225.3,496.8,225.3z
		"/>
	<path class="st2" d="M725.8,551.9c12.3-4.1-10.2-11.3-50.2-16.2c-40.1-4.9-82.5-5.5-94.8-1.5c-12.3,4.1,10.2,11.3,50.2,16.2
		C671.1,555.3,713.5,556,725.8,551.9z"/>
	<path class="st12" d="M588.9,223.9L588.9,223.9c-1.3-1-3.2-0.7-4.2,0.7l-58.5,80c-1,1.3-0.7,3.2,0.7,4.2l0,0c1.3,1,3.2,0.7,4.2-0.7
		l58.5-80C590.5,226.8,590.2,224.9,588.9,223.9z"/>
	<path class="st12" d="M536.6,280.6h-19.5c-2.3,0-4.3,1.9-4.3,4.3v24.6c0,7.7,6.3,14,14,14l0,0c7.7,0,14-6.3,14-14v-24.6
		C540.9,282.6,538.9,280.6,536.6,280.6z"/>
	<path class="st20" d="M531.6,286.4c-3,0-5.5,2.5-5.5,5.5c0,3,2.5,5.5,5.5,5.5c3,0,5.5-2.5,5.5-5.5
		C537.1,288.9,534.7,286.4,531.6,286.4z"/>
	<path class="st20" d="M524.5,284.8c-1.1,0-2.1,0.9-2.1,2.1c0,1.1,0.9,2.1,2.1,2.1c1.1,0,2.1-0.9,2.1-2.1
		C526.6,285.7,525.6,284.8,524.5,284.8z"/>
	<path class="st2" d="M613.6,355.6l24.2-38.8c3.2-5.1,10-6.7,15.2-3.5h0c5.1,3.2,6.7,10,3.5,15.2l-24.2,38.8
		c-3.2,5.1-10,6.7-15.2,3.5h0C612,367.6,610.4,360.8,613.6,355.6z"/>
	<path class="st5" d="M650,323.5L650,323.5c13.4,0,22.5,11,20.1,24.4l-0.5,2.7c-2.4,13.4-15.3,24.4-28.8,24.4h0
		c-13.4,0-22.5-11-20.1-24.4l0.5-2.7C623.6,334.5,636.6,323.5,650,323.5z"/>
	<path class="st8" d="M656.5,324.3l32.9-12.8c4.4-1.7,9.3,0.5,11,4.8l0,0c1.7,4.4-0.5,9.3-4.8,11l-32.9,12.8
		c-4.4,1.7-9.3-0.5-11-4.8v0C649.9,331,652.1,326,656.5,324.3z"/>
	<path class="st21" d="M656.7,306.8l47.7-18.6c6.3-2.5,13.5,0.7,16,7l0,0c2.5,6.3-0.7,13.5-7,16l-47.7,18.6c-6.3,2.5-13.5-0.7-16-7
		l0,0C647.2,316.5,650.4,309.3,656.7,306.8z"/>
	<path class="st8" d="M716.8,309.1c-1,0.9-2.2,1.6-3.5,2.1l-47.7,18.6c-6.2,2.4-13.1-0.5-15.8-6.5c1-0.9,2.2-1.6,3.5-2.1l47.7-18.6
		C707.2,300.2,714.2,303.1,716.8,309.1z"/>
	<path class="st8" d="M714,277.1c7.2,0,13.1,9.2,13.1,20.5c0,11.3-5.9,20.5-13.1,20.5c-7.2,0-13.1-9.2-13.1-20.5
		C701,286.2,706.8,277.1,714,277.1z"/>
	<path class="st2" d="M717.7,282.4c4.9,0,8.9,6.3,8.9,14c0,7.7-4,14-8.9,14c-4.9,0-8.9-6.3-8.9-14
		C708.8,288.7,712.8,282.4,717.7,282.4z"/>
	<path class="st5" d="M668.4,325.7l9,5.9c3.4,2.2,4.4,6.9,2.1,10.3l0,0c-2.2,3.4-6.9,4.4-10.3,2.1l-9-5.9c-3.4-2.2-4.4-6.9-2.1-10.3
		l0,0C660.3,324.4,664.9,323.4,668.4,325.7z"/>
	<path class="st8" d="M670.5,322c4.3,2,5.6,9.1,2.9,16.1c-2.8,7.2-8.8,11.6-13.4,9.8c-2.1-0.8-3.5-2.7-4.2-5.2
		c0.1,0.1,0.3,0.1,0.4,0.2c4.6,1.8,10.6-2.6,13.4-9.8C671.1,329.1,671.4,325.1,670.5,322z"/>
	<path class="st5" d="M633.1,307.5L633.1,307.5c6.1,0,10.4,5,9.6,11.1l-1.2,8.5c-0.8,6.1-6.5,11.1-12.6,11.1h0
		c-6.1,0-10.4-5-9.6-11.1l1.2-8.5C621.3,312.5,627,307.5,633.1,307.5z"/>
	<path class="st1" d="M711.7,273.9c2.2,0,4.2,0.8,6,2.3c-0.4-0.1-0.9-0.1-1.4-0.1c-7.2,0-13.1,9.2-13.1,20.5
		c0,7.9,2.9,14.8,7.1,18.2c-6.6-1.1-11.7-9.8-11.7-20.4C698.7,283,704.5,273.9,711.7,273.9z"/>
	<path class="st1" d="M587.4,221.4h8.4c1.1,0,2.2,0.4,3.1,1c-0.7,2.1-2.6,3.6-4.9,3.6h-8.4c-1.1,0-2.2-0.4-3.1-1
		C583.1,223,585,221.4,587.4,221.4z"/>
	<path class="st2" d="M622.1,358.6c8.6,0,15.6,4.1,15.6,9.2c0,5.1-7,9.2-15.6,9.2c-8.6,0-15.6-4.1-15.6-9.2
		C606.5,362.7,613.4,358.6,622.1,358.6z"/>
	<path class="st8" d="M619.9,367c5.1,0,9.3,2.5,9.3,5.5c0,3-4.2,5.5-9.3,5.5c-5.1,0-9.3-2.5-9.3-5.5
		C610.6,369.5,614.7,367,619.9,367z"/>
	<path class="st21" d="M678.3,317.7l14-5.5c1.9-0.7,4,0.2,4.7,2.1v0c0.7,1.9-0.2,4-2.1,4.7l-14,5.5c-1.9,0.7-4-0.2-4.7-2.1l0,0
		C675.5,320.5,676.5,318.4,678.3,317.7z"/>
	<path class="st9" d="M606.2,192.7c1.1,0,2,1,2,2.3c0,1.3-0.8,2.3-1.9,2.3c-1.1,0-2-1.1-2-2.3C604.2,193.8,605.1,192.7,606.2,192.7z
		"/>
	<path class="st9" d="M618.6,169.2c1.6,0,2.9,1.5,2.9,3.3c0.1,1.8-1.2,3.3-2.7,3.3c-1.6,0-2.9-1.5-2.9-3.3
		C615.9,170.7,617.1,169.2,618.6,169.2z"/>
	<path class="st2" d="M520.9,257.6c-4.3,5.3-3.9,13,1,17.4c1.5,1.3,3.2,2.2,5,2.6c-1.5-4.1-0.8-8.9,2.2-12.6c4.3-5.3,3.9-13-1-17.4
		c-1.5-1.3-3.2-2.2-5-2.6C524.6,249.1,523.9,253.9,520.9,257.6z"/>
	<path class="st2" d="M572,313.8L572,313.8c2.9,1.6,4,5.3,2.4,8.2l-31.5,57.1c-1.6,2.9-5.3,4-8.2,2.4l0,0c-2.9-1.6-4-5.3-2.4-8.2
		l31.5-57.1C565.3,313.3,569,312.2,572,313.8z"/>
	<path class="st12" d="M311.3,349.1c4.9-3.8,14.4,0.1,21.3,8.8c6.9,8.7,8.5,18.9,3.7,22.7c-4.9,3.8-14.4-0.1-21.3-8.8
		C308.1,363.2,306.4,353,311.3,349.1z"/>
	<path class="st12" d="M310.7,327.7c2.5-0.5,5.3,2.7,6.2,7.2c0.9,4.5-0.4,8.5-2.9,9c-2.5,0.5-5.3-2.7-6.2-7.2
		C306.9,332.3,308.2,328.2,310.7,327.7z"/>
	<path class="st1" d="M315,359.9c2-1.6,5.9,0,8.8,3.6c2.8,3.6,3.5,7.8,1.5,9.4c-2,1.6-5.9,0-8.8-3.6
		C313.7,365.7,313,361.5,315,359.9z"/>
	<g>
		<path class="st12" d="M893.2,318.1L893.2,318.1c-5.9-1.8-12,1.7-13.6,7.7l-15.4,60c-1.5,6,2,12.3,8,14.1h0
			c5.9,1.8,12-1.7,13.6-7.7l15.4-60C902.7,326.2,899.1,319.9,893.2,318.1z"/>
		<path class="st14" d="M877.3,334.8c34.5-11.6,63.4-38.1,75.6-74.1c12.2-36,5-73.3-16-101.6L877.3,334.8z"/>
		<path class="st15" d="M882.1,320.7c25.4-8.5,46.6-28,55.6-54.5c9-26.5,3.7-53.9-11.8-74.6L882.1,320.7z"/>
		<path class="st12" d="M876.9,396.7l-7.2-2.2c-3.9-1.2-8,1.1-9,5.1l0,0c-1,4,1.4,8.2,5.3,9.4l7.2,2.2c3.9,1.2,8-1.1,9-5.1l0,0
			C883.2,402.1,880.8,397.9,876.9,396.7z"/>
		<path class="st12" d="M906.1,319l-24.4-7.3c-3.9-1.2-8,1.1-9,5.1l0,0c-1,4,1.4,8.2,5.3,9.4l24.4,7.3c3.9,1.2,8-1.1,9-5.1l0,0
			C912.4,324.4,910,320.2,906.1,319z"/>
		<path class="st2" d="M902.8,327.3l-13.2-4c-18.1-5.4-36.8,5.1-41.5,23.5v0c-4.7,18.3,6.3,37.8,24.4,43.2l13.2,4
			c18.1,5.4,36.8-5.1,41.5-23.5l0,0C931.9,352.2,921,332.7,902.8,327.3z"/>
		<path class="st12" d="M902.5,322.7l-13-3.9c-1.9-0.6-3.8-1-5.7-1.3c17.5,8.1,27.5,27.9,22.7,46.6l0,0c-4.8,18.7-22.8,30-41.7,27.3
			c1.8,0.8,3.6,1.5,5.5,2.1l13,3.9c20.8,6.2,42.1-5.5,47.4-26l0,0C936,350.8,923.3,328.9,902.5,322.7z"/>
	</g>
	<path class="st5" d="M311.8,209.1c0,0,27.2-13.4,24.9-13.2c-2.3,0.2-31.1,4.3-31.1,4.3L311.8,209.1z"/>
	<polygon class="st5" points="252.9,239.2 251.3,255.3 278.1,249 	"/>
	<path class="st7" d="M243.7,214.7c1.5-1.5,3.6-2.4,6-2.4c2.3,0,4.4,0.9,6,2.4c-1.8-0.5-3.8-0.8-6-0.8
		C247.5,213.9,245.5,214.2,243.7,214.7z"/>
	<path class="st7" d="M246.4,207.7c2,0.8,3.7,2.3,4.7,4.4c1,2.1,1,4.4,0.3,6.4c-0.3-1.9-0.9-3.8-1.8-5.8
		C248.6,210.9,247.6,209.2,246.4,207.7z"/>
	<path class="st3" d="M256.8,202.9l5.5,0.5c5.4,0.5,9.8-3.5,9.8-8.9l0,0c0-1.2-0.2-2.4-0.6-3.5c-1.4,3.5-5,5.8-9.1,5.4l-5.5-0.5
		c-4.1-0.4-7.7-3.3-9.1-7.1c-0.4,1-0.6,2.2-0.6,3.4l0,0C247,197.7,251.4,202.4,256.8,202.9z"/>
	<path class="st1" d="M256.8,202.2l5.5,0.5c3,0.3,5.8-0.9,7.5-2.9c-1.5-0.8-3.2-1.1-5-0.9l-5.5,0.5c-2,0.2-3.9,1-5.4,2.1
		C254.8,201.8,255.8,202.1,256.8,202.2z"/>
	<path class="st1" d="M256.5,195.9c-1.9-0.2-3.8-1-5.3-2.2l-0.1,1c-0.1,1.5,1,2.9,2.5,3h0C254.9,197.8,256.1,197.1,256.5,195.9z"/>
	<ellipse class="st1" cx="217.5" cy="591.9" rx="79.2" ry="14.6"/>
	<path class="st2" d="M229.7,463.6c21.2,0,36.3,17.2,33.8,38.4c-0.1,1-0.3,2-0.5,3c-0.6,3.2-3.6,5.6-6.8,5.6h-64.4
		c-3.2,0-5.6-2.4-5.4-5.6c0-1,0.1-2,0.2-3C189.3,480.8,208.5,463.6,229.7,463.6z"/>
	<path class="st2" d="M286.1,579.2c43.5,0,78.7,7,78.7,15.6c0,8.6-35.2,15.6-78.7,15.6c-43.5,0-78.7-7-78.7-15.6
		C207.4,586.2,242.6,579.2,286.1,579.2z"/>
	<path class="st8" d="M280.5,486.2c-0.3-1.3-1.7-2.2-3.1-1.8c-1.3,0.3-2.2,1.7-1.8,3.1c0,0,2.3,8.3-8,17.7c-12.8,11.6-6.8,28-6.8,28
		c0.5,1.3,1.9,2,3.2,1.5c1.3-0.5,2-1.9,1.5-3.2c0,0-4.9-13.4,5.4-22.7C283.6,497.3,280.5,486.2,280.5,486.2z"/>
	<path class="st8" d="M246.7,521.1c-22.7,0-41.1,18.4-41.1,41.1c0,22.7,18.4,41.1,41.1,41.1c22.7,0,41.1-18.4,41.1-41.1
		C287.8,539.4,269.4,521.1,246.7,521.1z"/>
	<path class="st8" d="M268.8,508.6L268.8,508.6c-4.7-1.8-10.1,0.7-11.8,5.4l-4,10.7c-1.8,4.7,0.7,10.1,5.4,11.8l0,0
		c4.7,1.8,10.1-0.7,11.8-5.4l4-10.7C276,515.7,273.6,510.3,268.8,508.6z"/>
	<path class="st21" d="M227.1,534.9c-9.3,0-16.8,7.5-16.8,16.8c0,9.3,7.5,16.8,16.8,16.8c9.3,0,16.8-7.5,16.8-16.8
		C243.9,542.5,236.3,534.9,227.1,534.9z"/>
	<path class="st1" d="M151.8,563.8c8.3,0,14.9,1.2,14.9,2.7c0,1.5-6.7,2.7-14.9,2.7c-8.3,0-14.9-1.2-14.9-2.7
		C136.8,565,143.5,563.8,151.8,563.8z"/>
	<path class="st1" d="M402.6,569c8.3,0,15,1.2,15,2.7c0,1.5-6.7,2.7-15,2.7c-8.3,0-14.9-1.2-14.9-2.7
		C387.6,570.3,394.3,569,402.6,569z"/>
	<path class="st1" d="M446.4,590.5c14.8,0,26.7,2.2,26.7,4.9c0,2.7-12,4.9-26.7,4.9s-26.7-2.2-26.7-4.9
		C419.7,592.7,431.6,590.5,446.4,590.5z"/>
	<path class="st2" d="M554,577.1c8.3,0,14.9,1.2,14.9,2.7c0,1.5-6.7,2.7-14.9,2.7c-8.3,0-14.9-1.2-14.9-2.7
		C539.1,578.3,545.8,577.1,554,577.1z"/>
	<path class="st2" d="M511.8,577.1c4.1,0,7.5,0.6,7.5,1.4c0,0.8-3.3,1.4-7.5,1.4c-4.1,0-7.5-0.6-7.5-1.4
		C504.3,577.7,507.7,577.1,511.8,577.1z"/>
	<path class="st2" d="M246.2,176.3l12.4,0.9c1.6,0.1,2.8,1.5,2.8,3.1l0,0c0,1.6-1.3,2.8-2.8,2.6l-12.4-0.9c-1.6-0.1-2.8-1.5-2.8-3.1
		l0,0C243.3,177.4,244.6,176.2,246.2,176.3z"/>
	<path class="st22" d="M395.7,279.7c4.9-4.7,11.5-7.6,18.8-7.7c7.3,0,14,2.9,18.9,7.6c-5.7-1.5-12.1-2.4-18.8-2.4
		C407.8,277.3,401.4,278.1,395.7,279.7z"/>
	<path class="st23" d="M404.1,257.8c6.3,2.5,11.7,7.3,14.7,14c3,6.7,3.1,13.9,0.8,20.3c-1-5.9-2.8-12-5.6-18.2
		C411.3,267.9,407.9,262.4,404.1,257.8z"/>
	<path class="st1" d="M239.2,517.5c-22.7,0-41.1,18.4-41.1,41.1c0,22.7,18.4,41.1,41.1,41.1c0.6,0,1.2,0,1.8,0
		c-18.8-3.8-33-20.4-33-40.3c0-22.1,17.5-40.1,39.3-41C244.6,517.8,241.9,517.5,239.2,517.5z"/>
	<path class="st24" d="M608.4,560.5c15.9,0,28.7,2.4,28.7,5.3c0,2.9-12.9,5.3-28.7,5.3c-15.9,0-28.7-2.4-28.7-5.3
		C579.7,562.8,592.5,560.5,608.4,560.5z"/>
	<path class="st24" d="M646.1,575.4c10.5,0,19,1.6,19,3.5c0,1.9-8.5,3.5-19,3.5c-10.5,0-19-1.6-19-3.5
		C627.1,577,635.6,575.4,646.1,575.4z"/>
	<path class="st9" d="M607.9,149.6c-0.2-0.2-0.5-0.4-0.7-0.7c-0.9-1.3-1-3.2-0.2-4.4c0.8-1.2,2.2-1.1,3.1,0.2
		c0.5,0.6,0.7,1.5,0.7,2.3c0.7-0.3,1.6-0.4,2.3-0.1c1.2,0.4,1.6,1.5,1,2.5c-0.7,1-2.2,1.4-3.4,1c-0.2-0.1-0.4-0.1-0.5-0.2l-3.6,5.1
		l-2.7,3.8l-3.5,5c0.2,0.2,0.5,0.4,0.7,0.7c0.9,1.3,1,3.2,0.2,4.4c-0.8,1.2-2.2,1.1-3.1-0.2c-0.5-0.7-0.7-1.5-0.7-2.3
		c-0.7,0.3-1.6,0.4-2.3,0.1c-1.2-0.4-1.6-1.5-1-2.5c0.7-1,2.2-1.4,3.4-1c0.2,0.1,0.4,0.1,0.5,0.2l3.6-5.1l2.7-3.8L607.9,149.6z"/>
	<path class="st9" d="M600.1,149.6c0.2-0.2,0.4-0.4,0.6-0.7c0.8-1.3,0.8-3.2-0.1-4.4c-0.9-1.2-2.3-1.1-3.1,0.2
		c-0.4,0.6-0.6,1.5-0.6,2.3c-0.7-0.3-1.6-0.4-2.3-0.1c-1.2,0.4-1.5,1.5-0.8,2.5c0.7,1,2.3,1.4,3.5,1c0.2-0.1,0.3-0.1,0.5-0.2
		l3.9,5.1l2.9,3.8l3.8,5c-0.2,0.2-0.4,0.4-0.6,0.7c-0.8,1.3-0.8,3.2,0.1,4.4c0.9,1.2,2.3,1.1,3.1-0.2c0.4-0.7,0.6-1.5,0.6-2.3
		c0.7,0.3,1.6,0.4,2.3,0.1c1.2-0.4,1.5-1.5,0.8-2.5c-0.7-1-2.3-1.4-3.5-1c-0.2,0.1-0.4,0.1-0.5,0.2l-3.9-5.1l-2.9-3.8L600.1,149.6z"
		/>
	<path class="st9" d="M603.6,150.4c2.8,0,5.2,2.7,5.3,6.1c0.1,3.4-2.1,6.1-4.9,6.1c-2.8,0-5.2-2.7-5.3-6.1
		C598.5,153.1,600.7,150.4,603.6,150.4z"/>
	<path class="st2" d="M605.1,153c1.7,0,3.2,1.7,3.3,3.7c0.1,2.1-1.3,3.7-3,3.7c-1.7,0-3.2-1.7-3.2-3.7
		C602,154.7,603.3,153,605.1,153z"/>
	<path class="st9" d="M590.5,169.2c1.6,0,2.9,1.5,2.9,3.3c0.1,1.8-1.2,3.3-2.7,3.3c-1.6,0-2.9-1.5-2.9-3.3
		C587.7,170.7,589,169.2,590.5,169.2z"/>
	<path class="st9" d="M590.3,162.5c0.8,0,1.4,0.7,1.4,1.7c0,0.9-0.6,1.7-1.3,1.7c-0.8,0-1.4-0.7-1.4-1.7
		C588.9,163.2,589.5,162.5,590.3,162.5z"/>
	<path class="st9" d="M617.4,162.5c0.8,0,1.4,0.7,1.4,1.7c0,0.9-0.6,1.7-1.3,1.7c-0.8,0-1.4-0.7-1.4-1.7
		C616,163.2,616.6,162.5,617.4,162.5z"/>
	<path class="st9" d="M590.8,177.4c0.8,0,1.4,0.7,1.4,1.7c0,0.9-0.6,1.7-1.3,1.7c-0.8,0-1.4-0.7-1.4-1.7
		C589.4,178.1,590,177.4,590.8,177.4z"/>
	<path class="st9" d="M618.2,177.4c0.8,0,1.4,0.7,1.4,1.7c0,0.9-0.6,1.7-1.3,1.7c-0.8,0-1.4-0.7-1.4-1.7
		C616.8,178.1,617.4,177.4,618.2,177.4z"/>
	<path class="st9" d="M604,139.3c1.1,0,2,1,2,2.3c0,1.3-0.8,2.3-1.9,2.3c-1.1,0-2-1.1-2-2.3C602.1,140.3,602.9,139.3,604,139.3z"/>
	<path class="st9" d="M603.9,134.1c0.5,0,1,0.5,1,1.2c0,0.6-0.4,1.2-0.9,1.2c-0.5,0-1-0.5-1-1.2
		C602.9,134.7,603.3,134.1,603.9,134.1z"/>
	<path class="st1" d="M667.7,201.9c1.2,0,2.2,1.2,2.2,2.6c0,1.5-1,2.6-2.2,2.6c-1.2,0-2.2-1.2-2.2-2.6
		C665.5,203.1,666.5,201.9,667.7,201.9z"/>
	<path class="st1" d="M524.5,201.9c1.2,0,2.2,1.2,2.2,2.6c0,1.5-1,2.6-2.2,2.6c-1.2,0-2.2-1.2-2.2-2.6
		C522.3,203.1,523.3,201.9,524.5,201.9z"/>
	<path class="st8" d="M598.6,215.5L598.6,215.5c15.9,0,29,13,29,29v21.9c0,3-0.5,5.8-1.3,8.5c0.8,2.5,1.3,5.2,1.3,8.1l0,0
		c0,14.6-12,26.6-26.6,26.6h-11.6c14.6,0,26.6-12,26.6-26.6l0,0c0-2.8-0.4-5.5-1.3-8.1c0.8-2.7,1.3-5.6,1.3-8.5v-21.9
		c0-14-10-25.7-23.2-28.4C594.7,215.7,596.6,215.5,598.6,215.5z"/>
	<polygon class="st1" points="276.3,308.2 253.3,285.1 251.3,293 218.2,257.7 225.2,276.7 171.3,234 239.5,294.2 233.7,279.9 
		260.7,305.4 258.7,294.3 	"/>
	<path class="st1" d="M481,510.8c-4.5,7-18.3,2.8-30.8-9.4c-7.3-7.1-12.5-15.3-14.7-22.4c2.5,6.5,7.4,13.8,13.9,20.2
		c12.5,12.2,26.3,16.4,30.8,9.4c1.9-2.9,1.9-7.4,0.3-12.4C482.8,502.1,483.1,507.4,481,510.8z"/>
	<path class="st1" d="M660.8,511.1c-10,15.5-40.4,6.2-68-20.8c-16-15.7-27.6-33.9-32.5-49.5c5.6,14.4,16.4,30.6,30.8,44.7
		c27.6,27,58,36.3,68,20.8c4.2-6.5,4.1-16.3,0.6-27.5C664.7,492,665.5,503.7,660.8,511.1z"/>
	<path class="st2" d="M563.2,518.9c3.5,0,6.3,2.8,6.3,6.3c0,3.5-2.8,6.3-6.3,6.3c-3.5,0-6.3-2.8-6.3-6.3
		C556.9,521.7,559.7,518.9,563.2,518.9z"/>
	<path class="st2" d="M549.8,524.9c1.4,0,2.5,1.1,2.5,2.5c0,1.4-1.1,2.5-2.5,2.5c-1.4,0-2.5-1.1-2.5-2.5
		C547.3,526.1,548.4,524.9,549.8,524.9z"/>
	<path class="st2" d="M632.2,519.1c3.5,0,6.3,2.8,6.3,6.3c0,3.5-2.8,6.3-6.3,6.3c-3.5,0-6.3-2.8-6.3-6.3
		C625.8,522,628.7,519.1,632.2,519.1z"/>
	<path class="st2" d="M629.2,524.9c1.9,0,3.4,1.5,3.4,3.4c0,1.9-1.5,3.4-3.4,3.4c-1.9,0-3.4-1.5-3.4-3.4
		C625.8,526.5,627.4,524.9,629.2,524.9z"/>
	<path class="st2" d="M554.1,484.7c1.9,0,3.4,1.5,3.4,3.4c0,1.9-1.5,3.4-3.4,3.4c-1.9,0-3.4-1.5-3.4-3.4
		C550.7,486.2,552.3,484.7,554.1,484.7z"/>
	<path class="st2" d="M537.3,475.5c0.9,0,1.7,0.8,1.7,1.7c0,0.9-0.8,1.7-1.7,1.7c-0.9,0-1.7-0.8-1.7-1.7
		C535.6,476.2,536.3,475.5,537.3,475.5z"/>
	<path class="st2" d="M821.9,505.8c3.5,0,6.3,2.8,6.3,6.3c0,3.5-2.8,6.3-6.3,6.3c-3.5,0-6.3-2.8-6.3-6.3
		C815.6,508.6,818.4,505.8,821.9,505.8z"/>
	<path class="st2" d="M832,497.4c1.7,0,3.2,1.4,3.2,3.2c0,1.7-1.4,3.2-3.2,3.2c-1.7,0-3.2-1.4-3.2-3.2
		C828.8,498.8,830.2,497.4,832,497.4z"/>
	<path class="st2" d="M836.1,510.3c1.4,0,2.6,1.1,2.6,2.5c0,1.4-1.1,2.6-2.6,2.6c-1.4,0-2.6-1.1-2.6-2.6
		C833.6,511.4,834.7,510.3,836.1,510.3z"/>
	<path class="st5" d="M734.1,246.3c0,0-12.8,21.8-11.4,21.1c1.4-0.8,19.9-11.4,19.9-11.4l-0.9,8.8l9.7-6.5L734.1,246.3z"/>
	<ellipse class="st1" cx="236.2" cy="613.6" rx="82" ry="29.6"/>
	<ellipse class="st24" cx="236.2" cy="620.9" rx="110.2" ry="29.6"/>
	<ellipse class="st1" cx="217.3" cy="619.9" rx="67.9" ry="24.5"/>
	<path class="st24" d="M217.3,601.4c50.5,0,91.4,11,91.4,24.5c0,13.6-40.9,24.5-91.4,24.5c-50.5,0-91.4-11-91.4-24.5
		C125.9,612.4,166.8,601.4,217.3,601.4z"/>
	<path class="st25" d="M221.6,610.2c50.5,0,91.5,7.5,91.5,16.8c0,9.3-41,16.8-91.5,16.8c-50.5,0-91.5-7.5-91.5-16.8
		C130.1,617.7,171.1,610.2,221.6,610.2z"/>
	<path class="st25" d="M37.9,531.4c20.9,0,37.9,3.1,37.9,7c0,3.8-17,7-37.9,7c-20.9,0-37.9-3.1-37.9-7C0,534.5,17,531.4,37.9,531.4z
		"/>
	<path class="st25" d="M583,593.3c50.7,0,91.8,7.6,91.8,16.9c0,9.3-41.1,16.9-91.8,16.9c-50.7,0-91.8-7.6-91.8-16.9
		C491.3,600.9,532.4,593.3,583,593.3z"/>
	<path class="st25" d="M755.3,555c9.3,0,16.8,1.4,16.8,3.1c0,1.7-7.5,3.1-16.8,3.1c-9.3,0-16.8-1.4-16.8-3.1
		C738.5,556.4,746,555,755.3,555z"/>
	<path class="st25" d="M765.6,568.5c4.6,0,8.4,0.7,8.4,1.5c0,0.9-3.8,1.5-8.4,1.5c-4.6,0-8.4-0.7-8.4-1.5
		C757.2,569.2,760.9,568.5,765.6,568.5z"/>
	<path class="st25" d="M798.5,555.5c4.6,0,8.4,0.7,8.4,1.5c0,0.9-3.8,1.5-8.4,1.5c-4.6,0-8.4-0.7-8.4-1.5
		C790.1,556.2,793.8,555.5,798.5,555.5z"/>
	<g>
		<path class="st2" d="M843.6,606.8c53,1.8,95.9,11.3,95.9,21.3c0,10-42.9,16.7-95.9,14.9c-53-1.8-95.9-11.3-95.9-21.3
			C747.7,611.7,790.6,605,843.6,606.8z"/>
		<path class="st9" d="M840.3,515.2l3.5,1.2c27.9,9.7,42.9,40.5,33.2,68.4v0c-9.7,27.9-40.5,42.9-68.4,33.2l-32.1-11.1
			c-12.2-4.2-18.8-17.7-14.5-30l9.9-28.6C781.5,520.4,812.3,505.5,840.3,515.2z"/>
		<path class="st26" d="M846.5,529.1c20.2,11.5,30.1,36.2,22.2,58.9l0,0c-8.9,25.5-37,39.2-62.5,30.3l-12.8-4.4
			c-9.3-3.2-14.3-13.5-11.1-22.8l10.2-29.5C800.4,538.8,823.5,525.5,846.5,529.1z"/>
		<path class="st2" d="M826.1,567.2l6.6,2.3c6.7,2.3,10.3,9.8,8,16.5v0c-2.3,6.7-9.8,10.3-16.5,8l-6.6-2.3c-6.7-2.3-10.3-9.8-8-16.5
			v0C812,568.5,819.4,564.9,826.1,567.2z"/>
		<path class="st2" d="M787.2,553.7l0.8,0.3c6.7,2.3,10.3,9.8,8,16.5v0c-2.3,6.7-9.8,10.3-16.5,8l-0.8-0.3c-6.7-2.3-10.3-9.8-8-16.5
			v0C773.1,555,780.5,551.4,787.2,553.7z"/>
		<path class="st9" d="M778.6,600.7L778.6,600.7c3.4,1.2,5.2,4.9,4,8.3l-0.7,2c-1.2,3.4-4.9,5.2-8.3,4h0c-3.4-1.2-5.2-4.9-4-8.3
			l0.7-2C771.5,601.4,775.2,599.5,778.6,600.7z"/>
		<path class="st9" d="M796.7,607L796.7,607c3.4,1.2,5.2,4.9,4,8.3l-0.7,2c-1.2,3.4-4.9,5.2-8.3,4h0c-3.4-1.2-5.2-4.9-4-8.3l0.7-2
			C789.5,607.6,793.3,605.8,796.7,607z"/>
		<path class="st9" d="M814.7,613.2L814.7,613.2c3.4,1.2,5.2,4.9,4,8.3l-0.7,2c-1.2,3.4-4.9,5.2-8.3,4l0,0c-3.4-1.2-5.2-4.9-4-8.3
			l0.7-2C807.6,613.9,811.3,612.1,814.7,613.2z"/>
	</g>
	<path class="st1" d="M216.8,538.8c-4.6,0-8.4,3.8-8.4,8.4c0,4.6,3.8,8.4,8.4,8.4c4.6,0,8.4-3.8,8.4-8.4
		C225.2,542.5,221.4,538.8,216.8,538.8z"/>
	<path class="st2" d="M462.7,13.9c34.6-34.3,88,4.1,121.9,18.9c0.9,0.4-10.9-8.4-22.5-17.1c2.7,1.3,5.4,2.8,8.2,4.5
		c59,34.6,94.7,4.9,94.7,4.9l7.9,82.8c-12.7,7.5-50.2,23.3-105.1-8.9c-52.7-30.9-89.6-13.4-103.8-3.7l2.6-17.4l30.5-13.6L468,68.4
		l1.4-9.2l7.2-5.1c-2.1-0.1-4.3-0.1-6.4-0.2C460.4,36,476.3,32.7,462.7,13.9z"/>
	<path class="st9" d="M563.6,47.9c0.4-0.7,0.6-1.6,0.7-2.7c0.4-4.6-2.6-10.5-6.7-13.1c-4.1-2.6-7.8-1-8.2,3.6
		c-0.2,2.4,0.5,5.1,1.7,7.5c-2.4-0.2-4.9,0.4-6.5,1.9c-2.6,2.4-2,6.1,1.4,8.3c3.4,2.2,8.3,2,11-0.4c0.4-0.4,0.7-0.8,1-1.2l18,11.5
		l13.5,8.6l17.7,11.3c-0.4,0.7-0.6,1.6-0.7,2.7c-0.4,4.6,2.6,10.5,6.7,13.1c4.1,2.6,7.8,1,8.2-3.6c0.2-2.4-0.5-5.1-1.7-7.5
		c2.4,0.2,4.9-0.4,6.5-1.9c2.6-2.4,2-6.1-1.4-8.3c-3.4-2.2-8.3-2-11,0.4c-0.4,0.4-0.7,0.8-1,1.2l-18-11.5l-13.5-8.6L563.6,47.9z"/>
	<path class="st9" d="M607.7,59.7c-0.4-0.7-0.6-1.5-0.7-2.3c-0.3-3.7,2.9-7.1,7-7.7c4.2-0.6,7.8,2,8,5.6c0.1,1.9-0.6,3.7-1.9,5.1
		c2.4,0.7,4.9,2,6.4,3.7c2.6,2.7,1.8,5.4-1.6,5.8c-3.5,0.5-8.3-1.4-10.9-4.1c-0.4-0.4-0.7-0.9-1-1.3l-18.2,2.5L581.2,69l-17.9,2.4
		c0.4,0.7,0.6,1.5,0.7,2.3c0.3,3.7-2.9,7.1-7,7.7c-4.2,0.6-7.8-2-8-5.6c-0.1-1.9,0.6-3.7,1.9-5.1c-2.4-0.7-4.8-2-6.4-3.7
		c-2.6-2.7-1.8-5.4,1.6-5.8c3.5-0.5,8.3,1.4,10.9,4.1c0.4,0.4,0.7,0.9,1,1.3l18.2-2.5l13.7-1.9L607.7,59.7z"/>
	<path class="st9" d="M579.8,45c-8.1,1.7-15.1,1.7-11.6,14c0.7,2.5,1.7,4.9,2.8,7c-1.9,1.7-3.1,4-3.4,6.5c-0.4,4.6,3,8,7.7,7.5
		c1.2-0.1,2.4-0.5,3.5-1.1c-0.1,1.2,0,2.5,0.4,3.7c0.8,3,2.7,4.5,4.1,3.2c1.5-1.2,2-4.7,1.2-7.7l0-0.1c0.5,0.1,1,0.2,1.5,0.3
		c0.1,2.7,1.4,5.8,3,7.1c1.8,1.4,3.3,0.2,3.4-2.7c0.1-1.7-0.4-3.6-1.1-5.2c0.4-0.2,0.8-0.4,1.3-0.7l0,0c0.9,3,3.2,5.8,5.1,6.4
		c2,0.5,2.8-1.5,1.9-4.5c-0.4-1.3-1.1-2.6-1.9-3.7c1.3,0.1,2.6,0,3.7-0.3c4.4-1.3,5.7-5.6,2.9-9.6c-1.4-1.9-3.4-3.4-5.7-4.3
		c-0.1-2.5-0.5-5.1-1.3-7.8C594.1,40.6,587.9,43.3,579.8,45z"/>
	<path class="st2" d="M594.5,58.2c-2.2-1-4.4,4.4-5.8,6.8c-1.5,2.5-1.6,3.6,0.6,4.6c2.2,1,5.1-0.1,6.6-2.6
		C597.3,64.7,596.7,59.3,594.5,58.2z"/>
	<path class="st2" d="M573.2,62.6c1.4-1.7,6.2,2.2,8.8,3.8c2.6,1.6,3.4,2.6,2,4.3c-1.4,1.8-4.6,1.9-7.2,0.2
		C574.2,69.4,571.8,64.4,573.2,62.6z"/>
	
		<ellipse transform="matrix(0.2255 -0.9742 0.9742 0.2255 195.1183 394.6472)" class="st2" cx="345.8" cy="74.6" rx="44.2" ry="44.2"/>
	<path class="st9" d="M334.8,54.8c10.9-4.5,19.1-9.6,24.7,2.8c1.1,2.5,1.9,5.1,2.2,7.7c3.5,0,6.9,1,9.1,2.8
		c4.1,3.4,2.7,8.6-3.1,11.6c-1.6,0.8-3.3,1.4-5,1.7c1.1,0.9,2,2,2.5,3.3c1.4,3,0.4,5.5-2.3,5.6c-2.7,0.1-6-2.3-7.4-5.3l0-0.1
		c-0.5,0.5-1,0.9-1.6,1.3c2,2.3,2.9,5.7,2,7.9c-1,2.4-3.7,2.6-6.2,0.3c-1.4-1.3-2.4-3.2-2.8-5c-0.7,0.2-1.3,0.3-2,0.3v0
		c1.3,3,0.9,7-1,8.8c-1.9,1.8-4.5,0.9-5.8-2.2c-0.6-1.3-0.8-2.9-0.7-4.3c-1.4,1-3,1.9-4.7,2.4c-6.2,2.1-11.2-0.3-11-5.6
		c0.1-2.5,1.3-5.2,3.3-7.6c-1.9-2.1-3.4-4.5-4.7-7.2C314.5,61.6,323.9,59.3,334.8,54.8L334.8,54.8z M356.5,64.2
		c-3-0.4-5.6,6.3-7.4,9.4c-1.8,3.2-1.9,4.5,1.1,4.9c3,0.4,6.9-1.8,8.7-5C360.7,70.3,359.5,64.6,356.5,64.2L356.5,64.2z M327.9,76.1
		c-1.7,2.4,1.8,7.2,5.5,8.1c3.7,0.9,8-0.3,9.8-2.7c1.7-2.4,0.7-3.2-3-4.1C336.5,76.4,329.7,73.7,327.9,76.1z"/>
	<path class="st2" d="M346.2,23.5c9.4,0,18.3,2.6,25.8,7.1c-6-2.5-12.5-3.8-19.3-3.8c-28,0-50.7,22.7-50.7,50.7
		c0,18.6,10,34.8,24.9,43.6c-18.4-7.6-31.4-25.7-31.4-46.9C295.5,46.2,318.2,23.5,346.2,23.5z"/>
	<path class="st1" d="M596,604.9c25.7,0,46.6,3.8,46.6,8.6c0,4.7-20.8,8.6-46.6,8.6c-25.7,0-46.6-3.8-46.6-8.6
		C549.5,608.8,570.3,604.9,596,604.9z"/>
	<path class="st1" d="M945.4,576c14.8,0,26.7,2.2,26.7,4.9c0,2.7-12,4.9-26.7,4.9c-14.8,0-26.7-2.2-26.7-4.9
		C918.7,578.2,930.7,576,945.4,576z"/>
	<path class="st25" d="M964,531.4c20.9,0,37.9,3.1,37.9,7c0,3.8-17,7-37.9,7c-20.9,0-37.9-3.1-37.9-7
		C926.1,534.5,943,531.4,964,531.4z"/>
</g>
</svg>
