<?xml version="1.0" encoding="utf-8"?>
<!-- Generator: Adobe Illustrator 24.0.3, SVG Export Plug-In . SVG Version: 6.00 Build 0)  -->
<svg version="1.1" id="Layer_1" xmlns="http://www.w3.org/2000/svg" xmlns:xlink="http://www.w3.org/1999/xlink" x="0px" y="0px"
	 viewBox="0 0 1000.4 572.4" style="enable-background:new 0 0 1000.4 572.4;" xml:space="preserve">
<style type="text/css">
	.st0{fill:#B7D1ED;}
	.st1{fill:#E9EBF2;}
	.st2{fill:#8EA9B0;}
	.st3{fill:#24205B;}
	.st4{fill:#140A23;}
	.st5{fill:#AF206E;}
	.st6{fill:#2E1A47;}
	.st7{fill:#F49D4E;}
	.st8{fill:#C88438;}
	.st9{fill:#FFFFFF;}
	.st10{fill:#2A2117;}
	.st11{fill:#31316D;}
	.st12{fill:#E2DEDE;}
	.st13{fill:#FF928C;}
	.st14{fill:#F65756;}
	.st15{fill:#565A59;}
	.st16{fill:#FFC1C0;}
	.st17{fill:#747377;}
	.st18{fill:#5F2D78;}
	.st19{fill:#A6A5AD;}
	.st20{fill:#883AB5;}
	.st21{fill:#ED9E00;}
	.st22{fill:#F6CC1B;}
	.st23{opacity:0.25;}
	.st24{fill:#EB8B23;}
	.st25{fill:#E1EAF9;}
	.st26{fill:#5D605E;}
	.st27{fill:#E54355;}
	.st28{fill:#A05B17;}
	.st29{fill:#CCDEE4;}
</style>
<path class="st0" d="M687.1,84.5H326.5c-12.6,0-22.8-10.2-22.8-22.8l0,0c0-12.6,10.2-22.8,22.8-22.8h360.7
	c12.6,0,22.8,10.2,22.8,22.8l0,0C710,74.3,699.8,84.5,687.1,84.5z"/>
<g>
	<path class="st1" d="M607,410.2v136.1H415.5V410.2c0-38.6,31.3-69.9,70-69.9h51.6C575.7,340.2,607,371.5,607,410.2z"/>
</g>
<g>
	<path class="st1" d="M689.8,571.9h-62.3c-3.9,0-7-3.1-7-7v-72.1c0-3.9,3.1-7,7-7h62.3c3.9,0,7,3.1,7,7v72.1
		C696.8,568.7,693.7,571.9,689.8,571.9z"/>
</g>
<g>
	<path class="st2" d="M275.4,545.9H88.6c-4.6,0-8.7-3.1-10-7.5l-2.1-7.4h208.4l0.5,1.6C287.3,539.3,282.3,545.9,275.4,545.9z"/>
</g>
<g>
	<g>
		<path class="st3" d="M705.7,64.2H308c-17.7,0-32.1-14.5-32.1-32.1l0,0C275.8,14.5,290.3,0,308,0h397.7c17.7,0,32.1,14.5,32.1,32.1
			l0,0C737.8,49.8,723.3,64.2,705.7,64.2z"/>
	</g>
	<g>
		<path class="st4" d="M705.7,40.9H308c-13.6,0-25.2-8.5-29.9-20.5c-1.4,3.6-2.2,7.5-2.2,11.6v0c0,17.7,14.5,32.1,32.1,32.1h397.7
			c17.7,0,32.1-14.5,32.1-32.1v0c0-4.1-0.8-8-2.2-11.6C730.9,32.4,719.2,40.9,705.7,40.9z"/>
	</g>
</g>
<g>
	<path class="st1" d="M951.8,382.5H824.1c-8.9,0-16.1-7.2-16.1-16.1V183.8c0-8.9,7.2-16.1,16.1-16.1h127.7c8.9,0,16.1,7.2,16.1,16.1
		v182.6C967.8,375.3,960.6,382.5,951.8,382.5z"/>
</g>
<g>
	<path class="st5" d="M940.4,371.2H812.7c-8.9,0-16.1-7.2-16.1-16.1V172.5c0-8.9,7.2-16.1,16.1-16.1h127.7c8.9,0,16.1,7.2,16.1,16.1
		v182.6C956.5,364,949.3,371.2,940.4,371.2z"/>
</g>
<g>
	<polygon class="st1" points="155.2,343.8 89.1,343.8 82.5,277.7 148.6,277.7 	"/>
</g>
<g>
	<path class="st4" d="M741.2,176.8v238.6c0,6.9-1.5,13.5-4.3,19.4c-7.3,15.8-23.3,26.7-41.9,26.7H237.5c-25.5,0-46.1-20.7-46.1-46.1
		V176.8c0-20.3,13.1-37.5,31.3-43.7c4.7-1.6,9.7-2.4,14.9-2.4h457.5C720.6,130.6,741.2,151.3,741.2,176.8z"/>
</g>
<g>
	<path class="st6" d="M741.2,176.8v238.6c0,6.9-1.5,13.5-4.3,19.4c-208.5-15.3-422.7-208.5-514.3-301.7c4.7-1.6,9.7-2.4,14.9-2.4
		h457.5C720.6,130.6,741.2,151.3,741.2,176.8z"/>
</g>
<g>
	<path class="st4" d="M693.9,382l-4.2-0.3c-3.4-2.8-7.2-5-11.4-6.5l7.2-30.1c1.5-6.1-2.3-12.3-8.4-13.7c-6.1-1.5-12.3,2.3-13.7,8.4
		l-8.1,34.2c-17.1,4.3-29.8,19.8-29.8,38.2c0,4.9,0.9,9.6,2.5,13.9l-7.3,16.8l-26-44.6c-7.8-13.3-23.1-19.6-37.4-16.5
		c-6.5-5.2-13.9-9.3-22-11.9c7.7-6.2,12.9-15.2,14.2-25.5c0.2-1.6,0.3-3.3,0.3-4.9v-16.5v-14.6v-5.5c0.1,0,0.2,0,0.2,0
		c8.6,0,15.6-7,15.6-15.6c0-6.6-4.1-12.3-10-14.5v-29.4c0-17.8-11.9-32.8-40.7-37.6c-5.1-0.8-9.7,3.1-9.7,8.2v3.6h-40.5
		c-21.6,0-39.1,17.5-39.1,39.1v51.7v14.6v16.5c0,12.3,5.7,23.3,14.5,30.4c-28,9.1-48.2,35.4-48.2,66.5v136.1h191.5v-55.1l11,18.9
		c4,6.9,10,11.9,16.8,14.7c0,0,0.1,0,0.1,0c4.5,2,9.3,2.9,13.9,2.9c12.9,0,8-25.4,14-37.5l55.5-69.5c1.8-4.2,2.8-8.5,2.9-12.9
		c4.1-6.2,6.6-13.7,6.6-21.8c0-1.9-0.1-3.7-0.4-5.5c2.1-2.4,3.5-5.4,3.8-8.8h0C708.3,389.7,702.1,382.6,693.9,382z M555.4,269.9
		c0.1,0.9,0.2,1.9,0.2,2.8L555.4,269.9z"/>
</g>
<g>
	<rect x="373.3" y="465.8" class="st1" width="237.9" height="106"/>
</g>
<g>
	<path class="st7" d="M707.6,476.1H250c-33.5,0-60.7-27.2-60.7-60.7V176.8c0-33.5,27.2-60.7,60.7-60.7h457.6
		c33.5,0,60.7,27.2,60.7,60.7v238.6C768.3,448.8,741.1,476.1,707.6,476.1z M250,145.2c-17.4,0-31.5,14.2-31.5,31.5v238.6
		c0,17.4,14.2,31.5,31.5,31.5h457.6c17.4,0,31.5-14.2,31.5-31.5V176.8c0-17.4-14.2-31.5-31.5-31.5H250z"/>
</g>
<g>
	<path class="st8" d="M695.1,476.1H237.5c-33.5,0-60.7-27.2-60.7-60.7V176.8c0-33.5,27.2-60.7,60.7-60.7h457.6
		c33.5,0,60.7,27.2,60.7,60.7v238.6C755.8,448.8,728.6,476.1,695.1,476.1z M237.5,145.2c-17.4,0-31.5,14.2-31.5,31.5v238.6
		c0,17.4,14.2,31.5,31.5,31.5h457.6c17.4,0,31.5-14.2,31.5-31.5V176.8c0-17.4-14.2-31.5-31.5-31.5H237.5z"/>
</g>
<g>
	<path class="st9" d="M525.4,255.2H388.7v-20c0-6.7,5.4-12.1,12.1-12.1h112.4c6.7,0,12.1,5.4,12.1,12.1V255.2z"/>
</g>
<g>
	<path class="st3" d="M553.3,410.2v136.1H361.7V410.2c0-38.6,31.3-69.9,70-69.9h51.6C521.9,340.2,553.3,371.5,553.3,410.2z"/>
</g>
<g>
	<path class="st10" d="M474,340.2h-42.1c-38.6,0-69.9,31.3-69.9,69.9v136.1h19.2l20.6-124.7C401.7,383,435.3,340.2,474,340.2z"/>
</g>
<g>
	<path class="st3" d="M553.3,410.2v136.1h-25.8V410.2c0-38.6-31.3-69.9-69.9-69.9h25.8C521.9,340.2,553.3,371.5,553.3,410.2z"/>
</g>
<g>
	<path class="st3" d="M624.4,475.1l-60-103c-9.7-16.6-31-22.2-47.6-12.6l0,0c-16.6,9.7-22.2,31-12.6,47.6l60,103
		c9.7,16.6,31,22.2,47.6,12.6l0,0C628.5,513,634.1,491.7,624.4,475.1z"/>
</g>
<g>
	<path class="st3" d="M369.4,506.3l45.9-110c7.4-17.7-1-38.1-18.7-45.5h0c-17.7-7.4-38.1,1-45.5,18.7l-45.9,110
		c-7.4,17.7,1,38.1,18.7,45.5v0C341.6,532.4,362,524.1,369.4,506.3z"/>
</g>
<g>
	<path class="st11" d="M305.2,495.5l45.9-110c7.2-17.3,26.9-25.7,44.3-19.2c10.6-6.4,23-10.2,36.3-10.2h51.6
		c16.6,0,31.8,5.8,43.8,15.4c14.3-3.1,29.6,3.2,37.4,16.5l60,103c1.8,3,3,6.2,3.8,9.5c2-8.4,0.9-17.4-3.8-25.4l-60-103
		c-7.8-13.3-23.1-19.6-37.4-16.5c-12-9.6-27.2-15.4-43.8-15.4h-51.6c-13.3,0-25.7,3.7-36.3,10.2c-17.4-6.5-37.1,1.8-44.3,19.2
		l-45.9,110c-2.9,7-3.4,14.5-1.8,21.4C303.9,499.1,304.4,497.2,305.2,495.5z"/>
</g>
<g>
	<polygon class="st9" points="476,519.9 441.5,519.9 418,381.2 499.6,381.2 	"/>
</g>
<g>
	<path class="st12" d="M418,381.2l4.4,26.2c8.2,11.2,20.9,18.3,35.1,18.3c16.4,0,30.7-9.4,38.5-23.5l3.6-21H418z"/>
</g>
<g>
	<ellipse class="st9" cx="457.5" cy="369.5" rx="44.8" ry="48.2"/>
</g>
<g>
	<path class="st13" d="M488.8,320.8v43.4c0,17.2-14.1,31.3-31.3,31.3c-17.2,0-31.3-14.1-31.3-31.3v-43.4c0-17.2,14.1-31.3,31.3-31.3
		c8.6,0,16.4,3.5,22.1,9.2C485.3,304.4,488.8,312.2,488.8,320.8z"/>
</g>
<g>
	<path class="st13" d="M519.6,230.4v66.3c0,1.7-0.1,3.3-0.3,4.9c-2.4,19.3-18.9,34.2-38.8,34.2h-45.9c-21.6,0-39.1-17.5-39.1-39.1
		v-66.3c0-21.6,17.5-39.1,39.1-39.1h45.9C502.1,191.3,519.6,208.8,519.6,230.4z"/>
</g>
<g>
	<path class="st14" d="M426.2,331.9v31.1c2.7,0.6,5.5,0.9,8.3,0.9h45.9c2.9,0,5.7-0.3,8.3-0.9v-31.1c-2.7,0.6-5.5,0.9-8.3,0.9h-45.9
		C431.7,332.8,428.9,332.5,426.2,331.9z"/>
</g>
<g>
	<path class="st9" d="M480.5,321.2h-45.9c-21.6,0-39.1-17.5-39.1-39.1v31.1c0,21.6,17.5,39.1,39.1,39.1h45.9
		c19.9,0,36.4-14.9,38.8-34.2c0.2-1.6,0.3-3.3,0.3-4.9v-31.1c0,1.7-0.1,3.3-0.3,4.9C516.8,306.3,500.4,321.2,480.5,321.2z"/>
</g>
<g>
	<g>
		<path class="st12" d="M414,315.4c-11.2-6.9-18.6-19.2-18.6-33.3v31.1c0,21.6,17.5,39.1,39.1,39.1h18.5
			C432.2,352.4,415.1,336,414,315.4z"/>
	</g>
</g>
<g>
	<path class="st9" d="M438.1,187.7v12.9c0,4.9-3.6,9.2-8.5,9.9c-27.2,4.1-38.7,17-40.7,32.8c-0.2,1.6-0.3,3.3-0.3,4.9v-31.1
		c0-1.7,0.1-3.3,0.3-4.9c2-15.6,13.2-28.4,39.6-32.7C433.5,178.7,438.1,182.6,438.1,187.7z"/>
</g>
<g>
	<path class="st9" d="M525.4,217.1v31.1c0-18-12.2-33.2-41.8-37.8c-4.9-0.7-8.5-4.9-8.5-9.8v-12.9c0-5.1,4.6-9,9.7-8.2
		C513.5,184.3,525.4,199.3,525.4,217.1z"/>
</g>
<g>
	<path class="st3" d="M457.5,421.5L457.5,421.5c-5.5,0-9.9-4.4-9.9-9.9v-5.3c0-5.5,4.4-9.9,9.9-9.9h0c5.5,0,9.9,4.4,9.9,9.9v5.3
		C467.4,417,463,421.5,457.5,421.5z"/>
</g>
<g>
	<path class="st10" d="M458.2,427.4h-1.4c-1.5,0-2.7-1.2-2.7-2.7v-6.3c0-1.5,1.2-2.7,2.7-2.7h1.4c1.5,0,2.7,1.2,2.7,2.7v6.3
		C460.9,426.2,459.7,427.4,458.2,427.4z"/>
</g>
<g>
	<path class="st3" d="M457.5,542.3L457.5,542.3c-5.9,0-10.8-4.8-10.8-10.8v-97.2c0-5.9,4.8-10.8,10.8-10.8h0
		c5.9,0,10.8,4.8,10.8,10.8v97.2C468.2,537.4,463.4,542.3,457.5,542.3z"/>
</g>
<g>
	<path class="st3" d="M333.4,531.1l118.3,14.2c19.1,2.3,36.4-11.3,38.7-30.4v0c2.3-19.1-11.3-36.4-30.4-38.7L341.7,462
		c-19.1-2.3-36.4,11.3-38.7,30.4l0,0C300.7,511.5,314.3,528.8,333.4,531.1z"/>
</g>
<g>
	<path class="st15" d="M302.7,497.1c0.1,0.6,0.2,1.2,0.3,1.8c-0.1,0.2-0.1,0.3-0.2,0.5C302.8,498.7,302.8,497.9,302.7,497.1z"/>
</g>
<g>
	<path class="st10" d="M490.3,506c-4.5,16.3-20.4,27.2-37.7,25.1l-118.3-14.2c-16-1.9-28.2-14.5-30.3-29.8c-0.5,1.7-0.8,3.4-1,5.2
		l0,0c-2.3,19.1,11.3,36.4,30.4,38.7l118.3,14.2c19.1,2.3,36.4-11.3,38.7-30.4v0C490.7,511.9,490.7,508.9,490.3,506z"/>
</g>
<g>
	<circle class="st13" cx="395.3" cy="261" r="15.6"/>
</g>
<g>
	<path class="st14" d="M391.4,261c0-4.4,2.9-8,6.8-9.3c-0.9-0.3-1.9-0.4-2.9-0.4c-5.4,0-9.7,4.4-9.7,9.7s4.4,9.7,9.7,9.7
		c1,0,2-0.2,2.9-0.4C394.2,269.1,391.4,265.4,391.4,261z"/>
</g>
<g>
	<circle class="st13" cx="519.8" cy="261" r="15.6"/>
</g>
<g>
	<path class="st14" d="M523.7,261c0,4.4-2.9,8-6.8,9.3c0.9,0.3,1.9,0.4,2.9,0.4c5.4,0,9.7-4.4,9.7-9.7c0-5.4-4.4-9.7-9.7-9.7
		c-1,0-2,0.2-2.9,0.4C520.9,253,523.7,256.7,523.7,261z"/>
</g>
<g>
	<path class="st4" d="M429.2,265.2L429.2,265.2c-3.7,0-6.7-3-6.7-6.7v-6.6c0-3.7,3-6.7,6.7-6.7l0,0c3.7,0,6.7,3,6.7,6.7v6.6
		C436,262.2,432.9,265.2,429.2,265.2z"/>
</g>
<g>
	<path class="st4" d="M485.5,265.2L485.5,265.2c-3.7,0-6.7-3-6.7-6.7v-6.6c0-3.7,3-6.7,6.7-6.7l0,0c3.7,0,6.7,3,6.7,6.7v6.6
		C492.3,262.2,489.2,265.2,485.5,265.2z"/>
</g>
<g>
	<g>
		<path class="st9" d="M439.4,255.2h-19.9c-3.4,0-6.1-2.7-6.1-6.1l0,0c0-3.4,2.7-6.1,6.1-6.1h19.9c3.4,0,6.1,2.7,6.1,6.1l0,0
			C445.5,252.5,442.8,255.2,439.4,255.2z"/>
	</g>
	<g>
		<path class="st9" d="M495.5,255.2h-20c-3.4,0-6.1-2.7-6.1-6.1l0,0c0-3.4,2.7-6.1,6.1-6.1h20c3.4,0,6.1,2.7,6.1,6.1l0,0
			C501.6,252.5,498.9,255.2,495.5,255.2z"/>
	</g>
</g>
<g>
	<path class="st4" d="M429.4,279.8c-11.5,0-20.8-9.3-20.8-20.8c0-0.8,0.7-1.5,1.5-1.5h38.7c0.8,0,1.5,0.7,1.5,1.5
		C450.2,270.5,440.9,279.8,429.4,279.8z M411.6,260.5c0.7,9.2,8.5,16.4,17.8,16.4c9.4,0,17.1-7.2,17.8-16.4H411.6z"/>
</g>
<g>
	<path class="st4" d="M485.2,279.8c-11.5,0-20.8-9.3-20.8-20.8c0-0.8,0.7-1.5,1.5-1.5h38.7c0.8,0,1.5,0.7,1.5,1.5
		C505.9,270.5,496.6,279.8,485.2,279.8z M467.3,260.5c0.7,9.2,8.5,16.4,17.8,16.4c9.4,0,17.1-7.2,17.8-16.4H467.3z"/>
</g>
<g>
	<ellipse class="st14" cx="456.6" cy="306.5" rx="19.4" ry="12.8"/>
</g>
<g>
	<path class="st4" d="M441.3,314.4c3.5-3,9.1-5,15.3-5s11.7,1.9,15.3,5c2.6-2.2,4.1-4.9,4.1-7.9c0-7.1-8.7-12.8-19.4-12.8
		c-10.7,0-19.4,5.7-19.4,12.8C437.2,309.5,438.8,312.2,441.3,314.4z"/>
</g>
<g>
	
		<ellipse transform="matrix(0.9718 -0.2357 0.2357 0.9718 -57.2609 113.1159)" class="st9" cx="444.6" cy="296.1" rx="15.3" ry="10.7"/>
</g>
<g>
	<path class="st9" d="M465.2,306.3c-8.1-2.5-13.3-9-11.5-14.7s9.7-8.2,17.8-5.8c8.1,2.5,13.3,9,11.5,14.7
		C481.3,306.2,473.3,308.8,465.2,306.3z"/>
</g>
<g>
	<path class="st9" d="M490.4,515c2.3-19.1-11.3-36.4-30.4-38.7l-26.4-3.2c-11.3,6.9-18.9,19.4-18.9,33.7c0,17.4,11.3,32.1,26.9,37.4
		l10.1,1.2C470.7,547.6,488.1,534,490.4,515L490.4,515z"/>
</g>
<g>
	
		<ellipse transform="matrix(0.7071 -0.7071 0.7071 0.7071 -221.4224 478.9195)" class="st13" cx="467.4" cy="506.7" rx="39.4" ry="39.4"/>
</g>
<g>
	<path class="st14" d="M502.8,489.5c0,0.2,0,0.5,0,0.7c0,21.8-17.6,39.4-39.4,39.4c-15.6,0-29-9-35.4-22.2
		c0.4,21.4,17.9,38.7,39.4,38.7c21.8,0,39.4-17.6,39.4-39.4C506.8,500.6,505.4,494.7,502.8,489.5z"/>
</g>
<g>
	<path class="st4" d="M664.6,420.7l-38.3,87.7c-6,12.2-18.3,19.4-31.2,19.4c-4.7,0-9.4-0.9-13.9-2.9c-17.6-7.7-25.6-28.2-17.9-45.8
		l38.3-87.7c6-12.2,18.3-19.4,31.2-19.4c4.7,0,9.4,0.9,13.9,2.9C664.3,382.6,672.3,403.1,664.6,420.7z"/>
</g>
<g>
	<path class="st3" d="M664.6,420.7l-38.3,87.7c-6,12.2-18.3,19.4-31.2,19.4c-4.7,0-9.4-0.9-13.9-2.9c-17.6-7.7-25.6-28.2-17.9-45.8
		l38.3-87.7c6-12.2,18.3-19.4,31.2-19.4c4.7,0,9.4,0.9,13.9,2.9C664.3,382.6,672.3,403.1,664.6,420.7z"/>
</g>
<g>
	<path class="st3" d="M646.7,374.9c-1.2-0.5-2.5-1-3.8-1.4c11.5,9.7,15.9,26.1,9.5,40.6l-38.3,87.7c-6,12.2-18.3,19.4-31.2,19.4
		c-3.4,0-6.8-0.5-10.2-1.5c2.5,2.1,5.3,3.8,8.4,5.2c4.5,2,9.3,2.9,13.9,2.9c12.9,0,25.2-7.2,31.2-19.4l38.3-87.7
		C672.3,403.1,664.3,382.6,646.7,374.9z"/>
</g>
<g>
	<path class="st9" d="M646.7,374.9c-4.5-2-9.3-2.9-13.9-2.9c-12.9,0-25.2,7.2-31.2,19.4l-7.7,17.6c5.2,15.6,20,26.9,37.4,26.9
		c15.8,0,29.4-9.3,35.7-22.7C669.9,397.5,661.8,381.5,646.7,374.9z"/>
</g>
<g>
	<circle class="st13" cx="634.7" cy="386.1" r="39.4"/>
</g>
<g>
	<path class="st14" d="M670.1,368.8c0,0.2,0,0.5,0,0.7c0,21.8-17.6,39.4-39.4,39.4c-15.6,0-29-9-35.4-22.2
		c0.4,21.4,17.9,38.7,39.4,38.7c21.8,0,39.4-17.6,39.4-39.4C674.1,379.9,672.6,374,670.1,368.8z"/>
</g>
<g>
	<path class="st9" d="M630.2,375.3L630.2,375.3c-6.1-1.5-9.9-7.6-8.4-13.7l11.4-47.9c1.5-6.1,7.6-9.9,13.7-8.4l0,0
		c6.1,1.5,9.9,7.6,8.4,13.7l-11.4,47.9C642.5,372.9,636.3,376.7,630.2,375.3z"/>
</g>
<g>
	<path class="st13" d="M617.7,367.3L617.7,367.3c0.6-8.2,7.7-14.3,15.9-13.7l30.1,2.2c8.2,0.6,14.3,7.7,13.7,15.9v0
		c-0.6,8.2-7.7,14.3-15.9,13.7l-30.1-2.2C623.2,382.6,617.1,375.5,617.7,367.3z"/>
</g>
<g>
	<path class="st14" d="M666.9,356.4c1.3,2.4,1.9,5.1,1.7,8.1c-0.6,8.2-7.7,14.3-15.9,13.7l-30.1-2.2c-1.1-0.1-2.1-0.3-3.1-0.6
		c2.3,4.3,6.7,7.5,12,7.8l30.1,2.2c8.2,0.6,15.3-5.6,15.9-13.7l0,0C678,364.6,673.4,358.3,666.9,356.4z"/>
</g>
<g>
	<path class="st16" d="M629.9,374.4l-4.3-0.3c-3.4-0.2-6-3.2-5.7-6.6l0.3-4.3c0.2-3.4,3.2-6,6.6-5.7l4.3,0.3c3.4,0.2,6,3.2,5.7,6.6
		l-0.3,4.3C636.3,372.1,633.3,374.7,629.9,374.4z"/>
</g>
<path class="st17" d="M380.1,546.7H257.4c-6.5,0-11.9-5.3-11.9-11.9l0,0c0-6.5,5.3-11.9,11.9-11.9h122.6c6.5,0,11.9,5.3,11.9,11.9
	l0,0C391.9,541.4,386.6,546.7,380.1,546.7z"/>
<path class="st18" d="M257.4,534.7c-4.3,0-8.1-2.4-10.2-5.9c-1,1.8-1.7,3.8-1.7,6v0c0,6.5,5.3,11.9,11.9,11.9h122.6
	c6.5,0,11.9-5.3,11.9-11.9v0c0-0.1,0-0.1,0-0.2H257.4z"/>
<g>
	<path class="st0" d="M275.4,546.1H88.6c-4.6,0-8.7-3.1-10-7.5l-2.1-7.4L36.5,391.9c-1.9-6.6,3.1-13.3,10-13.3h186.8
		c4.6,0,8.7,3.1,10,7.5l31.7,110.7l9.9,34.4l0.5,1.6C287.3,539.5,282.3,546.1,275.4,546.1z"/>
</g>
<g>
	<path class="st4" d="M275.5,546.2H88.6c-4.6,0-8.7-3.1-10-7.5l-2.1-7.4l-0.9-3.1c1.7,3.6,5.3,6,9.4,6h186.9c6.9,0,11.9-6.6,10-13.3
		l-0.5-1.6l-9.9-34.4l-28.7-100.3c0.2,0.5,0.4,1,0.6,1.5l31.7,110.7l9.9,34.4l0.5,1.6C287.4,539.5,282.4,546.2,275.5,546.2z"/>
</g>
<g>
	<path class="st0" d="M271.8,534.1H85c-4.1,0-7.7-2.4-9.4-6L36.5,391.9c-1.9-6.6,3.1-13.3,10-13.3h186.8c4.1,0,7.7,2.4,9.4,6
		l28.7,100.2l9.9,34.4l0.5,1.6C283.7,527.5,278.7,534.1,271.8,534.1z"/>
</g>
<g>
	<path class="st19" d="M242.8,384.6c-1.7-3.6-5.3-6-9.4-6H46.5c-6.9,0-11.9,6.6-10,13.3l39.1,136.3c-0.2-0.5-0.4-1-0.6-1.5l-2.1-7.4
		L33,379.9c-1.9-6.6,3.1-13.3,10-13.3h186.8c4.6,0,8.7,3.1,10,7.5L242.8,384.6z"/>
</g>
<g>
	<path class="st18" d="M271.8,534.1H85c-4.1,0-7.7-2.4-9.4-6L36.5,391.9c-1.9-6.6,3.1-13.3,10-13.3h186.8c4.1,0,7.7,2.4,9.4,6
		l28.7,100.2l9.9,34.4l0.5,1.6C283.7,527.5,278.7,534.1,271.8,534.1z"/>
</g>
<g>
	<path class="st20" d="M275.1,496.8c-147.2,6.9-164.2-64.5-156.7-118.3h115c4.6,0,8.7,3.1,10,7.5L275.1,496.8z"/>
</g>
<g>
	<path class="st4" d="M157.9,459.8c-2-6.8,1.8-13.7,8-16c-1.5-0.5-3-0.9-4.6-0.9h-19.9c-8.8,0-15.1,8.4-12.7,16.9
		c1.6,5.6,6.8,9.5,12.7,9.5h19.9c1.7,0,3.2-0.3,4.7-0.9C162.1,467,159.1,463.9,157.9,459.8z"/>
</g>
<g>
	<g>
		<path class="st18" d="M368.4,282c-1.9-4.9-6.6-8.4-12.2-8.4c-0.7,0-1.3,0.1-2,0.2c-5.2-3.2-13-4.1-23-2.8
			c-2.2,0.3-4.5,0.7-6.8,1.3c-5.1-16.4-13.5-26.9-23-26.9c-9.5,0-17.9,10.5-23,26.9c-4.4-1-8.5-1.6-12.3-1.8
			c-1.9-4.9-6.6-8.4-12.2-8.4c-7.2,0-13.1,5.9-13.1,13.1c0,2.3,0.6,4.4,1.6,6.3c-0.4,1.4-0.7,2.9-0.7,4.5c0,7.5,4.9,16.8,13.6,26.2
			c-11.6,12.7-16.6,25.1-11.8,33.4c3.2,5.6,10.3,8.3,19.8,8.3c4.5,0,9.6-0.6,15-1.8c1.1,3.5,2.4,6.8,3.7,9.7
			c-2.2,2.3-3.5,5.4-3.5,8.9c0,2.3,0.6,4.4,1.6,6.3c1,1.8,2.4,3.4,4.1,4.5c2.1,1.4,4.6,2.3,7.3,2.3c4.1,0,7.7-1.9,10.1-4.8
			c9.4-0.3,17.6-10.7,22.6-26.9c5.4,1.2,10.5,1.8,15,1.8c9.5,0,16.6-2.7,19.8-8.3c4.8-8.3-0.1-20.7-11.8-33.4
			c3.9-4.2,7-8.4,9.2-12.4c6.9-0.2,12.5-5.9,12.6-12.9c0-0.1,0-0.1,0-0.2C369.2,285,368.9,283.4,368.4,282z M323.8,292.4
			c-2.6-1.7-5.4-3.4-8.2-5.1c-2.8-1.6-5.7-3.2-8.5-4.6c4.8-2,9.4-3.6,13.9-4.8C322.2,282.3,323.1,287.2,323.8,292.4z M329.5,302.3
			c4.2,3.2,7.9,6.5,11.2,9.7c-3.2,3.2-7,6.5-11.2,9.7c0.2-3.2,0.3-6.4,0.3-9.7C329.8,308.7,329.7,305.5,329.5,302.3z M325,312
			c0,4.7-0.2,9.1-0.6,13.4c-3.5,2.4-7.3,4.8-11.3,7.2c-4,2.3-8,4.4-11.8,6.2c-3.9-1.8-7.8-3.9-11.9-6.2c-4-2.3-7.8-4.7-11.3-7.2
			c-0.4-4.2-0.6-8.7-0.6-13.4c0-4.7,0.2-9.1,0.6-13.4c3.5-2.4,7.3-4.8,11.3-7.2c3.9-2.3,7.9-4.4,11.9-6.2c3.9,1.8,7.8,3.9,11.8,6.2
			c4,2.3,7.8,4.7,11.3,7.2C324.9,302.9,325,307.3,325,312z M321,346.1c-4.4-1.2-9.1-2.8-14-4.9c2.8-1.4,5.7-2.9,8.5-4.6
			c2.9-1.6,5.6-3.3,8.2-5.1C323.1,336.8,322.2,341.7,321,346.1z M278.9,331.6c2.6,1.8,5.4,3.4,8.2,5.1c2.9,1.6,5.7,3.2,8.5,4.6
			c-4.9,2-9.6,3.7-14,4.9C280.5,341.7,279.5,336.8,278.9,331.6z M273.1,321.7c-4.2-3.2-7.9-6.5-11.2-9.7c3.2-3.2,7-6.5,11.2-9.7
			c-0.2,3.2-0.3,6.4-0.3,9.7C272.8,315.3,272.9,318.5,273.1,321.7z M281.6,277.9c4.4,1.2,9.1,2.8,14,4.9c-2.9,1.4-5.7,3-8.5,4.6
			c-2.9,1.6-5.6,3.3-8.2,5.1C279.5,287.2,280.5,282.3,281.6,277.9z M301.3,250.1c6.7,0,13.8,8.6,18.4,23.2
			c-5.9,1.6-12.1,3.9-18.4,6.7c-6.4-2.9-12.5-5.1-18.4-6.7C287.6,258.7,294.6,250.1,301.3,250.1z M253.9,266.7
			c2.9,0,5.4,1.5,6.9,3.7c0.9,1.3,1.4,2.9,1.4,4.6v0.1c-0.1,4.5-3.8,8.2-8.3,8.2c-2.4,0-4.5-1-6-2.6c-1.2-1.3-2-3-2.3-4.8
			c0-0.3-0.1-0.6-0.1-0.9C245.6,270.4,249.3,266.7,253.9,266.7z M246.5,285.8c2.1,1.4,4.6,2.3,7.3,2.3c7.1,0,13-5.7,13.1-12.9
			c3.1,0.2,6.5,0.7,10.1,1.5c-1.5,5.9-2.7,12.3-3.4,19.3c-5.6,4.1-10.7,8.3-15,12.6C250.7,299.9,246.5,291.8,246.5,285.8z
			 M247.7,343c-3.4-5.8,0.6-16.2,10.9-27.5c4.3,4.3,9.3,8.5,15,12.6c0.7,6.9,1.9,13.4,3.4,19.3C262,350.6,251.1,348.8,247.7,343z
			 M291.6,378.7c-2.4,0-4.5-1-6-2.6c-1.2-1.3-2-3-2.3-4.8c0-0.3-0.1-0.6-0.1-0.9c0-1.6,0.4-3,1.2-4.2c0.8-1.4,2.1-2.6,3.6-3.3
			c1.1-0.5,2.3-0.8,3.5-0.8c2.9,0,5.4,1.5,6.9,3.7c0.9,1.3,1.4,2.9,1.4,4.6v0.1c0,1.1-0.2,2.2-0.7,3.2c-0.7,1.6-1.9,3-3.4,3.9
			C294.6,378.3,293.2,378.7,291.6,378.7z M304.4,373.4c0.2-0.9,0.3-1.8,0.3-2.7c0-0.1,0-0.1,0-0.2c0-1.6-0.3-3.2-0.8-4.6
			c-1.9-4.9-6.6-8.4-12.2-8.4c-2,0-4,0.5-5.7,1.3c-1.1-2.4-2.1-5.1-3-8c1.5-0.4,3-0.9,4.5-1.3c4.5-1.4,9.1-3.2,13.9-5.4
			c6.4,2.9,12.5,5.1,18.4,6.7C315.8,363.2,310.1,371.2,304.4,373.4z M355,343c-3.4,5.8-14.3,7.6-29.3,4.3c1.5-5.9,2.7-12.3,3.4-19.3
			c5.7-4.1,10.7-8.3,15-12.6C354.4,326.8,358.3,337.1,355,343z M344,308.6c-4.3-4.2-9.3-8.5-15-12.6c-0.7-6.9-1.9-13.4-3.4-19.3
			c2.1-0.5,4.2-0.8,6.2-1.1c2.7-0.4,5.3-0.6,7.6-0.6c3.4,0,6.3,0.4,8.7,1.1c-3.1,2.4-5.1,6.1-5.1,10.3c0,2.3,0.6,4.4,1.6,6.3
			c1,1.8,2.4,3.4,4.1,4.5c0.8,0.6,1.8,1.1,2.7,1.4C349.6,301.9,347.1,305.2,344,308.6z M364.5,286.7c0,3.5-2.2,6.5-5.3,7.7
			c-0.9,0.4-1.9,0.6-3,0.6c-0.8,0-1.6-0.1-2.3-0.3c-1.4-0.4-2.7-1.2-3.7-2.2c-1.2-1.3-2-3-2.3-4.8c0-0.3-0.1-0.6-0.1-0.9
			c0-3.5,2.2-6.5,5.3-7.7c0.9-0.4,1.9-0.6,3-0.6c1.1,0,2.2,0.2,3.1,0.6c1.6,0.6,2.9,1.7,3.8,3.1
			C363.9,283.3,364.5,284.9,364.5,286.7L364.5,286.7z"/>
	</g>
	<g>
		
			<ellipse transform="matrix(0.2909 -0.9567 0.9567 0.2909 -84.8426 509.5313)" class="st18" cx="301.3" cy="312" rx="15.4" ry="15.4"/>
	</g>
</g>
<g>
	<g>
		<path class="st21" d="M608.8,532h-16c-8.4,0-15.2-6.8-15.2-15.2v-24.1c0-8.4,6.8-15.2,15.2-15.2h16c8.4,0,15.2,6.8,15.2,15.2v24.1
			C624,525.2,617.2,532,608.8,532z M592.8,488.8c-2.2,0-4,1.8-4,4v24.1c0,2.2,1.8,4,4,4h16c2.2,0,4-1.8,4-4v-24.1c0-2.2-1.8-4-4-4
			H592.8z"/>
	</g>
</g>
<g>
	<path class="st22" d="M670.5,546.7h-62.3c-3.9,0-7-3.1-7-7v-72.1c0-3.9,3.1-7,7-7h62.3c3.9,0,7,3.1,7,7v72.1
		C677.5,543.6,674.4,546.7,670.5,546.7z"/>
</g>
<g>
	<circle class="st21" cx="639.3" cy="503.3" r="17.2"/>
</g>
<g class="st23">
	<g>
		<path class="st9" d="M677.5,467.6v41.8c-2.2,0.4-4.4,0.6-6.7,0.6c-21.1,0-38.2-17.1-38.2-38.2v-9.7c0-0.5,0-1,0-1.5h37.9
			C674.4,460.7,677.5,463.8,677.5,467.6z"/>
	</g>
</g>
<g>
	<g>
		<path class="st18" d="M583.3,286.4l-0.7-3.3h-0.2c-1.1,1.4-2.3,2.4-3.4,2.9c-1.1,0.5-2.5,0.8-4.2,0.8c-2.3,0-4-0.6-5.3-1.8
			c-1.3-1.2-1.9-2.8-1.9-5c0-4.6,3.7-7,11.1-7.3l3.9-0.1v-1.4c0-1.8-0.4-3.1-1.2-4c-0.8-0.9-2-1.3-3.7-1.3c-1.9,0-4.1,0.6-6.5,1.8
			l-1.1-2.6c1.1-0.6,2.4-1.1,3.7-1.4c1.3-0.3,2.7-0.5,4-0.5c2.7,0,4.7,0.6,6.1,1.8c1.3,1.2,2,3.1,2,5.8v15.6H583.3z M575.5,284
			c2.2,0,3.8-0.6,5.1-1.8c1.2-1.2,1.8-2.8,1.8-5v-2.1l-3.5,0.1c-2.8,0.1-4.7,0.5-6,1.3c-1.2,0.8-1.8,1.9-1.8,3.5
			c0,1.3,0.4,2.2,1.1,2.9C573.1,283.7,574.1,284,575.5,284z"/>
	</g>
	<g>
		<path class="st18" d="M591.8,268.5v-2.9h19.4v2.9H591.8z M591.8,277.1v-2.9h19.4v2.9H591.8z"/>
	</g>
	<g>
		<path class="st18" d="M646.5,286.4v-14.9c0-1.8-0.4-3.2-1.2-4.1c-0.8-0.9-2-1.4-3.6-1.4c-2.2,0-3.7,0.6-4.8,1.9
			c-1,1.2-1.5,3.1-1.5,5.7v12.8H632v-14.9c0-1.8-0.4-3.2-1.2-4.1c-0.8-0.9-2-1.4-3.6-1.4c-2.2,0-3.8,0.7-4.8,1.9
			c-1,1.3-1.5,3.4-1.5,6.4v12h-3.5v-22.9h2.8l0.6,3.1h0.2c0.7-1.1,1.6-2,2.8-2.6c1.2-0.6,2.5-0.9,4-0.9c3.6,0,5.9,1.3,7,3.9h0.2
			c0.7-1.2,1.7-2.1,3-2.8c1.3-0.7,2.8-1,4.4-1c2.6,0,4.5,0.7,5.8,2c1.3,1.3,1.9,3.5,1.9,6.4v14.9H646.5z"/>
	</g>
	<g>
		<path class="st18" d="M666.3,286.8c-3.3,0-5.9-1-7.7-3.1c-1.8-2-2.7-4.9-2.7-8.6c0-3.8,0.9-6.8,2.8-8.9c1.8-2.1,4.5-3.1,7.9-3.1
			c1.1,0,2.2,0.1,3.3,0.4c1.1,0.2,2,0.5,2.6,0.8l-1.1,2.9c-0.8-0.3-1.6-0.6-2.5-0.8c-0.9-0.2-1.7-0.3-2.4-0.3c-4.6,0-7,3-7,8.9
			c0,2.8,0.6,5,1.7,6.5c1.1,1.5,2.8,2.3,5,2.3c1.9,0,3.9-0.4,5.9-1.2v3.1C670.5,286.4,668.6,286.8,666.3,286.8z"/>
	</g>
	<g>
		<path class="st18" d="M690.8,269.4h-13.7v-2l5.5-5.5c1.7-1.7,2.8-2.9,3.3-3.6c0.5-0.7,0.9-1.4,1.2-2.1c0.3-0.7,0.4-1.4,0.4-2.2
			c0-1.1-0.3-2-1-2.6c-0.7-0.6-1.6-1-2.8-1c-0.9,0-1.7,0.1-2.5,0.4c-0.8,0.3-1.6,0.8-2.6,1.6l-1.3-1.6c1.9-1.6,4-2.4,6.3-2.4
			c2,0,3.5,0.5,4.6,1.5c1.1,1,1.7,2.3,1.7,4c0,1.3-0.4,2.6-1.1,3.9c-0.7,1.3-2.1,2.9-4.2,4.9l-4.6,4.5v0.1h10.7V269.4z"/>
	</g>
</g>
<g>
	<path class="st18" d="M651.2,227.4c1.5-7.1-3.1-14-10.2-15.5c-0.6-0.1-1.1-0.2-1.7-0.2c-1.7-0.1-3.3,0.1-4.8,0.5
		c-4.4,1.4-8,5-9,9.9c-1.5,7.1,3.1,14.1,10.2,15.5C642.7,239.1,649.7,234.5,651.2,227.4z M630.2,223.1c0.6-2.9,2.6-5.1,5.2-6.1
		c1.4-0.5,3-0.7,4.6-0.4l0.2,0c4.4,1,7.2,5.4,6.2,9.8c-0.9,4.5-5.3,7.4-9.8,6.4C632.1,232,629.3,227.6,630.2,223.1z"/>
</g>
<g>
	<path class="st18" d="M592.6,192.5c1.5-7.1-3.1-14-10.2-15.5c-0.6-0.1-1.1-0.2-1.7-0.2c-1.7-0.1-3.3,0.1-4.8,0.5
		c-4.4,1.4-8,5-9,9.9c-1.5,7.1,3.1,14.1,10.2,15.5C584.1,204.1,591.1,199.6,592.6,192.5z M571.6,188.1c0.6-2.9,2.6-5.1,5.2-6.1
		c1.4-0.5,3-0.7,4.6-0.4l0.2,0c4.4,1,7.2,5.4,6.2,9.8c-0.9,4.5-5.3,7.4-9.8,6.4C573.5,197,570.7,192.6,571.6,188.1z"/>
</g>
<g>
	<path class="st18" d="M628.3,185.9c1.7,0.3,3.3,0.2,4.9-0.1c4.9-1.1,8.9-4.9,10-10.1c1.5-7.1-3.1-14-10.2-15.5
		c-7.1-1.5-14.1,3.1-15.5,10.2c-1.5,7.1,3.1,14.1,10.2,15.5C627.9,185.8,628.1,185.8,628.3,185.9z M622.2,171.2
		c0.9-4.5,5.3-7.4,9.8-6.4c4.5,0.9,7.4,5.3,6.4,9.8c-0.7,3.2-3.2,5.6-6.2,6.4c-1.2,0.3-2.4,0.3-3.7,0.1c-0.4-0.1-0.9-0.2-1.3-0.4
		C623.7,179.2,621.4,175.3,622.2,171.2z"/>
</g>
<g>
	<path class="st18" d="M633.9,216l-0.9-4.8l-4.7-25.4l-1-5.2c0.4,0.2,0.8,0.3,1.3,0.4c1.2,0.3,2.5,0.2,3.7-0.1l0.9,4.8l4.6,25l0.9,5
		l-0.2,0C636.9,215.3,635.3,215.5,633.9,216z"/>
</g>
<g>
	<path class="st18" d="M587.8,184.9l4.6-1.7l24.2-8.9l5-1.8c-0.1,0.4-0.1,0.9-0.2,1.3c0,1.3,0.2,2.5,0.7,3.6l-4.5,1.7l-23.8,8.7
		l-4.8,1.8l0-0.2C589,187.8,588.6,186.2,587.8,184.9z"/>
</g>
<g>
	<polygon class="st18" points="587.5,329.8 575,329.8 575,317.2 570.6,317.2 570.6,329.8 558.1,329.8 558.1,334.1 570.6,334.1 
		570.6,346.6 575,346.6 575,334.1 587.5,334.1 	"/>
</g>
<g>
	<polygon class="st18" points="690.3,393.2 699.2,384.3 708.1,393.2 711.2,390.1 702.3,381.2 711.2,372.3 708.1,369.2 699.2,378.1 
		690.3,369.2 687.2,372.3 696.1,381.2 687.2,390.1 	"/>
</g>
<g>
	<g>
		<polygon class="st1" points="880,516.8 879.1,516.8 879.1,510.9 845.4,510.9 837,510.9 766.9,510.9 724.8,510.9 724.8,558.9 
			766.9,558.9 837,558.9 845.4,558.9 879.1,558.9 879.1,553 880,553 880.7,553 880.7,552.7 880.7,517.1 880.7,516.8 		"/>
	</g>
	<g>
		<g>
			<g>
				<rect x="739.3" y="498" class="st24" width="112.2" height="48"/>
			</g>
		</g>
		<g>
			<g>
				<rect x="739.3" y="503.8" class="st25" width="113.9" height="36.3"/>
			</g>
		</g>
		<g>
			<g>
				<path class="st24" d="M809.4,546H697.2v-48h112.2C790.7,498,790.7,546,809.4,546z"/>
			</g>
		</g>
		<g>
			<g>
				<path class="st22" d="M817.9,498h-8.4c-18.7,0-18.7,48,0,48h8.4C799.2,546,799.2,498,817.9,498z"/>
			</g>
		</g>
		<g>
			<g>
				<path class="st9" d="M853.2,504.2v35.6c-0.2,0.1-0.4,0.2-0.7,0.3h-15.7c-7-3-11.9-10-11.9-18.1c0-8.1,4.9-15.1,11.9-18.1h15.7
					C852.7,503.9,852.9,504.1,853.2,504.2z"/>
			</g>
		</g>
		<g>
			<g>
				<path class="st22" d="M826.2,533.9c-1.6,0-2.9-1.3-2.9-2.9v-18c0-1.6,1.3-2.9,2.9-2.9c1.6,0,2.9,1.3,2.9,2.9v18
					C829.2,532.6,827.9,533.9,826.2,533.9z"/>
			</g>
		</g>
		<g>
			<g>
				
					<ellipse transform="matrix(0.161 -0.987 0.987 0.161 92.0094 1152.1941)" class="st26" cx="723.7" cy="522" rx="15.6" ry="15.6"/>
			</g>
		</g>
		<g>
			<g>
				<path class="st26" d="M773.3,537.4h-10.6c-8.5,0-15.4-6.9-15.4-15.4v0c0-8.5,6.9-15.4,15.4-15.4h10.6c8.5,0,15.4,6.9,15.4,15.4
					v0C788.7,530.5,781.8,537.4,773.3,537.4z"/>
			</g>
		</g>
	</g>
</g>
<g>
	<polygon class="st22" points="148.6,277.9 148.6,320.9 125.5,320.9 125.5,344 82.5,344 82.5,277.9 	"/>
</g>
<g>
	<polygon class="st1" points="155.2,245.3 89.1,245.3 82.5,169.9 148.6,169.9 	"/>
</g>
<g>
	<polygon class="st22" points="130.2,236 64.1,236 82.5,169.9 148.6,169.9 	"/>
</g>
<polygon class="st21" points="148.6,320.9 125.5,344 125.5,320.9 "/>
<g>
	<circle class="st4" cx="111.8" cy="177.6" r="5.5"/>
</g>
<g>
	<g>
		<g>
			<path class="st4" d="M822.6,177.7c0,3-2.5,5.5-5.5,5.5c-3,0-5.5-2.5-5.5-5.5c0-3,2.5-5.5,5.5-5.5
				C820.2,172.3,822.6,174.7,822.6,177.7z"/>
		</g>
		<g>
			<circle class="st4" cx="936" cy="177.7" r="5.5"/>
		</g>
	</g>
	<g>
		<g>
			<path class="st4" d="M822.6,349.9c0,3-2.5,5.5-5.5,5.5c-3,0-5.5-2.5-5.5-5.5c0-3,2.5-5.5,5.5-5.5
				C820.2,344.4,822.6,346.8,822.6,349.9z"/>
		</g>
		<g>
			<circle class="st4" cx="936" cy="349.9" r="5.5"/>
		</g>
	</g>
</g>
<g>
	<circle class="st4" cx="117.3" cy="289.5" r="5.5"/>
</g>
<g>
	<path class="st22" d="M876.6,231.4c-29.8,0-54,24.2-54,54s24.2,54,54,54c29.8,0,54-24.2,54-54S906.4,231.4,876.6,231.4z
		 M876.6,331.5c-25.5,0-46.1-20.7-46.1-46.1c0-25.5,20.7-46.1,46.1-46.1c25.5,0,46.1,20.7,46.1,46.1
		C922.7,310.9,902.1,331.5,876.6,331.5z"/>
</g>
<g>
	<path class="st22" d="M950.5,303c-2.2,9.4-37.1,9.2-78-0.5c-40.8-9.7-72.1-25.2-69.9-34.7c0.7-3.1,5.1-5.2,12.2-6.2
		c-3.4,0.9-5.5,2.3-6,4.2c-1.9,8,26.9,21.8,64.3,30.7c37.4,8.9,69.3,9.6,71.2,1.6c0.7-2.8-2.3-6.2-8-9.9
		C946.1,293.6,951.5,298.9,950.5,303z"/>
</g>
<g>
	<path class="st22" d="M903.8,196.7h-54.5c-2.9,0-5.3-2.4-5.3-5.3l0,0c0-2.9,2.4-5.3,5.3-5.3h54.5c2.9,0,5.3,2.4,5.3,5.3l0,0
		C909.1,194.3,906.8,196.7,903.8,196.7z"/>
</g>
<g>
	<polygon class="st1" points="915.4,126.6 849.3,126.6 837.8,63.7 903.9,63.7 	"/>
</g>
<g>
	<rect x="837.8" y="55" class="st22" width="66.1" height="66.1"/>
</g>
<g>
	<circle class="st4" cx="870.1" cy="67.1" r="5.5"/>
</g>
<g>
	<path class="st21" d="M886,93.4h-30.3c-2.9,0-5.3-2.4-5.3-5.3l0,0c0-2.9,2.4-5.3,5.3-5.3H886c2.9,0,5.3,2.4,5.3,5.3l0,0
		C891.3,91,888.9,93.4,886,93.4z"/>
</g>
<g>
	<path class="st21" d="M886,109.1h-30.3c-2.9,0-5.3-2.4-5.3-5.3l0,0c0-2.9,2.4-5.3,5.3-5.3H886c2.9,0,5.3,2.4,5.3,5.3l0,0
		C891.3,106.8,888.9,109.1,886,109.1z"/>
</g>
<g>
	<path class="st22" d="M913.3,217.4h-73.4c-2.9,0-5.3-2.4-5.3-5.3v0c0-2.9,2.4-5.3,5.3-5.3h73.4c2.9,0,5.3,2.4,5.3,5.3v0
		C918.6,215,916.2,217.4,913.3,217.4z"/>
</g>
<g>
	<g>
		<path class="st1" d="M953.2,550.4c5.1-6.2,8.1-14,8.1-22.6c0-14.5-8.7-27-21.2-32.6v-34h0.8c4.1,0,7.5-3.4,7.5-7.5
			s-3.4-7.5-7.5-7.5h-30.5c-4.1,0-7.5,3.4-7.5,7.5s3.4,7.5,7.5,7.5h0.8v34c-12.5,5.5-21.2,18-21.2,32.6c0,8.6,3,16.5,8.1,22.6
			c-1.5,1.4-2.5,3.3-2.5,5.5c0,4.1,3.4,7.5,7.5,7.5h45c4.1,0,7.5-3.4,7.5-7.5C955.7,553.7,954.7,551.8,953.2,550.4z"/>
	</g>
	<g>
		<path class="st0" d="M925.4,547.1h-45c-4.1,0-7.5-3.4-7.5-7.5l0,0c0-4.1,3.4-7.5,7.5-7.5h45c4.1,0,7.5,3.4,7.5,7.5l0,0
			C932.9,543.8,929.5,547.1,925.4,547.1z"/>
	</g>
	<g>
		<rect x="888.4" y="437.4" class="st0" width="28.9" height="74.1"/>
	</g>
	<g>
		<path class="st0" d="M918.2,444.6h-30.5c-4.1,0-7.5-3.4-7.5-7.5l0,0c0-4.1,3.4-7.5,7.5-7.5h30.5c4.1,0,7.5,3.4,7.5,7.5l0,0
			C925.7,441.2,922.3,444.6,918.2,444.6z"/>
	</g>
	<g>
		<circle class="st0" cx="902.9" cy="511.5" r="35.6"/>
	</g>
	<g>
		<circle class="st9" cx="902.9" cy="511.2" r="26.3"/>
	</g>
	<g>
		<path class="st27" d="M929.2,511.2c0,19.4-21,33.9-41.5,22.1c-2.9-1.7-5.3-4.1-6.9-6.9c-5.4-9.4-5.3-18.9-1.7-26.4h47.6
			C928.3,503.3,929.2,507.2,929.2,511.2z"/>
	</g>
	<g>
		<path class="st14" d="M894.1,511.9c0,3.1-2.6,5.7-5.7,5.7s-5.7-2.6-5.7-5.7c0-3.1,2.6-5.7,5.7-5.7S894.1,508.8,894.1,511.9z"/>
	</g>
	<g>
		<path class="st14" d="M921.1,509.7c0,2.1-1.7,3.8-3.8,3.8c-2.1,0-3.8-1.7-3.8-3.8s1.7-3.8,3.8-3.8
			C919.4,506,921.1,507.7,921.1,509.7z"/>
	</g>
	<g>
		<path class="st14" d="M908.9,523.8c0,2.8-2.2,5-5,5s-5-2.2-5-5c0-2.8,2.2-5,5-5S908.9,521.1,908.9,523.8z"/>
	</g>
	<g>
		<path class="st14" d="M905.8,515.3c0,1.6-1.3,2.9-2.9,2.9c-1.6,0-2.9-1.3-2.9-2.9s1.3-2.9,2.9-2.9
			C904.5,512.4,905.8,513.7,905.8,515.3z"/>
	</g>
	<g>
		<rect x="896.2" y="444.6" class="st9" width="13.3" height="55.3"/>
	</g>
	<g>
		<path class="st27" d="M907.8,492.2c0,2.7-2.2,4.9-4.9,4.9c-2.7,0-4.9-2.2-4.9-4.9c0-2.7,2.2-4.9,4.9-4.9
			C905.6,487.4,907.8,489.6,907.8,492.2z"/>
	</g>
	<g>
		<path class="st27" d="M902.9,476.6c0,1.4-1.1,2.5-2.5,2.5c-1.4,0-2.5-1.1-2.5-2.5c0-1.4,1.1-2.5,2.5-2.5
			C901.8,474.2,902.9,475.3,902.9,476.6z"/>
	</g>
	<g>
		<path class="st27" d="M904.2,418.7c0,2.1-1.7,3.7-3.7,3.7c-2.1,0-3.7-1.7-3.7-3.7c0-2.1,1.7-3.7,3.7-3.7
			C902.5,414.9,904.2,416.6,904.2,418.7z"/>
	</g>
	<g>
		<circle class="st27" cx="904.3" cy="467.1" r="1.3"/>
	</g>
	<g>
		<path class="st27" d="M907.8,454.9c0,1.9-1.5,3.4-3.4,3.4c-1.9,0-3.4-1.5-3.4-3.4c0-1.9,1.5-3.4,3.4-3.4
			C906.2,451.5,907.8,453,907.8,454.9z"/>
	</g>
	<g>
		<path class="st27" d="M885,411.2c0,3.4-2.7,6.1-6.1,6.1c-3.4,0-6.1-2.7-6.1-6.1c0-3.4,2.7-6.1,6.1-6.1
			C882.3,405.1,885,407.9,885,411.2z"/>
	</g>
	<g>
		<circle class="st27" cx="898" cy="384.4" r="8.3"/>
	</g>
	<g>
		<path class="st27" d="M918.8,405.1c0,2.7-2.2,4.8-4.8,4.8s-4.8-2.2-4.8-4.8c0-2.7,2.2-4.8,4.8-4.8S918.8,402.5,918.8,405.1z"/>
	</g>
</g>
<g>
	<path class="st28" d="M1000.4,559.3c0,3.6-1.5,6.9-3.9,9.3c-2.4,2.4-5.7,3.9-9.3,3.9H13.1c-7.2,0-13.1-5.9-13.1-13.1
		c0-3.6,1.5-6.9,3.9-9.3c2.4-2.4,5.7-3.9,9.3-3.9h974.1C994.5,546.2,1000.4,552.1,1000.4,559.3z"/>
</g>
<g>
	<path class="st8" d="M1000.4,559.3c0,3.6-1.5,6.9-3.9,9.3c-2.4,2.4-5.7,3.9-9.3,3.9H618.1c-7.2,0-13.1-5.9-13.1-13.1
		c0-3.6,1.5-6.9,3.9-9.3c2.4-2.4,5.7-3.9,9.3-3.9h369.2C994.5,546.2,1000.4,552.1,1000.4,559.3z"/>
</g>
<g>
	<g>
		<path class="st1" d="M176.7,24.9c9.6,11,15.4,25.4,15.4,41.2c0,34.8-28.2,63-63,63c-0.9,0-1.8,0-2.7-0.1c-0.9,0-1.8,0.1-2.7,0.1
			c-8.8,0-17.2-1.8-24.8-5.1c10.8,8.6,24.5,13.8,39.4,13.8c34.8,0,63-28.2,63-63C201.3,54.5,191.7,36.4,176.7,24.9z"/>
	</g>
	<g>
		<path class="st9" d="M77.5,66c0,27.6,21.6,50.1,48.9,51.5c27.2-1.4,48.9-23.9,48.9-51.5c0-27.6-21.6-50.1-48.9-51.5
			C99.2,16,77.5,38.5,77.5,66z M87.5,71.4c-2.9,0-5.3-2.4-5.3-5.3c0-2.9,2.4-5.3,5.3-5.3c2.9,0,5.3,2.4,5.3,5.3
			C92.8,69,90.4,71.4,87.5,71.4z M123.7,107.6c-2.9,0-5.3-2.4-5.3-5.3c0-2.9,2.4-5.3,5.3-5.3c2.9,0,5.3,2.4,5.3,5.3
			C129.1,105.2,126.7,107.6,123.7,107.6z M160,60.7c2.9,0,5.3,2.4,5.3,5.3c0,2.9-2.4,5.3-5.3,5.3c-2.9,0-5.3-2.4-5.3-5.3
			C154.7,63.1,157,60.7,160,60.7z M123.7,24.5c2.9,0,5.3,2.4,5.3,5.3c0,2.9-2.4,5.3-5.3,5.3c-2.9,0-5.3-2.4-5.3-5.3
			C118.4,26.9,120.8,24.5,123.7,24.5z M119.5,57.8V46.3c0-2.3,1.9-4.2,4.2-4.2c2.3,0,4.2,1.9,4.2,4.2v11.5c1.6,0.8,2.9,2.1,3.8,3.6
			h6.3c2.3,0,4.2,1.9,4.2,4.2c0,2.3-1.9,4.2-4.2,4.2h-5.9c-1.5,3.2-4.7,5.4-8.4,5.4c-5.1,0-9.2-4.1-9.2-9.2
			C114.5,62.5,116.5,59.4,119.5,57.8z"/>
	</g>
	<g>
		<path class="st14" d="M128,57.8V46.3c0-2.3-1.9-4.2-4.2-4.2c-2.3,0-4.2,1.9-4.2,4.2v11.5c1.3-0.7,2.7-1,4.2-1
			C125.3,56.8,126.7,57.2,128,57.8z"/>
	</g>
	<g>
		<path class="st14" d="M132.1,69.9h5.9c2.3,0,4.2-1.9,4.2-4.2c0-2.3-1.9-4.2-4.2-4.2h-6.3c0.8,1.4,1.2,2.9,1.2,4.6
			C133,67.4,132.7,68.7,132.1,69.9z"/>
	</g>
	<g>
		<path class="st18" d="M123.7,75.3c3.7,0,6.9-2.2,8.4-5.4c0.5-1.2,0.8-2.5,0.8-3.8c0-1.7-0.5-3.2-1.2-4.6c-0.9-1.5-2.2-2.8-3.8-3.6
			c-1.3-0.7-2.7-1-4.2-1c-1.5,0-3,0.4-4.2,1c-3,1.5-5,4.6-5,8.2C114.5,71.1,118.6,75.3,123.7,75.3z"/>
	</g>
	<g>
		<path class="st4" d="M123.7,35.1c2.9,0,5.3-2.4,5.3-5.3c0-2.9-2.4-5.3-5.3-5.3c-2.9,0-5.3,2.4-5.3,5.3
			C118.4,32.7,120.8,35.1,123.7,35.1z"/>
	</g>
	<g>
		<path class="st4" d="M160,71.4c2.9,0,5.3-2.4,5.3-5.3c0-2.9-2.4-5.3-5.3-5.3c-2.9,0-5.3,2.4-5.3,5.3C154.7,69,157,71.4,160,71.4z"
			/>
	</g>
	<g>
		<path class="st4" d="M123.7,97c-2.9,0-5.3,2.4-5.3,5.3c0,2.9,2.4,5.3,5.3,5.3c2.9,0,5.3-2.4,5.3-5.3C129.1,99.3,126.7,97,123.7,97
			z"/>
	</g>
	<g>
		<path class="st4" d="M87.5,60.7c-2.9,0-5.3,2.4-5.3,5.3c0,2.9,2.4,5.3,5.3,5.3c2.9,0,5.3-2.4,5.3-5.3
			C92.8,63.1,90.4,60.7,87.5,60.7z"/>
	</g>
	<g>
		<path class="st26" d="M186.8,66c0,33.9-26.8,61.6-60.4,62.9c0.9,0,1.8,0.1,2.7,0.1c34.8,0,63-28.2,63-63
			c0-15.8-5.8-30.1-15.4-41.2C165.2,11.5,148.1,3,129.1,3c-0.9,0-1.8,0-2.7,0.1C160,4.5,186.8,32.1,186.8,66z"/>
	</g>
	<g>
		<path class="st29" d="M72.2,66c0,28.5,23.1,51.5,51.5,51.5c0.9,0,1.8,0,2.7-0.1C99.2,116.1,77.5,93.6,77.5,66
			c0-27.6,21.6-50.1,48.9-51.5c-0.9,0-1.8-0.1-2.7-0.1C95.3,14.5,72.2,37.6,72.2,66z"/>
	</g>
	<g>
		<path class="st18" d="M126.4,129c33.6-1.4,60.4-29,60.4-62.9S160,4.5,126.4,3.1c-0.9,0-1.8-0.1-2.7-0.1c-34.8,0-63,28.2-63,63
			c0,26,15.8,48.3,38.3,58c7.6,3.3,16,5.1,24.8,5.1C124.6,129.1,125.5,129,126.4,129z M123.7,14.5c0.9,0,1.8,0,2.7,0.1
			c27.2,1.4,48.9,23.9,48.9,51.5c0,27.6-21.6,50.1-48.9,51.5c-0.9,0-1.8,0.1-2.7,0.1c-28.5,0-51.5-23.1-51.5-51.5
			C72.2,37.6,95.3,14.5,123.7,14.5z"/>
	</g>
</g>
</svg>
