<?xml version="1.0" encoding="utf-8"?>
<!-- Generator: Adobe Illustrator 24.0.3, SVG Export Plug-In . SVG Version: 6.00 Build 0)  -->
<svg version="1.1" id="Layer_1" xmlns="http://www.w3.org/2000/svg" xmlns:xlink="http://www.w3.org/1999/xlink" x="0px" y="0px"
	 viewBox="0 0 213.7 301.2" style="enable-background:new 0 0 213.7 301.2;" xml:space="preserve">
<style type="text/css">
	.st0{fill:#36234C;}
	.st1{fill:#4A3666;}
	.st2{fill:#C4C4C4;}
</style>
<g>
	<path class="st0" d="M106.9,68c-16.1,0-29.1-13-29.1-29.1s13-29.1,29.1-29.1c16.1,0,29.1,13,29.1,29.1S123,68,106.9,68z M106.9,0
		C85.4,0,68,17.4,68,38.9c0,21.5,17.4,38.9,38.9,38.9c21.5,0,38.9-17.4,38.9-38.9C145.7,17.4,128.3,0,106.9,0z"/>
	<path class="st1" d="M116.5,97.1V58.2c0-5.3-4.3-9.7-9.7-9.7h0c-5.3,0-9.7,4.3-9.7,9.7v38.9v175h19.4v-175H116.5z"/>
	<path class="st0" d="M53.4,126.3L53.4,126.3c-2.7,0-4.9-2.2-4.9-4.9V92.3c0-2.7,2.2-4.9,4.9-4.9l0,0c2.7,0,4.9,2.2,4.9,4.9v29.2
		C58.3,124.1,56.1,126.3,53.4,126.3z"/>
	<path class="st0" d="M160.3,126.3L160.3,126.3c-2.7,0-4.9-2.2-4.9-4.9V92.3c0-2.7,2.2-4.9,4.9-4.9l0,0c2.7,0,4.9,2.2,4.9,4.9v29.2
		C165.1,124.1,163,126.3,160.3,126.3z"/>
	<g>
		<path class="st0" d="M194.3,155.5L194.3,155.5l-19.4,38.9l9.7,0c0,42.9-34.8,77.7-77.7,77.7h0c-42.9,0-77.7-34.8-77.7-77.7l9.7,0
			l-19.4-38.9v0L0,194.4l9.7,0c0,50.4,38.4,91.8,87.5,96.7l9.6,10.1l9.6-10.2c49.1-4.8,87.5-46.3,87.5-96.7l9.7,0L194.3,155.5z"/>
		<path class="st1" d="M174.8,194.4l9.7,0c0,42.9-34.8,77.7-77.7,77.7h0c-42.9,0-77.7-34.8-77.7-77.7l9.7,0l-19.4-38.9v38.9
			c0,48.3,39.1,87.4,87.4,87.4h0c48.3,0,87.4-39.1,87.4-87.4v0l0-38.9L174.8,194.4z"/>
	</g>
	<g>
		<path class="st0" d="M97.1,58.2v38.9v175h9.7V48.6C101.5,48.6,97.1,52.9,97.1,58.2z"/>
	</g>
	<rect x="58.3" y="97.1" class="st1" width="97.1" height="9.7"/>
	<rect x="58.3" y="106.9" class="st0" width="97.1" height="9.7"/>
	<path class="st2" d="M106.9,102L106.9,102c2.7,0,4.9,2.2,4.9,4.9l0,0c0,2.7-2.2,4.9-4.9,4.9l0,0c-2.7,0-4.9-2.2-4.9-4.9l0,0
		C102,104.2,104.2,102,106.9,102z"/>
</g>
</svg>
