<svg xmlns="http://www.w3.org/2000/svg" viewBox="0 0 2678.93 2261.24"><defs><style>.cls-1,.cls-10,.cls-11,.cls-12,.cls-13,.cls-14,.cls-15,.cls-16,.cls-2,.cls-25,.cls-3,.cls-4,.cls-5,.cls-6,.cls-7,.cls-8,.cls-9{fill:none;}.cls-1,.cls-10,.cls-11,.cls-12,.cls-13,.cls-25,.cls-6,.cls-7,.cls-8,.cls-9{stroke:#000;}.cls-1,.cls-2,.cls-25,.cls-3,.cls-4,.cls-5,.cls-6{stroke-linecap:round;}.cls-1,.cls-5{stroke-width:4.76px;}.cls-2,.cls-23{stroke:#5f2d78;}.cls-2{stroke-width:92px;}.cls-3,.cls-4,.cls-5{stroke:#e54355;}.cls-3{stroke-width:12px;}.cls-10,.cls-4,.cls-6{stroke-width:5px;}.cls-7{stroke-width:6px;}.cls-8{stroke-width:18px;}.cls-9{stroke-width:14.29px;}.cls-11{stroke-width:11px;}.cls-12{stroke-width:4px;}.cls-13{stroke-width:19.53px;}.cls-14,.cls-15,.cls-16{stroke:#eb8b23;}.cls-14{stroke-width:29.54px;}.cls-15{stroke-width:8px;}.cls-16{stroke-width:35px;}.cls-17,.cls-26{fill:#f6cc1b;}.cls-17{stroke:#f6cc1b;}.cls-17,.cls-19,.cls-23{stroke-miterlimit:10;}.cls-18{fill:#eb8b23;}.cls-19{stroke:#140a23;}.cls-20{fill:#140a23;}.cls-21{fill:#ff6b6b;}.cls-22{fill:#e34545;}.cls-23{fill:#5f2d78;}.cls-24{fill:#e54355;}.cls-25{stroke-width:4.43px;}</style></defs><title>riding the pencil</title><g id="Background_Details" data-name="Background Details"><g id="Waves"><path class="cls-1" d="M578.81,2013.8c-17.69-45.53-37.91-175,110-149.57,121.52,20.9,124.77-94,110.07-152.81" transform="translate(-232.05 -322.46)"/><path class="cls-2" d="M2302.55,453.16C2401.81,807.29,2407,1492.54,1685.34,1342c-878.22-183.27-731.54,599.74-617.46,875.31l124,283.77" transform="translate(-232.05 -322.46)"/><path class="cls-1" d="M2231.7,1804.25c-4.73-9.69-11.59-37.81,21.42-35,27.13,2.35,25.71-23,21.38-35.66" transform="translate(-232.05 -322.46)"/><path class="cls-3" d="M2156.2,2387.87c-7.82-16-19.13-62.39,35.35-57.69,44.77,3.87,42.43-38,35.29-58.86" transform="translate(-232.05 -322.46)"/><path class="cls-1" d="M625,1165.37c-7.66-15.48-20.54-57.66,24.63-40.51,37.11,14.1,32-22,24.48-41.52" transform="translate(-232.05 -322.46)"/><path class="cls-4" d="M1118.75,877.36c-14-28.37-37.63-105.64,45.12-74.22,68,25.82,58.58-40.36,44.87-76.07" transform="translate(-232.05 -322.46)"/><path class="cls-1" d="M2623.07,1705.4c-14-28.37-37.63-105.64,45.12-74.22,68,25.83,58.58-40.36,44.87-76.07" transform="translate(-232.05 -322.46)"/><path class="cls-1" d="M728.08,2499.09c-8.65-21.74-18.78-83.78,52.42-72.65,58.51,9.15,59.72-46.07,52.46-74.2" transform="translate(-232.05 -322.46)"/></g><g id="Lines"><path class="cls-5" d="M1760.07,2094.74l-382.43,458.91" transform="translate(-232.05 -322.46)"/><path class="cls-5" d="M2001.41,1910l-489.1,587.74" transform="translate(-232.05 -322.46)"/><path class="cls-5" d="M1806.31,2248l-270,333.37" transform="translate(-232.05 -322.46)"/><path class="cls-1" d="M556.88,805.82l-126.73,152-126.73,152" transform="translate(-232.05 -322.46)"/><path class="cls-6" d="M880.9,501.88l-475,568.6" transform="translate(-232.05 -322.46)"/><path class="cls-1" d="M625.87,926.36,234.43,1404.54" transform="translate(-232.05 -322.46)"/><path class="cls-6" d="M2908.48,1611.28l-416.71,504.26" transform="translate(-232.05 -322.46)"/><path class="cls-1" d="M2790.67,1871.67l-369.88,446.14" transform="translate(-232.05 -322.46)"/></g><g id="Black_Elipses" data-name="Black Elipses"><circle class="cls-7" cx="2336.06" cy="952.62" r="34.62"/><circle class="cls-8" cx="107.56" cy="386.04" r="27.18"/><circle class="cls-9" cx="2259.72" cy="1645.93" r="13.36"/><circle class="cls-7" cx="1412.25" cy="125.6" r="66.31"/><circle class="cls-10" cx="319.29" cy="1999.41" r="49.57"/><circle class="cls-11" cx="2275.42" cy="556.1" r="43.46"/><circle class="cls-12" cx="1754.73" cy="1813.51" r="67.6"/><circle class="cls-13" cx="1965.59" cy="1043.31" r="13.5"/><circle class="cls-13" cx="1420.07" cy="294.1" r="13.5"/><circle class="cls-13" cx="1426.2" cy="2188.83" r="13.5"/><circle class="cls-13" cx="622.33" cy="1163.13" r="13.5"/></g><g id="Color_Elipses" data-name="Color Elipses"><circle class="cls-14" cx="203.64" cy="1352.51" r="152.95"/><circle class="cls-15" cx="2423.47" cy="920.46" r="180.25"/><circle class="cls-16" cx="870.58" cy="294.1" r="38.26"/></g></g><g id="Pencil"><path class="cls-17" d="M1831.57,533.41l254.16,292.84-728.24,632-254.15-292.84Z" transform="translate(-232.05 -322.46)"/><path d="M2184.32,744.13,1923.59,443.71l-66.23,57.47L2118.1,801.61ZM1884.85,643.31a2.5,2.5,0,0,0-3.24-3.81l-699.43,594.93a2.5,2.5,0,1,0,3.24,3.81Zm-175.28,74.15a2.5,2.5,0,0,0-3.24-3.81l-541.52,460.47a2.5,2.5,0,0,0,3.23,3.81Zm111.83,67.1a2.5,2.5,0,0,1-.28,3.53L1279.6,1248.55a2.5,2.5,0,1,1-3.24-3.8l541.52-460.47A2.49,2.49,0,0,1,1821.4,784.56Zm131.52,87.26a2.5,2.5,0,0,0-3.24-3.81l-541.52,460.47a2.5,2.5,0,1,0,3.23,3.81Zm23.23-109a2.51,2.51,0,0,1-.31,3.53l-682.06,574.18a2.5,2.5,0,0,1-3.22-3.83l682.06-574.18A2.51,2.51,0,0,1,1976.15,762.82Z" transform="translate(-232.05 -322.46)"/><path class="cls-17" d="M944.44,1556.1l378-59.24L1056.3,1190.18l-55.93,183Z" transform="translate(-232.05 -322.46)"/><path d="M984.64,1424.64l-40.35,131.57L1079.1,1535l-24.17-8.49,7.27-25.9-27.71-10.45-5-29.53L998.6,1457Z" transform="translate(-232.05 -322.46)"/><path class="cls-18" d="M2068.84,322.46l260.74,300.42L2206.4,729.79,1945.66,429.37Z" transform="translate(-232.05 -322.46)"/></g><g id="Girl"><g id="Legs"><path class="cls-19" d="M1352.15,2171.69l-126.47-159c-32.35,46.88-102.82,141.67-120.59,146.93-22.2,6.58-30.43,4.94-81.43-20.56-40.79-20.4-98.7-22.21-122.56-20.57L1037.65,2357c61.85-11.85,85.54-1.1,89.65,5.76l-62.51,46.06,35.37,54.29C1188.33,2430.86,1305.27,2255.31,1352.15,2171.69Z" transform="translate(-232.05 -322.46)"/><path class="cls-20" d="M1398.91,2125.78c0-10.68-7.75-30.39-11.62-38.91l170.78-68.55L1622,2107.2l-44.73,44.14-30.78-36c-16.27,10.22-11.43,53.05-7,73.19L1378.58,2343c-1-1.36-4.53-7.55-11-21.49C1344.31,2251.83,1398.91,2139.14,1398.91,2125.78Z" transform="translate(-232.05 -322.46)"/><path class="cls-10" d="M1194.44,2104.12c4.85-48.44,6.14-143.59-27.53-136.64S1171.24,2061.47,1194.44,2104.12Z" transform="translate(-232.05 -322.46)"/><path class="cls-10" d="M1199.37,2107.24c-16.45-47.09-56.06-136.2-82.94-116S1160.53,2077,1199.37,2107.24Z" transform="translate(-232.05 -322.46)"/><path class="cls-21" d="M1357.74,1712.31c29.33,23,130.92,68.08,178.06,87.72l-74.5-231.66-137.6-9.24c-38.84-3.49-125.17,14.14-159.73,112.59s71.13,227.82,128.31,280.19l140.09-94.27Z" transform="translate(-232.05 -322.46)"/><path class="cls-21" d="M1610.63,2030.9l-69.41-205.77c-30,6.89-107.84,22.32-146.73,34.55-86.74,27.29-129.13,105.65-168.79,153,42.09,55,126.29,159.43,126.29,159.07C1428.73,2043.53,1556.39,2024.42,1610.63,2030.9Z" transform="translate(-232.05 -322.46)"/><path class="cls-22" d="M1610.63,2030.9l-34.9-99.51c0,73.81-83.85,118.77-83.85,118.77C1531.59,2035.42,1561.16,2027.2,1610.63,2030.9Z" transform="translate(-232.05 -322.46)"/><path class="cls-23" d="M1457.9,1566.45s239.21,47.81,248.27,45.82L1944,1881.93c-72.58,99.51-256.7,142.88-335.88,149.74Z" transform="translate(-232.05 -322.46)"/><path class="cls-24" d="M1778.77,1694.72l165.38,186.35s-71.71,117.47-336.39,151L1576,1932.22s85.93-43.29,125.89-88C1745.59,1795.22,1778.77,1694.72,1778.77,1694.72Z" transform="translate(-232.05 -322.46)"/><path class="cls-6" d="M1790.15,1794.57c-9.2,16.35-24.83,58.55-13.79,96.55s-111.88,73.06-174.72,85.83" transform="translate(-232.05 -322.46)"/><path class="cls-10" d="M1477.37,1581.26l220.71,41L1941.37,1899c-78.25,89.62-247.75,132.65-322.71,143Z" transform="translate(-232.05 -322.46)"/><path class="cls-6" d="M1330,1682.37a454.83,454.83,0,0,1,55,64" transform="translate(-232.05 -322.46)"/><path class="cls-6" d="M1258.86,1951.91c14.86-15.67,83.19-85.35,137.89-99.76" transform="translate(-232.05 -322.46)"/></g><g id="Head"><path d="M2053.73,1229.69c-19.85-186.41-105-239.77-145.82-236.77-8.59,0-81.17-8.26-111.24,55.62-6,18.8-105.91,18.63-89.22,117,12.08,103,230.53,123.48,241,123.48,13.83,3,75.91,1.26,105.23,0C2055.73,1298.58,2058.54,1300,2053.73,1229.69Z" transform="translate(-232.05 -322.46)"/><path class="cls-21" d="M1822.77,1196.77c-54.19-20.86-43.16-106-16-138.68,65.81.42,104.7-43.54,103.56-39.67-30.86,104.86,36.28,134.13,35,138.64,24.48,83.66,39.58,94,39.4,94.18-34.6,44.29-81.44,33.73-114.53,20.2l-17.15-74.9C1848.36,1198,1833.78,1201,1822.77,1196.77Z" transform="translate(-232.05 -322.46)"/><circle class="cls-22" cx="1627.31" cy="813.21" r="15.36"/><path class="cls-22" d="M1802.16,1109.87a15.49,15.49,0,0,1-17.86,12.56,136.52,136.52,0,0,1,2-15.39,93.85,93.85,0,0,1,3.74-14.83C1798.41,1093.62,1803.57,1101.51,1802.16,1109.87Z" transform="translate(-232.05 -322.46)"/><path class="cls-22" d="M1853,1196.55c16.09-5.56,52.61-22.45,72.07-45.07l1.14-1.35c-.38.45-.75.9-1.14,1.35l-64.73,77Z" transform="translate(-232.05 -322.46)"/><path class="cls-6" d="M1822,1133.46s-14.54-4.93-14.54-12.39c0-4.78,16.46-30.09,16.46-30.09" transform="translate(-232.05 -322.46)"/><path class="cls-25" d="M1925.47,1151.26c-7.16,9.14-29.09,30.55-59.62,43.06" transform="translate(-232.05 -322.46)"/><ellipse cx="1859.63" cy="1100.15" rx="6.63" ry="5.06" transform="translate(-479.07 1257.87) rotate(-43.45)"/><ellipse cx="1806.63" cy="1083.69" rx="6.63" ry="5.06" transform="translate(-318.19 1686.27) rotate(-57)"/></g><g id="Body"><path class="cls-26" d="M1762,1291.78c18.79-28.2,148.81-50.91,211.46-58.75,6.73,0,18.11,0,28.72-22.19,42.61-89.15-13.66-184.35-28.89-252.22,0,0,71.34-32.78,72-31,9.42,24.38,37.29,85.38,56.08,129.24,23.5,54.82,33.94,144.52,0,202.32-12.91,22-62.65,91.38-84.84,124,6.52,67.88,20.36,225.3,23.49,312,3.92,108.34-92.68,190.58-96.59,186.66-3.13-3.13-159.69-181.44-237.57-270.2,6.09-3.91,16.45-13,9.14-18.27s-78.74-114.91-116.16-165.81l48.28-58.71c24.34,21,100.51,94,100.51,94C1744.54,1417.52,1743.15,1320,1762,1291.78Z" transform="translate(-232.05 -322.46)"/><path class="cls-18" d="M1773.21,1281.82c23.27-16.33,81.68-29.29,108-33.2-11.27,4.57-37.61,16.22-52.9,22S1785.2,1280.53,1773.21,1281.82Z" transform="translate(-232.05 -322.46)"/><path class="cls-18" d="M1874.15,1476.93a96.65,96.65,0,0,0-6.15,12.47c-15.73,30.87-45.57,82.95-64.7,90.21-7,2.67-17.77,11.31-75,11.31,0,0,32.09,16.42,42.24,15.68,68.19-2.16,80.39-76.58,97.46-117.2C1870.41,1484.67,1872.49,1480.43,1874.15,1476.93Z" transform="translate(-232.05 -322.46)"/><path class="cls-6" d="M1874.15,1476.93c-21.16,35.07-33.88,128.87-94.92,128.87" transform="translate(-232.05 -322.46)"/><path class="cls-6" d="M1997.29,1311.44a864.65,864.65,0,0,1,39.17,155.19" transform="translate(-232.05 -322.46)"/><path class="cls-6" d="M2023,1290.32a201.31,201.31,0,0,0-2,60.7" transform="translate(-232.05 -322.46)"/><path class="cls-6" d="M1951.3,1243.49a285.62,285.62,0,0,0-88.81,6" transform="translate(-232.05 -322.46)"/><path class="cls-6" d="M1710.75,1421.6a455.57,455.57,0,0,1,55,64" transform="translate(-232.05 -322.46)"/><path class="cls-6" d="M2122.2,1140.36a455.71,455.71,0,0,1,1.7,84.37" transform="translate(-232.05 -322.46)"/><path d="M1816.67,1331a48.19,48.19,0,0,1-70.36,53.71c-.68-3.87,1.56-34.59,3.9-52.88,2.64-20.7,8.84-35.9,10.31-37.7C1786.33,1287.61,1810.2,1305.14,1816.67,1331Z" transform="translate(-232.05 -322.46)"/><path d="M1975.65,1633.75a48.17,48.17,0,0,1,22-64.47c11.51-5.65,23.56-3.54,34.91,0,0,2.55,1.68,27.72,3.27,46.66,1.74,20.79,2.4,41.8,2.4,42.14C2014.38,1669.8,1987.37,1657.64,1975.65,1633.75Z" transform="translate(-232.05 -322.46)"/><circle cx="1590.74" cy="1335.19" r="45.7"/><circle cx="1704.3" cy="1112.28" r="45.7"/><circle cx="1836.76" cy="837.06" r="45.7"/><path d="M2032,1012.25a45.69,45.69,0,0,0,60.23,23.42L2055.38,952A45.7,45.7,0,0,0,2032,1012.25Z" transform="translate(-232.05 -322.46)"/></g><g id="Hands"><path class="cls-21" d="M1530.7,1216.5c12.83-2.57,83,100,116.52,152.3l-48.09,58.37c-6.41-11.77-24.33-27.63-30.74-32.64-17-13.28-154.38-45.31-152.37-57.74,1.6-9.94,35.15-.67,51.72,5.21-21.11-8-63.11-26.3-62.15-35.28s46.12,3.74,68.57,11.22c-21.79-8.55-67-26.86-73.38-31.67l-.24-.18c-7.83-5.88-10.53-7.9-5.37-13.86,4.17-4.81,56.8,13,82.6,22.46-14.17-9.22-43.87-29.67-49.32-37.69s4.41-9.76,10-9.63c32.48,14.44,99.44,42.43,107.46,38.9C1556,1281.86,1514.66,1219.71,1530.7,1216.5Z" transform="translate(-232.05 -322.46)"/><path class="cls-21" d="M1933.67,753.47c-10.52,7.77,23.43,145.24,39.58,205.2l72-31.09c-4.4-12.65-4.08-13.37-5.12-26.54-1.69-21.49,70.22-144.75,59.67-151.62-8.44-5.5-24.12,25.58-30.91,41.8,8.26-21,23-64.41,15.65-69.73s-28.22,36.65-37.77,58.31c8.31-21.88,25.12-67.64,25.87-75.62l0-.3c.92-9.75,1.24-13.11-6.64-13.29-6.37-.15-28.59,50.77-38.9,76.25,2.7-16.69,7.52-52.42,5.25-61.85s-10.19-3.3-13.87,1c-11.14,33.75-35.43,102.14-43.43,105.71C1965.08,816.1,1946.83,743.75,1933.67,753.47Z" transform="translate(-232.05 -322.46)"/><path class="cls-6" d="M1591.88,1440a454.75,454.75,0,0,1,51-67.26" transform="translate(-232.05 -322.46)"/><path class="cls-6" d="M1963,966.59a455.32,455.32,0,0,1,76.89-34.77" transform="translate(-232.05 -322.46)"/><path class="cls-6" d="M1511.1,1302.83l-10.67-4.91" transform="translate(-232.05 -322.46)"/><path class="cls-6" d="M1504.91,1325l-10.67-4.9" transform="translate(-232.05 -322.46)"/><path class="cls-6" d="M1500.56,1345.7l-10.67-4.91" transform="translate(-232.05 -322.46)"/><path class="cls-6" d="M2021,789.32l-6.39,9.85" transform="translate(-232.05 -322.46)"/><path class="cls-6" d="M2042,798.65l-6.4,9.85" transform="translate(-232.05 -322.46)"/><path class="cls-6" d="M2061.85,806l-6.4,9.85" transform="translate(-232.05 -322.46)"/></g></g></svg>