<?xml version="1.0" encoding="utf-8"?>
<!-- Generator: Adobe Illustrator 24.0.3, SVG Export Plug-In . SVG Version: 6.00 Build 0)  -->
<svg version="1.1" id="Layer_1" xmlns="http://www.w3.org/2000/svg" xmlns:xlink="http://www.w3.org/1999/xlink" x="0px" y="0px"
	 viewBox="0 0 800 600" style="enable-background:new 0 0 800 600;" xml:space="preserve">
<style type="text/css">
	.st0{fill-rule:evenodd;clip-rule:evenodd;fill:#F6CC1B;}
	.st1{fill-rule:evenodd;clip-rule:evenodd;fill:#53191A;}
	.st2{fill-rule:evenodd;clip-rule:evenodd;fill:#E54355;}
	.st3{fill-rule:evenodd;clip-rule:evenodd;fill:#6C3131;}
	.st4{fill-rule:evenodd;clip-rule:evenodd;fill:#E96477;}
	.st5{fill-rule:evenodd;clip-rule:evenodd;fill:#FA657D;}
	.st6{fill-rule:evenodd;clip-rule:evenodd;fill:#FFBE9F;}
	.st7{fill-rule:evenodd;clip-rule:evenodd;fill:#E95D73;}
	.st8{fill-rule:evenodd;clip-rule:evenodd;fill:#D34499;}
	.st9{fill-rule:evenodd;clip-rule:evenodd;fill:#2E1A47;}
	.st10{fill-rule:evenodd;clip-rule:evenodd;fill:#854A4A;}
	.st11{fill-rule:evenodd;clip-rule:evenodd;fill:#4D3475;}
</style>
<polygon class="st0" points="123.5,75.8 390.4,279.6 378.1,285.1 "/>
<path class="st0" d="M400.4,538.5c120.4,0,218.5-7.8,218.5-17.4c0-9.6-98.2-17.4-218.5-17.4c-120.4,0-218.5,7.8-218.5,17.4
	C181.9,530.7,280,538.5,400.4,538.5z"/>
<path class="st0" d="M400.4,118.2C501.3,118.2,583,200,583,300.8c0,27.6-6.1,53.7-17,77.1c-81.4,18.2-207.9,45.6-288.4,58
	c-13.6-12.4-25.3-26.7-34.7-42.7c33.4-24,71.1-46.4,49.8-39.8c-13.2,4-35.4,11.6-59.8,20.1c-9.7-22.3-15.1-46.9-15.1-72.8
	C217.8,199.9,299.5,118.2,400.4,118.2L400.4,118.2z M563.2,383.7c-73.2,20.9-181.9,50.9-264.3,68.9c29,19.5,64,30.8,101.5,30.8
	C471.4,483.4,533,442.9,563.2,383.7L563.2,383.7z M240.3,388.8c14.7-11.2,25-18.8,21.1-18.6c-3,0.2-13.2,3-26.8,7.1
	C236.4,381.2,238.3,385.1,240.3,388.8z"/>
<path class="st1" d="M416.3,318.4L416.3,318.4c1.8-5.2,7.5-8,12.8-6.2l44.8,15.3c5.2,1.8,8,7.5,6.2,12.8l0,0
	c-1.8,5.2-7.5,8-12.8,6.2l-44.8-15.3C417.3,329.3,414.5,323.6,416.3,318.4z"/>
<path class="st0" d="M192.5,522.3c-6.6-1.1-6.5-7.4,0.9-15.5l66.1-72.1c-6.2-1.8-4.5-9.3,4.5-17.8l86.3-81.1
	c8.6-8,21.1-14.5,30.1-15.9c4.9-2.2,9.7-3.5,13.6-3.6l0,0c2.1-0.1,3.8,0.2,5,0.8c2.4-0.6,4.7-0.9,6.6-0.8l0,0
	c3.6,0.1,5.7,1.5,6.3,3.6c6.2,1.4,5.6,7.9-2,15.9l-77,81.1c-8.1,8.5-21.4,15.9-31.3,17.8l-79,72.1
	C214,514.8,201.3,521.2,192.5,522.3z"/>
<path class="st0" d="M297.9,225.7c0.9,0,1.7,0,2.5,0c2.8-1.2,6.1-1.4,9.2-0.3l6.6,2.2c4.5,1,8.5,2.4,11.9,4l39.2,13.4
	c6.7,2.3,10.4,9.7,8.1,16.4l0,0c-2.3,6.7-9.7,10.4-16.4,8.1l-35.4-12.1c-7,2.5-15.9,4.1-25.7,4.1c-22.4,0-40.5-8-40.5-17.9
	C257.4,233.7,275.5,225.7,297.9,225.7z"/>
<path class="st2" d="M399.2,168.4l48.7,44.4c0.8,0.8,1,2,0.4,3.1s-1.7,1.9-3,1.9H333.1c-1.2,0-2.1-0.7-2.3-1.9
	c-0.2-1.1,0.4-2.4,1.4-3.1l63.5-44.4C396.9,167.6,398.3,167.6,399.2,168.4z"/>
<ellipse class="st1" cx="400.4" cy="523.3" rx="307.6" ry="15.1"/>
<path class="st1" d="M295.3,256.5c22.3,0,40.5-8.1,40.5-17.9c0-9.9-18.2-17.9-40.5-17.9s-40.5,8.1-40.5,17.9
	C254.8,248.4,273,256.5,295.3,256.5z"/>
<path class="st3" d="M330.1,246.5c-7.2,6.3-19.8,11.3-34.7,13.3c-24.9,3.2-46.8-3.6-49.1-15.1c-1.2-6.2,3.5-12.5,12-17.5
	c-4.6,4.1-6.8,8.6-5.9,13.1c2.3,11.5,24.3,18.3,49.2,15.1C312.9,253.9,322.8,250.7,330.1,246.5z"/>
<path class="st1" d="M370.9,301.3L370.9,301.3c4,3.8,4.2,10.2,0.4,14.2L338.9,350c-3.8,4-10.2,4.2-14.2,0.4l0,0
	c-4-3.8-4.2-10.2-0.4-14.2l32.5-34.4C360.5,297.7,366.9,297.5,370.9,301.3z"/>
<path class="st1" d="M199.7,522.3c-6.7-1.1-6.9-7.4,0.1-15.5l62.2-72.1c-6.3-1.8-5-9.3,3.6-17.8l81.8-81.1
	c8.1-8,20.3-14.5,29.2-15.9c4.8-2.2,9.5-3.5,13.4-3.6l0,0c2.1-0.1,3.8,0.2,5.1,0.8c2.4-0.6,4.6-0.9,6.6-0.8l0,0
	c3.6,0.1,5.8,1.5,6.5,3.6c6.2,1.4,6.1,7.9-1.1,15.9l-72.5,81.1c-7.6,8.5-20.5,15.9-30.3,17.8l-75,72.1
	C220.8,514.8,208.5,521.2,199.7,522.3z"/>
<path class="st1" d="M598.3,522.3c6.7-1.1,6.9-7.4-0.1-15.5L536,434.7c6.3-1.8,5-9.3-3.6-17.8l-81.8-81.1
	c-8.1-8-20.3-14.5-29.2-15.9c-4.8-2.2-9.5-3.5-13.4-3.6l0,0c-2.1-0.1-3.8,0.2-5.1,0.8c-2.4-0.6-4.6-0.9-6.6-0.8l0,0
	c-3.6,0.1-5.8,1.5-6.5,3.6c-6.2,1.4-6.1,7.9,1.1,15.9l72.5,81.1c7.6,8.5,20.5,15.9,30.3,17.8l75,72.1
	C577.2,514.8,589.5,521.2,598.3,522.3z"/>
<path class="st1" d="M384.5,304.5c-20.2,5.7-39.6,11.9-58.1,18.2c-1.9-4.4-3.9-7.3-5-6.9c-1,0.4-0.7,3.8,0.5,8.4
	c-2.3,0.8-4.5,1.6-6.7,2.4c-24.5,8.7-46.9,17.8-66.8,26.8c-1-0.3-2.2-0.3-3.3,0.3l0,0c-2.2,1.1-3.2,3.8-2.1,6l1,2
	c1.1,2.2,3.8,3.2,6,2.1l0,0c1.2-0.6,2-1.5,2.3-2.7c19.3-8.8,41.3-17.6,65.2-26.2c2.4-0.9,4.8-1.7,7.3-2.6c1.9,4.3,3.9,7.1,4.9,6.8
	c1-0.4,0.7-3.8-0.5-8.3c18.3-6.3,37.5-12.3,57.5-18c60.3-17.2,116.5-28,160.3-32.1l0,0c-2.5-2.8-13.6-7.4-26.3-5.7
	C481.2,280.5,434.2,290.4,384.5,304.5z"/>
<path class="st1" d="M386,300.1c44.6-12.7,90.9-23.3,136.9-29.5c8-1.1,23.5,0.4,29.4,6.8c0.9,1,1.2,2.4,0.7,3.7
	c-0.5,1.3-1.6,2.1-3,2.2c-53.2,4.9-108.4,17.3-159.7,31.9c-20,5.7-39.8,11.9-59.4,18.7c-1.8,0.6-3.8-0.3-4.5-2.2l-2.8-8.2
	c-0.3-0.9-0.3-1.8,0.2-2.7c0.4-0.9,1.1-1.5,2-1.8C345.6,312.2,365.7,305.9,386,300.1z"/>
<path class="st3" d="M371.4,393.3c-10-2.3-16.9-11.6-16-22.2l9-101.4c0.9-10.1,8.6-18.2,18.2-19.9c3.5-2.7,7.9-4.4,12.6-4.5l0,0
	c0.9,0,1.8,0,2.7,0.1c0.9-0.1,1.8-0.1,2.7-0.1l0,0c4.7,0.2,9,1.8,12.6,4.5c9.6,1.8,17.3,9.9,18.2,19.9l9,101.4
	c0.9,10.6-6,19.9-16,22.2H398l-0.1-1.9l-0.1,1.9H371.4z"/>
<path class="st3" d="M373.7,290.6h48.8v71.7c0,8.2-6.7,15-15,15h-18.8c-8.2,0-15-6.7-15-15V290.6z"/>
<path class="st1" d="M440.5,260.2L440.5,260.2c-3.4,12.5-16.3,20-28.8,16.6l-39.9-10.7c-12.5-3.4-20-16.3-16.6-28.8l0,0
	c3.4-12.5,16.3-20,28.8-16.6l39.9,10.7C436.4,234.7,443.8,247.7,440.5,260.2z"/>
<path class="st1" d="M384.2,231.5L384.2,231.5c0.5,7.1-4.9,13.3-12,13.8l-60.8,4.2c-7.1,0.5-13.3-4.9-13.8-12l0,0
	c-0.5-7.1,4.9-13.3,12-13.8l60.8-4.2C377.5,219,383.7,224.4,384.2,231.5z"/>
<path class="st1" d="M411.8,318.9L411.8,318.9c-12.5,3.4-25.5-4.1-28.8-16.6l-10.7-39.9c-3.4-12.5,4.1-25.5,16.6-28.8l0,0
	c12.5-3.4,25.5,4.1,28.8,16.6l10.7,39.9C431.8,302.6,424.3,315.6,411.8,318.9z"/>
<path class="st1" d="M393.5,259.1l48.5-21.6c0.8-0.4,1.3-1.2,1.2-2.1c-0.1-0.9-0.7-1.6-1.6-1.8L361,212.9c-0.9-0.2-1.8,0.1-2.3,0.9
	c-0.5,0.8-0.5,1.7,0.1,2.4l32.2,42.3C391.6,259.2,392.6,259.5,393.5,259.1z"/>
<path class="st4" d="M397.8,201.3L397.8,201.3c6,0,10.9,4.9,10.9,10.9v19.1c0,6-4.9,10.9-10.9,10.9l0,0c-6,0-10.9-4.9-10.9-10.9
	v-19.1C386.9,206.2,391.8,201.3,397.8,201.3z"/>
<path class="st5" d="M395,241.8c-4.6-1.3-8-5.5-8-10.5v-19.1c0-2.9,1.2-5.6,3-7.5c4.6,1.3,8,5.5,8,10.5v19.1
	C398,237.2,396.8,239.8,395,241.8z"/>
<path class="st6" d="M397.8,229.4c9.4,0,17-10.1,17-22.4c0-12.3-7.7-22.4-17-22.4c-9.4,0-17,10.1-17,22.4
	C380.8,219.4,388.4,229.4,397.8,229.4z"/>
<path class="st7" d="M397.8,227c9.4,0,17-10.1,17-22.4c0-12.3-7.7-22.4-17-22.4c-9.4,0-17,10.1-17,22.4S388.4,227,397.8,227z"/>
<path class="st5" d="M395.5,226.8c-8.3-1.5-14.7-10.8-14.7-22.2c0-7.6,2.9-14.4,7.3-18.4c8.3,1.5,14.7,10.8,14.7,22.2
	C402.8,216,399.9,222.7,395.5,226.8z"/>
<path class="st8" d="M399.5,168.4l56.1,44.4c1,0.8,1.3,2,0.9,3.1s-1.4,1.9-2.7,1.9H341.7c-1.2,0-2.3-0.7-2.7-1.9
	c-0.4-1.1,0-2.4,0.9-3.1l56.1-44.4C397.1,167.6,398.5,167.6,399.5,168.4z"/>
<path class="st9" d="M419.6,184.3l6.8,5.4c-2.1,3.6-4.2,7.2-6.4,10.8c-3.5,5.9-7.1,11.7-10.7,17.4h-10.1c4.5-7.1,9-14.4,13.5-21.8
	C415,192.1,417.3,188.2,419.6,184.3z"/>
<path class="st2" d="M398.8,168.4l31.8,44.4c0.5,0.8,0.7,2,0.5,3.1s-0.8,1.9-1.5,1.9H366c-0.7,0-1.3-0.7-1.5-1.9
	c-0.2-1.1,0-2.4,0.5-3.1l31.8-44.4C397.4,167.6,398.2,167.6,398.8,168.4z"/>
<path class="st9" d="M415.3,191.5l5.5,7.6l-0.8,1.3c-3.5,5.9-7.1,11.7-10.7,17.4h-10.1c4.5-7.1,9-14.4,13.5-21.8
	C413.5,194.5,414.4,193,415.3,191.5z"/>
<path class="st1" d="M440.2,238.2L440.2,238.2c6.4,3.1,9.1,10.9,5.9,17.3l-26.8,54.8c-3.1,6.4-10.9,9.1-17.3,5.9l0,0
	c-6.4-3.1-9.1-10.9-5.9-17.3l26.8-54.8C426.1,237.8,433.8,235.1,440.2,238.2z"/>
<g>
	<path class="st3" d="M414.2,186c-28.7,47.6-58.5,89.5-85.4,121.4l-6-6.2c26.4-31.4,55.7-72.7,84-119.6
		C439,128.3,464,77.2,479.3,36.3l0,0c2,3.1,3.6,14.9-1.4,26.7C462.4,99.6,440.7,142.1,414.2,186z"/>
	<path class="st3" d="M386.7,243.1c-0.8,1.1-5.9-1.1-11.5-5s-9.5-7.9-8.7-9.1c0.8-1.1,5.9,1.1,11.5,5S387.5,242,386.7,243.1z"/>
	<path class="st3" d="M331,306.5L331,306.5c-1.6,1.8-4.4,2-6.3,0.4l-1.7-1.5c-1.8-1.6-2-4.4-0.4-6.3l0,0c1.6-1.8,4.4-2,6.3-0.4
		l1.7,1.5C332.4,301.9,332.6,304.7,331,306.5z"/>
</g>
<path class="st1" d="M371.8,298.7c23-11.8,46.6-12.9,52.9-2.6c6.2,10.4-7.3,28.3-30.3,40.1c-23,11.8-46.6,12.9-52.9,2.6
	C335.3,328.5,348.9,310.5,371.8,298.7z"/>
<path class="st3" d="M368.8,361.8h58.6v35.6c0,8.7-7.1,15.8-15.8,15.8h-27.1c-8.7,0-15.8-7.1-15.8-15.8L368.8,361.8L368.8,361.8z"/>
<path class="st3" d="M380.7,398.3h34.8v21.1c0,5.1-4.2,9.4-9.4,9.4H390c-5.1,0-9.4-4.2-9.4-9.4v-21.1H380.7z"/>
<path class="st3" d="M355.5,349.2h18.6c2,0,3.6,1.6,3.6,3.6l0,0c0,2-1.6,3.6-3.6,3.6h-2.3c2,0,3.6,1.6,3.6,3.6l0,0
	c0,2-1.6,3.6-3.6,3.6h-2.3c2,0,3.6,1.6,3.6,3.6l0,0c0,2-1.6,3.6-3.6,3.6h-2.3c2,0,3.6,1.6,3.6,3.6l0,0c0,2-1.6,3.6-3.6,3.6h-2.3
	c2,0,3.6,1.6,3.6,3.6l0,0c0,2-1.6,3.6-3.6,3.6h-18.6c-2,0-3.6-1.6-3.6-3.6l0,0c0-2,1.6-3.6,3.6-3.6h2.3c-2,0-3.6-1.6-3.6-3.6l0,0
	c0-2,1.6-3.6,3.6-3.6h2.3c-2,0-3.6-1.6-3.6-3.6l0,0c0-2,1.6-3.6,3.6-3.6h2.3c-2,0-3.6-1.6-3.6-3.6l0,0c0-2,1.6-3.6,3.6-3.6h2.3
	c-2,0-3.6-1.6-3.6-3.6l0,0C352,350.8,353.6,349.2,355.5,349.2z"/>
<path class="st10" d="M372.9,349.2h1.2c2,0,3.6,1.6,3.6,3.6l0,0c0,2-1.6,3.6-3.6,3.6h-1.2c-2,0-3.6-1.6-3.6-3.6l0,0
	C369.3,350.8,370.9,349.2,372.9,349.2L372.9,349.2z M371.8,356.4h-1.2c-2,0-3.6,1.6-3.6,3.6l0,0c0,2,1.6,3.6,3.6,3.6h1.2
	c2,0,3.6-1.6,3.6-3.6l0,0C375.4,358,373.8,356.4,371.8,356.4L371.8,356.4z M369.5,363.5c2,0,3.6,1.6,3.6,3.6l0,0
	c0,2-1.6,3.6-3.6,3.6h-1.2c-2,0-3.6-1.6-3.6-3.6l0,0c0-2,1.6-3.6,3.6-3.6H369.5L369.5,363.5z M367.1,370.6h-1.2
	c-2,0-3.6,1.6-3.6,3.6l0,0c0,2,1.6,3.6,3.6,3.6h1.2c2,0,3.6-1.6,3.6-3.6l0,0C370.7,372.2,369.1,370.6,367.1,370.6L367.1,370.6z
	 M364.8,377.8c2,0,3.6,1.6,3.6,3.6l0,0c0,2-1.6,3.6-3.6,3.6h-1.2c-2,0-3.6-1.6-3.6-3.6l0,0c0-2,1.6-3.6,3.6-3.6H364.8z"/>
<path class="st3" d="M440.2,349.2h-18.6c-2,0-3.6,1.6-3.6,3.6l0,0c0,2,1.6,3.6,3.6,3.6h2.3c-2,0-3.6,1.6-3.6,3.6l0,0
	c0,2,1.6,3.6,3.6,3.6h2.3c-2,0-3.6,1.6-3.6,3.6l0,0c0,2,1.6,3.6,3.6,3.6h2.3c-2,0-3.6,1.6-3.6,3.6l0,0c0,2,1.6,3.6,3.6,3.6h2.3
	c-2,0-3.6,1.6-3.6,3.6l0,0c0,2,1.6,3.6,3.6,3.6h18.6c2,0,3.6-1.6,3.6-3.6l0,0c0-2-1.6-3.6-3.6-3.6h-2.3c2,0,3.6-1.6,3.6-3.6l0,0
	c0-2-1.6-3.6-3.6-3.6h-2.3c2,0,3.6-1.6,3.6-3.6l0,0c0-2-1.6-3.6-3.6-3.6h-2.3c2,0,3.6-1.6,3.6-3.6l0,0c0-2-1.6-3.6-3.6-3.6h-2.3
	c2,0,3.6-1.6,3.6-3.6l0,0C443.8,350.8,442.2,349.2,440.2,349.2z"/>
<path class="st10" d="M422.8,349.2h-1.2c-2,0-3.6,1.6-3.6,3.6l0,0c0,2,1.6,3.6,3.6,3.6h1.2c2,0,3.6-1.6,3.6-3.6l0,0
	C426.4,350.8,424.8,349.2,422.8,349.2L422.8,349.2z M424,356.4h1.2c2,0,3.6,1.6,3.6,3.6l0,0c0,2-1.6,3.6-3.6,3.6H424
	c-2,0-3.6-1.6-3.6-3.6l0,0C420.4,358,422,356.4,424,356.4L424,356.4z M426.3,363.5c-2,0-3.6,1.6-3.6,3.6l0,0c0,2,1.6,3.6,3.6,3.6
	h1.2c2,0,3.6-1.6,3.6-3.6l0,0c0-2-1.6-3.6-3.6-3.6H426.3L426.3,363.5z M428.6,370.6h1.2c2,0,3.6,1.6,3.6,3.6l0,0
	c0,2-1.6,3.6-3.6,3.6h-1.2c-2,0-3.6-1.6-3.6-3.6l0,0C425.1,372.2,426.7,370.6,428.6,370.6L428.6,370.6z M431,377.8
	c-2,0-3.6,1.6-3.6,3.6l0,0c0,2,1.6,3.6,3.6,3.6h1.2c2,0,3.6-1.6,3.6-3.6l0,0c0-2-1.6-3.6-3.6-3.6H431z"/>
<path class="st3" d="M454.2,241.2l-13.9-12.4c-1.5-1.3-3.7-1.2-5,0.3l0,0c-1.3,1.5-1.2,3.7,0.3,5l1.7,1.6c-1.5-1.3-3.7-1.2-5,0.3
	l0,0c-1.3,1.5-1.2,3.7,0.3,5l1.7,1.6c-1.5-1.3-3.7-1.2-5,0.3l0,0c-1.3,1.5-1.2,3.7,0.3,5l1.7,1.6c-1.5-1.3-3.7-1.2-5,0.3l0,0
	c-1.3,1.5-1.2,3.7,0.3,5l1.7,1.6c-1.5-1.3-3.7-1.2-5,0.3l0,0c-1.3,1.5-1.2,3.7,0.3,5l13.9,12.4c1.5,1.3,3.7,1.2,5-0.3l0,0
	c1.3-1.5,1.2-3.7-0.3-5l-1.7-1.6c1.5,1.3,3.7,1.2,5-0.3l0,0c1.3-1.5,1.2-3.7-0.3-5l-1.7-1.6c1.5,1.3,3.7,1.2,5-0.3l0,0
	c1.3-1.5,1.2-3.7-0.3-5l-1.7-1.6c1.5,1.3,3.7,1.2,5-0.3l0,0c1.3-1.5,1.2-3.7-0.3-5l-1.7-1.6c1.5,1.3,3.7,1.2,5-0.3l0,0
	C455.8,244.8,455.6,242.5,454.2,241.2z"/>
<path class="st10" d="M441.2,229.6l-0.9-0.8c-1.5-1.3-3.7-1.2-5,0.3l0,0c-1.3,1.5-1.2,3.7,0.3,5l0.9,0.8c1.5,1.3,3.7,1.2,5-0.3l0,0
	C442.8,233.2,442.7,230.9,441.2,229.6L441.2,229.6z M437.3,235.6l0.9,0.8c1.5,1.3,1.6,3.6,0.3,5l0,0c-1.3,1.5-3.6,1.6-5,0.3
	l-0.9-0.8c-1.5-1.3-1.6-3.6-0.3-5l0,0C433.6,234.5,435.8,234.3,437.3,235.6L437.3,235.6z M434.3,242.5c-1.5-1.3-3.7-1.2-5,0.3l0,0
	c-1.3,1.5-1.2,3.7,0.3,5l0.9,0.8c1.5,1.3,3.7,1.2,5-0.3l0,0c1.3-1.5,1.2-3.7-0.3-5L434.3,242.5L434.3,242.5z M431.3,249.4l0.9,0.8
	c1.5,1.3,1.6,3.6,0.3,5l0,0c-1.3,1.5-3.6,1.6-5,0.3l-0.9-0.8c-1.5-1.3-1.6-3.6-0.3-5l0,0C427.5,248.2,429.8,248.1,431.3,249.4
	L431.3,249.4z M428.2,256.2c-1.5-1.3-3.7-1.2-5,0.3l0,0c-1.3,1.5-1.2,3.7,0.3,5l0.9,0.8c1.5,1.3,3.7,1.2,5-0.3l0,0
	c1.3-1.5,1.2-3.7-0.3-5L428.2,256.2z"/>
<path class="st7" d="M376.3,259.7L376.3,259.7c-2.3,6.7-9.7,10.4-16.4,8.1l-57.7-19.7c-6.7-2.3-10.4-9.7-8.1-16.4l0,0
	c2.3-6.7,9.7-10.4,16.4-8.1l57.7,19.7C375,245.6,378.6,253,376.3,259.7z"/>
<path class="st5" d="M347.1,243.2L347.1,243.2c-1.2,3.5-5,5.4-8.5,4.2l-29.9-10.2c-3.5-1.2-5.4-5-4.2-8.5l0,0c1.2-3.5,5-5.4,8.5-4.2
	l29.9,10.2C346.4,235.9,348.3,239.7,347.1,243.2z"/>
<path class="st7" d="M365.3,267.9c8.5,0,15.4-6.9,15.4-15.4s-6.9-15.4-15.4-15.4s-15.4,6.9-15.4,15.4
	C349.8,260.9,356.8,267.9,365.3,267.9z"/>
<path class="st5" d="M421.3,302.8L421.3,302.8c-2.3,6.7-9.7,10.4-16.4,8.1l-57.7-19.7c-6.7-2.3-10.4-9.7-8.1-16.4l0,0
	c2.3-6.7,9.7-10.4,16.4-8.1l57.7,19.7C420,288.7,423.6,296,421.3,302.8z"/>
<path class="st5" d="M351.7,291.9c8.5,0,15.4-6.9,15.4-15.4s-6.9-15.4-15.4-15.4s-15.4,6.9-15.4,15.4
	C336.3,284.9,343.2,291.9,351.7,291.9z"/>
<path class="st0" d="M411.9,313c-3.4,6.1-10.8,12.8-20.7,17.9c-16.4,8.4-33.3,9.2-37.8,1.8c-2.4-4-0.7-9.5,3.9-15.1
	c-2.1,4-2.5,7.7-0.8,10.6c4.5,7.4,21.4,6.6,37.8-1.8C401.8,322.5,407.9,317.7,411.9,313z"/>
<path class="st1" d="M349,257.3c8.7,0,14.4,7.1,12.7,15.8c-1.7,8.7-10.1,15.8-18.8,15.8c-8.7,0-14.4-7.1-12.7-15.8
	S340.3,257.3,349,257.3z"/>
<path class="st3" d="M344.7,259.4c5.7,0,9.3,4.6,8.2,10.2c-1.1,5.6-6.6,10.2-12.2,10.2c-5.7,0-9.3-4.6-8.2-10.2
	C333.5,263.9,339,259.4,344.7,259.4z"/>
<path class="st1" d="M368.3,234.6c7.7,0,12.8,6.3,11.3,14c-1.5,7.7-9,14-16.7,14s-12.8-6.3-11.3-14
	C353,240.9,360.5,234.6,368.3,234.6z"/>
<path class="st3" d="M364.4,236.4c5,0,8.3,4.1,7.3,9.1s-5.8,9.1-10.8,9.1s-8.3-4.1-7.3-9.1C354.5,240.4,359.4,236.4,364.4,236.4z"/>
<path class="st1" d="M372.4,269c6,1.9,9.4,7.7,8.1,14.7c-1.6,8.4-9.8,15.3-18.3,15.3c-3.3,0-6.2-1.1-8.4-2.9
	c1.3,0.4,2.7,0.6,4.2,0.6c8.4,0,16.6-6.8,18.3-15.3C377.3,276.3,375.7,271.8,372.4,269z"/>
<path class="st1" d="M382.1,272.7c6,1.9,9.4,7.7,8.1,14.7c-1.6,8.4-9.8,15.3-18.3,15.3c-3.3,0-6.2-1.1-8.4-2.9
	c1.3,0.4,2.7,0.6,4.2,0.6c8.4,0,16.6-6.8,18.3-15.3C387,280,385.4,275.5,382.1,272.7z"/>
<g>
	<path class="st1" d="M340.1,322c-5.6,7.7-11.9,15.3-18.1,22.5c-13.4,15.5-28,30.6-43.7,43.7c-15.5,13-35.6,26.9-55.6,31.2
		c-5,1.1-10.4,1.2-14.6-2.2c-8.1-6.7-8.5-25.2-9-35.2c-0.4-8.2-0.5-24.9-7.9-30c-1.4-0.9-2.9-1.5-4.5-1.7
		c-14.4-1.9-39.5,22.6-48.7,31.5c-2.7,2.6-5.3,5.2-8,7.8l4.3,3.9c3-3,6.1-5.9,9.1-8.9c6.2-6,30.2-29.5,39.9-28.2
		c0.7,0.1,1.4,0.3,2,0.7c5.7,3.4,5.9,20.9,6.2,26.7c1.1,20.5,2.2,47.7,30.7,41.5c21.1-4.5,41.8-18.3,58.3-31.7
		c16.9-13.7,32.5-29.6,46.7-46c6.6-7.6,13.3-15.7,19.3-23.8c0.4-0.5,0.4-1.2,0.1-1.8c-0.3-0.6-0.9-0.9-1.6-0.9l-3.8,0.2
		C340.8,321.3,340.4,321.5,340.1,322z"/>
	<path class="st3" d="M200.6,423c4.2-2.1,8.1-8.3,8.6-13.8s-2.4-8.3-6.7-6.2c-4.2,2.1-8.1,8.3-8.6,13.8
		C193.4,422.4,196.4,425.1,200.6,423z"/>
	<path class="st1" d="M201.2,417.1c1.7-0.9,3.3-3.4,3.5-5.6s-1-3.4-2.7-2.5s-3.3,3.4-3.5,5.6C198.2,416.8,199.5,418,201.2,417.1z"/>
	<path class="st3" d="M139.5,396.2l0.6-10.2c0.1-1.1-0.4-2.1-1.3-2.7c-0.9-0.6-2-0.7-3-0.2l-9.2,4.6c-1,0.5-1.6,1.4-1.7,2.5
		s0.4,2.1,1.3,2.7l8.5,5.7c0.9,0.6,2,0.7,3,0.2C138.8,398.2,139.5,397.3,139.5,396.2z"/>
</g>
<path class="st11" d="M510.7,223.7c3.7,2.9,3,10-1.5,15.9c-4.6,5.9-11.3,8.2-15.1,5.3c-3.7-2.9-3-10,1.5-15.9
	C500.2,223.2,506.9,220.8,510.7,223.7z"/>
<path class="st11" d="M525.2,287.8c-2.3,2.2-7,1.1-10.4-2.6c-3.5-3.6-4.4-8.3-2.1-10.5c2.3-2.2,7-1.1,10.4,2.6
	C526.6,280.9,527.6,285.6,525.2,287.8z"/>
<path class="st11" d="M509.7,270c-1.1,1-3.2,0.5-4.8-1.2c-1.6-1.6-2-3.8-0.9-4.8s3.2-0.5,4.8,1.2C510.4,266.8,510.8,269,509.7,270z"
	/>
<path class="st11" d="M414.5,173.7c0.2-0.2,77.6-55.8,61.1-27.3c-4.1,7-13.5,19-23.6,31.9c-17.2,21.9-36.3,46.3-34,51.5
	c3.4,7.5,107.8-61.2,118.6-51.9c8.1,6.9-64.3,74.7-58.5,92.5c0.9,2.7,5.3,2.8,14.6-1c43.9-18.1,118.8-113.3,118.9-113.4l-26.3,68
	c-0.1,0.1-47.9,29.4-91.9,47.5c-10.9,4.5-16.2,3.8-17.5-0.3c-5.7-17.4,47.4-76,43.2-79.6C506.9,181.2,403,255.8,398,244.8
	c-3-6.5,34.6-45.5,52.2-67.9c10.1-12.8,19.5-24.8,23.4-31.6C484.8,125.9,414.7,173.5,414.5,173.7L414.5,173.7z"/>
<path class="st11" d="M481,225c1.2,0.9,1,3.2-0.5,5c-1.5,1.9-3.6,2.6-4.8,1.7c-1.2-0.9-1-3.2,0.5-5C477.7,224.8,479.8,224,481,225z"
	/>
<path class="st0" d="M609.3,454.6c-1.4,1.5-4.5,0.9-6.9-1.4s-3.1-5.3-1.7-6.8c1.4-1.5,4.5-0.9,6.9,1.4
	C610,450,610.7,453.1,609.3,454.6z"/>
<polygon class="st0" points="509.9,34.1 456,103.7 496.8,65.6 443.9,140.5 529.7,31.9 484.9,72.4 "/>
<path class="st11" d="M625.6,499.2c-1,0.2-2-0.9-2.3-2.5s0.3-3,1.3-3.2s2,0.9,2.3,2.5C627.2,497.6,626.6,499.1,625.6,499.2z"/>
<path class="st11" d="M545.8,253.6c1.9,1.5,1.5,5-0.8,7.9s-5.7,4.1-7.5,2.6c-1.9-1.5-1.5-5,0.8-7.9
	C540.5,253.3,543.9,252.1,545.8,253.6z"/>
<path class="st11" d="M414.1,263.8c0.9,0.7,0.8,2.5-0.4,4c-1.1,1.5-2.8,2.1-3.8,1.3c-0.9-0.7-0.8-2.5,0.4-4
	C411.5,263.7,413.2,263.1,414.1,263.8z"/>
<path class="st11" d="M403.3,251c0.7,0.6,0.6,1.9-0.3,3s-2.2,1.6-2.9,1c-0.7-0.6-0.6-1.9,0.3-3S402.6,250.5,403.3,251z"/>
<path class="st11" d="M376.3,201.4c0.7,0.6,0.6,1.9-0.3,3s-2.2,1.6-2.9,1c-0.7-0.6-0.6-1.9,0.3-3
	C374.3,201.3,375.6,200.9,376.3,201.4z"/>
<path class="st11" d="M444.7,183c0.2,0.4-0.2,1-0.9,1.3c-0.7,0.3-1.4,0.2-1.5-0.3c-0.2-0.4,0.2-1,0.9-1.3
	C443.8,182.5,444.5,182.6,444.7,183z"/>
<path class="st0" d="M563.8,43.2c80.3-26.7,79.4,38.7-2,146c-53.4,70.4-128.2,141.5-196,189.5c65.6-47.8,136.7-116,188-183.7
	c81.4-107.3,82.3-172.7,2-146c-27.6,9.2-61.2,28-96.7,53.2C497.6,74.1,534.2,53,563.8,43.2z"/>
<path class="st11" d="M551.6,333.6c3.7,2.9,3,10-1.5,15.9c-4.6,5.9-11.3,8.2-15.1,5.3c-3.7-2.9-3-10,1.5-15.9
	C541.1,333,547.8,330.6,551.6,333.6z"/>
<path class="st11" d="M497.4,333.9c1.9,1.5,1.5,5-0.8,7.9s-5.7,4.1-7.5,2.6c-1.9-1.5-1.5-5,0.8-7.9
	C492.2,333.7,495.6,332.5,497.4,333.9z"/>
<path class="st11" d="M425.4,424.9c0.9,0.7,0.8,2.5-0.4,4c-1.1,1.5-2.8,2.1-3.8,1.3c-0.9-0.7-0.8-2.5,0.4-4
	C422.8,424.8,424.5,424.2,425.4,424.9z"/>
<path class="st0" d="M316.5,478.9c-0.5-1.1,0.5-2.6,2.1-3.4c1.7-0.8,3.4-0.5,3.9,0.5c0.5,1.1-0.5,2.6-2.1,3.4
	C318.7,480.2,317,480,316.5,478.9z"/>
<path class="st0" d="M261.6,496.5c-0.3-0.6,0.2-1.5,1.2-1.9c0.9-0.5,2-0.4,2.3,0.3c0.3,0.6-0.2,1.5-1.2,1.9
	C262.9,497.2,261.9,497.1,261.6,496.5z"/>
<polygon class="st0" points="263.3,512.2 159,428.1 215.8,491.3 103.5,408.6 266.1,542.3 205.7,473 "/>
<polygon class="st0" points="310.6,177.5 231.2,113.5 274.4,161.6 188.9,98.6 312.7,200.5 266.8,147.6 "/>
<path class="st0" d="M148,135.3c4.4-1.7,10.2,2.6,12.8,9.6s1.1,14-3.4,15.6c-4.4,1.7-10.2-2.6-12.8-9.6
	C142,143.9,143.5,136.9,148,135.3z"/>
<path class="st0" d="M127.2,125.3c1.4-0.5,3.2,0.8,4,3s0.3,4.3-1,4.9c-1.4,0.5-3.2-0.8-4-3C125.4,128,125.9,125.8,127.2,125.3z"/>
<path class="st0" d="M188.1,263.6c4.4-1.7,10.2,2.6,12.8,9.6s1.1,14-3.4,15.6c-4.4,1.7-10.2-2.6-12.8-9.6
	C182.2,272.3,183.7,265.3,188.1,263.6z"/>
<path class="st0" d="M244.9,154.6c2.2-0.9,5.1,1.1,6.6,4.5s0.9,6.9-1.3,7.9c-2.2,0.9-5.1-1.1-6.6-4.5
	C242.1,159.1,242.7,155.6,244.9,154.6z"/>
<path class="st0" d="M212.9,199.8c1.2-2,4.8-2.2,8-0.3s4.8,5.1,3.6,7.1s-4.8,2.2-8,0.3C213.4,205,211.7,201.9,212.9,199.8z"/>
<path class="st0" d="M223.6,219.4c0.6-1,2.4-1.1,4-0.2c1.6,0.9,2.4,2.5,1.8,3.6c-0.6,1-2.4,1.1-4,0.2
	C223.8,222,223,220.4,223.6,219.4z"/>
<path class="st11" d="M357.9,319.8c1.1,0.8,0.9,2.9-0.4,4.6s-3.2,2.4-4.3,1.5c-1.1-0.8-0.9-2.9,0.4-4.6
	C354.9,319.6,356.9,318.9,357.9,319.8z"/>
<path class="st11" d="M382.1,317.9c0.7,0.6,0.6,1.9-0.3,3s-2.2,1.6-2.9,1c-0.7-0.6-0.6-1.9,0.3-3S381.4,317.3,382.1,317.9z"/>
<path class="st11" d="M300.4,414.1c0.7,0.6,0.6,1.9-0.3,3s-2.2,1.6-2.9,1c-0.7-0.6-0.6-1.9,0.3-3S299.7,413.5,300.4,414.1z"/>
<path class="st0" d="M146.5,476.8c-0.8-1.7,0.6-4,3.2-5.3c2.6-1.3,5.3-1,6.2,0.7c0.8,1.7-0.6,4-3.2,5.3
	C150,478.7,147.3,478.4,146.5,476.8z"/>
<path class="st0" d="M127.4,490.7c-0.3-0.6,0.2-1.4,1.1-1.9c0.9-0.4,1.9-0.3,2.2,0.2c0.3,0.6-0.2,1.4-1.1,1.9
	C128.7,491.4,127.7,491.3,127.4,490.7z"/>
<polygon class="st0" points="647.6,347.1 563.5,451.3 626.7,394.6 544,506.9 677.8,344.3 608.4,404.6 "/>
<path class="st0" d="M643.7,332.3c-2.4,4.1-9.5,4.4-16,0.6c-6.4-3.8-9.7-10.1-7.3-14.2s9.5-4.4,16-0.6
	C642.8,321.8,646.1,328.2,643.7,332.3z"/>
<path class="st0" d="M596.7,349.5c2.2-0.8,5.1,1.3,6.4,4.8c1.3,3.5,0.5,7-1.7,7.8s-5.1-1.3-6.4-4.8
	C593.7,353.9,594.5,350.4,596.7,349.5z"/>
<path class="st0" d="M577.8,174.9c1.2,0.8,1.2,3-0.1,4.9s-3.3,2.8-4.5,2s-1.2-3,0.1-4.9C574.6,174.9,576.6,174.1,577.8,174.9z"/>
<path class="st0" d="M592.2,156.8c0.9,0.6,0.9,2.3-0.1,3.7s-2.5,2.1-3.4,1.5s-0.9-2.3,0.1-3.7C589.7,156.8,591.3,156.1,592.2,156.8z
	"/>
<path class="st0" d="M586.6,143.9c1,0.7,1,2.5-0.1,4.1s-2.8,2.3-3.8,1.6s-1-2.5,0.1-4.1C583.9,143.9,585.6,143.2,586.6,143.9z"/>
<path class="st0" d="M629.4,79.7c2,0.7,2.7,3.9,1.5,7s-3.7,5.1-5.7,4.3c-2-0.7-2.7-3.9-1.5-7S627.4,79,629.4,79.7z"/>
<path class="st0" d="M624.3,48.9c1-0.4,2.3,0.6,2.9,2.1c0.6,1.6,0.2,3.1-0.7,3.5c-1,0.4-2.3-0.6-2.9-2.1
	C622.9,50.8,623.3,49.2,624.3,48.9z"/>
<path class="st0" d="M618.7,44c0.3-0.4,1.1-0.3,1.8,0.2s0.9,1.3,0.6,1.7c-0.3,0.4-1.1,0.3-1.8-0.2S618.4,44.4,618.7,44z"/>
<path class="st11" d="M406.5,438.9c2.1,1.6,1.7,5.5-0.8,8.7s-6.2,4.5-8.3,2.9c-2.1-1.6-1.7-5.5,0.8-8.7
	C400.8,438.6,404.5,437.3,406.5,438.9z"/>
<path class="st11" d="M381,451.4c1,0.8,0.8,2.8-0.4,4.4c-1.3,1.6-3.1,2.3-4.1,1.5s-0.8-2.8,0.4-4.4C378.1,451.2,380,450.6,381,451.4
	z"/>
<path class="st0" d="M175,411.7c0.3,2.6-2.7,5.1-6.8,5.6s-7.6-1.2-7.9-3.8c-0.3-2.6,2.7-5.1,6.8-5.5
	C171.2,407.4,174.7,409.1,175,411.7z"/>
<path class="st0" d="M112.7,443c0.3,1.3-1.1,2.7-3.1,3.1c-2,0.5-3.8-0.2-4.1-1.5c-0.3-1.3,1.1-2.7,3.1-3.1S112.4,441.7,112.7,443z"
	/>
<path class="st0" d="M133.9,236.2c-98.8-2.6-75.6,70.2,51.8,162.5C269.3,459.3,377,513.3,469.1,544
	c-89.6-31.2-192.2-83.3-272.5-141.5C69.3,310.1,46.1,237.3,144.9,239.9c34,0.9,77.9,10.6,126.1,26.6
	C218.5,248.3,170.4,237.1,133.9,236.2z"/>
<path class="st0" d="M681.3,398.3c63.7,75.5-7.6,102.9-159.3,61c-99.6-27.4-209-77.8-290.5-130.6c80.3,50.5,185.1,98,280.7,124.4
	c151.7,41.8,223,14.5,159.3-61c-21.9-26-56.9-54.2-99.6-81.9C619.1,339.8,657.8,370.4,681.3,398.3z"/>
<path class="st0" d="M501.2,84.6c1.4,1.6,0.4,4.7-2.2,6.8c-2.6,2.1-5.7,2.5-7.1,0.9s-0.4-4.7,2.2-6.8
	C496.7,83.4,499.9,83,501.2,84.6z"/>
<path class="st0" d="M481.3,101.9c0.7,0.8,0.2,2.3-1.1,3.4c-1.3,1.1-2.9,1.3-3.5,0.4c-0.7-0.8-0.2-2.3,1.1-3.4
	C479.1,101.2,480.7,101,481.3,101.9z"/>
<path class="st0" d="M547.7,40.5c2,2.4,0.6,6.7-3.1,9.8c-3.7,3.1-8.2,3.6-10.2,1.3c-2-2.4-0.6-6.7,3.1-9.8
	C541.1,38.8,545.7,38.2,547.7,40.5z"/>
<path class="st11" d="M483.3,176.4c1.3,1.5,0.4,4.3-2,6.3s-5.3,2.3-6.5,0.8c-1.3-1.5-0.4-4.3,2-6.3
	C479.1,175.3,482,174.9,483.3,176.4z"/>
<path class="st11" d="M497.7,167.4c0.8,1.2-0.4,3.5-2.6,5.1s-4.6,1.9-5.4,0.7s0.4-3.5,2.6-5.1C494.5,166.5,496.9,166.2,497.7,167.4z
	"/>
<path class="st11" d="M355,136c3.8,4.5,1.1,13-6,18.9s-15.9,7-19.6,2.5c-3.8-4.5-1.1-13,6-18.9C342.4,132.6,351.2,131.5,355,136z"/>
<path class="st11" d="M377.5,117.1c1.9,2.3,0.5,6.6-3.1,9.6s-8.1,3.6-10,1.3s-0.5-6.6,3.1-9.6C371.1,115.3,375.6,114.8,377.5,117.1z
	"/>
<path class="st11" d="M381.5,138.9c0.8,1,0.2,2.9-1.3,4.2c-1.6,1.3-3.5,1.5-4.3,0.5s-0.2-2.9,1.3-4.2
	C378.7,138.1,380.7,137.9,381.5,138.9z"/>
<path class="st0" d="M609.9,137.3c1.9,1.3,1.8,4.8-0.2,7.8s-5.2,4.4-7.1,3.1c-1.9-1.3-1.8-4.8,0.2-7.8
	C604.8,137.4,608,136,609.9,137.3z"/>
<path class="st0" d="M605.8,225.4c1.1,2-0.5,5.1-3.7,6.8c-3.2,1.8-6.6,1.5-7.7-0.5c-1.1-2,0.5-5.1,3.7-6.8
	C601.2,223.2,604.7,223.4,605.8,225.4z"/>
<path class="st11" d="M587.4,231.7c2.5,4.5-1.2,11.3-8.2,15.2s-14.7,3.4-17.2-1.1s1.2-11.3,8.2-15.2S585,227.2,587.4,231.7z"/>
<path class="st0" d="M601.7,204.2c0.5,1-0.3,2.5-1.8,3.3s-3.2,0.7-3.8-0.2c-0.5-1,0.3-2.5,1.8-3.3
	C599.5,203.1,601.2,203.2,601.7,204.2z"/>
<path class="st0" d="M665.8,175.5c0.5,1-0.3,2.5-1.8,3.3s-3.2,0.7-3.8-0.2c-0.5-1,0.3-2.5,1.8-3.3
	C663.6,174.4,665.2,174.5,665.8,175.5z"/>
<path class="st0" d="M88.8,449c0.1,0.6-0.5,1.2-1.3,1.4c-0.9,0.2-1.7-0.1-1.8-0.6c-0.1-0.6,0.5-1.2,1.3-1.4S88.6,448.5,88.8,449z"/>
<path class="st0" d="M632.3,490.9c-0.7,0.8-2.3,0.4-3.4-0.7c-1.2-1.1-1.5-2.7-0.8-3.4c0.7-0.8,2.3-0.4,3.4,0.7
	C632.7,488.6,633,490.2,632.3,490.9z"/>
<path class="st0" d="M676.4,379.5c1.5-1.8,5.1-1.4,7.9,1c2.8,2.4,3.9,5.8,2.4,7.6c-1.5,1.8-5.1,1.4-7.9-1
	C675.9,384.7,674.9,381.3,676.4,379.5z"/>
<path class="st0" d="M674.3,400.1c1.1-0.5,2.6,0.3,3.5,2c0.9,1.6,0.7,3.4-0.3,4c-1.1,0.5-2.6-0.3-3.5-2
	C673.1,402.5,673.3,400.7,674.3,400.1z"/>
</svg>
