<svg xmlns="http://www.w3.org/2000/svg" viewBox="0 0 213.78 213.78"><defs><style>.cls-1{fill:#eb8b23;}.cls-2{fill:#f6cc1b;}</style></defs><title>shipwheel</title><g id="Layer_2" data-name="Layer 2"><g id="Layer_1-2" data-name="Layer 1"><path class="cls-1" d="M106.84,77.82A29.12,29.12,0,1,0,136,106.94,29.12,29.12,0,0,0,106.84,77.82Zm0,48.57a19.45,19.45,0,1,1,19.45-19.45A19.44,19.44,0,0,1,106.84,126.39Z"/><path class="cls-1" d="M106.89,48.64h0a9.72,9.72,0,0,1-9.71-9.72h0a9.71,9.71,0,0,1,9.71-9.71h0a9.72,9.72,0,0,1,9.72,9.71h0A9.72,9.72,0,0,1,106.89,48.64Z"/><path class="cls-1" d="M107,0h0a4.86,4.86,0,0,0-4.86,4.86V208.93a4.86,4.86,0,0,0,4.86,4.85h0a4.86,4.86,0,0,0,4.86-4.85V4.86A4.86,4.86,0,0,0,107,0Z"/><path class="cls-1" d="M106.89,184.64h0a9.71,9.71,0,0,1-9.71-9.71h0a9.72,9.72,0,0,1,9.71-9.72h0a9.72,9.72,0,0,1,9.72,9.72h0A9.72,9.72,0,0,1,106.89,184.64Z"/><path class="cls-1" d="M165.14,106.89h0a9.72,9.72,0,0,1,9.72-9.71h0a9.71,9.71,0,0,1,9.71,9.71h0a9.72,9.72,0,0,1-9.71,9.72h0A9.72,9.72,0,0,1,165.14,106.89Z"/><path class="cls-1" d="M213.78,107h0a4.86,4.86,0,0,0-4.85-4.86H4.86A4.86,4.86,0,0,0,0,107H0a4.86,4.86,0,0,0,4.86,4.86H208.93A4.86,4.86,0,0,0,213.78,107Z"/><path class="cls-1" d="M29.14,106.89h0a9.72,9.72,0,0,1,9.72-9.71h0a9.71,9.71,0,0,1,9.71,9.71h0a9.72,9.72,0,0,1-9.71,9.72h0A9.72,9.72,0,0,1,29.14,106.89Z"/><path class="cls-1" d="M148.08,65.7h0a9.72,9.72,0,0,1,0-13.74h0a9.72,9.72,0,0,1,13.74,0h0a9.72,9.72,0,0,1,0,13.74h0A9.72,9.72,0,0,1,148.08,65.7Z"/><path class="cls-1" d="M182.53,31.36h0a4.85,4.85,0,0,0-6.87,0L31.36,175.66a4.85,4.85,0,0,0,0,6.87h0a4.87,4.87,0,0,0,6.87,0l144.3-144.3A4.87,4.87,0,0,0,182.53,31.36Z"/><path class="cls-1" d="M51.92,161.87h0a9.71,9.71,0,0,1,0-13.74h0a9.71,9.71,0,0,1,13.73,0h0a9.71,9.71,0,0,1,0,13.74h0A9.71,9.71,0,0,1,51.92,161.87Z"/><path class="cls-1" d="M148.08,148.08h0a9.72,9.72,0,0,1,13.74,0h0a9.72,9.72,0,0,1,0,13.74h0a9.72,9.72,0,0,1-13.74,0h0A9.72,9.72,0,0,1,148.08,148.08Z"/><path class="cls-1" d="M182.43,182.53h0a4.87,4.87,0,0,0,0-6.87L38.13,31.36a4.85,4.85,0,0,0-6.87,0h0a4.85,4.85,0,0,0,0,6.87l144.3,144.3A4.87,4.87,0,0,0,182.43,182.53Z"/><path class="cls-1" d="M51.92,51.92h0a9.69,9.69,0,0,1,13.73,0h0a9.69,9.69,0,0,1,0,13.73h0a9.69,9.69,0,0,1-13.73,0h0A9.69,9.69,0,0,1,51.92,51.92Z"/><path class="cls-2" d="M106.78,19.5h0A87.47,87.47,0,0,0,19.31,107h0a87.47,87.47,0,0,0,87.47,87.47h0A87.47,87.47,0,0,0,194.24,107h0A87.46,87.46,0,0,0,106.78,19.5ZM184.53,107a77.75,77.75,0,0,1-77.75,77.75h0A77.75,77.75,0,0,1,29,107h0a77.75,77.75,0,0,1,77.75-77.75h0A77.75,77.75,0,0,1,184.53,107Z"/><path class="cls-1" d="M106.78,29.21h0A77.75,77.75,0,0,0,29,107h0a77.75,77.75,0,0,0,77.75,77.75h0A77.75,77.75,0,0,0,184.53,107h0A77.75,77.75,0,0,0,106.78,29.21Zm68,77.75a68,68,0,0,1-68,68h0a68,68,0,0,1-68-68h0a68,68,0,0,1,68-68h0a68,68,0,0,1,68,68Z"/></g></g></svg>