<svg xmlns="http://www.w3.org/2000/svg" xmlns:xlink="http://www.w3.org/1999/xlink" viewBox="0 0 689.61 563.12"><defs><style>.cls-1{fill:#2e1a47;}.cls-2,.cls-3,.cls-4,.cls-5,.cls-6,.cls-7,.cls-8,.cls-9{fill:none;stroke-miterlimit:10;}.cls-2{stroke:url(#linear-gradient);}.cls-3,.cls-4,.cls-5,.cls-6{opacity:0.45;}.cls-3{stroke:url(#linear-gradient-2);}.cls-4{stroke:#ff8700;}.cls-5{stroke:url(#linear-gradient-3);}.cls-6{stroke:url(#linear-gradient-4);}.cls-7{stroke:url(#linear-gradient-5);}.cls-8{stroke:#5f2d78;}.cls-9{stroke:url(#linear-gradient-6);}.cls-10{fill:url(#linear-gradient-7);}</style><linearGradient id="linear-gradient" x1="400.39" y1="281.64" x2="662.11" y2="281.64" gradientUnits="userSpaceOnUse"><stop offset="0" stop-color="#af206e"/><stop offset="1" stop-color="#e54355"/></linearGradient><linearGradient id="linear-gradient-2" x1="11.58" y1="306.04" x2="534.28" y2="306.04" gradientUnits="userSpaceOnUse"><stop offset="0" stop-color="#e54355"/><stop offset="1" stop-color="#eb8b23"/></linearGradient><linearGradient id="linear-gradient-3" x1="126.27" y1="373.19" x2="422.84" y2="373.19" gradientUnits="userSpaceOnUse"><stop offset="0" stop-color="#eb8b23"/><stop offset="1" stop-color="#f6cc1b"/></linearGradient><linearGradient id="linear-gradient-4" x1="0" y1="151.77" x2="272.07" y2="151.77" xlink:href="#linear-gradient"/><linearGradient id="linear-gradient-5" x1="496.91" y1="240.45" x2="689.56" y2="240.45" gradientUnits="userSpaceOnUse"><stop offset="0" stop-color="#5f2d78"/><stop offset="1" stop-color="#af206e"/></linearGradient><linearGradient id="linear-gradient-6" x1="625.27" y1="335.5" x2="689.49" y2="335.5" xlink:href="#linear-gradient-5"/><linearGradient id="linear-gradient-7" x1="4.68" y1="562.64" x2="4.68" y2="0.46" gradientUnits="userSpaceOnUse"><stop offset="0" stop-color="#af206e"/><stop offset="0.55" stop-color="#e34256"/><stop offset="1" stop-color="#eb8b23"/></linearGradient></defs><title>sidebarbg</title><g id="Layer_2" data-name="Layer 2"><g id="Layer_1-2" data-name="Layer 1"><rect class="cls-1" x="63.67" y="-62.88" width="562.18" height="688.86" transform="translate(626.3 -63.21) rotate(90)"/><path class="cls-2" d="M467.54.46S465,25.7,474.87,36.72,516.72,56,528.8,73.44s21.57,32.59,19,51.41-14.67,24.78-19,36.26S515,195.53,502.05,207.92s-87.14,57.84-97.93,137.24,6.91,93.64,30.63,109.7,75.92,50.95,113.46,57.37,65.23,4.59,84.12,17.45,29.34,33,29.34,33"/><path class="cls-3" d="M534.16,562.64s-8.18-2.08-21.59-13.89-36.06-34-67.51-53.62-56.4-34.44-65.19-69.37,0-93.47,33.29-160.38,36.53-69.85,36.07-86.58-15-40.34-27.56-57.06C409.77,106,392.82,82.87,387.27,73s-7.4-20.17-20.35-22.63S347,48.92,320.69,70.08s-83.28,55.2-96.18,76.25C189.76,203.07,193,251.68,166.72,289,129.36,342.08-13.16,377.1,16,455.77c17.64,47.63,104.08,12.55,166.46,61.49,27,21.23,28.26,45.38,28.26,45.38"/><path class="cls-4" d="M466.66,562.64s-9.84-23.07-33.93-40.4-62.1-34.66-75-65.71-10.18-62.1,0-100.74,43.9-117.33,43.16-140.44-2.16-59.57-51.84-79.07S240.66,159,227.43,198,201,289.25,174.16,313.86s-98.41,57.46-97,104.4,80.08,37.54,117.07,71.84,42.07,72.54,42.07,72.54"/><path class="cls-5" d="M422.4,562.64s-8.12-16.19-42.14-37.44-57.11-39.85-61.79-56.12,6.24-82,17.79-123.86,30-84.67,27.15-111.9-17.48-42.17-39.63-47.81-55.24,3.32-79.9,53.79-28.08,58.47-41.5,74.56-83.33,57.26-74.9,91.47,55.55,46.48,80.2,60.43,42.13,26.23,49,48.15,5.62,48.73,5.62,48.73"/><path class="cls-6" d="M271.87.46S187.6,37.3,167.05,78s-26,95.61-49.32,119.9S.33,303.17.33,303.17"/><path class="cls-7" d="M689.18,480.45s-45.36-51.26-71.39-57.09S541.07,435.29,519.15,406s-32.88-68.59-5.48-100,65.76-24.08,102.75-47.4,67.25-56.53,67.25-118.07C683.67,77,663,34.16,656.15,28.33S628.75.46,628.75.46"/><path class="cls-8" d="M689.18,419s-38.51-38.86-70-38.38-85.06,12.14-85-27.22,45.36-54.44,77.51-55.64S675.33,263,675.33,263l13.85-22.55"/><path class="cls-9" d="M689.18,373.33S665.74,355.19,635.6,347s17.88-30.05,26.07-35.88,27.51-13.37,27.51-13.37"/><rect class="cls-10" x="0.33" y="0.46" width="8.71" height="562.18"/></g></g></svg>