<svg xmlns="http://www.w3.org/2000/svg" xmlns:xlink="http://www.w3.org/1999/xlink" viewBox="0 0 1031.19 1489.36"><defs><style>.cls-1{fill:#2e1a47;}.cls-2,.cls-3,.cls-4,.cls-5,.cls-6,.cls-7,.cls-8,.cls-9{fill:none;stroke-miterlimit:10;}.cls-2{stroke:url(#linear-gradient);}.cls-3,.cls-4,.cls-5,.cls-6{opacity:0.45;}.cls-3{stroke:url(#linear-gradient-2);}.cls-4{stroke:#ff8700;}.cls-5{stroke:url(#linear-gradient-3);}.cls-6{stroke:url(#linear-gradient-4);}.cls-7{stroke:url(#linear-gradient-5);}.cls-8{stroke:#5f2d78;}.cls-9{stroke:url(#linear-gradient-6);}.cls-10{fill:url(#linear-gradient-7);}</style><linearGradient id="linear-gradient" x1="599.02" y1="744.7" x2="990.04" y2="744.7" gradientUnits="userSpaceOnUse"><stop offset="0" stop-color="#af206e"/><stop offset="1" stop-color="#e54355"/></linearGradient><linearGradient id="linear-gradient-2" x1="17.5" y1="809.49" x2="799.05" y2="809.49" gradientUnits="userSpaceOnUse"><stop offset="0" stop-color="#e54355"/><stop offset="1" stop-color="#eb8b23"/></linearGradient><linearGradient id="linear-gradient-3" x1="189.04" y1="987.49" x2="632.17" y2="987.49" gradientUnits="userSpaceOnUse"><stop offset="0" stop-color="#eb8b23"/><stop offset="1" stop-color="#f6cc1b"/></linearGradient><linearGradient id="linear-gradient-4" x1="0" y1="401.08" x2="406.87" y2="401.08" xlink:href="#linear-gradient"/><linearGradient id="linear-gradient-5" x1="743.39" y1="635.84" x2="1031.16" y2="635.84" gradientUnits="userSpaceOnUse"><stop offset="0" stop-color="#5f2d78"/><stop offset="1" stop-color="#af206e"/></linearGradient><linearGradient id="linear-gradient-6" x1="935.37" y1="887.55" x2="1031.12" y2="887.55" xlink:href="#linear-gradient-5"/><linearGradient id="linear-gradient-7" x1="4.77" y1="1488.9" x2="4.77" y2="0.4" gradientUnits="userSpaceOnUse"><stop offset="0" stop-color="#af206e"/><stop offset="0.55" stop-color="#e34256"/><stop offset="1" stop-color="#eb8b23"/></linearGradient></defs><title>sidebarbg-bg-long</title><g id="Layer_2" data-name="Layer 2"><g id="Layer_1-2" data-name="Layer 1"><rect class="cls-1" x="-228.68" y="229.5" width="1488.5" height="1030.3" transform="translate(1260.21 229.08) rotate(90)"/><path class="cls-2" d="M699.21.4s-3.87,66.84,11,96,62.59,51,80.65,97.23,32.26,86.28,28.39,136.11-21.94,65.63-28.39,96-20.64,91.15-40,124S620.49,702.84,604.36,913.08s10.33,247.92,45.81,290.46,113.55,134.89,169.69,151.91,97.58,12.15,125.82,46.18,43.88,87.27,43.88,87.27"/><path class="cls-3" d="M798.85,1488.9s-12.23-5.51-32.29-36.77-53.94-89.88-101-142-84.37-91.18-97.51-183.66,0-247.49,49.79-424.64,54.63-185,53.94-229.25-22.35-106.81-41.21-151.07c-17.8-41.76-43.16-102.94-51.46-129s-11.06-53.4-30.43-59.91-29.73-3.91-69.15,52.1S355,330.88,335.73,386.63c-52,150.24-47.17,278.94-86.45,377.74-55.87,140.54-269,233.27-225.45,441.57,26.39,126.11,155.67,33.24,249,162.83,40.46,56.19,42.27,120.13,42.27,120.13"/><path class="cls-4" d="M697.9,1488.9s-14.72-61.09-50.76-107S554.27,1290.16,535,1208s-15.23-164.43,0-266.71,65.65-310.69,64.54-371.87S596.3,411.64,522,360s-162.11,60.22-181.9,163.47S300.5,765.05,260.41,830.2,113.22,982.34,115.25,1106.61,235,1206,290.35,1296.85s62.94,192.05,62.94,192.05"/><path class="cls-5" d="M631.69,1488.9s-12.13-42.86-63-99.13-85.42-105.51-92.42-148.59,9.33-217.16,26.6-327.93S547.67,689.05,543.47,617s-26.14-111.66-59.28-126.6-82.62,8.79-119.49,142.43-42,154.81-62.08,197.41S178,981.82,190.59,1072.38s83.09,123.09,120,160,63,69.46,73.28,127.49,8.41,129,8.41,129"/><path class="cls-6" d="M406.56.4S280.52,98,249.78,205.71,210.85,458.86,176,523.18.42,801.89.42,801.89"/><path class="cls-7" d="M1030.72,1271.3s-67.85-135.74-106.78-151.17-114.75,31.59-147.54-46-49.18-181.6-8.19-264.66S866.56,745.75,921.89,684s100.58-149.68,100.58-312.62c0-168.4-30.91-281.75-41.16-297.19S940.33.4,940.33.4"/><path class="cls-8" d="M1030.72,1108.55S973.12,1005.68,926,1006.94s-127.23,32.14-127.14-72.07S866.7,790.74,914.78,787.54s95.22-92,95.22-92l20.72-59.72"/><path class="cls-9" d="M1030.72,987.67s-35.06-48-80.14-69.71,26.74-79.58,39-95,41.16-35.4,41.16-35.4"/><rect class="cls-10" x="0.42" y="0.4" width="8.71" height="1488.5"/></g></g></svg>