<?xml version="1.0" encoding="utf-8"?>
<!-- Generator: Adobe Illustrator 24.0.3, SVG Export Plug-In . SVG Version: 6.00 Build 0)  -->
<svg version="1.1" id="Layer" xmlns="http://www.w3.org/2000/svg" xmlns:xlink="http://www.w3.org/1999/xlink" x="0px" y="0px"
	 viewBox="0 0 1986 1352.92" style="enable-background:new 0 0 1986 1352.92;" xml:space="preserve">
<style type="text/css">
	.st0{fill:#FFFFFF;}
	.st1{fill:#140A23;}
	.st2{fill:#FFFFFF;stroke:#140A23;stroke-width:3;stroke-miterlimit:10;}
	.st3{fill:#060509;}
	.st4{fill:#F6CC1B;}
	.st5{fill:#AF206E;}
	.st6{fill:#030207;}
	.st7{fill:none;stroke:#030207;stroke-width:4;stroke-miterlimit:10;}
	.st8{fill:none;stroke:#FFFFFF;stroke-width:4;stroke-miterlimit:10;}
	.st9{fill:#FFFFFF;stroke:#030207;stroke-width:3;stroke-linejoin:bevel;stroke-miterlimit:10;}
	.st10{fill:#5F2D78;}
</style>
<g id="Back">
	<g>
		<path class="st0" d="M1547.51,472.27c-1.22,0-2.44-0.2-3.61-0.6c-5.89-1.99-9.07-8.4-7.08-14.3c1.55-4.59,5.84-7.67,10.68-7.67
			c1.22,0,2.44,0.2,3.61,0.6c2.85,0.96,5.16,2.98,6.5,5.68c1.34,2.7,1.54,5.76,0.58,8.61
			C1556.64,469.19,1552.35,472.27,1547.51,472.27z"/>
		<path class="st1" d="M1547.51,451.2L1547.51,451.2c1.06,0,2.11,0.17,3.13,0.52c2.47,0.84,4.48,2.59,5.63,4.93
			c1.16,2.34,1.34,4.99,0.5,7.47c-1.34,3.98-5.07,6.65-9.26,6.65c-1.06,0-2.11-0.17-3.13-0.52c-2.47-0.84-4.48-2.59-5.63-4.93
			c-1.16-2.34-1.34-4.99-0.5-7.47C1539.59,453.88,1543.31,451.2,1547.51,451.2 M1547.51,448.2c-5.33,0-10.31,3.36-12.11,8.69
			c-2.26,6.69,1.33,13.94,8.02,16.2c1.36,0.46,2.74,0.68,4.09,0.68c5.33,0,10.31-3.36,12.11-8.69c2.26-6.69-1.33-13.94-8.02-16.2
			C1550.24,448.42,1548.86,448.2,1547.51,448.2L1547.51,448.2z"/>
	</g>
	<g>
		<path class="st0" d="M1460.29,1254.49c-1.22,0-2.44-0.2-3.61-0.6c-5.89-1.99-9.07-8.4-7.08-14.3c1.55-4.59,5.84-7.67,10.68-7.67
			c1.22,0,2.44,0.2,3.61,0.6c2.85,0.96,5.16,2.98,6.5,5.68c1.34,2.7,1.54,5.76,0.58,8.61
			C1469.43,1251.4,1465.13,1254.49,1460.29,1254.49z"/>
		<path class="st1" d="M1460.29,1233.42L1460.29,1233.42c1.06,0,2.11,0.17,3.13,0.52c2.47,0.84,4.48,2.59,5.63,4.93
			c1.16,2.34,1.34,4.99,0.5,7.47c-1.34,3.98-5.07,6.65-9.26,6.65c-1.06,0-2.11-0.17-3.13-0.52c-2.47-0.84-4.48-2.59-5.63-4.93
			c-1.16-2.34-1.34-4.99-0.5-7.47C1452.37,1236.09,1456.09,1233.42,1460.29,1233.42 M1460.29,1230.42c-5.33,0-10.31,3.36-12.11,8.69
			c-2.26,6.69,1.33,13.94,8.02,16.2c1.36,0.46,2.74,0.68,4.09,0.68c5.33,0,10.31-3.36,12.11-8.69c2.26-6.69-1.33-13.94-8.02-16.2
			C1463.03,1230.64,1461.65,1230.42,1460.29,1230.42L1460.29,1230.42z"/>
	</g>
	<g>
		<path class="st0" d="M436.45,288.09c-5.08,0-9.55-3.43-10.88-8.33c-1.63-6,1.94-12.21,7.94-13.84c0.97-0.26,1.96-0.4,2.96-0.4
			c5.08,0,9.55,3.43,10.88,8.33c1.63,6-1.94,12.21-7.94,13.84C438.43,287.96,437.44,288.09,436.45,288.09z"/>
		<path class="st1" d="M436.46,267.03L436.46,267.03c4.4,0,8.28,2.97,9.43,7.23c1.41,5.21-1.68,10.59-6.88,12
			c-0.84,0.23-1.7,0.34-2.56,0.34c-4.4,0-8.28-2.97-9.43-7.23c-1.41-5.21,1.68-10.59,6.88-12
			C434.74,267.14,435.6,267.03,436.46,267.03 M436.46,264.03c-1.11,0-2.23,0.14-3.35,0.45c-6.81,1.84-10.84,8.86-9,15.68
			c1.54,5.69,6.7,9.44,12.33,9.44c1.11,0,2.23-0.14,3.35-0.45c6.81-1.84,10.84-8.86,9-15.68
			C447.25,267.78,442.09,264.03,436.46,264.03L436.46,264.03z"/>
	</g>
	<g>
		
			<rect x="122.88" y="792.54" transform="matrix(0.928 -0.3725 0.3725 0.928 -289.1245 106.8679)" class="st0" width="18.23" height="18.23"/>
		<path class="st1" d="M136.23,791.75l5.67,14.13l-14.13,5.67l-5.67-14.13L136.23,791.75 M137.89,787.85l-19.7,7.91l7.91,19.7
			l19.7-7.91L137.89,787.85L137.89,787.85z"/>
	</g>
	<g>
		
			<rect x="819.72" y="103.82" transform="matrix(0.8509 -0.5253 0.5253 0.8509 64.2237 452.1906)" class="st0" width="18.23" height="18.23"/>
		<path class="st1" d="M831.32,102.46l8,12.96l-12.96,8l-8-12.96L831.32,102.46 M832.29,98.33l-18.06,11.15l11.15,18.06l18.06-11.15
			L832.29,98.33L832.29,98.33z"/>
	</g>
	<g>
		
			<rect x="1781.86" y="118.43" transform="matrix(0.7691 -0.6392 0.6392 0.7691 332.0861 1174.2072)" class="st0" width="18.23" height="18.23"/>
		<path class="st1" d="M1791.97,116.82l9.73,11.71l-11.71,9.73l-9.73-11.71L1791.97,116.82 M1792.36,112.6l-16.32,13.57l13.57,16.32
			l16.32-13.57L1792.36,112.6L1792.36,112.6z"/>
	</g>
	<g>
		
			<rect x="1732.77" y="831.74" transform="matrix(0.769 -0.6392 0.6392 0.769 -135.1596 1307.6383)" class="st0" width="18.23" height="18.23"/>
		<path class="st1" d="M1742.88,830.13l9.73,11.71l-11.71,9.73l-9.73-11.71L1742.88,830.13 M1743.27,825.9l-16.32,13.57l13.57,16.32
			l16.32-13.57L1743.27,825.9L1743.27,825.9z"/>
	</g>
	<g>
		
			<rect x="440.12" y="1015.41" transform="matrix(0.8668 -0.4987 0.4987 0.8668 -451.0641 360.5064)" class="st0" width="18.23" height="18.23"/>
		<path class="st1" d="M452.04,1014.12l7.59,13.2l-13.2,7.59l-7.59-13.2L452.04,1014.12 M453.14,1010.03l-18.4,10.59l10.59,18.4
			l18.4-10.59L453.14,1010.03L453.14,1010.03z"/>
	</g>
	<line class="st2" x1="1305.37" y1="129.38" x2="1326.57" y2="96.5"/>
	<line class="st2" x1="482.39" y1="600.26" x2="514.28" y2="622.93"/>
	<line class="st2" x1="1134.2" y1="828.23" x2="1153.76" y2="794.34"/>
	<line class="st2" x1="214.28" y1="462.09" x2="253.34" y2="459.88"/>
	<line class="st2" x1="1163.78" y1="346.48" x2="1140.26" y2="315.22"/>
	<line class="st2" x1="186.37" y1="1226.48" x2="177.44" y2="1188.39"/>
	<line class="st2" x1="1883.93" y1="463.64" x2="1864.1" y2="432.77"/>
	<line class="st2" x1="978.79" y1="1189.27" x2="963.48" y2="1155.92"/>
	<line class="st2" x1="150.21" y1="149.08" x2="130.39" y2="118.21"/>
	<line class="st2" x1="1894.97" y1="1149.44" x2="1864.39" y2="1169.72"/>
</g>
<g id="Man">
	<rect x="1520.75" y="186.51" class="st3" width="156" height="156"/>
	<g>
		<path class="st0" d="M1446.29,340.51v-152h142.46c41.91,0,76,34.09,76,76s-34.09,76-76,76H1446.29z"/>
		<path class="st1" d="M1588.75,190.51c40.8,0,74,33.2,74,74c0,40.8-33.2,74-74,74h-140.46v-148H1588.75 M1588.75,186.51h-144.46
			v156h144.46c43.08,0,78-34.92,78-78v0C1666.75,221.43,1631.83,186.51,1588.75,186.51L1588.75,186.51z"/>
	</g>
	<g>
		
			<rect x="1172.61" y="1024.13" transform="matrix(0.513 -0.8584 0.8584 0.513 -333.9489 1641.1683)" class="st0" width="213.67" height="181.55"/>
		<path class="st1" d="M1257.03,979.38l152.4,91.09l-107.57,179.97l-152.4-91.09L1257.03,979.38 M1255.65,973.89l-111.67,186.84
			l159.27,95.19l111.67-186.84L1255.65,973.89L1255.65,973.89z"/>
	</g>
	<polygon class="st3" points="1501.84,718.2 1695.65,718.2 1598.75,555.74 	"/>
	<polygon class="st4" points="1255.65,973.89 1414.91,1069.08 1415.08,887.98 	"/>
	<circle class="st3" cx="1598.75" cy="1057.31" r="87.03"/>
	<g>
		
			<rect x="1380.74" y="548.06" transform="matrix(0.2123 -0.9772 0.9772 0.2123 509.951 1944.4495)" class="st0" width="160.74" height="215.69"/>
		<path class="st1" d="M1374.31,556.85l206.87,44.95l-33.28,153.16l-206.87-44.95L1374.31,556.85 M1371.25,552.09l-34.98,160.98
			l214.68,46.64l34.98-160.98L1371.25,552.09L1371.25,552.09z"/>
	</g>
	
		<rect x="1223.57" y="536.24" transform="matrix(0.9772 0.2123 -0.2123 0.9772 160.734 -259.6568)" class="st5" width="131.69" height="164.74"/>
	<path class="st4" d="M934.55,290.92c-2.69,28.07-27.63,48.64-55.7,45.95c-24.82-2.38-43.77-22.15-45.97-46.09
		c-0.28-3.14-0.29-6.35,0.02-9.61c2.69-28.06,27.63-48.64,55.7-45.95c14.61,1.4,27.17,8.82,35.5,19.57
		C931.78,264.71,935.84,277.46,934.55,290.92z"/>
	<path class="st6" d="M935.5,235.28c-1.12,11.66-11.48,20.2-23.14,19.09c-10.31-0.99-18.18-9.2-19.1-19.15
		c-0.12-1.31-0.12-2.64,0.01-3.99c1.12-11.66,11.48-20.2,23.14-19.09c6.07,0.58,11.29,3.66,14.75,8.13
		C934.35,224.39,936.03,229.69,935.5,235.28z"/>
	<path class="st6" d="M901.08,225.99c-0.68,7.1-6.99,12.31-14.1,11.63c-6.28-0.6-11.08-5.6-11.63-11.66
		c-0.07-0.8-0.07-1.61,0.01-2.43c0.68-7.1,6.99-12.31,14.1-11.63c3.7,0.35,6.88,2.23,8.98,4.95
		C900.38,219.36,901.4,222.58,901.08,225.99z"/>
	<path class="st7" d="M919.97,322.06c0,0-10.1-3.88-8.24-13.44"/>
	
		<ellipse transform="matrix(0.0955 -0.9954 0.9954 0.0955 532.0042 1188.2657)" class="st6" cx="919.87" cy="301.39" rx="8.7" ry="5.53"/>
	
		<ellipse transform="matrix(0.0955 -0.9954 0.9954 0.0955 514.7598 1166.2427)" class="st6" cx="899.13" cy="299.87" rx="8.7" ry="5.53"/>
	<path class="st4" d="M851.37,282.93c-0.98,10.2-10.03,17.67-20.23,16.69c-9.01-0.86-15.9-8.04-16.7-16.74
		c-0.1-1.14-0.1-2.31,0.01-3.49c0.98-10.19,10.03-17.67,20.23-16.69c5.31,0.51,9.87,3.2,12.89,7.11
		C850.36,273.41,851.84,278.05,851.37,282.93z"/>
	<path class="st6" d="M921.88,253.2c0,0-19.14,9.76-51.21,0.68l-5.19,30.41l-19.46-6.3c0,0-3.45-18.17-21.15-13.54
		c0,0,1.92-35.05,23.08-39.95C884.91,215.94,915.1,234.77,921.88,253.2z"/>
	<polyline class="st3" points="403.79,725.78 306.41,684.3 253.33,883.46 344.24,744.43 409.9,772.05 	"/>
	<line class="st8" x1="312.55" y1="761.37" x2="330.41" y2="792.77"/>
	<line class="st8" x1="304.69" y1="776.23" x2="322.54" y2="807.62"/>
	<line class="st8" x1="320.41" y1="746.51" x2="338.27" y2="777.91"/>
	<polyline class="st3" points="596.27,1004.54 500.17,1043.48 601.76,1217.97 568.06,1058.77 632.62,1032.28 	"/>
	<line class="st8" x1="557.92" y1="1092.49" x2="592.06" y2="1101.78"/>
	<line class="st8" x1="562.81" y1="1108.21" x2="596.95" y2="1117.51"/>
	<line class="st8" x1="553.04" y1="1076.76" x2="587.18" y2="1086.06"/>
	<path class="st5" d="M723.27,518.37c-107.71,19.44-138.38,238.91-138.38,238.91l-166.63-58.63c0,0-37.78,0.75-53.52,63.15
		c-12.44,49.3,17.33,70.47,17.33,70.47l190.59,65.07c50.39,13.7,99.44-2.35,119.99-50.35c28.47-66.49,59.16-128.14,59.16-128.14
		l45.99,171.02l-202.21,87.42c0,0-15.85,35.94,3.62,73.75c22.58,43.85,69.66,38.3,69.66,38.3l215.49-94.39
		c46.02-20.16,71.11-70.28,59.66-119.21c-22.19-94.8-60.4-231.11-80.23-281.57C839.87,533.37,776.29,508.79,723.27,518.37z"/>
	<g>
		<g>
			<path class="st6" d="M776.36,520.82c1.1,8.81,2.28,17.83,0.73,26.66c-2.01,11.42-8.17,21.52-16.28,29.66
				c-15.17,15.22-35.61,23.6-53.91,34.27c-17.06,9.95-33.81,24.11-40.95,43.07c-7.5,19.91,0.84,38.48,13.57,53.95
				c8.15,9.9,17.24,18.92,24.68,29.41c7.9,11.13,14.07,23.28,20.42,35.32c0.98,1.86,3.97,0.58,3.38-1.43
				c-6.36-21.97-20.47-40.53-35.53-57.33c-14.5-16.18-29.42-34.72-21.17-57.68c7.27-20.24,26.47-33.72,44.43-43.81
				c17.72-9.95,36.96-18.89,50.66-34.38c7.62-8.62,13.3-18.97,14.89-30.46c1.31-9.49-0.67-18.31-2.25-27.59
				C778.78,518.97,776.17,519.3,776.36,520.82L776.36,520.82z"/>
		</g>
	</g>
	<g>
		<g>
			<path class="st6" d="M865.05,599.53c-6.87,15.37-17.47,28.73-25.24,43.63c-7.07,13.58-10.7,28.25-10.17,43.6
				c1.05,30.2,17.8,58.87,43.2,75.22c13.23,8.52,29.38,12.89,45.02,10.22c2.05-0.35,1.45-3.43-0.47-3.5
				c-13.8-0.51-26.89-2.3-39.02-9.34c-12.19-7.07-22.73-17.89-30.34-29.71c-16.26-25.27-18.38-58.55-4.76-85.41
				c7.53-14.85,17.5-28.4,23.87-43.84C867.64,599.22,865.58,598.34,865.05,599.53L865.05,599.53z"/>
		</g>
	</g>
	<g>
		<g>
			<path class="st6" d="M766.4,766.73c27.28-3.78,55.35,4.7,75.5,23.6c17.45,16.37,30.89,42.19,28.47,66.69
				c-1.44,14.59-11.33,24.06-22.23,32.65c-9.9,7.8-19.97,15.39-29.64,23.47c-18.68,15.6-36.89,33.53-47.41,55.84
				c-10.64,22.57-14.56,53.99-0.39,76.01c1.14,1.77,4.45,0.66,3.6-1.52c-10.04-25.55-8.98-53.19,4.47-77.41
				c12.9-23.23,33.27-41.06,53.81-57.39c10.17-8.09,21.44-15.5,30.51-24.85c9.02-9.3,13.28-20.74,12.78-33.66
				c-0.91-23.6-12.91-46.75-29.95-62.76c-21.51-20.2-51.4-28.16-80.34-23.67C763.58,764.04,764.45,767.01,766.4,766.73L766.4,766.73
				z"/>
		</g>
	</g>
	<g>
		<g>
			<path class="st6" d="M938.87,854.4c-25.25,5.94-39.47,32.25-45.64,55.52c-6.58,24.83-6.22,54.39,3.97,78.25
				c0.81,1.89,3.46,0.46,3.13-1.32c-2.3-12.14-4.94-23.89-5.64-36.28c-0.7-12.34,0.18-24.78,3-36.83
				c5.23-22.37,17.98-49.85,41.87-56.9C941.11,856.38,940.46,854.02,938.87,854.4L938.87,854.4z"/>
		</g>
	</g>
	<g>
		<g>
			<path class="st6" d="M717.5,924.33c10.29,34.01,1.5,73.29-25.18,97.53c-12.39,11.25-28.01,18.62-44.56,21.08
				c-18.44,2.74-37.22-1.8-53.91-9.57c-1.78-0.83-3.31,1.65-1.56,2.67c26.03,15.21,56.35,17.67,83.6,4.01
				c25.84-12.96,43.62-37.9,49-66.14c3.2-16.79,2.36-34.56-4.18-50.46C719.92,921.53,716.86,922.22,717.5,924.33L717.5,924.33z"/>
		</g>
	</g>
	<g>
		<g>
			<path class="st6" d="M601.11,682.68c15.24,10.1,25.52,26.07,32.78,42.55c7.04,15.96,12.24,33.55,13.24,51.02
				c1.2,20.84-4.91,40.4-21.53,53.8c-16.52,13.32-37.75,18.24-57.98,22.86c-17.18,3.93-41.73,6.67-49.69,25.17
				c-1.13,2.62,2.5,4.96,3.95,2.31c4.5-8.27,12.67-12.5,21.34-15.24c10.57-3.33,21.47-5.52,32.25-8.05
				c20.18-4.74,40.72-10.9,56.58-24.89c30.64-27.03,22.55-72.51,8.12-105.91c-8-18.51-20.11-35.52-37.76-45.85
				C600.97,679.58,599.73,681.76,601.11,682.68L601.11,682.68z"/>
		</g>
	</g>
	<g>
		<g>
			<path class="st6" d="M540.68,744.02c-1.96,15.09-10.28,30.48-21.76,40.47c-14.34,12.48-32.89,13.13-49.49,4.77
				c-16.08-8.1-29.51-21.44-41.36-34.76c-12.57-14.12-22.72-29.86-33.42-45.37c-0.75-1.08-2.85-0.44-2.29,0.97
				c5.9,14.84,14.91,28.22,24.9,40.59c9.98,12.36,21.2,24.03,33.82,33.72c11.89,9.13,26.22,16.79,41.61,16.48
				c13.86-0.28,26.55-7.47,35.39-17.92c4.86-5.74,8.98-12.6,11.96-19.51c2.76-6.4,2.84-12.57,3.17-19.43
				C543.29,742.35,540.88,742.45,540.68,744.02L540.68,744.02z"/>
		</g>
	</g>
	<g>
		<g>
			<path class="st6" d="M433.81,848.62c-8.55-13.51-19.62-24.94-31.81-35.24c-5.71-4.82-11.69-9.36-17.89-13.52
				c-6.33-4.25-13.49-9.04-21.03-10.74c-1.44-0.32-2.84,1.57-1.55,2.66c5.52,4.69,12.32,8.01,18.38,11.96
				c6.59,4.28,12.89,8.96,18.96,13.94c11.99,9.84,22.78,21.02,34.16,31.54C433.43,849.58,434.12,849.11,433.81,848.62L433.81,848.62
				z"/>
		</g>
	</g>
	<line class="st8" x1="750.26" y1="727.87" x2="781.71" y2="657.64"/>
	<line class="st7" x1="902.2" y1="288.98" x2="889.23" y2="294.69"/>
	<line class="st7" x1="917.06" y1="271.73" x2="929.21" y2="276.41"/>
	<path class="st9" d="M971.45,409.09l301.16,123.9c0,0,28.61-4.28,38.19-3.82c15.65,0.76,56.95,11.31,60.94,14.67
		c6.15,5.18,6.1,9.68,6.1,9.68l-48.93-6.52c0,0-15.03,20.56-13.19,26.54c3.23,10.51,33.52,6.76,33.6,16.64
		c0.08,9.87-29.75,14.06-93.45,4.62c-51.29-7.6-309.08-101.25-309.08-101.25"/>
	<path class="st9" d="M749.68,338.75L701,284.55l131.15-8.25c7.93-0.5,14.35-6.58,15.33-14.46c0.81-6.57,3.18-14.67,9.15-22.29
		c4.64-5.91,11.31-10.38,17.59-13.61c3.95-2.03,2.6-7.97-1.84-8.1c-4.15-0.12-8.97-0.17-14.44-0.09
		c-24.23,0.34-35.5,14.68-35.5,14.68s-214.21-22.16-223.3,20.61c-10.64,50.07,102.06,155.45,102.06,155.45"/>
	<path class="st3" d="M957.66,451.9L957.66,451.9c-9.23,30.12-41.12,47.05-71.24,37.83l-122.34-37.48
		c-30.12-9.23-47.05-41.12-37.83-71.24l0,0c9.23-30.12,41.12-47.05,71.24-37.83l122.34,37.48
		C949.95,389.89,966.89,421.78,957.66,451.9z"/>
	<circle class="st10" cx="1444.29" cy="264.51" r="78"/>
	<path class="st9" d="M849.96,218.39c0,0-12.5,3.12-19.71,18.63"/>
	<path class="st9" d="M868.82,217.67c0,0-20.92,0.78-29.24,22.82"/>
</g>
</svg>
