<?xml version="1.0" encoding="utf-8"?>
<!-- Generator: Adobe Illustrator 24.0.3, SVG Export Plug-In . SVG Version: 6.00 Build 0)  -->
<svg version="1.1" id="Layer_1" xmlns="http://www.w3.org/2000/svg" xmlns:xlink="http://www.w3.org/1999/xlink" x="0px" y="0px"
	 viewBox="0 0 213.7 301.1" style="enable-background:new 0 0 213.7 301.1;" xml:space="preserve">
<style type="text/css">
	.st0{fill:#EB8B23;}
	.st1{fill:#DDDDDD;}
	.st2{fill:#AF206E;}
	.st3{fill:#F6CC1B;}
	.st4{fill:#C4C4C4;}
</style>
<g>
	<path class="st0" d="M116.6,77.7c-5.4,0-9.7,4.3-9.7,9.7v38.8h19.4V87.4C126.3,82.1,121.9,77.7,116.6,77.7z"/>
	<path class="st1" d="M131.1,155.4v-9.8H102v68.1l14.6,19.4l14.6-19.4v-9.7c-2.7,0-4.9-2.2-4.9-4.9c0-2.7,2.2-4.9,4.9-4.9v-9.7
		c-2.7,0-4.9-2.2-4.9-4.9c0-2.7,2.2-4.9,4.9-4.9v-9.7c-2.7,0-4.9-2.2-4.9-4.9C126.3,157.6,128.5,155.4,131.1,155.4z"/>
	<rect x="106.9" y="87.4" class="st2" width="19.4" height="48.5"/>
	<g>
		<rect x="33.9" y="223.5" class="st0" width="29.2" height="58.3"/>
		<path class="st1" d="M59.4,66.9c3.9-9.3,9.5-17.6,16.7-24.7c7.1-7.1,15.5-12.8,24.7-16.7c9.6-4,19.8-6.1,30.3-6.1V0
			C77.4,0,33.9,43.5,33.9,97.1v116.6h19.4V97.1C53.3,86.6,55.4,76.5,59.4,66.9z"/>
		<rect x="33.9" y="204" class="st3" width="29.1" height="9.7"/>
		<path class="st4" d="M68.5,70.7c3.4-8.1,8.3-15.3,14.6-21.6c6.2-6.2,13.5-11.1,21.6-14.6c5.5-2.3,11.3-3.9,17.2-4.7
			c5.3-0.7,9.2-5.2,9.2-10.5v0c-42.9,0-77.8,34.8-77.8,77.8V204h9.8l0.1-106.9C63.2,88,65,79.1,68.5,70.7z"/>
		<path class="st3" d="M77.7,223.4c2.7,0,4.8-2.2,4.8-4.8c0-2.7-2.2-4.8-4.8-4.8H19.3c-2.7,0-4.8,2.2-4.8,4.8c0,2.7,2.2,4.8,4.8,4.8
			H77.7z"/>
		<path class="st3" d="M53.5,301.1c5.3,0,9.6-4.3,9.6-9.6v-9.7H33.9v9.7c0,5.3,4.3,9.6,9.6,9.6H53.5z"/>
		<path class="st0" d="M33.9,233.3v-9.7C15.2,223.6,0,238.8,0,257.5c0,18.7,15.2,33.9,33.9,33.9v-9.7c-6.5,0-12.6-2.5-17.1-7.1
			c-4.6-4.6-7.1-10.7-7.1-17.1c0-6.5,2.5-12.6,7.1-17.1C21.4,235.8,27.5,233.3,33.9,233.3z"/>
	</g>
	<g>
		<rect x="184.6" y="29.1" class="st3" width="19.4" height="126.3"/>
		<path class="st0" d="M174.8,61.8v93.6h9.7V52.1C179.2,52.1,174.8,56.4,174.8,61.8z"/>
		<path class="st0" d="M155.4,281.7c0-10.7-8.7-19.4-19.4-19.4c-10.7,0-19.4,8.7-19.4,19.4s8.7,19.4,19.4,19.4
			C146.7,301.1,155.4,292.4,155.4,281.7z"/>
		<path class="st0" d="M194.2,223.4c0-10.7-8.7-19.4-19.4-19.4c-10.7,0-19.4,8.7-19.4,19.4c0,10.7,8.7,19.4,19.4,19.4
			C185.5,242.8,194.2,234.1,194.2,223.4z M165.1,223.4c0-5.4,4.4-9.7,9.7-9.7c5.4,0,9.7,4.4,9.7,9.7s-4.4,9.7-9.7,9.7
			C169.5,233.1,165.1,228.8,165.1,223.4z"/>
		<path class="st2" d="M204,233.1v-82.6c0-8-6.5-14.6-14.6-14.6h-14.6v87.4c0,21.5-17.4,38.9-38.9,38.9h0v38.9h0
			C173.5,301.1,204,270.7,204,233.1z"/>
		<path class="st1" d="M194.3,218.5v-49.1c0-2.7-2.2-4.9-4.9-4.9s-4.9,2.2-4.9,4.9v49.1c0,2.7,2.2,4.9,4.9,4.9
			S194.3,221.2,194.3,218.5z"/>
		<path class="st4" d="M213.7,213.7V204h-24.3c-2.7,0-4.9,2.2-4.9,4.9s2.2,4.9,4.9,4.9H213.7z"/>
		<path class="st4" d="M213.7,199.2c0-2.7-2.2-4.8-4.8-4.8c-2.7,0-4.8,2.2-4.8,4.8v14.5h9.6V199.2z"/>
		<path class="st1" d="M213.7,43.7c0-2.7-2.2-4.9-4.9-4.9H204v9.7h4.9C211.5,48.6,213.7,46.4,213.7,43.7z"/>
	</g>
	<path class="st4" d="M121.4,208.3v-62.7h-9.7v62.7c0,2.7,2.2,4.9,4.9,4.9S121.4,211,121.4,208.3z"/>
	<path class="st3" d="M136,145.6c2.7,0,4.8-2.2,4.8-4.8s-2.2-4.8-4.8-4.8H97.1c-2.7,0-4.8,2.2-4.8,4.8s2.2,4.8,4.8,4.8H136z"/>
	<rect x="33.9" y="233.3" class="st0" width="29.2" height="9.5"/>
	<rect x="33.9" y="252.6" class="st0" width="29.2" height="9.5"/>
	<rect x="33.9" y="272" class="st0" width="29.2" height="9.5"/>
</g>
</svg>
