<?xml version="1.0" encoding="utf-8"?>
<!-- Generator: Adobe Illustrator 24.0.3, SVG Export Plug-In . SVG Version: 6.00 Build 0)  -->
<svg version="1.1" id="Layer_1" xmlns="http://www.w3.org/2000/svg" xmlns:xlink="http://www.w3.org/1999/xlink" x="0px" y="0px"
	 viewBox="0 0 213.7 301.2" style="enable-background:new 0 0 213.7 301.2;" xml:space="preserve">
<style type="text/css">
	.st0{fill:#EB8B23;}
	.st1{fill:#2E1A47;}
	.st2{fill:#FFAA00;}
	.st3{fill:#FFBC00;}
	.st4{fill:#E54355;}
	.st5{fill:#FF4D4D;}
	.st6{fill:#EF9900;}
	.st7{fill:#5F2D78;}
	.st8{fill:#AF206E;}
	.st9{fill:#FFFFFF;}
	.st10{fill:#D17428;}
	.st11{fill:#C4C4C4;}
	.st12{fill:#DDDDDD;}
</style>
<g>
	<path class="st0" d="M121.4,29.3H92.3V9.5c0-5.2,4.2-9.5,9.5-9.5h10.2c5.2,0,9.5,4.2,9.5,9.5V29.3z"/>
	<path class="st0" d="M194.6,29.3H19.2C8.6,29.3,0,37.9,0,48.5v116.6h213.7V48.5C213.7,37.9,205.1,29.3,194.6,29.3z"/>
	<path class="st0" d="M184.7,48.8H28.9c-5.3,0-9.5,4.3-9.5,9.5v106.9h174.9V58.3C194.2,53,190,48.8,184.7,48.8z"/>
	<path class="st1" d="M102,29.1h9.7V14.6c0-2.7-2.2-4.9-4.9-4.9l0,0c-2.7,0-4.9,2.2-4.9,4.9V29.1z"/>
	<g>
		<g>
			<rect x="48.5" y="107" class="st2" width="29.1" height="9.7"/>
			<rect x="48.5" y="107" class="st3" width="9.7" height="9.7"/>
			<rect x="68" y="107" class="st3" width="9.7" height="9.7"/>
		</g>
		<polygon class="st3" points="204,145.8 194.4,145.8 194.4,136.1 194.3,136.1 184.6,136.1 184.6,136.1 184.6,126.4 184.6,126.4 
			38.8,126.4 38.8,136.1 19.4,136.1 19.4,145.8 9.7,145.8 9.7,155.5 204,155.5 204.1,155.5 204.1,145.8 		"/>
		<g>
			<rect x="77.7" y="106.9" class="st2" width="29.1" height="9.7"/>
			<rect x="77.6" y="106.9" class="st3" width="9.7" height="9.7"/>
			<rect x="97.1" y="106.9" class="st3" width="9.7" height="9.7"/>
		</g>
		<g>
			<rect x="48.6" y="97.2" class="st2" width="29.1" height="9.7"/>
			<rect x="48.6" y="97.2" class="st3" width="9.7" height="9.7"/>
			<rect x="68" y="97.3" class="st3" width="9.7" height="9.7"/>
		</g>
		<g>
			<rect x="68" y="116.7" class="st2" width="29.1" height="9.7"/>
			<rect x="68" y="116.7" class="st3" width="9.7" height="9.7"/>
			<rect x="87.4" y="116.7" class="st3" width="9.7" height="9.7"/>
		</g>
		<g>
			<path class="st2" d="M87.5,111.7L87.5,111.7c-8,0-14.6-6.5-14.6-14.6l0,0c0-8,6.5-14.6,14.6-14.6h0c8,0,14.6,6.5,14.6,14.6l0,0
				C102,105.2,95.5,111.7,87.5,111.7z"/>
			<path class="st3" d="M87.5,106.9L87.5,106.9c-5.3,0-9.7-4.3-9.7-9.7l0,0c0-5.3,4.3-9.7,9.7-9.7h0c5.3,0,9.7,4.3,9.7,9.7l0,0
				C97.1,102.5,92.8,106.9,87.5,106.9z"/>
		</g>
		<g>
			<polygon class="st4" points="77.6,116.6 97.1,116.6 97.1,145.7 			"/>
			<polygon class="st4" points="87.4,106.8 77.6,116.6 97.1,116.6 			"/>
			<polygon class="st4" points="116.5,116.6 97.1,116.6 97.1,145.7 			"/>
			<polygon class="st4" points="106.8,106.8 116.5,116.6 97.1,116.6 			"/>
			<polygon class="st5" points="87.4,106.8 106.8,106.8 97.1,116.6 			"/>
		</g>
		<g>
			<rect x="9.7" y="145.8" class="st2" width="29.1" height="9.7"/>
			<rect x="9.7" y="145.8" class="st3" width="9.7" height="9.7"/>
			<rect x="29.1" y="145.8" class="st3" width="9.7" height="9.7"/>
		</g>
		<g>
			<rect x="19.4" y="136.1" class="st2" width="29.1" height="9.7"/>
			<rect x="19.4" y="136.1" class="st3" width="9.7" height="9.7"/>
			<rect x="38.8" y="136.1" class="st3" width="9.7" height="9.7"/>
		</g>
		<g>
			<rect x="38.9" y="145.8" class="st2" width="29.1" height="9.7"/>
			<rect x="38.9" y="145.8" class="st3" width="9.7" height="9.7"/>
			<rect x="58.3" y="145.8" class="st3" width="9.7" height="9.7"/>
		</g>
		<g>
			<rect x="77.7" y="136.1" class="st2" width="29.1" height="9.7"/>
			<rect x="77.7" y="136.1" class="st3" width="9.7" height="9.7"/>
			<rect x="97.1" y="136.1" class="st3" width="9.7" height="9.7"/>
		</g>
		<g>
			<rect x="68" y="126.4" class="st2" width="29.1" height="9.7"/>
			<rect x="68" y="126.4" class="st3" width="9.7" height="9.7"/>
			<rect x="87.4" y="126.4" class="st3" width="9.7" height="9.7"/>
		</g>
		<g>
			<rect x="87.5" y="126.4" class="st2" width="29.1" height="9.7"/>
			<rect x="87.5" y="126.4" class="st3" width="9.7" height="9.7"/>
			<rect x="106.9" y="126.4" class="st3" width="9.7" height="9.7"/>
		</g>
		<g>
			<rect x="38.8" y="126.4" class="st3" width="29.1" height="9.7"/>
			<rect x="38.8" y="126.4" class="st3" width="9.7" height="9.7"/>
			<rect x="58.2" y="126.4" class="st3" width="9.7" height="9.7"/>
		</g>
		<g>
			<rect x="38.8" y="116.7" class="st3" width="29.1" height="9.7"/>
			<rect x="38.8" y="116.7" class="st3" width="9.7" height="9.7"/>
			<rect x="58.2" y="116.7" class="st3" width="9.8" height="9.7"/>
		</g>
		<g>
			<rect x="48.5" y="136.1" class="st3" width="29.1" height="9.7"/>
			<rect x="48.5" y="136.1" class="st2" width="9.7" height="9.7"/>
			<rect x="67.9" y="136.1" class="st3" width="9.7" height="9.7"/>
		</g>
		<g>
			<rect x="68" y="145.8" class="st2" width="29.1" height="9.7"/>
			<rect x="68" y="145.8" class="st3" width="9.7" height="9.7"/>
		</g>
		<g>
			<rect x="97.2" y="145.8" class="st2" width="29.1" height="9.7"/>
			<rect x="97.1" y="145.8" class="st3" width="9.7" height="9.7"/>
			<rect x="116.6" y="145.8" class="st3" width="9.7" height="9.7"/>
		</g>
		<g>
			<rect x="126.4" y="145.8" class="st2" width="29.1" height="9.7"/>
			<rect x="126.4" y="145.8" class="st3" width="9.7" height="9.7"/>
			<rect x="145.8" y="145.8" class="st3" width="9.7" height="9.7"/>
		</g>
		<g>
			<rect x="155.6" y="145.8" class="st2" width="29.1" height="9.7"/>
			<rect x="155.6" y="145.8" class="st3" width="9.7" height="9.7"/>
			<rect x="175" y="145.8" class="st3" width="9.7" height="9.7"/>
		</g>
		<g>
			<rect x="174.9" y="145.8" class="st2" width="29.1" height="9.7"/>
			<rect x="174.9" y="145.8" class="st3" width="9.7" height="9.7"/>
			<rect x="194.4" y="145.8" class="st3" width="9.7" height="9.7"/>
		</g>
		<g>
			<rect x="106.9" y="136.1" class="st2" width="29.1" height="9.7"/>
			<rect x="106.9" y="136.1" class="st3" width="9.7" height="9.7"/>
			<rect x="126.3" y="136.1" class="st3" width="9.7" height="9.7"/>
		</g>
		<g>
			<rect x="136" y="136.1" class="st2" width="29.1" height="9.7"/>
			<rect x="136" y="136.1" class="st3" width="9.7" height="9.7"/>
			<rect x="155.5" y="136.1" class="st3" width="9.7" height="9.7"/>
		</g>
		<g>
			<rect x="165.2" y="136.1" class="st2" width="29.1" height="9.7"/>
			<rect x="165.2" y="136.1" class="st3" width="9.7" height="9.7"/>
			<rect x="184.7" y="136.1" class="st3" width="9.7" height="9.7"/>
		</g>
		<g>
			<rect x="145.7" y="126.3" class="st2" width="29.1" height="9.7"/>
			<rect x="145.7" y="126.3" class="st3" width="9.7" height="9.7"/>
			<rect x="165.1" y="126.3" class="st3" width="9.7" height="9.7"/>
		</g>
		<g>
			<rect x="155.5" y="126.4" class="st3" width="29.1" height="9.7"/>
			<rect x="155.5" y="126.4" class="st2" width="9.7" height="9.7"/>
			<rect x="174.9" y="126.4" class="st3" width="9.7" height="9.7"/>
		</g>
		<g>
			<rect x="116.6" y="126.4" class="st2" width="29.1" height="9.7"/>
			<rect x="116.6" y="126.4" class="st3" width="9.7" height="9.7"/>
			<rect x="136.1" y="126.4" class="st3" width="9.7" height="9.7"/>
		</g>
		<g>
			<polygon class="st2" points="165.2,97.2 145.7,68.1 126.3,97.2 106.9,77.8 106.9,116.7 184.6,116.7 184.6,77.8 			"/>
			<polygon class="st6" points="145.7,116.7 106.9,116.7 106.9,126.4 145.7,126.4 184.6,126.4 184.6,116.7 			"/>
			<polygon class="st3" points="184.6,116.7 184.6,77.8 165.2,97.2 145.7,68.1 145.7,116.7 			"/>
			<path class="st3" d="M150.6,68.1c0,2.7-2.2,4.9-4.9,4.9s-4.9-2.2-4.9-4.9c0-2.7,2.2-4.9,4.9-4.9S150.6,65.4,150.6,68.1z"/>
			<path class="st3" d="M189.5,77.8c0,2.7-2.2,4.9-4.9,4.9c-2.7,0-4.9-2.2-4.9-4.9c0-2.7,2.2-4.9,4.9-4.9
				C187.3,73,189.5,75.1,189.5,77.8z"/>
			<path class="st2" d="M111.7,77.8c0,2.7-2.2,4.9-4.9,4.9c-2.7,0-4.9-2.2-4.9-4.9c0-2.7,2.2-4.9,4.9-4.9
				C109.6,73,111.7,75.1,111.7,77.8z"/>
			<g>
				<path class="st4" d="M140.9,102.1c0,2.7,2.2,4.9,4.9,4.9v-9.7C143.1,97.2,140.9,99.4,140.9,102.1z"/>
				<path class="st4" d="M145.7,97.2v9.7c2.7,0,4.9-2.2,4.9-4.9C150.6,99.4,148.4,97.2,145.7,97.2z"/>
			</g>
			<g>
				<path class="st4" d="M170,102.1c0,2.7,2.2,4.9,4.9,4.9v-9.7C172.2,97.2,170,99.4,170,102.1z"/>
				<path class="st4" d="M174.9,97.2v9.7c2.7,0,4.9-2.2,4.9-4.9C179.7,99.4,177.6,97.2,174.9,97.2z"/>
			</g>
			<g>
				<path class="st4" d="M111.7,102.1c0,2.7,2.2,4.9,4.9,4.9v-9.7C113.9,97.2,111.7,99.4,111.7,102.1z"/>
				<path class="st4" d="M116.6,97.2v9.7c2.7,0,4.9-2.2,4.9-4.9C121.5,99.4,119.3,97.2,116.6,97.2z"/>
			</g>
		</g>
		<g>
			<polygon class="st7" points="38.9,97.1 58.3,97.1 58.3,126.1 			"/>
			<polygon class="st7" points="48.6,87.3 38.9,97.1 58.3,97.1 			"/>
			<polygon class="st7" points="77.7,97.1 58.3,97.1 58.3,126.1 			"/>
			<polygon class="st7" points="68,87.3 77.7,97.1 58.3,97.1 			"/>
			<polygon class="st8" points="48.6,87.3 68,87.3 58.3,97.1 			"/>
		</g>
		<g>
			<path class="st2" d="M72.8,145.8L72.8,145.8c-8,0-14.6-6.5-14.6-14.6v0c0-8,6.5-14.6,14.6-14.6l0,0c8,0,14.6,6.5,14.6,14.6v0
				C87.4,139.3,80.8,145.8,72.8,145.8z"/>
			<path class="st3" d="M72.8,140.9L72.8,140.9c-5.3,0-9.7-4.3-9.7-9.7v0c0-5.3,4.3-9.7,9.7-9.7l0,0c5.3,0,9.7,4.3,9.7,9.7v0
				C82.5,136.6,78.1,140.9,72.8,140.9z"/>
		</g>
		<g>
			<path class="st2" d="M40.2,136.1L40.2,136.1c-8,0-14.6-6.5-14.6-14.6v0c0-8,6.5-14.6,14.6-14.6l0,0c8,0,14.6,6.5,14.6,14.6v0
				C54.8,129.5,48.3,136.1,40.2,136.1z"/>
			<path class="st3" d="M40.2,131.2L40.2,131.2c-5.3,0-9.7-4.3-9.7-9.7v0c0-5.3,4.3-9.7,9.7-9.7l0,0c5.3,0,9.7,4.3,9.7,9.7v0
				C49.9,126.8,45.6,131.2,40.2,131.2z"/>
		</g>
		<g>
			<path class="st2" d="M175,165.2L175,165.2c-8,0-14.6-6.5-14.6-14.6l0,0c0-8,6.5-14.6,14.6-14.6l0,0c8,0,14.6,6.5,14.6,14.6l0,0
				C189.6,158.7,183,165.2,175,165.2z"/>
			<path class="st3" d="M175,160.3L175,160.3c-5.3,0-9.7-4.3-9.7-9.7l0,0c0-5.3,4.3-9.7,9.7-9.7l0,0c5.3,0,9.7,4.3,9.7,9.7l0,0
				C184.7,156,180.3,160.3,175,160.3z"/>
		</g>
		<g>
			<polygon class="st4" points="145.8,136 145.8,155.5 116.7,155.5 			"/>
			<polygon class="st5" points="155.6,145.8 145.8,136 145.8,155.5 			"/>
			<polygon class="st4" points="155.6,155.5 155.6,145.8 145.8,155.5 			"/>
		</g>
		<path class="st9" d="M43.6,145.8L43.6,145.8c-2.7,0-4.9-2.2-4.9-4.9l0,0c0-2.7,2.2-4.9,4.9-4.9l0,0c2.7,0,4.9,2.2,4.9,4.9l0,0
			C48.5,143.6,46.3,145.8,43.6,145.8z"/>
		<path class="st9" d="M126.3,121.5L126.3,121.5c-2.7,0-4.9-2.2-4.9-4.9l0,0c0-2.7,2.2-4.9,4.9-4.9l0,0c2.7,0,4.9,2.2,4.9,4.9l0,0
			C131.1,119.3,129,121.5,126.3,121.5z"/>
		<path class="st9" d="M68,92.1L68,92.1c-2.7,0-4.9-2.2-4.9-4.9l0,0c0-2.7,2.2-4.9,4.9-4.9l0,0c2.7,0,4.9,2.2,4.9,4.9l0,0
			C72.9,90,70.7,92.1,68,92.1z"/>
	</g>
	<path class="st10" d="M213.7,155.4H0v136.5c0,5.1,4.1,9.2,9.2,9.2h195.2c5.1,0,9.2-4.1,9.2-9.2V155.4z"/>
	<rect x="19.4" y="175.1" class="st0" width="175.1" height="106.5"/>
	<g>
		<path class="st2" d="M145.7,301.2L145.7,301.2c-8,0-14.6-6.5-14.6-14.6l0,0c0-8,6.5-14.6,14.6-14.6h0c8,0,14.6,6.5,14.6,14.6l0,0
			C160.3,294.7,153.8,301.2,145.7,301.2z"/>
		<path class="st3" d="M145.7,296.3L145.7,296.3c-5.3,0-9.7-4.3-9.7-9.7l0,0c0-5.3,4.3-9.7,9.7-9.7h0c5.3,0,9.7,4.3,9.7,9.7l0,0
			C155.4,292,151.1,296.3,145.7,296.3z"/>
	</g>
	<rect x="19.5" y="242.8" class="st10" width="174.6" height="9.7"/>
	<rect x="19.5" y="204" class="st10" width="174.6" height="9.7"/>
	<rect x="97.1" y="165.2" class="st10" width="19.4" height="136"/>
	<g>
		<path class="st11" d="M0,291.9v-39.2l48.6,48.5H9.2C4.1,301.2,0,297,0,291.9z"/>
		<g>
			<path class="st1" d="M19.4,286.5L19.4,286.5c0,2.7-2.2,4.9-4.9,4.9l0,0c-2.7,0-4.9-2.2-4.9-4.9l0,0c0-2.7,2.2-4.9,4.9-4.9l0,0
				C17.2,281.6,19.4,283.8,19.4,286.5z"/>
		</g>
	</g>
	<g>
		<polygon class="st11" points="0,155.5 48.5,155.5 0,204.1 		"/>
		<g>
			<path class="st1" d="M14.7,174.9L14.7,174.9c-2.7,0-4.9-2.2-4.9-4.9l0,0c0-2.7,2.2-4.9,4.9-4.9l0,0c2.7,0,4.9,2.2,4.9,4.9l0,0
				C19.5,172.8,17.4,174.9,14.7,174.9z"/>
		</g>
	</g>
	<g>
		<path class="st11" d="M204.5,301.2h-39.2l48.5-48.6v39.3C213.7,297,209.6,301.2,204.5,301.2z"/>
		<g>
			<path class="st1" d="M199.1,281.8L199.1,281.8c2.7,0,4.9,2.2,4.9,4.9l0,0c0,2.7-2.2,4.9-4.9,4.9l0,0c-2.7,0-4.9-2.2-4.9-4.9l0,0
				C194.2,283.9,196.4,281.8,199.1,281.8z"/>
		</g>
	</g>
	<g>
		<path class="st12" d="M102,184.8c-5.4,0-9.7,4.3-9.7,9.7v19.2h9.7v-19.2h9.7v9.8h9.7v-9.8c0-5.4-4.3-9.7-9.7-9.7H102z"/>
		<path class="st11" d="M106.9,238L106.9,238c-8,0-14.6-6.5-14.6-14.6v-14.6h29.1v14.6C121.4,231.4,114.9,238,106.9,238z"/>
		<path class="st1" d="M102,218.5v4.9c0,2.7,2.2,4.9,4.9,4.9l0,0c2.7,0,4.9-2.2,4.9-4.9v-4.9H102z"/>
	</g>
	<rect x="102" y="175.1" class="st11" width="9.7" height="19.4"/>
	<g>
		<polygon class="st11" points="213.7,155.5 213.7,204 165.1,155.5 		"/>
		<g>
			<path class="st1" d="M194.3,170.2L194.3,170.2c0-2.7,2.2-4.9,4.9-4.9l0,0c2.7,0,4.9,2.2,4.9,4.9l0,0c0,2.7-2.2,4.9-4.9,4.9l0,0
				C196.5,175,194.3,172.9,194.3,170.2z"/>
		</g>
	</g>
	<g>
		<rect x="106.9" y="291.5" class="st2" width="29.1" height="9.7"/>
		<rect x="106.9" y="291.5" class="st3" width="9.7" height="9.7"/>
		<rect x="126.3" y="291.5" class="st3" width="9.7" height="9.7"/>
	</g>
	<g>
		<polygon class="st4" points="155.6,272 175,272 175,301.1 		"/>
		<polygon class="st4" points="165.3,262.2 155.6,272 175,272 		"/>
		<polygon class="st4" points="194.4,272 175,272 175,301.1 		"/>
		<polygon class="st4" points="184.7,262.2 194.4,272 175,272 		"/>
		<polygon class="st5" points="165.3,262.2 184.7,262.2 175,272 		"/>
	</g>
	<path class="st9" d="M165.3,267.1L165.3,267.1c-2.7,0-4.9-2.2-4.9-4.9l0,0c0-2.7,2.2-4.9,4.9-4.9l0,0c2.7,0,4.9,2.2,4.9,4.9l0,0
		C170.1,264.9,168,267.1,165.3,267.1z"/>
</g>
</svg>
