<?xml version="1.0" encoding="utf-8"?>
<!-- Generator: Adobe Illustrator 24.0.3, SVG Export Plug-In . SVG Version: 6.00 Build 0)  -->
<svg version="1.1" id="Layer_1" xmlns="http://www.w3.org/2000/svg" xmlns:xlink="http://www.w3.org/1999/xlink" x="0px" y="0px"
	 viewBox="0 0 214 301.1" style="enable-background:new 0 0 214 301.1;" xml:space="preserve">
<style type="text/css">
	.st0{fill:#EF9900;}
	.st1{fill:#FFAA00;}
	.st2{fill:#FFBC00;}
	.st3{fill:#5F2D78;}
</style>
<g>
	<path class="st0" d="M194.6,262.3C194.6,262.3,194.6,262.3,194.6,262.3L194.6,262.3h-19.4v19.4c0,10.7,8.7,19.4,19.4,19.4l0,0l0,0
		c0,0,0,0,0,0c10.7,0,19.4-8.7,19.4-19.4C214,271,205.3,262.3,194.6,262.3z"/>
	<g>
		<path class="st1" d="M160.6,121.5L160.6,121.5c0-8,6.5-14.6,14.6-14.6h9.7V77.7c0-5.4-4.3-9.7-9.7-9.7h-9.6
			c-2.7,0-4.9-2.2-4.9-4.9l0,0c0-2.7,2.2-4.9,4.9-4.9h9.6c5.4,0,9.7-4.3,9.7-9.7V19.5H0v82.4c0,2.8,2.3,5.1,5.1,5.1l0,0
			c2.6,0,4.9,2.1,4.9,4.7c0.1,2.7-2.1,5-4.8,5H5.1c-2.8,0-5.1,2.3-5.1,5.1V233c0,5.4,4.4,9.8,9.8,9.8l0,0c5.3,0,9.8,4.2,9.9,9.6
			c0.1,5.4-4.3,9.8-9.7,9.8H9.8c-5.4,0-9.8,4.4-9.8,9.8v9.7h184.9V136h-9.7C167.1,136,160.6,129.5,160.6,121.5z"/>
	</g>
	<path class="st2" d="M194.6,0H19.5C8.7,0,0,8.7,0,19.5v0h194.6V0z"/>
	<path class="st0" d="M194.6,0C194.6,0,194.6,0,194.6,0L194.6,0L194.6,0c-10.7,0-19.4,8.7-19.4,19.4v19.4h19.4v0c0,0,0,0,0,0
		c10.7,0,19.4-8.7,19.4-19.4C214,8.7,205.3,0,194.6,0z"/>
	<path class="st0" d="M194.6,301.1H19.5C8.7,301.1,0,292.4,0,281.7l0,0h194.6V301.1z"/>
	<path class="st2" d="M194.6,0c-10.7,0-19.4,8.7-19.4,19.4h9.7c0-5.4,4.4-9.7,9.7-9.7s9.7,4.4,9.7,9.7c0,4.3-2.7,7.9-6.5,9.2
		c-1.9,0.7-3.2,2.5-3.2,4.6l0,0c0,3.3,3.3,5.7,6.4,4.6c7.6-2.7,13-9.9,13-18.3C214,8.7,205.3,0,194.6,0z"/>
	<path class="st2" d="M194.6,301.1c-10.7,0-19.4-8.7-19.4-19.4h9.7c0,5.4,4.4,9.7,9.7,9.7c5.4,0,9.7-4.4,9.7-9.7
		c0-4.3-2.7-7.9-6.5-9.2c-1.9-0.7-3.2-2.5-3.2-4.6l0,0c0-3.3,3.3-5.7,6.4-4.6c7.6,2.7,13,9.9,13,18.3
		C214,292.4,205.3,301.1,194.6,301.1z"/>
	<path class="st0" d="M116.9,238L116.9,238c0,2.7,2.2,4.9,4.9,4.9h0c2.7,0,4.9,2.2,4.9,4.9l0,0c0,2.7-2.2,4.9-4.9,4.9h-9.6
		c-2.7,0-4.9,2.2-4.9,4.9l0,0c0,2.7-2.2,4.9-4.9,4.9h-0.2c-2.7,0-4.9,2.2-4.9,4.9l0,0c0,2.7-2.2,4.9-4.9,4.9H73.2
		c-2.7,0-4.9-2.2-4.9-4.9l0,0c0-2.7-2.2-4.9-4.9-4.9h0c-2.7,0-4.9-2.2-4.9-4.9l0,0c0-2.7-2.2-4.9-4.9-4.9h-0.1
		c-2.7,0-4.9-2.2-4.9-4.9l0,0c0-2.7-2.2-4.9-4.9-4.9h-9.7c-2.7,0-4.9-2.2-4.9-4.9l0,0c0-2.7,2.2-4.9,4.9-4.9h29.2
		c2.7,0,4.9-2.2,4.9-4.9v0c0-2.7,2.2-4.9,4.9-4.9H78h29.1h14.6c2.7,0,4.9,2.2,4.9,4.9v0c0,2.7-2.2,4.9-4.9,4.9h0
		C119,233.1,116.9,235.3,116.9,238z"/>
	<path class="st0" d="M142.7,72.9v-0.2c0-2.6-2.1-4.8-4.8-4.8h-0.2c-2.6,0-4.8-2.1-4.8-4.8v-0.2c0-2.6-2.1-4.8-4.8-4.8h-10.1
		c-2.6,0-4.8-2.1-4.8-4.8v-0.2c0-2.6-2.1-4.8-4.8-4.8h0c-2.6,0-4.8-2.1-4.8-4.8v-0.2c0-2.6-2.1-4.8-4.8-4.8H50.3
		c-2.6,0-4.8,2.1-4.8,4.8v0.2c0,2.6-2.1,4.8-4.8,4.8h-0.2c-2.6,0-4.8,2.1-4.8,4.8v0.2c0,2.6-2.1,4.8-4.8,4.8h-0.2
		c-2.6,0-4.8,2.1-4.8,4.8v0.2c0,2.6,2.1,4.8,4.8,4.8h0.2c2.6,0,4.8,2.1,4.8,4.8v0.2c0,2.6-2.1,4.8-4.8,4.8H14.8
		c-2.6,0-4.8,2.1-4.8,4.8v0.2c0,2.6,2.1,4.8,4.8,4.8h30.9c2.6,0,4.8,2.1,4.8,4.8v0.2c0,2.6,2.1,4.8,4.8,4.8h4.5
		c2.6,0,4.8,2.1,4.8,4.8v0.2c0,2.6,2.1,4.8,4.8,4.8h35c2.6,0,4.8-2.1,4.8-4.8v-0.2c0-2.6,2.1-4.8,4.8-4.8h14.7
		c2.6,0,4.8-2.1,4.8-4.8v-0.2c0-2.6-2.1-4.8-4.8-4.8h-6.9c-2.6,0-4.8-2.1-4.8-4.8v-0.2c0-2.6,2.1-4.8,4.8-4.8h16.3
		C140.5,77.7,142.7,75.6,142.7,72.9z"/>
	<g>
		<rect x="78" y="87.4" class="st3" width="9.7" height="9.7"/>
		<rect x="78" y="106.9" class="st3" width="9.7" height="9.7"/>
		<rect x="78" y="126.3" class="st3" width="9.7" height="9.7"/>
		<rect x="58.6" y="126.3" class="st3" width="9.7" height="9.7"/>
		<rect x="39.1" y="126.3" class="st3" width="9.7" height="9.7"/>
		<rect x="19.7" y="126.3" class="st3" width="9.7" height="9.7"/>
		<rect x="19.7" y="145.7" class="st3" width="9.7" height="9.7"/>
		<rect x="19.7" y="165.1" class="st3" width="9.7" height="9.7"/>
		<rect x="19.7" y="184.6" class="st3" width="9.7" height="9.7"/>
		<rect x="19.7" y="204" class="st3" width="9.7" height="9.7"/>
		<rect x="39.1" y="204" class="st3" width="9.7" height="9.7"/>
		<rect x="58.6" y="204" class="st3" width="9.7" height="9.7"/>
		<rect x="78" y="204" class="st3" width="9.7" height="9.7"/>
		<rect x="97.4" y="204" class="st3" width="9.7" height="9.7"/>
		<rect x="116.8" y="204" class="st3" width="9.7" height="9.7"/>
		<rect x="136.3" y="204" class="st3" width="9.7" height="9.7"/>
		<rect x="136.3" y="223.4" class="st3" width="9.7" height="9.7"/>
		<rect x="136.3" y="242.9" class="st3" width="9.7" height="9.7"/>
		<rect x="136.3" y="262.3" class="st3" width="9.7" height="9.7"/>
	</g>
	<g>
		<g>
			<g>
				<path class="st0" d="M146,160.3L146,160.3c0-2.8-2.2-4.9-4.8-4.9h-10c-2.7,0-4.8-2.2-4.8-4.8v-0.1c0-2.7-2.2-4.8-4.8-4.8h-10
					c-2.7,0-4.8,2.2-4.8,4.8v0.2c0,2.7-2.2,4.8-4.8,4.8H73c-2.7,0-4.8-2.2-4.8-4.8v-0.2c0-2.7-2.2-4.8-4.8-4.8H43.9
					c-2.7,0-4.8,2.2-4.8,4.8v0.1c0,2.7,2.2,4.8,4.8,4.8h0.2c2.7,0,4.8,2.2,4.8,4.8v0.1c0,2.7,2.2,4.8,4.8,4.8h0.1
					c2.7,0,4.8,2.2,4.8,4.8v4.9v4.9c0,2.7-2.2,4.8-4.8,4.8l0,0c-2.7,0-4.8,2.2-4.8,4.8v0.1c0,2.7,2.2,4.8,4.8,4.8h19.4
					c2.7,0,4.8-2.2,4.8-4.8v0c0-2.7,2.2-4.8,4.8-4.8h0.3c2.7,0,4.8-2.2,4.8-4.8v-0.1c0-2.7,2.2-4.8,4.8-4.8H112
					c2.7,0,4.8,2.2,4.8,4.8v0.1c0,2.7,2.2,4.8,4.8,4.8h0.2c2.7,0,4.8,2.2,4.8,4.8v0c0,2.7,2.2,4.8,4.8,4.8h9.8
					c2.7,0,4.8-2.2,4.8-4.8v0c0-2.7,2.2-4.8,4.8-4.8h0c2.7,0,4.8-2.2,4.8-4.8v-0.1c0-2.7,2.2-4.8,4.8-4.8h0.2c2.7,0,4.8-2.2,4.8-4.8
					v-0.1c0-2.7-2.2-4.8-4.8-4.8h-9.8C148.1,165.1,146,163,146,160.3z"/>
			</g>
		</g>
	</g>
	<polygon class="st3" points="96.5,66 89.7,59.2 82.8,66 76,59.2 69.1,66 76,72.9 69.1,79.7 76,86.6 82.8,79.7 89.7,86.6 96.5,79.7 
		89.7,72.9 	"/>
	<path class="st2" d="M175.2,126.3c-2.7,0-4.9-2.2-4.9-4.9l0,0c0-2.7,2.2-4.9,4.9-4.9l0,0c5.3,0,9.7-4.3,9.7-9.7v0h-9.7
		c-8,0-14.6,6.5-14.6,14.6l0,0c0,8,6.5,14.6,14.6,14.6h9.7v0C184.8,130.6,180.5,126.3,175.2,126.3L175.2,126.3z"/>
	<path class="st2" d="M165.5,68c-2.7,0-4.9-2.2-4.9-4.9l0,0c0-2.7,2.2-4.9,4.9-4.9h9.7v-9.7h-9.7c-8,0-14.6,6.5-14.6,14.6l0,0
		c0,8,6.5,14.6,14.6,14.6h9.7V68H165.5z"/>
	<g>
		<path class="st2" d="M175.2,68v48.6c0,0,0,0,0,0l0,0c5.4,0,9.7-4.3,9.7-9.7V77.7C184.9,72.4,180.5,68,175.2,68L175.2,68z"/>
		<path class="st2" d="M184.9,48.6V19.4h-9.7v38.9l0,0C180.5,58.3,184.9,53.9,184.9,48.6z"/>
	</g>
	<rect x="175.1" y="136" class="st2" width="9.7" height="145.6"/>
</g>
</svg>
