<svg id="Layer_1" data-name="Layer 1" xmlns="http://www.w3.org/2000/svg" viewBox="0 0 886.63 634.08"><defs><style>.cls-1{fill:#412968;}.cls-2,.cls-30{fill:#f8f8f8;}.cls-10,.cls-11,.cls-12,.cls-13,.cls-14,.cls-15,.cls-16,.cls-17,.cls-18,.cls-19,.cls-2,.cls-20,.cls-21,.cls-22,.cls-23,.cls-24,.cls-25,.cls-26,.cls-27,.cls-28,.cls-29,.cls-3,.cls-31,.cls-32,.cls-4,.cls-6,.cls-7,.cls-8{fill-rule:evenodd;}.cls-3,.cls-33{fill:#482c75;}.cls-4{fill:#eb8b23;}.cls-5{fill:#f9dc62;}.cls-6{fill:#5b5663;}.cls-7{fill:#d38083;}.cls-8{fill:#af206e;}.cls-10,.cls-9{fill:#2e1a47;}.cls-11{fill:#de979b;}.cls-12{fill:#7c6f7c;}.cls-13{fill:#464656;}.cls-14{fill:#44245b;}.cls-15{fill:#422f4c;}.cls-16{fill:#9e8891;}.cls-17{fill:#e3bbbf;}.cls-18{fill:#7a707e;}.cls-19{fill:#6d626d;}.cls-20{fill:#5f2d78;}.cls-21{fill:#e54355;}.cls-22{fill:#fff;}.cls-23{fill:#d38488;}.cls-24{fill:#d8dde5;}.cls-25{fill:#9e78b5;}.cls-26{fill:#38235b;}.cls-27{fill:#c1388a;}.cls-28{fill:#5a293c;}.cls-29{fill:#edced0;}.cls-31{fill:#f8f8fd;}.cls-32{fill:#f2d2e2;}</style></defs><title>warriorprincess</title><ellipse class="cls-1" cx="426.14" cy="416.03" rx="224.69" ry="109.94" transform="translate(-157.49 297.51) rotate(-32.83)"/><path class="cls-2" d="M412.58,414.33c9.17-6.23,15-13.23,14.51-18.39-.29-3.09-2.83-5.07-6.9-5.89-1.1-2.29-4.94-3.19-10.37-2.7L393.43,227.42c-.69-6.76-6.67-12.45-13.29-12.66h0c-6.62-.21-11.46,5.15-10.77,11.9l17.19,167.83c-11.81,5.74-20.3,13.21-19.85,17.95s9.78,5.2,21.85,1.48l.33,3.23a3.13,3.13,0,0,0,0,.53,5.68,5.68,0,0,0,.2,1.38L394.19,469c.7,6.76,6.68,12.45,13.29,12.66h0c6.62.2,11.47-5.15,10.78-11.91Z"/><path class="cls-3" d="M713.73,634.08c-69.71,0-126.56-8.89-126.56-19.79S644,594.5,713.73,594.5s126.56,8.89,126.56,19.79S783.44,634.08,713.73,634.08Z"/><path class="cls-4" d="M130.19,492.44c-1-2.94-11.5,3.86-23.54,15.2a152.68,152.68,0,0,0-14,14.93c1-3,2-6.48,3.18-10.25,3.85-2.26,10.12-7.69,17-15,10.75-11.36,18.87-22.88,18.11-25.71s-10.07,4.09-20.83,15.46c-3.94,4.17-7.53,8.35-10.45,12.12,1.07-3.78,2.17-7.76,3.3-11.91a115.39,115.39,0,0,0,13-14.21c9.37-11.72,16.57-23.46,16.08-26.23s-8.48,4.5-17.85,16.22c-2.7,3.38-5.22,6.75-7.42,9.91q1.06-4.11,2.15-8.36l1.53-6.05a102,102,0,0,0,9-10.06c7.4-9.25,13.08-18.52,12.69-20.71s-6.69,3.55-14.09,12.8c-1.67,2.1-3.25,4.19-4.7,6.2,1.19-4.94,2.31-9.7,3.35-14.21a82.5,82.5,0,0,0,5.66-6.46c5.41-6.76,9.56-13.54,9.28-15.13s-4.9,2.59-10.3,9.35c-.94,1.17-1.83,2.34-2.67,3.48,4.47-20.31,6.72-33.91,5.42-34.24s-5.82,12.68-11.62,32.66c-.19-1.4-.42-2.86-.68-4.33-1.51-8.52-3.55-14.41-4.57-13.14s-.6,9.2.91,17.72c.58,3.27,1.24,6.15,1.88,8.39-1.25,4.45-2.54,9.17-3.85,14.08-.31-2.46-.7-5.05-1.17-7.69-2.07-11.66-4.86-19.71-6.25-18s-.83,12.59,1.24,24.25a102.14,102.14,0,0,0,3.09,13.14l-1.55,6c-.72,2.82-1.42,5.62-2.11,8.36-.42-3.83-1-8-1.77-12.24-2.62-14.78-6.17-25-7.92-22.79s-1,15.95,1.57,30.73a116.44,116.44,0,0,0,4.62,18.69c-1,4.18-1.93,8.21-2.8,12-.76-4.71-1.91-10.09-3.38-15.64-4-15.13-8.88-25.67-10.9-23.54s-.39,16.12,3.61,31.25c2.56,9.64,5.47,17.42,7.76,21.24-.81,3.85-1.52,7.38-2.11,10.52a152.82,152.82,0,0,0-5.14-19.8c-5.15-15.71-11.15-26.73-13.4-24.61s.09,16.58,5.24,32.29c4,12.22,8.51,21.59,11.38,24.17-.28,2.71-.24,4.25.18,4.36s1.2-1.22,2.24-3.74c3.75-.89,12.2-7,21.56-15.78C122.18,507,131.16,495.38,130.19,492.44Z"/><path class="cls-2" d="M362.84,286.81c-6.25,1.6-8.93,10.4-6,19.64s10.41,15.43,16.67,13.83,8.94-10.41,6-19.65S369.1,285.2,362.84,286.81Z"/><path class="cls-2" d="M371.93,295.56c-2.7.56-3.4,7-1.57,14.49s5.52,13,8.23,12.48,3.4-7,1.57-14.49S374.64,295,371.93,295.56Z"/><ellipse class="cls-5" cx="566.48" cy="352.67" rx="148.72" ry="140.25" transform="translate(-90.43 469.88) rotate(-42.02)"/><path class="cls-2" d="M36.2,477.93c14.57-6.57,23.82,2.24,23.93,20.24,7-7.35,14.49-12.43,20.77-13.55,9-1.61,13.2,5.3,11.86,16.78,4-3.67,8-6.14,11.55-6.76a7.61,7.61,0,0,1,3.69.14,89.56,89.56,0,0,0-2.92,9.49,6.61,6.61,0,0,0-5.21-.92c-3.51.63-7.56,3.1-11.55,6.77,1.34-11.48-2.88-18.39-11.86-16.78-6.28,1.12-13.73,6.2-20.78,13.55-.1-18-9.36-26.82-23.92-20.25-11.2,5.06-23,18.05-31.76,33.8,9-19.54,23-36.55,36.2-42.51Zm150.13-13.17c-2.81.5-6,2.2-9.18,4.76,8.48-24.65,3.55-41.48-12.39-38.63-15.16,2.71-35.32,22.32-48.57,46.13,12.79-27.58,36-51.81,53-54.85,15.94-2.85,20.87,14,12.39,38.63,3.2-2.56,6.37-4.26,9.19-4.76,8.56-1.53,10.59,8.6,4.54,22.62a65.59,65.59,0,0,1-4.11,7.94C196.85,473,194.73,463.25,186.33,464.76Z"/><path class="cls-2" d="M385.85,146.28h0a9.74,9.74,0,0,0-9.56,9.88l1.15,70.35a9.74,9.74,0,0,0,9.88,9.56h0a9.74,9.74,0,0,0,9.56-9.87l-1.15-70.36A9.75,9.75,0,0,0,385.85,146.28Z"/><path class="cls-2" d="M430.77,90a41.79,41.79,0,0,0,18.33,15.22c14.89,6,27.65-1.27,28.51-16.25.37-6.42-1.52-13.22-5-19.36a33.61,33.61,0,0,1,2.53,14.27c-.86,15-13.62,22.26-28.51,16.26A40.68,40.68,0,0,1,431,88.45Z"/><path class="cls-2" d="M453.06,479.1c-8.71-.33-17.22-.55-25.42-.68v24.45c7.91.46,16.1.86,24.49,1.17,67.41,2.52,122.26-1,122.52-7.91S520.47,481.62,453.06,479.1Z"/><path class="cls-2" d="M460.12,63.78A30,30,0,1,0,483.86,9.12a30,30,0,0,1-23.74,54.66Z"/><path class="cls-2" d="M388.1,232.3a9.83,9.83,0,0,0,9.41-10l-.28-17.05L388.47,229Z"/><path class="cls-2" d="M401.64,193.3a10.83,10.83,0,0,0,4.55,1.27c9.36.35,15.35-13.72,13.37-31.43a61.4,61.4,0,0,0-2.55-12C413.16,161.91,407.15,178.32,401.64,193.3Z"/><path class="cls-2" d="M401.67,193.23a9.83,9.83,0,0,0,4.52,1.34c9.36.35,17.48-13.64,18.14-31.26.32-8.51-1.17-16.31-3.84-22.14C418.19,148.13,409.44,172.09,401.67,193.23Z"/><path class="cls-2" d="M543.85,489c27,4.85,50.46,15.85,52.33,24.57s-18.51,11.85-45.54,7S500.18,504.69,498.31,496,516.82,484.12,543.85,489Z"/><path class="cls-2" d="M391.85,248.4l-.64-16.89a12.68,12.68,0,0,0-1.59-5.63L388.47,229l-2.19,19.41Z"/><path class="cls-2" d="M422.55,234.75h0a13.33,13.33,0,0,0-8.3,13.65h13.39v35L512.32,496.2a13.31,13.31,0,0,0,17.24,7.42h0A13.31,13.31,0,0,0,537,486.38L439.79,242.17A13.31,13.31,0,0,0,422.55,234.75Z"/><path class="cls-2" d="M427.64,263a31.78,31.78,0,0,0,8.62-24.95c-1.5-19.42-18.25-35.78-37.55-36.8C393,216.72,388.47,229,388.47,229l-2.19,19.41h41.36Z"/><path class="cls-2" d="M426.63,161.48h0a19.41,19.41,0,0,0-12.92-1.18C404.09,186.84,388.48,229,388.47,229a19.47,19.47,0,0,0,5.41,3.71h0a19.63,19.63,0,0,0,26-9.61l16.39-35.65A19.63,19.63,0,0,0,426.63,161.48Z"/><path class="cls-2" d="M398.36,234.13a19.66,19.66,0,0,0,21.49-11l16.39-35.65a19.53,19.53,0,0,0,.16-15.93,19.66,19.66,0,0,0-21.49,11L398.52,218.2A19.53,19.53,0,0,0,398.36,234.13Z"/><path class="cls-2" d="M398.63,201.47a105.43,105.43,0,0,0,17.2-9.91c17.89-12.53,29-27.48,24.9-33.4-3.21-4.57-14.63-2.39-27.93,4.63C408.49,174.66,403.19,189.11,398.63,201.47Z"/><path class="cls-2" d="M401,195a122.84,122.84,0,0,0,11.57-5.52c20.52-11.1,34.18-25.59,30.51-32.37-2.73-5.06-14.32-4.4-28.55.86C410.67,168.71,405.63,182.47,401,195Z"/><path class="cls-2" d="M432.41,139.21l3-1.32s10.18,8.83,8,22.8c-.92,6-19,13.66-37.16,19.89,3.54-9.66,7-19.09,9.64-26.51C424.62,150.41,432,145.48,432.41,139.21Z"/><path class="cls-2" d="M413.27,161.51q1.32-.66,2.67-1.38c13.55-7.34,22.59-16.91,20.16-21.4-1.54-2.84-7.32-2.95-14.8-.78-.13.63-.21,1.06-.23,1.28C421,140.05,417.7,149.27,413.27,161.51Z"/><path class="cls-2" d="M414.07,159.28c.37-.18.73-.38,1.1-.57,11.18-6.05,18.63-14,16.63-17.65-1.18-2.18-5.4-2.41-11-1C420.08,142.53,417.49,149.84,414.07,159.28Z"/><path class="cls-2" d="M414.07,159.28c.37-.18.73-.38,1.1-.57,11.18-6.05,18.63-14,16.63-17.65a3.23,3.23,0,0,0-1.87-1.45A36.71,36.71,0,0,0,420.2,142C419.05,145.46,416.82,151.68,414.07,159.28Z"/><path class="cls-2" d="M441.88,95.17,430,94.72c-3.71,21.47-8.68,42.43-8.91,44.51-.06.53-1.46,4.61-3.65,10.75l1,0a12.58,12.58,0,0,0,12-9.2Z"/><path class="cls-2" d="M438.61,95,430,94.72c-1.68,9.7-3.61,19.3-5.25,27.1a31.68,31.68,0,0,0,13.83-24.43C438.61,96.6,438.62,95.82,438.61,95Z"/><path class="cls-2" d="M427.64,262.66a43.33,43.33,0,0,0,8.64-57.78,43.88,43.88,0,0,1,.83,10.24,43.27,43.27,0,0,1-17.63,33.28h8.16Z"/><path class="cls-2" d="M502.28,416.52c18.73,6.87,34.16,18.59,34.45,26.18s-14.66,8.18-33.4,1.31-34.17-18.59-34.46-26.18S483.54,409.65,502.28,416.52Z"/><path class="cls-2" d="M501.72,405.81c20.46,9.31,36.8,23.79,36.48,32.34s-17.17,7.94-37.64-1.37S463.75,413,464.07,404.43,481.25,396.5,501.72,405.81Z"/><path class="cls-2" d="M510.91,410.48c15.95,9,27.56,20.45,27.29,27.67-.32,8.56-17.17,7.94-37.64-1.37-3.48-1.58-6.84-3.32-10-5.14v-.06l-.15,0c-.94-.54-1.87-1.1-2.78-1.65a5.33,5.33,0,0,1,4.18-8.85,5.25,5.25,0,0,1,2.24.59C497.6,416.47,503.63,412.47,510.91,410.48Z"/><path class="cls-2" d="M500.28,402.89c17.31,6.34,31.53,16.33,31.76,22.32s-13.62,5.69-30.93-.66-31.54-16.34-31.76-22.32S483,396.54,500.28,402.89Z"/><path class="cls-2" d="M548,485.5c-16.38-2.61-29.82-.63-30,4.44s12.94,11.28,29.32,13.89,29.81.63,30-4.43S564.4,488.11,548,485.5Z"/><path class="cls-2" d="M516.84,493.5a3.59,3.59,0,0,0-.82,2.14c-.23,6.17,15.76,13.75,35.71,16.93,19.34,3.09,35.3.91,36.48-4.84-1.18,5.69-17.11,6.86-36.39,2.56C534.41,506.4,520,499.34,516.84,493.5Z"/><path class="cls-2" d="M507.74,487.49c-3.23.86-5.17,2.23-5.24,4.05s2.1,4.15,5.78,6.17c-1.77-2-2.73-4.12-2.66-6.09A5.66,5.66,0,0,1,507.74,487.49Z"/><path class="cls-2" d="M536.51,486.34c-8.19-1.31-14.91-.31-15,2.22s6.47,5.64,14.66,6.95,14.9.31,15-2.22S544.7,487.65,536.51,486.34Z"/><path class="cls-2" d="M442,131.92c-9.37-.35-17.49,13.65-18.15,31.26s6.4,32.17,15.76,32.52,17.49-13.64,18.14-31.26S451.32,132.27,442,131.92Z"/><path class="cls-2" d="M452.74,130.68c-9.36-.35-20,13.54-23.81,31s.72,32,10.08,32.31,20-13.55,23.82-31S462.11,131,452.74,130.68Z"/><path class="cls-2" d="M452.92,139.48c-7.11-.26-15.21,10.29-18.09,23.58s.55,24.27,7.66,24.54S457.7,177.31,460.58,164,460,139.75,452.92,139.48Z"/><path class="cls-2" d="M435.17,234.68c7.74-2.18,18.15,7.78,23.25,22.24s3,27.95-4.79,30.12-18.15-7.79-23.25-22.25a46.59,46.59,0,0,1-2.74-13.62v-2.76C427.93,241.28,430.55,236,435.17,234.68Z"/><path class="cls-2" d="M435.76,234.75c4.07-3,12.42.55,18.64,7.93s8,15.81,3.87,18.81-12.42-.55-18.64-7.94S431.68,237.75,435.76,234.75Z"/><path class="cls-2" d="M439.38,239.64c3-2.2,9.13.41,13.7,5.83s5.84,11.62,2.84,13.82-9.13-.4-13.7-5.83S436.38,241.85,439.38,239.64Z"/><path class="cls-2" d="M437.39,259.18c3.15-.88,7.37,3.16,9.45,9s1.2,11.35-1.95,12.24-7.38-3.17-9.45-9S434.24,260.06,437.39,259.18Z"/><path class="cls-2" d="M427.64,298.81a17.27,17.27,0,1,0,30-16.94A16.8,16.8,0,0,1,458,286a17.27,17.27,0,0,1-30.32,10.65Z"/><path class="cls-2" d="M439.41,327.66a17.28,17.28,0,1,0,31.28-13.07,17.28,17.28,0,0,1-31.28,13.07Z"/><path class="cls-2" d="M458.36,277.25c-6.08,2.27-5.69,18.34.87,35.88S476,343.05,482.1,340.78s5.69-18.33-.87-35.87S464.44,275,458.36,277.25Z"/><path class="cls-2" d="M467,279.87c-5.75,1.79-6.25,16.7-1.1,33.32s14,28.64,19.75,26.85,6.24-16.69,1.1-33.31S472.79,278.09,467,279.87Z"/><path class="cls-2" d="M473.88,293.57c-3.73-.95-7.35-.39-9.65,1.23a31.3,31.3,0,0,1,17.55,4.45C480.54,296.73,477.62,294.51,473.88,293.57Z"/><path class="cls-2" d="M475.78,295.79c-1.36,3.62-3.88,6.27-6.52,7.22a29,29,0,0,0,4.43-8,29.3,29.3,0,0,0,1.93-8.95C477,288.52,477.14,292.18,475.78,295.79Z"/><path class="cls-2" d="M481.63,317.17c-3.74-.95-7.36-.39-9.65,1.23a31.36,31.36,0,0,1,17.55,4.45C488.29,320.33,485.37,318.11,481.63,317.17Z"/><path class="cls-2" d="M483.53,319.39c-1.36,3.61-3.88,6.27-6.53,7.22a29,29,0,0,0,4.44-8,29.3,29.3,0,0,0,1.93-8.95C484.73,312.12,484.88,315.78,483.53,319.39Z"/><path class="cls-2" d="M386.14,80.47c7.8-13.72,25.59-20.77,40.13-15.77a24.65,24.65,0,0,1,10.88,7.24,36.18,36.18,0,0,0-4.57.9c-1.64-15.55-22.73.85-26.44,1.37C404.64,74.43,396.76,76.87,386.14,80.47Z"/><path class="cls-2" d="M458.05,15.53a30,30,0,1,0,28.27,31.69A30,30,0,0,0,458.05,15.53Z"/><path class="cls-2" d="M466.1,12a30,30,0,1,0,28.26,31.68A30,30,0,0,0,466.1,12Z"/><path class="cls-2" d="M463.32,5a30,30,0,0,0-4.07,59.9,30,30,0,0,1,12-58.18l.64,0A29.71,29.71,0,0,0,463.32,5Z"/><path class="cls-2" d="M438.28,41.57a21.44,21.44,0,0,0-14.07,4.21l2.62,5.29-10.35,5.5a21.66,21.66,0,0,0-1,5.32,21.35,21.35,0,0,0,.82,7.26c8.37-4,18.24-6.57,16.05,10-.21,1.6-.44,3.23-.68,4.87a22.11,22.11,0,0,0,4.13.63,21.58,21.58,0,1,0,2.45-43.09Z"/><path class="cls-2" d="M376.33,77.84a29.66,29.66,0,0,0,1.22,5.58c14.78-5.16,26.71-8.94,28.59-9.21,4.12-.57,29.63-20.71,26.24,5-.55,4.11-1.2,8.38-1.91,12.65a30,30,0,0,0-4.6-40.23C421.11,54.12,399.2,65.77,376.33,77.84Z"/><path class="cls-2" d="M379.34,76.25C391.52,69.82,403.21,63.62,412,59a31.55,31.55,0,0,1,16.64,7.54c-6.72-2.32-19.63,7.3-22.46,7.69-1.92.27-14.26,4.2-29.42,9.5a31,31,0,0,1,2.62-7.46Zm60.08,16a31.62,31.62,0,0,0-7.52-22.38c.8,2,1,5,.48,9.3-1.63,12.34-4.24,26.09-6.54,37.33A31.66,31.66,0,0,0,439.42,92.24Z"/><path class="cls-2" d="M425.84,116.49c2.3-11.25,4.91-25,6.54-37.33.56-4.27.32-7.26-.48-9.3a31.73,31.73,0,0,1-6.06,46.63ZM416.2,59.84A31.45,31.45,0,0,0,406,62.11l-5.69,3a31.77,31.77,0,0,0-11.72,14.29l.09.18c9.3-3.12,16-5.19,17.42-5.39,2.83-.39,15.74-10,22.46-7.69A31.57,31.57,0,0,0,416.2,59.84Z"/><path class="cls-2" d="M432.12,43.85a27.83,27.83,0,0,0-8.48.78l3.19,6.44L407,61.61a28,28,0,0,0-.34,10.74c.09.55.18,1.09.29,1.63,5.88-2.31,28.66-19.15,25.44,5.18-.94,7.07-2.19,14.6-3.53,21.87a34.49,34.49,0,0,0,12.54,3.25c16.62,1,28-11.81,25.47-28.5S448.74,44.8,432.12,43.85Z"/><path class="cls-2" d="M436,50c-9.23-.53-15.68,6.61-14.41,15.94,0,.34.1.68.17,1,6.62-2.06,12.4-.87,10.67,12.2l-.28,2a19,19,0,0,0,8.44,2.61c9.22.53,15.68-6.61,14.41-15.94S445.18,50.53,436,50Z"/><path class="cls-2" d="M448.81,77.09c-2-.11-3.37,1.82-3.13,4.31s2,4.6,4,4.72,3.37-1.82,3.13-4.31S450.78,77.2,448.81,77.09Z"/><path class="cls-2" d="M441,68.25c-1.41-.08-2.42,1.31-2.24,3.1s1.46,3.31,2.87,3.39,2.42-1.3,2.25-3.1S442.42,68.34,441,68.25Z"/><path class="cls-2" d="M444.27,86.41c-5.58-.32-11.4,3.17-14.27,8.18-.5,2.9-1,5.79-1.55,8.63.89,3.86,4.13,6.65,8.74,6.91,6.64.38,13.61-4.62,15.57-11.17S450.92,86.79,444.27,86.41Z"/><path class="cls-2" d="M443,90.77a10.23,10.23,0,0,0-9.84,7.07c-1.24,4.14,1.16,7.69,5.36,7.93a10.25,10.25,0,0,0,9.85-7.07C449.58,94.56,447.17,91,443,90.77Z"/><path class="cls-2" d="M435.76,97a5.41,5.41,0,0,0-2,2.76A3.12,3.12,0,0,0,436.6,104a5.49,5.49,0,0,0,5.09-3.29,5.14,5.14,0,0,1-3.24,1,3.12,3.12,0,0,1-2.87-4.25A4.84,4.84,0,0,1,435.76,97Z"/><path class="cls-2" d="M479.71,22.89c-8.51-.48-15.92,8-16.54,18.87S469,61.89,477.46,62.38s15.92-8,16.54-18.86S488.22,23.38,479.71,22.89Z"/><path class="cls-2" d="M480.73,29.78c-4.2,1.73-7.4,6.62-7.74,12.55-.43,7.63,4,14.1,10,14.44a9.15,9.15,0,0,0,6-1.92,8.78,8.78,0,0,1-3.84.67c-6-.34-10.44-6.81-10-14.44A15.15,15.15,0,0,1,480.73,29.78Z"/><path class="cls-2" d="M485.35,33c-3,1.23-5.24,4.69-5.48,8.89-.31,5.42,2.86,10,7.09,10.24a6.47,6.47,0,0,0,4.27-1.35,6.28,6.28,0,0,1-2.72.47c-4.22-.25-7.4-4.83-7.09-10.24A10.75,10.75,0,0,1,485.35,33Z"/><path class="cls-2" d="M468.91,18.19c-7,2.9-12.37,11.07-12.93,21-.73,12.76,6.75,23.56,16.71,24.13a15.32,15.32,0,0,0,10.08-3.19,14.57,14.57,0,0,1-6.41,1.1c-10-.57-17.45-11.37-16.72-24.13C460.1,29,463.76,22,468.91,18.19Z"/><path class="cls-2" d="M507.07,233.74h0A11.29,11.29,0,0,0,509.24,218L460,153a11.29,11.29,0,0,0-15.77-2.18h0a11.28,11.28,0,0,0-2.17,15.77l49.22,65A11.29,11.29,0,0,0,507.07,233.74Z"/><path class="cls-2" d="M442.19,152.87a11.28,11.28,0,0,0-.11,13.74l49.22,65A11.31,11.31,0,0,0,501.53,236a11.3,11.3,0,0,0,.11-13.75l-49.22-64.95A11.25,11.25,0,0,0,442.19,152.87Z"/><path class="cls-2" d="M503.87,186.25c-9.4,1.38-14.95,16.61-12.4,34s12.25,30.41,21.65,29,15-16.62,12.4-34S513.27,184.87,503.87,186.25Z"/><path class="cls-2" d="M507.76,175.89c-8.89,1.31-14.13,15.71-11.72,32.16s11.58,28.74,20.47,27.44,14.13-15.71,11.71-32.16S516.64,174.59,507.76,175.89Z"/><path class="cls-2" d="M515,170.6c-8,1.17-12.7,14.11-10.52,28.89s10.4,25.82,18.38,24.64,12.69-14.1,10.52-28.88S523,169.43,515,170.6Z"/><path class="cls-2" d="M519.87,167.25c-6.55,1-10.42,11.59-8.64,23.72s8.54,21.2,15.1,20.24,10.42-11.58,8.64-23.72S526.42,166.29,519.87,167.25Z"/><path class="cls-2" d="M456.49,121.6c-10.71-.4-22.92,15.5-27.26,35.52-2.81,13-1.63,24.49,2.46,31.1-2.2-6.73-2.46-16-.25-26.23,4.34-20,16.55-35.93,27.26-35.53,3.77.14,6.85,2.29,9.08,5.88C465.66,125.88,461.74,121.8,456.49,121.6Z"/><path class="cls-2" d="M509.53,69.11h0a7.08,7.08,0,0,0-7.62,6.45l-8.14,98a7.09,7.09,0,0,0,6.45,7.62h0a7.08,7.08,0,0,0,7.61-6.45l8.14-98A7.08,7.08,0,0,0,509.53,69.11Z"/><path class="cls-2" d="M518.92,194.11c-4.09,7.83-10.6,24.21-14,53.41-5.05,43.83-1.44,175.39-32.18,263.86-15.71-92.33,9.57-221.49,11.82-265.55,1.5-29.35-2.22-46.59-5-55l19.64,1.63Z"/><path class="cls-2" d="M472.77,511.38c-15.71-92.33,9.57-221.49,11.82-265.55,1.5-29.35-2.22-46.59-5-55l19.64,1.63Z"/><path class="cls-2" d="M501,171.69a20.85,20.85,0,1,0,19.06,22.51A20.84,20.84,0,0,0,501,171.69Z"/><path class="cls-2" d="M500.21,181.22a11.29,11.29,0,1,0,10.32,12.18A11.28,11.28,0,0,0,500.21,181.22Z"/><path class="cls-2" d="M499.83,186.85c-4.16-.3-7.79,2-8.1,5.08s2.83,5.86,7,6.16,7.79-2,8.09-5.08S504,187.15,499.83,186.85Z"/><path class="cls-2" d="M519.45,64.32l-6.46-5a4.61,4.61,0,0,0-5.11-.43l-7.2,3.9a4.61,4.61,0,0,0-2.43,4.64l1,8.79a4.65,4.65,0,0,0,4.27,4.15l10.26.86a4.66,4.66,0,0,0,4.9-3.4l2.41-8.51A4.59,4.59,0,0,0,519.45,64.32Z"/><path class="cls-2" d="M514.43,184.07c3.83,2,11.83,5.18,26.1,6.82,3.71.43,8.71.73,14.67,1l-.86,10.36c-5.93-.7-10.91-1.23-14.64-1.42-14.34-.73-22.76,1.08-26.86,2.42l.79-9.59Z"/><path class="cls-2" d="M554.34,202.26c-5.93-.7-10.91-1.23-14.64-1.42-14.34-.73-22.76,1.08-26.86,2.42l.79-9.59,41.14,3.41Z"/><path class="cls-2" d="M558.27,189.13a8.22,8.22,0,1,0,7.51,8.87A8.2,8.2,0,0,0,558.27,189.13Z"/><path class="cls-2" d="M485.72,181.68c-4.11,1.34-12.53,3.15-26.87,2.42-3.73-.18-8.72-.71-14.64-1.42L443.35,193c6,.28,11,.58,14.68,1,14.26,1.65,22.26,4.83,26.09,6.83l.8-9.6Z"/><path class="cls-2" d="M443.35,193c6,.28,11,.58,14.68,1,14.26,1.65,22.26,4.83,26.09,6.83l.8-9.6-41.14-3.42Z"/><path class="cls-2" d="M441.65,179.44a8.22,8.22,0,1,1-8.88,7.51A8.21,8.21,0,0,1,441.65,179.44Z"/><path class="cls-2" d="M500.14,92.42a5.49,5.49,0,0,0-3,4.14c-.29,3.55,3.91,6.79,9.39,7.25,4.57.38,8.58-1.31,10-3.93a12.93,12.93,0,0,1-7.47,1.47c-5.48-.46-9.68-3.7-9.39-7.25A4.36,4.36,0,0,1,500.14,92.42Z"/><path class="cls-2" d="M515.22,83.59a5.46,5.46,0,0,1,2.26,4.56c-.3,3.55-5,6.06-10.46,5.6-4.57-.38-8.25-2.7-9.17-5.51A12.92,12.92,0,0,0,505,90.92c5.48.45,10.16-2,10.46-5.6A4.41,4.41,0,0,0,515.22,83.59Z"/><path class="cls-2" d="M498.26,115a5.47,5.47,0,0,0-3,4.14c-.29,3.54,3.91,6.79,9.39,7.24,4.57.38,8.58-1.3,10-3.92a13,13,0,0,1-7.47,1.47c-5.48-.46-9.68-3.71-9.39-7.25A4.36,4.36,0,0,1,498.26,115Z"/><path class="cls-2" d="M513.34,106.2a5.5,5.5,0,0,1,2.26,4.57c-.3,3.55-5,6.06-10.46,5.6-4.57-.38-8.25-2.7-9.17-5.51a12.92,12.92,0,0,0,7.12,2.68c5.48.45,10.16-2.06,10.46-5.6A4.46,4.46,0,0,0,513.34,106.2Z"/><path class="cls-2" d="M496.38,137.66a5.48,5.48,0,0,0-3,4.13c-.29,3.55,3.91,6.8,9.39,7.25,4.57.38,8.58-1.3,10-3.92a12.93,12.93,0,0,1-7.47,1.47c-5.48-.46-9.68-3.7-9.39-7.25A4.3,4.3,0,0,1,496.38,137.66Z"/><path class="cls-2" d="M511.46,128.82a5.5,5.5,0,0,1,2.26,4.57c-.3,3.55-5,6.06-10.46,5.6-4.57-.38-8.25-2.7-9.17-5.51a12.92,12.92,0,0,0,7.12,2.68c5.48.45,10.16-2.06,10.46-5.6A4.44,4.44,0,0,0,511.46,128.82Z"/><path class="cls-2" d="M494.5,160.28a5.44,5.44,0,0,0-3,4.13c-.3,3.55,3.9,6.8,9.38,7.25,4.57.38,8.58-1.3,10-3.92a13,13,0,0,1-7.47,1.47c-5.48-.46-9.68-3.71-9.39-7.25A4.36,4.36,0,0,1,494.5,160.28Z"/><path class="cls-2" d="M509.58,151.44a5.5,5.5,0,0,1,2.26,4.57c-.3,3.55-5,6.06-10.46,5.6-4.57-.38-8.25-2.7-9.17-5.52a12.93,12.93,0,0,0,7.13,2.69c5.47.45,10.16-2.06,10.45-5.6A4.46,4.46,0,0,0,509.58,151.44Z"/><path class="cls-2" d="M500.94,188.26c-1.92-.13-3.59.92-3.74,2.35s1.31,2.7,3.23,2.84,3.59-.91,3.74-2.34S502.86,188.4,500.94,188.26Z"/><path class="cls-2" d="M497.84,193.68a1.63,1.63,0,0,0-1.87,1.17c-.07.72.65,1.36,1.61,1.42a1.62,1.62,0,0,0,1.87-1.17C499.52,194.38,498.8,193.75,497.84,193.68Z"/><path class="cls-2" d="M507.09,138.08c-6.9.8-11.3,11.82-9.82,24.61s8.27,22.51,15.18,21.71,11.3-11.81,9.83-24.61S514,137.28,507.09,138.08Z"/><path class="cls-2" d="M479.87,140.67c1.56,3.43,7.4,4.11,13.05,1.52s9-7.45,7.4-10.87-7.39-4.11-13-1.52S478.32,137.25,479.87,140.67Z"/><path class="cls-2" d="M491.5,128.88c-2,3.17.58,8.44,5.82,11.78s11.12,3.48,13.15.31-.57-8.44-5.81-11.78S493.54,125.72,491.5,128.88Z"/><path class="cls-2" d="M477.63,155.93c1.56,3.42,7.4,4.1,13.05,1.52s9-7.46,7.4-10.88-7.4-4.1-13-1.52S476.08,152.5,477.63,155.93Z"/><path class="cls-2" d="M489.26,144.13c-2,3.17.58,8.44,5.81,11.78s11.13,3.48,13.16.31-.57-8.44-5.81-11.78S491.29,141,489.26,144.13Z"/><path class="cls-2" d="M479.71,166.65c1.55,3.42,7.39,4.1,13,1.52s9-7.45,7.4-10.88-7.39-4.1-13-1.52S478.15,163.23,479.71,166.65Z"/><path class="cls-2" d="M491.34,154.86c-2,3.17.57,8.44,5.81,11.78s11.12,3.47,13.15.3-.57-8.43-5.81-11.77S493.36,151.69,491.34,154.86Z"/><path class="cls-2" d="M484.8,181.25c1.59,2.51,7.43,3.06,13.05,1.24s8.88-5.33,7.29-7.83-7.43-3.07-13.05-1.24S483.21,178.75,484.8,181.25Z"/><path class="cls-2" d="M496.31,172.8c-2,2.28.65,6.14,5.92,8.62s11.16,2.64,13.15.36-.65-6.15-5.92-8.63S498.3,170.51,496.31,172.8Z"/><path class="cls-2" d="M513.56,133.07c-7.91.92-13,13.54-11.26,28.2s9.48,25.8,17.4,24.88,13-13.54,11.26-28.19S521.48,132.16,513.56,133.07Z"/><path class="cls-2" d="M520.05,137.07c-5.95.69-9.74,10.19-8.47,21.21s7.14,19.41,13.09,18.73,9.75-10.19,8.48-21.22S526,136.38,520.05,137.07Z"/><path class="cls-2" d="M509.79,166.58c3.07,10.55,9.41,17.72,15.83,17,7.91-.91,13-13.53,11.26-28.19a44.56,44.56,0,0,0-3.8-13.79,47.49,47.49,0,0,1,1.58,7.89c1.7,14.66-3.34,27.28-11.26,28.2C518.27,178.26,513.19,173.79,509.79,166.58Z"/><path class="cls-2" d="M398.24,73.74A29.43,29.43,0,0,1,397,76.87c-10.31,3.3-27.6,9.24-43.92,15.44-.71-.36-1.4-.75-2.08-1.16,17.21-9,37.79-19.9,53.16-28.05A32.11,32.11,0,0,0,398.24,73.74Z"/><path class="cls-2" d="M375.13,79.85a4.7,4.7,0,0,1,1.2-2l-1.17.62a10.56,10.56,0,0,0,0,1.39Zm2.7-2.8a4.07,4.07,0,0,1,2.5.33A10.44,10.44,0,0,1,384.47,81l.89-.3a14.14,14.14,0,0,0-3.81-5.65Z"/><path class="cls-2" d="M423.21,199a8,8,0,0,1,6.58-.21,18.31,18.31,0,0,0-5.85,1.62,17.51,17.51,0,0,0-5,3.31A7.17,7.17,0,0,1,423.21,199Z"/><path class="cls-2" d="M422.24,203.59a5.64,5.64,0,0,0,5.64,1.33,11.36,11.36,0,0,1-4.38-2.7,11.65,11.65,0,0,1-2.86-4.36A6,6,0,0,0,422.24,203.59Z"/><path class="cls-2" d="M417.18,212.75a8,8,0,0,1,6.57-.21,18.45,18.45,0,0,0-5.84,1.62,17.42,17.42,0,0,0-5,3.31A7.16,7.16,0,0,1,417.18,212.75Z"/><path class="cls-2" d="M416.2,217.35a5.6,5.6,0,0,0,5.64,1.33,11.24,11.24,0,0,1-4.38-2.7,11.82,11.82,0,0,1-2.86-4.35A6,6,0,0,0,416.2,217.35Z"/><path class="cls-2" d="M486.29,511.85c.8-.33,3.44.77,5.89,2.47s3.79,3.33,3,3.66-3.43-.78-5.88-2.47S485.49,512.18,486.29,511.85Z"/><path class="cls-2" d="M431.24,53.74a42,42,0,0,0-5-3.94l.63,1.27a36.9,36.9,0,0,1,4.41,2.67Z"/><path class="cls-2" d="M446.13,54.15a39.45,39.45,0,0,0-22.52-9.57l1.44,2.9a40.63,40.63,0,0,1,21.08,6.67Z"/><path class="cls-3" d="M397.21,523.94c-216.53-8.09-392.62.3-393.31,18.75s174.29,39.95,390.81,48S787.33,590.43,788,572,613.74,532,397.21,523.94Z"/><path class="cls-6" d="M631.17,432.16c-3.76-.15-12.26,18.95-19,42.65s-9.13,43-5.37,43.15,12.26-19,19-42.65S634.93,432.29,631.17,432.16Z"/><path class="cls-6" d="M642.1,464.37c-2.12-.8-11.44,10.27-20.81,24.73S606,515.93,608.16,516.73,619.6,506.45,629,492,644.22,465.17,642.1,464.37Z"/><path class="cls-6" d="M636.68,495c-2.7-.44-11.56,4.58-19.79,11.21s-12.69,12.35-10,12.79,11.56-4.58,19.79-11.21S639.38,495.41,636.68,495Z"/><path class="cls-7" d="M389.74,218.28h0a9.74,9.74,0,0,0-12.62,5.44l-22.9,57.69A9.74,9.74,0,0,0,359.66,294h0a9.75,9.75,0,0,0,12.62-5.45l22.91-57.68A9.75,9.75,0,0,0,389.74,218.28Z"/><path class="cls-8" d="M357.3,274c-6.44,1.45-10.15,9.38-8.27,17.71s8.61,13.91,15.06,12.46,10.14-9.38,8.27-17.71S363.74,272.52,357.3,274Z"/><path class="cls-7" d="M360.5,283.29c-6.26,1.61-8.94,10.4-6,19.65s10.41,15.43,16.67,13.82,8.93-10.4,6-19.64S366.76,281.68,360.5,283.29Z"/><path class="cls-6" d="M592,485.8c3.42-.27,10.35,6.33,15.48,14.73s6.49,15.44,3.07,15.71-10.36-6.32-15.48-14.73S588.53,486.07,592,485.8Z"/><ellipse class="cls-9" cx="439.99" cy="550.28" rx="29.45" ry="350.49" transform="translate(-137.25 954.24) rotate(-86.34)"/><path class="cls-8" d="M422.86,81.38C427,91.66,435.52,101,445.74,105.1c14.89,6,27.65-1.28,28.51-16.26a36,36,0,0,0-4.95-19.35,33.7,33.7,0,0,1,2.52,14.27C471,98.74,458.2,106,443.31,100,434.81,96.58,427.45,89.56,422.86,81.38Z"/><path class="cls-6" d="M441.86,500.18c-146.36-10.57-265.5-6-266.11,10.3s117.55,38,263.91,48.57,265.5,6,266.11-10.29S588.22,510.75,441.86,500.18Z"/><path class="cls-10" d="M461.81,480.19C331.33,464.53,225.06,465,224.46,481.27s104.67,42.13,235.15,57.79S696.36,554.24,697,538,592.29,495.85,461.81,480.19Z"/><path class="cls-6" d="M449.71,479c-67.41-2.51-122.26,1-122.52,7.91s54.18,14.52,121.59,17,122.26-1,122.51-7.91S517.11,481.49,449.71,479Z"/><path class="cls-11" d="M369.59,292.05c-2.7.55-3.41,7-1.57,14.48s5.52,13,8.22,12.48,3.41-7,1.57-14.48S372.29,291.49,369.59,292.05Z"/><path class="cls-8" d="M456.76,63.66A30,30,0,1,0,480.5,9a30,30,0,0,1-17,55.83A31.05,31.05,0,0,1,456.76,63.66Z"/><path class="cls-7" d="M384.8,149.5h0a9.74,9.74,0,0,0-9.56,9.88l1.15,70.36a9.76,9.76,0,0,0,9.88,9.56h0a9.76,9.76,0,0,0,9.56-9.88l-1.16-70.36A9.74,9.74,0,0,0,384.8,149.5Z"/><path class="cls-12" d="M395.68,130.31c-9.36-.35-15.35,13.72-13.37,31.43s11.16,32.35,20.52,32.7,15.35-13.72,13.38-31.43S405,130.66,395.68,130.31Z"/><path class="cls-13" d="M405.22,130.66c-9.36-.35-17.49,13.65-18.14,31.26s6.39,32.17,15.75,32.52S420.32,180.8,421,163.19,414.58,131,405.22,130.66Z"/><path class="cls-10" d="M374.73,464.52c-31.79,2.33-59,11.13-60.84,19.66s22.49,13.55,54.28,11.22,59-11.13,60.83-19.66S406.51,462.19,374.73,464.52Z"/><path class="cls-10" d="M540.49,488.85c27,4.86,50.46,15.86,52.34,24.57s-18.52,11.85-45.55,7S496.82,504.56,495,495.85,513.46,484,540.49,488.85Z"/><path class="cls-10" d="M375.39,219h0a10.1,10.1,0,0,0-10.56,11.73L394,469.14a14.62,14.62,0,0,0,13.51,12.47h0A10.1,10.1,0,0,0,418,469.88L388.91,231.44A14.62,14.62,0,0,0,375.39,219Z"/><path class="cls-10" d="M419.19,234.63h0a13.3,13.3,0,0,0-7.42,17.23L509,496.07a13.31,13.31,0,0,0,17.24,7.42h0a13.3,13.3,0,0,0,7.42-17.23L436.43,242.05A13.31,13.31,0,0,0,419.19,234.63Z"/><path class="cls-14" d="M395.32,199.71c-19.53-.73-34.13,14.58-32.61,34.19s18.58,36.11,38.11,36.84,34.13-14.58,32.61-34.19S414.85,200.44,395.32,199.71Z"/><path class="cls-15" d="M423.27,161.35h0a19.64,19.64,0,0,0-26,9.61l-16.39,35.65a19.63,19.63,0,0,0,9.61,26h0a19.63,19.63,0,0,0,26-9.6l16.39-35.65A19.63,19.63,0,0,0,423.27,161.35Z"/><path class="cls-6" d="M395,234a19.66,19.66,0,0,0,21.49-11l16.39-35.66a19.49,19.49,0,0,0,.16-15.93,19.64,19.64,0,0,0-21.48,11.05l-16.4,35.64A19.6,19.6,0,0,0,395,234Z"/><path class="cls-6" d="M404.48,153.45c-17.18,2.29-31.42,12.66-31.81,23.15s13.21,17.15,30.39,14.86,31.42-12.67,31.82-23.16S421.66,151.15,404.48,153.45Z"/><path class="cls-16" d="M403.8,143.77c-13.56,7.33-22.59,16.91-20.17,21.4S399,167.34,412.58,160s22.59-16.91,20.16-21.39S417.36,136.44,403.8,143.77Z"/><path class="cls-11" d="M404.57,145.19c-11.19,6.05-18.63,13.95-16.64,17.65s12.69,1.79,23.88-4.26,18.63-14,16.63-17.65S415.75,139.14,404.57,145.19Z"/><path class="cls-17" d="M394.13,164.67c4.58-.37,11-2.5,17.68-6.09,11.18-6.05,18.63-14,16.63-17.64a3.24,3.24,0,0,0-1.87-1.46c-4.57.37-11,2.5-17.68,6.09-11.18,6-18.63,14-16.63,17.64A3.24,3.24,0,0,0,394.13,164.67Z"/><path class="cls-17" d="M438.52,95l-19.25-.72-13.83,55.21,9.63.36c5.29.2,10.7-3.94,12-9.19Z"/><path class="cls-11" d="M435.25,94.92l-16-.6-8,31.92a31.76,31.76,0,0,0,23.94-29C435.25,96.48,435.27,95.69,435.25,94.92Z"/><path class="cls-6" d="M354.48,237.53a43.33,43.33,0,1,0,78.44-32.78,43.33,43.33,0,0,1-78.44,32.78Z"/><path class="cls-10" d="M391.15,405.62c-16,6.25-28.26,16.91-27.47,23.8s14.39,7.41,30.36,1.16,28.26-16.91,27.46-23.8S407.12,399.37,391.15,405.62Z"/><path class="cls-18" d="M391.37,396c-18,7.05-31.85,19.06-30.95,26.82s16.21,8.35,34.2,1.31,31.85-19.06,30.95-26.82S409.36,389,391.37,396Z"/><path class="cls-6" d="M394,424.35l.61-.23c18-7.05,31.85-19.06,30.95-26.82-.86-7.39-14.76-8.28-31.6-2.28a23.65,23.65,0,0,0-3.57,14.06,28.44,28.44,0,0,0,.62,4.65,4.92,4.92,0,0,0-3.28,5,6.06,6.06,0,0,0,5.73,5.66Z"/><path class="cls-10" d="M391.05,393.24c-14.75,5.78-26.2,14.86-25.57,20.3s13.09,5.15,27.85-.63,26.19-14.86,25.57-20.3S405.8,387.46,391.05,393.24Z"/><path class="cls-10" d="M499.9,417.28c18.23,6.68,33.23,18.08,33.52,25.46s-14.27,7.95-32.5,1.27-33.23-18.08-33.51-25.46S481.67,410.6,499.9,417.28Z"/><path class="cls-6" d="M499.36,406.86c19.91,9.06,35.8,23.14,35.49,31.46S518.14,446,498.23,437s-35.8-23.14-35.49-31.46S479.45,397.8,499.36,406.86Z"/><path class="cls-12" d="M508.3,411.4c15.51,8.75,26.81,19.89,26.55,26.92-.31,8.32-16.71,7.72-36.62-1.34-3.38-1.54-6.65-3.22-9.75-5v-.05l-.15,0c-.92-.53-1.82-1.07-2.7-1.61a5.17,5.17,0,0,1,4.06-8.6,5.11,5.11,0,0,1,2.18.57C495.36,417.22,501.22,413.33,508.3,411.4Z"/><path class="cls-10" d="M498,404c16.84,6.18,30.67,15.9,30.89,21.72s-13.24,5.53-30.08-.64-30.68-15.89-30.9-21.71S481.12,397.84,498,404Z"/><path class="cls-6" d="M544.66,485.37c-16.38-2.61-29.81-.62-30,4.44s12.94,11.28,29.32,13.9,29.81.62,30-4.44S561,488,544.66,485.37Z"/><path class="cls-6" d="M513.49,493.37a3.6,3.6,0,0,0-.83,2.14c-.23,6.17,15.76,13.75,35.72,16.94,19.33,3.08,35.29.91,36.48-4.84-1.19,5.68-17.11,6.86-36.4,2.55C531.06,506.28,516.67,499.21,513.49,493.37Z"/><path class="cls-6" d="M504.39,487.37c-3.24.85-5.18,2.23-5.25,4-.07,2,2.1,4.15,5.79,6.17-1.77-2-2.74-4.12-2.67-6.08A5.65,5.65,0,0,1,504.39,487.37Z"/><path class="cls-6" d="M366.27,457.51c14.73-1.26,27.11,1.45,27.65,6s-11,9.35-25.73,10.6-27.12-1.45-27.65-6S351.53,458.76,366.27,457.51Z"/><path class="cls-6" d="M395.24,466.86a3.82,3.82,0,0,1,.9,2c.65,5.61-13.38,11.39-31.34,12.92-17.39,1.48-32.09-1.56-33.58-6.85,1.48,5.23,16.08,7.37,33.34,4.78C380.15,477.35,392.75,471.93,395.24,466.86Z"/><path class="cls-6" d="M413.45,459.67c5.44,1.8,8.81,4.29,9.15,7.26.38,3.24-2.92,6.53-8.73,9.39,2.66-3.12,4-6.4,3.6-9.63A11,11,0,0,0,413.45,459.67Z"/><path class="cls-18" d="M533.16,486.21c-8.19-1.3-14.91-.31-15,2.22s6.47,5.65,14.66,6.95,14.91.31,15-2.22S541.34,487.52,533.16,486.21Z"/><path class="cls-18" d="M356.46,459c-7.3.92-12.49,3.48-11.6,5.71s7.53,3.29,14.83,2.37,12.48-3.47,11.59-5.7S363.75,458.11,356.46,459Z"/><path class="cls-6" d="M438.6,131.79c-9.36-.34-17.48,13.65-18.14,31.26s6.4,32.17,15.76,32.52,17.48-13.64,18.14-31.25S448,132.14,438.6,131.79Z"/><path class="cls-12" d="M449.39,130.55c-9.36-.35-20,13.55-23.82,31s.72,32,10.08,32.32,20-13.55,23.82-31S458.75,130.9,449.39,130.55Z"/><path class="cls-10" d="M449.57,139.36c-7.11-.27-15.21,10.29-18.09,23.57s.54,24.28,7.65,24.55,15.21-10.3,18.09-23.58S456.68,139.62,449.57,139.36Z"/><path class="cls-6" d="M431.81,234.55c7.75-2.17,18.16,7.79,23.26,22.25s2.95,27.94-4.79,30.11-18.16-7.78-23.26-22.24S424.07,236.72,431.81,234.55Z"/><path class="cls-13" d="M432.4,234.62c4.08-3,12.43.56,18.64,7.94s8,15.8,3.88,18.8-12.43-.55-18.65-7.93S428.32,237.63,432.4,234.62Z"/><path class="cls-10" d="M436,239.52c3-2.21,9.13.4,13.7,5.83s5.84,11.61,2.84,13.82-9.13-.41-13.69-5.83S433,241.72,436,239.52Z"/><path class="cls-19" d="M434,259.05c3.15-.88,7.38,3.16,9.45,9s1.2,11.35-2,12.23-7.37-3.16-9.44-9S430.89,259.93,434,259.05Z"/><path class="cls-6" d="M423,294.82a17.28,17.28,0,1,0,31.28-13.07,17.72,17.72,0,0,1,.33,4.08,17.28,17.28,0,0,1-31.61,9Z"/><path class="cls-6" d="M436.06,327.53a17.27,17.27,0,1,0,31.27-13.06,17.72,17.72,0,0,1,.33,4.08,17.27,17.27,0,0,1-31.6,9Z"/><path class="cls-10" d="M455,277.13c-6.07,2.27-5.68,18.33.87,35.87s16.8,29.93,22.87,27.66,5.69-18.34-.86-35.88S461.08,274.86,455,277.13Z"/><path class="cls-6" d="M463.68,279.75c-5.76,1.78-6.25,16.7-1.1,33.31s14,28.64,19.74,26.86,6.25-16.7,1.1-33.31S469.43,278,463.68,279.75Z"/><path class="cls-10" d="M470.53,293.44c-3.74-.95-7.36-.38-9.65,1.24a31.14,31.14,0,0,1,17.55,4.45C477.18,296.61,474.27,294.39,470.53,293.44Z"/><path class="cls-10" d="M472.42,295.67c-1.35,3.61-3.88,6.26-6.52,7.22a31.18,31.18,0,0,0,6.36-16.95C473.62,288.4,473.78,292.06,472.42,295.67Z"/><path class="cls-10" d="M478.28,317c-3.74-1-7.36-.39-9.66,1.24a31.19,31.19,0,0,1,17.55,4.44C484.93,320.21,482,318,478.28,317Z"/><path class="cls-10" d="M480.17,319.27c-1.35,3.61-3.88,6.26-6.52,7.22A31.39,31.39,0,0,0,480,309.54C481.37,312,481.53,315.65,480.17,319.27Z"/><path class="cls-8" d="M407.39,89.56c-7.6,14.14-25.73,21.49-40.49,16.42A24.75,24.75,0,0,1,356,98.73c10.78-1.38,21.13-7.92,26.41-17.74,7.6-14.14,25.72-21.49,40.48-16.42a24.73,24.73,0,0,1,10.89,7.25C423,73.2,412.66,79.74,407.39,89.56Z"/><path class="cls-20" d="M454.7,15.41A30,30,0,1,0,483,47.1,30,30,0,0,0,454.7,15.41Z"/><path class="cls-8" d="M462.74,11.84A30,30,0,1,0,491,43.53,30,30,0,0,0,462.74,11.84Z"/><path class="cls-8" d="M460,4.9a30,30,0,0,0-4.07,59.91,30,30,0,0,1,12-58.18l.65,0A30.11,30.11,0,0,0,460,4.9Z"/><path class="cls-21" d="M437,41.06a21.58,21.58,0,1,0,20.31,22.77A21.59,21.59,0,0,0,437,41.06Z"/><path class="cls-8" d="M404.49,44.11A30,30,0,1,0,432.76,75.8,30,30,0,0,0,404.49,44.11Z"/><path class="cls-7" d="M406.19,58.62a31.74,31.74,0,1,0,29.87,33.49A31.73,31.73,0,0,0,406.19,58.62Z"/><path class="cls-17" d="M406.15,122a31.73,31.73,0,0,0,6.69-62.27,31.75,31.75,0,0,0-27.57,19.57,15.67,15.67,0,0,1,1,2.66c1.59,5.52.65,12.5-2.08,18.62A31.78,31.78,0,0,0,406.15,122Z"/><path class="cls-8" d="M428.76,43.73c-16.62-.95-28,11.81-25.46,28.5s18.11,31,34.73,31.92,28-11.81,25.47-28.49S445.39,44.68,428.76,43.73Z"/><path class="cls-21" d="M432.6,49.88c-9.23-.52-15.68,6.61-14.42,15.94s9.77,17.32,19,17.85,15.68-6.61,14.42-15.94S441.82,50.41,432.6,49.88Z"/><path class="cls-22" d="M445.46,77c-2-.11-3.37,1.82-3.13,4.31s2,4.61,4,4.72,3.37-1.82,3.13-4.31S447.43,77.08,445.46,77Z"/><path class="cls-22" d="M437.65,68.13c-1.42-.08-2.42,1.3-2.25,3.1s1.46,3.3,2.87,3.39,2.43-1.31,2.25-3.1S439.06,68.21,437.65,68.13Z"/><path class="cls-17" d="M440.92,86.28c-6.64-.38-13.61,4.63-15.57,11.18s1.84,12.17,8.48,12.55,13.61-4.63,15.57-11.18S447.56,86.66,440.92,86.28Z"/><path class="cls-11" d="M439.62,90.64a10.26,10.26,0,0,0-9.85,7.07c-1.24,4.14,1.16,7.7,5.37,7.94A10.25,10.25,0,0,0,445,98.58C446.22,94.43,443.82,90.88,439.62,90.64Z"/><path class="cls-23" d="M432.4,96.83a5.35,5.35,0,0,0-2,2.76,3.11,3.11,0,0,0,2.87,4.24,5.51,5.51,0,0,0,5.09-3.29,5.13,5.13,0,0,1-3.25,1,3.11,3.11,0,0,1-2.87-4.24A4.09,4.09,0,0,1,432.4,96.83Z"/><path class="cls-8" d="M476.36,22.77c-8.52-.49-15.92,8-16.54,18.86s5.77,20.14,14.28,20.62,15.92-8,16.54-18.86S484.87,23.25,476.36,22.77Z"/><path class="cls-21" d="M477.37,29.66c-4.2,1.73-7.4,6.62-7.74,12.54-.43,7.64,4.05,14.1,10,14.44a9.17,9.17,0,0,0,6-1.91,8.68,8.68,0,0,1-3.84.66c-6-.34-10.44-6.8-10-14.44A15.15,15.15,0,0,1,477.37,29.66Z"/><path class="cls-21" d="M482,32.87c-3,1.23-5.25,4.7-5.49,8.9-.31,5.41,2.87,10,7.09,10.24a6.54,6.54,0,0,0,4.28-1.36,6.3,6.3,0,0,1-2.72.47c-4.23-.24-7.4-4.82-7.1-10.24A10.76,10.76,0,0,1,482,32.87Z"/><path class="cls-21" d="M465.56,18.07c-7,2.89-12.37,11.06-12.94,21-.73,12.75,6.76,23.56,16.72,24.13A15.38,15.38,0,0,0,479.42,60a14.61,14.61,0,0,1-6.42,1.1c-10-.56-17.45-11.37-16.72-24.13C456.74,28.85,460.4,21.91,465.56,18.07Z"/><path class="cls-17" d="M503.71,233.62h0a11.3,11.3,0,0,0,2.18-15.78l-49.23-65a11.29,11.29,0,0,0-15.77-2.17h0a11.29,11.29,0,0,0-2.17,15.77l49.22,64.95A11.29,11.29,0,0,0,503.71,233.62Z"/><path class="cls-11" d="M438.83,152.75a11.31,11.31,0,0,0-.11,13.74l49.22,64.95a11.27,11.27,0,0,0,10.23,4.38,11.3,11.3,0,0,0,.12-13.74l-49.22-65A11.3,11.3,0,0,0,438.83,152.75Z"/><path class="cls-6" d="M500.51,186.12c-9.4,1.39-14.95,16.62-12.39,34s12.25,30.4,21.65,29,15-16.61,12.39-34S509.91,184.74,500.51,186.12Z"/><path class="cls-10" d="M504.4,175.77c-8.88,1.3-14.13,15.7-11.71,32.16s11.58,28.74,20.46,27.43,14.13-15.7,11.72-32.16S513.29,174.47,504.4,175.77Z"/><path class="cls-12" d="M511.68,170.48c-8,1.17-12.69,14.1-10.52,28.88s10.4,25.82,18.38,24.65,12.7-14.11,10.53-28.89S519.66,169.3,511.68,170.48Z"/><path class="cls-12" d="M516.52,167.13c-6.56,1-10.43,11.58-8.65,23.72s8.55,21.2,15.1,20.24,10.42-11.59,8.64-23.73S523.07,166.17,516.52,167.13Z"/><path class="cls-12" d="M453.13,121.47c-10.71-.4-22.91,15.51-27.25,35.53-2.82,13-1.64,24.48,2.45,31.09-2.2-6.72-2.46-16-.24-26.23,4.34-20,16.54-35.92,27.25-35.52,3.77.14,6.86,2.28,9.08,5.88C462.3,125.75,458.38,121.67,453.13,121.47Z"/><path class="cls-10" d="M506.17,69h0a7.09,7.09,0,0,0-7.62,6.45l-8.14,98a7.08,7.08,0,0,0,6.45,7.62h0a7.09,7.09,0,0,0,7.62-6.45l8.14-98A7.08,7.08,0,0,0,506.17,69Z"/><path class="cls-24" d="M515.56,194c-4.09,7.83-10.6,24.22-14,53.42-5,43.83-1.43,175.38-32.17,263.86C453.7,418.92,479,289.77,481.23,245.7c1.5-29.35-2.21-46.58-5-55l19.65,1.64Z"/><path class="cls-25" d="M469.42,511.26C453.7,418.92,479,289.76,481.23,245.7c1.5-29.35-2.21-46.58-5-55l19.65,1.64Z"/><path class="cls-10" d="M497.65,171.56a20.86,20.86,0,1,0,19.05,22.51A20.87,20.87,0,0,0,497.65,171.56Z"/><path class="cls-26" d="M496.85,181.1a11.29,11.29,0,1,0,10.32,12.18A11.28,11.28,0,0,0,496.85,181.1Z"/><path class="cls-27" d="M496.47,186.73c-4.16-.3-7.78,2-8.09,5.08s2.82,5.86,7,6.16,7.79-2,8.1-5.09S500.64,187,496.47,186.73Z"/><path class="cls-10" d="M516.09,64.19l-6.46-5a4.59,4.59,0,0,0-5.11-.42l-7.2,3.89a4.62,4.62,0,0,0-2.43,4.64l1,8.79a4.66,4.66,0,0,0,4.27,4.16l10.26.85a4.65,4.65,0,0,0,4.9-3.39l2.42-8.51A4.61,4.61,0,0,0,516.09,64.19Z"/><path class="cls-10" d="M511.07,183.94c3.83,2,11.84,5.18,26.1,6.83,3.71.42,8.72.72,14.67,1L551,202.14c-5.92-.71-10.9-1.24-14.64-1.43-14.34-.73-22.75,1.09-26.86,2.43l.8-9.6Z"/><path class="cls-10" d="M551,202.14c-5.92-.71-10.9-1.24-14.64-1.43-14.34-.73-22.75,1.09-26.86,2.43l.8-9.6L551.41,197Z"/><path class="cls-10" d="M554.91,189a8.22,8.22,0,1,0,7.51,8.87A8.22,8.22,0,0,0,554.91,189Z"/><path class="cls-10" d="M482.36,181.55c-4.11,1.35-12.53,3.16-26.86,2.43-3.74-.19-8.72-.72-14.64-1.42L440,192.91c6,.29,11,.59,14.68,1,14.26,1.64,22.27,4.82,26.09,6.82l.8-9.6Z"/><path class="cls-10" d="M440,192.91c6,.29,11,.59,14.68,1,14.26,1.64,22.27,4.82,26.09,6.82l.8-9.6-41.14-3.42Z"/><path class="cls-10" d="M438.29,179.31a8.22,8.22,0,1,1-8.87,7.51A8.22,8.22,0,0,1,438.29,179.31Z"/><path class="cls-12" d="M496.78,92.3a5.47,5.47,0,0,0-3,4.13c-.3,3.55,3.91,6.8,9.39,7.25,4.56.38,8.58-1.3,10-3.93a12.88,12.88,0,0,1-7.48,1.47c-5.48-.45-9.68-3.7-9.38-7.25A4.42,4.42,0,0,1,496.78,92.3Z"/><path class="cls-12" d="M511.86,83.46A5.47,5.47,0,0,1,514.12,88c-.29,3.55-5,6-10.45,5.6-4.57-.38-8.25-2.7-9.18-5.52a12.88,12.88,0,0,0,7.13,2.68c5.48.46,10.16-2.05,10.45-5.6A4.23,4.23,0,0,0,511.86,83.46Z"/><path class="cls-12" d="M494.9,114.92a5.47,5.47,0,0,0-3,4.13c-.3,3.55,3.91,6.79,9.39,7.25,4.56.38,8.58-1.3,10-3.93a12.88,12.88,0,0,1-7.48,1.47c-5.48-.45-9.68-3.7-9.38-7.25A4.42,4.42,0,0,1,494.9,114.92Z"/><path class="cls-12" d="M510,106.08a5.47,5.47,0,0,1,2.26,4.57c-.3,3.55-5,6-10.46,5.6-4.56-.38-8.24-2.7-9.17-5.52a12.88,12.88,0,0,0,7.13,2.68c5.48.46,10.16-2,10.45-5.6A4.41,4.41,0,0,0,510,106.08Z"/><path class="cls-12" d="M493,137.54a5.45,5.45,0,0,0-3,4.13c-.3,3.55,3.91,6.79,9.39,7.25,4.56.38,8.58-1.3,10-3.93a12.88,12.88,0,0,1-7.48,1.47c-5.48-.46-9.68-3.7-9.38-7.25A4.42,4.42,0,0,1,493,137.54Z"/><path class="cls-12" d="M508.1,128.7a5.47,5.47,0,0,1,2.26,4.57c-.29,3.54-5,6-10.45,5.6-4.57-.38-8.25-2.7-9.18-5.52a12.88,12.88,0,0,0,7.13,2.68c5.48.46,10.16-2.05,10.45-5.6A4.23,4.23,0,0,0,508.1,128.7Z"/><path class="cls-12" d="M491.14,160.16a5.45,5.45,0,0,0-3,4.13c-.3,3.55,3.91,6.79,9.39,7.25,4.56.38,8.58-1.3,10-3.93a12.88,12.88,0,0,1-7.48,1.47c-5.48-.46-9.68-3.7-9.38-7.25A4.42,4.42,0,0,1,491.14,160.16Z"/><path class="cls-12" d="M506.22,151.32a5.47,5.47,0,0,1,2.26,4.56c-.29,3.55-5,6.06-10.45,5.61-4.57-.38-8.25-2.7-9.18-5.52a12.88,12.88,0,0,0,7.13,2.68c5.48.46,10.16-2.05,10.45-5.6A4.23,4.23,0,0,0,506.22,151.32Z"/><path class="cls-2" d="M497.59,188.14c-1.93-.14-3.6.91-3.74,2.34s1.3,2.71,3.22,2.85,3.6-.92,3.74-2.35S499.51,188.28,497.59,188.14Z"/><path class="cls-27" d="M494.48,193.55a1.64,1.64,0,0,0-1.87,1.18c-.07.71.66,1.35,1.62,1.42A1.64,1.64,0,0,0,496.1,195C496.17,194.26,495.44,193.62,494.48,193.55Z"/><path class="cls-11" d="M503.74,138c-6.91.8-11.31,11.81-9.83,24.6s8.28,22.51,15.18,21.71,11.31-11.81,9.83-24.6S510.64,137.16,503.74,138Z"/><path class="cls-6" d="M506.44,166.45c3.07,10.55,9.4,17.73,15.82,17,7.91-.92,13-13.54,11.26-28.2a44.64,44.64,0,0,0-3.79-13.79,47.82,47.82,0,0,1,1.58,7.9C533,164,528,176.63,520.05,177.54,514.92,178.14,509.84,173.66,506.44,166.45Z"/><path class="cls-8" d="M394.89,73.61a32.17,32.17,0,0,1-53.74,12.2,32.15,32.15,0,0,0,25.21-21.63A32.17,32.17,0,0,1,420.1,52,32.15,32.15,0,0,0,394.89,73.61Z"/><path class="cls-28" d="M373.52,91.07c-.62,2.88.77,5.2,3.28,5.29s5.22-2.07,6.29-4.93a7.27,7.27,0,0,1-5.69,2.89A3.9,3.9,0,0,1,373.52,91.07Z"/><path class="cls-21" d="M371.77,79.72c-.14-4.44,2-7,4.91-5.72s5.7,5.87,6.37,10.54c-1.31-3.35-3.62-6.24-6.08-7.29S372.56,77.27,371.77,79.72Z"/><path class="cls-4" d="M636.33,430.26c-3.76-.14-12.27,18.95-19,42.65s-9.13,43-5.37,43.16,12.26-19,19-42.66S640.08,430.4,636.33,430.26Z"/><path class="cls-4" d="M647.26,462.47c-2.13-.8-11.45,10.27-20.82,24.73S611.19,514,613.31,514.83s11.44-10.28,20.82-24.74S649.38,463.27,647.26,462.47Z"/><path class="cls-4" d="M641.83,493.07c-2.7-.44-11.56,4.58-19.78,11.21s-12.7,12.35-10,12.79,11.56-4.58,19.78-11.21S644.54,493.51,641.83,493.07Z"/><path class="cls-4" d="M597.11,483.9c3.43-.27,10.36,6.33,15.48,14.73s6.5,15.44,3.07,15.71S605.3,508,600.18,499.61,593.68,484.18,597.11,483.9Z"/><path class="cls-6" d="M410.09,463.24c-3.47.62-2.89,20.22,1.3,43.79s10.4,42.18,13.87,41.56,2.88-20.22-1.31-43.79S413.56,462.62,410.09,463.24Z"/><path class="cls-6" d="M434,491.28c-2.27-.32-5.91,11.92-8.13,27.35s-2.18,28.2.09,28.53,5.91-11.92,8.13-27.35S436.25,491.61,434,491.28Z"/><path class="cls-6" d="M442.35,521.07c-2.64.13-8.49,6.6-13.07,14.45s-6.14,14.12-3.5,14,8.49-6.6,13.07-14.46S445,520.94,442.35,521.07Z"/><path class="cls-6" d="M392.38,516.87c3.52-1.1,14.29,4.56,24.06,12.64s14.83,15.53,11.31,16.63-14.29-4.55-24.06-12.64S388.86,518,392.38,516.87Z"/><path class="cls-6" d="M346.8,510c3.52-1.1,14.29,4.56,24.05,12.64s14.83,15.54,11.31,16.64-14.29-4.56-24.05-12.64S343.28,511.1,346.8,510Z"/><path class="cls-6" d="M324.5,501.89c1.32-.41,5.33,1.7,9,4.71s5.53,5.79,4.22,6.2-5.33-1.69-9-4.71S323.19,502.3,324.5,501.89Z"/><path class="cls-6" d="M311.78,505.45c2.16-.67,8.78,2.8,14.78,7.77s9.11,9.54,6.95,10.22-8.78-2.8-14.78-7.77S309.62,506.13,311.78,505.45Z"/><path class="cls-6" d="M446.89,526.25c2.16-.67,8.78,2.8,14.78,7.77s9.11,9.54,6.95,10.22-8.78-2.8-14.78-7.77S444.73,526.93,446.89,526.25Z"/><path class="cls-6" d="M446.93,507.31c4-1.27,16.38,5.22,27.57,14.48s17,17.8,13,19.06-16.38-5.22-27.57-14.48S442.9,508.57,446.93,507.31Z"/><path class="cls-6" d="M505.16,515.36c2.15-.67,8.73,2.78,14.69,7.72s9.06,9.49,6.91,10.16-8.73-2.78-14.69-7.72S503,516,505.16,515.36Z"/><path class="cls-6" d="M533.34,524.68c1.49.24,4.39,4.28,6.49,9s2.58,8.4,1.09,8.16-4.4-4.29-6.49-9S531.85,524.43,533.34,524.68Z"/><path class="cls-6" d="M538.16,527.32c1.4-.57,6,1.35,10.26,4.3s6.59,5.81,5.2,6.38-6-1.35-10.26-4.3S536.77,527.9,538.16,527.32Z"/><path class="cls-6" d="M496.86,519c1.4-.57,6,1.35,10.26,4.3s6.59,5.81,5.2,6.38-6-1.35-10.26-4.3S495.47,519.54,496.86,519Z"/><path class="cls-6" d="M482.94,511.72c.8-.33,3.43.78,5.88,2.47s3.79,3.33,3,3.66-3.44-.77-5.89-2.47S482.13,512.05,482.94,511.72Z"/><path class="cls-6" d="M315.17,489.6c-3.92-1.56-16.71,4-28.56,12.39s-18.27,16.48-14.35,18,16.72-4,28.57-12.39S319.1,491.16,315.17,489.6Z"/><path class="cls-6" d="M296.51,491.61c-2.28-.91-9.68,2.3-16.54,7.17s-10.58,9.54-8.31,10.44,9.68-2.31,16.54-7.17S298.78,492.51,296.51,491.61Z"/><path class="cls-6" d="M286.22,473.92c-1.88-.75-8,1.89-13.61,5.9s-8.71,7.85-6.84,8.59,8-1.9,13.61-5.9S288.09,474.66,286.22,473.92Z"/><path class="cls-6" d="M263,473.94c-1.63-.65-6.94,1.66-11.87,5.15s-7.59,6.84-6,7.49,6.95-1.65,11.87-5.14S264.67,474.59,263,473.94Z"/><path class="cls-6" d="M228.6,420.2c-3.76-.14-10.32,20.35-14.65,45.77s-4.78,46.13-1,46.27,10.31-20.35,14.64-45.76S232.36,420.34,228.6,420.2Z"/><path class="cls-6" d="M242.71,454.7c-2.19-.85-10.37,11-18.25,26.57S212,510.06,214.15,510.91s10.37-11,18.26-26.56S244.91,455.55,242.71,454.7Z"/><path class="cls-6" d="M240.38,487.51c-2.74-.46-11.06,4.95-18.59,12.07s-11.41,13.28-8.67,13.74,11.06-4.94,18.59-12.06S243.12,488,240.38,487.51Z"/><path class="cls-6" d="M194.91,477.81c3.38-.3,11,6.75,16.9,15.75s8,16.53,4.63,16.83-10.95-6.75-16.9-15.75S191.52,478.11,194.91,477.81Z"/><path class="cls-8" d="M426,49.67c-.07-.1-22.2-35.52-52.49,1.24-27.76,33.67-48.12,4.33-48.18,4.24h0c.07.09,20.1,37.38,50.34.71C403.4,22.26,426,49.58,426,49.67Z"/><path class="cls-21" d="M443.29,54c-.06-.07-22.55-21.76-52.09,0-27.07,19.92-47.7,1.91-47.76,1.86h0c.06.06,20.5,22.85,50,1.16,27-19.88,49.81-3.06,49.87-3Z"/><path class="cls-6" d="M609.15,522.46c.57.46,1.14.92,1.7,1.39,11.19,9.26,17,17.79,13,19.06s-16.37-5.22-27.56-14.49c-2-1.61-3.73-3.2-5.33-4.74,10.71,8.51,22,14.29,25.83,13.09C620.08,535.72,616.71,529.73,609.15,522.46Z"/><path class="cls-6" d="M642.53,527.07l1,.34c6.28,2.37,10.09,5.23,8.52,6.39s-7.93.17-14.22-2.19c-1.09-.41-2.11-.84-3-1.27,6,2.11,11.77,2.93,13.26,1.83C649.3,531.22,646.93,529.11,642.53,527.07Z"/><path class="cls-10" d="M636,520.38c1.51-4,14.25-9.6,28.46-12.64s24.5-2.28,23,1.66S673.2,519,659,522,634.49,524.33,636,520.38Z"/><path class="cls-10" d="M659.37,518.9c1.35-1.81,8.75-2.87,16.52-2.35s13,2.39,11.61,4.21-8.75,2.87-16.52,2.36S658,520.72,659.37,518.9Z"/><path class="cls-2" d="M245.79,454.11c-2.15-.84-10.09,10.64-17.85,25.77,1-4.41,1.88-9.11,2.71-14,4.32-25.42,4.78-46.14,1-46.28-2.58-.1-6.49,9.57-10.09,23.89,3-10.32,6-16.87,8.18-16.79,3.76.14,3.3,20.86-1,46.27-.83,4.89-1.75,9.59-2.71,14,7.76-15.14,15.7-26.61,17.85-25.78.51.2.65,1.05.48,2.42C246.27,458.15,246.9,454.54,245.79,454.11Z"/><path class="cls-2" d="M312.92,331.79a3.74,3.74,0,0,0-3.29,2.21,1.55,1.55,0,0,0,1.37,2.37,3.72,3.72,0,0,0,3.28-2.2A1.56,1.56,0,0,0,312.92,331.79Z"/><path class="cls-2" d="M788.13,106.65a3.73,3.73,0,0,0-3.28,2.2,1.56,1.56,0,0,0,1.36,2.38,3.75,3.75,0,0,0,3.29-2.2A1.56,1.56,0,0,0,788.13,106.65Z"/><path class="cls-2" d="M715.76,461.61a6,6,0,0,0-5.32,3.57c-.86,2.05.12,3.78,2.2,3.86a6.06,6.06,0,0,0,5.33-3.58C718.83,463.41,717.84,461.69,715.76,461.61Z"/><path class="cls-19" d="M411.55,247.6a4.67,4.67,0,0,1,6.17,2.36l5.81,13a4.66,4.66,0,0,1,.09,3.57,4.6,4.6,0,0,1-2.45,2.59l-5.61,2.51a4.72,4.72,0,0,1-6.17-2.36l-5.81-13a4.63,4.63,0,0,1-.09-3.56h0a4.67,4.67,0,0,1,2.45-2.59l5.61-2.5Zm-4.24,6.55h0a.58.58,0,0,0,0,.43l5.81,13a.62.62,0,0,0,.32.3.61.61,0,0,0,.44,0l5.61-2.51a.57.57,0,0,0,.29-.75l-5.82-13a.61.61,0,0,0-.32-.31.54.54,0,0,0-.43,0l-5.61,2.5A.54.54,0,0,0,407.31,254.15Z"/><path class="cls-11" d="M408.53,149.81c-.28.32-.56.67-.82,1-1.68,2.31-1.95,4.23-.6,4.28s3.8-1.79,5.48-4.1a11.4,11.4,0,0,0,.68-1c-1.59,1.81-3.53,3.12-4.67,3.08S407.48,151.63,408.53,149.81Z"/><path class="cls-2" d="M392.5,149.67c-7.37,4.25-11.42,8.59-9.66,11,2.47,3.41,15.4,1.78,28.89-3.63a74.77,74.77,0,0,0,13.28-6.8,80.9,80.9,0,0,1-10.31,5c-13.5,5.42-26.43,7.05-28.89,3.64C384.3,156.78,387.05,153.3,392.5,149.67Z"/><path class="cls-21" d="M419.1,83.51c-1.91-5.5-7.73-11.06-13.49-12.74s-9.4,1.13-8.53,6.33c1.16-2.8,4.72-3.92,9.52-2.52A25.1,25.1,0,0,1,419.1,83.51Z"/><path class="cls-29" d="M405.82,95.26c-4.14,1.22-7.05,3.69-6.51,5.53s4.33,2.33,8.47,1.11,7.05-3.69,6.51-5.53S410,94,405.82,95.26Z"/><path class="cls-28" d="M422.89,85.94l-7.12,1.36A13.82,13.82,0,0,1,407.48,93c-3.23.63-5.68-.54-6.55-2.78-.46,3.88,2.09,6.35,6,5.59a12.13,12.13,0,0,0,7.12-5h0Z"/><path class="cls-6" d="M379.17,164.93c-5.1,4.06-8.31,9-8.49,13.94-.39,10.5,12.92,17.14,29.74,14.83,9.22-1.27,17.58-5,23.32-9.77l0-.56a48.73,48.73,0,0,1-20.14,7.4c-16.82,2.31-30.13-4.33-29.74-14.83C374,172.13,376,168.33,379.17,164.93Z"/><path class="cls-6" d="M405.39,169.07c-10.92-.41-20,4.39-20.21,10.72s8.43,11.8,19.36,12.21,20-4.4,20.21-10.73S416.32,169.48,405.39,169.07Z"/><path class="cls-2" d="M732.31,495.93c12.83.48,21,12.23,21.09,28.15,6.21-3.45,12.78-4.71,18.32-3,7.91,2.45,11.63,10.36,10.45,19.9a14.87,14.87,0,0,1,10.19-1,9.63,9.63,0,0,1,3.25,1.72,51.7,51.7,0,0,0-2.58,7.1,9.47,9.47,0,0,0-4.59-3.05,14.82,14.82,0,0,0-10.19,1c1.18-9.55-2.53-17.45-10.45-19.9-5.54-1.72-12.11-.45-18.32,3-.09-15.91-8.25-27.67-21.09-28.15-9.88-.37-20.24,6-28,16.11,7.94-13.34,20.26-22.32,31.92-21.88ZM864.68,549a13.64,13.64,0,0,0-8.1.24c7.47-18.08,3.13-35.05-10.93-39.4-13.36-4.14-31.14,4.47-42.82,19.76,11.27-18.82,31.77-30.17,46.74-25.53,14.06,4.35,18.4,21.32,10.92,39.39a13.73,13.73,0,0,1,8.1-.24c7.55,2.34,9.34,12.15,4,21.91a30.17,30.17,0,0,1-3.63,5.22C874,560.77,872.08,551.28,864.68,549Z"/><circle class="cls-30" cx="488.78" cy="279.52" r="7.48"/><circle class="cls-30" cx="476.5" cy="198.43" r="7.48"/><path class="cls-2" d="M518.54,192.87a4.16,4.16,0,0,0-4.3,4,4.16,4.16,0,0,0-4-4.31,4.14,4.14,0,0,0,4.3-4A4.15,4.15,0,0,0,518.54,192.87Z"/><path class="cls-2" d="M509.75,19.64A12,12,0,0,0,498,29.25c1-5.52-2.59-10.15-8.08-10.36a12,12,0,0,0,11.78-9.61C500.65,14.8,504.26,19.43,509.75,19.64Z"/><path class="cls-2" d="M506,3.37a3.9,3.9,0,0,0-3.83,3.13,2.74,2.74,0,0,0-2.63-3.37A3.9,3.9,0,0,0,503.4,0,2.73,2.73,0,0,0,506,3.37Z"/><path class="cls-10" d="M697.29,583.11c-25.89-4.13-47.11-1-47.41,7s20.44,17.83,46.32,22,47.11,1,47.41-7S723.17,587.24,697.29,583.11Z"/><path class="cls-6" d="M703.2,580c-22.57-7.25-41.07-7.43-41.34-.42s17.82,18.58,40.39,25.83,41.06,7.43,41.33.41S725.76,587.28,703.2,580Z"/><path class="cls-18" d="M712.31,583.23C699.06,579,688.19,578.86,688,583s10.46,10.91,23.71,15.16,24.12,4.37,24.27.25S725.56,587.49,712.31,583.23Z"/><path class="cls-10" d="M801.9,577.05c-12.94-2.07-23.55-.5-23.7,3.5s10.22,8.92,23.16,11,23.55.5,23.7-3.5S814.84,579.11,801.9,577.05Z"/><path class="cls-6" d="M804.85,575.51c-11.28-3.63-20.53-3.72-20.66-.21s8.91,9.29,20.19,12.91,20.53,3.72,20.66.21S816.13,579.13,804.85,575.51Z"/><path class="cls-18" d="M809.41,577.11c-6.63-2.13-12.06-2.19-12.14-.12s5.24,5.45,11.86,7.58,12.06,2.18,12.14.12S816,579.24,809.41,577.11Z"/><path class="cls-10" d="M112.63,550.7C125.69,549.61,136.15,552,136,556s-10.85,8.13-23.91,9.22-23.53-1.27-23.38-5.27S99.57,551.8,112.63,550.7Z"/><path class="cls-6" d="M109.8,549c11.52-2.77,20.75-2.18,20.62,1.33s-9.58,8.6-21.1,11.37-20.75,2.18-20.62-1.33S98.28,551.72,109.8,549Z"/><path class="cls-18" d="M105.13,550.2c6.77-1.62,12.19-1.27,12.11.79s-5.62,5-12.38,6.67-12.19,1.28-12.12-.78S98.37,551.83,105.13,550.2Z"/><path class="cls-2" d="M381.7,400.82c-9.25,5.45-15.7,11.43-15.8,15.24-.15,5.28,12,4.36,27.13-2.06a97.69,97.69,0,0,0,16.55-8.94,101.1,101.1,0,0,1-11.87,6c-15.14,6.42-27.28,7.35-27.13,2.06C370.67,410,375,405.38,381.7,400.82Z"/><path class="cls-2" d="M353.29,459.86c-2.88.36-4.94,1.38-4.58,2.26s3,1.3,5.86.94,4.94-1.38,4.59-2.26S356.18,459.5,353.29,459.86Z"/><path class="cls-3" d="M809.36,333.05c-11.22-7.85-31.34,1-45,19.86s-15.56,40.44-4.34,48.29,31.34-1,44.95-19.86S820.57,340.9,809.36,333.05Z"/><path class="cls-3" d="M812.36,373.58c-4.83-3.38-13.5.45-19.37,8.56s-6.7,17.43-1.87,20.81,13.51-.45,19.37-8.56S817.19,377,812.36,373.58Z"/><path class="cls-3" d="M761.49,373.34c-4.83-3.39-13.5.45-19.37,8.55s-6.7,17.43-1.87,20.81,13.51-.45,19.37-8.55S766.33,376.72,761.49,373.34Z"/><path class="cls-3" d="M837.87,377.8c-4.19-2.93-11.7.39-16.78,7.42s-5.81,15.1-1.62,18,11.7-.39,16.78-7.42S842.05,380.74,837.87,377.8Z"/><path class="cls-3" d="M846,386.26c-2.86-2-8,.26-11.46,5.07s-4,10.31-1.11,12.31,8-.26,11.47-5.06S848.87,388.26,846,386.26Z"/><path class="cls-3" d="M741.78,363.31c-6.4-4.48-17.88.59-25.64,11.33s-8.87,23.07-2.48,27.54,17.88-.59,25.64-11.32S748.18,367.79,741.78,363.31Z"/><path class="cls-3" d="M712.62,379.8c-4-2.79-11.16.38-16,7.08s-5.54,14.4-1.55,17.2,11.16-.37,16-7.08S716.61,382.6,712.62,379.8Z"/><path class="cls-3" d="M862.1,407c-4.26,0-85.08-28.76-243.21-1.17Z"/><path class="cls-3" d="M683.74,383.78c-2.91-2-8.14.27-11.67,5.16s-4,10.51-1.13,12.55,8.14-.27,11.68-5.16S686.66,385.82,683.74,383.78Z"/><path class="cls-3" d="M673.6,391.2c-2-1.41-5.62.19-8.06,3.57s-2.79,7.25-.78,8.66,5.62-.18,8.07-3.56S675.62,392.61,673.6,391.2Z"/><path class="cls-2" d="M717,264.3a7.49,7.49,0,0,0-6.57,4.41c-1.06,2.54.16,4.66,2.73,4.76a7.48,7.48,0,0,0,6.57-4.41C720.82,266.53,719.6,264.4,717,264.3Z"/><path class="cls-2" d="M117.55,398.72a6.53,6.53,0,0,0-5.73,3.85c-.93,2.21.14,4.07,2.38,4.15a6.51,6.51,0,0,0,5.73-3.85C120.86,400.67,119.79,398.81,117.55,398.72Z"/><path class="cls-10" d="M258.61,351.49c-29.5,15.85-65.71,58-90.38,108.15-13.53,27.47-21.4,52.89-23.6,73.13l3.93.15c3-20.56,11.31-45.86,24.72-73.09C196.93,411.77,230.2,370.69,258.61,351.49Z"/><path class="cls-10" d="M225.12,295.12c-27,22.28-56.92,81-74.17,150.51-7.9,31.84-12.09,61.64-12.81,86.9l4.28.16c1.27-25.52,5.73-55.23,13.58-86.87C172.54,379.17,199.66,322,225.12,295.12Z"/><path class="cls-2" d="M277.34,432.87a1.85,1.85,0,0,0-1.64,1.1.78.78,0,0,0,.68,1.19,1.87,1.87,0,0,0,1.64-1.1C278.29,433.42,278,432.89,277.34,432.87Z"/><path class="cls-21" d="M441.36,58.72c0-.07-5.75-25.54-36.38-24.19-28.07,1.24-34.2-20.82-34.22-20.89h0c0,.07,3.81,25.36,34.38,24,28-1.24,36.2,21,36.22,21.07Z"/><path class="cls-2" d="M671.34,53.84a8.18,8.18,0,0,0-8.47,7.86A8.17,8.17,0,0,0,655,53.23a8.16,8.16,0,0,0,8.46-7.85A8.15,8.15,0,0,0,671.34,53.84Z"/><path class="cls-2" d="M822.8,465.63c-8.57-.33-17.07,6.4-19,15,1.94-8.63-3.44-15.88-12-16.2,8.56.32,17.07-6.41,19-15C808.86,458.05,814.23,465.3,822.8,465.63Z"/><path class="cls-2" d="M412.87,464.15c-1.75.31-1.45,10.18.65,22.06s5.24,21.25,7,20.93,1.46-10.18-.65-22.06S414.62,463.83,412.87,464.15Z"/><path class="cls-2" d="M374.59,501.49c-1.75.14-1.46,4.58.65,9.92s5.24,9.55,7,9.41,1.45-4.58-.66-9.92S376.34,501.35,374.59,501.49Z"/><path class="cls-2" d="M379.53,495.89c-1.74.14-1.45,4.58.66,9.92s5.24,9.55,7,9.41,1.45-4.58-.66-9.92S381.28,495.75,379.53,495.89Z"/><path class="cls-2" d="M346,490.55c-1.75.14-1.45,4.59.66,9.92s5.24,9.56,7,9.42,1.46-4.58-.65-9.92S347.7,490.41,346,490.55Z"/><path class="cls-2" d="M337.84,500.74c-.87.07-.72,2.29.33,5s2.62,4.78,3.5,4.71.72-2.29-.33-5S338.72,500.67,337.84,500.74Z"/><path class="cls-2" d="M439.32,508.45c-.88.07-.73,2.29.33,5s2.62,4.77,3.49,4.7.73-2.29-.33-5S440.19,508.38,439.32,508.45Z"/><path class="cls-2" d="M294.91,463.35c-1.75.14-1.45,4.58.66,9.92s5.23,9.55,7,9.41,1.46-4.58-.65-9.92S296.66,463.21,294.91,463.35Z"/><path class="cls-2" d="M301.94,467c-.8.31-.05,2.34,1.67,4.55s3.76,3.73,4.56,3.43.05-2.34-1.67-4.54S302.73,466.7,301.94,467Z"/><path class="cls-2" d="M308.32,483.37c-.68.51.61,2.26,2.87,3.89s4.66,2.54,5.34,2-.61-2.26-2.87-3.89S309,482.85,308.32,483.37Z"/><path class="cls-2" d="M260.27,491.31c-.68.52.61,2.26,2.88,3.89s4.66,2.54,5.33,2-.6-2.26-2.87-3.89S261,490.79,260.27,491.31Z"/><polygon class="cls-2" points="480.5 317.72 482.81 326.37 484.07 331.12 482.47 330.8 480.19 330.36 484.77 339.45 489.36 348.53 487.05 339.89 485.78 335.14 487.39 335.45 489.67 335.9 485.08 326.81 480.5 317.72"/><path class="cls-2" d="M451.16,58a10.52,10.52,0,0,0-10.34,8.43,7.38,7.38,0,0,0-7.08-9.08,10.53,10.53,0,0,0,10.34-8.43A7.38,7.38,0,0,0,451.16,58Z"/><path class="cls-31" d="M447.89,43.69a3.42,3.42,0,0,0-3.36,2.74,2.4,2.4,0,0,0-2.31-3,3.44,3.44,0,0,0,3.37-2.75A2.4,2.4,0,0,0,447.89,43.69Z"/><path class="cls-20" d="M536.2,253.68c-5.4-.2-11.59,3.95-13.83,9.28s.33,9.81,5.74,10,11.59-4,13.82-9.28S541.6,253.88,536.2,253.68Z"/><path class="cls-20" d="M567.5,243.6a7.87,7.87,0,0,0-6.92,4.64c-1.11,2.66.17,4.9,2.87,5a7.84,7.84,0,0,0,6.91-4.64C571.48,245.94,570.2,243.7,567.5,243.6Z"/><path class="cls-20" d="M584.53,310.45c-3.56-.13-7.64,2.6-9.11,6.11s.22,6.46,3.77,6.59,7.64-2.6,9.11-6.11S588.08,310.58,584.53,310.45Z"/><path class="cls-20" d="M224.84,375.23c-7.78-.29-16.7,5.69-19.93,13.37s.48,14.13,8.27,14.43,16.71-5.7,19.93-13.38S232.63,375.52,224.84,375.23Z"/><path class="cls-20" d="M213.66,359.93a5.65,5.65,0,0,0-5,3.33c-.81,1.91.12,3.52,2.06,3.6a5.64,5.64,0,0,0,5-3.34C216.53,361.61,215.6,360,213.66,359.93Z"/><path class="cls-20" d="M181.59,496.58c-7.79-.29-16.71,5.7-19.93,13.37s.47,14.14,8.26,14.43,16.71-5.7,19.93-13.38S189.37,496.87,181.59,496.58Z"/><path class="cls-20" d="M179.45,392.16c-4-.15-8.68,2.95-10.35,6.94s.25,7.33,4.29,7.48,8.67-2.95,10.34-6.94S183.49,392.31,179.45,392.16Z"/><path class="cls-20" d="M696.3,442.85c-7.79-.29-16.71,5.69-19.93,13.37s.47,14.14,8.26,14.43,16.71-5.7,19.93-13.38S704.08,443.14,696.3,442.85Z"/><path class="cls-20" d="M678.6,482.87c-4.33-.16-9.29,3.17-11.08,7.44s.27,7.86,4.6,8,9.29-3.17,11.08-7.44S682.93,483,678.6,482.87Z"/><path class="cls-20" d="M275.89,387c-7.64-.29-16.38,5.47-19.75,12.93,4.23-4.46,10.32-7.41,15.84-7.2,7.78.29,11.48,6.74,8.26,14.42l-.19.43a20.6,20.6,0,0,0,4.1-6.16C287.37,393.7,283.67,387.24,275.89,387Z"/><path class="cls-4" d="M275.38,502.38c-1-2.94-11.5,3.87-23.54,15.21a151.76,151.76,0,0,0-14,14.93c1-3,2.06-6.48,3.19-10.25,3.84-2.26,10.12-7.7,17-14.95,10.76-11.37,18.87-22.88,18.12-25.71S266,485.7,255.29,497.07c-3.95,4.16-7.53,8.34-10.46,12.12q1.6-5.69,3.31-11.92a116,116,0,0,0,13-14.2c9.37-11.72,16.57-23.47,16.07-26.23s-8.48,4.49-17.85,16.22c-2.69,3.37-5.21,6.75-7.42,9.91q1.08-4.11,2.16-8.36l1.53-6.05a103.58,103.58,0,0,0,9-10.07c7.39-9.25,13.07-18.52,12.69-20.7s-6.7,3.55-14.09,12.8c-1.67,2.09-3.26,4.19-4.71,6.2,1.2-5,2.32-9.7,3.35-14.21,1.64-1.66,3.59-3.87,5.67-6.46,5.4-6.77,9.56-13.54,9.27-15.14s-4.89,2.6-10.3,9.36c-.93,1.17-1.83,2.34-2.67,3.48,4.47-20.32,6.72-33.92,5.42-34.25s-5.82,12.69-11.61,32.67c-.19-1.41-.42-2.86-.68-4.33-1.51-8.53-3.56-14.41-4.57-13.15s-.61,9.21.9,17.73a82.22,82.22,0,0,0,1.89,8.38c-1.25,4.46-2.54,9.17-3.86,14.09-.31-2.46-.7-5.06-1.17-7.7-2.06-11.66-4.86-19.71-6.24-18s-.83,12.59,1.23,24.25a103.21,103.21,0,0,0,3.1,13.14l-1.56,6.05q-1.08,4.25-2.1,8.37c-.43-3.83-1-8-1.78-12.25-2.62-14.78-6.16-25-7.91-22.78s-1.06,15.95,1.56,30.72a116.15,116.15,0,0,0,4.63,18.7q-1.5,6.27-2.8,12c-.77-4.71-1.91-10.1-3.38-15.64-4-15.13-8.89-25.67-10.9-23.55s-.4,16.12,3.61,31.25c2.55,9.64,5.46,17.42,7.76,21.24-.81,3.86-1.52,7.39-2.11,10.53a152.18,152.18,0,0,0-5.15-19.8c-5.15-15.72-11.14-26.74-13.4-24.62s.1,16.59,5.24,32.3c4,12.21,8.52,21.59,11.39,24.16-.29,2.72-.25,4.25.18,4.36s1.19-1.22,2.24-3.74c3.75-.88,12.2-7,21.56-15.77C267.36,516.9,276.34,505.32,275.38,502.38Z"/><path class="cls-4" d="M734.89,535.47c-.63-1.93-7.57,2.55-15.49,10a100.51,100.51,0,0,0-9.21,9.82c.65-2,1.35-4.26,2.1-6.74,2.53-1.49,6.65-5.07,11.17-9.84,7.07-7.48,12.41-15.05,11.92-16.92s-6.63,2.69-13.71,10.18c-2.59,2.74-4.95,5.49-6.88,8,.71-2.49,1.43-5.11,2.17-7.84a75.28,75.28,0,0,0,8.56-9.35c6.17-7.71,10.9-15.44,10.58-17.26s-5.58,3-11.75,10.67c-1.77,2.23-3.43,4.45-4.88,6.53.47-1.81.94-3.64,1.42-5.51l1-4a67.52,67.52,0,0,0,5.93-6.63c4.86-6.09,8.6-12.19,8.35-13.62s-4.41,2.33-9.27,8.42c-1.1,1.38-2.15,2.76-3.1,4.08.79-3.25,1.52-6.38,2.2-9.35a53.67,53.67,0,0,0,3.73-4.26c3.56-4.45,6.29-8.9,6.11-9.95s-3.23,1.7-6.78,6.15c-.62.77-1.21,1.54-1.76,2.29,2.94-13.37,4.42-22.32,3.57-22.53s-3.83,8.34-7.65,21.49c-.12-.92-.27-1.88-.44-2.85-1-5.61-2.34-9.48-3-8.65s-.4,6.06.59,11.67c.39,2.15.82,4,1.24,5.52-.82,2.93-1.67,6-2.53,9.26-.21-1.62-.46-3.32-.77-5.06-1.36-7.67-3.2-13-4.11-11.83s-.55,8.28.81,16a67.62,67.62,0,0,0,2,8.65l-1,4q-.71,2.79-1.38,5.51c-.28-2.52-.67-5.26-1.17-8.06-1.72-9.72-4.06-16.44-5.21-15s-.69,10.5,1,20.22a75.93,75.93,0,0,0,3.05,12.3c-.66,2.75-1.27,5.4-1.85,7.92-.5-3.1-1.26-6.64-2.22-10.29-2.64-10-5.85-16.89-7.17-15.49s-.27,10.61,2.37,20.56c1.68,6.35,3.6,11.46,5.11,14-.54,2.54-1,4.86-1.39,6.93a99.75,99.75,0,0,0-3.39-13c-3.38-10.34-7.33-17.59-8.81-16.19s.06,10.91,3.44,21.25c2.64,8,5.61,14.21,7.5,15.9-.19,1.79-.16,2.8.11,2.87s.79-.8,1.48-2.46c2.47-.58,8-4.58,14.19-10.38C729.62,545,735.53,537.41,734.89,535.47Z"/><path class="cls-7" d="M411.2,106.09h-.06c-7.26,5.82-15.4,4.77-21.77,2.22C391,110.65,402.85,126.59,411.2,106.09Z"/><path class="cls-2" d="M411.2,106.09h-.06c-7.69,4.73-16.3,3.87-23.05,1.81C389.81,109.79,402.37,122.74,411.2,106.09Z"/><path class="cls-11" d="M408.55,103.69c.7.75,4.44,5.34,4.44,5.34l-2.07-5.31Z"/><path class="cls-20" d="M639.74,184.49c-3.62-.14-7.78,2.65-9.28,6.23s.22,6.58,3.85,6.72,7.78-2.65,9.28-6.23S643.37,184.62,639.74,184.49Z"/><path class="cls-20" d="M580.76,106.84a7.32,7.32,0,0,0-6.42,4.31c-1,2.47.16,4.55,2.66,4.64a7.29,7.29,0,0,0,6.42-4.3C584.46,109,583.27,106.94,580.76,106.84Z"/><path class="cls-10" d="M173.69,571.15c-13.34-.2-28.62,4-34.14,9.37s.82,9.91,14.15,10.11,28.62-4,34.14-9.37S187,571.36,173.69,571.15Z"/><path class="cls-10" d="M779.37,617c5.2-.08,12,1.57,15.12,3.68s1.48,3.9-3.73,4-12-1.56-15.12-3.68S774.16,617.11,779.37,617Z"/><path class="cls-32" d="M500.11,71.43a7.07,7.07,0,0,0-1.7,4l-9,98a7.77,7.77,0,0,0,0,.83,20.76,20.76,0,0,1,5-2.07l.28-3.07a5.59,5.59,0,0,1-2.56-4.84,5.5,5.5,0,0,1,3-4.13,4.27,4.27,0,0,0-.51,1.67,4.46,4.46,0,0,0,.5,2.47l.46-5a6.75,6.75,0,0,1-2.71-3.35,10.92,10.92,0,0,0,2.86,1.69l1-11.15a5.6,5.6,0,0,1-2.57-4.84,5.53,5.53,0,0,1,3-4.13,4.32,4.32,0,0,0,0,4.14l.45-5a6.73,6.73,0,0,1-2.7-3.35A10.85,10.85,0,0,0,497.8,135l1-11.15a5,5,0,0,1,.45-9,4.27,4.27,0,0,0-.51,1.67,4.46,4.46,0,0,0,.5,2.47l.46-5a6.81,6.81,0,0,1-2.71-3.36,10.92,10.92,0,0,0,2.86,1.69l1-11.14a5.6,5.6,0,0,1-2.56-4.85,5.5,5.5,0,0,1,3-4.13,4.27,4.27,0,0,0-.51,1.67,4.44,4.44,0,0,0,.5,2.47l.45-5a6.79,6.79,0,0,1-2.7-3.36A10.65,10.65,0,0,0,502,89.8l.93-10.17a4.58,4.58,0,0,1-2.3-3.57Z"/><path class="cls-32" d="M468.9,501.07c-1.1,3.45-2.23,6.85-3.42,10.19C450.57,418.92,477,289.77,479.61,245.7c1.36-22.77-.49-38.26-2.63-48l.16.05h.05l.1,0,1,.35.15,0,.09,0,.05,0,.14.05.13,0h0l.14.05.27.1.14.05.13,0,.1,0a20.77,20.77,0,0,0,3.56,6.74l0,.14.05.31.06.45h0l.07.46,0,.31,0,.16.06.47,0,.16,0,.32.06.48h0l.06.48,0,.34v.16l.06.5,0,.18,0,.32.05.51v.16l.07.74,0,.14.05.53,0,.21,0,.32.05.54v0l.05.51,0,.41v.14l.05.55v.24l.07.89v.06l0,.51,0,.45v.13l0,.85,0,.33,0,.59v.08l.05,1v.12l0,.61V222l0,.62v.1l0,.53,0,.53v.11l0,1v.32l0,.65v.12l0,1.11v.09l0,2v5c0,1.2-.05,2.42-.09,3.67v.05q-.1,3.8-.36,7.89c-.24,4.13-.7,9-1.31,14.51v.1q-.28,2.64-.63,5.47l-.07.66c-6.39,53.32-23.59,155.29-13.55,234.62Z"/><path class="cls-32" d="M465.48,511.26C450.57,418.92,477,289.76,479.61,245.7c1.36-22.77-.49-38.26-2.63-48l.16.05.05,0,.1,0,.16,0,.1,0,.05,0,.15,0,.15.05h0l.15.05.14,0h.05l.1,0,.15,0,.09,0,.05,0,.14.05.13,0h0l.14.05.14,0,0,0,.1,0,.14.05.08,0,0,0,.1,0a20.77,20.77,0,0,0,3.56,6.74l0,.14.05.31.06.45h0l.07.46,0,.31,0,.16.06.47,0,.16,0,.32.06.48h0l.06.48,0,.34v.16l.06.5,0,.18,0,.32.05.51v.12l.07.78,0,.14.05.53,0,.21,0,.32.05.54v0l.05.51,0,.41v.14l.05.55v.24l.07.89v.06l0,.51,0,.45v.13l0,.85,0,.32,0,.6v.08l.05,1v.12l0,.61V222l0,.62v.1l0,.53,0,.53v.11l0,1v.32l0,.65v.28l0,1v.09l0,2v5l0,.73v.44h0c0,.82,0,1.66-.07,2.5v.05l0,.76,0,.47q-.1,3.22-.32,6.66c-.08,1.37-.18,2.81-.31,4.34v.18l-.19,2.14,0,.42-.18,2-.05.46-.24,2.31v0l-.28,2.61,0,.17c-.5,4.58-1.12,9.61-1.81,15l0,.17-.39,3.05v.1l-.4,3,0,.37-.38,2.83-.08.67c-.83,6.29-1.72,13-2.64,20l-.35,2.64-.13,1-.39,3-.1.73-.43,3.38-.05.4-.48,3.76v.08q-.92,7.31-1.84,14.95l-.15,1.31-.27,2.29-.25,2.12-.3,2.59-.14,1.28-.35,3.06-.13,1.16-.35,3.2-.1.92q-.42,3.9-.82,7.86l0,.37c-.83,8.19-1.6,16.54-2.27,25l-.09,1.05-.25,3.31-.09,1.18-.23,3.24-.1,1.38-.22,3.3-.07,1.19-.2,3.17-.09,1.48-.19,3.36,0,.85c-.07,1.25-.14,2.5-.2,3.75l0,.67-.17,3.83,0,.86c-.05,1.21-.1,2.43-.14,3.64l0,.94q-.21,6.09-.32,12.17v.41l-.05,3.24v1.38l0,3.23v5.94c0,1,0,2.05,0,3.07v1.4l.06,3.09,0,1.54.07,2.84.06,1.77c0,.94.06,1.88.09,2.81l.07,1.55.12,3,.08,1.4c.05,1,.1,2,.16,3l.08,1.42c.07,1,.13,2,.2,3.06h0q.27,4.07.63,8.05l0,.42Z"/><path class="cls-32" d="M494.46,171.49l-.07.71a21.16,21.16,0,0,0-13.25,10.63c-1.51.29-3.26.57-5.26.79a21.13,21.13,0,0,1,18.58-12.13Zm-11.21,33.92v.14h0v.29l0,.07v1.17h0v3.15a20.71,20.71,0,0,1-9.52-13.3l.12,0,.11,0,.22.06.08,0,.13,0,.22.06h.05l.16.05.21.06h0l.18.06.2.06h0l.2.06.17.06h0l.2.06.15,0,.05,0,.2.07.11,0,.08,0,.19.06.09,0,.1,0,.19.07.06,0,.12,0,.19.06.18.07.18.06h0l.16.06.16.06h0l.17.07.13.05h0l.17.06.11,0,.06,0,.09,0A20.77,20.77,0,0,0,483.25,205.41Z"/><path class="cls-32" d="M509.18,58.85a4.58,4.58,0,0,0-4.66-.11l-7.24,3.89a4.64,4.64,0,0,0-2.46,4.64l.9,8.79A4.61,4.61,0,0,0,500,80.22l2.86.24.08-.83a4.58,4.58,0,0,1-2.3-3.57l-.91-8.79a4.67,4.67,0,0,1,2.47-4.64Z"/><path class="cls-32" d="M549.78,201.58l0,.56c-5.91-.71-10.9-1.24-14.63-1.43-1.35-.07-2.64-.11-3.89-.14h12.62l.16,0h.92l.15,0h.5l.14,0h.16l.15,0h.69l.14,0h.34l.16,0h.54l.15,0h.17l.16,0h0l.18,0,.17,0h.18l.17,0h0l.16,0h.18l.16,0h0Z"/><path class="cls-32" d="M549.73,202.14c-5.91-.71-10.9-1.24-14.63-1.43-1.35-.07-2.64-.11-3.89-.14h12.62l.16,0h.92l.15,0h.5l.14,0h.16l.15,0h.69l.14,0h.34l.16,0h.54l.15,0h.17l.16,0h0l.18,0,.17,0h.18l.17,0h0l.16,0h.18l.16,0h0l.17,0Z"/><path class="cls-32" d="M553.77,189a8.44,8.44,0,0,1,1.76.34,8.28,8.28,0,0,0-3.61,2.26c-1.62-.09-3.16-.18-4.6-.28a8.25,8.25,0,0,1,6.45-2.32Zm-7.9,12.17h4.35l.17,0h.6a8.13,8.13,0,0,0,4.4,3.32,8.18,8.18,0,0,1-9.6-3.88Z"/><path class="cls-32" d="M481.29,181.55l-.11,1.22,0,.06a84.42,84.42,0,0,1-17.95,1.29c9.12-.2,14.91-1.52,18.1-2.57ZM447.46,193.1h4l.18,0h.55l.18,0h1.76l.15,0h1.31l.15,0h1.23l.15,0h.44l.13,0h.43l.11,0h0l.14,0,.46,0,.2,0,.26,0,.4,0h.06l.45.06.13,0,.31,0,.33,0,.11,0,.44.06h.08l.35,0,.27,0,.16,0,.42.06h0l.4.06.2,0,.22,0,.38.06h0l.4.06.15,0,.26,0,.31.06h.09l.39.07h.09l.3.06.26,0,.12,0,.39.07h0l.34.06.2,0,.18,0,.35.07h0l.37.07.15,0,.21,0,.3.07H469l.35.07.1,0,.25.06.24.05.11,0,.34.07h0l.29.07.2.05.14,0,.32.08h0l.32.08.32.07.28.07h0l.31.08.1,0,.21.05.23.06.08,0,.3.08.06,0,.24.06.29.08.29.09h0l.27.08.14,0,.14,0,.26.07h0l.27.08.11,0,.17.05.21.07h.06l.26.09.26.08.18,0,.08,0,.25.08h0l.22.08.25.08.24.08h0l.48.16.2.07h0l.23.09.06,0,.16.06.16.06.06,0,.22.08h0l.15.06,0,.07-.18,2c-3.82-2-11.79-5.18-26-6.82-1.84-.22-4-.4-6.43-.56l.27-.27Z"/><path class="cls-32" d="M447.06,193.37c2.43.16,4.59.34,6.43.56,14.25,1.64,22.22,4.82,26,6.82l.18-2,0-.07-.15-.06h0l-.22-.08-.06,0-.16-.06-.16-.06-.06,0-.23-.09h0l-.2-.07-.48-.16h0l-.24-.08-.25-.08-.22-.08h0l-.25-.08-.08,0-.18,0-.26-.08-.26-.09h-.06l-.21-.07-.17-.05-.11,0-.27-.08h0l-.26-.07-.14,0-.14,0-.27-.08h0l-.29-.09-.29-.08-.24-.06-.06,0-.3-.08-.08,0-.23-.06-.21-.05-.1,0-.31-.08h0l-.28-.07-.32-.07-.32-.08h0l-.32-.08-.14,0-.2-.05-.29-.07h0l-.34-.07-.11,0-.24-.05-.25-.06-.1,0-.35-.07h-.06l-.3-.07-.21,0-.15,0-.37-.07h0l-.35-.07-.18,0-.2,0-.34-.06h0l-.39-.07-.12,0-.26,0-.3-.06h-.09l-.39-.07h-.09l-.31-.06-.26,0-.15,0-.4-.06h0l-.38-.06-.22,0-.2,0-.4-.06h0l-.42-.06-.16,0-.27,0-.35,0h-.08l-.44-.06-.11,0-.33,0-.31,0-.13,0-.45-.06h-.06l-.4,0-.26,0-.2,0-.46,0-.14,0h0l-.11,0h-.43l-.13,0h-.24l-.18,0h0l-.15,0H455.7l-.15,0h-.65l-.16,0h-.5l-.15,0h-.88l-.17,0h-.71l-.18,0h-.55l-.18,0h-.37l-.34,0h-3.38Z"/><path class="cls-32" d="M437.24,179.31a8.47,8.47,0,0,1,1.75.34,8.31,8.31,0,0,0-5.82,7.17,8.13,8.13,0,0,0,5.68,8.53,8.16,8.16,0,0,1-10.55-8.53A8.31,8.31,0,0,1,437.24,179.31Z"/><path class="cls-32" d="M496.49,92.3a5.5,5.5,0,0,0-3,4.13c-.29,3.08,2.83,5.94,7.24,6.93l.19-2.08A7.2,7.2,0,0,1,499,99.11c-2-1.35-3.15-3.2-3-5.14A4.27,4.27,0,0,1,496.49,92.3Z"/><path class="cls-32" d="M501.63,93.38l-.65-.14a4,4,0,0,1,.38-.94,7.35,7.35,0,0,0-1.08.75c-3.07-.93-5.36-2.79-6-4.94a12.55,12.55,0,0,0,6.67,2.64,10.91,10.91,0,0,0,.9.72Z"/><path class="cls-32" d="M494.41,114.92a5.52,5.52,0,0,0-3,4.13c-.28,3.08,2.83,5.94,7.25,6.93l.19-2.09a7.34,7.34,0,0,1-2-2.16c-2-1.35-3.15-3.2-3-5.14A4.27,4.27,0,0,1,494.41,114.92Z"/><path class="cls-32" d="M499.55,116l-.65-.14a4.51,4.51,0,0,1,.38-.94,7.67,7.67,0,0,0-1.08.75c-3.07-.94-5.36-2.79-6.05-4.94a12.66,12.66,0,0,0,6.67,2.64,9.62,9.62,0,0,0,.91.72Z"/><path class="cls-32" d="M492.33,137.54a5.53,5.53,0,0,0-3,4.13c-.28,3.08,2.84,5.94,7.25,6.93l.19-2.09a7.17,7.17,0,0,1-1.95-2.16c-2-1.35-3.15-3.2-3-5.14A4.45,4.45,0,0,1,492.33,137.54Z"/><path class="cls-32" d="M497.48,138.62l-.65-.14a4.48,4.48,0,0,1,.37-.94,7,7,0,0,0-1.07.74c-3.08-.93-5.36-2.78-6.05-4.93a12.63,12.63,0,0,0,6.67,2.64,8,8,0,0,0,.9.71Z"/><path class="cls-32" d="M490.26,160.16a5.5,5.5,0,0,0-3,4.13c-.28,3.08,2.83,5.94,7.24,6.93l.19-2.09a7.3,7.3,0,0,1-1.95-2.16c-2-1.35-3.15-3.2-3-5.14A4.27,4.27,0,0,1,490.26,160.16Z"/><path class="cls-32" d="M495.4,161.24l-.65-.14a4.51,4.51,0,0,1,.38-.94,7.08,7.08,0,0,0-1.08.74C491,160,488.69,158.12,488,156a12.66,12.66,0,0,0,6.67,2.64,8.17,8.17,0,0,0,.91.71Z"/><path class="cls-11" d="M476.52,140.55c1.56,3.42,7.4,4.1,13,1.52s9-7.45,7.41-10.88-7.4-4.1-13.05-1.52S475,137.13,476.52,140.55Z"/><path class="cls-17" d="M488.15,128.76c-2,3.16.57,8.44,5.81,11.77s11.12,3.48,13.15.31-.57-8.44-5.81-11.77S490.18,125.59,488.15,128.76Z"/><path class="cls-11" d="M474.28,155.8c1.55,3.42,7.39,4.11,13,1.52s9-7.45,7.41-10.88-7.4-4.1-13.05-1.52S472.72,152.38,474.28,155.8Z"/><path class="cls-17" d="M485.91,144c-2,3.17.57,8.44,5.81,11.78s11.12,3.47,13.15.3-.57-8.43-5.81-11.77S487.94,140.84,485.91,144Z"/><path class="cls-11" d="M476.35,166.53c1.56,3.42,7.4,4.1,13,1.52s9-7.46,7.41-10.88-7.4-4.11-13-1.52S474.79,163.1,476.35,166.53Z"/><path class="cls-17" d="M488,154.73c-2,3.17.57,8.44,5.81,11.78s11.12,3.48,13.15.31-.57-8.44-5.8-11.78S490,151.57,488,154.73Z"/><path class="cls-11" d="M481.44,181.13c1.59,2.5,7.44,3.06,13.06,1.24s8.88-5.33,7.29-7.84-7.44-3.06-13.06-1.24S479.85,178.62,481.44,181.13Z"/><path class="cls-17" d="M493,172.67c-2,2.28.66,6.14,5.92,8.62s11.16,2.65,13.16.36-.66-6.14-5.93-8.62S494.94,170.39,493,172.67Z"/><path class="cls-6" d="M510.21,133c-7.92.91-13,13.54-11.27,28.19s9.49,25.8,17.4,24.89,13-13.55,11.26-28.2S518.12,132,510.21,133Z"/><path class="cls-12" d="M516.7,136.94c-6,.69-9.75,10.19-8.47,21.22s7.13,19.41,13.09,18.72,9.75-10.19,8.47-21.21S522.65,136.26,516.7,136.94Z"/><path class="cls-8" d="M521.51,142.92c-3.76.43-6.15,6.43-5.35,13.39s4.51,12.25,8.27,11.82,6.15-6.43,5.35-13.39S525.27,142.48,521.51,142.92Z"/><path class="cls-32" d="M230,375.22c-3.5-.13-7.51,2.56-9,6s.21,6.35,3.71,6.48,7.52-2.56,9-6S233.53,375.35,230,375.22Z"/><path class="cls-32" d="M177.11,497c-3.5-.13-7.51,2.56-9,6s.22,6.36,3.72,6.49,7.51-2.56,9-6S180.62,497.16,177.11,497Z"/><polygon class="cls-2" points="467.78 397.26 472.43 414.71 475 424.3 471.75 423.66 467.15 422.77 476.41 441.11 485.67 459.45 481.01 442.01 478.45 432.42 481.69 433.05 486.29 433.95 477.04 415.6 467.78 397.26"/><path class="cls-3" d="M533.4,609.72c-14.17,0-25.73-2.25-25.73-5s11.56-5,25.73-5,25.73,2.25,25.73,5S547.57,609.72,533.4,609.72Z"/><path class="cls-3" d="M452.19,620.88c-5.1,0-9.26-.81-9.26-1.8s4.16-1.8,9.26-1.8,9.26.81,9.26,1.8S457.29,620.88,452.19,620.88Z"/><ellipse class="cls-33" cx="35.52" cy="575.33" rx="9.26" ry="3.77"/><path class="cls-10" d="M69.63,545.78c-3,0-5.43,1-5.43,2.21s2.43,2.21,5.43,2.21,5.44-1,5.44-2.21S72.63,545.78,69.63,545.78Z"/><path class="cls-10" d="M39.42,542.26c-1.93,0-3.5.63-3.5,1.42s1.57,1.42,3.5,1.42,3.5-.63,3.5-1.42S41.36,542.26,39.42,542.26Z"/><path class="cls-10" d="M452.52,494.41c3.6-1.13,14.6,4.66,24.58,12.92s15.15,15.87,11.55,17-14.6-4.66-24.57-12.92S448.92,495.54,452.52,494.41Z"/><path class="cls-6" d="M485.47,520.5c4-1.26,16.37,5.22,27.56,14.49s17,17.79,13,19.06-16.37-5.23-27.56-14.49S481.43,521.77,485.47,520.5Z"/><path class="cls-10" d="M712.68,194.39c-44.94,32.59-103.26,118.43-146,220C541.39,474.68,526,530,521.08,572.27l5.38.2c6.41-43.15,22.47-98.12,47.55-157.78C615,317.27,668.86,233.71,712.68,194.39Z"/><path class="cls-10" d="M681.72,322.19C639.14,345.07,586.86,406,551.24,478.32c-17,34.52-27.81,66.81-32.42,93.87l6.08.22c5.51-27.35,16.74-59.52,33.63-93.82C592.68,409.21,640.71,349.91,681.72,322.19Z"/><path class="cls-10" d="M640.22,320.64c-42.58,22.88-94.86,83.77-130.48,156.13-17,34.52-27.81,66.8-32.42,93.87l6.09.22c5.5-27.35,16.74-59.52,33.62-93.82C551.18,407.66,599.21,348.36,640.22,320.64Z"/><path class="cls-6" d="M457.49,495.66c2-.63,8.21,2.62,13.81,7.26s8.52,8.92,6.5,9.56-8.21-2.62-13.82-7.26S455.47,496.3,457.49,495.66Z"/><path class="cls-20" d="M657.15,169.14a4.18,4.18,0,0,0-3.68,2.47c-.6,1.42.09,2.61,1.52,2.67a4.22,4.22,0,0,0,3.69-2.47C659.27,170.39,658.59,169.19,657.15,169.14Z"/><path class="cls-12" d="M399.48,171.24c-10.11,3.29-16.75,10.71-14.85,16.57s11.66,7.93,21.76,4.64,16.76-10.71,14.85-16.57S409.59,167.94,399.48,171.24Z"/><polygon class="cls-15" points="416.91 165.01 412.76 172.42 410.48 176.49 411.93 176.22 414 175.84 407.78 183.63 401.57 191.42 405.72 184.01 408 179.94 406.54 180.21 404.48 180.59 410.69 172.8 416.91 165.01"/><path class="cls-15" d="M408.29,223.6a5.67,5.67,0,0,0,3.94,1.76A10.57,10.57,0,0,1,410,223a7.13,7.13,0,0,0,4.18-4.7,17.44,17.44,0,0,1-5,3.32l-.05,0-.14-.29a11.59,11.59,0,0,1-1.26-5.05,6,6,0,0,0-.39,5.93l.05.1a17,17,0,0,1-4.05.9,7.47,7.47,0,0,0,5,.36Zm6.08-22.33a11.59,11.59,0,0,0,1.26,5l.14.29.06,0a17.52,17.52,0,0,0,5-3.32,7.13,7.13,0,0,1-4.18,4.7,10.57,10.57,0,0,0,2.26,2.35,5.67,5.67,0,0,1-3.94-1.76,7.47,7.47,0,0,1-4.95-.36,16.88,16.88,0,0,0,4-.9l0-.1A6,6,0,0,1,414.37,201.27Z"/><path class="cls-2" d="M846.06,138c14.81,4.33,30.46,20.91,40.57,41.2-9.88-16.08-23-28.55-35.59-32.23-16.31-4.77-26.68,6.74-26.8,26.93-7.9-7-16.24-11.35-23.28-11.49-10.06-.21-14.79,8.28-13.29,20.9-4.47-3.4-9-5.45-12.94-5.53a8.25,8.25,0,0,0-5.83,1.95,92.31,92.31,0,0,0-3.28-10.11,9.13,9.13,0,0,1,4.13-.82c3.94.08,8.48,2.13,13,5.53-1.5-12.62,3.22-21.11,13.28-20.9,7,.14,15.39,4.51,23.28,11.49.12-20.18,10.49-31.7,26.8-26.92ZM672.39,175.17a58.77,58.77,0,0,1-4.6-8.16c-6.78-14.64-4.5-26.35,5.09-26.15,3.15.06,6.7,1.41,10.29,3.7-9.5-26.1-4-45.84,13.88-45.48,19,.39,45.07,23.42,59.39,52.05C741.6,126.81,719,108.41,702,108.06c-17.87-.36-23.38,19.38-13.88,45.48-3.59-2.29-7.14-3.64-10.3-3.7C668.44,149.64,666.07,160.92,672.39,175.17Z"/></svg>