<svg xmlns="http://www.w3.org/2000/svg" width="960.637" height="541.485" viewBox="0 0 960.637 541.485">
  <g id="Component_218_1" data-name="Component 218 – 1" transform="translate(0.129 0.239)">
    <g id="grey_lines" data-name="grey lines">
      <path id="Path_58" data-name="Path 58" d="M652.114-2857.091c-1.938,15.68,1.768,30.353,15.971,38.667,31.774,18.6,83.948,20.437,93.431,65.044,2.483,11.681-.772,24-6.554,34.446-12.931,23.374-31.471,43.336-52.531,59.616-21.789,16.844-47.552,26.363-69.709,42.363-38.065,27.488-70.417,69.512-73.439,117.75-1.512,24.14,2.458,49.259,21.3,65.73,16.249,14.2,36.428,19.155,55.42,27.945a521.472,521.472,0,0,0,64.524,25.083,496.949,496.949,0,0,0,95.168,19.576c28.524,3,59.434.543,86.076,13.061,26.32,12.368,40.881,31.719,40.881,31.719" transform="translate(-1 2857.091)" fill="none" stroke="#7b7b7b" stroke-miterlimit="10" stroke-width="0.5" opacity="0.8"/>
      <path id="Path_59" data-name="Path 59" d="M744.953-2316.091s-11.4-2-30.082-13.364-50.261-32.666-94.078-51.6-78.612-33.139-90.856-66.751c-23.511-64.549,32.876-137.1,69.459-184.138,10.887-14,25.867-33.619,26.493-52.245.6-17.97-15.258-33.57-26.352-45.84-12.125-13.411-24.209-26.913-37.633-39.056-25.874-23.4-58.969-42.8-94.869-32.264-20.825,6.109-39.066,17.865-57.686,28.62-18,10.4-36.73,19-55.341,28.295-35.026,17.487-57.919,44.52-74.82,79.542-14.113,29.245-22.466,62.081-46.3,85.473-52.055,51.079-250.673,84.78-210.064,160.491,24.584,45.834,145.043,12.079,231.972,59.177,37.695,20.423,39.387,43.663,39.387,43.663" transform="translate(-1 2857.091)" fill="none" stroke="#7b7b7b" stroke-miterlimit="10" stroke-width="0.5" opacity="0.8"/>
      <path id="Path_60" data-name="Path 60" d="M650.889-2316.091s-13.714-22.2-47.29-38.879-86.54-33.354-104.51-63.234-14.187-59.76,0-96.937,61.166-112.918,60.139-135.155-3-57.328-72.24-76.089-151.05,21.888-169.493,59.412-36.886,87.8-74.245,111.477S106.11-2500.2,108-2455.033s111.6,36.134,163.15,69.141,58.64,69.8,58.64,69.8" transform="translate(-1 2857.091)" fill="none" stroke="#7b7b7b" stroke-miterlimit="10" stroke-width="0.5" opacity="0.8"/>
      <path id="Path_61" data-name="Path 61" d="M589.2-2316.091s-11.308-15.579-58.716-36.03c-19.838-8.558-40.521-15.438-58.822-27.182-20.82-13.36-29.544-32.278-27.427-56.947,2.573-29.983,13.825-61.288,24.926-89.063C485.254-2565.575,510.915-2606.8,507-2633s-24.356-40.582-55.235-46.014-76.982,3.195-111.342,51.767c-14.559,20.58-27.969,42.266-45.7,60.362-19.409,19.813-43.546,28.93-67.036,42.646-19.783,11.551-62.937,33.286-47.833,62.678,8.255,16.063,28.607,24.719,44.479,30.979,21.426,8.45,44.188,12.885,65.635,21.262,19.085,7.455,39.448,14.886,54.68,29.12,17.332,16.2,22.55,41.131,21.178,64.142" transform="translate(-1 2857.091)" fill="none" stroke="#7b7b7b" stroke-miterlimit="10" stroke-width="0.5" opacity="0.8"/>
      <path id="Path_62" data-name="Path 62" d="M379.432-2857.091c-35.753,10.977-72.161,22.246-104.233,41.975-15.8,9.72-30.361,21.531-42.305,35.78-14.161,16.9-19.883,36.788-28.742,56.634-11.6,25.991-28.907,50.126-52.211,66.827-26.107,18.71-55.4,32.464-82.782,49.1Q35.175-2586.119,1-2565.786" transform="translate(-1 2857.091)" fill="none" stroke="#7b7b7b" stroke-miterlimit="10" stroke-width="0.5" opacity="0.8"/>
      <path id="Path_63" data-name="Path 63" d="M961-2395.179s-63.217-49.332-99.493-54.943c-37.139-5.745-76.482,4.92-113.381-5.233-36.813-10.13-71.025-57.778-45.328-93.764a69.511,69.511,0,0,1,13.6-13.9c38.186-30.188,91.646-23.174,143.2-45.618S961-2694.2,961-2722.26s-36.487-102.4-46.033-108.013-38.186-26.818-38.186-26.818" transform="translate(-1 2857.091)" fill="none" stroke="#7b7b7b" stroke-miterlimit="10" stroke-width="0.5" opacity="0.8"/>
      <path id="Path_64" data-name="Path 64" d="M961-2454.33s-53.671-37.388-97.584-36.93-118.549,11.68-118.463-26.2c.093-40.451,62.307-49.565,91.758-52.581,23.564-2.414,45.35-3.506,67.549-13.049a149.723,149.723,0,0,0,57.054-42.794" transform="translate(-1 2857.091)" fill="none" stroke="#7b7b7b" stroke-miterlimit="10" stroke-width="0.5" opacity="0.8"/>
      <path id="Path_65" data-name="Path 65" d="M961-2498.264a289.479,289.479,0,0,0-74.673-25.338c-42-7.881,24.915-28.923,36.324-34.534S961-2571,961-2571" transform="translate(-1 2857.091)" fill="none" stroke="#7b7b7b" stroke-miterlimit="10" stroke-width="0.5" opacity="0.8"/>
    </g>
  </g>
</svg>
