<svg xmlns="http://www.w3.org/2000/svg" viewBox="0 0 45.65 45.89"><defs><style>.cls-1{fill:#f9db60;}.cls-2{fill:#f6cc1b;}.cls-3{fill:#8e6aa0;}.cls-4{fill:#794e8e;}.cls-5{fill:#5f2d79;}.cls-6{fill:#eb8b23;}</style></defs><g id="Layer_2" data-name="Layer 2"><g id="text_and_icons" data-name="text and icons"><rect class="cls-1" x="18.72" y="15.56" width="3.73" height="18.31" transform="translate(-11.44 21.8) rotate(-45)"/><rect class="cls-2" x="19.07" y="16.39" width="1.36" height="18.31" transform="translate(-12.28 21.45) rotate(-45)"/><path class="cls-3" d="M33.72,13.57,27,20.32a1.13,1.13,0,0,1-.82.34,1.14,1.14,0,0,1-.82-.34,1.16,1.16,0,0,1,0-1.64l2.39-2.39,4.36-4.36a1.16,1.16,0,0,1,1.64,0A1.15,1.15,0,0,1,33.72,13.57Z"/><path class="cls-4" d="M33.73,11.93a1.4,1.4,0,0,0-.39-.26,1.18,1.18,0,0,1-.25,1.27l-6.75,6.75a1.2,1.2,0,0,1-.82.34,1.12,1.12,0,0,1-.44-.09,1,1,0,0,0,.25.38,1.16,1.16,0,0,0,.82.34,1.13,1.13,0,0,0,.82-.34l6.76-6.75A1.16,1.16,0,0,0,33.73,11.93Z"/><path class="cls-4" d="M30.22,24.05,19.93,34.34a2.32,2.32,0,0,1-3.3,0L11,28.73a2.19,2.19,0,0,1-.43-.58,3.19,3.19,0,0,1-.21-.59A2.35,2.35,0,0,1,11,25.43L21.31,15.14a2.31,2.31,0,0,1,2.13-.63,2.19,2.19,0,0,1,.59.21,2.59,2.59,0,0,1,.58.42l5.61,5.61A2.34,2.34,0,0,1,30.22,24.05Z"/><rect class="cls-3" x="11.01" y="21.35" width="19.22" height="6.8" rx="2.23" transform="translate(-11.46 21.83) rotate(-45)"/><path class="cls-4" d="M45.22,18.12a2,2,0,0,1-.3.25,5.85,5.85,0,0,1-1,.6,4.56,4.56,0,0,1-.55.24,11.44,11.44,0,0,1-1.62.52,12.89,12.89,0,0,1-15.8-15.8,12.72,12.72,0,0,1,.52-1.61c.08-.2.16-.38.24-.55a6.26,6.26,0,0,1,.6-1c.09-.11.17-.21.25-.29,1.55-1.55,6.76,1.15,11.65,6S46.77,16.58,45.22,18.12Z"/><path class="cls-5" d="M33.72,13.57l-4.36,4.37c-.29-.25-.57-.51-.85-.79s-.55-.57-.79-.86l4.36-4.36a1.16,1.16,0,0,1,1.64,0A1.15,1.15,0,0,1,33.72,13.57Z"/><path class="cls-3" d="M41.84,14.74a2.52,2.52,0,0,1-.29.26,8.77,8.77,0,0,1-.95.69l-.49.3c-.42.24-.89.49-1.4.72-2.89,1.33-6.94,2.21-9.46-.31S27.62,9.83,28.94,7a15.4,15.4,0,0,1,.73-1.41l.3-.49a8.83,8.83,0,0,1,.68-1l.26-.29c1.55-1.54,5.25-.35,8.27,2.67S43.39,13.2,41.84,14.74Z"/><ellipse class="cls-5" cx="36.38" cy="9.28" rx="3.96" ry="12.51" transform="translate(4.09 28.44) rotate(-45)"/><path class="cls-4" d="M39.18,6.48c-4.89-4.89-10.1-7.59-11.65-6a1.4,1.4,0,0,0-.35.62c2-.59,6.66,2,11,6.39s7,9,6.4,11a1.43,1.43,0,0,0,.62-.36C46.77,16.58,44.06,11.36,39.18,6.48Z"/><path class="cls-5" d="M39.78,18.24a30.32,30.32,0,0,1-7-5.38,29.77,29.77,0,0,1-5.37-7,6.26,6.26,0,0,1-1-3.55,12.72,12.72,0,0,0-.52,1.61,11.4,11.4,0,0,0,.91,2.25,30.37,30.37,0,0,0,5.49,7.15,31,31,0,0,0,7.16,5.5,10.67,10.67,0,0,0,2.24.9,11.44,11.44,0,0,0,1.62-.52A6.27,6.27,0,0,1,39.78,18.24Z"/><path class="cls-3" d="M34.79,11.62a.79.79,0,0,1-.53-.22.75.75,0,0,1,0-1.07l4.38-4.39A.76.76,0,0,1,39.71,7L35.33,11.4A.79.79,0,0,1,34.79,11.62Z"/><path class="cls-4" d="M39.71,5.94a.82.82,0,0,0-.25-.16.76.76,0,0,1-.16.82L34.91,11a.74.74,0,0,1-.53.22.93.93,0,0,1-.29,0,1,1,0,0,0,.17.25.76.76,0,0,0,1.07,0L39.71,7A.77.77,0,0,0,39.71,5.94Z"/><circle class="cls-1" cx="39.18" cy="6.48" r="2.15"/><path class="cls-2" d="M40.7,6.49a2.15,2.15,0,0,1-3,0,2.22,2.22,0,0,1-.5-.77,2.15,2.15,0,1,0,4,0A2.19,2.19,0,0,1,40.7,6.49Z"/><path class="cls-6" d="M23.82,35.93a1.4,1.4,0,0,0,.41,1l8.56,8.56a1.39,1.39,0,0,0,2,0l5.72-5.72a1.4,1.4,0,0,0,.41-1v-.92a1.44,1.44,0,0,0-.41-1l-8.56-8.56a1.41,1.41,0,0,0-2,0L24.23,34a1.44,1.44,0,0,0-.41,1Z"/><rect class="cls-1" x="26.92" y="28.97" width="10.89" height="14.9" rx="1.4" transform="translate(-16.28 33.55) rotate(-45)"/><rect class="cls-2" x="25.9" y="31.97" width="12.91" height="8.91" rx="2.92" transform="translate(35.23 -12.21) rotate(45)"/><rect class="cls-1" x="34.08" y="26.93" width="0.84" height="14.77" transform="translate(83.16 34.18) rotate(135)"/><rect class="cls-1" x="32.56" y="28.45" width="0.84" height="14.77" transform="translate(81.63 37.85) rotate(135)"/><rect class="cls-1" x="31.04" y="29.97" width="0.84" height="14.77" transform="translate(80.11 41.53) rotate(135)"/><rect class="cls-1" x="29.51" y="31.49" width="0.84" height="14.77" transform="translate(78.59 45.2) rotate(135)"/><path class="cls-6" d="M25.11,35.47l5.5-5.5a.47.47,0,0,1,.66,0l8.34,8.33.13-.13a.47.47,0,0,0,0-.66L31.27,29a.47.47,0,0,0-.66,0L25,34.68a.45.45,0,0,0,0,.66Z"/><rect class="cls-6" x="30.7" y="30.64" width="0.66" height="8.91" transform="translate(33.9 -11.66) rotate(45)"/><rect class="cls-6" x="34.42" y="34.36" width="0.66" height="8.91" transform="translate(37.62 -13.2) rotate(45)"/><rect class="cls-1" x="30.08" y="29.12" width="0.84" height="10.89" transform="translate(33.37 -11.44) rotate(45)"/><rect class="cls-1" x="33.8" y="32.84" width="0.84" height="10.89" transform="translate(37.09 -12.98) rotate(45)"/><path class="cls-6" d="M0,11.85a1.4,1.4,0,0,0,.41,1L9,21.4a1.38,1.38,0,0,0,2,0l5.72-5.72a1.36,1.36,0,0,0,.41-1v-.92a1.4,1.4,0,0,0-.41-1L8.11,4.22a1.39,1.39,0,0,0-2,0L.41,9.93a1.4,1.4,0,0,0-.41,1Z"/><rect class="cls-1" x="3.09" y="4.89" width="10.89" height="14.9" rx="1.4" transform="translate(-6.23 9.65) rotate(-45)"/><rect class="cls-2" x="2.08" y="7.89" width="12.91" height="8.91" rx="2.92" transform="translate(11.23 -2.42) rotate(45)"/><rect class="cls-1" x="10.26" y="2.85" width="0.84" height="14.77" transform="translate(25.46 9.92) rotate(135)"/><rect class="cls-1" x="8.73" y="4.37" width="0.84" height="14.77" transform="translate(23.94 13.59) rotate(135)"/><rect class="cls-1" x="7.21" y="5.89" width="0.84" height="14.77" transform="translate(22.42 17.27) rotate(135)"/><rect class="cls-1" x="5.69" y="7.41" width="0.84" height="14.77" transform="translate(20.9 20.94) rotate(135)"/><path class="cls-6" d="M1.29,11.39l5.5-5.5a.47.47,0,0,1,.66,0l8.33,8.33.14-.13a.47.47,0,0,0,0-.66L7.45,5a.47.47,0,0,0-.66,0L1.15,10.6a.47.47,0,0,0,0,.66Z"/><rect class="cls-6" x="6.88" y="6.56" width="0.66" height="8.91" transform="translate(9.9 -1.87) rotate(45)"/><rect class="cls-6" x="10.59" y="10.28" width="0.66" height="8.91" transform="translate(13.61 -3.41) rotate(45)"/><rect class="cls-1" x="6.26" y="5.04" width="0.84" height="10.89" transform="translate(9.37 -1.65) rotate(45)"/><rect class="cls-1" x="9.97" y="8.76" width="0.84" height="10.89" transform="translate(13.09 -3.19) rotate(45)"/><circle class="cls-5" cx="19.65" cy="25.55" r="2.89"/><circle class="cls-4" cx="19.65" cy="25.55" r="1.47"/><path class="cls-4" d="M18.91,32.06,13.3,26.45a2.34,2.34,0,0,1,0-3.3L11,25.43a2.34,2.34,0,0,0,0,3.3l5.61,5.61a2.34,2.34,0,0,0,3.3,0l2.28-2.28A2.34,2.34,0,0,1,18.91,32.06Z"/><rect class="cls-3" x="19.4" y="24.69" width="0.51" height="1.71"/><path class="cls-3" d="M24,14.72,10.59,28.15a3.19,3.19,0,0,1-.21-.59l13.06-13A2.19,2.19,0,0,1,24,14.72Z"/><path class="cls-3" d="M30.64,21.33,17.21,34.76a2,2,0,0,0,.59.21l13.05-13A2.19,2.19,0,0,0,30.64,21.33Z"/><rect class="cls-5" x="18.93" y="19.62" width="12.6" height="1.01" transform="translate(21.62 -11.95) rotate(45)"/></g></g></svg>