<svg xmlns="http://www.w3.org/2000/svg" viewBox="0 0 148.59 122.94"><defs><style>.cls-1{fill:#301347;}.cls-2{fill:#bf4d8b;}.cls-3{fill:#c96a9e;}.cls-4{fill:#d07ba9;}.cls-5{fill:#f9db5d;}.cls-6{fill:#fae58d;}.cls-7{fill:#f6cc1b;}</style></defs><g id="Layer_2" data-name="Layer 2"><g id="Layer_1-2" data-name="Layer 1"><path class="cls-1" d="M148.57,95.12a.34.34,0,0,1,0-.1c0-.38,0-.76-.08-1.14v-.1c0-.39-.08-.78-.13-1.16v0a26.65,26.65,0,0,0-1.56-6l-16.12-45a20.79,20.79,0,0,0-1.3-3.07,21.5,21.5,0,0,0-3.89-5.31c-.19-.2-.39-.39-.59-.57-.47-.44-1-.84-1.46-1.23l-5.37-15a14.35,14.35,0,0,0-1.21-2.71,15,15,0,0,0-1.68-2.4c-.26-.3-.52-.58-.8-.86A15.22,15.22,0,0,0,103.57,6h0l-.82,0h0l-.8.07h0A15.27,15.27,0,0,0,88.3,21.27a16.12,16.12,0,0,0,.19,2.42l2.16,16.09A21.66,21.66,0,0,0,89,45.69H79.82c-.41-1.34-2.72-2.37-5.52-2.37s-5.11,1-5.52,2.37h-9.2a21,21,0,0,0-1.64-5.91L60.1,23.69a14.91,14.91,0,0,0,.19-2.42A15.27,15.27,0,0,0,46.65,6.09h0L45.86,6h0L45,6h0a15.24,15.24,0,0,0-10.79,4.47c-.27.28-.54.56-.79.86a14.4,14.4,0,0,0-1.69,2.4,15,15,0,0,0-1.21,2.71l-5.37,15a18.84,18.84,0,0,0-1.45,1.23c-.21.18-.4.37-.6.57A21.37,21.37,0,0,0,21,35.73l-.48.67a24.1,24.1,0,0,0-1.27,2.14,21.91,21.91,0,0,0-1.3,3.07l-16.11,45a26.13,26.13,0,0,0-1.56,6v0c0,.38-.09.77-.13,1.16v.1c0,.38-.06.76-.08,1.14v.1c0,.39,0,.78,0,1.18,0,.69,0,1.37.08,2,0,.45.08.9.13,1.34s.13.89.21,1.32A26.66,26.66,0,0,0,10.7,117.65l.52.37a26.5,26.5,0,0,0,14.59,4.91h.83q.6,0,1.2,0h.1l1.13-.08.16,0q.54,0,1.08-.12l.17,0,1.07-.17.16,0,1.07-.23.12,0c.36-.09.73-.18,1.09-.29h0c.76-.22,1.5-.47,2.23-.75l.05,0c.35-.14.71-.28,1.06-.44l.06,0c.35-.15.69-.31,1-.48l0,0c.35-.17.69-.35,1-.53h0A26.67,26.67,0,0,0,53.13,99.2c0-.2,0-.41.08-.62l2.16-16.11H60a15.21,15.21,0,0,0,28.65,0h4.6l2.16,16.11.09.62A26.63,26.63,0,0,0,109,119.61h0c.33.18.67.36,1,.53l0,0c.34.17.69.33,1,.48l.07,0c.35.16.7.3,1.06.44l0,0c.73.28,1.47.53,2.23.75h0c.36.11.73.2,1.1.29l.11,0,1.07.23.16,0,1.07.17.17,0c.36,0,.72.09,1.09.12l.15,0,1.13.08h.11c.39,0,.79,0,1.19,0h.83A26.5,26.5,0,0,0,137.37,118l.52-.37A26.67,26.67,0,0,0,148.18,101c.07-.43.14-.87.2-1.32s.1-.89.14-1.34c0-.68.07-1.36.07-2C148.59,95.9,148.58,95.51,148.57,95.12Z"/><rect class="cls-2" x="40.86" y="54.9" width="66.87" height="21.57"/><rect class="cls-3" x="40.86" y="39.69" width="66.87" height="21.57"/><path class="cls-2" d="M45,0A15.26,15.26,0,0,0,30.54,10.44L19,42.6h0c-.09.24-.18.48-.26.73l0,.1-.21.67c0,.06,0,.12-.05.18s-.11.42-.16.64l-.06.25c0,.19-.09.39-.12.58l-.06.34-.09.53c0,.14,0,.28-.05.42l-.06.46c0,.18,0,.37,0,.55s0,.24,0,.36q0,.47,0,.93a18.89,18.89,0,0,0,4.41,12.15c.36.43.74.85,1.14,1.25a19.53,19.53,0,0,0,2.07,1.79,18.87,18.87,0,0,0,11.34,3.76c.31,0,.63,0,.94,0l.31,0,.62,0,.36,0,.55-.07.39-.07a4.54,4.54,0,0,0,.51-.09l.4-.08.49-.11.4-.11.46-.13.41-.13.44-.15.41-.15.42-.16.42-.17.39-.18.42-.2.36-.18.42-.23a3.07,3.07,0,0,0,.31-.17l.46-.27.18-.12a20.67,20.67,0,0,0,1.88-1.34l0,0,.54-.46.12-.1.49-.46.13-.13.47-.48.13-.13q.24-.26.45-.51l.12-.13c.15-.17.29-.35.44-.53a1.13,1.13,0,0,1,.1-.13q.21-.27.42-.57l.08-.1.42-.62,0-.06a18.93,18.93,0,0,0,2.89-8h0l.09-.68L60.1,17.69a14.91,14.91,0,0,0,.19-2.42A15.27,15.27,0,0,0,45,0Z"/><path class="cls-3" d="M28.63,64.53a18.48,18.48,0,0,1-2.06-1.79c-.4-.4-.78-.82-1.14-1.25A18.89,18.89,0,0,1,21,49.34c0-.31,0-.62,0-.93l0-.36c0-.18,0-.37,0-.55s0-.31.05-.46l.06-.42c0-.18.05-.36.08-.53l.06-.34.12-.58.06-.25c.05-.22.11-.43.17-.64a1.21,1.21,0,0,1,.05-.18c.06-.22.13-.45.2-.67a.69.69,0,0,0,0-.1c.08-.25.17-.49.26-.73h0L33.77,10.44A15.28,15.28,0,0,1,46.65.09,14.57,14.57,0,0,0,45,0,15.26,15.26,0,0,0,30.54,10.44L19,42.6h0c-.09.24-.18.48-.26.73l0,.1-.21.67c0,.06,0,.12-.05.18s-.11.42-.16.64l-.06.25c0,.19-.09.39-.12.58l-.06.34-.09.53c0,.14,0,.28-.05.42l-.06.46c0,.18,0,.37,0,.55s0,.24,0,.36q0,.47,0,.93a18.89,18.89,0,0,0,4.41,12.15c.36.43.74.85,1.14,1.25a19.53,19.53,0,0,0,2.07,1.79,18.87,18.87,0,0,0,11.34,3.76c.31,0,.63,0,.94,0l.31,0,.34,0A18.82,18.82,0,0,1,28.63,64.53Z"/><path class="cls-3" d="M1.74,80.82A26.64,26.64,0,1,0,53.08,93.53c.05-.31.09-.63.13-1l6.27-46.77a21.18,21.18,0,0,0,.28-3.4,21.47,21.47,0,0,0-41.83-6.8Z"/><path class="cls-4" d="M3.24,90.3A26.6,26.6,0,0,1,5,80.82L21.17,35.61A21.45,21.45,0,0,1,39.88,21c-.53,0-1.06-.07-1.59-.07A21.47,21.47,0,0,0,17.93,35.61L1.74,80.82a26.65,26.65,0,0,0,24.9,36.12c.54,0,1.08,0,1.61,0A26.64,26.64,0,0,1,3.24,90.3Z"/><path class="cls-2" d="M38.29,20.94a21.31,21.31,0,0,0-3.22.25A21.46,21.46,0,0,1,53.28,42.41a21.18,21.18,0,0,1-.27,3.4L46.74,92.58c0,.32-.08.64-.13,1a26.65,26.65,0,0,1-23.2,23.21A26.61,26.61,0,0,0,53.08,93.53c.05-.31.09-.63.13-1l6.27-46.77a21.18,21.18,0,0,0,.28-3.4A21.47,21.47,0,0,0,38.29,20.94Z"/><circle class="cls-2" cx="26.64" cy="90.3" r="26.64"/><circle class="cls-5" cx="26.64" cy="90.3" r="19.8"/><circle class="cls-6" cx="26.64" cy="87.06" r="14.74"/><path class="cls-7" d="M26.64,77A19.81,19.81,0,0,1,46.18,93.53a20.21,20.21,0,0,0,.26-3.23,19.8,19.8,0,0,0-39.6,0,19.11,19.11,0,0,0,.27,3.23A19.8,19.8,0,0,1,26.64,77Z"/><path class="cls-3" d="M26.64,106.86A19.8,19.8,0,0,1,6.91,88.68c0,.53-.07,1.07-.07,1.62a19.8,19.8,0,1,0,39.6,0c0-.55,0-1.09-.07-1.62A19.79,19.79,0,0,1,26.64,106.86Z"/><path class="cls-2" d="M103.57,0a15.26,15.26,0,0,1,14.48,10.44L129.57,42.6h0c.09.24.18.48.26.73l0,.1c.08.22.15.45.21.67a1.21,1.21,0,0,1,.05.18c.06.21.11.42.17.64s0,.16.05.25.09.39.13.58l.06.34c0,.17.06.35.08.53l.06.42c0,.15,0,.31.05.46s0,.37,0,.55l0,.36c0,.31,0,.62,0,.93a18.89,18.89,0,0,1-4.41,12.15c-.36.43-.74.85-1.14,1.25a18.48,18.48,0,0,1-2.06,1.79,18.92,18.92,0,0,1-11.34,3.76c-.32,0-.63,0-.94,0l-.32,0-.61,0-.37,0-.55-.07-.39-.07a4.54,4.54,0,0,1-.51-.09l-.4-.08-.48-.11-.41-.11-.46-.13-.41-.13-.44-.15-.41-.15-.42-.16-.41-.17-.4-.18-.41-.2-.36-.18-.43-.23a3.07,3.07,0,0,1-.31-.17l-.46-.27-.18-.12a20.67,20.67,0,0,1-1.88-1.34l0,0-.54-.46-.11-.1-.5-.46-.13-.13-.47-.48L98,62.27l-.45-.51-.12-.13c-.15-.17-.29-.35-.43-.53a1.13,1.13,0,0,1-.1-.13c-.15-.18-.29-.37-.43-.57l-.07-.1c-.15-.2-.29-.41-.42-.62l0-.06a18.78,18.78,0,0,1-2.88-8h0c0-.22-.07-.45-.09-.68L88.49,17.69a16.12,16.12,0,0,1-.19-2.42A15.27,15.27,0,0,1,103.57,0Z"/><path class="cls-3" d="M130.79,48.41l0-.36c0-.18,0-.37,0-.55s0-.31-.05-.46l-.06-.42c0-.18-.05-.36-.08-.53l-.06-.34c0-.19-.08-.39-.13-.58s0-.17-.05-.25-.11-.43-.17-.64a1.21,1.21,0,0,0-.05-.18c-.06-.22-.13-.45-.21-.67l0-.1c-.08-.25-.17-.49-.26-.73h0L118.05,10.44A15.26,15.26,0,0,0,103.57,0a14.7,14.7,0,0,0-1.63.09,15.28,15.28,0,0,1,12.88,10.35L126.33,42.6h0c.1.24.18.48.26.73a.3.3,0,0,1,0,.1l.21.67a1.21,1.21,0,0,0,0,.18c0,.21.11.42.16.64l.06.25.12.58.06.34.09.53c0,.14,0,.28.05.42s0,.31,0,.46,0,.37,0,.55,0,.24,0,.36c0,.31,0,.62,0,.93a18.88,18.88,0,0,1-4.4,12.15c-.37.43-.75.85-1.15,1.25A18.48,18.48,0,0,1,120,64.53a18.82,18.82,0,0,1-9.7,3.69l.34,0,.32,0c.31,0,.62,0,.94,0a18.92,18.92,0,0,0,11.34-3.76,18.48,18.48,0,0,0,2.06-1.79c.4-.4.78-.82,1.14-1.25a18.89,18.89,0,0,0,4.41-12.15C130.81,49,130.8,48.72,130.79,48.41Z"/><path class="cls-3" d="M146.85,80.82A26.64,26.64,0,1,1,95.51,93.53c-.05-.31-.09-.63-.13-1L89.11,45.81a21.18,21.18,0,0,1-.27-3.4,21.46,21.46,0,0,1,41.82-6.8Z"/><path class="cls-4" d="M146.85,80.82,130.66,35.61A21.47,21.47,0,0,0,110.3,20.94c-.53,0-1.06,0-1.58.07a21.47,21.47,0,0,1,18.71,14.6l16.18,45.21a26.62,26.62,0,0,1-23.27,36.07c.53,0,1.07,0,1.61,0a26.65,26.65,0,0,0,24.9-36.12Z"/><path class="cls-2" d="M102,93.53c0-.31-.09-.63-.12-1L95.58,45.81a21.18,21.18,0,0,1-.27-3.4,21.46,21.46,0,0,1,18.22-21.22A21.43,21.43,0,0,0,88.84,42.41a21.18,21.18,0,0,0,.27,3.4l6.27,46.77c0,.32.08.64.13,1a26.61,26.61,0,0,0,29.67,23.21A26.65,26.65,0,0,1,102,93.53Z"/><circle class="cls-2" cx="121.95" cy="90.3" r="26.64"/><circle class="cls-5" cx="121.95" cy="90.3" r="19.8"/><circle class="cls-6" cx="121.95" cy="87.06" r="14.74"/><path class="cls-7" d="M122,77a19.82,19.82,0,0,1,19.54,16.56,20.21,20.21,0,0,0,.26-3.23,19.8,19.8,0,0,0-39.6,0,19.11,19.11,0,0,0,.27,3.23A19.8,19.8,0,0,1,122,77Z"/><path class="cls-3" d="M122,106.86a19.79,19.79,0,0,1-19.73-18.18c0,.53-.07,1.07-.07,1.62a19.8,19.8,0,0,0,39.6,0c0-.55,0-1.09-.07-1.62A19.79,19.79,0,0,1,122,106.86Z"/><path class="cls-2" d="M58.3,74.76A8.21,8.21,0,0,0,58,76.31H90.58a8.21,8.21,0,0,0-.29-1.55L79.89,40.05c-.08-1.51-2.55-2.73-5.59-2.73s-5.52,1.22-5.59,2.73Z"/><path class="cls-3" d="M66.51,74.76c-.09.5-.14,1.55-.14,1.55H82.22s0-1-.14-1.55L77,40.05a2.72,2.72,0,1,0-5.44,0Z"/><circle class="cls-2" cx="74.3" cy="71.35" r="15.21"/><circle class="cls-3" cx="74.3" cy="71.35" r="9.47"/></g></g></svg>