<svg xmlns="http://www.w3.org/2000/svg" viewBox="0 0 58.21 45.81"><defs><style>.cls-1{fill:#ee2a7b;}.cls-2{fill:#e54355;}.cls-3{fill:#e85a6a;}.cls-4{fill:#f9ed32;}.cls-5{fill:#f6cc1b;}</style></defs><g id="Layer_2" data-name="Layer 2"><g id="text_and_icons" data-name="text and icons"><rect class="cls-1" x="16.01" y="21.51" width="26.2" height="8.45"/><rect class="cls-2" x="16.01" y="15.55" width="26.2" height="8.45"/><path class="cls-1" d="M17.64,0A6,6,0,0,0,12,4.09L7.45,16.69h0l-.1.28v0a2.76,2.76,0,0,0-.08.27l0,.07a2.17,2.17,0,0,0-.07.24s0,.07,0,.1,0,.16-.05.23a.69.69,0,0,0,0,.13c0,.07,0,.14,0,.21a1,1,0,0,1,0,.17,1.1,1.1,0,0,1,0,.18,1.48,1.48,0,0,0,0,.21A.71.71,0,0,0,7,19c0,.12,0,.25,0,.37a7.44,7.44,0,0,0,1.72,4.76c.14.17.29.33.45.49a7.83,7.83,0,0,0,.81.7,7.42,7.42,0,0,0,4.44,1.47h.49l.24,0,.15,0,.21,0,.15,0,.2,0,.16,0,.19,0,.16,0,.18,0,.16-.05.17-.06.16-.06.17-.06.16-.07.15-.07.17-.07.14-.08.17-.08.12-.07.18-.11.07,0a7.54,7.54,0,0,0,.73-.53h0l.21-.18.05,0,.19-.18a.12.12,0,0,0,0-.05,1.7,1.7,0,0,0,.19-.19l.05-.05.18-.2,0-.05.17-.21,0-.05.17-.22,0,0,.16-.24,0,0a7.46,7.46,0,0,0,1.13-3.12h0l0-.27,1.75-13A6,6,0,0,0,17.64,0Z"/><path class="cls-2" d="M11.22,25.28a7.83,7.83,0,0,1-.81-.7c-.16-.16-.31-.32-.45-.49a7.39,7.39,0,0,1-1.73-4.76c0-.12,0-.25,0-.37a.61.61,0,0,0,0-.14c0-.07,0-.14,0-.21a1.1,1.1,0,0,1,0-.18c0-.06,0-.11,0-.17l0-.21,0-.13c0-.07,0-.15.05-.23a.44.44,0,0,1,0-.1l.06-.24,0-.07A2.76,2.76,0,0,0,8.6,17l0,0c0-.09.06-.19.1-.28h0l4.51-12.6a6,6,0,0,1,5-4.06Q18,0,17.64,0A6,6,0,0,0,12,4.09L7.45,16.69h0l-.1.28v0a2.76,2.76,0,0,0-.08.27l0,.07a2.17,2.17,0,0,0-.07.24s0,.07,0,.1,0,.16-.05.23a.69.69,0,0,0,0,.13c0,.07,0,.14,0,.21a1,1,0,0,1,0,.17,1.1,1.1,0,0,1,0,.18,1.48,1.48,0,0,0,0,.21A.71.71,0,0,0,7,19c0,.12,0,.25,0,.37a7.44,7.44,0,0,0,1.72,4.76c.14.17.29.33.45.49a7.83,7.83,0,0,0,.81.7,7.42,7.42,0,0,0,4.44,1.47H15A7.48,7.48,0,0,1,11.22,25.28Z"/><path class="cls-2" d="M.68,31.66a10.44,10.44,0,1,0,20.11,5c0-.12,0-.25.05-.37L23.3,17.94a8.23,8.23,0,0,0,.11-1.33A8.41,8.41,0,0,0,7,14Z"/><path class="cls-3" d="M1.27,35.37A10.36,10.36,0,0,1,2,31.66L8.29,14a8.42,8.42,0,0,1,7.33-5.72c-.2,0-.41,0-.62,0A8.43,8.43,0,0,0,7,14L.68,31.66a10.44,10.44,0,0,0,9.76,14.15l.63,0A10.44,10.44,0,0,1,1.27,35.37Z"/><path class="cls-1" d="M15,8.2a8.68,8.68,0,0,0-1.26.1,8.4,8.4,0,0,1,7.13,8.31,8.24,8.24,0,0,1-.1,1.33L18.31,36.27c0,.12,0,.25,0,.37a10.45,10.45,0,0,1-9.09,9.09,10.69,10.69,0,0,0,1.27.08,10.43,10.43,0,0,0,10.35-9.17c0-.12,0-.25.05-.37L23.3,17.94a8.23,8.23,0,0,0,.11-1.33A8.42,8.42,0,0,0,15,8.2Z"/><circle class="cls-1" cx="10.44" cy="35.37" r="10.44"/><circle class="cls-4" cx="10.44" cy="35.37" r="7.76"/><circle class="cls-4" cx="10.44" cy="34.1" r="5.77"/><path class="cls-5" d="M10.44,30.15a7.76,7.76,0,0,1,7.65,6.49,7.59,7.59,0,0,0,.1-1.27,7.76,7.76,0,0,0-15.51,0,8.82,8.82,0,0,0,.1,1.27A7.76,7.76,0,0,1,10.44,30.15Z"/><path class="cls-2" d="M10.44,41.86a7.75,7.75,0,0,1-7.73-7.12q0,.32,0,.63a7.76,7.76,0,1,0,15.51,0c0-.21,0-.42,0-.63A7.76,7.76,0,0,1,10.44,41.86Z"/><path class="cls-1" d="M40.57,0a6,6,0,0,1,5.67,4.09l4.52,12.6h0l.1.28v0a2.76,2.76,0,0,1,.08.27l0,.07a2.17,2.17,0,0,1,.07.24.3.3,0,0,0,0,.1c0,.08,0,.16,0,.23s0,.09,0,.13l0,.21,0,.17a1.1,1.1,0,0,0,0,.18c0,.07,0,.14,0,.21a.71.71,0,0,1,0,.14c0,.12,0,.25,0,.37a7.44,7.44,0,0,1-1.72,4.76l-.45.49a7.83,7.83,0,0,1-.81.7,7.44,7.44,0,0,1-4.44,1.47h-.49l-.25,0-.14,0-.21,0-.16,0-.2,0-.15,0-.19,0-.16,0-.18,0-.16-.05-.18-.06-.16-.06L41,26.21l-.16-.07-.16-.07L40.55,26l-.14-.08-.17-.08-.12-.07-.18-.11-.07,0a7.54,7.54,0,0,1-.73-.53h0l-.21-.18a.1.1,0,0,1-.05,0l-.19-.18-.06-.05-.18-.19,0-.05-.18-.2,0-.05L38,23.93l0-.05a1.84,1.84,0,0,1-.17-.22l0,0-.16-.24,0,0a7.33,7.33,0,0,1-1.13-3.12h0a2.51,2.51,0,0,1,0-.27l-1.75-13A7.45,7.45,0,0,1,34.59,6,6,6,0,0,1,40.57,0Z"/><path class="cls-2" d="M51.23,19a.71.71,0,0,0,0-.14c0-.07,0-.14,0-.21a1.1,1.1,0,0,1,0-.18l0-.17,0-.21s0-.08,0-.13,0-.15,0-.23a.3.3,0,0,1,0-.1,2.17,2.17,0,0,0-.07-.24l0-.07a2.76,2.76,0,0,0-.08-.27v0l-.1-.28h0L46.24,4.09A6,6,0,0,0,40.57,0c-.21,0-.43,0-.64,0a6,6,0,0,1,5,4.06l4.51,12.6h0l.1.28v0a2.76,2.76,0,0,1,.08.27l0,.07a2.17,2.17,0,0,1,.07.24s0,.07,0,.1,0,.16.05.23a.69.69,0,0,1,0,.13c0,.07,0,.14,0,.21a1,1,0,0,0,0,.17c0,.06,0,.12,0,.18s0,.14,0,.21A.61.61,0,0,0,50,19v.37a7.38,7.38,0,0,1-1.72,4.76c-.14.17-.29.33-.45.49a7.83,7.83,0,0,1-.81.7,7.52,7.52,0,0,1-3.8,1.45h.63a7.44,7.44,0,0,0,4.44-1.47,7.83,7.83,0,0,0,.81-.7l.45-.49a7.44,7.44,0,0,0,1.72-4.76C51.24,19.21,51.24,19.08,51.23,19Z"/><path class="cls-2" d="M57.53,31.66a10.58,10.58,0,0,1,.68,3.71,10.44,10.44,0,0,1-20.8,1.27c0-.12,0-.25,0-.37L34.91,17.94a8.23,8.23,0,0,1-.11-1.33A8.41,8.41,0,0,1,51.18,14Z"/><path class="cls-3" d="M57.53,31.66,51.18,14a8.4,8.4,0,0,0-8-5.75c-.21,0-.42,0-.62,0A8.42,8.42,0,0,1,49.92,14l6.34,17.71a10.44,10.44,0,0,1-9.12,14.13l.63,0A10.43,10.43,0,0,0,58.21,35.37,10.58,10.58,0,0,0,57.53,31.66Z"/><path class="cls-1" d="M40,36.64c0-.12,0-.25-.05-.37L37.44,17.94a8.24,8.24,0,0,1-.1-1.33A8.4,8.4,0,0,1,44.47,8.3a8.68,8.68,0,0,0-1.26-.1,8.41,8.41,0,0,0-8.41,8.41,8.23,8.23,0,0,0,.11,1.33l2.45,18.33c0,.12,0,.25,0,.37a10.44,10.44,0,0,0,10.36,9.17A10.69,10.69,0,0,0,49,45.73,10.44,10.44,0,0,1,40,36.64Z"/><circle class="cls-1" cx="47.77" cy="35.37" r="10.44"/><circle class="cls-4" cx="47.77" cy="35.37" r="7.76"/><circle class="cls-4" cx="47.77" cy="34.1" r="5.77"/><path class="cls-5" d="M47.77,30.15a7.75,7.75,0,0,1,7.65,6.49,7.59,7.59,0,0,0,.11-1.27,7.76,7.76,0,0,0-15.52,0,7.59,7.59,0,0,0,.11,1.27A7.75,7.75,0,0,1,47.77,30.15Z"/><path class="cls-2" d="M47.77,41.86A7.76,7.76,0,0,1,40,34.74c0,.21,0,.42,0,.63a7.76,7.76,0,1,0,15.52,0q0-.32,0-.63A7.75,7.75,0,0,1,47.77,41.86Z"/><path class="cls-1" d="M22.84,29.29a2.85,2.85,0,0,0-.12.6H35.48a3.38,3.38,0,0,0-.11-.6l-4.08-13.6c0-.59-1-1.07-2.19-1.07s-2.16.48-2.19,1.07Z"/><path class="cls-2" d="M26.05,29.29c0,.19-.05.6-.05.6h6.21a5.47,5.47,0,0,0-.06-.6l-2-13.6a1.07,1.07,0,1,0-2.13,0Z"/><circle class="cls-1" cx="29.1" cy="27.95" r="5.96"/><circle class="cls-2" cx="29.1" cy="27.95" r="3.71"/></g></g></svg>