<svg xmlns="http://www.w3.org/2000/svg" viewBox="0 0 53.08 50.98"><defs><style>.cls-1{fill:#f6cc1b;}.cls-2{fill:#eb8b23;}.cls-3{fill:#8b5697;}.cls-4{fill:#f9db60;}.cls-5{fill:#ee818d;}.cls-6{fill:#e54355;}.cls-7{fill:#6c2a7b;}.cls-8{fill:#fff;}.cls-9{fill:#c66198;}</style></defs><g id="Layer_2" data-name="Layer 2"><g id="text_and_icons" data-name="text and icons"><rect class="cls-1" width="53.08" height="39.48" rx="19.74"/><rect class="cls-2" x="0.8" y="1.01" width="51.48" height="37.46" rx="18.73"/><rect class="cls-1" x="2.77" y="3.05" width="47.55" height="31.18" rx="15.59"/><rect class="cls-3" x="3.65" y="3.83" width="45.78" height="29.5" rx="14.75"/><path class="cls-2" d="M19.36,46.18H33.72a4,4,0,0,1,4,4v0a.8.8,0,0,1-.8.8H16.16a.8.8,0,0,1-.8-.8v0A4,4,0,0,1,19.36,46.18Z"/><path class="cls-4" d="M35.12,47.79H18a3.09,3.09,0,0,0-2.6,1.41v1.16A.62.62,0,0,0,16,51H37.1a.62.62,0,0,0,.62-.62V49.2A3.09,3.09,0,0,0,35.12,47.79Z"/><rect class="cls-5" x="20.85" y="39.48" width="11.38" height="6.7"/><rect class="cls-6" x="20.85" y="39.48" width="11.38" height="1.77"/><circle class="cls-5" cx="26.54" cy="36.31" r="1.24"/><path class="cls-6" d="M26.54,37.08a1.23,1.23,0,0,1-1.21-1,.91.91,0,0,0,0,.23,1.24,1.24,0,1,0,2.47,0,.9.9,0,0,0,0-.23A1.23,1.23,0,0,1,26.54,37.08Z"/><path class="cls-7" d="M42.44,10.27a3.16,3.16,0,0,0-3.15,3.16,2.81,2.81,0,0,0,0,.5L33.74,17.3A3.15,3.15,0,0,0,29,18.47l-4.76-.27a3.15,3.15,0,0,0-6.14,1,3.1,3.1,0,0,0,.13.92l-6,4.88a3,3,0,0,0-1.53-.4,3.15,3.15,0,1,0,3.15,3.15,3.1,3.1,0,0,0-.14-.92l6-4.88a3.1,3.1,0,0,0,1.54.4,3.14,3.14,0,0,0,2.85-1.81l4.76.28a3.15,3.15,0,0,0,6.14-1,2.74,2.74,0,0,0,0-.5L40.55,16a3.15,3.15,0,1,0,1.89-5.68Z"/><polygon class="cls-8" points="11.38 27.5 9.9 25.66 20.85 16.83 31.54 17.44 41.83 11.24 43.05 13.26 32.14 19.84 21.63 19.23 11.38 27.5"/><circle class="cls-8" cx="10.64" cy="26.58" r="3.15"/><circle class="cls-8" cx="21.24" cy="18.03" r="3.15"/><circle class="cls-8" cx="31.84" cy="18.64" r="3.15"/><circle class="cls-8" cx="42.44" cy="12.25" r="3.15"/><circle class="cls-8" cx="21.24" cy="18.5" r="2.23"/><circle class="cls-8" cx="10.64" cy="27.05" r="2.23"/><circle class="cls-8" cx="31.84" cy="19.05" r="2.23"/><circle class="cls-8" cx="42.44" cy="12.72" r="2.23"/><circle class="cls-5" cx="21.24" cy="18.03" r="2.23"/><circle class="cls-9" cx="10.64" cy="26.58" r="2.23"/><circle class="cls-9" cx="31.84" cy="18.58" r="2.23"/><circle class="cls-5" cx="42.44" cy="12.25" r="2.23"/></g></g></svg>