<svg xmlns="http://www.w3.org/2000/svg" viewBox="0 0 62.98 65.74"><defs><style>.cls-1{fill:#eb8b23;}.cls-2{fill:#f9db60;}.cls-3{fill:#f6cc1b;}.cls-4{fill:#fae58d;}.cls-5{fill:#bf4d8b;}.cls-6{fill:#c96a9e;}.cls-7{fill:#fae4cc;}.cls-8{fill:#e54355;}.cls-9{fill:#fcf0e2;}</style></defs><g id="Layer_2" data-name="Layer 2"><g id="chart"><circle class="cls-1" cx="31.49" cy="34.25" r="31.49"/><circle class="cls-2" cx="31.49" cy="31.49" r="31.49"/><path class="cls-3" d="M56.9,31.62a25.41,25.41,0,0,1-40.29,20.6c-.22-.15-.43-.31-.63-.47A25.41,25.41,0,1,1,56.9,31.62Z"/><path class="cls-1" d="M46.51,47.2l-2.15-7.15a14.86,14.86,0,0,0,1.8-4.34l6.57-3.53-6.57-3.53a14.86,14.86,0,0,0-1.8-4.34l2.15-7.15-7.15,2.15A14.81,14.81,0,0,0,35,17.51l-3.53-6.57L28,17.51a14.59,14.59,0,0,0-4.34,1.8l-7.15-2.15,2.15,7.15a14.59,14.59,0,0,0-1.8,4.34l-6.57,3.53,6.57,3.53a14.59,14.59,0,0,0,1.8,4.34L16.47,47.2l7.15-2.15A14.86,14.86,0,0,0,28,46.85l3.53,6.57L35,46.85a15.09,15.09,0,0,0,4.34-1.8Zm-27.35-15A12.33,12.33,0,1,1,31.49,44.51,12.34,12.34,0,0,1,19.16,32.18Z"/><path class="cls-4" d="M31.49,46.58A15.09,15.09,0,1,1,46.58,31.49,15.11,15.11,0,0,1,31.49,46.58Zm0-27.42A12.33,12.33,0,1,0,43.82,31.49,12.34,12.34,0,0,0,31.49,19.16Z"/><path class="cls-1" d="M31.49,8.84a25.41,25.41,0,0,1,25.37,24c0-.46,0-.92,0-1.38a25.41,25.41,0,0,0-50.82,0q0,.69,0,1.38A25.42,25.42,0,0,1,31.49,8.84Z"/><polygon class="cls-4" points="35.7 18.08 27.28 18.08 31.49 10.24 35.7 18.08"/><polygon class="cls-4" points="27.28 44.9 35.7 44.9 31.49 52.73 27.28 44.9"/><polygon class="cls-4" points="44.9 35.7 44.9 27.28 52.73 31.49 44.9 35.7"/><polygon class="cls-4" points="18.08 27.28 18.08 35.7 10.24 31.49 18.08 27.28"/><polygon class="cls-4" points="19.03 37.99 24.99 43.95 16.47 46.51 19.03 37.99"/><polygon class="cls-4" points="43.95 24.99 37.99 19.03 46.51 16.47 43.95 24.99"/><polygon class="cls-4" points="37.99 43.95 43.95 37.99 46.51 46.51 37.99 43.95"/><polygon class="cls-4" points="24.99 19.03 19.03 24.99 16.47 16.47 24.99 19.03"/><path class="cls-1" d="M47,18.8v2.63L35.53,41,16.61,52.09c-.22-.15-.43-.31-.63-.47V49.83l2.74-4.68,8.73-14.87Z"/><path class="cls-3" d="M40.21,22.79a12.35,12.35,0,0,1,3,5l1.76-3c-.2-.4-.42-.8-.66-1.19l1.19-4Z"/><path class="cls-3" d="M22.07,39.44l-3.35,5.71-.48.83,5.38-1.62a15.27,15.27,0,0,0,3.49,1.57l3.63-2.13A12.33,12.33,0,0,1,22.07,39.44Z"/><polygon class="cls-5" points="27.45 30.14 35.53 38.23 47 18.67 47 16.04 27.45 27.52 27.45 30.14"/><polygon class="cls-6" points="47 16.04 27.45 27.52 35.53 35.6 47 16.04"/><polygon class="cls-7" points="35.53 35.6 27.45 27.52 15.97 47.07 15.97 49.7 35.53 38.23 35.53 35.6"/><polygon class="cls-8" points="15.97 47.07 35.53 35.6 27.45 27.52 15.97 47.07"/><circle class="cls-9" cx="31.49" cy="31.56" r="3.02"/><path class="cls-7" d="M29.35,29.81a3,3,0,0,1,4.28,0,3,3,0,0,1,.87,1.94,3,3,0,0,0-.87-2.33,3,3,0,0,0-4.28,0,3,3,0,0,0-.87,2.33A3,3,0,0,1,29.35,29.81Z"/><path class="cls-7" d="M29.73,31.55a1.73,1.73,0,0,0,.51,1.25,1.76,1.76,0,0,0,3-1.25v-.64a1.79,1.79,0,0,0-.51-1.26,1.76,1.76,0,0,0-3,1.26Z"/><circle class="cls-8" cx="31.49" cy="30.9" r="1.76"/></g></g></svg>