<svg xmlns="http://www.w3.org/2000/svg" viewBox="0 0 48.5 53.91"><defs><style>.cls-1{fill:#fff;}.cls-2{fill:#8d6a9f;}.cls-3{fill:#9b7dab;}.cls-4{fill:#794f8d;}.cls-5{fill:#5f2c79;}</style></defs><g id="Layer_2" data-name="Layer 2"><g id="text_and_icons" data-name="text and icons"><path class="cls-1" d="M39.86,12.09V48.47a2,2,0,0,1-2,2H2a2,2,0,0,1-2-2V2A2,2,0,0,1,2,0H27.77Z"/><path class="cls-1" d="M39.86,12.09H29.77a2,2,0,0,1-2-2V0Z"/><rect class="cls-1" x="5.73" y="12.09" width="14.6" height="2.16" rx="1.08"/><rect class="cls-1" x="5.73" y="18.23" width="27.95" height="2.16" rx="1.08"/><rect class="cls-1" x="5.73" y="22.5" width="27.95" height="2.16" rx="1.08"/><rect class="cls-1" x="5.73" y="26.77" width="27.95" height="2.16" rx="1.08"/><rect class="cls-1" x="5.73" y="31.05" width="27.95" height="2.16" rx="1.08"/><rect class="cls-1" x="5.73" y="7.99" width="14.6" height="2.16" rx="1.08"/><rect class="cls-1" x="5.73" y="37.9" width="9.26" height="2.16" rx="1.08"/><rect class="cls-1" x="24.42" y="37.9" width="9.26" height="2.16" rx="1.08"/><path class="cls-1" d="M39.86,17.18v2.05a3.49,3.49,0,0,0-.69.23,16.48,16.48,0,0,0-4.4,3.24,22,22,0,0,0-1.83,2.1l0,0a.93.93,0,0,1,0,.1L33,25a.3.3,0,0,1,0,.1l0,.06,0,.11a.14.14,0,0,0,0,.06s0,.08,0,.12a.13.13,0,0,1,0,.06.53.53,0,0,1,0,.13v.1h0v.11a.2.2,0,0,0,0,.07v0a1.06,1.06,0,0,1,0,.19h0a1.46,1.46,0,0,1-.07.19v0a1.09,1.09,0,0,1-.08.15s0,0,0,0a.83.83,0,0,1-.08.12l0,.05-.14.15a1.7,1.7,0,0,1-2.41,0l-.14-.15,0-.05a.83.83,0,0,1-.08-.12l0,0a1.09,1.09,0,0,1-.08-.15v0a1.46,1.46,0,0,1-.07-.19h0a1.06,1.06,0,0,1,0-.19v0a.64.64,0,0,1,0-.07v-.11h0v-.1a.53.53,0,0,1,0-.13.13.13,0,0,1,0-.06.5.5,0,0,1,0-.12s0,0,0-.06l0-.11,0-.06a.3.3,0,0,1,0-.1l0-.07a.93.93,0,0,1,.05-.1l0-.06.07-.1,0,0,.13-.15A1.71,1.71,0,0,1,31.69,24a20.93,20.93,0,0,1,2-2.35C35.57,19.8,37.82,17.88,39.86,17.18Z"/><path class="cls-1" d="M39.86,30.41,36.47,33.8a.67.67,0,0,1,0,.91l-2.4,2.4a.68.68,0,0,1-.92,0l-5,5a1.05,1.05,0,0,1-1.45,1.33l-8,6.75.09.09a.59.59,0,0,1,.13.19H11.48l.4-.81,3-1.47-.65-.64a.63.63,0,0,1,.89-.89l.09.09,6.74-8a1.06,1.06,0,0,1,1.33-1.45l5-5a.68.68,0,0,1,0-.92l2.4-2.4a.66.66,0,0,1,.91,0l8.23-8.23Z"/><path class="cls-2" d="M30.43,23.3A18.9,18.9,0,0,1,33.72,19c3.08-3.07,7.24-6.33,9.7-3.87l-1.83,1.82a2.23,2.23,0,0,0-2.42-.14A16.48,16.48,0,0,0,34.77,20a17.29,17.29,0,0,0-3,4Z"/><path class="cls-3" d="M33.72,19.25c3-3,7.09-6.21,9.56-4l.14-.13c-2.46-2.46-6.62.8-9.7,3.87a18.9,18.9,0,0,0-3.29,4.32l.11.06A18.68,18.68,0,0,1,33.72,19.25Z"/><path class="cls-4" d="M39.23,16.22A19.55,19.55,0,0,0,34,20.11a22.89,22.89,0,0,0-2.9,3.52l.69.36a17.29,17.29,0,0,1,3-4,16.48,16.48,0,0,1,4.4-3.24,2.23,2.23,0,0,1,2.42.14l.54-.54A2.7,2.7,0,0,0,39.23,16.22Z"/><path class="cls-2" d="M36.27,10.61h0A3.42,3.42,0,0,1,39.7,14V42.36a0,0,0,0,1,0,0H32.85a0,0,0,0,1,0,0V14a3.42,3.42,0,0,1,3.42-3.42Z" transform="translate(29.35 -17.89) rotate(45)"/><path class="cls-3" d="M43.23,15.83a3.43,3.43,0,0,1,4.54-.27,2.52,2.52,0,0,0-.27-.3h0a3.42,3.42,0,0,0-4.84,0l-20,20,.58.57Z"/><path class="cls-4" d="M47.5,15.26h0a3.5,3.5,0,0,0-1-.68,3.44,3.44,0,0,1-.67,3.89l-20,20,1.63,1.64,20-20A3.42,3.42,0,0,0,47.5,15.26Z"/><rect class="cls-4" x="28.33" y="28.01" width="8.1" height="4.73" rx="2.36" transform="translate(30.96 -14) rotate(45)"/><path class="cls-2" d="M29,29.38l2.4-2.4a.66.66,0,0,1,.94,0l-.67-.67a.66.66,0,0,0-.94,0l-2.4,2.4a.66.66,0,0,0,0,.94l.67.68A.68.68,0,0,1,29,29.38Z"/><path class="cls-5" d="M36.45,31.1,35,29.65a.68.68,0,0,1,0,1L32.6,33a.66.66,0,0,1-.94,0l1.44,1.44a.68.68,0,0,0,.95,0l2.4-2.4A.66.66,0,0,0,36.45,31.1Z"/><polygon class="cls-4" points="18.68 47.52 15.24 44.08 22.63 35.29 27.47 40.13 18.68 47.52"/><polygon class="cls-2" points="15.8 44.64 23.19 35.85 22.63 35.29 15.24 44.08 18.68 47.52 18.68 47.52 15.8 44.64"/><polygon class="cls-5" points="26.12 38.78 17.33 46.16 18.68 47.52 27.47 40.13 26.12 38.78"/><rect class="cls-4" x="21" y="36.65" width="8.1" height="2.12" rx="1.06" transform="translate(34 -6.67) rotate(45)"/><path class="cls-2" d="M22.87,35.53a1.05,1.05,0,0,1,1.5,0l-.69-.69a1.06,1.06,0,0,0-1.49,1.5l.68.68A1.06,1.06,0,0,1,22.87,35.53Z"/><path class="cls-5" d="M27.91,39.07l-1.24-1.24a1.07,1.07,0,0,1,0,1.5h0a1.07,1.07,0,0,1-1.5,0l1.25,1.24a1.06,1.06,0,0,0,1.49,0h0A1.05,1.05,0,0,0,27.91,39.07Z"/><polygon class="cls-4" points="9.61 53.91 8.85 53.15 11.88 46.99 14.91 45.52 17.23 47.85 15.77 50.88 9.61 53.91"/><polygon class="cls-2" points="15.35 45.97 14.91 45.52 11.88 46.99 8.85 53.15 9.29 53.59 12.32 47.43 15.35 45.97"/><polygon class="cls-5" points="14.91 45.52 14.91 45.52 16.82 47.44 15.36 50.47 9.2 53.5 9.61 53.91 15.77 50.88 17.23 47.85 14.91 45.52"/><circle class="cls-1" cx="13.51" cy="49.25" r="1.18"/><rect class="cls-3" x="13.33" y="45.61" width="6.38" height="1.26" rx="0.63" transform="translate(37.53 1.87) rotate(45)"/><path class="cls-2" d="M18.77,47.61,17.5,46.33a.64.64,0,0,1,0,.89.62.62,0,0,1-.89,0l1.27,1.28a.64.64,0,0,0,.89,0A.62.62,0,0,0,18.77,47.61Z"/><circle class="cls-2" cx="31.49" cy="23.02" r="1.71"/><path class="cls-3" d="M30.28,22.15a1.7,1.7,0,0,1,2.41,0,1.73,1.73,0,0,1,.5,1,1.74,1.74,0,0,0-.5-1.38,1.7,1.7,0,0,0-2.9,1.38A1.66,1.66,0,0,1,30.28,22.15Z"/><path class="cls-4" d="M32.69,23.49a1.7,1.7,0,0,1-2.87-.84,1.71,1.71,0,1,0,3.33,0A1.71,1.71,0,0,1,32.69,23.49Z"/></g></g></svg>