<svg xmlns="http://www.w3.org/2000/svg" viewBox="0 0 54.66 45.41"><defs><style>.cls-1{fill:#f9db60;}.cls-2{fill:#fae58d;}.cls-3{fill:#f6cc1b;}.cls-4{fill:#fff;}.cls-5{fill:#ea8a23;}.cls-6{fill:#c96a9d;}.cls-7{fill:#c04d8a;}.cls-8{fill:#ae206e;}</style></defs><g id="Layer_2" data-name="Layer 2"><g id="text_and_icons" data-name="text and icons"><rect class="cls-1" x="3.22" y="30.31" width="48.22" height="10.07"/><rect class="cls-2" x="0.29" y="40.38" width="54.08" height="5.03" rx="2.31"/><path class="cls-3" d="M51.85,43.07h-49A2.51,2.51,0,0,1,.58,41.73a2.51,2.51,0,0,0,2.23,3.68h49a2.51,2.51,0,0,0,2.23-3.68A2.51,2.51,0,0,1,51.85,43.07Z"/><rect class="cls-1" x="0.29" y="25.28" width="54.08" height="5.03" rx="2.31"/><path class="cls-3" d="M51.85,28h-49A2.51,2.51,0,0,1,.58,26.63,2.56,2.56,0,0,0,.29,27.8a2.51,2.51,0,0,0,2.52,2.51h49a2.51,2.51,0,0,0,2.52-2.51,2.56,2.56,0,0,0-.29-1.17A2.51,2.51,0,0,1,51.85,28Z"/><path class="cls-3" d="M11,36.27s0-.07,0-.11a.64.64,0,0,0,0-.07.94.94,0,0,0,0-.16h0a2,2,0,0,0-3.86,0h0a.94.94,0,0,0,0,.16s0,0,0,.07a.43.43,0,0,0,0,.11s0,0,0,.07,0,.12,0,.18H7a2,2,0,0,0,1.42,1.93,2.35,2.35,0,0,0,.6.09H9a2,2,0,0,0,2-2,1.09,1.09,0,0,0,0-.18A.17.17,0,0,0,11,36.27Z"/><path class="cls-3" d="M47.66,36.52c0-.06,0-.12,0-.18s0-.05,0-.07a.43.43,0,0,0,0-.11s0,0,0-.07a.94.94,0,0,0,0-.16h0a2,2,0,0,0-3.86,0h0a.94.94,0,0,0,0,.16.64.64,0,0,0,0,.07s0,.07,0,.11a.17.17,0,0,0,0,.07,1.09,1.09,0,0,0,0,.18h0a2,2,0,0,0,.73,1.56l.16.11a2,2,0,0,0,1.13.35h0a2,2,0,0,0,2-2Z"/><path class="cls-3" d="M20.18,36.34v-.07s0-.07,0-.11,0,0,0-.07,0-.11,0-.16h0a2,2,0,0,0-3.87,0h0a.94.94,0,0,1,0,.16.2.2,0,0,1,0,.07s0,.07,0,.11v.07a1.09,1.09,0,0,0,0,.18h0a2,2,0,0,0,.73,1.56.91.91,0,0,0,.16.11,2,2,0,0,0,1.13.35h0a2,2,0,0,0,2-2h0A1.09,1.09,0,0,0,20.18,36.34Z"/><path class="cls-3" d="M29.34,36.34s0-.05,0-.07a.43.43,0,0,0,0-.11.15.15,0,0,0,0-.07.94.94,0,0,0,0-.16h0a2,2,0,0,0-3.86,0h0a.94.94,0,0,0,0,.16.15.15,0,0,0,0,.07.43.43,0,0,0,0,.11s0,0,0,.07,0,.12,0,.18h0a2,2,0,0,0,.74,1.56l.15.11a2,2,0,0,0,1.13.35h0a2,2,0,0,0,2-2h0C29.35,36.46,29.34,36.4,29.34,36.34Z"/><path class="cls-3" d="M38.49,36.34v-.07s0-.07,0-.11a.2.2,0,0,1,0-.07.94.94,0,0,1,0-.16h0a2,2,0,0,0-3.87,0h0s0,.11,0,.16,0,0,0,.07,0,.07,0,.11v.07a1.09,1.09,0,0,0,0,.18h0a2,2,0,0,0,1.05,1.77l.18.09a2.05,2.05,0,0,0,.78.16h0a2,2,0,0,0,2-2h0A1.09,1.09,0,0,0,38.49,36.34Z"/><circle class="cls-4" cx="9.02" cy="35.35" r="2.02"/><path class="cls-4" d="M9,36.2a2,2,0,0,1-1.93-1.44,1.92,1.92,0,0,0-.09.59,2,2,0,0,0,4,0,1.92,1.92,0,0,0-.09-.59A2,2,0,0,1,9,36.2Z"/><circle class="cls-4" cx="18.18" cy="35.35" r="2.02"/><circle class="cls-4" cx="27.33" cy="35.35" r="2.02"/><circle class="cls-4" cx="36.48" cy="35.35" r="2.02"/><circle class="cls-4" cx="45.64" cy="35.35" r="2.02"/><path class="cls-4" d="M18.18,36.2a2,2,0,0,1-1.94-1.44,2.27,2.27,0,0,0-.08.59,2,2,0,1,0,4,0,2.27,2.27,0,0,0-.08-.59A2,2,0,0,1,18.18,36.2Z"/><path class="cls-4" d="M27.33,36.2a2,2,0,0,1-1.93-1.44,1.92,1.92,0,0,0-.09.59,2,2,0,1,0,4,0,1.92,1.92,0,0,0-.09-.59A2,2,0,0,1,27.33,36.2Z"/><path class="cls-4" d="M36.48,36.2a2,2,0,0,1-1.93-1.44,2.27,2.27,0,0,0-.08.59,2,2,0,1,0,4,0,2.27,2.27,0,0,0-.08-.59A2,2,0,0,1,36.48,36.2Z"/><path class="cls-4" d="M45.64,36.2a2,2,0,0,1-1.93-1.44,1.92,1.92,0,0,0-.09.59,2,2,0,1,0,4,0,1.92,1.92,0,0,0-.09-.59A2,2,0,0,1,45.64,36.2Z"/><polygon class="cls-2" points="0 8.47 3.51 25.28 25.6 25.28 0 8.47"/><polygon class="cls-5" points="14.04 25.28 0 8.47 25.6 25.28 14.04 25.28"/><polygon class="cls-3" points="54.66 8.47 51.15 25.28 29.06 25.28 54.66 8.47"/><polygon class="cls-5" points="40.62 25.28 54.66 8.47 29.06 25.28 40.62 25.28"/><polygon class="cls-3" points="45.64 25.28 9.02 25.28 27.33 0 45.64 25.28"/><polygon class="cls-2" points="27.33 0 27.33 25.28 9.02 25.28 27.33 0"/><path class="cls-5" d="M30.94,17.76a1.66,1.66,0,0,1-.33,1L28.7,21.39a1.69,1.69,0,0,1-2.74,0l-1.91-2.64a1.66,1.66,0,0,1-.33-1V16.59L26,14.12a1.69,1.69,0,0,1,2.74,0l2.24,2.47Z"/><path class="cls-6" d="M30.94,16.59a1.66,1.66,0,0,1-.33,1L28.7,20.22a1.69,1.69,0,0,1-2.74,0l-1.91-2.64a1.66,1.66,0,0,1-.33-1,1.69,1.69,0,0,1,.33-1L26,13a1.69,1.69,0,0,1,2.74,0l1.91,2.64A1.69,1.69,0,0,1,30.94,16.59Z"/><path class="cls-7" d="M30.94,16.59H27.33V12.25a1.7,1.7,0,0,1,1.37.7l1.91,2.64A1.69,1.69,0,0,1,30.94,16.59Z"/><path class="cls-7" d="M23.72,16.59h3.61v4.33a1.67,1.67,0,0,1-1.37-.7l-1.91-2.64A1.66,1.66,0,0,1,23.72,16.59Z"/><path class="cls-8" d="M30.94,16.59H27.33v4.33a1.67,1.67,0,0,0,1.37-.7l1.91-2.64A1.66,1.66,0,0,0,30.94,16.59Z"/><rect class="cls-5" x="3.22" y="30.31" width="48.22" height="1.29"/><rect class="cls-3" x="3.22" y="39.09" width="48.22" height="1.29"/></g></g></svg>