<svg id="Layer_1" data-name="Layer 1" xmlns="http://www.w3.org/2000/svg" viewBox="0 0 460.91 481.24"><defs><style>.cls-1{fill:#af206e;}.cls-2{fill:#e54355;}.cls-3{fill:#bb5482;}.cls-4{fill:#c36e92;}.cls-5{fill:#fef5e0;}.cls-6{fill:#f6cc1c;}.cls-7{fill:#ea8b23;}.cls-8{fill:#f9d96f;}</style></defs><path class="cls-1" d="M435.15,242.36s0-.09,0-.13c0-120.16-97.42-217.58-217.58-217.58S0,122.07,0,242.23v21.44C0,383.83,97.42,481.24,217.58,481.24a216.57,216.57,0,0,0,130.14-43.19,218.81,218.81,0,0,0,19-16q7.41-7,14.16-14.65A217,217,0,0,0,435,271.05c0-.12,0-.23,0-.35,0-1.11.07-2.22.09-3.34,0-.69,0-1.38,0-2.07s0-1.08,0-1.62c0,0,0-.07,0-.1s0-.09,0-.14,0-.06,0-.09,0-.09,0-.14,0-.06,0-.09,0-.1,0-.14,0-.07,0-.1,0-.09,0-.14,0-.06,0-.09,0-.09,0-.14,0-.06,0-.09,0-.1,0-.14,0-.07,0-.1,0-.09,0-.14,0-.06,0-.09,0-.09,0-.14,0-.06,0-.09,0-.1,0-.14,0-.06,0-.1,0-.09,0-.13,0-.07,0-.1,0-.09,0-.14,0-.06,0-.09,0-.09,0-.14,0-.06,0-.1,0-.09,0-.13,0-.07,0-.1,0-.09,0-.14,0-.06,0-.09,0-.09,0-.14,0-.06,0-.09,0-.1,0-.14,0-.07,0-.1,0-.09,0-.14,0-.06,0-.09,0-.09,0-.14,0-.06,0-.09,0-.1,0-.14,0-.07,0-.1,0-.09,0-.13,0-.07,0-.1,0-.09,0-.14,0-.06,0-.09,0-.09,0-.14,0-.06,0-.1,0-.09,0-.13,0-.07,0-.1,0-.09,0-.14,0-.06,0-.09,0-.09,0-.14,0-.06,0-.1,0-.09,0-.13,0-.07,0-.1,0-.09,0-.14,0-.06,0-.09,0-.09,0-.14,0-.06,0-.09,0-.1,0-.14,0-.07,0-.1,0-.09,0-.13,0-.07,0-.1,0-.09,0-.14,0-.06,0-.09,0-.1,0-.14,0-.06,0-.1,0-.09,0-.13,0-.07,0-.1,0-.09,0-.14,0-.06,0-.09,0-.09,0-.14,0-.06,0-.1,0-.09,0-.13,0-.07,0-.1,0-.09,0-.14,0-.06,0-.09,0-.09,0-.14,0-.06,0-.1,0-.09,0-.13,0-.07,0-.1,0-.09,0-.13,0-.07,0-.1,0-.09,0-.14,0-.06,0-.09,0-.1,0-.14,0-.07,0-.1,0-.09,0-.13,0-.07,0-.1,0-.09,0-.14,0-.06,0-.09,0-.09,0-.14,0-.06,0-.1,0-.09,0-.13,0-.07,0-.1,0-.09,0-.14,0-.06,0-.09,0-.09,0-.14,0-.06,0-.1,0-.09,0-.13,0-.07,0-.1,0-.09,0-.13,0-.07,0-.1,0-.09,0-.14,0-.06,0-.1,0-.09,0-.13,0-.07,0-.1,0-.09,0-.13,0-.07,0-.1,0-.09,0-.14,0-.06,0-.1,0-.08,0-.13,0-.07,0-.1,0-.09,0-.13,0-.07,0-.1,0-.09,0-.14,0-.06,0-.09,0-.09,0-.14,0-.06,0-.1,0-.09,0-.13,0-.07,0-.1,0-.09,0-.13,0-.07,0-.1,0-.09,0-.14,0-.06,0-.1,0-.09,0-.13,0-.07,0-.1,0-.09,0-.13,0-.07,0-.1,0-.09,0-.14,0-.06,0-.1,0-.09,0-.13,0-.07,0-.1,0-.09,0-.13,0-.07,0-.1,0-.09,0-.14,0-.06,0-.1,0-.08,0-.13,0-.06,0-.1,0-.09,0-.13,0-.07,0-.1,0-.09,0-.13,0-.07,0-.1,0-.09,0-.14,0-.06,0-.1,0-.09,0-.13,0-.07,0-.1,0-.09,0-.13,0-.07,0-.1,0-.09,0-.14,0-.06,0-.1,0-.09,0-.13,0-.07,0-.1,0-.09,0-.13,0-.07,0-.1,0-.09,0-.14,0-.06,0-.1,0-.08,0-.13,0-.07,0-.1,0-.09,0-.13,0-.07,0-.1,0-.09,0-.13,0-.07,0-.11,0-.08,0-.13,0-.06,0-.1,0-.09,0-.13,0-.07,0-.1,0-.09,0-.13,0-.07,0-.1,0-.09,0-.14,0-.06,0-.1,0-.09,0-.13,0-.07,0-.1,0-.09,0-.13,0-.07,0-.1,0-.09,0-.14,0-.06,0-.1,0-.08,0-.13,0-.07,0-.1,0-.09,0-.13,0-.07,0-.1,0-.09,0-.13,0-.07,0-.11,0-.08,0-.13S435.15,242.39,435.15,242.36Z"/><path class="cls-2" d="M428,242.23a210,210,0,0,1-52.46,139q-6.53,7.39-13.7,14.17a212.89,212.89,0,0,1-18.41,15.48,209.45,209.45,0,0,1-125.86,41.77c-116.22,0-210.43-94.21-210.43-210.43a210.43,210.43,0,1,1,420.86,0Z"/><path class="cls-3" d="M377.3,105.21a217.56,217.56,0,0,0-319.44,0,209.62,209.62,0,0,0-50.71,137c0,116.22,94.21,210.43,210.43,210.43a209.45,209.45,0,0,0,125.86-41.77,212.89,212.89,0,0,0,18.41-15.48q7.17-6.77,13.7-14.17a210.44,210.44,0,0,0,1.75-276Zm-159.72,322C121.48,427.22,43.3,349.05,43.3,253S121.48,78.67,217.58,78.67,391.85,156.85,391.85,253,313.68,427.22,217.58,427.22Z"/><path class="cls-4" d="M217.58,24.65C97.42,24.65,0,122.07,0,242.23S97.42,459.81,217.58,459.81a216.58,216.58,0,0,0,130.14-43.2,218.85,218.85,0,0,0,48.59-50.29,216.49,216.49,0,0,0,38.85-124.09C435.16,122.07,337.74,24.65,217.58,24.65Zm0,391.86c-96.1,0-174.28-78.18-174.28-174.28S121.48,68,217.58,68s174.27,78.18,174.27,174.28S313.68,416.51,217.58,416.51Z"/><path class="cls-3" d="M217.58,378.66A125.72,125.72,0,1,1,343.29,253,125.86,125.86,0,0,1,217.58,378.66Zm0-208.56A82.85,82.85,0,1,0,300.42,253,82.95,82.95,0,0,0,217.58,170.1Z"/><path class="cls-4" d="M217.58,367.94A125.72,125.72,0,1,1,343.29,242.23,125.86,125.86,0,0,1,217.58,367.94Zm0-208.55a82.84,82.84,0,1,0,82.84,82.84A82.94,82.94,0,0,0,217.58,159.39Z"/><circle class="cls-4" cx="217.58" cy="242.23" r="37.51"/><path class="cls-5" d="M252,257.08A37.61,37.61,0,0,1,239.09,273l32.24,32.24a83,83,0,0,0,13.76-15.05Z"/><path class="cls-5" d="M366.75,400.61h0l.31-.3Z"/><path class="cls-5" d="M320.3,325.35A127.87,127.87,0,0,1,307.18,341l28.88,28.87a174.75,174.75,0,0,0,14.1-14.7Z"/><path class="cls-5" d="M380.8,386.08l.11-.12h0Z"/><path class="cls-5" d="M370.29,397.19l.16-.15Z"/><path class="cls-3" d="M380.8,386.08l.11-.12-30.75-30.75a174.75,174.75,0,0,1-14.1,14.7l30.69,30.7.31-.3q1.63-1.55,3.23-3.12l.16-.15Q375.8,391.75,380.8,386.08Z"/><path class="cls-3" d="M315.69,320.74l-30.6-30.6a83,83,0,0,1-13.76,15.05l30.38,30.37,5.47,5.48a127.87,127.87,0,0,0,13.12-15.69Z"/><path class="cls-3" d="M228,233a10.22,10.22,0,0,0-12.09-1.72l-.08,0c-.33.19-.67.41-1,.64l-.24.18a10.1,10.1,0,0,0-1,.86c-.25.25-.48.51-.7.77a10.21,10.21,0,0,0,0,12.86c.22.26.45.52.7.78L239.09,273A37.61,37.61,0,0,0,252,257.08Z"/><rect class="cls-6" x="172.18" y="137.07" width="282.96" height="20.36" rx="9.5" transform="translate(-12.25 264.92) rotate(-45)"/><path class="cls-7" d="M406.12,54,220.44,239.71a10.13,10.13,0,0,1-9.52,2.7,10.06,10.06,0,0,0,2.7,4.88,10.18,10.18,0,0,0,14.4,0L413.7,61.61a10.18,10.18,0,0,0,0-14.4,10.07,10.07,0,0,0-4.87-2.7A10.16,10.16,0,0,1,406.12,54Z"/><polygon class="cls-8" points="419.29 41.62 460.91 49.45 393.93 116.43 352.31 108.6 344.48 66.98 411.46 0 419.29 41.62"/><polygon class="cls-6" points="460.91 49.45 393.93 116.43 352.31 108.6 419.29 41.62 460.91 49.45"/></svg>