<svg xmlns="http://www.w3.org/2000/svg" viewBox="0 0 39.02 66.19"><defs><style>.cls-1{fill:#fff;}.cls-2{fill:#794f8d;}.cls-3{fill:#8d6a9f;}.cls-4{fill:#ae206e;}.cls-5{fill:#c04d8a;}.cls-6{fill:#c96a9d;}.cls-7{fill:#f6cc1b;}.cls-8{fill:#ea8a23;}.cls-9{fill:#f9db60;}</style></defs><g id="Layer_2" data-name="Layer 2"><g id="chart"><circle class="cls-1" cx="19.51" cy="19.51" r="19.51"/><path class="cls-1" d="M27.2,49.35V61.2A2.59,2.59,0,0,1,27,62.28a2.54,2.54,0,0,1-2.29,1.45H14.35a2.55,2.55,0,0,1-2.29-1.45,2.59,2.59,0,0,1-.24-1.08V49.35Z"/><path class="cls-1" d="M25,49.35V61.2a3.4,3.4,0,0,1-.17,1.08,1.87,1.87,0,0,1-1.62,1.45h-7.3a1.87,1.87,0,0,1-1.62-1.45,3.4,3.4,0,0,1-.17-1.08V49.35Z"/><path class="cls-1" d="M20.93,66.19H18.09a2.47,2.47,0,0,1-2.29-1.57l-.34-.89h8.1l-.34.89A2.46,2.46,0,0,1,20.93,66.19Z"/><path class="cls-1" d="M20.37,66.19H18.65c-.62,0-1.17-.63-1.4-1.57l-.2-.89H22l-.21.89C21.55,65.56,21,66.19,20.37,66.19Z"/><path class="cls-2" d="M19.35,0a19.51,19.51,0,0,0-15,31.73A25.16,25.16,0,0,1,9.91,46.41a3.91,3.91,0,0,0,.64,2l0,.06a4,4,0,0,0,3.36,1.83H25.12a4,4,0,0,0,3.32-1.78h0a3.9,3.9,0,0,0,.67-2,24.6,24.6,0,0,1,5.5-14.61A19.51,19.51,0,0,0,19.35,0Z"/><path class="cls-3" d="M19.41,0c-7.16.08-13,8.89-12.94,19.59A26,26,0,0,0,9.34,31.73a33.23,33.23,0,0,1,3.75,14.68,5.36,5.36,0,0,0,.43,2l0,.06a2.64,2.64,0,0,0,2.25,1.83h7.47a2.61,2.61,0,0,0,2.22-1.78h0a5.38,5.38,0,0,0,.45-2A32.75,32.75,0,0,1,29.6,31.87a25.89,25.89,0,0,0,2.95-12.36C32.55,8.68,26.66-.08,19.41,0Z"/><rect class="cls-1" x="10.87" y="51.87" width="17.29" height="2.22" rx="1.11"/><path class="cls-1" d="M27.05,52.92H12a1.13,1.13,0,0,1-1-.52,1.15,1.15,0,0,0-.16.58A1.1,1.1,0,0,0,12,54.09H27.05A1.11,1.11,0,0,0,28.16,53,1.16,1.16,0,0,0,28,52.4,1.13,1.13,0,0,1,27.05,52.92Z"/><rect class="cls-1" x="10.87" y="55.34" width="17.29" height="2.22" rx="1.11"/><path class="cls-1" d="M27.05,56.39H12a1.12,1.12,0,0,1-1-.53,1.16,1.16,0,0,0-.16.59A1.11,1.11,0,0,0,12,57.56H27.05a1.11,1.11,0,0,0,1.11-1.11,1.16,1.16,0,0,0-.17-.59A1.11,1.11,0,0,1,27.05,56.39Z"/><rect class="cls-1" x="10.87" y="58.81" width="17.29" height="2.22" rx="1.11"/><path class="cls-1" d="M27.05,59.85H12a1.13,1.13,0,0,1-1-.52,1.16,1.16,0,0,0-.16.59A1.11,1.11,0,0,0,12,61H27.05a1.11,1.11,0,0,0,1.11-1.11,1.16,1.16,0,0,0-.17-.59A1.13,1.13,0,0,1,27.05,59.85Z"/><path class="cls-1" d="M27,62.28a2.54,2.54,0,0,1-2.29,1.45H14.35a2.55,2.55,0,0,1-2.29-1.45Z"/><path class="cls-2" d="M35.79,20h0A16.28,16.28,0,0,0,3.23,20h0a16.29,16.29,0,0,0,26,13,14.77,14.77,0,0,0,1.42-1.2c.37-.35.73-.71,1.06-1.09a16.31,16.31,0,0,0,4.05-10.21v0c0-.08,0-.17,0-.25v-.28h0v0h0v0h0Z"/><path class="cls-4" d="M35.79,18.84h0a16.28,16.28,0,0,0-32.56,0h0a16.29,16.29,0,0,0,26,13.05,18.35,18.35,0,0,0,1.42-1.2c.37-.35.73-.72,1.06-1.1a13.8,13.8,0,0,0,1.15-1.47A16.15,16.15,0,0,0,35.78,21v0c0-.08,0-.16,0-.25v-.27h0v0h0Z"/><path class="cls-1" d="M35.26,18.83a15.66,15.66,0,0,1-2.81,9,17.19,17.19,0,0,1-1.12,1.43c-.32.36-.67.72-1,1.06a16.81,16.81,0,0,1-1.38,1.15,15.74,15.74,0,1,1,6.33-12.62Z"/><path class="cls-5" d="M31.46,8.58a16.29,16.29,0,0,0-23.9,0A15.75,15.75,0,0,0,28.93,31.45a16.81,16.81,0,0,0,1.38-1.15c.35-.34.7-.7,1-1.06a17.19,17.19,0,0,0,1.12-1.43,15.74,15.74,0,0,0-1-19.23ZM19.51,32.68a13,13,0,1,1,13-13A13.06,13.06,0,0,1,19.51,32.68Z"/><path class="cls-6" d="M19.51,2.55A16.28,16.28,0,1,0,35.79,18.83,16.28,16.28,0,0,0,19.51,2.55Zm0,29.32a13,13,0,1,1,13-13A13.06,13.06,0,0,1,19.51,31.87Z"/><path class="cls-5" d="M19.51,29a9.41,9.41,0,1,1,9.41-9.4A9.42,9.42,0,0,1,19.51,29Zm0-15.6a6.2,6.2,0,1,0,6.2,6.2A6.21,6.21,0,0,0,19.51,13.44Z"/><path class="cls-6" d="M19.51,28.24a9.41,9.41,0,1,1,9.41-9.41A9.42,9.42,0,0,1,19.51,28.24Zm0-15.6a6.2,6.2,0,1,0,6.2,6.19A6.2,6.2,0,0,0,19.51,12.64Z"/><circle class="cls-6" cx="19.51" cy="18.83" r="2.81"/><path class="cls-1" d="M22.09,20a2.8,2.8,0,0,1-1,1.18l2.41,2.42a6.12,6.12,0,0,0,1-1.13Z"/><path class="cls-1" d="M30.67,30.68h0l0,0Z"/><path class="cls-1" d="M27.2,25.05a11.15,11.15,0,0,1-1,1.18l2.16,2.16c.37-.35.72-.72,1.05-1.1Z"/><polygon class="cls-1" points="31.72 29.6 31.73 29.59 31.73 29.59 31.72 29.6"/><path class="cls-1" d="M30.94,30.43h0Z"/><path class="cls-5" d="M31.72,29.6h0l-2.3-2.3c-.33.38-.68.75-1.05,1.1l2.29,2.29,0,0,.24-.23h0C31.22,30.15,31.47,29.88,31.72,29.6Z"/><path class="cls-5" d="M26.85,24.71l-2.29-2.29a6.12,6.12,0,0,1-1,1.13l2.28,2.27.41.41a11.15,11.15,0,0,0,1-1.18Z"/><path class="cls-5" d="M20.29,18.15a.77.77,0,0,0-.71-.21.84.84,0,0,0-.2.08h0l-.08.05h0l-.08.07-.05.05a.75.75,0,0,0,0,1l.05.06,1.91,1.91a2.8,2.8,0,0,0,1-1.18Z"/><rect class="cls-7" x="16.13" y="10.97" width="21.17" height="1.52" rx="0.76" transform="translate(-0.47 22.33) rotate(-45)"/><path class="cls-8" d="M33.64,4.75l-13.9,13.9a.75.75,0,0,1-.71.2.76.76,0,0,0,1.28.36L34.2,5.32A.76.76,0,0,0,33.84,4,.75.75,0,0,1,33.64,4.75Z"/><polygon class="cls-9" points="34.62 3.82 37.73 4.41 32.72 9.42 29.61 8.84 29.02 5.72 34.04 0.71 34.62 3.82"/><polygon class="cls-7" points="37.73 4.41 32.72 9.42 29.61 8.84 34.62 3.82 37.73 4.41"/></g></g></svg>