<svg id="Layer_1" data-name="Layer 1" xmlns="http://www.w3.org/2000/svg" viewBox="0 0 102.44 171.19"><defs><style>.cls-1{fill:#301347;}.cls-2{fill:#f6cc1b;}.cls-3{fill:#fce7e9;}.cls-4{fill:#6c297b;}.cls-5{fill:#f9d2d6;}.cls-6{fill:#eb8b23;}.cls-7{fill:#f9db5d;}.cls-8{fill:#c96a9e;}.cls-9{fill:#bf4d8b;}.cls-10{fill:#d07ba9;}.cls-11{fill:#af206e;}.cls-12{fill:#926ab1;}.cls-13{fill:#7e4fa3;}.cls-14{fill:#9f7bba;}.cls-15{fill:#662d91;}</style></defs><path class="cls-1" d="M87.32,125.5a2.77,2.77,0,0,0,.2.91,2,2,0,0,0,.26.45,1.56,1.56,0,0,0,.54.43l.23.07a1.08,1.08,0,0,0,.4,0,1.41,1.41,0,0,0,.44-.14,2,2,0,0,0,.63-.55l15.82-20.16.23,2.16a2.44,2.44,0,0,0,.35,1,2.69,2.69,0,0,0,.55.62,3.38,3.38,0,0,0,.47.35l.26.14a4.26,4.26,0,0,0,1.88.43h2.22l1,1.89a2.47,2.47,0,0,0,2.2,1.36h2.58v2.7a1.58,1.58,0,0,0,0,.38,1.42,1.42,0,0,0,.11.35l.07.16a1.87,1.87,0,0,0,3.28,0l.07-.16a1.42,1.42,0,0,0,.11-.35,1.58,1.58,0,0,0,0-.38v-2.7h2.58a2.47,2.47,0,0,0,2.2-1.36l1-1.89h2.22a4.26,4.26,0,0,0,1.88-.43l.26-.14a3.38,3.38,0,0,0,.47-.35,2.69,2.69,0,0,0,.55-.62,2.44,2.44,0,0,0,.35-1l.23-2.16,15.82,20.16a2,2,0,0,0,.63.55,1.41,1.41,0,0,0,.44.14,1.08,1.08,0,0,0,.4,0,1.12,1.12,0,0,0,.42-.18,1.5,1.5,0,0,0,.35-.32,2,2,0,0,0,.26-.45,2.77,2.77,0,0,0,.2-.91l1-17.31.14-6.82a6.15,6.15,0,0,0-1.33-4L135.93,78.08l1.12-10.68c1.56-8.47-1.54-17.06-8.53-23.62l-6.35-6a4.3,4.3,0,0,0-5.54,0l-6.35,6c-7,6.56-10.09,15.15-8.53,23.62l1.12,10.68L87.54,97.41a6.15,6.15,0,0,0-1.33,4l.14,6.82Z" transform="translate(-68.18 -30.81)"/><path class="cls-1" d="M170.48,158.38l-7.38-13.19a2.25,2.25,0,0,0-1.95-1.14H126.28c2.58-4.53,4.91-9.38,4.91-12.18a11.59,11.59,0,0,0-11.33-11.41l-.46,0-.46,0a11.59,11.59,0,0,0-11.33,11.41c0,2.8,2.33,7.65,4.91,12.18h-33a2.25,2.25,0,0,0-1.83.95l-9.29,13.29a1.12,1.12,0,0,0,.92,1.76h9v39.71A2.23,2.23,0,0,0,80.58,202h79.64a2.23,2.23,0,0,0,2.24-2.23v-28h0V160.05h7A1.12,1.12,0,0,0,170.48,158.38Z" transform="translate(-68.18 -30.81)"/><path class="cls-2" d="M123.84,108.49H115a2.47,2.47,0,0,1-2.2-1.36l-1-1.89H127l-1,1.89A2.47,2.47,0,0,1,123.84,108.49Z" transform="translate(-68.18 -30.81)"/><path class="cls-3" d="M129.22,105.24H109.58c-1.83,0-3.36-1.11-3.51-2.55L101.75,61.4c-1.56-8.47,1.54-17.06,8.53-23.62l6.35-6a4.3,4.3,0,0,1,5.54,0l6.35,6c7,6.56,10.09,15.15,8.53,23.62l-4.32,41.29C132.58,104.13,131.05,105.24,129.22,105.24Z" transform="translate(-68.18 -30.81)"/><path class="cls-4" d="M125.88,105.24h-13a2.54,2.54,0,0,1-2.32-2.55L107.75,61.4a34.25,34.25,0,0,1,5.63-23.62l4.19-6a2.16,2.16,0,0,1,3.66,0l4.19,6a34.25,34.25,0,0,1,5.63,23.62l-2.85,41.29A2.54,2.54,0,0,1,125.88,105.24Z" transform="translate(-68.18 -30.81)"/><path class="cls-5" d="M132.73,100.06c-.15,1.44-1.68,2.54-3.51,2.54H109.58c-1.83,0-3.36-1.1-3.51-2.54v2.63c.15,1.44,1.68,2.55,3.51,2.55h19.64c1.83,0,3.36-1.11,3.51-2.55Z" transform="translate(-68.18 -30.81)"/><circle class="cls-6" cx="51.22" cy="18.62" r="8.67"/><circle class="cls-7" cx="51.22" cy="17.67" r="8.67"/><circle class="cls-8" cx="51.22" cy="17.67" r="6.13"/><path class="cls-9" d="M119.4,42.35a6.12,6.12,0,0,0-6.13,6.13,2.62,2.62,0,0,0,0,.28,6.13,6.13,0,0,1,12.24,0,2.62,2.62,0,0,0,0-.28A6.12,6.12,0,0,0,119.4,42.35Z" transform="translate(-68.18 -30.81)"/><circle class="cls-9" cx="51.22" cy="17.67" r="4.82"/><rect class="cls-8" x="49.36" y="40.23" width="3.72" height="42.02" rx="1.86"/><path class="cls-10" d="M119.4,71a1.86,1.86,0,0,0-1.86,1.86v4a1.86,1.86,0,0,1,3.72,0v-4A1.86,1.86,0,0,0,119.4,71Z" transform="translate(-68.18 -30.81)"/><path class="cls-9" d="M119.4,105.91a1.86,1.86,0,0,1-1.86-1.86v7.14a1.86,1.86,0,0,0,3.72,0v-7.14A1.86,1.86,0,0,1,119.4,105.91Z" transform="translate(-68.18 -30.81)"/><path class="cls-8" d="M107.61,125.87a11.8,11.8,0,0,1,23.58,0c0,6.31-11.79,23-11.79,23S107.61,132.18,107.61,125.87Z" transform="translate(-68.18 -30.81)"/><path class="cls-9" d="M110.53,123a8.87,8.87,0,0,1,17.74,0c0,4.74-8.87,17.29-8.87,17.29S110.53,127.78,110.53,123Z" transform="translate(-68.18 -30.81)"/><path class="cls-11" d="M114.19,119.49a5.21,5.21,0,0,1,10.42,0c0,2.79-5.21,10.17-5.21,10.17S114.19,122.28,114.19,119.49Z" transform="translate(-68.18 -30.81)"/><path class="cls-8" d="M148.78,120.69,132.2,99.56a3.19,3.19,0,0,1-.63-2.11L133,72.93c.11-1.85,1.66-2.53,2.71-1.2l15.6,19.68a6.15,6.15,0,0,1,1.33,4l-.14,6.82-1,17.31C151.37,121.34,149.82,122,148.78,120.69Z" transform="translate(-68.18 -30.81)"/><path class="cls-9" d="M151.79,113.89c-.11,1.84-1.66,2.53-2.7,1.19L132.5,94a3.24,3.24,0,0,1-.62-1.92l-.31,5.42a3.19,3.19,0,0,0,.63,2.11l16.58,21.13c1,1.34,2.59.65,2.7-1.19Z" transform="translate(-68.18 -30.81)"/><path class="cls-9" d="M132.8,75.63l12.49,13.94a1.19,1.19,0,0,1-.09,1.68,1.2,1.2,0,0,1-1.69-.09L132.61,79Z" transform="translate(-68.18 -30.81)"/><path class="cls-10" d="M143.6,89.53a1.2,1.2,0,0,0,1.69.09l0,0a1.19,1.19,0,0,1-1.8,1.56L132.61,79l.09-1.63Z" transform="translate(-68.18 -30.81)"/><path class="cls-9" d="M132.36,83.42l15.14,16.91a1.19,1.19,0,0,1-.09,1.68,1.2,1.2,0,0,1-1.69-.09L132.17,86.79Z" transform="translate(-68.18 -30.81)"/><path class="cls-10" d="M145.81,100.35a1.2,1.2,0,0,0,1.69.09l0,0a1.18,1.18,0,0,1-.13,1.62,1.2,1.2,0,0,1-1.69-.09L132.17,86.79l.09-1.57Z" transform="translate(-68.18 -30.81)"/><path class="cls-8" d="M90,120.69,106.6,99.56a3.19,3.19,0,0,0,.63-2.11l-1.38-24.52c-.11-1.85-1.66-2.53-2.71-1.2L87.54,91.41a6.15,6.15,0,0,0-1.33,4l.14,6.82,1,17.31C87.43,121.34,89,122,90,120.69Z" transform="translate(-68.18 -30.81)"/><path class="cls-9" d="M87,113.89c.11,1.84,1.66,2.53,2.7,1.19L106.3,94a3.24,3.24,0,0,0,.62-1.92l.31,5.42a3.19,3.19,0,0,1-.63,2.11L90,120.69c-1,1.34-2.59.65-2.7-1.19Z" transform="translate(-68.18 -30.81)"/><path class="cls-9" d="M106,75.63,93.51,89.57a1.19,1.19,0,0,0,.09,1.68,1.2,1.2,0,0,0,1.69-.09L106.19,79Z" transform="translate(-68.18 -30.81)"/><path class="cls-10" d="M95.2,89.53a1.2,1.2,0,0,1-1.69.09l0,0a1.19,1.19,0,0,0,1.8,1.56L106.19,79l-.09-1.63Z" transform="translate(-68.18 -30.81)"/><path class="cls-9" d="M106.44,83.42,91.3,100.33a1.19,1.19,0,0,0,.09,1.68,1.2,1.2,0,0,0,1.69-.09l13.55-15.13Z" transform="translate(-68.18 -30.81)"/><path class="cls-10" d="M93,100.35a1.2,1.2,0,0,1-1.69.09l0,0a1.18,1.18,0,0,0,.13,1.62,1.2,1.2,0,0,0,1.69-.09l13.55-15.13-.09-1.57Z" transform="translate(-68.18 -30.81)"/><rect class="cls-5" x="49.19" y="29.91" width="4.07" height="1.89" rx="0.95"/><path class="cls-3" d="M120.49,61.67h-2.18a1,1,0,0,1-.82-.48,1,1,0,0,0-.12.48.94.94,0,0,0,.94.94h2.18a.94.94,0,0,0,.94-.94,1,1,0,0,0-.12-.48A1,1,0,0,1,120.49,61.67Z" transform="translate(-68.18 -30.81)"/><rect class="cls-5" x="49.19" y="33.29" width="4.07" height="1.89" rx="0.95"/><path class="cls-3" d="M120.49,65h-2.18a1,1,0,0,1-.82-.47,1,1,0,0,0,.82,1.42h2.18a1,1,0,0,0,.82-1.42A1,1,0,0,1,120.49,65Z" transform="translate(-68.18 -30.81)"/><path class="cls-12" d="M12.4,107.24H72.13a0,0,0,0,1,0,0v57.95a0,0,0,0,1,0,0H12.4A2.24,2.24,0,0,1,10.16,163V109.48A2.24,2.24,0,0,1,12.4,107.24Z"/><path class="cls-13" d="M72.13,107.24H92a2.24,2.24,0,0,1,2.24,2.24V163A2.24,2.24,0,0,1,92,165.19H72.13a0,0,0,0,1,0,0V107.24A0,0,0,0,1,72.13,107.24Z"/><path class="cls-13" d="M79,142.52a1.15,1.15,0,0,0-.7.25v23h50.08a1.14,1.14,0,0,0,1-.63l10.88-27.11Z" transform="translate(-68.18 -30.81)"/><path class="cls-14" d="M128,154.05H69.3a1.12,1.12,0,0,1-.92-1.76L77.67,139a2.25,2.25,0,0,1,1.83-.95h60.81l-10.52,15A2.23,2.23,0,0,1,128,154.05Z" transform="translate(-68.18 -30.81)"/><path class="cls-15" d="M150,165.79h12.43V142.52l-22.15-4.47,8.67,27A1.12,1.12,0,0,0,150,165.79Z" transform="translate(-68.18 -30.81)"/><path class="cls-12" d="M169.5,154.05H150.57a2.23,2.23,0,0,1-1.95-1.15l-8.31-14.85h20.84a2.25,2.25,0,0,1,1.95,1.14l7.38,13.19A1.12,1.12,0,0,1,169.5,154.05Z" transform="translate(-68.18 -30.81)"/></svg>