<svg xmlns="http://www.w3.org/2000/svg" viewBox="0 0 35.16 65.74"><defs><style>.cls-1{fill:#c66198;}.cls-2{fill:#b5327a;}.cls-3{fill:#fff;}.cls-4,.cls-5{fill:#f6cc1b;}.cls-5{stroke:#f6cc1b;stroke-miterlimit:10;}.cls-6{fill:#e54355;}.cls-7{fill:#ee818d;}</style></defs><g id="Layer_2" data-name="Layer 2"><g id="text_and_icons" data-name="text and icons"><path class="cls-1" d="M11.74,32.86h.76a0,0,0,0,1,0,0V45.18a0,0,0,0,1,0,0H.57A.57.57,0,0,1,0,44.61v0A11.74,11.74,0,0,1,11.74,32.86Z"/><path class="cls-1" d="M23.23,32.86H35.16a0,0,0,0,1,0,0V45.18a0,0,0,0,1,0,0H34.4A11.74,11.74,0,0,1,22.66,33.43v0A.57.57,0,0,1,23.23,32.86Z" transform="translate(57.82 78.04) rotate(-180)"/><path class="cls-2" d="M30.33,34.66a10.65,10.65,0,0,0-5.95-1.8H22.66V45.18h4.49A30.65,30.65,0,0,0,30.33,34.66Z"/><path class="cls-2" d="M8,45.18H12.5V32.86H10.79a10.68,10.68,0,0,0-6,1.8A30.65,30.65,0,0,0,8,45.18Z"/><path class="cls-3" d="M24.14,47.21C26.47,43.45,28,36.51,28,30.11c0-7.18-4.19-18.39-7.24-23.47a3.66,3.66,0,0,0-6.28,0c-3,5.08-7.23,16.29-7.23,23.47,0,6.4,1.48,13.34,3.81,17.1Z"/><path class="cls-3" d="M22.82,47.21c1.86-3.76,3.05-10.7,3.05-17.1,0-7.18-3.34-18.39-5.78-23.47a2.66,2.66,0,0,0-5,0c-2.44,5.08-5.78,16.29-5.78,23.47,0,6.4,1.19,13.34,3.05,17.1Z"/><circle class="cls-3" cx="17.58" cy="25.72" r="5.28"/><circle class="cls-1" cx="17.58" cy="24.48" r="5.28"/><path class="cls-3" d="M17.58,0h0a1,1,0,0,1,1,1v4.8a0,0,0,0,1,0,0h-2a0,0,0,0,1,0,0V1a1,1,0,0,1,1-1Z"/><circle class="cls-2" cx="17.58" cy="24.48" r="3.74"/><path class="cls-4" d="M17.58,14.91a17,17,0,0,0,6.47-1.27,50.06,50.06,0,0,0-3.33-7,3.66,3.66,0,0,0-6.28,0,50.06,50.06,0,0,0-3.33,7A17,17,0,0,0,17.58,14.91Z"/><path class="cls-5" d="M20.32,6.93a66.74,66.74,0,0,1,2.59,7.13q.59-.2,1.14-.42a50.06,50.06,0,0,0-3.33-7,3.63,3.63,0,0,0-3.14-1.78A3.11,3.11,0,0,1,20.32,6.93Z"/><path class="cls-5" d="M14.85,6.93a3.09,3.09,0,0,1,2.73-2.07,3.63,3.63,0,0,0-3.14,1.78,50.06,50.06,0,0,0-3.33,7q.56.22,1.14.42A64.42,64.42,0,0,1,14.85,6.93Z"/><path class="cls-4" d="M21.82,53.86c0,2.35-4.24,11.88-4.24,11.88s-4.24-9.53-4.24-11.88a4.24,4.24,0,0,1,8.48,0Z"/><path class="cls-6" d="M21.82,53.86c0,2.35-4.24,5.34-4.24,5.34s-4.24-3-4.24-5.34a4.24,4.24,0,0,1,8.48,0Z"/><path class="cls-3" d="M20.18,52.22c0,1.44-2.6,3.27-2.6,3.27S15,53.66,15,52.22a2.6,2.6,0,0,1,5.2,0Z"/><path class="cls-7" d="M9.8,45.18H25.36a0,0,0,0,1,0,0v0a5.76,5.76,0,0,1-5.76,5.76h-4A5.76,5.76,0,0,1,9.8,45.18v0A0,0,0,0,1,9.8,45.18Z"/><path class="cls-6" d="M11.64,45.18h2.3a0,0,0,0,1,0,0V48.4a1.15,1.15,0,0,1-1.15,1.15h0a1.15,1.15,0,0,1-1.15-1.15V45.18a0,0,0,0,1,0,0Z"/><path class="cls-6" d="M16.43,45.18h2.3a0,0,0,0,1,0,0V48.4a1.15,1.15,0,0,1-1.15,1.15h0a1.15,1.15,0,0,1-1.15-1.15V45.18A0,0,0,0,1,16.43,45.18Z"/><path class="cls-6" d="M21.22,45.18h2.3a0,0,0,0,1,0,0V48.4a1.15,1.15,0,0,1-1.15,1.15h0a1.15,1.15,0,0,1-1.15-1.15V45.18A0,0,0,0,1,21.22,45.18Z"/><rect class="cls-6" x="9.8" y="45.18" width="15.56" height="1.28"/></g></g></svg>