<svg xmlns="http://www.w3.org/2000/svg" viewBox="0 0 52.93 45.72"><defs><style>.cls-1{fill:#fff;}.cls-2{fill:#8d6a9f;}.cls-3{fill:#794f8d;}.cls-4{fill:#f9db60;}.cls-5{fill:#ea8a23;}.cls-6{fill:#f6cc1b;}.cls-7{fill:#fae58d;}.cls-8{fill:#5f2c79;}</style></defs><g id="Layer_2" data-name="Layer 2"><g id="text_and_icons" data-name="text and icons"><path class="cls-1" d="M40.58,26.4l-1.32,1.32-1.79,1.79h0l-.38.38-.37.36-1.79,1.79-1.32,1.32-.47-.45L27.7,27.81l-.05,0L27,27.13l-7-6.55-.05,0-.72-.67L8.54,9.77a1.6,1.6,0,0,1-.5-1L7.21.59A.56.56,0,0,1,7.29.25L7.35.18A.53.53,0,0,1,7.8,0L16,.83a1.6,1.6,0,0,1,1,.5l9.86,10.48.68.71,0,.05,7,7.44.62.66,0,0,4.9,5.21Z"/><path class="cls-1" d="M36.62,29.44,34.46,31.6l-1.32,1.32L27.7,27.81,27,27.13l-7-6.55-.77-.72L8.54,9.77a1.6,1.6,0,0,1-.5-1L7.21.59A.56.56,0,0,1,7.29.25L7.35.18,10,2.78l8,8,.33.34,5.48,5.48,7.68,7.68Z"/><path class="cls-1" d="M39.26,27.72l-4.33,4.33L10.77,8.8a1.55,1.55,0,0,1-.48-1L9.82,3.19a.54.54,0,0,1,.58-.58L15,3.07a1.57,1.57,0,0,1,1,.49Z"/><path class="cls-1" d="M37.09,29.9l-2.16,2.15L10.77,8.8a1.55,1.55,0,0,1-.48-1L9.82,3.19A.5.5,0,0,1,10,2.75Z"/><path class="cls-2" d="M27.76,28.65h21.5a.81.81,0,0,1,.81.81v1.29A3.22,3.22,0,0,1,46.85,34H30.18A3.22,3.22,0,0,1,27,30.74V29.45A.81.81,0,0,1,27.76,28.65Z" transform="translate(-10.85 36.4) rotate(-45)"/><path class="cls-3" d="M44.77,21.7a4.24,4.24,0,0,1-.94,4.59L33.5,36.62a4.24,4.24,0,0,1-4.59.94,1.06,1.06,0,0,0,.31.79h0a4.25,4.25,0,0,0,6,0L45.56,28a4.25,4.25,0,0,0,0-6h0A1.06,1.06,0,0,0,44.77,21.7Z"/><circle class="cls-3" cx="39.46" cy="32.25" r="3.39"/><path class="cls-3" d="M44.77,21.7a4.24,4.24,0,0,1-.94,4.59L33.5,36.62a4.24,4.24,0,0,1-4.59.94,1.06,1.06,0,0,0,.31.79h0a4.25,4.25,0,0,0,6,0L45.56,28a4.25,4.25,0,0,0,0-6h0A1.06,1.06,0,0,0,44.77,21.7Z"/><rect class="cls-4" x="41.33" y="31.63" width="5.32" height="10.29" transform="translate(-13.12 41.87) rotate(-45)"/><rect class="cls-5" x="41.86" y="32.91" width="1.7" height="10.29" transform="translate(-14.4 41.34) rotate(-45)"/><circle class="cls-6" cx="49.23" cy="42.02" r="3.69"/><circle class="cls-7" cx="48.3" cy="41.09" r="2.37"/><rect class="cls-6" x="44.3" y="39.09" width="5.32" height="1.31" transform="translate(-14.35 44.85) rotate(-45)"/><rect class="cls-6" x="42.55" y="37.34" width="5.32" height="1.31" transform="translate(-13.63 43.1) rotate(-45)"/><rect class="cls-6" x="40.8" y="35.6" width="5.32" height="1.31" transform="translate(-12.9 41.35) rotate(-45)"/><rect class="cls-6" x="40" y="33.46" width="4.21" height="1.31" transform="translate(-11.79 39.76) rotate(-45)"/><path class="cls-5" d="M42.23,31.26,38.47,35l1.74,1.74a3.43,3.43,0,0,0,1.65-.91,3.38,3.38,0,0,0,.74-3.68l.27-.27Z"/><circle class="cls-3" cx="39.46" cy="32.25" r="3.39"/><circle class="cls-8" cx="39.46" cy="32.61" r="1.84"/><circle class="cls-2" cx="39.46" cy="32.25" r="1.84"/><circle class="cls-6" cx="39.46" cy="32.25" r="1.12"/><path class="cls-7" d="M38.68,32.29a1.1,1.1,0,0,1,1.57,0,1,1,0,0,1,.25.38,1.11,1.11,0,1,0-2.07,0A.93.93,0,0,1,38.68,32.29Z"/><path class="cls-1" d="M27.09,6.9h.43a.67.67,0,0,1,.67.67V33.29a0,0,0,0,1,0,0H26.42a0,0,0,0,1,0,0V7.57a.67.67,0,0,1,.67-.67Z" transform="translate(-6.21 25.19) rotate(-45)"/><path class="cls-1" d="M18.51,11.48a.88.88,0,0,1-.21-.92.94.94,0,0,0-.33.2A.91.91,0,0,0,18,12l18,18,.54-.53Z"/><polygon class="cls-1" points="32.07 23.6 33.67 22.1 33.76 22.01 26.09 14.04 26.08 14.05 24.35 15.89 32.07 23.6"/><polygon class="cls-1" points="23.14 17.18 21.4 19.03 29.08 26.42 30.78 24.82 23.14 17.18"/><polygon class="cls-1" points="31.33 24.3 32.07 23.6 24.35 15.89 23.66 16.63 31.33 24.3"/><path class="cls-1" d="M12.35,26.4l3.11,3.11.74.75L18,32.05l1.32,1.32.48-.45,6.15-5.79,7.73-7.27L44.39,9.77a1.6,1.6,0,0,0,.5-1L45.71.59A.53.53,0,0,0,45.13,0L37,.83a1.6,1.6,0,0,0-1,.5L26.08,11.81,18.37,20l-5.58,5.92Z"/><path class="cls-1" d="M16.31,29.44,45.58.18a.52.52,0,0,1,.13.41l-.82,8.17a1.6,1.6,0,0,1-.5,1L33.67,19.86l-7.73,7.27-6.15,5.79Z"/><path class="cls-1" d="M13.67,27.72,18,32.05,42.16,8.8a1.6,1.6,0,0,0,.48-1l.47-4.62a.51.51,0,0,0-.18-.44.5.5,0,0,0-.41-.14l-4.61.46a1.62,1.62,0,0,0-1,.49Z"/><path class="cls-1" d="M15.84,29.9,18,32.05,42.16,8.8a1.6,1.6,0,0,0,.48-1l.47-4.62a.51.51,0,0,0-.18-.44Z"/><path class="cls-2" d="M6.08,28.65H22.75A3.22,3.22,0,0,1,26,31.87v1.29a.81.81,0,0,1-.81.81H3.66a.81.81,0,0,1-.81-.81V31.87a3.22,3.22,0,0,1,3.22-3.22Z" transform="translate(2.47 63.63) rotate(-135)"/><path class="cls-3" d="M8.16,21.7a4.22,4.22,0,0,0,.94,4.59L19.43,36.62a4.24,4.24,0,0,0,4.59.94,1.06,1.06,0,0,1-.31.79h0a4.25,4.25,0,0,1-6,0L7.37,28a4.25,4.25,0,0,1,0-6h0A1,1,0,0,1,8.16,21.7Z"/><circle class="cls-3" cx="13.46" cy="32.25" r="3.39"/><path class="cls-3" d="M8.16,21.7a4.22,4.22,0,0,0,.94,4.59L19.43,36.62a4.24,4.24,0,0,0,4.59.94,1.06,1.06,0,0,1-.31.79h0a4.25,4.25,0,0,1-6,0L7.37,28a4.25,4.25,0,0,1,0-6h0A1,1,0,0,1,8.16,21.7Z"/><rect class="cls-4" x="6.28" y="31.63" width="5.32" height="10.29" transform="translate(-10.74 69.1) rotate(-135)"/><rect class="cls-5" x="5.08" y="37.21" width="10.29" height="1.7" transform="translate(-23.91 18.37) rotate(-45)"/><circle class="cls-6" cx="3.69" cy="42.02" r="3.69"/><circle class="cls-7" cx="4.63" cy="41.09" r="2.37"/><rect class="cls-6" x="3.31" y="39.09" width="5.32" height="1.31" transform="translate(-17.92 72.07) rotate(-135)"/><rect class="cls-6" x="5.06" y="37.34" width="5.32" height="1.31" transform="translate(-13.7 70.33) rotate(-135)"/><rect class="cls-6" x="6.81" y="35.6" width="5.32" height="1.31" transform="translate(-9.48 68.58) rotate(-135)"/><rect class="cls-6" x="8.72" y="33.46" width="4.21" height="1.31" transform="translate(-5.65 65.89) rotate(-135)"/><path class="cls-5" d="M10.7,31.26,14.46,35l-1.74,1.74a3.4,3.4,0,0,1-2.4-4.59l-.27-.27Z"/><circle class="cls-3" cx="13.46" cy="32.25" r="3.39"/><circle class="cls-8" cx="13.46" cy="32.61" r="1.84"/><circle class="cls-2" cx="13.46" cy="32.25" r="1.84"/><circle class="cls-6" cx="13.46" cy="32.25" r="1.12"/><path class="cls-7" d="M14.25,32.29a1.11,1.11,0,0,0-1.58,0,1,1,0,0,0-.24.38,1.11,1.11,0,0,1,1.82-1.2,1.1,1.1,0,0,1,.25,1.2A1.19,1.19,0,0,0,14.25,32.29Z"/><path class="cls-1" d="M24.74,6.9h1.77a0,0,0,0,1,0,0V32.62a.67.67,0,0,1-.67.67h-.43a.67.67,0,0,1-.67-.67V6.9a0,0,0,0,1,0,0Z" transform="translate(29.53 52.42) rotate(-135)"/><path class="cls-1" d="M34.42,11.48a.88.88,0,0,0,.2-.92.86.86,0,0,1,.33.2A.89.89,0,0,1,35,12l-18,18L15.66,28.8l.72.72Z"/></g></g></svg>