<svg xmlns="http://www.w3.org/2000/svg" viewBox="0 0 54.1 54.85"><defs><style>.cls-1{fill:#fff;}.cls-2{fill:#f6cc1b;}.cls-3{fill:#f9db60;}.cls-4{fill:#fae58d;}.cls-5{fill:#ea8a23;}.cls-6{fill:#c96a9d;}.cls-7{fill:#c04d8a;}.cls-8{fill:#8d6a9f;}.cls-9{fill:#794f8d;}.cls-10{fill:#5f2c79;}.cls-11{fill:#9b7dab;}</style></defs><g id="Layer_2" data-name="Layer 2"><g id="text_and_icons" data-name="text and icons"><rect class="cls-1" x="3.22" y="3.78" width="47.67" height="31.78"/><rect class="cls-2" x="21.16" y="41.46" width="11.79" height="3.78" rx="1.89" transform="translate(70.4 16.3) rotate(90)"/><rect class="cls-3" x="21.16" y="42.12" width="11.79" height="2.46" rx="1.23" transform="translate(70.4 16.3) rotate(90)"/><rect class="cls-3" width="54.1" height="3.78" rx="1.89"/><path class="cls-4" d="M1.89.38H52.21a1.88,1.88,0,0,1,1.88,1.7,1.15,1.15,0,0,0,0-.19A1.89,1.89,0,0,0,52.21,0H1.89A1.89,1.89,0,0,0,0,1.89a1.15,1.15,0,0,0,0,.19A1.88,1.88,0,0,1,1.89.38Z"/><path class="cls-2" d="M52.21,1.89H1.89A1.87,1.87,0,0,1,.26,1,1.77,1.77,0,0,0,0,1.89,1.89,1.89,0,0,0,1.89,3.78H52.21A1.88,1.88,0,0,0,54.1,1.89,1.86,1.86,0,0,0,53.85,1,1.9,1.9,0,0,1,52.21,1.89Z"/><rect class="cls-3" y="35.56" width="54.1" height="3.78" rx="1.89"/><path class="cls-4" d="M1.89,35.94H52.21a1.89,1.89,0,0,1,1.88,1.7,1.09,1.09,0,0,0,0-.18,1.89,1.89,0,0,0-1.89-1.9H1.89A1.9,1.9,0,0,0,0,37.46a1.09,1.09,0,0,0,0,.18A1.89,1.89,0,0,1,1.89,35.94Z"/><path class="cls-2" d="M52.21,37.46H1.89a1.88,1.88,0,0,1-1.63-1,1.81,1.81,0,0,0-.26,1,1.89,1.89,0,0,0,1.89,1.89H52.21a1.9,1.9,0,0,0,1.64-2.84A1.91,1.91,0,0,1,52.21,37.46Z"/><path class="cls-2" d="M39.51,51.62l-9.23-9.23a1.88,1.88,0,0,0-1.34-.55H25.16a1.89,1.89,0,0,0-1.34.55l-9.23,9.23a1.9,1.9,0,0,0,0,2.68h0a1.9,1.9,0,0,0,2.68,0l7.89-7.9h3.78l7.89,7.9a1.9,1.9,0,0,0,2.68,0h0A1.9,1.9,0,0,0,39.51,51.62Z"/><path class="cls-4" d="M14.59,52.16l9.23-9.23a1.9,1.9,0,0,1,1.34-.56h3.78a1.89,1.89,0,0,1,1.34.56l9.23,9.23A1.85,1.85,0,0,1,40,53.23a1.89,1.89,0,0,0-.53-1.61l-9.23-9.23a1.88,1.88,0,0,0-1.34-.55H25.16a1.89,1.89,0,0,0-1.34.55l-9.23,9.23a1.89,1.89,0,0,0-.53,1.61A1.85,1.85,0,0,1,14.59,52.16Z"/><path class="cls-5" d="M39.51,51.77h0a1.9,1.9,0,0,1-2.68,0L29.4,44.34a1.57,1.57,0,0,0-1.1-.46H25.8a1.55,1.55,0,0,0-1.09.46l-7.44,7.43a1.9,1.9,0,0,1-2.68,0h0a.46.46,0,0,0-.07-.07,1.9,1.9,0,0,0,.07,2.6h0a1.9,1.9,0,0,0,2.68,0l7.48-7.49a1.4,1.4,0,0,1,1-.41h2.64a1.39,1.39,0,0,1,1,.41l7.48,7.49a1.9,1.9,0,0,0,2.68,0h0a1.89,1.89,0,0,0,.07-2.6Z"/><rect class="cls-1" x="3.22" y="3.78" width="47.67" height="1.81"/><rect class="cls-5" x="25.16" y="39.35" width="3.78" height="0.95"/><path class="cls-5" d="M27.05,48a1.9,1.9,0,0,1-1.89-1.9v1.27a1.89,1.89,0,0,0,3.78,0V46.09A1.89,1.89,0,0,1,27.05,48Z"/><path class="cls-1" d="M17.44,32.18l0,0,0-.06,0-.05,0-.06,0,0a.14.14,0,0,0,0-.07l0-.09a.09.09,0,0,0,0-.05s0-.05,0-.07v0s0-.05,0-.07v-.13a1.32,1.32,0,0,0-.37-.84l-1.91-1.91,1.91-1.91.08-.09,0,0,.05-.07,0,0,0-.06,0,0,0-.06a.08.08,0,0,0,0,0,.25.25,0,0,0,0-.07l0-.09a.09.09,0,0,0,0-.05s0-.05,0-.07v0s0-.05,0-.07v-.13a1.29,1.29,0,0,0-.37-.84,1.26,1.26,0,0,0-1.78,0l-1.92,1.92L11.68,25A1.26,1.26,0,0,0,9.9,25a1.2,1.2,0,0,0-.37.84v.13a.17.17,0,0,0,0,.07v0s0,.05,0,.07a.09.09,0,0,1,0,.05l0,.09a.14.14,0,0,1,0,.07.08.08,0,0,1,0,0l0,.06,0,0a.21.21,0,0,1,0,.06l0,0,0,.07,0,0,.08.09,1.91,1.91L9.9,30.58a1.22,1.22,0,0,0-.37.84v.13a.17.17,0,0,0,0,.07v0s0,.05,0,.07a.09.09,0,0,1,0,.05l0,.09a.25.25,0,0,1,0,.07.08.08,0,0,1,0,0l0,.06,0,.05,0,.06,0,0,0,.07,0,0,.08.09a1.26,1.26,0,0,0,.89.37,1.29,1.29,0,0,0,.89-.37l1.91-1.92,1.92,1.92a1.27,1.27,0,0,0,.89.37,1.29,1.29,0,0,0,.89-.37l.08-.09,0,0A.18.18,0,0,0,17.44,32.18Z"/><path class="cls-6" d="M15.38,27.41l1.91-1.92a1.26,1.26,0,0,0-1.78-1.78l-1.92,1.92-1.91-1.92a1.26,1.26,0,0,0-1.78,0,1.24,1.24,0,0,0,0,1.78l1.91,1.92L9.9,29.32a1.27,1.27,0,0,0,.89,2.16,1.29,1.29,0,0,0,.89-.37l1.91-1.92,1.92,1.92a1.27,1.27,0,0,0,.89.37,1.29,1.29,0,0,0,.89-.37,1.27,1.27,0,0,0,0-1.79Z"/><path class="cls-7" d="M17.29,24.23l-2.54,2.55.63.63,1.91-1.92a1.26,1.26,0,0,0,.2-1.52A1,1,0,0,1,17.29,24.23Z"/><path class="cls-7" d="M11.81,27.41l.63-.63L9.9,24.23A1,1,0,0,1,9.7,24a1.25,1.25,0,0,0,.2,1.52Z"/><path class="cls-7" d="M17.29,29.85a1.28,1.28,0,0,1-.89.36,1.26,1.26,0,0,1-.89-.36l-1.92-1.92-1.91,1.92a1.28,1.28,0,0,1-.89.36,1.25,1.25,0,0,1-.89-.36,1.05,1.05,0,0,1-.2-.27,1.26,1.26,0,0,0,1.09,1.9,1.29,1.29,0,0,0,.89-.37l1.91-1.92,1.92,1.92a1.27,1.27,0,0,0,.89.37,1.29,1.29,0,0,0,.89-.37,1.27,1.27,0,0,0,.2-1.53A1.05,1.05,0,0,1,17.29,29.85Z"/><path class="cls-1" d="M37.33,16.58l0,0,0-.06,0,0,0-.06s0,0,0-.05a.14.14,0,0,1,0-.06.3.3,0,0,0,0-.1s0,0,0,0a.15.15,0,0,1,0-.07v0a.22.22,0,0,0,0-.08v-.13a1.2,1.2,0,0,0-.37-.83l-1.91-1.92,1.91-1.91.08-.09,0,0,0-.06,0,0,0-.06,0,0,0-.06s0,0,0,0a.14.14,0,0,1,0-.06.36.36,0,0,0,0-.1s0,0,0-.05a.2.2,0,0,1,0-.07v0a.22.22,0,0,0,0-.08V10.2a1.2,1.2,0,0,0-.37-.83,1.24,1.24,0,0,0-1.78,0l-1.91,1.91L31.57,9.37a1.24,1.24,0,0,0-1.78,0,1.29,1.29,0,0,0-.37.83v.13s0,.05,0,.08v0a.64.64,0,0,0,0,.07.07.07,0,0,0,0,.05s0,.07,0,.1l0,.06s0,0,0,0a.14.14,0,0,0,0,.06l0,0,0,.06,0,0,0,.06,0,0,.08.09,1.91,1.91L29.79,15a1.29,1.29,0,0,0-.37.83v.13s0,.05,0,.08v0a.64.64,0,0,1,0,.07.06.06,0,0,0,0,0s0,.07,0,.1l0,.06s0,0,0,.05a.14.14,0,0,0,0,.06l0,0,0,.06,0,0,0,.06,0,0,.08.09a1.26,1.26,0,0,0,1.78,0l1.92-1.91,1.91,1.91a1.25,1.25,0,0,0,.89.37,1.23,1.23,0,0,0,.89-.37l.08-.09,0,0Z"/><path class="cls-6" d="M35.27,11.8l1.91-1.91A1.26,1.26,0,0,0,35.4,8.11L33.49,10,31.57,8.11a1.24,1.24,0,0,0-1.78,0,1.26,1.26,0,0,0,0,1.78L31.7,11.8l-1.91,1.92a1.26,1.26,0,0,0,0,1.78,1.26,1.26,0,0,0,1.78,0l1.92-1.91L35.4,15.5a1.25,1.25,0,0,0,.89.37,1.26,1.26,0,0,0,.89-2.15Z"/><path class="cls-7" d="M37.18,8.63l-2.54,2.54.63.63,1.91-1.91a1.25,1.25,0,0,0,.2-1.52A1.21,1.21,0,0,1,37.18,8.63Z"/><path class="cls-7" d="M31.7,11.8l.63-.63L29.79,8.63a1.21,1.21,0,0,1-.2-.26,1.26,1.26,0,0,0,.2,1.52Z"/><path class="cls-7" d="M37.18,14.24a1.23,1.23,0,0,1-.89.37,1.25,1.25,0,0,1-.89-.37l-1.91-1.91-1.92,1.91a1.26,1.26,0,0,1-1.78,0,1.21,1.21,0,0,1-.2-.26,1.26,1.26,0,0,0,.2,1.52,1.26,1.26,0,0,0,1.78,0l1.92-1.91L35.4,15.5a1.25,1.25,0,0,0,.89.37,1.23,1.23,0,0,0,.89-.37,1.25,1.25,0,0,0,.2-1.52A1.21,1.21,0,0,1,37.18,14.24Z"/><path class="cls-1" d="M39.76,23.23A4.82,4.82,0,0,0,35,27.12a14.92,14.92,0,0,1-13.39-9.94,13.15,13.15,0,0,1-.39-1.26h3.43a.39.39,0,0,0,.26-.46.41.41,0,0,0-.07-.15L20,9.13A.36.36,0,0,0,19.83,9a.33.33,0,0,0-.17,0,.38.38,0,0,0-.3.15L14.45,15.3l0,0a.3.3,0,0,0,0,.1.43.43,0,0,0,0,.16.11.11,0,0,0,0,.05.45.45,0,0,0,.11.17l0,0a.38.38,0,0,0,.22.06h4.17L19,16l.12.51c0,.05,0,.1,0,.16s.07.24.1.36a.76.76,0,0,1,0,.11.74.74,0,0,0,0,.14v0l.12.37v0c.13.39.28.78.44,1.15v.05l.15.32,0,.06c.05.11.1.22.16.33v0c.12.24.24.48.37.72l0,0,.17.3,0,.07c.06.09.11.19.16.28l.05.07.19.31h0c.07.12.15.23.22.34l0,0c.07.09.13.19.2.29l.06.08c.06.08.11.16.17.23l.07.09.18.24.05.07.5.6.06.07.19.21.08.09.19.2.08.09c.07.07.14.15.22.22l0,.05.27.27.06.05.22.21.09.08.2.18.1.08.2.18.09.07.6.47.09.07.22.16.11.08.21.14.11.08.25.16.07.05.32.2.08,0,.25.15.11.07a1.71,1.71,0,0,1,.23.13l.12.06.24.13.1.05.7.34.1,0L29,28l.12,0,.25.1.12.05.29.11.07,0,.37.13.07,0,.3.1.12,0,.26.07.13,0,.27.08.11,0c.25.07.51.13.77.18l.11,0,.28.06.13,0,.28.05.12,0,.32,0h.08l.4.05H34l.33,0h.13l.28,0h.39a4.82,4.82,0,1,0,4.62-6.17Zm0,7.11A2.3,2.3,0,1,1,42.05,28,2.3,2.3,0,0,1,39.76,30.34Z"/><path class="cls-8" d="M36.84,27a1.14,1.14,0,0,1-1.13,1.14A17.21,17.21,0,0,1,19.26,15.92,16.89,16.89,0,0,1,18.53,11a1.14,1.14,0,1,1,2.27,0A14.92,14.92,0,0,0,35.71,25.88,1.13,1.13,0,0,1,36.84,27Z"/><path class="cls-9" d="M19.66,11l.14-1.13h-.14A1.14,1.14,0,0,0,18.53,11,17.2,17.2,0,0,0,35.71,28.15,1.14,1.14,0,0,0,36.84,27H35.71A16,16,0,0,1,19.66,11Z"/><path class="cls-8" d="M35,26.78a4.82,4.82,0,1,1,4.81,4.82A4.82,4.82,0,0,1,35,26.78Zm7.1,0a2.29,2.29,0,1,0-2.29,2.29A2.29,2.29,0,0,0,42.05,26.78Z"/><path class="cls-9" d="M39.76,30.34a3.56,3.56,0,1,0-3.55-3.56A3.55,3.55,0,0,0,39.76,30.34Zm-2.29-3.56a2.29,2.29,0,1,1,2.29,2.29A2.3,2.3,0,0,1,37.47,26.78Z"/><path class="cls-10" d="M21.65,15.92H19.26A16.89,16.89,0,0,1,18.53,11a1.14,1.14,0,1,1,2.27,0A14.79,14.79,0,0,0,21.65,15.92Z"/><path class="cls-8" d="M24.57,14.66H14.76a.38.38,0,0,1-.31-.62l4.91-6.18a.4.4,0,0,1,.61,0L24.88,14A.38.38,0,0,1,24.57,14.66Z"/><path class="cls-11" d="M14.76,14.66H15l4.4-5.53a.39.39,0,0,1,.61,0l4.4,5.53h.2a.38.38,0,0,0,.31-.62L20,7.86a.4.4,0,0,0-.61,0L14.45,14A.38.38,0,0,0,14.76,14.66Z"/><path class="cls-9" d="M24.37,13.4H15l-.51.64a.38.38,0,0,0,.31.62h9.81a.38.38,0,0,0,.31-.62Z"/></g></g></svg>