<svg xmlns="http://www.w3.org/2000/svg" xmlns:xlink="http://www.w3.org/1999/xlink" viewBox="0 0 1287.27 1137.84"><defs><style>.cls-1{isolation:isolate;}.cls-2,.cls-3{mix-blend-mode:hard-light;}.cls-2{fill:url(#Degradado_sin_nombre_17);}.cls-3{fill:url(#Degradado_sin_nombre_17-2);}.cls-4,.cls-5,.cls-6{opacity:0.7;}.cls-13,.cls-14,.cls-15,.cls-16,.cls-17,.cls-4,.cls-5,.cls-6,.cls-7,.cls-8{mix-blend-mode:screen;}.cls-4{fill:url(#Degradado_sin_nombre_16);}.cls-5{fill:url(#Degradado_sin_nombre_16-2);}.cls-6{fill:url(#Degradado_sin_nombre_16-3);}.cls-10,.cls-12,.cls-7,.cls-8,.cls-9{opacity:0.4;}.cls-7{fill:url(#Degradado_sin_nombre_16-4);}.cls-8{fill:url(#Degradado_sin_nombre_16-5);}.cls-10,.cls-11,.cls-12,.cls-9{mix-blend-mode:multiply;}.cls-9{fill:url(#Degradado_sin_nombre_16-6);}.cls-10{fill:url(#Degradado_sin_nombre_16-7);}.cls-11{opacity:0.2;fill:url(#Degradado_sin_nombre_16-8);}.cls-12{fill:url(#Degradado_sin_nombre_16-9);}.cls-13{fill:url(#Degradado_sin_nombre_14);}.cls-14{fill:url(#Degradado_sin_nombre_14-2);}.cls-15{fill:url(#Degradado_sin_nombre_14-3);}.cls-16{fill:url(#Degradado_sin_nombre_14-4);}.cls-17{fill:url(#Degradado_sin_nombre_14-5);}</style><radialGradient id="Degradado_sin_nombre_17" cx="819.18" cy="423.05" r="314.75" gradientUnits="userSpaceOnUse"><stop offset="0" stop-color="#e54355"/><stop offset="0.13" stop-color="#e54355" stop-opacity="0.8"/><stop offset="0.3" stop-color="#e54355" stop-opacity="0.56"/><stop offset="0.46" stop-color="#e54355" stop-opacity="0.36"/><stop offset="0.62" stop-color="#e54355" stop-opacity="0.2"/><stop offset="0.76" stop-color="#e54355" stop-opacity="0.09"/><stop offset="0.89" stop-color="#e54355" stop-opacity="0.02"/><stop offset="1" stop-color="#e54355" stop-opacity="0"/></radialGradient><radialGradient id="Degradado_sin_nombre_17-2" cx="819.18" cy="423.05" r="348.45" xlink:href="#Degradado_sin_nombre_17"/><linearGradient id="Degradado_sin_nombre_16" x1="1021.92" y1="195.4" x2="572.68" y2="644.64" gradientTransform="matrix(0.39, -0.71, 0.39, 0.71, 123.61, 608.01)" xlink:href="#Degradado_sin_nombre_17"/><linearGradient id="Degradado_sin_nombre_16-2" x1="1016.01" y1="286.49" x2="566.77" y2="735.72" gradientTransform="matrix(0.39, -0.71, 0.39, 0.71, 65.28, 611.64)" xlink:href="#Degradado_sin_nombre_17"/><linearGradient id="Degradado_sin_nombre_16-3" x1="304.4" y1="317.42" x2="-144.84" y2="766.66" gradientTransform="matrix(0.39, 0.71, 0.39, -0.71, 200.75, 1051.25)" xlink:href="#Degradado_sin_nombre_17"/><linearGradient id="Degradado_sin_nombre_16-4" x1="667.92" y1="836.69" x2="218.68" y2="1285.93" gradientTransform="matrix(0.39, 0.71, 0.39, -0.71, 176.79, 1329.37)" xlink:href="#Degradado_sin_nombre_17"/><linearGradient id="Degradado_sin_nombre_16-5" x1="662" y1="927.77" x2="212.76" y2="1377.01" gradientTransform="matrix(0.39, 0.71, 0.39, -0.71, 215.46, 1373.18)" xlink:href="#Degradado_sin_nombre_17"/><linearGradient id="Degradado_sin_nombre_16-6" x1="618.21" y1="661.98" x2="168.97" y2="1111.22" gradientTransform="matrix(0.39, 0.71, 0.39, -0.71, 140.18, 1240.98)" xlink:href="#Degradado_sin_nombre_17"/><linearGradient id="Degradado_sin_nombre_16-7" x1="612.3" y1="753.07" x2="163.06" y2="1202.31" gradientTransform="matrix(0.39, 0.71, 0.39, -0.71, 178.85, 1284.79)" xlink:href="#Degradado_sin_nombre_17"/><linearGradient id="Degradado_sin_nombre_16-8" x1="496.25" y1="422.15" x2="47.01" y2="871.39" gradientTransform="matrix(0.39, 0.71, 0.39, -0.71, 122.98, 1115.81)" xlink:href="#Degradado_sin_nombre_17"/><linearGradient id="Degradado_sin_nombre_16-9" x1="435.27" y1="458.17" x2="-13.97" y2="907.41" gradientTransform="matrix(0.39, 0.71, 0.39, -0.71, 174.36, 1128.95)" xlink:href="#Degradado_sin_nombre_17"/><linearGradient id="Degradado_sin_nombre_14" x1="786.13" y1="552.92" x2="868.14" y2="470.91" gradientTransform="matrix(1.3, -0.3, -0.3, 1.3, -126.42, 126.42)" gradientUnits="userSpaceOnUse"><stop offset="0" stop-color="#e54355"/><stop offset="0.1" stop-color="#e54355" stop-opacity="0.98"/><stop offset="0.24" stop-color="#e54355" stop-opacity="0.91"/><stop offset="0.38" stop-color="#e54355" stop-opacity="0.79"/><stop offset="0.54" stop-color="#e54355" stop-opacity="0.64"/><stop offset="0.71" stop-color="#e54355" stop-opacity="0.43"/><stop offset="0.88" stop-color="#e54355" stop-opacity="0.19"/><stop offset="1" stop-color="#e54355" stop-opacity="0"/></linearGradient><linearGradient id="Degradado_sin_nombre_14-2" x1="737.94" y1="450.98" x2="787.31" y2="401.62" gradientTransform="matrix(1.78, -0.78, -0.78, 1.78, -310.19, 310.19)" xlink:href="#Degradado_sin_nombre_14"/><linearGradient id="Degradado_sin_nombre_14-3" x1="740.23" y1="480.69" x2="789.6" y2="431.33" gradientTransform="matrix(1.78, -0.78, -0.78, 1.78, -310.19, 310.19)" xlink:href="#Degradado_sin_nombre_14"/><linearGradient id="Degradado_sin_nombre_14-4" x1="778.51" y1="479.41" x2="827.88" y2="430.05" gradientTransform="matrix(1.78, -0.78, -0.78, 1.78, -310.19, 310.19)" xlink:href="#Degradado_sin_nombre_14"/><linearGradient id="Degradado_sin_nombre_14-5" x1="836.61" y1="546.35" x2="918.62" y2="464.34" gradientTransform="matrix(1.07, -0.52, -0.52, 1.07, 185.62, 438.45)" xlink:href="#Degradado_sin_nombre_14"/></defs><g class="cls-1"><g id="Layer_2" data-name="Layer 2"><g id="BACKGROUND"><circle class="cls-2" cx="819.18" cy="423.05" r="314.75"/><circle class="cls-3" cx="819.18" cy="423.05" r="348.45"/><rect class="cls-4" x="577.01" y="15.75" width="52.11" height="1208.4" transform="translate(615.01 -244.85) rotate(45)"/><rect class="cls-5" x="552.22" y="87.97" width="52.11" height="1208.4" transform="translate(658.82 -206.17) rotate(45)"/><rect class="cls-6" x="419.6" y="-158.54" width="52.11" height="1208.4" transform="translate(445.66 -184.6) rotate(45)"/><rect class="cls-7" x="743.33" y="9.44" width="52.11" height="1208.4" transform="translate(659.26 -364.31) rotate(45)"/><rect class="cls-8" x="815.55" y="-15.34" width="52.11" height="1208.4" transform="translate(662.89 -422.63) rotate(45)"/><rect class="cls-9" x="618.33" y="9.44" width="52.11" height="1208.4" transform="translate(622.65 -275.92) rotate(45)"/><rect class="cls-10" x="690.55" y="-15.34" width="52.11" height="1208.4" transform="translate(626.28 -334.25) rotate(45)"/><rect class="cls-11" x="458.64" y="-32.38" width="52.11" height="1208.4" transform="translate(546.3 -175.25) rotate(45)"/><rect class="cls-12" x="500.19" y="-87.83" width="52.11" height="1208.4" transform="translate(519.26 -220.87) rotate(45)"/><path class="cls-13" d="M1002.91,336.14h0a11.3,11.3,0,0,1,0,16L774.54,580.49a11.29,11.29,0,0,1-16,0h0a11.29,11.29,0,0,1,0-16L986.93,336.14A11.3,11.3,0,0,1,1002.91,336.14Z"/><path class="cls-14" d="M913.35,275.58h0a6.81,6.81,0,0,1,0,9.62L688.08,510.47a6.81,6.81,0,0,1-9.62,0h0a6.8,6.8,0,0,1,0-9.62L903.73,275.58A6.8,6.8,0,0,1,913.35,275.58Z"/><path class="cls-15" d="M894.35,326.58h0a6.81,6.81,0,0,1,0,9.62L669.08,561.47a6.81,6.81,0,0,1-9.62,0h0a6.8,6.8,0,0,1,0-9.62L884.73,326.58A6.8,6.8,0,0,1,894.35,326.58Z"/><path class="cls-16" d="M963.35,294.58h0a6.81,6.81,0,0,1,0,9.62L738.08,529.47a6.81,6.81,0,0,1-9.62,0h0a6.8,6.8,0,0,1,0-9.62L953.73,294.58A6.8,6.8,0,0,1,963.35,294.58Z"/><path class="cls-17" d="M1070.5,312.54h0a6.2,6.2,0,0,1,0,8.77L834.92,556.89a6.2,6.2,0,0,1-8.77,0h0a6.19,6.19,0,0,1,0-8.77l235.58-235.58A6.2,6.2,0,0,1,1070.5,312.54Z"/></g></g></g></svg>