<svg xmlns="http://www.w3.org/2000/svg" xmlns:xlink="http://www.w3.org/1999/xlink" viewBox="0 0 1900 1805.17"><defs><style>.cls-1{fill:none;}.cls-2{isolation:isolate;}.cls-3,.cls-35,.cls-7{fill:#fff;}.cls-4{fill:url(#linear-gradient);}.cls-5{fill:url(#linear-gradient-2);}.cls-6{fill:url(#linear-gradient-3);}.cls-7{opacity:0.48;mix-blend-mode:soft-light;}.cls-8{fill:url(#linear-gradient-4);}.cls-11,.cls-14,.cls-19,.cls-23,.cls-43,.cls-44,.cls-45,.cls-9{opacity:0.3;mix-blend-mode:multiply;}.cls-9{fill:url(#linear-gradient-5);}.cls-10{fill:url(#linear-gradient-6);}.cls-11{fill:url(#linear-gradient-7);}.cls-12{fill:url(#linear-gradient-8);}.cls-13{fill:url(#linear-gradient-9);}.cls-14{fill:url(#linear-gradient-10);}.cls-15{fill:url(#linear-gradient-11);}.cls-16{fill:url(#linear-gradient-12);}.cls-17{clip-path:url(#clip-path);}.cls-18{fill:url(#linear-gradient-13);}.cls-19{fill:url(#linear-gradient-14);}.cls-20{fill:url(#linear-gradient-15);}.cls-21{fill:url(#linear-gradient-16);}.cls-22{fill:url(#linear-gradient-18);}.cls-24{fill:url(#linear-gradient-19);}.cls-25{fill:url(#linear-gradient-20);}.cls-26{fill:url(#linear-gradient-21);}.cls-27{fill:url(#linear-gradient-22);}.cls-28{fill:url(#linear-gradient-23);}.cls-29{fill:url(#linear-gradient-24);}.cls-30{fill:url(#linear-gradient-25);}.cls-31{fill:url(#linear-gradient-26);}.cls-32{fill:url(#linear-gradient-27);}.cls-33{fill:url(#linear-gradient-28);}.cls-34{fill:url(#linear-gradient-29);}.cls-35{opacity:0.5;}.cls-36{fill:url(#linear-gradient-30);}.cls-37{fill:url(#linear-gradient-31);}.cls-38{fill:url(#linear-gradient-32);}.cls-39{fill:url(#linear-gradient-33);}.cls-40{fill:url(#linear-gradient-34);}.cls-41{fill:url(#linear-gradient-35);}.cls-42{fill:url(#linear-gradient-36);}.cls-43{fill:url(#linear-gradient-37);}.cls-44{fill:url(#linear-gradient-38);}.cls-45{fill:url(#linear-gradient-39);}</style><linearGradient id="linear-gradient" x1="825.26" y1="1706.4" x2="694.54" y2="1761.3" gradientUnits="userSpaceOnUse"><stop offset="0" stop-color="#5f2d78"/><stop offset="1" stop-color="#5f2d78"/></linearGradient><linearGradient id="linear-gradient-2" x1="612.58" y1="1125.29" x2="477.05" y2="1182.21" xlink:href="#linear-gradient"/><linearGradient id="linear-gradient-3" x1="39.38" y1="1158.1" x2="1274.47" y2="1158.1" xlink:href="#linear-gradient"/><linearGradient id="linear-gradient-4" x1="39.38" y1="1648.69" x2="1900" y2="1648.69" xlink:href="#linear-gradient"/><linearGradient id="linear-gradient-5" x1="221.84" y1="1633.3" x2="1585.11" y2="1633.3" xlink:href="#linear-gradient"/><linearGradient id="linear-gradient-6" x1="-1991.54" y1="1096.99" x2="-2220.21" y2="1366.68" gradientTransform="translate(2581.42)" gradientUnits="userSpaceOnUse"><stop offset="0" stop-color="#2e1a47"/><stop offset="1" stop-color="#5f2d78"/></linearGradient><linearGradient id="linear-gradient-7" x1="-2019.71" y1="1073.11" x2="-2248.38" y2="1342.79" xlink:href="#linear-gradient-6"/><linearGradient id="linear-gradient-8" x1="-90.35" y1="905.52" x2="-274.93" y2="1123.21" gradientTransform="matrix(-1, 0, 0, 1, 115.68, 0)" gradientUnits="userSpaceOnUse"><stop offset="0" stop-color="#eb8b23"/><stop offset="1" stop-color="#5f2d78"/></linearGradient><linearGradient id="linear-gradient-9" x1="-1885.95" y1="602.13" x2="-1674.91" y2="1769.42" gradientTransform="translate(2581.42)" gradientUnits="userSpaceOnUse"><stop offset="0" stop-color="#e54355"/><stop offset="1" stop-color="#5f2d78"/></linearGradient><linearGradient id="linear-gradient-10" x1="-1958.16" y1="604.27" x2="-1744.49" y2="1786.09" xlink:href="#linear-gradient-9"/><linearGradient id="linear-gradient-11" x1="-849.84" y1="766.7" x2="-1270.22" y2="1262.47" xlink:href="#linear-gradient-8"/><linearGradient id="linear-gradient-12" x1="-820.4" y1="1008.48" x2="-1225.65" y2="1018.81" gradientTransform="matrix(-1, 0, 0, 1, 115.68, 0)" xlink:href="#linear-gradient-6"/><clipPath id="clip-path"><path class="cls-1" d="M1175.71,1395.83c22.18,0,44-9.31,64.79-27.67,21.18-18.68,40.34-45.7,56.93-80.32,34.89-72.76,54.11-169.81,54.11-273.25s-19.22-200.49-54.11-273.26c-16.59-34.62-35.75-61.64-56.93-80.32-20.81-18.36-42.61-27.67-64.79-27.67s-44,9.31-64.8,27.67c-21.18,18.68-40.33,45.7-56.93,80.32-34.89,72.77-54.1,169.81-54.1,273.26s19.21,200.49,54.1,273.25c16.6,34.62,35.75,61.64,56.93,80.32C1131.72,1386.52,1153.52,1395.83,1175.71,1395.83Z"/></clipPath><linearGradient id="linear-gradient-13" x1="-1603.44" y1="639.01" x2="-1465.65" y2="1401.15" gradientTransform="translate(2581.42)" gradientUnits="userSpaceOnUse"><stop offset="0" stop-color="#f6cc1b"/><stop offset="1" stop-color="#eb8b23"/></linearGradient><linearGradient id="linear-gradient-14" x1="-1523.98" y1="737.19" x2="-1422.32" y2="1299.54" xlink:href="#linear-gradient-13"/><linearGradient id="linear-gradient-15" x1="-3380.44" y1="262.3" x2="-3909.41" y2="1584.74" gradientTransform="matrix(-1, 0, 0, 1, -2068.32, 0)" xlink:href="#linear-gradient-6"/><linearGradient id="linear-gradient-16" x1="-3707.92" y1="768.5" x2="-3464.94" y2="1219.16" gradientTransform="matrix(-1, 0, 0, 1, -2068.32, 0)" gradientUnits="userSpaceOnUse"><stop offset="0" stop-color="#eb8b23"/><stop offset="1" stop-color="#e54355"/></linearGradient><linearGradient id="linear-gradient-18" x1="-2936.97" y1="488.83" x2="-2709.48" y2="910.76" gradientTransform="matrix(-0.99, -0.15, -0.15, 0.99, -1203.79, -162.01)" xlink:href="#linear-gradient-16"/><linearGradient id="linear-gradient-19" x1="-3773.64" y1="793.56" x2="-3533.68" y2="1275.1" xlink:href="#linear-gradient-16"/><linearGradient id="linear-gradient-20" x1="1469.77" y1="580.14" x2="1633.14" y2="618.73" gradientTransform="matrix(1, 0, 0, 1, 0, 0)" xlink:href="#linear-gradient-13"/><linearGradient id="linear-gradient-21" x1="-3674.25" y1="535.79" x2="-3534.19" y2="795.55" gradientTransform="matrix(-1, 0, 0, 1, -2068.32, 0)" xlink:href="#linear-gradient-13"/><linearGradient id="linear-gradient-22" x1="-3715.3" y1="552.95" x2="-3578.05" y2="828.38" gradientTransform="matrix(-1, 0, 0, 1, -2068.32, 0)" xlink:href="#linear-gradient-13"/><linearGradient id="linear-gradient-23" x1="1581.29" y1="1175.45" x2="1678.1" y2="1286.25" gradientTransform="matrix(1, 0, 0, 1, 0, 0)" xlink:href="#linear-gradient-13"/><linearGradient id="linear-gradient-24" x1="-3786.21" y1="1192.82" x2="-3597.23" y2="1543.31" gradientTransform="matrix(-1, 0, 0, 1, -2068.32, 0)" xlink:href="#linear-gradient-13"/><linearGradient id="linear-gradient-25" x1="-3838.85" y1="1211.4" x2="-3652.51" y2="1585.33" gradientTransform="matrix(-1, 0, 0, 1, -2068.32, 0)" xlink:href="#linear-gradient-13"/><linearGradient id="linear-gradient-26" x1="1278.37" y1="1171.54" x2="1457.8" y2="1181.16" gradientTransform="matrix(1, 0, 0, 1, 0, 0)" xlink:href="#linear-gradient-9"/><linearGradient id="linear-gradient-27" x1="-3470.39" y1="1099.04" x2="-3316.22" y2="1384.98" gradientTransform="matrix(-1, 0, 0, 1, -2068.32, 0)" xlink:href="#linear-gradient-9"/><linearGradient id="linear-gradient-28" x1="-3514.99" y1="1115.98" x2="-3363.14" y2="1420.71" gradientTransform="matrix(-1, 0, 0, 1, -2068.32, 0)" xlink:href="#linear-gradient-8"/><linearGradient id="linear-gradient-29" x1="49.69" y1="1370.94" x2="-166.76" y2="1783.96" gradientTransform="translate(15.87 -106.86) rotate(-14.54)" xlink:href="#linear-gradient-9"/><linearGradient id="linear-gradient-30" x1="-81.86" y1="1663.74" x2="-350.33" y2="1985.58" gradientTransform="translate(15.87 -106.86) rotate(-14.54)" xlink:href="#linear-gradient-16"/><linearGradient id="linear-gradient-31" x1="185.95" y1="327.61" x2="574.81" y2="327.61" gradientUnits="userSpaceOnUse"><stop offset="0" stop-color="#5f2d78"/><stop offset="1" stop-color="#24205b"/></linearGradient><linearGradient id="linear-gradient-32" x1="1046.53" y1="339.99" x2="1349.09" y2="339.99" xlink:href="#linear-gradient-31"/><linearGradient id="linear-gradient-33" x1="642.98" y1="334.63" x2="967.43" y2="334.63" xlink:href="#linear-gradient-31"/><linearGradient id="linear-gradient-34" x1="664.56" y1="-525.69" x2="202.66" y2="1058.71" gradientTransform="matrix(1, 0, 0, 1, 0, 0)" xlink:href="#linear-gradient-9"/><linearGradient id="linear-gradient-35" x1="1059.82" y1="-352.65" x2="628.95" y2="1125.29" gradientTransform="matrix(1, 0, 0, 1, 0, 0)" xlink:href="#linear-gradient-9"/><linearGradient id="linear-gradient-36" x1="1382.79" y1="-204.84" x2="981" y2="1173.35" gradientTransform="matrix(1, 0, 0, 1, 0, 0)" xlink:href="#linear-gradient-9"/><linearGradient id="linear-gradient-37" x1="271.69" y1="-250.59" x2="477.48" y2="887.69" gradientTransform="matrix(1, 0, 0, 1, 0, 0)" xlink:href="#linear-gradient-9"/><linearGradient id="linear-gradient-38" x1="774.69" y1="224.59" x2="865.18" y2="725.11" gradientTransform="matrix(1, 0, 0, 1, 0, 0)" xlink:href="#linear-gradient-9"/><linearGradient id="linear-gradient-39" x1="1182.26" y1="290.31" x2="1248.96" y2="659.28" gradientTransform="matrix(1, 0, 0, 1, 0, 0)" xlink:href="#linear-gradient-9"/></defs><g class="cls-2"><g id="Layer_2" data-name="Layer 2"><g id="Metaphor"><path class="cls-3" d="M741.27,7.77S101.28,35.58,65,598.44-139.29,1696.85,269.22,1728.81s1366.23,94.07,1502.4-241.26S1975.87-110.31,741.27,7.77Z"/><path class="cls-4" d="M1900,1634.73,39.38,1618.38v48.39c0,13.13,8.11,24.3,19.1,26.29l526.13,95.28a71.18,71.18,0,0,0,18.88.9L1879.78,1680.6c11.39-1,20.22-12.17,20.22-25.67Z"/><path class="cls-5" d="M1224.79,1556.3,58.62,1644.82c-20.87,1.58-37.84-15.25-37.84-37.6V711.76c0-22.35,17-40.47,37.84-40.47H1224.79c17.19,0,31.09,16.38,31.09,36.58v809.48C1255.88,1537.55,1242,1555,1224.79,1556.3Z"/><path class="cls-6" d="M1243.38,1556.3,77.21,1644.82c-20.86,1.58-37.83-15.25-37.83-37.6V711.76c0-22.35,17-40.47,37.83-40.47H1243.38c17.19,0,31.09,16.38,31.09,36.58v809.48C1274.47,1537.55,1260.57,1555,1243.38,1556.3Z"/><path class="cls-3" d="M1207.05,1499.23,120.89,1576.12c-17,1.2-30.78-12.62-30.78-30.86v-784c0-18.25,13.8-33.1,30.78-33.18l1086.16-4.82c14.19-.07,25.66,13.35,25.66,30v714.07C1232.71,1483.94,1221.24,1498.22,1207.05,1499.23Z"/><path class="cls-3" d="M701.48,695.78c0,8.32-6,15.08-13.41,15.11s-13.44-6.72-13.44-15.06,6-15.1,13.44-15.11S701.48,687.46,701.48,695.78Z"/><path class="cls-7" d="M962.41,1310.7c-89.9-52-160.59,13.88-228.81-51.08-41.36-39.38-21.05-68.74-71.94-127.59-56.37-65.18-93.07-43.27-149.71-101.94C440.32,955.92,476.14,898.21,414.44,845c-74.84-64.61-155.56-4.81-226.81-66.77C156.9,751.46,140,712.6,131.23,671.29H61.52c-12.22,0-22.14,10.63-22.14,23.75v928.22c0,13.12,9.92,23,22.14,22.07L1250,1554.71c5.84-.44,11-4.1,14.33-9.4-87-3.41-140.46-34.73-174.62-67.12C1022.9,1414.83,1034.49,1352.36,962.41,1310.7Z"/><path class="cls-8" d="M1289.86,1552.28,39.38,1645.46l545.23,98.74a72,72,0,0,0,18.88.9L1900,1634.73l-590.25-81.82A94.51,94.51,0,0,0,1289.86,1552.28Z"/><polygon class="cls-9" points="221.84 1647.8 1262.91 1569.07 1585.11 1613.38 553.01 1697.53 221.84 1647.8"/><path class="cls-10" d="M552.63,1508.13c-29.53-1.89-57.42-20.6-69.42-49.41L314,1052.37a71,71,0,0,1,39-93.72c37.29-14.95,95.42,2.66,111.22,40.05l173.55,410.75c16.36,38.73-2.09,81.07-41,94.4C587.23,1507.13,562.37,1508.76,552.63,1508.13Z"/><path class="cls-11" d="M353.05,958.65c37.29-14.95,95.42,2.66,111.22,40.05L623,1374.27c-26.55-6.83-58-6.21-88.17-32.68-50.24-44-25.52-100.5-65.34-150.79-18.21-23-51.89-47.18-120.44-54.46l-35-84A71,71,0,0,1,353.05,958.65Z"/><path class="cls-12" d="M251.2,878a31.19,31.19,0,0,1,4.33.31l104.58-1.15v271.91l-101-1.39a32.11,32.11,0,0,1-7.93,1c-35.84,0-64.89-60.6-64.89-135.34S215.36,878,251.2,878Z"/><path class="cls-13" d="M360.11,877.17c-39.62,90.54-39.62,180.76,0,271.91L1138,1399.18,1146,636Z"/><path class="cls-14" d="M928,1174.85c-74-28-96.94-135.32-182.81-138.93-67.38-2.83-87.68,62.59-153.69,55.53-67.58-7.22-78.93-80.08-154.61-105.76-34.41-11.68-70.41-9.52-105.35.35q-7,81.11,28.57,163L1138,1399.18l-46-259.12C1015.27,1184.8,963.86,1188.44,928,1174.85Z"/><ellipse class="cls-15" cx="1175.71" cy="1014.59" rx="189.22" ry="394.63"/><path class="cls-16" d="M1175.71,1395.83c22.18,0,44-9.31,64.79-27.67,21.18-18.68,40.34-45.7,56.93-80.32,34.89-72.76,54.11-169.81,54.11-273.25s-19.22-200.49-54.11-273.26c-16.59-34.62-35.75-61.64-56.93-80.32-20.81-18.36-42.61-27.67-64.79-27.67s-44,9.31-64.8,27.67c-21.18,18.68-40.33,45.7-56.93,80.32-14.59,30.42-26.44,65.09-35.28,102.7C1006.38,896.37,1042,951,1042,1011.2c0,64-34.74,129-20.87,183.82,8.55,33.81,19.58,65.08,32.88,92.82,16.6,34.62,35.75,61.64,56.93,80.32C1131.72,1386.52,1153.52,1395.83,1175.71,1395.83Z"/><g class="cls-17"><path class="cls-18" d="M1191.28,1019.76c0,100-66.2,179.37-146.72,177.35-79.27-2-142.63-82.39-142.63-179.58s63.36-176.61,142.63-177.38C1125.08,839.37,1191.28,919.78,1191.28,1019.76Z"/><path class="cls-19" d="M1178.56,1018.14c0,74.24-32.26,133.19-71.49,131.69-38.62-1.48-69.5-61.18-69.5-133.36s30.88-131.14,69.5-131.71C1146.3,884.18,1178.56,943.89,1178.56,1018.14Z"/></g><path class="cls-20" d="M1404.44,1017.94s24.81-15.41,39.27-39.54c-22-25.06-34.89-55.86-34.89-88.68,0-78.71,74.2-144.76,169.77-147.65,97.75-3,181.05,60.66,185.32,143.43v.09q.09,1.53.12,3.09c0,.15,0,.3,0,.45,0,1,0,2,0,3a128.18,128.18,0,0,1-.75,13.92q-.32,2.94-.77,5.84-.9,5.8-2.33,11.45c-.47,1.88-1,3.74-1.54,5.6-.37,1.23-.76,2.46-1.17,3.68-9.57,28.66-29.06,53.51-55,72.06l-1.67,1.17a181.24,181.24,0,0,1-28.89,16.36l-1.93.86q-6.8,3-13.93,5.47-3,1.07-6.16,2c-1.38.43-2.77.85-4.16,1.25-2.1.6-4.21,1.18-6.34,1.72-1.42.36-2.84.7-4.28,1a210.69,210.69,0,0,1-56.54,5.09c-1.45-.06-2.89-.14-4.33-.24l-1.26-.09c-1-.07-2-.14-3.07-.23l-1.35-.13-3-.28-1.27-.14-3.06-.36-1.09-.15c-1.09-.14-2.18-.29-3.26-.45l-.83-.13c-1.19-.18-2.38-.37-3.56-.57l-.48-.08c-1.34-.23-2.66-.47-4-.72h0a201.71,201.71,0,0,1-32.1-8.92l0,0q-9-3.36-17.52-7.51C1484.83,1030.41,1449.91,1050.07,1404.44,1017.94Z"/><path class="cls-21" d="M1396.09,889.18c0,78.71,74.19,145.78,169.76,150,100.37,4.42,185.5-61.54,185.5-147.55s-85.13-153.14-185.5-150.11C1470.28,744.41,1396.09,810.47,1396.09,889.18Z"/><path class="cls-21" d="M1396.09,889.18c0,78.71,74.19,145.78,169.76,150,100.37,4.42,185.5-61.54,185.5-147.55s-85.13-153.14-185.5-150.11C1470.28,744.41,1396.09,810.47,1396.09,889.18Z"/><path class="cls-22" d="M1492,1013.56s-41.24,45.54-100.26,3.84c0,0,47.23-29.33,49.34-70.39Z"/><path class="cls-3" d="M1468.51,850.56h0c7.18-20.48,25.13-35.19,46.34-35.44,28-.34,51,24.6,51,55.7,0-31.1,23.27-56.6,52.34-57,22.58-.27,42.07,14.67,50,36.08h0c30.31,77.25-102.32,145-102.32,145S1441.46,923.19,1468.51,850.56Z"/><g class="cls-23"><path class="cls-24" d="M1523.27,999.79c21-43-.23-84.13,28.27-112,29.38-28.78,68.22-1.63,110.86-25.44,16.72-9.35,35.48-27.34,49.53-64.52,24.64,25.72,39.42,58.33,39.42,93.85,0,86-85.13,152-185.5,147.55a207.13,207.13,0,0,1-62.64-12.49A91.65,91.65,0,0,0,1523.27,999.79Z"/></g><path class="cls-25" d="M1578,519.65c53.8,1.65,99,34.5,107.8,76.08l0,.16c.48,2.28.84,4.58,1.1,6.91,0,.15,0,.3,0,.46.11,1.08.2,2.17.26,3.27l0,.6c0,1.12.09,2.24.09,3.37,0,48.32-49.32,84.94-109.36,81.83-1.6-.08-3.18-.2-4.76-.33l-.47,0c-1.49-.14-3-.3-4.45-.48l-.69-.08c-1.43-.19-2.85-.39-4.26-.62l-.8-.13c-1.39-.23-2.76-.48-4.13-.76l-.83-.17c-1.36-.28-2.71-.57-4-.89l-.78-.19c-1.33-.33-2.66-.67-4-1l-.7-.2c-1.18-.34-2.35-.69-3.52-1l-.88-.28c-1.18-.38-2.35-.78-3.51-1.19l-.75-.26h0c-39.9-14.39-68-46.79-68-83C1471.48,554.53,1518.82,517.83,1578,519.65Z"/><path class="cls-26" d="M1460.09,601.6c0,47.06,47.34,87.67,106.51,90.73,60,3.11,109.36-33.51,109.36-81.83s-49.32-89-109.36-90.85C1507.43,517.83,1460.09,554.53,1460.09,601.6Z"/><path class="cls-3" d="M1528.18,586.79c0,13.82,16.09,46.69,27.46,68.19,4.73,8.95,17.2,9.55,21.95,1,11.46-20.54,27.79-52.26,27.79-66.21,0-21.53-17.41-39.58-38.78-40.31A36.94,36.94,0,0,0,1528.18,586.79Zm17.75.7a19.84,19.84,0,0,1,20.67-20,21.79,21.79,0,0,1,20.78,21.65,19.82,19.82,0,0,1-20.78,20A21.78,21.78,0,0,1,1545.93,587.49Z"/><g class="cls-23"><path class="cls-27" d="M1540.48,669.06c13-24.82-.14-49.19,17.39-64.89,17.88-16,41.24.51,66.52-12.18,9.82-4.93,20.76-14.69,28.91-35.36,14.2,15.2,22.66,33.91,22.66,53.87,0,48.32-49.32,84.94-109.36,81.83a134.09,134.09,0,0,1-38.56-7.7A52.8,52.8,0,0,0,1540.48,669.06Z"/></g><path class="cls-28" d="M1822.56,1275.41l.12,1.42c0,.39,0,.78.08,1.18,0,.57.06,1.14.08,1.71,0,.31,0,.63,0,.94,0,.9,0,1.8,0,2.7a88.09,88.09,0,0,1-.77,11.64,92.19,92.19,0,0,1-4.85,19.59c-.34.9-.68,1.8-1,2.7a99.72,99.72,0,0,1-5,10.52,112.73,112.73,0,0,1-15.64,21.79c-1.37,1.51-2.79,3-4.24,4.44s-3,2.88-4.51,4.28a142.94,142.94,0,0,1-20.41,15.33c-.93.57-1.86,1.14-2.8,1.7q-2.84,1.68-5.76,3.25a166,166,0,0,1-21.63,9.68c-2.17.79-4.35,1.54-6.57,2.25s-4.45,1.38-6.72,2-4.55,1.21-6.86,1.75a185.39,185.39,0,0,1-39.88,4.87c-1.18,0-2.36,0-3.53,0h-1.13l-2.4,0-1.28,0-2.22-.08-1.31-.06-2.19-.12-1.27-.09-2.22-.16-1.2-.1-2.3-.22-1.08-.11-2.44-.28-.9-.11c-.9-.11-1.79-.24-2.69-.36l-.61-.09c-1-.15-2.07-.31-3.1-.48l-.18,0a170.69,170.69,0,0,1-19.13-4.27l0,0c-52.71-15.09-89.57-54.21-89.57-100.6,0-60.3,62.3-112,140.73-115.62,75.74-3.46,139.15,39,146,96.67,0,.38.09.75.13,1.13S1822.52,1275,1822.56,1275.41Z"/><path class="cls-29" d="M1526.14,1291.9c0,60.31,60.95,108.34,137.68,107.26,78.5-1.11,143.47-53,143.47-115.8s-65-110.75-143.47-107.08C1587.09,1179.86,1526.14,1231.6,1526.14,1291.9Z"/><path class="cls-3" d="M1622.9,1229.07v106.69c0,6.85,5.8,11.12,10.81,8l89.35-56.09c5.57-3.49,5.57-13.4,0-16.56l-89.35-50.66C1628.7,1217.59,1622.9,1222.22,1622.9,1229.07Z"/><g class="cls-23"><path class="cls-30" d="M1629.88,1371.39c16.82-33.13-.19-63.35,22.58-85.21,23.29-22.36,53.78-3.18,86.91-22,12.89-7.32,27.29-21,38-48.65,18.73,18.36,29.9,41.86,29.9,67.82,0,62.84-65,114.69-143.47,115.8a170,170,0,0,1-50.07-6.64A75.1,75.1,0,0,0,1629.88,1371.39Z"/></g><path class="cls-31" d="M1359.58,1268.76l-1-.08-1.9-.15-1.06-.1-1.9-.19-1-.11-2-.24-.91-.11-2-.29-.78-.11-2.22-.35-.58-.1-2.47-.44-.3-.06a149.73,149.73,0,0,1-19-4.85l0,0c-44.23-14.54-75-48.31-75-86.68,0-49.92,52.14-90.77,118.12-91.25,64.14-.48,118.11,37.16,123.89,85.65l.09.79.12,1.2.09,1.13c0,.34,0,.68.07,1s0,.94.07,1.41c0,.27,0,.54,0,.81,0,.75,0,1.5,0,2.25,0,25.47-13.26,48.17-34.65,64.56q-2.07,1.59-4.24,3.09c-1.45,1-2.93,2-4.43,2.93-.76.48-1.52.94-2.29,1.4-1.54.92-3.11,1.82-4.71,2.68s-3.23,1.69-4.89,2.49c-1.4.68-2.83,1.33-4.27,2a140.35,140.35,0,0,1-25.86,8.44c-1.75.4-3.52.76-5.3,1.1a157.7,157.7,0,0,1-33.77,2.52l-3-.13-.92,0Z"/><path class="cls-32" d="M1241.2,1174.88c0,49.91,51.21,92.06,116,94.19,66.69,2.19,122.19-38.6,122.19-91.18s-55.5-94.77-122.19-94.26C1292.41,1084.11,1241.2,1125,1241.2,1174.88Z"/><path class="cls-3" d="M1378.58,1239.92l-5-35-18.1-.34,5,34.85-17.8-.47-4.92-34.71-19.19-.36v-17.7l16.24.24-3.14-21.66-18.36-.19v-17.87l15.62.1-5.09-33.55,17.46,0,5.13,33.68,18,.11-5-33.81,17.73,0,5,33.94,19.93.13v18.22l-17.12-.17,3.21,21.91,19.58.29v18l-16.36-.31,5.24,35.13Zm-8.19-53-3.19-21.83-18-.18,3.16,21.74Z"/><g class="cls-23"><path class="cls-33" d="M1328.5,1244.65c14.23-26.9-.15-52.65,19.1-70,19.72-17.78,45.61-.72,73.8-15.22,11-5.65,23.27-16.59,32.44-39.3,16,16,25.57,36,25.57,57.75,0,52.58-55.5,93.37-122.19,91.18a149.4,149.4,0,0,1-42.33-7.49A58.33,58.33,0,0,0,1328.5,1244.65Z"/></g><path class="cls-34" d="M310.21,1784.36c-24.94,4.4-58,5.72-93-6.11-38-12.8-91.56-45.45-87.65-75.8,1.46-11.32,11-23.19,21.68-25,15.73-2.76,23.07,18.17,55.86,34.5,6.06,3,37.39,18.63,48.15,7.84,5.35-5.36,4.54-16.17,1.48-23.75-9-22.17-37.9-18.42-71.28-36.28-33.84-18.1-68-56.14-62.7-89.22,3-19,19.33-37.62,33.32-37.2,6,.18,10.68,3.81,37,35.88,21.61,26.32,26.95,34.24,36.61,34.76,10,.54,23.29-6.83,26.37-17.29,8-27.25-62.13-46.21-84.8-110.75-10.15-28.93-13.52-74.83,10.82-91.17,16.46-11,44.76-8,58.39,6.15,12.29,12.79,5,26.71,20.14,58.67,4.59,9.71,14,29.67,22.78,28.58,10.25-1.28,14.41-30.94,15.28-38.13,6.58-54.1-22.12-73.61-10.09-102.17,9.38-22.27,38.34-37.74,65.25-34.71,23.55,2.66,46.22,19.58,53.11,41.42,7,22.22-6.12,49.56-32.38,104.24-12.45,25.92-23,44-16.72,64.93,3.07,10.2,10.92,23.64,18.64,23,17.05-1.3,8.05-69,44-89.12,18.42-10.31,45.62-6.49,61,8.52,18.88,18.4,18,51.63,5.66,72.21-16.17,26.84-42.58,16.48-77.44,49.85-15.47,14.81-38.32,43.69-29.54,60.4,3.82,7.28,13.91,12.76,23.08,11.46,20.56-2.92,18.66-37.36,47-60.07,20.44-16.37,52.72-23.55,63.7-12.47,15.51,15.63-11.74,67.33-27.21,91.06C468.08,1697.27,421.32,1754.6,310.21,1784.36Z"/><path class="cls-35" d="M318.17,1771.12c-17.45-53.95-10.11-174.94,2.6-234.53,12.43-58.25,16-146.23,16-147.11l2.35.09c0,.88-3.57,89.06-16,147.51-12.66,59.34-20,179.73-2.67,233.32Z"/><path class="cls-36" d="M262.16,1805.06c-27-22.45-69.12-64.69-91.63-130-9.28-26.9-27.4-79.43-6.59-134.2,10.37-27.29,36.2-70.38,62.18-66.63,16.71,2.42,32.32,24.07,32.81,43.48.5,19.57-14.66,25.33-23.52,61.06-3.28,13.22-6.93,28.69.58,34.94,6.27,5.23,19.23,3.11,27.73-3.2,17.54-13,5.08-35.86,21.74-58.87,11.84-16.36,35.44-28.72,48.93-21.34,11.71,6.41,15.44,27.52,10.69,43.47-7.59,25.53-33.15,25.25-42.46,53.42-4.13,12.5-4.85,30,2.85,34.78,8.78,5.49,27.42-6.07,38.33-17.49,14.4-15.09,12.09-26.57,23-30.91,12.2-4.86,31.06,3.06,37,15.7,8.28,17.7-9.34,43.67-25.14,57.07-20.24,17.16-39.12,15.07-46.46,33.24-2.7,6.67-4.13,16.78.71,21.44,6.9,6.65,23.75-.51,34.94-5.26,27.24-11.57,32.37-23.86,43.82-21.51s21.31,18.09,20,31.21c-.75,7.3-5.49,19.53-40.59,35.52C366.49,1792.21,324.08,1806.61,262.16,1805.06Z"/><path class="cls-37" d="M570.59,395a97.49,97.49,0,0,0-16.89-36q-21-27.51-69-38.26l0-3.24q35.26-4.89,56.16-31.53t20.67-68.43q-.21-61.86-48.37-92.38c-28.74-18.2-73.34-29.79-134.45-34.7q-12-.95-24.77-1.57L241.69,83.42,186,80.72l2.58,493.77,55.62-1.12,146.88-3c57.45-1.46,102.31-14.41,135-38.71s49-57.76,48.79-100.31A150.64,150.64,0,0,0,570.59,395ZM301.65,170.88l54,1.94,8.14.31q44.16,2,65.26,13.72c.38.19.75.4,1.1.61q21.69,12.67,21.78,40Q452,253.82,436,266.33a36.05,36.05,0,0,1-3.75,2.65c-13.28,8.21-34.84,12-64.87,11.36l-11.26-.24L302.17,279ZM378,486.62l-1.83,0-73,.59-.61-126.5,53.91.52,16.38.16c61,.73,91.23,20.72,91.39,59.94q.15,32.76-21.13,48.8Q422.36,485.74,379,486.59Z"/><path class="cls-38" d="M1332.69,366.93c-.21-.33-.92-.68-1.24-1,0,0,0-.05,0-.07-11-15.65-27.94-26.56-53.75-32.71v-2.86q28.15-4.39,44.62-28c11-15.69,16.68-35.89,16.68-60.69,0-36.52-12.41-63.69-37.58-81.61S1235.71,132.1,1179,129.19l-89-3.87h-.19l-43.26-2.54.56,357.57.12,76.85,43.17-.93,112.86-2.33c1,0,2.07,0,3.07-.09l1.18,0c43.63-1.53,77.86-12.86,103-33.93q38.64-32.29,38.57-88.84Q1349,391.16,1332.69,366.93ZM1178.47,480l-42,.35,0-22-.09-89.59,42,.4,12.15.12c31.49.3,52.55,8,63.35,23q8.55,11.89,8.53,29.94,0,29-16.67,43.14c-11.1,9.43-28.3,14.26-51.73,14.52Zm-.24-277.22.42,0,.47-.07h4.13c24.26,2.35,41.92,5.28,53.09,12.63s16.92,19.19,16.94,35.33q0,25.89-15.51,36.8c-10.39,7.28-27.23,10.68-50.67,10.16l-8-.14-.82,0-42-.87-.12-95.36Z"/><path class="cls-39" d="M967.43,558.71l-273,5.53-48.8,1-.21-67.87L764.34,381q7.29-7.22,13.84-13.82c26.63-26.76,44.36-45.65,53.3-56.86q15.59-19.53,22.38-36.25a90.74,90.74,0,0,0,6.76-34.74q-.07-27-15.18-40.68A53.51,53.51,0,0,0,826,187.53a76.6,76.6,0,0,0-21.25-3.59,118,118,0,0,0-52.45,10.19c-2.87,1.26-5.75,2.65-8.66,4.08l2.84,30.33-48.09-1.46L643,162.38q35.58-27.62,58.7-38.49a207.53,207.53,0,0,1,50.06-16A235.45,235.45,0,0,1,791,104.16l-.1-.07s48.42-.82,85.44,4.36l1.06.14c.58.07,1.15.17,1.73.26.92.12,1.83.26,2.72.42-4.22,2.47-8,4.74-11.42,6.85a154.1,154.1,0,0,1,16.54,7.37q32.23,16.76,49.9,44.76t17.64,62.94a150.28,150.28,0,0,1-10.61,57q-10.7,26.57-33.31,54.43c-3.47,4.26-7.53,8.93-12.24,14.05-15.84,17.24-38.39,39.31-68.45,66.34l-58.94,54.82v4.35l46.72-.38,149.78-1.22Z"/><path class="cls-40" d="M621.22,398.31q-5-22.55-17.34-38.82c-13.84-18.2-36.43-30.87-68-38l0-3.21q34.73-4.86,55.34-31.3t20.39-67.94q-.21-61.4-47.65-91.68C532,107,480,95,407.1,91.42L378.27,90l-24.35-1.18L241.69,83.42l2.46,490,146.88-3,50.58-1c57.55-1.15,102.35-14,135-38.45q48.39-36.28,48.09-99.56A153.82,153.82,0,0,0,621.22,398.31ZM355.61,172.82l8.14.31L413.86,175c4.48.16,8.8.4,12.92.7q37,2.82,55.37,13.61,21.36,12.55,21.44,39.69.11,29.07-19.4,41.22c-10.07,6.26-25,10-44.88,11-5.89.32-12.22.39-19,.25l-52.95-1.12-11.26-.24ZM379,486.59l-1,0-1.83,0-19.16.14-.57-125.53,16.38.16,52.05.5c60.67.58,90.67,20.41,90.82,59.49q.13,32.55-20.84,48.42t-65.92,16.37Z"/><path class="cls-41" d="M1011.55,479.7l-44-.15h-.11L837.16,481.6l-19.07.3h-.24v-4.46L876,423q12.53-11.34,23.29-21.49,18-16.93,31.39-30.69c10.42-10.65,18.72-19.87,25-27.68,14.89-18.46,25.78-36.45,32.82-54A150.45,150.45,0,0,0,999,232.55q-.06-34.8-17.43-62.49-17.42-27.84-49.19-44.44a165.68,165.68,0,0,0-50.56-16.35c-.89-.16-1.8-.3-2.72-.42-.58-.09-1.15-.19-1.73-.26l-1.06-.14c-5.91-.8-12-1.36-18.3-1.66q-32.4-1.59-58.93,3.44a202.68,202.68,0,0,0-49.33,15.86q-22.85,10.85-57.85,38.24l54.59,64.21q27.82-21.57,53.13-32.73A120.65,120.65,0,0,1,826,187.53a113.14,113.14,0,0,1,25.34-1.87q25.15.94,40.09,14.61t15,40.37a91.17,91.17,0,0,1-6.66,34.54q-6.72,16.57-22.08,36-10.51,13.26-37.46,41.05-12.57,13-28.76,29.14L694.2,496.87l.21,67.37,273-5.53,44.24-1.15Z"/><path class="cls-42" d="M1372.69,368.24c-.19-.31.16-.61,0-.92-10.82-16.11-29.3-27.3-52.76-33.54v-2.84a66.45,66.45,0,0,0,43-27.85c10.82-15.57,15.93-35.65,15.93-60.29q0-54.44-37.32-81.07c-25.06-17.93-65.83-28.32-122.79-31.06L1179,128.74l-89-4.31v.89l.37,353.58.05,77.32,112.86-2.3,3-.07,1.18,0,36.8-.73c45.07-.92,80.23-12.22,105.9-33.81q38.14-32.08,38.07-88.25Q1388.26,392.16,1372.69,368.24ZM1179.12,202.78l3.9-.05h.23l40.54,1.62c24.45.87,42.16,5.07,53.32,12.46s16.64,19.05,16.66,35.07q0,25.72-15.32,36.53c-10.25,7.22-26.49,10.65-49.59,10.16l-41.76-.9-8-.16ZM1194,479.86l-15.53.14,0-45.6-.05-65.27,12.15.12,41.27.4q31.35.32,48.8,10.55,22.15,13,22.12,42,0,28.78-16.47,42.86t-51.61,14.43Z"/><path class="cls-43" d="M621.22,398.31A290.27,290.27,0,0,1,570.59,395c-62.07-10-112.79-43.12-131.28-113.75q-1.9-7.18-3.33-14.88a36.05,36.05,0,0,1-3.75,2.65c-13.28,8.21-34.84,12-64.87,11.36l-11.26-.24-.49-107.28,8.14.31q44.16,2,65.26,13.72c-.63-3.8-1.36-7.53-2.23-11.19-8.09-34.86-25.54-62.8-48.09-85.23a5,5,0,0,0-.42-.39l-24.35-1.18L241.69,83.42,186,80.72l2.58,493.77,55.62-1.12,146.88-3,50.58-1c57.55-1.15,102.35-14,135-38.45q48.39-36.28,48.09-99.56A153.82,153.82,0,0,0,621.22,398.31ZM378,486.62l-1.83,0-19.16.14-.57-125.53,16.38.16c61,.73,91.23,20.72,91.39,59.94q.15,32.76-21.13,48.8Q422.36,485.74,379,486.59Z"/><path class="cls-44" d="M1011.55,480.19l.12,77.62-44.24.9-273,5.53-48.8,1-.21-67.87L764.34,381q7.29-7.22,13.84-13.82c23.18-8.28,43.66-13.06,62-15,22.12-2.34,41.17-.51,58.11,4.44a136.36,136.36,0,0,1,32.25,14.21C916.26,385.51,898.26,402.89,876,423l-58.17,54.42v4.32l149.68-1.22Z"/><path class="cls-45" d="M1388.26,431q0,56.23-38.07,88.25c-25.67,21.59-60.83,32.89-105.9,33.81l-41,.82-112.86,2.3-43.17.87-.12-77c11.81,5.16,26.47,4,43.19-1.24,14.1-4.41,29.66-11.73,46.19-20.58,13.42-7.2,27.5-15.41,42-23.92l0,45.6,15.53-.14c23.43-.26,40.63-5.09,51.73-14.52s16.67-23.81,16.67-43.14q0-18.06-8.53-29.94c8.93-4.41,17.87-8.49,26.72-12.06,17.38-7.06,34.46-12.22,50.86-14.28l.46-.07c14.22-1.79,27.9-1.25,40.78,2.39Q1388.3,392.17,1388.26,431Z"/></g></g></g></svg>