<svg xmlns="http://www.w3.org/2000/svg" viewBox="0 0 1052.88 576.61"><defs><style>.cls-1,.cls-5{fill:#fff;}.cls-1,.cls-13,.cls-2,.cls-4,.cls-6,.cls-7,.cls-8,.cls-9{fill-rule:evenodd;}.cls-2,.cls-3{fill:#eb8b23;}.cls-10,.cls-4{fill:#f6cc1b;}.cls-11,.cls-6{fill:#231f20;}.cls-7{fill:#e54355;}.cls-12,.cls-8{fill:#2e1a47;}.cls-14,.cls-9{fill:#5f2d78;}.cls-13{fill:#24205b;}</style></defs><g id="Layer_2" data-name="Layer 2"><g id="Layer_1-2" data-name="Layer 1"><path class="cls-1" d="M933.47,209.52H931a6.57,6.57,0,0,0,.23-1.73,6.7,6.7,0,0,0-6.7-6.71,6.47,6.47,0,0,0-1.77.24,16.13,16.13,0,0,0-32,3c0,.4,0,.8,0,1.19a4.13,4.13,0,0,0-1.28-.2,4.22,4.22,0,0,0-4.22,4.22H848.47A9.5,9.5,0,0,0,839,200a8.31,8.31,0,0,0-.87,0,19.22,19.22,0,0,0-37.73-4.76,14.69,14.69,0,0,0-4.42-.67,14.9,14.9,0,0,0-14.9,14.89H777.2a6.28,6.28,0,0,0,.13-1.24,6,6,0,0,0-9.63-4.69,9.94,9.94,0,0,0-18.91-.19,6.45,6.45,0,0,0-10.68,4.88,6.36,6.36,0,0,0,.12,1.24H725.45a4,4,0,0,0-4,4h0a4,4,0,0,0,4,4h208a4,4,0,0,0,4-4h0A4,4,0,0,0,933.47,209.52Z"/><path class="cls-1" d="M990.66,119.56H975.74a5.9,5.9,0,0,0-10.61-2.26,4.78,4.78,0,0,0-7.65,2.26H951a8.53,8.53,0,0,0-6.2-6.26,5.47,5.47,0,0,0,.11-1.07,5.24,5.24,0,0,0-7.62-4.68,21.58,21.58,0,0,0-39.11,7.89l-.4,0a4.14,4.14,0,0,0-4.14,4.14h-4.77a5.77,5.77,0,0,0-8.71-3.15,11.81,11.81,0,0,0-11.37-8.64h0a8.63,8.63,0,0,0-12.48-4.22A25.08,25.08,0,0,0,821,95.83a5.72,5.72,0,0,0-2.85-.75,5.79,5.79,0,0,0-5.79,5.66,8.42,8.42,0,0,0-1-.07,7.51,7.51,0,0,0-7.46,6.65,13.84,13.84,0,0,0-8.35,4.74,14.87,14.87,0,0,0-6.89-2.13,6.18,6.18,0,0,0-7.67-5.06,25.1,25.1,0,0,0-48.38,8.06,6.65,6.65,0,0,0-6.1,6.63H711a9,9,0,0,0-17.52-3.09,6.46,6.46,0,0,0-4.06-1.42,6.54,6.54,0,0,0-6.21,4.51H676a2.63,2.63,0,0,0-5.11,0h-11.5a4.53,4.53,0,0,0-4.51,4.52h0a4.53,4.53,0,0,0,4.51,4.52H990.66a4.53,4.53,0,0,0,4.52-4.52h0A4.54,4.54,0,0,0,990.66,119.56Z"/><path class="cls-1" d="M952.88,142.48H908.24A12.26,12.26,0,0,0,896,130.23a12,12,0,0,0-2.76.32,22.9,22.9,0,0,0-45.08,2.3,10.39,10.39,0,0,0-14.27,9.63H813.4a10.68,10.68,0,0,0-10.09-7.15l-.72,0a27.16,27.16,0,0,0-23.43-19.88,10.17,10.17,0,0,0-16.31-7.22,50,50,0,0,0-78,6.2,12.45,12.45,0,0,0-15,2.87,25.93,25.93,0,0,0-4.52-.4A25.52,25.52,0,0,0,643,130.1a16.86,16.86,0,0,0-19.15,12.38H610.35c0-3.38-4.24-6.13-6.13-6.13s-.78,0-1.15.11A16.55,16.55,0,0,0,588,126.24,15.89,15.89,0,0,0,573.57,135c-.59-.15.62-.22-1.83-.22s-7.73,3.45-7.73,7.72H547.54c-.85-2.1-4-3.58-5.32-3.58s-.29,0-.43,0a10.08,10.08,0,0,0-9.19-6.28,9.62,9.62,0,0,0-8.71,5.25,12.17,12.17,0,0,0-5.82-4.1c.15-.5.23.22.23-1.57s-3.28-5.49-5.49-5.49a4.21,4.21,0,0,0-3.63,1.36c-3.3-2.8-5.68-4.5-12.25-4.5s-15.62,5.56-18,13.23c-.93-.38-.56-.58-3-.58s-7,2.67-7.79,6.25H439.44a3.21,3.21,0,0,0-3.19,3.19h0a3.2,3.2,0,0,0,3.19,3.2H952.88a3.2,3.2,0,0,0,3.19-3.2h0A3.2,3.2,0,0,0,952.88,142.48Z"/><path class="cls-1" d="M856,118.14a22.88,22.88,0,0,0-7.89,14.71,10.39,10.39,0,0,0-14.27,9.63H813.4a10.69,10.69,0,0,0-3.28-4.7,10.31,10.31,0,0,0-2.72,7H786.92a10.69,10.69,0,0,0-10.09-7.15l-.72,0a27.17,27.17,0,0,0-23.43-19.88,10.18,10.18,0,0,0-16.31-7.22,50,50,0,0,0-27.46-15,50.15,50.15,0,0,0-24,18.9,12.45,12.45,0,0,0-15,2.87,25.93,25.93,0,0,0-4.52-.4A25.52,25.52,0,0,0,643,130.1a16.86,16.86,0,0,0-19.15,12.38H610.35c0-3.38-4.24-6.13-6.13-6.13s-.78,0-1.15.11l-.17-.39a16.81,16.81,0,0,0-5.51,8.71H583.86c0-3.38-4.23-6.13-6.12-6.13s-.78,0-1.15.11a16,16,0,0,0-2.68-4.4c-.12.2-.23.41-.34.62-.59-.15.62-.22-1.83-.22s-7.73,3.45-7.73,7.72H547.54c-.85-2.1-4-3.58-5.32-3.58s-.29,0-.43,0c-.06-.15-.12-.3-.19-.44-2.09,1.4-4.07,3.7-4.07,6.31H521.06c-.86-2.1-4-3.58-5.33-3.58s-.28,0-.43,0a10,10,0,0,0-9.18-6.29,9.62,9.62,0,0,0-8.71,5.25,12.22,12.22,0,0,0-5.82-4.1c.14-.5.23.22.23-1.57s-3.29-5.49-5.5-5.49a4,4,0,0,0-3.07.89,17.22,17.22,0,0,0-4.35,6.9c-.93-.38-.56-.58-3-.58s-7,2.67-7.79,6.25H442.7a6.2,6.2,0,0,0-1.07,2.3h-5.25a3,3,0,0,0-.13.89h0a3.2,3.2,0,0,0,3.19,3.2h490a3,3,0,0,0,.13-.89h0a3.21,3.21,0,0,0-3.19-3.2H881.75a12.24,12.24,0,0,0-12.24-12.24,11.92,11.92,0,0,0-2.76.31A23,23,0,0,0,856,118.14Z"/><polygon class="cls-2" points="891.11 330.9 923.78 330.9 956.43 363.55 956.43 416 891.11 416 891.11 330.9"/><rect class="cls-3" x="891.11" y="330.9" width="32.67" height="59.75"/><polygon class="cls-2" points="891.11 330.9 891.24 330.9 923.78 363.44 923.78 381.78 914.92 390.64 891.11 390.64 891.11 330.9"/><polygon class="cls-2" points="877.41 351.75 918.8 351.75 960.16 393.12 960.16 459.58 877.41 459.58 877.41 351.75"/><rect class="cls-3" x="877.41" y="351.75" width="41.39" height="75.7"/><polygon class="cls-2" points="877.41 351.75 889.3 351.75 918.8 381.25 918.8 398.71 890.06 427.45 877.41 427.45 877.41 351.75"/><polygon class="cls-2" points="865.18 382.87 917.45 382.87 969.69 435.11 969.69 523.99 865.18 523.99 865.18 382.87"/><polygon class="cls-2" points="877.41 361.75 918.8 361.75 960.16 403.12 960.16 413.68 918.8 372.32 877.41 372.32 877.41 361.75"/><polygon class="cls-1" points="894.72 309.58 847.29 309.58 799.89 356.98 799.89 458.82 894.72 458.82 894.72 309.58"/><polygon class="cls-4" points="894.72 354.81 842.47 354.81 790.24 407.03 790.24 504.04 894.72 504.04 894.72 354.81"/><polygon class="cls-4" points="930.9 377.18 939.23 379.81 954.64 409.45 920.84 516.49 899.73 475.9 930.9 377.18"/><polygon class="cls-4" points="845.23 173.5 877.88 173.5 910.52 206.13 910.52 258.57 845.23 258.57 845.23 173.5"/><rect class="cls-5" x="845.23" y="173.5" width="32.66" height="59.73"/><polygon class="cls-1" points="845.23 173.5 845.35 173.5 877.88 206.03 877.88 224.36 869.02 233.22 845.23 233.22 845.23 173.5"/><polygon class="cls-1" points="831.53 194.34 872.9 194.34 914.26 235.7 914.26 302.14 831.53 302.14 831.53 194.34"/><rect class="cls-5" x="831.53" y="194.34" width="41.37" height="75.67"/><polygon class="cls-1" points="831.53 194.34 843.42 194.34 872.9 223.83 872.9 241.29 844.17 270.02 831.53 270.02 831.53 194.34"/><polygon class="cls-4" points="819.3 225.46 871.55 225.46 923.78 277.68 923.78 506.85 819.3 506.85 819.3 225.46"/><polygon class="cls-1" points="819.3 225.46 871.55 225.46 872.9 226.8 872.9 506.85 819.3 506.85 819.3 225.46"/><polygon class="cls-1" points="819.3 225.46 833.77 225.46 872.9 264.58 872.9 450.54 819.3 396.94 819.3 225.46"/><polygon class="cls-1" points="819.3 225.46 833.77 225.46 872.9 264.58 872.9 350.06 819.3 296.46 819.3 225.46"/><polygon class="cls-1" points="872.9 290.09 872.9 314.54 819.3 260.94 819.3 236.5 872.9 290.09"/><polygon class="cls-4" points="831.53 204.34 872.9 204.34 914.26 245.7 914.26 256.26 872.9 214.9 831.53 214.9 831.53 204.34"/><polygon class="cls-4" points="819.3 249.9 872.9 249.9 923.78 302.12 923.78 315.46 872.9 263.24 819.3 263.24 819.3 249.9"/><polygon class="cls-4" points="819.3 276.57 872.9 276.57 923.78 328.79 923.78 342.13 872.9 289.9 819.3 289.9 819.3 276.57"/><polygon class="cls-4" points="819.3 305.94 872.9 305.94 923.78 358.16 923.78 371.5 872.9 319.27 819.3 319.27 819.3 305.94"/><path class="cls-4" d="M288.36,272.7a14.55,14.55,0,0,0-14-10.65h0A10.62,10.62,0,0,0,259,256.84a31,31,0,0,0-43.59-9.52,7.14,7.14,0,0,0-10.65,6.05,10.36,10.36,0,0,0-1.25-.08,9.25,9.25,0,0,0-9.19,8.2A17,17,0,0,0,184,267.33a18.44,18.44,0,0,0-8.5-2.62,7.65,7.65,0,0,0-9.46-6.25,30.95,30.95,0,0,0-59.65,10,8.2,8.2,0,0,0-7.53,8.17H79.72a11.14,11.14,0,0,0-21.61-3.81,8,8,0,0,0-5-1.75,8,8,0,0,0-7.65,5.56H36.62a3.25,3.25,0,0,0-6.31,0H16.14a5.59,5.59,0,0,0-5.57,5.57h0a5.58,5.58,0,0,0,5.57,5.57l283.38,2.19S307,275.55,288.36,272.7Z"/><polygon class="cls-4" points="107.38 280.1 140.98 280.1 174.56 313.68 174.56 367.64 107.38 367.64 107.38 280.1"/><rect class="cls-5" x="107.38" y="280.1" width="33.6" height="61.46"/><polygon class="cls-1" points="107.38 280.1 107.5 280.1 140.98 313.57 140.98 332.44 131.86 341.56 107.38 341.56 107.38 280.1"/><polygon class="cls-1" points="93.28 301.55 135.85 301.55 178.41 344.1 178.41 412.47 93.28 412.47 93.28 301.55"/><rect class="cls-5" x="93.28" y="301.55" width="42.57" height="77.87"/><polygon class="cls-1" points="93.28 301.55 105.51 301.55 135.85 331.89 135.85 349.85 106.29 379.42 93.28 379.42 93.28 301.55"/><polygon class="cls-4" points="80.7 333.56 134.47 333.56 188.21 387.3 188.21 478.73 80.7 478.73 80.7 333.56"/><rect class="cls-5" x="80.7" y="333.56" width="53.76" height="116.46"/><polygon class="cls-1" points="80.7 333.56 80.8 333.56 134.47 387.23 134.47 418.9 103.35 450.02 91.75 450.02 80.7 438.97 80.7 333.56"/><polygon class="cls-1" points="134.47 416.52 134.47 441.3 123.14 450.02 80.7 450.02 80.7 346.7 134.47 416.52"/><path class="cls-1" d="M35.52,238.06c.19.53,67.69,187.62,207.07,194.73l-.45,3c-141.21-7.2-209.3-195.94-209.5-196.48Z"/><path class="cls-4" d="M70.16,218.89a1.52,1.52,0,1,1,2.94-.78c.15.6,54.38,208.73,193,216.63a1.52,1.52,0,0,1-.16,3C125.09,429.74,70.32,219.5,70.16,218.89Z"/><path class="cls-4" d="M15.71,240c.25.53,86.49,187.62,226.58,194.73l-.15,3C100.21,430.57,13.21,241.83,13,241.29Z"/><path class="cls-4" d="M84.47,216.15a3.12,3.12,0,1,1,5.73,2.48L71,262.9a3.12,3.12,0,0,1-5.74-2.47Z"/><path class="cls-4" d="M23.8,239.39a3.12,3.12,0,1,0-2.87,5.55l42.88,22.13a3.12,3.12,0,1,0,2.87-5.54Z"/><path class="cls-4" d="M55,226.17h0a7.44,7.44,0,0,1,9.07,5.24l62.37,232.77a7.43,7.43,0,0,1-5.24,9.07h0a7.44,7.44,0,0,1-9.07-5.24L49.76,235.24A7.43,7.43,0,0,1,55,226.17Z"/><path class="cls-4" d="M120.12,473.45a7.43,7.43,0,0,1-8-5.44L50.75,238.93a7.44,7.44,0,0,1,8,5.44Z"/><path class="cls-1" d="M118.49,478.73a7.48,7.48,0,0,1-6.36-5.58L58.87,269.23a7.52,7.52,0,0,1,6.36,5.59Z"/><path class="cls-4" d="M8.51,238.47,96.38,205.9a5.91,5.91,0,0,1,7.59,3.48h0a5.92,5.92,0,0,1-3.49,7.59L12.62,249.54A5.91,5.91,0,0,1,5,246.06H5A5.92,5.92,0,0,1,8.51,238.47Z"/><path class="cls-1" d="M8.51,238.47,96.13,206a5.92,5.92,0,0,1-3.76,6.55L4.75,245A5.93,5.93,0,0,1,8.51,238.47Z"/><polygon class="cls-4" points="93.28 311.84 135.85 311.84 178.41 354.39 178.41 365.25 135.85 322.7 93.28 322.7 93.28 311.84"/><path class="cls-6" d="M1007.49,317.61l-88,152a6.47,6.47,0,0,1-8.82,2.34h0a6.46,6.46,0,0,1-2.34-8.81l88.05-151.95a6.46,6.46,0,0,1,8.81-2.35h0A6.47,6.47,0,0,1,1007.49,317.61Z"/><path class="cls-6" d="M1004,326.19h0a2.68,2.68,0,0,1-2.69,2.68l-13.08,0a2.68,2.68,0,0,1-2.68-2.69h0a2.69,2.69,0,0,1,2.69-2.68l13.08,0a2.68,2.68,0,0,1,2.68,2.69ZM935.17,445h0a2.69,2.69,0,0,1-2.69,2.68l-13.09,0a2.7,2.7,0,0,1-2.68-2.69h0a2.7,2.7,0,0,1,2.69-2.69l13.09,0a2.7,2.7,0,0,1,2.68,2.69Zm7.65-13.2h0a2.71,2.71,0,0,1-2.7,2.69l-13.08,0a2.7,2.7,0,0,1-2.68-2.7h0a2.69,2.69,0,0,1,2.69-2.68l13.08,0a2.7,2.7,0,0,1,2.69,2.69Zm7.64-13.19h0a2.69,2.69,0,0,1-2.69,2.68l-13.08,0a2.7,2.7,0,0,1-2.69-2.69h0a2.71,2.71,0,0,1,2.7-2.69l13.08,0a2.7,2.7,0,0,1,2.68,2.7Zm7.65-13.2h0a2.7,2.7,0,0,1-2.69,2.69l-13.09,0a2.7,2.7,0,0,1-2.68-2.7h0a2.69,2.69,0,0,1,2.69-2.68l13.08,0a2.7,2.7,0,0,1,2.69,2.69Zm7.64-13.19h0a2.69,2.69,0,0,1-2.69,2.68l-13.08,0a2.68,2.68,0,0,1-2.68-2.69h0a2.7,2.7,0,0,1,2.69-2.69l13.08,0a2.7,2.7,0,0,1,2.68,2.7ZM973.4,379h0a2.7,2.7,0,0,1-2.69,2.69l-13.08,0a2.7,2.7,0,0,1-2.69-2.69h0a2.7,2.7,0,0,1,2.69-2.68l13.09,0A2.7,2.7,0,0,1,973.4,379Zm7.65-13.19h0a2.7,2.7,0,0,1-2.7,2.68l-13.08,0a2.69,2.69,0,0,1-2.68-2.69h0a2.7,2.7,0,0,1,2.69-2.69l13.08,0a2.71,2.71,0,0,1,2.69,2.7Zm7.64-13.2h0a2.7,2.7,0,0,1-2.69,2.69l-13.08,0a2.71,2.71,0,0,1-2.69-2.7h0a2.7,2.7,0,0,1,2.7-2.68l13.08,0a2.69,2.69,0,0,1,2.68,2.69Zm7.65-13.19h0a2.7,2.7,0,0,1-2.69,2.68l-13.09,0a2.7,2.7,0,0,1-2.68-2.69h0a2.7,2.7,0,0,1,2.69-2.69l13.08,0A2.71,2.71,0,0,1,996.34,339.39Z"/><path class="cls-2" d="M819.47,402.28l-.06-.08c-.53-.73-1.9-.7-2.95,0l-1.85,1.19c-.2.12-.4.1-.47-.07a.59.59,0,0,1,.18-.58l9.45-9.4c.18-.17.4-.22.52-.11s.12.33,0,.54l-1.3,1.95c-.73,1.11-1,2.68-.44,3.41l.07.11a81.47,81.47,0,0,1,11.63-9,69.67,69.67,0,0,1,13.39-6.67v-.07a2.12,2.12,0,0,0-2.26-1.73l-2,.07a.29.29,0,0,1-.33-.33.57.57,0,0,1,.4-.45l11.5-3.6a.32.32,0,0,1,.45.19.49.49,0,0,1-.26.51l-1.87,1.13a3.81,3.81,0,0,0-1.88,3h0a51.3,51.3,0,0,1,27.53-.83,2.77,2.77,0,0,0-1.08-2.47l-1.54-1.07a.38.38,0,0,1-.11-.51.45.45,0,0,1,.52-.2l10.46,3.17a.36.36,0,0,1,.26.44.43.43,0,0,1-.43.34h-2a3.37,3.37,0,0,0-2.56,1.37,45.22,45.22,0,0,1,21.8,16.31,3.65,3.65,0,0,0,.44-3.25l-.7-1.91a.47.47,0,0,1,.15-.55.34.34,0,0,1,.48.1l6.63,9.08a.5.5,0,0,1,0,.58.34.34,0,0,1-.49.08l-1.51-1.11a2.4,2.4,0,0,0-2.92.08,56,56,0,0,1,5.54,11.8A67,67,0,0,1,915,427.92l0,0a3.79,3.79,0,0,0,2-2.94l.32-2.25a.47.47,0,0,1,.36-.44c.17,0,.31.14.33.37l1,12.57a.6.6,0,0,1-.26.56.28.28,0,0,1-.41-.2l-.66-1.95a2.09,2.09,0,0,0-2.35-1.58l-.07,0a84.3,84.3,0,0,1-4.62,31.24c.84.19,2.09-.61,2.78-1.7l1.25-2c.14-.21.33-.31.48-.22s.17.31.08.55l-4.87,12.68c-.09.24-.27.4-.44.39s-.27-.19-.23-.43l.37-2.25c.2-1.21-.21-2.48-1-2.83a93,93,0,0,1-16.54,27.14,2.88,2.88,0,0,0,2.24-.43l1.86-1.19c.2-.12.39-.1.46.06a.58.58,0,0,1-.18.59l-9.45,9.4c-.17.17-.39.22-.52.11a.44.44,0,0,1,0-.54l1.3-2a4.44,4.44,0,0,0,.73-2.25,81.4,81.4,0,0,1-14,11.39,70.38,70.38,0,0,1-11.59,6V516a2.13,2.13,0,0,0,2.26,1.73l2-.07a.29.29,0,0,1,.33.32.55.55,0,0,1-.4.46L856.11,522a.33.33,0,0,1-.46-.19.49.49,0,0,1,.27-.51l1.87-1.14a3.86,3.86,0,0,0,1.88-2.95,51.77,51.77,0,0,1-29.58,1.32,2.7,2.7,0,0,0,1,3l1.54,1.06a.38.38,0,0,1,.1.51.43.43,0,0,1-.51.2l-10.46-3.17a.37.37,0,0,1-.27-.44.44.44,0,0,1,.43-.34h2a3.25,3.25,0,0,0,2.8-1.83h0a45.13,45.13,0,0,1-21.49-16,3.61,3.61,0,0,0-.53,3.35l.7,1.91a.46.46,0,0,1-.14.55.33.33,0,0,1-.49-.1l-6.63-9.08a.51.51,0,0,1,0-.58.33.33,0,0,1,.49-.08l1.5,1.12a2.39,2.39,0,0,0,3-.15l0,0a56.1,56.1,0,0,1-5.71-12.08,66.78,66.78,0,0,1-3.27-16.36,4,4,0,0,0-1.8,2.87l-.32,2.25a.47.47,0,0,1-.36.44c-.17,0-.31-.14-.33-.37l-1-12.58a.57.57,0,0,1,.26-.55.28.28,0,0,1,.41.2l.66,1.94a2.12,2.12,0,0,0,2.3,1.6,85.45,85.45,0,0,1,5.56-31.46c-.85-.19-2.09.61-2.78,1.7l-1.25,2c-.14.21-.34.31-.48.22s-.18-.31-.09-.55L799.7,425c.09-.24.28-.41.45-.4s.26.2.23.44l-.37,2.25c-.21,1.26.25,2.6,1.08,2.87a92.25,92.25,0,0,1,18.38-27.83Zm-23,62.65a4,4,0,0,0,1.81-2.87l.32-2.25a.48.48,0,0,1,.36-.45c.17,0,.31.14.33.38l1,12.57a.59.59,0,0,1-.26.56c-.17.09-.34,0-.41-.21l-.66-1.94a2.11,2.11,0,0,0-2.33-1.59,64,64,0,0,0,3.16,16A54.16,54.16,0,0,0,805,496.4a3.59,3.59,0,0,0,.5-3.31l-.7-1.91a.48.48,0,0,1,.14-.55.34.34,0,0,1,.49.1l6.63,9.08a.51.51,0,0,1,0,.58.34.34,0,0,1-.49.08l-1.51-1.12a2.39,2.39,0,0,0-3,.14,43,43,0,0,0,20.5,15.39,2.66,2.66,0,0,0-1-2.94l-1.54-1.07a.36.36,0,0,1-.1-.5.44.44,0,0,1,.51-.21L836,513.33a.37.37,0,0,1,.27.44.44.44,0,0,1-.44.34h-2a3.26,3.26,0,0,0-2.8,1.82,49.52,49.52,0,0,0,28.39-1.37,2.13,2.13,0,0,0-2.26-1.71l-2,.07a.3.3,0,0,1-.33-.33.57.57,0,0,1,.4-.46l11.5-3.59a.33.33,0,0,1,.45.18.49.49,0,0,1-.26.52l-1.88,1.13a4,4,0,0,0-1.87,2.77,67.51,67.51,0,0,0,10.65-5.54,78.55,78.55,0,0,0,14-11.49l0,0-.47-.64c-.53-.74-1.9-.7-3,0l-1.85,1.18c-.2.13-.4.1-.47-.06a.56.56,0,0,1,.18-.58l9.45-9.4c.18-.18.4-.23.52-.12s.12.34,0,.55L891,489c-.73,1.1-1,2.68-.44,3.41l.37.51a89.86,89.86,0,0,0,15.84-26.07,3.28,3.28,0,0,0-2.72,1.71l-1.26,2c-.13.21-.33.31-.47.22s-.18-.31-.09-.55l4.87-12.68c.09-.24.28-.41.45-.4s.26.2.22.44l-.37,2.25a2.78,2.78,0,0,0,.92,2.8,81.23,81.23,0,0,0,4.45-29.67,4.1,4.1,0,0,0-1.7,2.81l-.32,2.25a.48.48,0,0,1-.36.45c-.17,0-.31-.14-.33-.38l-1-12.57a.61.61,0,0,1,.26-.56c.17-.09.34,0,.41.21l.66,1.94a2.2,2.2,0,0,0,2.1,1.63,64.56,64.56,0,0,0-3-13.83,54.74,54.74,0,0,0-5.1-11,3.57,3.57,0,0,0-.57,3.39l.71,1.91a.48.48,0,0,1-.15.55.34.34,0,0,1-.49-.09l-6.63-9.09a.51.51,0,0,1,0-.58.34.34,0,0,1,.49-.08l1.5,1.12a2.4,2.4,0,0,0,3-.14l.09-.1a43.1,43.1,0,0,0-20.88-15.72l-.18.46a2.69,2.69,0,0,0,1,3l1.54,1.07a.37.37,0,0,1,.11.5.44.44,0,0,1-.51.21l-10.47-3.17a.37.37,0,0,1-.26-.44.43.43,0,0,1,.43-.34H875a3.25,3.25,0,0,0,2.8-1.83L878,384a49,49,0,0,0-26.38.85,2.13,2.13,0,0,0,2.25,1.65l2-.07a.3.3,0,0,1,.34.33.55.55,0,0,1-.41.45l-11.49,3.6c-.22.07-.41,0-.45-.19a.49.49,0,0,1,.26-.51l1.87-1.13a4,4,0,0,0,1.88-2.85,66.38,66.38,0,0,0-12.46,6.26,77.66,77.66,0,0,0-11.26,8.77,2.53,2.53,0,0,0,2.72-.2l1.86-1.18c.2-.13.39-.11.46.06a.55.55,0,0,1-.18.58l-9.45,9.4a.4.4,0,0,1-.52.12.45.45,0,0,1,0-.55l1.3-1.95a3.81,3.81,0,0,0,.6-3.12,89,89,0,0,0-17.43,26.47,3.4,3.4,0,0,0,2.6-1.72l1.25-2c.14-.21.34-.31.48-.23a.47.47,0,0,1,.09.56L803,440.11a.53.53,0,0,1-.45.39c-.17,0-.26-.19-.22-.43l.37-2.25a2.78,2.78,0,0,0-.93-2.81A82.57,82.57,0,0,0,796.43,464.93Z"/><path class="cls-6" d="M869,394.78l0-.08c-.37-.74-1.72-.89-2.9-.41l-2.07.84c-.22.09-.41,0-.45-.12a.55.55,0,0,1,.3-.51l11.29-7.36c.21-.14.44-.16.53,0s0,.32-.13.5l-1.69,1.61c-.95.91-1.53,2.32-1.16,3.06l0,.1A91,91,0,0,1,886,385.62a79.24,79.24,0,0,1,14.58-4.36v-.06c.13-.94-.76-1.77-1.86-1.88l-1.94-.19c-.21,0-.32-.17-.26-.35a.65.65,0,0,1,.49-.36l12.08-1.79c.22,0,.39.06.4.23a.49.49,0,0,1-.36.43l-2.09.8a4,4,0,0,0-2.48,2.51h0c9.6-1.29,18.95-.46,27.26,2.82a2.27,2.27,0,0,0-.54-2.4L930,379.85a.32.32,0,0,1,0-.47.47.47,0,0,1,.54-.13l9.63,4.26a.32.32,0,0,1,.17.44.49.49,0,0,1-.5.26L938,384a3.77,3.77,0,0,0-2.81.93,39.11,39.11,0,0,1,18,17.74,3.4,3.4,0,0,0,1.12-2.91l-.29-1.84a.48.48,0,0,1,.26-.49.34.34,0,0,1,.46.16l4.61,9.16a.48.48,0,0,1-.12.54.37.37,0,0,1-.5,0L957.47,406a2.54,2.54,0,0,0-2.9-.3,46,46,0,0,1,3,11.5,56.09,56.09,0,0,1,0,13.4h.05a4,4,0,0,0,2.58-2.43l.79-2a.51.51,0,0,1,.44-.36c.18,0,.28.17.25.39L960,437.84a.62.62,0,0,1-.37.48.27.27,0,0,1-.37-.24l-.23-1.87a1.88,1.88,0,0,0-2-1.75H957a78.42,78.42,0,0,1-11.15,28c.8.28,2.19-.29,3.1-1.19l1.65-1.65c.18-.18.4-.24.52-.14s.11.31,0,.51l-7.47,11a.58.58,0,0,1-.53.29c-.16,0-.22-.21-.13-.42l.84-2c.45-1.08.31-2.3-.36-2.71a98.42,98.42,0,0,1-22,22.66,3.19,3.19,0,0,0,2.3-.11l2.07-.84c.23-.09.42,0,.45.12s-.09.37-.3.51l-11.28,7.36c-.21.14-.44.16-.54,0s0-.32.13-.5l1.69-1.61a4.36,4.36,0,0,0,1.2-2,93,93,0,0,1-16.23,8.58,81.05,81.05,0,0,1-12.66,4l0,.12c-.13.93.76,1.76,1.86,1.87l1.94.19c.21,0,.32.17.26.35a.61.61,0,0,1-.49.36L879.71,509c-.22,0-.39-.06-.4-.23a.49.49,0,0,1,.37-.43l2.08-.79a4.1,4.1,0,0,0,2.47-2.46c-10.35,1.68-20.47.94-29.39-2.64a2.26,2.26,0,0,0,.32,2.83l1.29,1.18a.33.33,0,0,1,0,.48.5.5,0,0,1-.55.12l-9.63-4.26a.32.32,0,0,1-.17-.44.52.52,0,0,1,.5-.26l1.92.25a3.63,3.63,0,0,0,3.15-1.31h0a39.1,39.1,0,0,1-17.76-17.43,3.38,3.38,0,0,0-1.24,3l.29,1.84a.46.46,0,0,1-.26.49.34.34,0,0,1-.46-.16l-4.6-9.17a.44.44,0,0,1,.12-.53.37.37,0,0,1,.5,0l1.24,1.22a2.52,2.52,0,0,0,3,.26l0,0a45.57,45.57,0,0,1-3.07-11.78,56.51,56.51,0,0,1,.24-15.39,4.23,4.23,0,0,0-2.38,2.39l-.79,2a.5.5,0,0,1-.44.36c-.18,0-.28-.17-.25-.38l1.65-11.63a.62.62,0,0,1,.37-.48.27.27,0,0,1,.37.24l.23,1.87a1.88,1.88,0,0,0,1.93,1.75,80.62,80.62,0,0,1,12.12-28,3.66,3.66,0,0,0-3.1,1.2l-1.65,1.65c-.18.17-.39.23-.51.14s-.11-.31,0-.52l7.47-11a.58.58,0,0,1,.52-.3c.17,0,.22.21.13.43l-.84,2c-.47,1.13-.3,2.42.46,2.77a98.37,98.37,0,0,1,24-23.05ZM833,449.05a4.23,4.23,0,0,0,2.39-2.38l.79-2a.51.51,0,0,1,.44-.36c.18,0,.28.17.25.39l-1.65,11.62a.6.6,0,0,1-.38.48.26.26,0,0,1-.36-.24l-.23-1.86a1.88,1.88,0,0,0-2-1.76,54.57,54.57,0,0,0-.28,15.06,44.29,44.29,0,0,0,2.81,11,3.4,3.4,0,0,0,1.19-3l-.29-1.84a.48.48,0,0,1,.26-.49.34.34,0,0,1,.46.15l4.6,9.17a.45.45,0,0,1-.12.54.36.36,0,0,1-.49,0l-1.25-1.21a2.5,2.5,0,0,0-3-.26,37.2,37.2,0,0,0,16.92,16.73,2.26,2.26,0,0,0-.33-2.81l-1.29-1.18a.33.33,0,0,1,0-.48.5.5,0,0,1,.55-.12l9.63,4.26a.32.32,0,0,1,.17.44.51.51,0,0,1-.5.26l-1.92-.25a3.62,3.62,0,0,0-3.14,1.3c8.55,3.41,18.27,4.09,28.22,2.43a1.87,1.87,0,0,0-1.86-1.85l-2-.19a.26.26,0,0,1-.25-.35.62.62,0,0,1,.49-.36l12.07-1.79c.23,0,.4.06.41.23a.5.5,0,0,1-.37.43l-2.08.79a4.28,4.28,0,0,0-2.43,2.3,77,77,0,0,0,11.65-3.69,87.83,87.83,0,0,0,16.23-8.68h0l-.32-.66c-.37-.74-1.73-.88-2.9-.4l-2.08.84c-.22.08-.41,0-.44-.12a.55.55,0,0,1,.3-.51l11.28-7.37c.21-.13.44-.15.54,0s0,.33-.14.5L921,483.32c-1,.91-1.53,2.32-1.16,3.06l.26.51a95.16,95.16,0,0,0,21.09-21.77,3.67,3.67,0,0,0-3,1.21L936.54,468c-.18.17-.39.23-.52.14s-.1-.31,0-.52l7.46-11a.6.6,0,0,1,.53-.3c.16,0,.22.21.13.43l-.84,2a2.32,2.32,0,0,0,.32,2.69A76.12,76.12,0,0,0,954.3,434.9a4.35,4.35,0,0,0-2.27,2.36l-.78,2a.52.52,0,0,1-.45.36c-.18,0-.28-.17-.25-.39l1.66-11.62a.59.59,0,0,1,.37-.48.26.26,0,0,1,.36.24l.23,1.86a1.94,1.94,0,0,0,1.72,1.77,53.57,53.57,0,0,0,0-13,44.45,44.45,0,0,0-2.69-10.69,3.33,3.33,0,0,0-1.28,3l.29,1.84a.48.48,0,0,1-.26.49.34.34,0,0,1-.46-.16l-4.61-9.17a.47.47,0,0,1,.12-.53.37.37,0,0,1,.5,0l1.24,1.21a2.52,2.52,0,0,0,3,.26l.11-.07a37.29,37.29,0,0,0-17.22-17.09l-.28.4a2.28,2.28,0,0,0,.32,2.84l1.29,1.17a.33.33,0,0,1,0,.48.5.5,0,0,1-.55.12l-9.63-4.26a.31.31,0,0,1-.16-.44.49.49,0,0,1,.5-.26l1.92.25a3.61,3.61,0,0,0,3.14-1.31l.27-.39A51.91,51.91,0,0,0,904.27,383a1.87,1.87,0,0,0,1.86,1.8l1.94.19c.21,0,.32.17.26.35a.6.6,0,0,1-.49.36l-12.07,1.8c-.23,0-.4-.07-.41-.23a.51.51,0,0,1,.37-.44l2.08-.79a4.2,4.2,0,0,0,2.45-2.36,75.82,75.82,0,0,0-13.58,4.1,86.46,86.46,0,0,0-12.94,6.56,2.7,2.7,0,0,0,2.72.16l2.08-.84c.22-.09.41,0,.45.12a.58.58,0,0,1-.31.51l-11.28,7.36c-.21.14-.44.16-.54,0s0-.32.14-.5l1.69-1.61a3.59,3.59,0,0,0,1.24-2.78,95.26,95.26,0,0,0-22.74,21.94,3.82,3.82,0,0,0,2.92-1.23l1.65-1.65c.18-.18.4-.24.52-.14s.11.31,0,.51l-7.47,11a.57.57,0,0,1-.52.29c-.17,0-.22-.21-.14-.42l.84-2a2.32,2.32,0,0,0-.32-2.69A78.3,78.3,0,0,0,833,449.05Z"/><path class="cls-6" d="M869.64,457.6,998.1,399.4A5.19,5.19,0,0,1,1005,402h0a5.18,5.18,0,0,1-2.58,6.85L873.91,467a5.18,5.18,0,0,1-6.85-2.58h0A5.19,5.19,0,0,1,869.64,457.6Z"/><path class="cls-7" d="M869.36,457.42l128.47-58.21a5.18,5.18,0,0,1,4.29,0,5.2,5.2,0,0,1-3,4.76l-128.47,58.2a5.2,5.2,0,0,1-4.3,0A5.21,5.21,0,0,1,869.36,457.42Z"/><path class="cls-8" d="M875.93,453.63h0a2.17,2.17,0,0,1,3-.5l8.54,6.12a2.16,2.16,0,0,1,.49,3h0a2.16,2.16,0,0,1-3,.5l-8.54-6.12a2.17,2.17,0,0,1-.5-3Zm100.41-45.49h0a2.16,2.16,0,0,1,3-.5l8.54,6.12a2.17,2.17,0,0,1,.5,3h0a2.17,2.17,0,0,1-3,.5l-8.54-6.12a2.17,2.17,0,0,1-.49-3Zm-11.16,5.05a2.16,2.16,0,0,0,.5,3l8.54,6.12a2.17,2.17,0,0,0,3-.49h0a2.16,2.16,0,0,0-.5-3l-8.54-6.12a2.17,2.17,0,0,0-3,.5ZM954,418.25h0a2.16,2.16,0,0,1,3-.5l8.54,6.12a2.17,2.17,0,0,1,.5,3h0a2.17,2.17,0,0,1-3,.5l-8.54-6.12a2.16,2.16,0,0,1-.49-3Zm-11.16,5.05a2.16,2.16,0,0,0,.5,3l8.54,6.12a2.16,2.16,0,0,0,3-.5h0a2.16,2.16,0,0,0-.5-3l-8.54-6.12a2.16,2.16,0,0,0-3,.5Zm-11.16,5.05h0a2.18,2.18,0,0,1,3-.49l8.54,6.12a2.16,2.16,0,0,1,.49,3h0a2.17,2.17,0,0,1-3,.5l-8.54-6.12a2.18,2.18,0,0,1-.5-3Zm-11.15,5.06a2.17,2.17,0,0,0,.49,3l8.55,6.12a2.16,2.16,0,0,0,3-.5h0a2.17,2.17,0,0,0-.5-3l-8.54-6.12a2.16,2.16,0,0,0-3,.5Zm-11.16,5h0a2.17,2.17,0,0,1,3-.49l8.54,6.12a2.16,2.16,0,0,1,.5,3h0a2.17,2.17,0,0,1-3,.5l-8.54-6.12a2.18,2.18,0,0,1-.5-3Zm-11.15,5.06a2.16,2.16,0,0,0,.49,3l8.54,6.12a2.17,2.17,0,0,0,3-.5h0a2.17,2.17,0,0,0-.5-3L901.26,443a2.16,2.16,0,0,0-3,.5Zm-11.16,5.05a2.16,2.16,0,0,0,.5,3l8.54,6.12a2.16,2.16,0,0,0,3-.49h0a2.16,2.16,0,0,0-.5-3l-8.54-6.13a2.17,2.17,0,0,0-3,.5Z"/><path class="cls-7" d="M876.65,452.28h0a2.17,2.17,0,0,1,2.92-.56l0,0,0,0,3.44,2.47a2.16,2.16,0,0,1,.5,3h0a2.16,2.16,0,0,1-3,.5l-3.49-2.5,0,0a2.17,2.17,0,0,1-.41-3ZM983.5,408.76a2.16,2.16,0,0,1,.5,3h0a2.17,2.17,0,0,1-3,.53l0,0-3.44-2.47a2.16,2.16,0,0,1-.5-3h0a2.17,2.17,0,0,1,3-.53l0,0,3.44,2.47Zm-14.64,2.55,3.49,2.5a2.17,2.17,0,0,1,.5,3h0a2.16,2.16,0,0,1-3,.52l0,0-3.44-2.46,0,0a2.15,2.15,0,0,1-.45-3h0a2.17,2.17,0,0,1,2.92-.56l0,0Zm-7.67,7.56a2.16,2.16,0,0,1,.5,3h0a2.17,2.17,0,0,1-3,.5l-3.44-2.47,0,0a2.17,2.17,0,0,1-.45-3h0a2.16,2.16,0,0,1,3-.53h0l0,0,3.44,2.47ZM950.08,424a2.15,2.15,0,0,1,.45,3h0a2.16,2.16,0,0,1-3,.5l-3.48-2.5,0,0a2.16,2.16,0,0,1-.4-2.95h0a2.16,2.16,0,0,1,3-.53l0,0,3.45,2.46,0,0ZM938.93,429a2.17,2.17,0,0,1,.45,3h0a2.16,2.16,0,0,1-3,.49L932.93,430l0,0a2.16,2.16,0,0,1-.45-3h0a2.16,2.16,0,0,1,3-.5l3.44,2.47,0,0Zm-11.16,5.05a2.16,2.16,0,0,1,.45,3h0a2.16,2.16,0,0,1-3,.53l0,0-3.44-2.47,0,0a2.17,2.17,0,0,1-.45-3h0a2.17,2.17,0,0,1,3-.53l0,0,3.44,2.47,0,0Zm-11.2,5a2.17,2.17,0,0,1,.5,3h0a2.17,2.17,0,0,1-3,.53l-.05,0-3.44-2.46,0,0a2.16,2.16,0,0,1-.45-3h0a2.16,2.16,0,0,1,3-.53l0,0,3.44,2.47Zm-11.11,5.08a2.17,2.17,0,0,1,.45,3h0a2.17,2.17,0,0,1-3,.54h0l0,0-3.44-2.47a2.16,2.16,0,0,1-.5-3h0a2.16,2.16,0,0,1,3-.5l3.44,2.47.05,0Zm-11.2,5a2.18,2.18,0,0,1,.49,3h0a2.16,2.16,0,0,1-3,.49l-3.44-2.46,0,0a2.17,2.17,0,0,1-.46-3h0a2.17,2.17,0,0,1,3-.53l.05,0Z"/><path class="cls-6" d="M1049.37,411.69,893,491.67a6.47,6.47,0,0,1-8.68-2.81h0a6.46,6.46,0,0,1,2.8-8.68l156.35-80a6.47,6.47,0,0,1,8.68,2.81h0A6.46,6.46,0,0,1,1049.37,411.69Z"/><path class="cls-6" d="M1041.77,417h0a2.7,2.7,0,0,1-3.72.8l-11-7.11a2.69,2.69,0,0,1-.8-3.71h0a2.71,2.71,0,0,1,3.72-.8l11,7.11a2.69,2.69,0,0,1,.8,3.71Zm-122.2,62.51h0a2.68,2.68,0,0,1-3.71.8l-11-7.11a2.68,2.68,0,0,1-.79-3.71h0a2.68,2.68,0,0,1,3.71-.8l11,7.11a2.68,2.68,0,0,1,.79,3.71Zm13.58-6.94a2.69,2.69,0,0,0-.8-3.72l-11-7.11a2.69,2.69,0,0,0-3.71.8h0a2.69,2.69,0,0,0,.79,3.72l11,7.1a2.69,2.69,0,0,0,3.72-.79Zm13.58-6.95h0a2.7,2.7,0,0,1-3.72.8l-11-7.11a2.7,2.7,0,0,1-.8-3.72h0a2.69,2.69,0,0,1,3.72-.79l11,7.1a2.71,2.71,0,0,1,.8,3.72Zm13.58-6.94a2.7,2.7,0,0,0-.8-3.72l-11-7.11a2.7,2.7,0,0,0-3.72.8h0a2.69,2.69,0,0,0,.79,3.72l11,7.1a2.69,2.69,0,0,0,3.72-.79Zm13.57-6.95h0a2.69,2.69,0,0,1-3.71.8l-11-7.11a2.69,2.69,0,0,1-.79-3.72h0a2.68,2.68,0,0,1,3.71-.79l11,7.1a2.69,2.69,0,0,1,.79,3.72Zm13.58-6.94a2.7,2.7,0,0,0-.8-3.72l-11-7.11a2.71,2.71,0,0,0-3.72.8h0a2.71,2.71,0,0,0,.8,3.72l11,7.1a2.69,2.69,0,0,0,3.72-.79Zm13.58-7h0a2.71,2.71,0,0,1-3.72.8l-11-7.11a2.7,2.7,0,0,1-.8-3.72h0a2.69,2.69,0,0,1,3.72-.79l11,7.1a2.71,2.71,0,0,1,.8,3.72Zm13.57-6.94a2.69,2.69,0,0,0-.79-3.72l-11-7.11a2.69,2.69,0,0,0-3.71.8h0a2.69,2.69,0,0,0,.79,3.72l11,7.1a2.68,2.68,0,0,0,3.71-.79Zm13.58-6.95a2.7,2.7,0,0,0-.79-3.72l-11-7.1a2.68,2.68,0,0,0-3.71.79h0a2.69,2.69,0,0,0,.79,3.72l11,7.11a2.7,2.7,0,0,0,3.72-.8Z"/><path class="cls-1" d="M872.31,371.65c-.88,1.14-2.73,1.14-4.14,0s-1.85-3-1-4.14,2.73-1.14,4.14,0S873.18,370.5,872.31,371.65Z"/><path class="cls-8" d="M830.58,440.12l18.53,14.67a9.11,9.11,0,0,1,1.49,12.77h0a9.13,9.13,0,0,1-12.78,1.49l-20-15.8a11.24,11.24,0,0,1,2-8.64h0A11.31,11.31,0,0,1,830.58,440.12Z"/><path class="cls-9" d="M848.08,456h0a7.71,7.71,0,0,1,1.26,10.8l0,0a7.71,7.71,0,0,1-10.8,1.25h0a7.7,7.7,0,0,1-1.26-10.8l0,0A7.7,7.7,0,0,1,848.08,456Z"/><path class="cls-6" d="M846.08,458.51h0a4.49,4.49,0,0,1,.74,6.29l0,0a4.49,4.49,0,0,1-6.29.73h0a4.49,4.49,0,0,1-.73-6.29v0A4.49,4.49,0,0,1,846.08,458.51Z"/><path class="cls-6" d="M885.88,377.39l-.07-.06c-.66-.55-2-.12-2.92.83l-1.62,1.67c-.18.18-.37.21-.47.07a.54.54,0,0,1,.07-.61l7.62-11.73c.14-.22.35-.33.5-.26s.17.29.07.53l-.92,2.24c-.52,1.27-.48,2.84.18,3.39l.1.08a95.35,95.35,0,0,1,9.84-12,82.22,82.22,0,0,1,12-10.26l0-.07a1.93,1.93,0,0,0-2.55-1l-1.93.64a.27.27,0,0,1-.38-.22.62.62,0,0,1,.31-.55l10.71-6.78c.21-.13.41-.11.49.05a.53.53,0,0,1-.17.57l-1.65,1.62a4.2,4.2,0,0,0-1.3,3.44h0c8.58-5.26,17.81-8.39,27.09-8.77a2.38,2.38,0,0,0-1.53-2.06l-1.71-.57a.33.33,0,0,1-.2-.45.5.5,0,0,1,.47-.35h10.93a.32.32,0,0,1,.34.35.5.5,0,0,1-.36.45l-1.93.57a4,4,0,0,0-2.28,2.06,40.7,40.7,0,0,1,24.56,9.28,3.57,3.57,0,0,0-.16-3.23l-1-1.63a.47.47,0,0,1,0-.56.34.34,0,0,1,.5-.05l8.22,6.77a.48.48,0,0,1,.11.56.37.37,0,0,1-.47.21l-1.69-.63a2.6,2.6,0,0,0-2.87.93,47.46,47.46,0,0,1,7.63,9.68,58,58,0,0,1,5.65,12.72l0,0a4.2,4.2,0,0,0,1.43-3.39l-.1-2.24a.55.55,0,0,1,.27-.53c.17-.07.34,0,.4.26L990.45,380a.64.64,0,0,1-.15.62.27.27,0,0,1-.44-.08l-1-1.67a1.94,1.94,0,0,0-2.62-.83l-.06,0a81.88,81.88,0,0,1,1.16,31.24c.87-.06,1.95-1.19,2.43-2.43l.88-2.26c.1-.24.28-.39.43-.35s.24.25.19.5l-2.49,13.55a.62.62,0,0,1-.37.51c-.17,0-.3-.11-.3-.35l-.05-2.26c0-1.21-.67-2.32-1.49-2.43a101.88,101.88,0,0,1-11.38,30.77,3.3,3.3,0,0,0,2.14-1.07l1.62-1.67c.17-.18.37-.21.47-.07a.58.58,0,0,1-.07.61l-7.62,11.73c-.15.22-.35.33-.5.26s-.17-.29-.08-.52l.93-2.25a4.64,4.64,0,0,0,.31-2.37,95.31,95.31,0,0,1-11.8,15,83.66,83.66,0,0,1-10.37,9.08l0,.12a1.94,1.94,0,0,0,2.56,1l1.92-.63c.21-.07.37,0,.39.22a.64.64,0,0,1-.31.55l-10.72,6.78c-.2.12-.4.1-.48,0a.52.52,0,0,1,.17-.57l1.64-1.63a4.26,4.26,0,0,0,1.32-3.37c-9.13,5.95-19.05,9.49-29,9.84a2.35,2.35,0,0,0,1.49,2.56l1.72.57a.34.34,0,0,1,.2.46.52.52,0,0,1-.47.34H909.71a.32.32,0,0,1-.34-.34.51.51,0,0,1,.37-.46l1.92-.57a3.79,3.79,0,0,0,2.44-2.56h0a40.59,40.59,0,0,1-24.19-9.09,3.54,3.54,0,0,0,.08,3.36l1,1.63a.47.47,0,0,1,0,.57.35.35,0,0,1-.5,0l-8.22-6.77a.46.46,0,0,1-.12-.55.37.37,0,0,1,.47-.22l1.7.63a2.59,2.59,0,0,0,2.91-1l0,0a47.8,47.8,0,0,1-7.86-9.91,58.76,58.76,0,0,1-6.24-14.71,4.35,4.35,0,0,0-1.25,3.26L872,455a.54.54,0,0,1-.28.53c-.17.07-.33-.05-.4-.27L868,443.55a.62.62,0,0,1,.15-.61.29.29,0,0,1,.45.07l1,1.67a2,2,0,0,0,2.57.87,83.78,83.78,0,0,1-.27-31.73c-.87.07-1.95,1.2-2.43,2.44l-.88,2.26c-.09.24-.28.39-.43.35s-.23-.25-.19-.51l2.49-13.55a.64.64,0,0,1,.37-.5c.17,0,.3.11.31.35l0,2.26c0,1.27.73,2.42,1.6,2.43a102.24,102.24,0,0,1,13.08-32ZM874.57,444a4.4,4.4,0,0,0,1.27-3.28l-.1-2.24A.54.54,0,0,1,876,438c.17-.07.33,0,.39.26L879.73,450a.61.61,0,0,1-.16.61.27.27,0,0,1-.44-.08l-1-1.67a1.94,1.94,0,0,0-2.6-.84,56.88,56.88,0,0,0,6.07,14.41,45.65,45.65,0,0,0,7.27,9.24,3.5,3.5,0,0,0-.11-3.31l-1-1.63a.5.5,0,0,1,0-.57.36.36,0,0,1,.51,0l8.22,6.77a.47.47,0,0,1,.11.55.37.37,0,0,1-.47.22l-1.69-.63a2.6,2.6,0,0,0-2.92,1,38.69,38.69,0,0,0,23.11,8.78,2.38,2.38,0,0,0-1.5-2.54l-1.72-.57a.34.34,0,0,1-.2-.45.53.53,0,0,1,.47-.35H922.6a.33.33,0,0,1,.34.35.51.51,0,0,1-.37.45l-1.93.57a3.81,3.81,0,0,0-2.43,2.56c9.56-.36,19.08-3.79,27.82-9.55a1.93,1.93,0,0,0-2.54-1l-1.93.64c-.2.06-.37,0-.38-.22a.64.64,0,0,1,.31-.56l10.71-6.77c.2-.13.41-.11.49.05a.53.53,0,0,1-.17.57l-1.65,1.62a4.46,4.46,0,0,0-1.34,3.2,80.2,80.2,0,0,0,9.52-8.4,92,92,0,0,0,11.77-15.06h0l-.58-.48c-.67-.55-2-.12-2.93.83l-1.62,1.67c-.17.18-.37.21-.47.08a.57.57,0,0,1,.08-.61l7.62-11.74c.14-.22.35-.33.49-.26s.18.29.08.53l-.92,2.24c-.53,1.27-.48,2.85.18,3.39l.46.38a98.41,98.41,0,0,0,10.89-29.54,3.81,3.81,0,0,0-2.38,2.43l-.87,2.26c-.1.24-.28.39-.44.35s-.23-.25-.18-.51l2.49-13.55a.6.6,0,0,1,.37-.5c.17,0,.3.11.3.35l0,2.26c0,1.18.63,2.26,1.42,2.41a78.8,78.8,0,0,0-1-29.69,4.51,4.51,0,0,0-1.17,3.19l.1,2.24a.54.54,0,0,1-.27.54c-.17.06-.34-.05-.4-.27l-3.31-11.73a.62.62,0,0,1,.15-.61.28.28,0,0,1,.45.07l1,1.67a2,2,0,0,0,2.38,1,55.83,55.83,0,0,0-5.48-12.38,46.06,46.06,0,0,0-7-9,3.51,3.51,0,0,0,0,3.41l1,1.63a.47.47,0,0,1,0,.57.35.35,0,0,1-.5,0l-8.23-6.77a.49.49,0,0,1-.11-.55.37.37,0,0,1,.47-.22l1.7.63a2.61,2.61,0,0,0,2.92-1l.07-.11a38.78,38.78,0,0,0-23.54-9l-.09.5a2.35,2.35,0,0,0,1.49,2.56l1.72.57a.34.34,0,0,1,.2.46.51.51,0,0,1-.47.34H936a.33.33,0,0,1-.35-.34.51.51,0,0,1,.37-.46l1.93-.57a3.79,3.79,0,0,0,2.44-2.56l.08-.49c-8.88.37-17.72,3.39-25.94,8.46a2,2,0,0,0,2.53.92l1.92-.63c.21-.07.37,0,.39.22a.63.63,0,0,1-.31.55l-10.72,6.78c-.2.12-.4.1-.48-.05a.52.52,0,0,1,.17-.57l1.64-1.63a4.33,4.33,0,0,0,1.34-3.27,78.88,78.88,0,0,0-11.18,9.6A91.15,91.15,0,0,0,890.26,375a2.8,2.8,0,0,0,2.65-1l1.62-1.67c.18-.18.37-.21.48-.07a.57.57,0,0,1-.08.61l-7.62,11.73c-.14.22-.35.33-.49.26s-.18-.29-.08-.53l.92-2.24a3.76,3.76,0,0,0,0-3.16,98.86,98.86,0,0,0-12.39,30.39,4,4,0,0,0,2.26-2.4l.88-2.26c.09-.24.27-.39.43-.35s.23.25.19.5l-2.49,13.55a.63.63,0,0,1-.38.51c-.17,0-.29-.11-.3-.35l0-2.26c0-1.19-.64-2.27-1.43-2.42A81.16,81.16,0,0,0,874.57,444Z"/><polygon class="cls-8" points="887.62 447.02 911.49 418.89 892.43 427.41 925.19 392.61 906.86 416.49 926.85 408.53 887.62 447.02"/><path class="cls-4" d="M787.35,508.74c139.63,3,252.83,15.19,252.83,27.14S927,555.07,787.35,552s-252.84-15.18-252.84-27.14S647.71,505.71,787.35,508.74Z"/><path class="cls-4" d="M391.08,549.22c124.18,0,225.46-10.75,225.46-23.93s-101.28-23.93-225.46-23.93-225.46,10.75-225.46,23.93S266.9,549.22,391.08,549.22Z"/><path class="cls-1" d="M701.74,124.66a29.51,29.51,0,1,0-29.51-29.5A29.56,29.56,0,0,0,701.74,124.66Z"/><path class="cls-1" d="M248.61,319.51h97.67a20.66,20.66,0,0,0,20.6-20.61h0a20.66,20.66,0,0,0-20.6-20.6H318.06a20.67,20.67,0,0,1-20.61-20.61h0a20.67,20.67,0,0,1,20.61-20.61h78.67a13,13,0,0,0,13-13h0a13,13,0,0,0-13-13H362a13.33,13.33,0,0,1-13.29-13.29h0A13.33,13.33,0,0,1,362,184.55h163a13.33,13.33,0,0,1,13.29,13.29h0a13.33,13.33,0,0,1-13.29,13.29h-27a13,13,0,0,0-13,13h0a13,13,0,0,0,13,13h85a20.68,20.68,0,0,1,20.61,20.61h0a20.68,20.68,0,0,1-20.61,20.61H520.39a20.66,20.66,0,0,0-20.6,20.6h0a20.66,20.66,0,0,0,20.6,20.61h87.75a20.66,20.66,0,0,1,20.61,20.61h0a20.67,20.67,0,0,1-20.61,20.6H248.61a20.66,20.66,0,0,1-20.6-20.6h0A20.66,20.66,0,0,1,248.61,319.51Z"/><path class="cls-6" d="M828.52,286.5h0a4.55,4.55,0,0,1,5.1,3.9l.52,4a3.46,3.46,0,0,1,.76.45l12.15,9.29,9.29-12.15a3.26,3.26,0,0,1,.61-.62l-.53-4a4.56,4.56,0,0,1,3.9-5.1h0a4.57,4.57,0,0,1,5.11,3.9L893.2,494.59a4.55,4.55,0,0,1-3.91,5.1h0a4.55,4.55,0,0,1-5.1-3.9l-8.82-66.21a3.59,3.59,0,0,1-.75-.44l-12.15-9.29L853.18,432a4,4,0,0,1-.61.62l8.82,66.21a4.55,4.55,0,0,1-3.9,5.1h0a4.55,4.55,0,0,1-5.1-3.9L824.62,291.6a4.54,4.54,0,0,1,3.9-5.1Zm6.93,17.69L837.16,317l5.56-7.27-7.27-5.55ZM839,330.63l1.71,12.82,5.55-7.26L839,330.63Zm3.52,26.44,1.71,12.83,5.56-7.27-7.27-5.56ZM846,383.52l1.71,12.82,5.56-7.26L846,383.52ZM849.55,410l1.71,12.83,5.55-7.27L849.55,410Zm24.51,9.79-1.71-12.83-5.56,7.27,7.27,5.56Zm-3.52-26.45-1.71-12.82-5.56,7.27,7.27,5.55ZM867,366.86,865.31,354l-5.56,7.27,7.27,5.56Zm-3.53-26.44-1.71-12.83-5.56,7.27,7.27,5.56ZM860,314l-1.71-12.82-5.56,7.26L860,314Zm-18.73,9.43,9.33,7.13,7.13-9.33-9.33-7.13-7.13,9.33Zm3.52,26.44,9.33,7.14,7.14-9.33-9.33-7.14-7.14,9.33Zm3.53,26.45,9.33,7.13,7.13-9.33L855.42,367l-7.13,9.33Zm3.52,26.44,9.33,7.14,7.13-9.33L859,393.4Z"/><path class="cls-2" d="M789.27,177.65h0a2.21,2.21,0,0,1,1.23,2.87l-14,34.91a2.21,2.21,0,0,1-2.88,1.22h0a2.22,2.22,0,0,1-1.23-2.88l14-34.9A2.21,2.21,0,0,1,789.27,177.65Z"/><rect class="cls-3" x="734.35" y="130.98" width="4.43" height="42.05" rx="2.21"/><path class="cls-2" d="M726.85,140.09h0a2.22,2.22,0,0,1,1.23,2.88L714,177.87a2.23,2.23,0,0,1-2.88,1.23h0a2.23,2.23,0,0,1-1.23-2.88L724,141.32A2.23,2.23,0,0,1,726.85,140.09Z"/><path class="cls-6" d="M738.29,544.39c118.9,0,215.87-7.93,215.87-17.65s-97-17.66-215.87-17.66S522.42,517,522.42,526.74,619.4,544.39,738.29,544.39Z"/><path class="cls-4" d="M155.44,87.92h0a3.93,3.93,0,0,1,4.8,2.77l84.83,316.59a3.93,3.93,0,0,1-2.77,4.8h0a3.93,3.93,0,0,1-4.8-2.78L152.67,92.72A3.93,3.93,0,0,1,155.44,87.92Z"/><circle class="cls-10" cx="315.49" cy="421.99" r="82.9" transform="translate(-205.99 346.68) rotate(-45)"/><path class="cls-2" d="M512.89,265.65A23.17,23.17,0,1,1,480,297.83,27.84,27.84,0,1,1,456,250.48a33.24,33.24,0,1,1,65.68-7.28,33.08,33.08,0,0,1-8.74,22.45ZM387,214.43a4.8,4.8,0,1,1-4.79,4.79,4.8,4.8,0,0,1,4.79-4.79ZM410.19,224a14.76,14.76,0,1,1-14.76,14.75A14.75,14.75,0,0,1,410.19,224Zm7.38,46.47a5.16,5.16,0,1,0-5.17-5.16A5.16,5.16,0,0,0,417.57,270.49Z"/><path class="cls-2" d="M425.67,322.62h18.76a29,29,0,0,1,28.93,28.93v36H415.5V332.79A10.2,10.2,0,0,1,425.67,322.62Z"/><path class="cls-1" d="M403,322.62h18.76a29,29,0,0,1,28.94,28.93v36H392.82V332.79A10.2,10.2,0,0,1,403,322.62Z"/><rect class="cls-3" x="498.21" y="172.11" width="95.81" height="216.9"/><rect class="cls-3" x="672.81" y="203.95" width="68.27" height="181.03"/><polygon class="cls-4" points="601.99 138.67 554.67 113.36 528.18 143.99 589.3 170.81 589.3 431.27 655.58 431.27 655.58 192.26 601.99 138.67"/><path class="cls-2" d="M554.67,113.36,528.18,144l61.12,26.82v36.32a57.62,57.62,0,0,0,39.44-41.71L602,138.67Z"/><path class="cls-1" d="M501.48,109.72h44.41a12,12,0,0,1,8.78,3.64l44.41,44.4a12,12,0,0,1,3.64,8.79V419.68a12.46,12.46,0,0,1-12.44,12.43h-88.8a12.46,12.46,0,0,1-12.43-12.43V122.15a12.46,12.46,0,0,1,12.43-12.43Zm78.06,66.87H512.23c-4.28,0-7.78,3.84-7.78,8.54h0c0,4.7,3.5,8.55,7.78,8.55h67.31c4.28,0,7.78-3.85,7.78-8.55h0c0-4.7-3.5-8.54-7.78-8.54Zm0,188.4H512.23c-4.28,0-7.78,3.84-7.78,8.54h0c0,4.7,3.5,8.54,7.78,8.54h67.31c4.28,0,7.78-3.84,7.78-8.54h0c0-4.7-3.5-8.54-7.78-8.54Zm0-31.4H512.23c-4.28,0-7.78,3.84-7.78,8.54h0c0,4.7,3.5,8.54,7.78,8.54h67.31c4.28,0,7.78-3.84,7.78-8.54h0c0-4.7-3.5-8.54-7.78-8.54Zm0-31.4H512.23c-4.28,0-7.78,3.84-7.78,8.54h0c0,4.7,3.5,8.55,7.78,8.55h67.31c4.28,0,7.78-3.85,7.78-8.55h0c0-4.7-3.5-8.54-7.78-8.54Zm0-31.4H512.23c-4.28,0-7.78,3.84-7.78,8.54h0c0,4.7,3.5,8.55,7.78,8.55h67.31c4.28,0,7.78-3.85,7.78-8.55h0c0-4.7-3.5-8.54-7.78-8.54Zm0-31.4H512.23c-4.28,0-7.78,3.84-7.78,8.54h0c0,4.7,3.5,8.55,7.78,8.55h67.31c4.28,0,7.78-3.85,7.78-8.55h0c0-4.7-3.5-8.54-7.78-8.54Zm0-31.4H512.23c-4.28,0-7.78,3.84-7.78,8.54h0c0,4.7,3.5,8.55,7.78,8.55h67.31c4.28,0,7.78-3.85,7.78-8.55h0C587.32,211.83,583.82,208,579.54,208Z"/><path class="cls-4" d="M489.05,193.67V136.92L519,162.85l15.86,13.74H512.23c-4.28,0-7.78,3.84-7.78,8.54h0c0,4.7,3.5,8.54,7.78,8.54Z"/><polygon class="cls-7" points="359.46 305.86 405.11 345.4 450.76 384.93 405.11 384.93 359.45 384.93 359.45 345.4 359.46 305.86"/><polygon class="cls-4" points="377.43 340.1 403.32 362.52 429.2 384.93 403.32 384.93 377.43 384.93 377.43 362.52 377.43 340.1"/><polygon class="cls-2" points="748.42 187.4 710.81 165.47 693.13 190.21 739.14 210.4 739.14 406.46 789.02 406.46 789.02 227.85 748.42 187.4"/><path class="cls-4" d="M673,164.42h33.43a9,9,0,0,1,6.61,2.74l33.43,33.42a9,9,0,0,1,2.74,6.61V397.73a9.38,9.38,0,0,1-9.36,9.36H673a9.38,9.38,0,0,1-9.35-9.36v-224a9.37,9.37,0,0,1,9.35-9.35Zm58.76,50.33H681.12c-3.22,0-5.86,2.89-5.86,6.43h0c0,3.54,2.64,6.43,5.86,6.43h50.67c3.22,0,5.86-2.89,5.86-6.43h0c0-3.54-2.64-6.43-5.86-6.43Zm0,141.81H681.12c-3.22,0-5.86,2.9-5.86,6.43h0c0,3.53,2.64,6.43,5.86,6.43h50.67c3.22,0,5.86-2.9,5.86-6.43h0c0-3.53-2.64-6.43-5.86-6.43Zm0-23.63H681.12c-3.22,0-5.86,2.89-5.86,6.43h0c0,3.54,2.64,6.43,5.86,6.43h50.67c3.22,0,5.86-2.89,5.86-6.43h0c0-3.54-2.64-6.43-5.86-6.43Zm0-23.64H681.12c-3.22,0-5.86,2.9-5.86,6.43h0c0,3.54,2.64,6.44,5.86,6.44h50.67c3.22,0,5.86-2.9,5.86-6.44h0c0-3.53-2.64-6.43-5.86-6.43Zm0-23.63H681.12c-3.22,0-5.86,2.89-5.86,6.43h0c0,3.54,2.64,6.43,5.86,6.43h50.67c3.22,0,5.86-2.89,5.86-6.43h0c0-3.54-2.64-6.43-5.86-6.43Zm0-23.64H681.12c-3.22,0-5.86,2.89-5.86,6.43h0c0,3.54,2.64,6.43,5.86,6.43h50.67c3.22,0,5.86-2.89,5.86-6.43h0c0-3.54-2.64-6.43-5.86-6.43Zm0-23.63H681.12c-3.22,0-5.86,2.89-5.86,6.43h0c0,3.53,2.64,6.43,5.86,6.43h50.67c3.22,0,5.86-2.9,5.86-6.43h0C737.65,241.28,735,238.39,731.79,238.39Z"/><path class="cls-4" d="M713,167.08l.08.08L726,180.07a81.89,81.89,0,0,1-11.25,34.68H681.12c-3.22,0-5.86,2.89-5.86,6.43h0c0,3.54,2.64,6.43,5.86,6.43h24.15a82.58,82.58,0,0,1-11.72,10.78H681.12c-3.22,0-5.86,2.89-5.86,6.43h0a6.87,6.87,0,0,0,1,3.59,81.6,81.6,0,0,1-12.59,4.21V219.09A83.69,83.69,0,0,0,713,167.08Z"/><rect class="cls-10" x="631.3" y="219.43" width="9.44" height="204.57" rx="4.72"/><path class="cls-4" d="M653.22,233.13h0a4.73,4.73,0,0,1,1.73,6.44l-97.57,169a4.74,4.74,0,0,1-6.45,1.73h0a4.74,4.74,0,0,1-1.73-6.45l97.57-169A4.73,4.73,0,0,1,653.22,233.13Z"/><path class="cls-4" d="M618.14,233.13h0a4.72,4.72,0,0,0-1.73,6.44l97.57,169a4.73,4.73,0,0,0,6.44,1.73h0a4.74,4.74,0,0,0,1.72-6.45l-97.56-169A4.73,4.73,0,0,0,618.14,233.13Z"/><path class="cls-4" d="M626.6,259.56h17.3a3.81,3.81,0,0,1,3.81,3.8h0a3.81,3.81,0,0,1-3.81,3.8H626.6a3.81,3.81,0,0,1-3.81-3.8h0A3.81,3.81,0,0,1,626.6,259.56Z"/><path class="cls-2" d="M839.21,150.13h0a3.66,3.66,0,0,1,2.58,4.47L762.84,449.24a3.67,3.67,0,0,1-4.46,2.58h0a3.66,3.66,0,0,1-2.58-4.47l79-294.64A3.64,3.64,0,0,1,839.21,150.13Z"/><path class="cls-7" d="M258.12,181.66a1.45,1.45,0,1,1-1.44,1.44,1.44,1.44,0,0,1,1.44-1.44Zm-41-77.75-12.59,87.78s21.7-6.18,50.37,9.07a9.34,9.34,0,0,1,15.61,10.12c1.5,1.15,3,2.36,4.53,3.65l5.16-13.67a5.79,5.79,0,0,1,2-11.21,5.67,5.67,0,0,1,2.06.39l17-45.11s-20.08-31.62-84.21-41Zm49.49,84.39a2.89,2.89,0,1,1-2.9,2.89A2.89,2.89,0,0,1,266.64,188.3Z"/><path class="cls-4" d="M285.8,186.11l15.56-41.18s-14.69-23.11-59-35.69a60.4,60.4,0,0,0,43.47,76.87Z"/><path class="cls-4" d="M229.87,264.7a68.21,68.21,0,1,1-68.21,68.21,68.21,68.21,0,0,1,68.21-68.21Zm0,29.56a38.65,38.65,0,1,0,38.64,38.65A38.65,38.65,0,0,0,229.87,294.26Z"/><polygon class="cls-7" points="213.43 159.08 207.52 171.03 204.56 191.69 250.85 175.51 213.43 159.08"/><path class="cls-7" d="M154.27,96.37,177,182.09s26.29-21.24,73.83-6.58l-3-74.33s-17.95-12.35-54.28-10.93c0,.17,0,.33,0,.49a7.69,7.69,0,0,1-15.34.86,197.68,197.68,0,0,0-23.93,4.77Zm44.81-2.66a3.85,3.85,0,1,1-3.85,3.85A3.84,3.84,0,0,1,199.08,93.71Z"/><path class="cls-6" d="M152.53,89h0a3.93,3.93,0,0,1,4.8,2.77L242.16,408.3a3.93,3.93,0,0,1-2.77,4.8h0a3.93,3.93,0,0,1-4.8-2.77L149.76,93.75A3.93,3.93,0,0,1,152.53,89Z"/><path class="cls-7" d="M122.46,387.07l108.36,69.16a4.73,4.73,0,0,1,1.44,6.52h0a4.73,4.73,0,0,1-6.52,1.44L117.38,395a4.73,4.73,0,0,1-1.44-6.52h0A4.72,4.72,0,0,1,122.46,387.07Z"/><path class="cls-2" d="M128.63,389.9h0a2,2,0,0,1,1.88,2.05l-.43,9.57A2,2,0,0,1,128,403.4h0a2,2,0,0,1-1.88-2.06l.43-9.56a2,2,0,0,1,2-1.88ZM213.32,444h0A2,2,0,0,1,215.2,446l-.43,9.57a2,2,0,0,1-2.05,1.87h0a2,2,0,0,1-1.87-2.05l.42-9.57a2,2,0,0,1,2.06-1.87Zm-9.41-6h0a2,2,0,0,1,1.88,2.05l-.43,9.57a2,2,0,0,1-2.05,1.88h0a2,2,0,0,1-1.88-2.06l.42-9.56a2,2,0,0,1,2.06-1.88Zm-9.41-6h0a2,2,0,0,1,1.88,2.06l-.43,9.56a2,2,0,0,1-2,1.88h0a2,2,0,0,1-1.88-2.05l.42-9.57a2,2,0,0,1,2.06-1.88Zm-9.41-6h0A2,2,0,0,1,187,428l-.43,9.57a2,2,0,0,1-2,1.87h0a2,2,0,0,1-1.88-2.06l.43-9.56a2,2,0,0,1,2.05-1.88Zm-9.41-6h0a2,2,0,0,1,1.88,2.05l-.43,9.57a2,2,0,0,1-2,1.88h0a2,2,0,0,1-1.88-2.05l.43-9.57a2,2,0,0,1,2.05-1.88Zm-9.41-6h0a2,2,0,0,1,1.88,2.06l-.43,9.56a2,2,0,0,1-2.05,1.88h0a2,2,0,0,1-1.88-2.05l.43-9.57a2,2,0,0,1,2.05-1.88Zm-9.41-6h0a2,2,0,0,1,1.88,2.05l-.43,9.57a2,2,0,0,1-2.05,1.88h0a2,2,0,0,1-1.88-2.06l.43-9.56a2,2,0,0,1,2.05-1.88Zm-9.41-6h0a2,2,0,0,1,1.88,2l-.43,9.57a2,2,0,0,1-2.05,1.88h0a2,2,0,0,1-1.88-2.06l.43-9.56a2,2,0,0,1,2-1.88Zm-9.41-6h0a2,2,0,0,1,1.88,2l-.43,9.57a2,2,0,0,1-2.05,1.87h0a2,2,0,0,1-1.88-2l.43-9.57A2,2,0,0,1,138,395.91Z"/><path class="cls-6" d="M271.13,518.1c90.94,0,165.11-7.93,165.11-17.65s-74.17-17.66-165.11-17.66S106,490.72,106,500.45,180.18,518.1,271.13,518.1Z"/><path class="cls-9" d="M360.23,365.08h16.95a7.24,7.24,0,1,1,14.47,0h22a8.2,8.2,0,0,1,7.86-5.88,8.1,8.1,0,0,1,4.17,1.14,30.1,30.1,0,0,1,58-5.69,18.7,18.7,0,0,1,6.47-4.51,12.57,12.57,0,0,1,11.75-17,12.82,12.82,0,0,1,1.65.11,26.66,26.66,0,0,1,48.56,13.39,19.07,19.07,0,0,1,23.66,18.48h21a18.28,18.28,0,0,1,36-4.47,8.21,8.21,0,0,1,10.81,4.47h16.78a8.4,8.4,0,0,1,8.38,8.37h0a8.39,8.39,0,0,1-8.38,8.37H360.23a8.39,8.39,0,0,1-8.37-8.37h0A8.39,8.39,0,0,1,360.23,365.08Z"/><path class="cls-4" d="M639.49,135.61h13.59a5.8,5.8,0,1,1,11.6,0h17.68a6.57,6.57,0,0,1,9.64-3.8,24.14,24.14,0,0,1,46.48-4.56,15,15,0,0,1,5.19-3.62A10.07,10.07,0,0,1,753.09,110a9.8,9.8,0,0,1,1.33.09,21.37,21.37,0,0,1,38.93,10.74,15.26,15.26,0,0,1,19,14.81h16.8A14.66,14.66,0,0,1,858,132a6.5,6.5,0,0,1,2.58-.53,6.58,6.58,0,0,1,6.09,4.11h13.45a6.74,6.74,0,0,1,6.72,6.72h0a6.74,6.74,0,0,1-6.72,6.72H639.49a6.73,6.73,0,0,1-6.72-6.72h0A6.73,6.73,0,0,1,639.49,135.61Z"/><path class="cls-6" d="M488.93,505.21c242.27,0,439.87-10.59,439.87-23.58S731.2,458,488.93,458,49.05,468.64,49.05,481.63,246.65,505.21,488.93,505.21Z"/><path class="cls-9" d="M511.46,497.62c207,0,375.84-9.54,375.84-21.24s-168.83-21.24-375.84-21.24-375.84,9.54-375.84,21.24S304.45,497.62,511.46,497.62Z"/><rect class="cls-11" x="633.88" y="219.43" width="9.44" height="204.57" rx="4.72"/><path class="cls-9" d="M655.8,233.13h0a4.72,4.72,0,0,1,1.73,6.44L560,408.57a4.73,4.73,0,0,1-6.44,1.73h0a4.74,4.74,0,0,1-1.72-6.45l97.56-169A4.73,4.73,0,0,1,655.8,233.13Z"/><path class="cls-9" d="M620.72,233.13h0a4.73,4.73,0,0,0-1.73,6.44l97.57,169A4.73,4.73,0,0,0,723,410.3h0a4.74,4.74,0,0,0,1.73-6.45l-97.57-169A4.73,4.73,0,0,0,620.72,233.13Z"/><path class="cls-6" d="M629.18,259.56h17.31a3.81,3.81,0,0,1,3.8,3.8h0a3.81,3.81,0,0,1-3.8,3.8H629.18a3.82,3.82,0,0,1-3.81-3.8h0A3.82,3.82,0,0,1,629.18,259.56Z"/><path class="cls-6" d="M294.09,285.51l8.17-4.72a8.3,8.3,0,0,1,11.29,3l73.16,126.72a8.29,8.29,0,0,1-3,11.29l-8.17,4.71a8.27,8.27,0,0,1-11.28-3L291.06,296.79A8.28,8.28,0,0,1,294.09,285.51Z"/><path class="cls-4" d="M873.48,280.56l-6.73-11.66a11.83,11.83,0,0,0-16.1-4.32L669.9,368.94a11.81,11.81,0,0,0-4.31,16.1l6.73,11.66A11.8,11.8,0,0,0,688.41,401L869.17,296.65A11.81,11.81,0,0,0,873.48,280.56Z"/><path class="cls-6" d="M198.75,317l4.72-8.18a8.29,8.29,0,0,1,11.28-3L341.48,379a8.29,8.29,0,0,1,3,11.29l-4.72,8.17a8.28,8.28,0,0,1-11.29,3L201.77,328.32A8.29,8.29,0,0,1,198.75,317Z"/><rect class="cls-12" x="265.15" y="380.22" width="480.85" height="63.72" rx="16.31"/><path class="cls-9" d="M883.26,280.56l-6.74-11.66a11.82,11.82,0,0,0-16.09-4.32L679.67,368.94a11.83,11.83,0,0,0-4.31,16.1l6.73,11.66a11.81,11.81,0,0,0,16.1,4.31L878.94,296.65A11.82,11.82,0,0,0,883.26,280.56Z"/><path class="cls-6" d="M883.26,280.56l-5.86-10.15-86.33,49.84a11.84,11.84,0,0,0-4.32,16.1l5.86,10.15,86.33-49.85A11.81,11.81,0,0,0,883.26,280.56Z"/><path class="cls-6" d="M225.59,402.33H528.42a15.15,15.15,0,0,1,15.1,15.11v28.79a15.15,15.15,0,0,1-15.1,15.11H211.2a15.16,15.16,0,0,1-15.11-15.11V431.84A29.6,29.6,0,0,1,225.59,402.33Z"/><path class="cls-2" d="M319.7,389.3,355,409.66a3.55,3.55,0,0,1,1.3,4.84l-6.91,12a3.56,3.56,0,0,1-4.84,1.3L309.25,407.4a3.54,3.54,0,0,1-1.29-4.83l6.91-12A3.55,3.55,0,0,1,319.7,389.3Z"/><path class="cls-2" d="M339.38,400.66,374.63,421a3.55,3.55,0,0,1,1.3,4.84l-6.91,12a3.55,3.55,0,0,1-4.83,1.3l-35.26-20.36a3.55,3.55,0,0,1-1.3-4.83l6.91-12A3.55,3.55,0,0,1,339.38,400.66Z"/><path class="cls-9" d="M343,407.32h0a2.12,2.12,0,0,1,.78,2.89l-4.38,7.58a2.12,2.12,0,0,1-2.89.77h0a2.12,2.12,0,0,1-.77-2.88l4.38-7.58a2.11,2.11,0,0,1,2.88-.78Zm24.13,13.93h0a2.11,2.11,0,0,1,.77,2.89l-4.37,7.58a2.12,2.12,0,0,1-2.89.77h0a2.11,2.11,0,0,1-.77-2.88l4.37-7.58a2.12,2.12,0,0,1,2.89-.78Zm-8-4.64a2.13,2.13,0,0,0-2.89.77L351.77,425a2.12,2.12,0,0,0,.78,2.89h0a2.13,2.13,0,0,0,2.89-.77l4.37-7.58a2.13,2.13,0,0,0-.77-2.89ZM351,412a2.11,2.11,0,0,0-2.88.77l-4.38,7.58a2.12,2.12,0,0,0,.78,2.89h0a2.11,2.11,0,0,0,2.88-.78l4.38-7.58A2.11,2.11,0,0,0,351,412Z"/><path class="cls-9" d="M409.49,414.43c102.69,0,192.54,23.66,241.86,59H167.63C217,438.09,306.81,414.43,409.49,414.43Z"/><path class="cls-8" d="M442.09,473.43H167.63c31.57-22.62,79.73-40.45,137.23-50.36C362.36,433,410.52,450.81,442.09,473.43Z"/><path class="cls-6" d="M800,402.33H479.74a15.15,15.15,0,0,0-15.1,15.11v28.79a15.15,15.15,0,0,0,15.1,15.11H814.38a15.15,15.15,0,0,0,15.1-15.11V431.84A29.59,29.59,0,0,0,800,402.33Z"/><path class="cls-13" d="M296,440.63a4.42,4.42,0,1,0-4.42-4.42A4.42,4.42,0,0,0,296,440.63Z"/><rect class="cls-3" x="439.97" y="359.32" width="47.79" height="20.9" rx="3.54"/><path class="cls-2" d="M466.23,359.32h29.84l.24.24-2.55,2.58-2.55,2.59,2.55,2.58,2.55,2.58-2.55,2.59-2.55,2.58,2.55,2.58,2.55,2.58H466.23a3.55,3.55,0,0,1-3.54-3.54V362.86A3.55,3.55,0,0,1,466.23,359.32Z"/><path class="cls-2" d="M472.65,363.3h0a2.13,2.13,0,0,1,2.12,2.12v8.75a2.12,2.12,0,0,1-2.12,2.11h0a2.12,2.12,0,0,1-2.11-2.11v-8.75a2.13,2.13,0,0,1,2.11-2.12Zm9.29,0h0a2.13,2.13,0,0,1,2.11,2.12v8.75a2.12,2.12,0,0,1-2.11,2.11h0a2.12,2.12,0,0,1-2.11-2.11v-8.75A2.13,2.13,0,0,1,481.94,363.3Z"/><rect class="cls-3" x="588.85" y="386.34" width="36.58" height="16" rx="2.71"/><rect class="cls-3" x="606.24" y="386.34" width="36.58" height="16" rx="2.71"/><path class="cls-2" d="M613.87,389.38h0a1.63,1.63,0,0,1,1.62,1.62v6.7a1.63,1.63,0,0,1-1.62,1.62h0a1.63,1.63,0,0,1-1.62-1.62V391a1.63,1.63,0,0,1,1.62-1.62Zm21.33,0h0a1.63,1.63,0,0,1,1.62,1.62v6.7a1.63,1.63,0,0,1-1.62,1.62h0a1.63,1.63,0,0,1-1.62-1.62V391a1.63,1.63,0,0,1,1.62-1.62Zm-7.11,0h0a1.63,1.63,0,0,1,1.62,1.62v6.7a1.63,1.63,0,0,1-1.62,1.62h0a1.63,1.63,0,0,1-1.62-1.62V391a1.63,1.63,0,0,1,1.62-1.62Zm-7.11,0h0A1.63,1.63,0,0,1,622.6,391v6.7a1.63,1.63,0,0,1-1.62,1.62h0a1.63,1.63,0,0,1-1.62-1.62V391A1.63,1.63,0,0,1,621,389.38Z"/><rect class="cls-3" x="626.92" y="386.34" width="36.58" height="16" rx="2.71"/><rect class="cls-3" x="644.31" y="386.34" width="36.58" height="16" rx="2.71"/><path class="cls-2" d="M651.94,389.38h0a1.63,1.63,0,0,1,1.62,1.62v6.7a1.63,1.63,0,0,1-1.62,1.62h0a1.63,1.63,0,0,1-1.62-1.62V391a1.63,1.63,0,0,1,1.62-1.62Zm21.33,0h0a1.63,1.63,0,0,1,1.62,1.62v6.7a1.63,1.63,0,0,1-1.62,1.62h0a1.63,1.63,0,0,1-1.62-1.62V391a1.63,1.63,0,0,1,1.62-1.62Zm-7.11,0h0a1.63,1.63,0,0,1,1.62,1.62v6.7a1.63,1.63,0,0,1-1.62,1.62h0a1.63,1.63,0,0,1-1.62-1.62V391a1.63,1.63,0,0,1,1.62-1.62Zm-7.11,0h0a1.63,1.63,0,0,1,1.62,1.62v6.7a1.63,1.63,0,0,1-1.62,1.62h0a1.63,1.63,0,0,1-1.62-1.62V391A1.63,1.63,0,0,1,659.05,389.38Z"/><rect class="cls-3" x="611.34" y="370.34" width="36.58" height="16" rx="2.71"/><rect class="cls-3" x="628.73" y="370.34" width="36.58" height="16" rx="2.71"/><path class="cls-2" d="M636.36,373.39h0A1.63,1.63,0,0,1,638,375v6.69a1.63,1.63,0,0,1-1.62,1.62h0a1.63,1.63,0,0,1-1.62-1.62V375a1.63,1.63,0,0,1,1.62-1.62Zm21.33,0h0A1.62,1.62,0,0,1,659.3,375v6.69a1.62,1.62,0,0,1-1.61,1.62h0a1.63,1.63,0,0,1-1.62-1.62V375a1.63,1.63,0,0,1,1.62-1.62Zm-7.11,0h0A1.63,1.63,0,0,1,652.2,375v6.69a1.63,1.63,0,0,1-1.62,1.62h0A1.63,1.63,0,0,1,649,381.7V375a1.63,1.63,0,0,1,1.62-1.62Zm-7.11,0h0a1.63,1.63,0,0,1,1.62,1.62v6.69a1.63,1.63,0,0,1-1.62,1.62h0a1.63,1.63,0,0,1-1.62-1.62V375A1.63,1.63,0,0,1,643.47,373.39Z"/><path class="cls-4" d="M692.22,363.7a68.21,68.21,0,1,1,7.58,96.16,68.21,68.21,0,0,1-7.58-96.16Zm22.49,19.19a38.65,38.65,0,1,0,54.48-4.29A38.65,38.65,0,0,0,714.71,382.89Z"/><path class="cls-8" d="M206.12,264.7a68.21,68.21,0,1,1-68.21,68.21,68.21,68.21,0,0,1,68.21-68.21Zm0,29.56a38.65,38.65,0,1,0,38.64,38.65A38.66,38.66,0,0,0,206.12,294.26Z"/><path class="cls-6" d="M223.23,264.7A68.21,68.21,0,1,1,155,332.91a68.21,68.21,0,0,1,68.21-68.21Zm0,29.56a38.65,38.65,0,1,0,38.65,38.65A38.65,38.65,0,0,0,223.23,294.26Z"/><path class="cls-6" d="M139.71,262.51l96.72,55.84a8.28,8.28,0,0,1,3,11.28l-4.72,8.18a8.27,8.27,0,0,1-11.28,3L126.73,285C109.71,275.17,127,255.16,139.71,262.51Z"/><path class="cls-9" d="M696.82,361.69a68.21,68.21,0,1,1,7.59,96.17,68.23,68.23,0,0,1-7.59-96.17Zm22.49,19.2a38.65,38.65,0,1,0,54.48-4.29A38.65,38.65,0,0,0,719.31,380.89Z"/><path class="cls-6" d="M707.93,348.68a68.21,68.21,0,1,1,7.59,96.17,68.22,68.22,0,0,1-7.59-96.17Zm22.49,19.2a38.65,38.65,0,1,0,54.48-4.3A38.64,38.64,0,0,0,730.42,367.88Z"/><path class="cls-8" d="M514,402.33H479.74a15.15,15.15,0,0,0-15.1,15.11v28.79a15.15,15.15,0,0,0,15.1,15.11h48.68a15.15,15.15,0,0,0,15.1-15.11V431.84A29.59,29.59,0,0,0,514,402.33Z"/><path class="cls-9" d="M658.48,427c80.74,0,151.4,18.6,190.18,46.39H468.3C507.08,445.64,577.74,427,658.48,427Z"/><path class="cls-4" d="M658.48,427c16.08,0,31.76.74,46.87,2.14-13.26,8.55-53.88,14.77-102,14.77a468.59,468.59,0,0,1-58.53-3.43C578.09,432,617,427,658.48,427Z"/><path class="cls-9" d="M658.48,484.76c109,0,198-5.09,198-11.33s-88.94-11.32-198-11.32-198,5.09-198,11.32S549.43,484.76,658.48,484.76Z"/><path class="cls-6" d="M191.19,285.66h0a4.74,4.74,0,0,0-4.25,5.15l18.55,194.24a4.72,4.72,0,0,0,5.14,4.25h0a4.72,4.72,0,0,0,4.25-5.14L196.33,289.91A4.72,4.72,0,0,0,191.19,285.66Z"/><path class="cls-9" d="M209.6,297.67h0a4.73,4.73,0,0,1,2.33,6.25l-81.07,177.5a4.73,4.73,0,0,1-6.25,2.33h0a4.74,4.74,0,0,1-2.33-6.26L203.35,300A4.73,4.73,0,0,1,209.6,297.67Z"/><path class="cls-6" d="M174.69,301h0a4.72,4.72,0,0,0-1.11,6.58l113.18,159a4.73,4.73,0,0,0,6.58,1.1h0a4.72,4.72,0,0,0,1.11-6.58L181.27,302.11A4.72,4.72,0,0,0,174.69,301Z"/><path class="cls-8" d="M185.61,326.5l17.24-1.64a3.81,3.81,0,0,1,4.14,3.42h0a3.82,3.82,0,0,1-3.42,4.15l-17.23,1.64a3.81,3.81,0,0,1-4.15-3.42h0A3.81,3.81,0,0,1,185.61,326.5Z"/><path class="cls-6" d="M416.58,527.72a4.42,4.42,0,1,0-4.41-4.41A4.42,4.42,0,0,0,416.58,527.72Z"/><path class="cls-6" d="M406.41,532.6a2.21,2.21,0,1,0-2.21-2.21A2.22,2.22,0,0,0,406.41,532.6Z"/><path class="cls-6" d="M820.81,302.79h0a4.74,4.74,0,0,0-5,4.39L802.37,501.85a4.73,4.73,0,0,0,4.38,5h0a4.74,4.74,0,0,0,5-4.39L825.2,307.83A4.74,4.74,0,0,0,820.81,302.79Z"/><path class="cls-9" d="M837,317.65h0a4.73,4.73,0,0,1,1.28,6.55L729.36,486.08a4.74,4.74,0,0,1-6.55,1.28h0a4.73,4.73,0,0,1-1.28-6.55L830.47,318.93A4.74,4.74,0,0,1,837,317.65Z"/><path class="cls-8" d="M802,315.23h0a4.72,4.72,0,0,0-2.16,6.31l85.72,175.29A4.73,4.73,0,0,0,891.9,499h0a4.75,4.75,0,0,0,2.17-6.32L808.35,317.4A4.74,4.74,0,0,0,802,315.23Z"/><path class="cls-8" d="M808.65,342.18l17.27,1.19a3.8,3.8,0,0,1,3.53,4.05h0A3.81,3.81,0,0,1,825.4,351l-17.27-1.19a3.8,3.8,0,0,1-3.53-4.05h0A3.8,3.8,0,0,1,808.65,342.18Z"/><path class="cls-4" d="M226.32,111.51l-7.72-7.73a11,11,0,0,1,0-15.44l14.53-14.53,15-15a11,11,0,0,0,2.16-12.35L258,54.19a10.94,10.94,0,0,1,0,15.44L243.48,84.16l-15,15A11,11,0,0,0,226.32,111.51Z"/><path class="cls-1" d="M517.89,150.75a2.46,2.46,0,1,0-2.46-2.46A2.47,2.47,0,0,0,517.89,150.75Z"/><polygon class="cls-4" points="547.39 172.11 559.84 182.89 572.29 193.68 559.84 193.68 547.39 193.68 547.39 182.89 547.39 172.11"/><polygon class="cls-4" points="542.25 184.76 547.39 189.22 552.54 193.68 547.39 193.68 542.24 193.68 542.24 189.22 542.25 184.76"/><polygon class="cls-4" points="512 173.8 523.47 183.74 534.95 193.68 523.47 193.68 512 193.68 512 183.74 512 173.8"/><polygon class="cls-7" points="516.72 184.25 522.16 188.97 527.6 193.68 522.16 193.68 516.72 193.68 516.72 188.97 516.72 184.25"/><polygon class="cls-7" points="554.4 184.25 559.84 188.97 565.28 193.68 559.84 193.68 554.4 193.68 554.4 188.97 554.4 184.25"/><path class="cls-1" d="M509.23,141.42a2.1,2.1,0,1,0-2.1-2.09A2.1,2.1,0,0,0,509.23,141.42Z"/><path class="cls-1" d="M540,171.68a4,4,0,1,0-4-4A4,4,0,0,0,540,171.68Z"/><path class="cls-4" d="M699.24,242.71a2.46,2.46,0,1,0-2.46-2.46A2.46,2.46,0,0,0,699.24,242.71Z"/><polygon class="cls-4" points="700.11 255.01 711.58 264.95 723.06 274.88 711.58 274.88 700.11 274.88 700.11 264.95 700.11 255.01"/><polygon class="cls-7" points="704.83 265.46 710.27 270.17 715.71 274.88 710.27 274.88 704.83 274.88 704.83 270.17 704.83 265.46"/><path class="cls-1" d="M690.58,233.39a2.1,2.1,0,1,0-2.1-2.1A2.11,2.11,0,0,0,690.58,233.39Z"/><path class="cls-4" d="M690.78,266a4,4,0,1,0-4-4A4,4,0,0,0,690.78,266Z"/><path class="cls-1" d="M686.17,199.32a1.23,1.23,0,1,0-1.23-1.23A1.23,1.23,0,0,0,686.17,199.32Z"/><polygon class="cls-4" points="713.77 216.91 719.95 222.26 726.13 227.61 719.95 227.61 713.77 227.61 713.77 222.26 713.77 216.91"/><polygon class="cls-7" points="716.32 222.54 719.25 225.07 722.18 227.61 719.25 227.61 716.32 227.61 716.32 225.07 716.32 222.54"/><polygon class="cls-4" points="709.39 221.61 712.85 224.61 716.32 227.61 712.85 227.61 709.39 227.61 709.39 224.61 709.39 221.61"/><polygon class="cls-1" points="710.81 224.77 712.46 226.19 714.1 227.61 712.46 227.61 710.81 227.61 710.81 226.19 710.81 224.77"/><polygon class="cls-4" points="547.76 359.95 559.47 370.08 571.18 380.22 559.47 380.22 547.76 380.22 547.76 370.08 547.76 359.95"/><polygon class="cls-7" points="552.58 370.61 558.13 375.42 563.68 380.22 558.13 380.22 552.58 380.22 552.58 375.42 552.58 370.61"/><polygon class="cls-4" points="315.04 122.46 292.52 126.79 270 131.13 285.01 139.79 300.03 148.46 307.53 135.46 315.04 122.46"/><polygon class="cls-7" points="300.96 132.57 290.28 134.62 279.61 136.68 286.73 140.78 293.84 144.89 297.4 138.73 300.96 132.57"/><polygon class="cls-4" points="291.88 117.35 279.7 119.69 267.53 122.03 275.65 126.72 283.76 131.4 287.82 124.38 291.88 117.35"/><polygon class="cls-7" points="284.27 122.81 278.5 123.92 272.73 125.03 276.57 127.25 280.42 129.47 282.34 126.14 284.27 122.81"/><path class="cls-4" d="M335.16,126.18l-3.93-3.93a5.56,5.56,0,0,1,0-7.85l7.4-7.39,7.62-7.63a5.57,5.57,0,0,0,1.1-6.28L351.28,97a5.56,5.56,0,0,1,0,7.85l-7.39,7.39-7.63,7.63A5.58,5.58,0,0,0,335.16,126.18Z"/><path class="cls-4" d="M310.42,150.39a3.72,3.72,0,1,0-3.72-3.71A3.72,3.72,0,0,0,310.42,150.39Z"/><path class="cls-4" d="M380.6,68.15a3.72,3.72,0,1,0-3.72-3.71A3.72,3.72,0,0,0,380.6,68.15Z"/><path class="cls-1" d="M528.18,125.83a2.1,2.1,0,1,0-2.1-2.1A2.11,2.11,0,0,0,528.18,125.83Z"/><path class="cls-2" d="M455.7,147a2.46,2.46,0,1,0-2.46-2.46A2.46,2.46,0,0,0,455.7,147Z"/><path class="cls-2" d="M431.47,104.84a1.05,1.05,0,1,0-1.05-1A1,1,0,0,0,431.47,104.84Z"/><path class="cls-2" d="M477,162.37a6.41,6.41,0,1,0-6.41-6.41A6.42,6.42,0,0,0,477,162.37Z"/><path class="cls-2" d="M442.46,125a2.1,2.1,0,1,0-2.1-2.1A2.1,2.1,0,0,0,442.46,125Z"/><path class="cls-4" d="M678.73,163.88a2,2,0,1,0-2-2A2,2,0,0,0,678.73,163.88Z"/><path class="cls-1" d="M643.17,160.57a2,2,0,1,0-2-2A2,2,0,0,0,643.17,160.57Z"/><path class="cls-1" d="M611.86,145.2a2,2,0,1,0-2-2A2,2,0,0,0,611.86,145.2Z"/><path class="cls-1" d="M673.4,211.7a4,4,0,1,0-4-4A4,4,0,0,0,673.4,211.7Z"/><path class="cls-1" d="M726.62,209.81a2,2,0,1,0-2-2A2,2,0,0,0,726.62,209.81Z"/><path class="cls-4" d="M621.55,92.33a2,2,0,1,0-2-2A2,2,0,0,0,621.55,92.33Z"/><path class="cls-2" d="M567.5,169.16a4.79,4.79,0,1,1-4.79,4.79,4.79,4.79,0,0,1,4.79-4.79Zm-22.13-49.8a6.27,6.27,0,1,1-6.27,6.27,6.27,6.27,0,0,1,6.27-6.27ZM553.45,138a8.86,8.86,0,0,0-6.53,2.87,10.44,10.44,0,1,0,.51,19.73,11.76,11.76,0,1,0,14.88-14.42A8.88,8.88,0,0,0,553.45,138Z"/><path class="cls-2" d="M703,149.67a4.79,4.79,0,1,1-5.87,3.39,4.79,4.79,0,0,1,5.87-3.39Zm-15.78-8.06a11.76,11.76,0,1,0,16.7-15.46,8.84,8.84,0,0,0-2.13-7.55,11.84,11.84,0,0,0-3.4-13.69,6.49,6.49,0,0,0,.55-1.39,6.27,6.27,0,1,0-12.11-3.25,6.15,6.15,0,0,0-.12,2.69,11.44,11.44,0,0,0-2.59,1.37,9.23,9.23,0,0,0-17.59,5.35,18.94,18.94,0,1,0,13.84,32.22,12.31,12.31,0,0,0,2.93.36,12.07,12.07,0,0,0,3.92-.65Zm-33.61-47.3a4.06,4.06,0,1,1-4.06,4.06A4.06,4.06,0,0,1,653.59,94.31Z"/><polygon class="cls-4" points="526.41 266.31 538.86 277.09 551.31 287.88 538.86 287.88 526.41 287.88 526.41 277.09 526.41 266.31"/><polygon class="cls-7" points="533.42 278.45 538.86 283.16 544.3 287.88 538.86 287.88 533.42 287.88 533.42 283.16 533.42 278.45"/><path class="cls-4" d="M385.43,92.51l-3.93-3.93a5.58,5.58,0,0,1,0-7.86l7.39-7.39,7.63-7.62a5.59,5.59,0,0,0,1.1-6.29l3.93,3.93a5.58,5.58,0,0,1,0,7.86l-7.39,7.39-7.63,7.62A5.6,5.6,0,0,0,385.43,92.51Z"/><path class="cls-4" d="M423.5,41.94a1.86,1.86,0,1,0-1.86-1.86A1.86,1.86,0,0,0,423.5,41.94Z"/><path class="cls-4" d="M178.69,198.61l-5.52-5.52a7.83,7.83,0,0,1,0-11l10.38-10.38L194.26,161a7.82,7.82,0,0,0,1.55-8.82l5.52,5.52a7.83,7.83,0,0,1,0,11L191,179.08l-10.71,10.71A7.82,7.82,0,0,0,178.69,198.61Z"/><path class="cls-1" d="M273.78,144.59a3.14,3.14,0,1,0-3.14-3.13A3.13,3.13,0,0,0,273.78,144.59Z"/><path class="cls-4" d="M475.27,482.21h5.9a1.94,1.94,0,0,1,.82-.93h0a2,2,0,0,1,2.69.72l.12.21h7.53a1.94,1.94,0,0,1,.82-.93h0a2,2,0,0,1,2.69.72l.12.21h7.53a1.91,1.91,0,0,1,.83-.93h0A2,2,0,0,1,507,482l.12.21h7.54a1.94,1.94,0,0,1,.82-.93h0a2,2,0,0,1,2.69.72l.12.21h7.53a1.94,1.94,0,0,1,.82-.93h0a2,2,0,0,1,2.69.72l.12.21H537a1.94,1.94,0,0,1,.82-.93h0a2,2,0,0,1,2.69.72l.13.21h7.53a1.94,1.94,0,0,1,.82-.93h0a2,2,0,0,1,2.69.72l.12.21h7.53a1.94,1.94,0,0,1,.82-.93h0a2,2,0,0,1,2.69.72l.12.21h7.53a1.94,1.94,0,0,1,.82-.93h0A2,2,0,0,1,574,482l.12.21h7.53a2,2,0,0,1,.83-.93h0a2,2,0,0,1,2.68.72l.13.21h18.54a4.74,4.74,0,0,1,4.73,4.72h0a4.75,4.75,0,0,1-4.73,4.73H590.16a2,2,0,0,1-.95,1.32h0a2,2,0,0,1-2.68-.72l-.35-.6H579a1.94,1.94,0,0,1-.94,1.32h0a2,2,0,0,1-2.69-.72l-.35-.6h-7.18a1.94,1.94,0,0,1-.94,1.32h0a2,2,0,0,1-2.69-.72l-.35-.6h-7.18a2,2,0,0,1-.95,1.32h0a2,2,0,0,1-2.68-.72l-.35-.6h-7.18a2,2,0,0,1-1,1.32h0a2,2,0,0,1-2.69-.72l-.35-.6h-7.18a1.94,1.94,0,0,1-.94,1.32h0a2,2,0,0,1-2.69-.72l-.35-.6h-7.18a2,2,0,0,1-.95,1.32h0a2,2,0,0,1-2.68-.72l-.35-.6H512a2,2,0,0,1-.95,1.32h0a2,2,0,0,1-2.69-.72l-.35-.6h-7.18a1.94,1.94,0,0,1-.94,1.32h0a2,2,0,0,1-2.69-.72l-.35-.6h-7.18a2,2,0,0,1-.94,1.32h0a2,2,0,0,1-2.69-.72l-.35-.6H475.27a4.75,4.75,0,0,1-4.73-4.73h0a4.74,4.74,0,0,1,4.73-4.72Zm19,23.84h5.9a2,2,0,0,1,.83-.93h0a2,2,0,0,1,2.69.72l.12.21h7.53a1.94,1.94,0,0,1,.82-.93h0a2,2,0,0,1,2.69.72l.12.21h7.53a1.91,1.91,0,0,1,.83-.93h0a2,2,0,0,1,2.68.72l.12.21h7.53a2,2,0,0,1,.83-.93h0a2,2,0,0,1,2.69.72l.12.21h7.53a1.94,1.94,0,0,1,.82-.93h0a2,2,0,0,1,2.69.72l.12.21H556a1.94,1.94,0,0,1,.82-.93h0a2,2,0,0,1,2.69.72l.12.21h7.53a1.91,1.91,0,0,1,.83-.93h0a2,2,0,0,1,2.68.72l.12.21h7.54a1.94,1.94,0,0,1,.82-.93h0a2,2,0,0,1,2.69.72l.12.21h7.53a1.94,1.94,0,0,1,.82-.93h0a2,2,0,0,1,2.69.72l.12.21h7.53a1.91,1.91,0,0,1,.83-.93h0a2,2,0,0,1,2.68.72l.12.21H622.8a4.74,4.74,0,0,1,4.73,4.72h0a4.75,4.75,0,0,1-4.73,4.73H609.14a1.94,1.94,0,0,1-.94,1.32h0a2,2,0,0,1-2.69-.72l-.35-.6H598a1.94,1.94,0,0,1-.94,1.32h0a2,2,0,0,1-2.69-.72l-.35-.6h-7.18a2,2,0,0,1-.94,1.32h0a2,2,0,0,1-2.68-.72l-.35-.6h-7.18a2,2,0,0,1-.95,1.32h0a2,2,0,0,1-2.69-.72l-.35-.6h-7.18a1.94,1.94,0,0,1-.94,1.32h0a2,2,0,0,1-2.69-.72l-.35-.6h-7.18a2,2,0,0,1-1,1.32h0a2,2,0,0,1-2.68-.72l-.35-.6h-7.18a2,2,0,0,1-.95,1.32h0a2,2,0,0,1-2.69-.72l-.35-.6H531a1.94,1.94,0,0,1-.94,1.32h0a2,2,0,0,1-2.69-.72l-.35-.6h-7.18a2,2,0,0,1-.94,1.32h0a2,2,0,0,1-2.69-.72l-.35-.6h-7.18a2,2,0,0,1-.95,1.32h0a2,2,0,0,1-2.68-.72l-.35-.6H494.25a4.74,4.74,0,0,1-4.72-4.73h0A4.74,4.74,0,0,1,494.25,506.05Z"/><path class="cls-4" d="M265.36,109.12a8.12,8.12,0,1,0,8.11,8.11,8.11,8.11,0,0,0-8.11-8.11ZM357.88,0a3.69,3.69,0,1,1-3.68,3.69A3.7,3.7,0,0,1,357.88,0ZM342.76,14.39A6.64,6.64,0,1,1,336.12,21a6.63,6.63,0,0,1,6.64-6.63ZM313.41,34.87a5.76,5.76,0,1,0-6.3-9.13,10.61,10.61,0,1,0,6.32,9.71c0-.2,0-.39,0-.58ZM274.14,61.78a8.5,8.5,0,0,1,3,.56,15,15,0,0,1,23-1.06,17.42,17.42,0,0,1,5.29-.81,17.66,17.66,0,1,1-6.17,34.21,19.9,19.9,0,1,1-32.53-20.16,8.49,8.49,0,0,1,7.35-12.74Z"/><path class="cls-4" d="M911.17,464.15H580.92a15.62,15.62,0,0,0-15.57,15.58v29.7A15.62,15.62,0,0,0,580.92,525H926a15.61,15.61,0,0,0,15.57-15.57V494.58A30.51,30.51,0,0,0,911.17,464.15Z"/><rect class="cls-11" x="449.4" y="501.06" width="12.32" height="7.79" rx="3.9"/><path class="cls-6" d="M542.29,467.18a4.42,4.42,0,1,0-4.42-4.41A4.42,4.42,0,0,0,542.29,467.18Z"/><path class="cls-6" d="M532.11,472.05a2.21,2.21,0,1,0-2.2-2.2A2.21,2.21,0,0,0,532.11,472.05Z"/><path class="cls-6" d="M913.75,467.47H583.5a15.62,15.62,0,0,0-15.57,15.58v29.7a15.62,15.62,0,0,0,15.57,15.57H928.6a15.62,15.62,0,0,0,15.58-15.57V497.9A30.51,30.51,0,0,0,913.75,467.47Z"/><path class="cls-8" d="M618.86,467.47H583.5a15.62,15.62,0,0,0-15.57,15.58v29.7a15.62,15.62,0,0,0,15.57,15.57h50.21a15.62,15.62,0,0,0,15.57-15.57V497.9A30.51,30.51,0,0,0,618.86,467.47Z"/><path class="cls-12" d="M661.53,484.9h4.62a4,4,0,0,1,4,4v0a4,4,0,0,1-4,4h-4.62a4,4,0,0,1-4-4v0a4,4,0,0,1,4-4Z"/><path class="cls-9" d="M667.5,507.29h3.16a2.74,2.74,0,0,1,2.72,2.72h0a2.73,2.73,0,0,1-2.72,2.72H667.5a2.72,2.72,0,0,1-2.72-2.72h0A2.73,2.73,0,0,1,667.5,507.29Z"/><rect class="cls-14" x="685.67" y="502.91" width="8.6" height="5.44" rx="2.72"/><path class="cls-6" d="M329,416.54l-4.53-12.68a11.81,11.81,0,0,0-15.06-7.14l-196.56,70.2A11.82,11.82,0,0,0,105.76,482l4.52,12.68a11.82,11.82,0,0,0,15.06,7.13L321.9,431.6A11.82,11.82,0,0,0,329,416.54Z"/><path class="cls-9" d="M129.9,460.84h0l-17,6.07A11.82,11.82,0,0,0,105.76,482l4.52,12.68a11.82,11.82,0,0,0,15,7.13h0l17-6.07a11.82,11.82,0,0,0,7.13-15.06L145,468A11.82,11.82,0,0,0,129.9,460.84Z"/><rect class="cls-14" x="295.92" y="501.83" width="12.57" height="7.95" rx="3.98"/><rect class="cls-14" x="281.31" y="499.95" width="6.29" height="3.98" rx="1.99"/><rect class="cls-14" x="245.48" y="510" width="8.06" height="5.1" rx="2.55"/><rect class="cls-11" x="291.81" y="519.75" width="8.06" height="5.1" rx="2.55"/><rect class="cls-11" x="148.04" y="517.59" width="8.06" height="5.1" rx="2.55"/><path class="cls-6" d="M942.27,522.19H753.84a31.77,31.77,0,0,0-31.32,27.06H973.6A31.78,31.78,0,0,0,942.27,522.19Z"/><path class="cls-8" d="M896.51,522.19h-240a31.76,31.76,0,0,0-31.32,27.06h302.7A31.78,31.78,0,0,0,896.51,522.19Z"/><path class="cls-6" d="M733.68,522.19H661.8a32.22,32.22,0,0,1,32,27.06h71.88A32.22,32.22,0,0,0,733.68,522.19Z"/><rect class="cls-11" x="618.36" y="542.82" width="24.03" height="12.85" rx="6.42"/><rect class="cls-14" x="664.33" y="554.76" width="15.45" height="8.26" rx="4.13"/><path class="cls-4" d="M852.79,570.71c2.83,0,5.14-1,5.14-2.2s-2.31-2.2-5.14-2.2-5.14,1-5.14,2.2S850,570.71,852.79,570.71Z"/><path class="cls-4" d="M843.32,571.67c1.42,0,2.57-.49,2.57-1.1s-1.15-1.1-2.57-1.1-2.56.49-2.56,1.1S841.91,571.67,843.32,571.67Z"/><path class="cls-4" d="M929.25,570.71c1.41,0,2.57-.49,2.57-1.1s-1.16-1.1-2.57-1.1-2.57.5-2.57,1.1S927.83,570.71,929.25,570.71Z"/><path class="cls-6" d="M945.22,522.19H866.57a31.76,31.76,0,0,1,31.32,27.06h78.66A31.77,31.77,0,0,0,945.22,522.19Z"/><rect class="cls-14" x="933.54" y="554.47" width="10.44" height="5.58" rx="2.79"/><path class="cls-9" d="M955.26,554.5h7.27a4.2,4.2,0,0,1,4.19,4.18h0a4.21,4.21,0,0,1-4.19,4.19h-7.27a4.21,4.21,0,0,1-4.19-4.19h0A4.2,4.2,0,0,1,955.26,554.5Z"/><path class="cls-6" d="M975,540h11.31a6.53,6.53,0,0,1,6.51,6.51h0a6.53,6.53,0,0,1-6.51,6.5H975a6.53,6.53,0,0,1-6.51-6.5h0A6.53,6.53,0,0,1,975,540Z"/><rect class="cls-11" x="983.45" y="546.17" width="20.58" height="11.01" rx="5.5"/><polygon class="cls-8" points="753.47 574.44 729.6 546.31 748.66 554.83 715.9 520.03 734.22 543.91 714.24 535.95 753.47 574.44"/><path class="cls-4" d="M888.25,569.18c2.83,0,5.14-1,5.14-2.2s-2.31-2.2-5.14-2.2-5.14,1-5.14,2.2S885.42,569.18,888.25,569.18Z"/><path class="cls-9" d="M764.76,568.67c4.56,0,8.29-1.59,8.29-3.55s-3.73-3.55-8.29-3.55-8.29,1.6-8.29,3.55S760.2,568.67,764.76,568.67Z"/><path class="cls-9" d="M779.42,572.37c1.65,0,3-.58,3-1.29s-1.34-1.28-3-1.28-3,.58-3,1.28S777.77,572.37,779.42,572.37Z"/><rect class="cls-14" x="270.08" y="461.33" width="36.03" height="22.8" rx="11.4"/><rect class="cls-11" x="304.08" y="488.03" width="18.02" height="11.4" rx="5.7"/><rect class="cls-14" x="314.95" y="467.74" width="18.02" height="11.4" rx="5.7"/><rect class="cls-11" x="76.66" y="491.09" width="12.32" height="7.79" rx="3.9"/><path class="cls-6" d="M626.07,443.84l5.45-15.26A14.22,14.22,0,0,1,649.64,420l236.5,84.46a14.21,14.21,0,0,1,8.59,18.11l-5.45,15.26a14.22,14.22,0,0,1-18.12,8.59L634.66,462A14.22,14.22,0,0,1,626.07,443.84Z"/><path class="cls-8" d="M629.43,434.43l2.09-5.85A14.21,14.21,0,0,1,649.64,420l236.5,84.46a14,14,0,0,1,5.64,3.73L889.69,514a14.22,14.22,0,0,1-18.12,8.58l-236.5-84.46A14,14,0,0,1,629.43,434.43Z"/><path class="cls-9" d="M865.68,497.15h0l20.45,7.3a14.22,14.22,0,0,1,8.59,18.12l-5.45,15.26a14.21,14.21,0,0,1-18.1,8.59h0l-20.45-7.31A14.21,14.21,0,0,1,842.13,521l5.44-15.26A14.23,14.23,0,0,1,865.68,497.15Z"/><path class="cls-9" d="M861.53,481.17h3.16a2.74,2.74,0,0,1,2.72,2.72h0a2.73,2.73,0,0,1-2.72,2.72h-3.16a2.72,2.72,0,0,1-2.72-2.72h0A2.73,2.73,0,0,1,861.53,481.17Z"/><path class="cls-4" d="M364.62,461.85v-7.8a7.83,7.83,0,0,1,7.8-7.8h29.83a7.82,7.82,0,0,0,7.33-5.15v7.8a7.82,7.82,0,0,1-7.8,7.8H372A7.86,7.86,0,0,0,364.62,461.85Z"/><path class="cls-6" d="M358.77,463.12v16.46a10.85,10.85,0,0,0-3.48,12.53,12.28,12.28,0,0,0-6.39,10.75v56.51h0a8.55,8.55,0,0,0,8.49,7.73H374a8.55,8.55,0,0,0,8.49-7.73h0V502.86a12.3,12.3,0,0,0-7-11.05,10.86,10.86,0,0,0-2.9-11.66v-17a2.35,2.35,0,0,0,1.94-2.31v-.51a2.36,2.36,0,0,0-2.35-2.35H359.18a2.36,2.36,0,0,0-2.35,2.35v.51A2.35,2.35,0,0,0,358.77,463.12Z"/><path class="cls-4" d="M368.4,567.1h2.86a8.54,8.54,0,0,0,8.48-7.73h0V502.86a12.31,12.31,0,0,0-7-11.05,10.8,10.8,0,0,0-2.9-11.66v-17a2.35,2.35,0,0,0,1.94-2.31v-.51A2.36,2.36,0,0,0,369.5,458h-2.8A2.35,2.35,0,0,1,369,460.3v.51a2.35,2.35,0,0,1-1.94,2.31v17a10.77,10.77,0,0,1,3.54,8,11,11,0,0,1-.63,3.65,12.3,12.3,0,0,1,7,11.05v56.51h0A8.54,8.54,0,0,1,368.4,567.1Z"/><path class="cls-4" d="M390.59,454.2v-7.8a7.82,7.82,0,0,1,7.8-7.8h29.82a7.85,7.85,0,0,0,7.34-5.15v7.8a7.82,7.82,0,0,1-7.8,7.8H397.93A7.83,7.83,0,0,0,390.59,454.2Z"/><path class="cls-4" d="M415.81,451.39v5.28a5.29,5.29,0,0,0,5.28,5.27h20.18a5.3,5.3,0,0,1,5,3.49v-5.28a5.29,5.29,0,0,0-5.28-5.28H420.77A5.31,5.31,0,0,1,415.81,451.39Z"/><path class="cls-4" d="M438.72,451.54v-4a4,4,0,0,1,4-4h15.17a4,4,0,0,0,3.74-2.62v4a4,4,0,0,1-4,4H442.45A4,4,0,0,0,438.72,451.54Z"/><circle class="cls-10" cx="444.76" cy="434.03" r="3.03"/><path class="cls-4" d="M453.85,457.74a2.36,2.36,0,1,0-2.35-2.35A2.36,2.36,0,0,0,453.85,457.74Z"/><path class="cls-4" d="M471.06,434.29a2.36,2.36,0,1,0-2.35-2.36A2.36,2.36,0,0,0,471.06,434.29Z"/><path class="cls-6" d="M350.53,576.61c21.06,0,38.23-3.12,38.23-7s-17.17-6.95-38.23-6.95-38.23,3.13-38.23,6.95S329.48,576.61,350.53,576.61Z"/><rect class="cls-11" x="299.88" y="560.99" width="12.32" height="7.79" rx="3.9"/><rect class="cls-11" x="286.97" y="570.09" width="6.16" height="3.9" rx="1.95"/><path class="cls-6" d="M602.94,486.69h0a4.64,4.64,0,0,1,6.44-1L654,517.81a4.62,4.62,0,0,1,1,6.43h0a4.61,4.61,0,0,1-6.43,1L604,493.13A4.64,4.64,0,0,1,602.94,486.69Z"/><path class="cls-7" d="M477.85,484.43H606.4a4.74,4.74,0,0,1,4.72,4.72h0a4.74,4.74,0,0,1-4.72,4.72H477.85a4.73,4.73,0,0,1-4.72-4.72h0A4.73,4.73,0,0,1,477.85,484.43Z"/><path class="cls-2" d="M484.57,483.49h0a2,2,0,0,1,2.69.72l4.79,8.3a2,2,0,0,1-.72,2.68h0a2,2,0,0,1-2.69-.73l-4.79-8.29a2,2,0,0,1,.72-2.69Zm100.47,0h0a2,2,0,0,1,2.69.72l4.79,8.3a2,2,0,0,1-.73,2.68h0a2,2,0,0,1-2.68-.73l-4.79-8.29a2,2,0,0,1,.72-2.69Zm-11.16,0h0a2,2,0,0,1,2.68.72l4.79,8.3a2,2,0,0,1-.72,2.68h0a2,2,0,0,1-2.69-.73l-4.78-8.29a2,2,0,0,1,.72-2.69Zm-11.17,0h0a2,2,0,0,1,2.69.72l4.79,8.3a2,2,0,0,1-.72,2.68h0a2,2,0,0,1-2.69-.73L562,486.18a2,2,0,0,1,.72-2.69Zm-11.16,0h0a2,2,0,0,1,2.69.72l4.79,8.3a2,2,0,0,1-.72,2.68h0a2,2,0,0,1-2.69-.73l-4.79-8.29a2,2,0,0,1,.72-2.69Zm-11.16,0h0a2,2,0,0,1,2.68.72l4.79,8.3a2,2,0,0,1-.72,2.68h0a2,2,0,0,1-2.68-.73l-4.79-8.29a2,2,0,0,1,.72-2.69Zm-11.17,0h0a2,2,0,0,1,2.69.72l4.79,8.3a2,2,0,0,1-.72,2.68h0a2,2,0,0,1-2.69-.73l-4.79-8.29a2,2,0,0,1,.72-2.69Zm-11.16,0h0a2,2,0,0,1,2.69.72l4.79,8.3a2,2,0,0,1-.72,2.68h0a2,2,0,0,1-2.69-.73l-4.79-8.29a2,2,0,0,1,.72-2.69Zm-11.16,0h0a2,2,0,0,1,2.69.72l4.78,8.3a2,2,0,0,1-.72,2.68h0a2,2,0,0,1-2.68-.73l-4.79-8.29a2,2,0,0,1,.72-2.69Zm-11.17,0h0a2,2,0,0,1,2.69.72l4.79,8.3a2,2,0,0,1-.72,2.68h0a2,2,0,0,1-2.69-.73L495,486.18A2,2,0,0,1,495.73,483.49Z"/><path class="cls-6" d="M617.51,511.26h0a4.62,4.62,0,0,1,6.44-1l34.67,25H642.86L618.55,517.7A4.63,4.63,0,0,1,617.51,511.26Z"/><path class="cls-7" d="M493.71,508.09H622.26a4.74,4.74,0,0,1,4.72,4.73h0a4.73,4.73,0,0,1-4.72,4.72H493.71a4.73,4.73,0,0,1-4.72-4.72h0A4.74,4.74,0,0,1,493.71,508.09Z"/><path class="cls-2" d="M500.43,507.16h0a2,2,0,0,1,2.69.72l4.79,8.3a2,2,0,0,1-.72,2.68h0a2,2,0,0,1-2.69-.72l-4.79-8.29a2,2,0,0,1,.72-2.69Zm100.47,0h0a2,2,0,0,1,2.69.72l4.79,8.3a2,2,0,0,1-.72,2.68h0a2,2,0,0,1-2.69-.72l-4.79-8.29a2,2,0,0,1,.72-2.69Zm-11.16,0h0a2,2,0,0,1,2.68.72l4.79,8.3a2,2,0,0,1-.72,2.68h0a2,2,0,0,1-2.68-.72L589,509.85a2,2,0,0,1,.72-2.69Zm-11.16,0h0a2,2,0,0,1,2.68.72l4.79,8.3a2,2,0,0,1-.72,2.68h0a2,2,0,0,1-2.69-.72l-4.79-8.29a2,2,0,0,1,.73-2.69Zm-11.17,0h0a2,2,0,0,1,2.69.72l4.79,8.3a2,2,0,0,1-.72,2.68h0a2,2,0,0,1-2.69-.72l-4.79-8.29a2,2,0,0,1,.72-2.69Zm-11.16,0h0a2,2,0,0,1,2.69.72l4.78,8.3a2,2,0,0,1-.72,2.68h0a2,2,0,0,1-2.68-.72l-4.79-8.29a2,2,0,0,1,.72-2.69Zm-11.16,0h0a2,2,0,0,1,2.68.72l4.79,8.3a2,2,0,0,1-.72,2.68h0a2,2,0,0,1-2.69-.72l-4.79-8.29a2,2,0,0,1,.73-2.69Zm-11.17,0h0a2,2,0,0,1,2.69.72l4.79,8.3a2,2,0,0,1-.72,2.68h0a2,2,0,0,1-2.69-.72l-4.79-8.29a2,2,0,0,1,.72-2.69Zm-11.16,0h0a2,2,0,0,1,2.69.72l4.78,8.3a2,2,0,0,1-.72,2.68h0a2,2,0,0,1-2.68-.72L522,509.85a2,2,0,0,1,.72-2.69Zm-11.16,0h0a2,2,0,0,1,2.68.72l4.79,8.3a2,2,0,0,1-.72,2.68h0a2,2,0,0,1-2.69-.72l-4.79-8.29A2,2,0,0,1,511.6,507.16Z"/><path class="cls-2" d="M498.1,439.73l39.06-11.49a3.54,3.54,0,0,1,4.39,2.4l3.9,13.26a3.55,3.55,0,0,1-2.39,4.39L504,459.78a3.55,3.55,0,0,1-4.4-2.4l-3.9-13.25A3.56,3.56,0,0,1,498.1,439.73Z"/><path class="cls-2" d="M519.9,433.32,559,421.83a3.55,3.55,0,0,1,4.4,2.4l3.9,13.26a3.54,3.54,0,0,1-2.4,4.39L525.8,453.37a3.55,3.55,0,0,1-4.4-2.4l-3.9-13.25A3.55,3.55,0,0,1,519.9,433.32Z"/><path class="cls-2" d="M527.19,435.32h0a2.13,2.13,0,0,1,2.62,1.44l2.47,8.39a2.13,2.13,0,0,1-1.43,2.63h0a2.12,2.12,0,0,1-2.63-1.44L525.75,438a2.13,2.13,0,0,1,1.44-2.63Zm26.72-7.86h0a2.13,2.13,0,0,1,2.63,1.44l2.47,8.39a2.13,2.13,0,0,1-1.43,2.63h0a2.12,2.12,0,0,1-2.63-1.44l-2.47-8.39a2.13,2.13,0,0,1,1.43-2.63ZM545,430.08h0a2.13,2.13,0,0,1,2.63,1.44l2.47,8.39a2.13,2.13,0,0,1-1.43,2.63h0a2.13,2.13,0,0,1-2.63-1.43l-2.47-8.4a2.13,2.13,0,0,1,1.43-2.63Zm-8.9,2.62h0a2.13,2.13,0,0,1,2.62,1.43l2.47,8.4a2.13,2.13,0,0,1-1.43,2.63h0a2.13,2.13,0,0,1-2.63-1.44l-2.47-8.39A2.13,2.13,0,0,1,536.1,432.7Z"/><polygon class="cls-1" points="386.96 358.57 399.46 369.4 411.96 380.22 399.46 380.22 386.96 380.22 386.96 369.4 386.96 358.57"/><polygon class="cls-7" points="560.91 341.45 583.29 360.84 605.68 380.22 583.29 380.22 560.91 380.22 560.91 360.84 560.91 341.45"/><polygon class="cls-4" points="570.13 361.85 580.74 371.03 591.35 380.22 580.74 380.22 570.13 380.22 570.13 371.03 570.13 361.85"/><polygon class="cls-1" points="576.02 374.1 579.56 377.16 583.1 380.22 579.56 380.22 576.02 380.22 576.02 377.16 576.02 374.1"/><path class="cls-7" d="M391,454.2v-3.9a3.91,3.91,0,0,1,3.9-3.9h14.91a3.93,3.93,0,0,0,3.67-2.58v3.91a3.92,3.92,0,0,1-3.91,3.9H394.67A3.89,3.89,0,0,0,391,454.2Z"/><path class="cls-4" d="M487.05,425.52a1.89,1.89,0,1,0-1.88-1.88A1.89,1.89,0,0,0,487.05,425.52Z"/><path class="cls-2" d="M306.39,238.39h0a4,4,0,0,1,2.89,1.29,4,4,0,0,1,2.89-1.29h0a1,1,0,0,1,0,2.05,1.89,1.89,0,0,0-1.9,1.89,1,1,0,1,1-2,0,1.89,1.89,0,0,0-1.89-1.89,1,1,0,0,1,0-2.05Z"/><path class="cls-2" d="M334,223.56l.05,0a7.92,7.92,0,0,1,4.17,4.78,7.87,7.87,0,0,1,6.34.08l0,0a2,2,0,0,1-1.72,3.72,3.79,3.79,0,0,0-5,1.85,2,2,0,0,1-3.72-1.72,3.79,3.79,0,0,0-1.85-5,2,2,0,0,1,1.72-3.72Z"/><path class="cls-2" d="M309.67,224.26h0a4,4,0,0,1,2.89,1.29,4,4,0,0,1,2.89-1.29h0a1,1,0,0,1,0,2.05,1.89,1.89,0,0,0-1.89,1.89,1,1,0,0,1-2,0,1.89,1.89,0,0,0-1.9-1.89,1,1,0,0,1,0-2.05Z"/><path class="cls-2" d="M348.41,247.87h0a3.91,3.91,0,0,1,2.89,1.29,3.91,3.91,0,0,1,2.89-1.29h0a1,1,0,0,1,0,2,1.9,1.9,0,0,0-1.89,1.9,1,1,0,0,1-2,0,1.9,1.9,0,0,0-1.89-1.9,1,1,0,0,1,0-2Z"/><path class="cls-2" d="M297.3,249.22h.06a8.59,8.59,0,0,1,6.31,2.81,8.56,8.56,0,0,1,6.31-2.81h0a2.23,2.23,0,0,1,0,4.46,4.13,4.13,0,0,0-4.13,4.14,2.24,2.24,0,0,1-4.47,0,4.13,4.13,0,0,0-4.13-4.14,2.23,2.23,0,0,1,0-4.46Z"/><path class="cls-2" d="M284.49,238.93l.05,0a8.59,8.59,0,0,1,6.89-.51,8.56,8.56,0,0,1,4.22-5.48l.05,0a2.23,2.23,0,0,1,2.12,3.93,4.14,4.14,0,0,0-1.68,5.6,2.24,2.24,0,0,1-3.93,2.13,4.14,4.14,0,0,0-5.6-1.68,2.23,2.23,0,0,1-2.12-3.93Z"/><path class="cls-2" d="M327.5,252.65l.05,0a8.53,8.53,0,0,1,4.39,5.33,8.56,8.56,0,0,1,6.91.28l0,0a2.23,2.23,0,0,1-2,4,4.13,4.13,0,0,0-5.54,1.86,2.23,2.23,0,0,1-4-2,4.13,4.13,0,0,0-1.86-5.54,2.23,2.23,0,0,1,2-4Z"/><path class="cls-2" d="M225.42,223.89l.06,0a8.6,8.6,0,0,1,4.4,5.33,8.56,8.56,0,0,1,6.91.27l.05,0a2.24,2.24,0,0,1-2,4,4.12,4.12,0,0,0-5.54,1.87,2.23,2.23,0,0,1-4-2,4.14,4.14,0,0,0-1.88-5.54,2.23,2.23,0,0,1,2-4Z"/><path class="cls-2" d="M238.2,249.75l.05,0a7.45,7.45,0,0,1,6,.27,7.48,7.48,0,0,1,4.21-4.28l.05,0a1.94,1.94,0,0,1,1.42,3.61,3.59,3.59,0,0,0-2,4.66,1.94,1.94,0,0,1-3.61,1.42,3.59,3.59,0,0,0-4.66-2,1.94,1.94,0,0,1-1.42-3.61Z"/><path class="cls-2" d="M842.64,245.09h.06a8.59,8.59,0,0,1,6.31,2.82,8.57,8.57,0,0,1,6.31-2.82h0a2.24,2.24,0,0,1,0,4.47,4.13,4.13,0,0,0-4.13,4.13,2.24,2.24,0,1,1-4.47,0,4.13,4.13,0,0,0-4.13-4.13,2.24,2.24,0,0,1,0-4.47Z"/><path class="cls-2" d="M865.05,234.9h.05a8.59,8.59,0,0,1,6.31,2.82,8.59,8.59,0,0,1,6.31-2.82h.06a2.24,2.24,0,0,1,0,4.47,4.13,4.13,0,0,0-4.13,4.13,2.24,2.24,0,1,1-4.47,0,4.13,4.13,0,0,0-4.13-4.13,2.24,2.24,0,0,1,0-4.47Z"/><path class="cls-2" d="M856.06,215.5h0a5,5,0,0,1,4.06.16,5,5,0,0,1,2.82-2.92h0a1.31,1.31,0,0,1,1,2.43,2.43,2.43,0,0,0-1.35,3.16,1.31,1.31,0,0,1-2.44,1,2.42,2.42,0,0,0-3.16-1.35,1.31,1.31,0,0,1-1-2.44Z"/><path class="cls-2" d="M892.75,277.75h0a5,5,0,0,0,7.41,0h0a1.31,1.31,0,0,1,0,2.62,2.43,2.43,0,0,0-2.43,2.43,1.32,1.32,0,0,1-2.63,0,2.43,2.43,0,0,0-2.43-2.43,1.31,1.31,0,0,1,0-2.62Z"/><path class="cls-2" d="M496.28,100.87a8.12,8.12,0,1,1-8.12,8.12h-.37a5.9,5.9,0,1,1,5.65-7.61,8.08,8.08,0,0,1,2.84-.51ZM460.5,76a1.66,1.66,0,1,1-1.66,1.65A1.65,1.65,0,0,1,460.5,76Zm14.75,13.64a2.77,2.77,0,1,1-2.77,2.77A2.77,2.77,0,0,1,475.25,89.62Z"/><path class="cls-2" d="M466.39,140.55a2.1,2.1,0,1,0-2.1-2.1A2.11,2.11,0,0,0,466.39,140.55Z"/><polygon class="cls-1" points="965.49 319.2 918.34 263.63 955.99 280.45 891.29 211.72 927.48 258.88 888 243.16 965.49 319.2"/><path class="cls-1" d="M137.4,57.88c-2.46,3.22-7.67,3.22-11.64,0s-5.2-8.43-2.73-11.64,7.67-3.21,11.64,0S139.86,54.67,137.4,57.88Z"/><path class="cls-1" d="M151.47,69.28c-1.2,1.56-3.73,1.56-5.66,0s-2.52-4.1-1.33-5.66,3.73-1.56,5.66,0S152.67,67.72,151.47,69.28Z"/><path class="cls-1" d="M911,290.9c-2.08,2.71-6.48,2.71-9.83,0s-4.38-7.11-2.3-9.83,6.47-2.71,9.82,0S913.1,288.18,911,290.9Z"/><path class="cls-1" d="M922.89,300.52c-1,1.32-3.14,1.32-4.77,0s-2.13-3.46-1.12-4.78,3.15-1.32,4.77,0S923.9,299.2,922.89,300.52Z"/><path class="cls-7" d="M146.35,112.8l-10.21,5.42L132.77,120l2.11,2.12,4.23,4.22-30.2,32.71c-.61.72-1.26,1.42-1.93,2.09h0a33.46,33.46,0,1,1,7.93-34.89l5.55-3,3.37-1.78-2.11-2.12-4.22-4.22L131.92,114Z"/><path class="cls-1" d="M78.48,117.11a16,16,0,0,1,20.39,16.07A6.69,6.69,0,0,1,105.7,138h0a6.7,6.7,0,0,1-3.85,8v0a3.6,3.6,0,0,0-2.51,3.91h0l.07.26a2.79,2.79,0,0,1-1.91,3.45h0a2.8,2.8,0,0,1-3.45-1.92l-.55-1.94a2.82,2.82,0,0,1-.05-1.35l-2.8.79a2.82,2.82,0,0,1,.68,1.19l.56,1.93A2.8,2.8,0,0,1,90,155.79h0a2.8,2.8,0,0,1-3.45-1.92L86,151.94a2.74,2.74,0,0,1,0-1.36l-2.8.8a2.8,2.8,0,0,1,.68,1.17l.55,1.94a2.78,2.78,0,0,1-1.91,3.45h0A2.8,2.8,0,0,1,79,156l-.08-.27a3.6,3.6,0,0,0-4.08-2h-.11a6.69,6.69,0,0,1-8.24-4.58h0a6.69,6.69,0,0,1,3.18-7.66,16,16,0,0,1,8.8-24.43ZM76.73,141a4.4,4.4,0,0,0-3.21,5.27h0A4.38,4.38,0,0,0,79,149l1.12-.32a4.38,4.38,0,0,0,3.22-5.27h0a4.39,4.39,0,0,0-5.52-2.77l-1.12.32Zm14.8-4.23A4.37,4.37,0,0,0,88.32,142h0a4.38,4.38,0,0,0,5.51,2.77l1.12-.32a4.39,4.39,0,0,0,3.22-5.27h0a4.4,4.4,0,0,0-5.52-2.78Z"/><path class="cls-6" d="M78.4,435.61h-.11a1.67,1.67,0,0,0-1.8,1.72l0,1.79a.25.25,0,0,1-.34.24.64.64,0,0,1-.42-.45l-2.92-11.1c-.06-.21,0-.37.2-.38a.58.58,0,0,1,.49.34l1,1.91a4.55,4.55,0,0,0,2.85,2.27l.14,0a52,52,0,0,1-1.29-12.18A40.25,40.25,0,0,1,78.12,408l-.07,0a2.54,2.54,0,0,0-2.94.31L74,409.43a.39.39,0,0,1-.5,0,.47.47,0,0,1-.18-.51L76.94,400a.33.33,0,0,1,.45-.16.51.51,0,0,1,.31.46l-.09,1.77A3.48,3.48,0,0,0,79.25,405h0A33.77,33.77,0,0,1,95,388.28a4.23,4.23,0,0,0-2.91-.82l-1.9.28a.55.55,0,0,1-.53-.23.29.29,0,0,1,.12-.43l9.18-4.3a.55.55,0,0,1,.57.11.31.31,0,0,1,0,.46l-1.16,1.15a2,2,0,0,0-.28,2.32c8.24-3.45,17.88-4.43,28-3.24a4.71,4.71,0,0,0-2.7-2.17l-2.17-.71c-.24-.08-.41-.25-.42-.41s.15-.26.38-.23l12.3,1.45a.7.7,0,0,1,.53.34c.08.17,0,.31-.22.33l-1.93.23c-1.06.13-1.85.9-1.67,1.77a88,88,0,0,1,14.11,3.69,103.88,103.88,0,0,1,14.86,6.57l0,0c.29-.71-.44-2-1.5-2.9L155.91,390c-.2-.16-.28-.36-.19-.48s.31-.1.54,0l12.11,6.81c.23.13.38.33.36.48s-.2.2-.44.12l-2.17-.76c-1.23-.43-2.57-.26-2.86.46l0,.05a111,111,0,0,1,25.81,21.14c.68-.39.69-1.59.11-2.64l-1.06-1.91c-.11-.2-.08-.37.08-.41a.67.67,0,0,1,.56.28l8.68,10.34c.17.19.2.4.09.5s-.34,0-.53-.13l-1.84-1.54a4.05,4.05,0,0,0-3.17-1.09A84.94,84.94,0,0,1,206.86,447a1.77,1.77,0,0,0,.95-1.58l0-1.79a.25.25,0,0,1,.34-.24.64.64,0,0,1,.42.45l2.93,11.11c.05.2,0,.36-.21.37a.58.58,0,0,1-.49-.33l-1-1.92a5,5,0,0,0-1.63-1.75,53.18,53.18,0,0,1,2,15,40.61,40.61,0,0,1-1.48,10.35l.12.07a2.56,2.56,0,0,0,2.94-.31l1.11-1.2a.37.37,0,0,1,.5,0,.45.45,0,0,1,.18.51l-3.62,8.89a.32.32,0,0,1-.44.16.49.49,0,0,1-.32-.46l.09-1.77a3.49,3.49,0,0,0-1.57-2.85,33.75,33.75,0,0,1-16.56,18.21,4.06,4.06,0,0,0,3.28,1.18l1.9-.28a.55.55,0,0,1,.53.23.28.28,0,0,1-.12.43l-9.19,4.29a.51.51,0,0,1-.56-.1.31.31,0,0,1-.05-.46l1.16-1.15a2.08,2.08,0,0,0,0-2.73h0c-8.13,3.38-17.6,4.35-27.55,3.23a4.55,4.55,0,0,0,2.74,2.29l2.17.71c.23.08.41.25.42.41s-.15.26-.39.23l-12.29-1.45a.7.7,0,0,1-.53-.34c-.08-.17,0-.31.22-.33l1.92-.23c1.09-.13,1.9-.95,1.66-1.84v0A89.84,89.84,0,0,1,142,498.18,104.37,104.37,0,0,1,125,490.46a3.61,3.61,0,0,0,1.54,2.75l1.87,1.51c.2.16.28.36.19.48s-.32.1-.55,0L116,488.36a.64.64,0,0,1-.36-.48c0-.15.21-.2.44-.12l2.17.76c1.21.42,2.52.26,2.84-.42a110.3,110.3,0,0,1-25.44-21.82c-.67.39-.69,1.6-.11,2.64l1.06,1.91c.11.2.08.37-.08.41a.67.67,0,0,1-.56-.27l-8.68-10.35c-.16-.19-.2-.4-.09-.5s.34,0,.53.13l1.84,1.54c1,.87,2.54,1.39,3.28,1.06A81.07,81.07,0,0,1,78.4,435.61Zm43.47,50.51c.15-.74-.55-2-1.54-2.76l-1.87-1.52c-.19-.16-.27-.36-.19-.47s.32-.1.55,0l12.11,6.8c.22.13.38.33.36.49s-.21.2-.44.12l-2.17-.76c-1.22-.43-2.55-.26-2.85.44a99.57,99.57,0,0,0,16.55,7.58,84,84,0,0,0,13.45,3.52,4.66,4.66,0,0,0-2.72-2.24l-2.18-.71a.56.56,0,0,1-.41-.41c0-.16.15-.26.38-.23l12.29,1.45a.7.7,0,0,1,.54.34c.08.17,0,.31-.22.33l-1.93.23c-1.09.13-1.89.94-1.66,1.84,9.54,1.1,18.62.2,26.4-3A4.06,4.06,0,0,0,183,496l-1.9.28a.54.54,0,0,1-.52-.23.28.28,0,0,1,.12-.43l9.18-4.3a.55.55,0,0,1,.57.11.31.31,0,0,1,0,.46l-1.16,1.15a2.08,2.08,0,0,0,0,2.72,32.08,32.08,0,0,0,15.79-17.53,2.56,2.56,0,0,0-2.92.32l-1.11,1.2a.37.37,0,0,1-.5,0,.44.44,0,0,1-.17-.51l3.61-8.89a.34.34,0,0,1,.45-.16.49.49,0,0,1,.31.46l-.09,1.77a3.52,3.52,0,0,0,1.41,2.75,39.1,39.1,0,0,0,1.32-9.55,51.43,51.43,0,0,0-2.08-15h0l-.87-.1a1.66,1.66,0,0,0-1.8,1.72l0,1.79a.25.25,0,0,1-.34.24.67.67,0,0,1-.43-.45L199,442.68c-.05-.2,0-.36.21-.37a.6.6,0,0,1,.49.33l1,1.92a4.55,4.55,0,0,0,2.85,2.27l.69.08a82.28,82.28,0,0,0-14.33-24.7c-.64.41-.64,1.59-.07,2.61l1.06,1.91c.11.2.07.38-.09.41a.64.64,0,0,1-.55-.27l-8.68-10.35c-.17-.19-.2-.4-.09-.49s.33,0,.53.12l1.84,1.54A4.17,4.17,0,0,0,187,418.8a107.17,107.17,0,0,0-24.48-20.11,3.68,3.68,0,0,0,1.55,2.66l1.87,1.52c.2.16.28.36.19.47s-.32.1-.54,0l-12.11-6.8c-.23-.13-.38-.34-.36-.49s.2-.2.43-.12l2.18.76c1.11.39,2.32.29,2.75-.27A99.15,99.15,0,0,0,144,390a84.1,84.1,0,0,0-13.1-3.47,4.54,4.54,0,0,0,2.76,2.34l2.18.71a.55.55,0,0,1,.41.41c0,.16-.15.26-.38.23l-12.3-1.45a.7.7,0,0,1-.53-.34c-.08-.17,0-.31.22-.34l1.93-.22c1.09-.13,1.89-.95,1.65-1.84l0-.11c-9.75-1.18-19-.27-26.93,3l.31.38a4.06,4.06,0,0,0,3.3,1.18l1.9-.28a.53.53,0,0,1,.52.24.28.28,0,0,1-.12.43l-9.18,4.29a.55.55,0,0,1-.57-.1.31.31,0,0,1-.05-.46l1.16-1.15a2.08,2.08,0,0,0,0-2.73l-.31-.38a32.2,32.2,0,0,0-15.08,16.05,2.55,2.55,0,0,0,2.87-.36l1.11-1.19a.37.37,0,0,1,.5,0,.45.45,0,0,1,.18.5l-3.62,8.9a.32.32,0,0,1-.44.15.48.48,0,0,1-.32-.46l.09-1.77a3.5,3.5,0,0,0-1.48-2.78,38.75,38.75,0,0,0-1.76,11,49.89,49.89,0,0,0,1.27,11.81,1.7,1.7,0,0,0,1.45-1.72l0-1.79a.24.24,0,0,1,.33-.24.67.67,0,0,1,.43.45L85.33,440c.06.21,0,.36-.2.37a.58.58,0,0,1-.49-.33l-1-1.92a4.87,4.87,0,0,0-2.5-2.19,78.77,78.77,0,0,0,13.76,25.88c.55-.46.52-1.58,0-2.55l-1.06-1.91c-.11-.2-.08-.38.09-.41a.66.66,0,0,1,.56.27l8.67,10.35c.17.19.2.4.09.49s-.33.05-.53-.12l-1.84-1.54a4.18,4.18,0,0,0-3.12-1.11A106.44,106.44,0,0,0,121.87,486.12Z"/><path class="cls-6" d="M110.54,392.86l-.12-.06a2.1,2.1,0,0,0-2.77,1.34l-.69,2a.3.3,0,0,1-.49.15.76.76,0,0,1-.34-.66L106.7,382c0-.26.18-.41.39-.36a.71.71,0,0,1,.46.56l.49,2.54a5.47,5.47,0,0,0,2.56,3.59l.16.07A60,60,0,0,1,113.67,374a47.48,47.48,0,0,1,6.61-12.83l-.07-.07a3.25,3.25,0,0,0-3.6-.67l-1.76,1a.47.47,0,0,1-.6-.17.53.53,0,0,1,0-.64l7.54-8.9a.4.4,0,0,1,.58,0,.57.57,0,0,1,.21.63l-.76,2a4.09,4.09,0,0,0,.9,3.88h0a42.36,42.36,0,0,1,24.85-13.57,5.21,5.21,0,0,0-3.17-2l-2.36-.35a.68.68,0,0,1-.54-.45.34.34,0,0,1,.29-.45l12.49-1.7a.69.69,0,0,1,.63.32.37.37,0,0,1-.1.55l-1.81.91A2.42,2.42,0,0,0,151.8,344c11.06-1.06,22.87,1.2,34.47,6.11a5.67,5.67,0,0,0-2.41-3.43l-2.33-1.58a.63.63,0,0,1-.34-.61c.05-.19.27-.24.54-.13l14.08,6a.84.84,0,0,1,.51.57c0,.22-.13.35-.38.3l-2.38-.41c-1.31-.23-2.53.38-2.63,1.44a111.55,111.55,0,0,1,15.43,9.16,127.66,127.66,0,0,1,15.26,12.72l0,0c.61-.72.23-2.5-.72-3.84l-1.66-2.39c-.18-.25-.2-.51-.06-.6s.42,0,.64.22l11.91,12c.22.23.33.51.25.68s-.31.16-.56,0l-2.31-1.63c-1.3-.92-3-1.19-3.56-.48l-.05.06a132.1,132.1,0,0,1,23,33.2c.95-.2,1.41-1.57,1.1-3l-.56-2.55c-.06-.28,0-.46.25-.45a.86.86,0,0,1,.56.51l6.54,14.87c.13.28.1.53-.07.6s-.42-.07-.59-.33l-1.62-2.41c-.87-1.29-2.36-2.37-3.37-2.36a98.37,98.37,0,0,1,8.32,34.65,2.18,2.18,0,0,0,1.7-1.48l.69-2a.31.31,0,0,1,.49-.16.79.79,0,0,1,.34.67l-.57,13.72c0,.26-.17.41-.38.36a.69.69,0,0,1-.46-.56l-.5-2.54a6,6,0,0,0-1.29-2.58,61.83,61.83,0,0,1-3.1,17.83,48.34,48.34,0,0,1-5.54,11.31l.12.13a3.29,3.29,0,0,0,3.61.67l1.76-1a.48.48,0,0,1,.59.17.5.5,0,0,1,0,.64L249,494.92a.43.43,0,0,1-.59,0,.57.57,0,0,1-.2-.63l.75-2a4.07,4.07,0,0,0-.83-3.81c-6.3,7.78-15.18,13.1-26.32,15a5,5,0,0,0,3.48,2.5l2.36.35a.68.68,0,0,1,.54.45.34.34,0,0,1-.3.45L215.42,509a.67.67,0,0,1-.63-.32.36.36,0,0,1,.1-.54l1.81-.91a2.42,2.42,0,0,0,1-3.11h0c-10.89,1-22.5-1.19-33.92-6a5.47,5.47,0,0,0,2.43,3.57l2.32,1.58a.67.67,0,0,1,.35.61c0,.19-.28.24-.54.13l-14.09-6a.86.86,0,0,1-.51-.58c0-.22.13-.35.38-.3l2.38.41c1.34.24,2.59-.41,2.64-1.52v0a111.07,111.07,0,0,1-15.84-9.36A127.8,127.8,0,0,1,146,471.9c-.45.8-.05,2.43.82,3.68l1.67,2.39c.18.25.2.51.06.61s-.42,0-.64-.22l-11.91-12a.68.68,0,0,1-.25-.68c.08-.16.31-.16.56,0l2.3,1.62c1.28.91,2.9,1.19,3.53.53A131.43,131.43,0,0,1,119.85,434c-.95.21-1.41,1.58-1.1,3l.57,2.55c.05.27,0,.46-.25.44a.83.83,0,0,1-.57-.51L112,424.55c-.13-.28-.09-.53.07-.59s.42.07.59.32l1.62,2.41c.91,1.35,2.51,2.47,3.52,2.35-5.1-12.75-7.42-25.07-7.22-36.18Zm33.26,73c.45-.79.06-2.43-.82-3.69l-1.67-2.38c-.18-.26-.2-.52-.05-.61s.41,0,.63.22l11.91,12a.68.68,0,0,1,.25.68c-.07.17-.31.16-.56,0l-2.3-1.63c-1.29-.92-2.94-1.2-3.55-.5a123.67,123.67,0,0,0,16.91,14.47,106.67,106.67,0,0,0,14.7,8.74,5.52,5.52,0,0,0-2.42-3.52L174.51,488a.66.66,0,0,1-.35-.61c.05-.19.28-.24.54-.13l14.08,6a.85.85,0,0,1,.51.58c0,.22-.13.35-.38.3l-2.37-.41c-1.35-.24-2.6.41-2.64,1.52,10.93,4.6,22,6.75,32.46,5.8a5,5,0,0,0-3.47-2.48l-2.35-.34a.69.69,0,0,1-.55-.46.34.34,0,0,1,.3-.44l12.48-1.7a.69.69,0,0,1,.64.32.36.36,0,0,1-.11.54l-1.8.91a2.44,2.44,0,0,0-1,3.11A40.24,40.24,0,0,0,245.64,486a3.25,3.25,0,0,0-3.58-.65l-1.76,1a.48.48,0,0,1-.6-.18.51.51,0,0,1,0-.63l7.54-8.91a.42.42,0,0,1,.58,0,.57.57,0,0,1,.21.63l-.76,2a4.09,4.09,0,0,0,.68,3.62,46.16,46.16,0,0,0,5-10.45,59.56,59.56,0,0,0,3-17.92h0l-1-.42a2.1,2.1,0,0,0-2.77,1.34l-.69,2a.3.3,0,0,1-.48.15.76.76,0,0,1-.34-.66l.57-13.72c0-.26.17-.41.38-.36a.71.71,0,0,1,.46.55l.5,2.54a5.4,5.4,0,0,0,2.56,3.6l.78.33a95,95,0,0,0-8-33.26c-.9.25-1.34,1.6-1,3l.56,2.55c.06.27-.05.45-.25.44a.81.81,0,0,1-.56-.51l-6.55-14.87c-.12-.28-.09-.53.08-.6s.41.07.58.33l1.62,2.41a5.22,5.22,0,0,0,3.31,2.36,127.76,127.76,0,0,0-21.77-31.57c-.36.83,0,2.38.88,3.59l1.67,2.38c.18.26.2.51.05.61s-.41,0-.63-.22l-11.91-12a.71.71,0,0,1-.26-.68c.08-.17.32-.16.57,0l2.3,1.63c1.18.84,2.66,1.14,3.37.66a121.65,121.65,0,0,0-14.83-12.38,106.83,106.83,0,0,0-14.29-8.55c0,1.11,1.12,2.75,2.42,3.64l2.33,1.57a.67.67,0,0,1,.34.62c-.05.18-.27.24-.54.12l-14.08-6a.82.82,0,0,1-.51-.57c0-.23.13-.35.38-.31l2.37.42c1.34.23,2.6-.42,2.64-1.53V353c-11.15-4.76-22.5-7-33.11-6l.24.54a5,5,0,0,0,3.48,2.51l2.36.34a.66.66,0,0,1,.54.46.33.33,0,0,1-.29.44L146.9,353a.69.69,0,0,1-.63-.32.36.36,0,0,1,.1-.54l1.81-.91a2.45,2.45,0,0,0,1-3.12l-.24-.54a40.31,40.31,0,0,0-23.76,13.07,3.27,3.27,0,0,0,3.53.6l1.76-1a.46.46,0,0,1,.59.17.51.51,0,0,1,0,.64l-7.54,8.9a.42.42,0,0,1-.59,0,.58.58,0,0,1-.2-.64l.75-2a4.06,4.06,0,0,0-.74-3.7,45.31,45.31,0,0,0-6.11,12,57.82,57.82,0,0,0-2.8,13.94,2.12,2.12,0,0,0,2.35-1.46l.69-2a.31.31,0,0,1,.49-.15.78.78,0,0,1,.34.66l-.58,13.72c0,.26-.17.41-.38.36a.69.69,0,0,1-.45-.55l-.51-2.54a5.83,5.83,0,0,0-2.16-3.39c-.13,10.58,2.1,22.28,6.91,34.4.83-.33,1.21-1.61.92-2.91l-.57-2.55c-.06-.28,0-.46.25-.45a.79.79,0,0,1,.56.52l6.55,14.86c.12.28.09.53-.07.6s-.42-.07-.59-.33L126,436a5.24,5.24,0,0,0-3.32-2.36A127.11,127.11,0,0,0,143.8,465.82Z"/><path class="cls-4" d="M194.4,465.41,84.75,363.05a5.52,5.52,0,0,1-.27-7.79h0a5.52,5.52,0,0,1,7.79-.27L201.92,457.36a5.51,5.51,0,0,1,.27,7.78h0A5.52,5.52,0,0,1,194.4,465.41Z"/><path class="cls-4" d="M187.93,460.85h0a2.3,2.3,0,0,1-1.73-2.75l2.53-10.89a2.3,2.3,0,0,1,2.75-1.72h0a2.31,2.31,0,0,1,1.72,2.76l-2.52,10.88a2.3,2.3,0,0,1-2.75,1.72Zm-85.71-80h0a2.3,2.3,0,0,1-1.71-2.76L103,367.21a2.29,2.29,0,0,1,2.75-1.72h0a2.3,2.3,0,0,1,1.72,2.75L105,379.13a2.31,2.31,0,0,1-2.76,1.72Zm9.53,8.89h0A2.31,2.31,0,0,1,110,387l2.52-10.88a2.29,2.29,0,0,1,2.75-1.72h0a2.29,2.29,0,0,1,1.72,2.75L114.5,388a2.3,2.3,0,0,1-2.75,1.72Zm9.52,8.89h0a2.31,2.31,0,0,1-1.72-2.76L122.07,385a2.29,2.29,0,0,1,2.75-1.72h0a2.28,2.28,0,0,1,1.72,2.75L124,396.91a2.3,2.3,0,0,1-2.75,1.72Zm9.52,8.89h0a2.32,2.32,0,0,1-1.72-2.76l2.52-10.89a2.3,2.3,0,0,1,2.76-1.71h0a2.3,2.3,0,0,1,1.72,2.75l-2.52,10.89a2.32,2.32,0,0,1-2.76,1.72Zm9.52,8.89h0a2.32,2.32,0,0,1-1.72-2.76l2.52-10.89a2.3,2.3,0,0,1,2.76-1.71h0a2.3,2.3,0,0,1,1.72,2.75l-2.52,10.89a2.32,2.32,0,0,1-2.76,1.72Zm9.53,8.88h0a2.28,2.28,0,0,1-1.72-2.75l2.52-10.89a2.3,2.3,0,0,1,2.75-1.72h0a2.31,2.31,0,0,1,1.72,2.76l-2.52,10.88a2.28,2.28,0,0,1-2.75,1.72Zm9.52,8.89h0a2.3,2.3,0,0,1-1.72-2.75l2.52-10.89a2.3,2.3,0,0,1,2.75-1.72h0a2.31,2.31,0,0,1,1.72,2.76l-2.52,10.88a2.29,2.29,0,0,1-2.75,1.72Zm9.52,8.89h0a2.3,2.3,0,0,1-1.72-2.75l2.52-10.89a2.3,2.3,0,0,1,2.75-1.72h0a2.3,2.3,0,0,1,1.71,2.76l-2.52,10.88a2.29,2.29,0,0,1-2.75,1.72ZM178.4,452h0a2.3,2.3,0,0,1-1.72-2.75l2.52-10.89A2.32,2.32,0,0,1,182,436.6h0a2.32,2.32,0,0,1,1.72,2.76l-2.52,10.88A2.31,2.31,0,0,1,178.4,452Z"/><path class="cls-8" d="M194,463.72,86.27,359.32a5.52,5.52,0,0,1-.12-7.79h0a5.53,5.53,0,0,1,7.79-.12L201.66,455.8a5.52,5.52,0,0,1,.12,7.79h0A5.53,5.53,0,0,1,194,463.72Z"/><path class="cls-7" d="M194,463.72,86.27,359.32a5.52,5.52,0,0,1-1.66-4.26,5.52,5.52,0,0,1,5.89,1.15l107.72,104.4a5.51,5.51,0,0,1,1.66,4.26A5.54,5.54,0,0,1,194,463.72Z"/><path class="cls-8" d="M187.6,459h0a2.31,2.31,0,0,1-1.67-2.79l2.72-10.84a2.31,2.31,0,0,1,2.79-1.66h0a2.31,2.31,0,0,1,1.67,2.78l-2.73,10.84A2.31,2.31,0,0,1,187.6,459Zm-84.19-81.6h0a2.3,2.3,0,0,1-1.67-2.78l2.73-10.84a2.29,2.29,0,0,1,2.78-1.67h0a2.3,2.3,0,0,1,1.67,2.79l-2.72,10.83a2.3,2.3,0,0,1-2.79,1.67Zm9.35,9.07h0a2.3,2.3,0,0,1-1.66-2.79l2.72-10.84a2.3,2.3,0,0,1,2.79-1.66h0a2.29,2.29,0,0,1,1.66,2.78l-2.72,10.84a2.31,2.31,0,0,1-2.79,1.67Zm9.36,9.06h0a2.29,2.29,0,0,1-1.67-2.78L123.17,382a2.31,2.31,0,0,1,2.79-1.67h0a2.31,2.31,0,0,1,1.67,2.79l-2.72,10.84a2.31,2.31,0,0,1-2.79,1.66Zm9.35,9.07h0a2.32,2.32,0,0,1-1.67-2.79L132.53,391a2.3,2.3,0,0,1,2.78-1.67h0a2.3,2.3,0,0,1,1.66,2.79L134.26,403a2.3,2.3,0,0,1-2.79,1.67Zm9.36,9.07h0a2.31,2.31,0,0,1-1.67-2.79l2.72-10.84a2.3,2.3,0,0,1,2.79-1.66h0a2.31,2.31,0,0,1,1.67,2.78L143.61,412a2.31,2.31,0,0,1-2.78,1.67Zm9.35,9.06h0a2.31,2.31,0,0,1-1.67-2.78l2.73-10.84a2.29,2.29,0,0,1,2.78-1.67h0a2.3,2.3,0,0,1,1.67,2.79L153,421.1a2.3,2.3,0,0,1-2.79,1.67Zm9.36,9.07h0a2.3,2.3,0,0,1-1.67-2.79l2.72-10.84a2.3,2.3,0,0,1,2.79-1.66h0a2.29,2.29,0,0,1,1.66,2.78l-2.72,10.84a2.3,2.3,0,0,1-2.78,1.67Zm9.35,9.06h0a2.29,2.29,0,0,1-1.67-2.78L170,427.28a2.3,2.3,0,0,1,2.78-1.67h0a2.3,2.3,0,0,1,1.67,2.79l-2.72,10.84a2.31,2.31,0,0,1-2.79,1.66Zm9.35,9.07h0a2.32,2.32,0,0,1-1.67-2.79l2.73-10.83a2.3,2.3,0,0,1,2.78-1.67h0a2.3,2.3,0,0,1,1.66,2.79L181,448.3A2.3,2.3,0,0,1,178.24,450Z"/><path class="cls-7" d="M187.6,459h0a2.31,2.31,0,0,1-1.7-2.67l0-.06v-.06l1.1-4.37a2.29,2.29,0,0,1,2.78-1.66h0a2.29,2.29,0,0,1,1.67,2.78l-1.11,4.43,0,.05A2.3,2.3,0,0,1,187.6,459Zm-84.76-88.75a2.3,2.3,0,0,1,2.79-1.67h0a2.31,2.31,0,0,1,1.68,2.73l0,.06-1.1,4.37a2.29,2.29,0,0,1-2.78,1.66h0a2.3,2.3,0,0,1-1.68-2.73v-.06l1.1-4.36Zm8.24,13.49,1.12-4.43a2.29,2.29,0,0,1,2.78-1.66h0a2.3,2.3,0,0,1,1.68,2.73v.05l-1.1,4.37v.06a2.32,2.32,0,0,1-2.78,1.61h0a2.31,2.31,0,0,1-1.69-2.67v-.06Zm10.47,4.64a2.31,2.31,0,0,1,2.78-1.67h0a2.3,2.3,0,0,1,1.67,2.79l-1.09,4.37,0,0a2.29,2.29,0,0,1-2.77,1.61h0a2.3,2.3,0,0,1-1.69-2.72h0v-.06l1.1-4.36Zm9.37,9a2.3,2.3,0,0,1,2.77-1.61h0a2.3,2.3,0,0,1,1.66,2.79L134.24,403v.06a2.31,2.31,0,0,1-2.76,1.55h0a2.31,2.31,0,0,1-1.68-2.73v-.06l1.1-4.37,0-.05Zm9.35,9.07a2.31,2.31,0,0,1,2.77-1.62h0a2.31,2.31,0,0,1,1.66,2.79l-1.1,4.37v0a2.31,2.31,0,0,1-2.77,1.62h0a2.3,2.3,0,0,1-1.67-2.79l1.1-4.37v-.05Zm9.36,9.06A2.29,2.29,0,0,1,152.4,414h0a2.31,2.31,0,0,1,1.68,2.73l0,.06L153,421.1l0,.06a2.3,2.3,0,0,1-2.77,1.61h0A2.3,2.3,0,0,1,148.5,420V420l1.1-4.37,0-.06Zm9.33,9.12a2.31,2.31,0,0,1,2.79-1.66h0a2.3,2.3,0,0,1,1.68,2.73v.05l-1.1,4.37v.06a2.31,2.31,0,0,1-2.77,1.61h0a2.31,2.31,0,0,1-1.69-2.73l0-.06,1.09-4.37Zm9.37,9a2.31,2.31,0,0,1,2.77-1.61h0a2.31,2.31,0,0,1,1.69,2.73h0l0,.06-1.1,4.37a2.29,2.29,0,0,1-2.78,1.66h0a2.29,2.29,0,0,1-1.67-2.78l1.1-4.37v-.06Zm9.34,9.13a2.3,2.3,0,0,1,2.79-1.67h0a2.31,2.31,0,0,1,1.67,2.78L181,448.3l0,.06a2.3,2.3,0,0,1-2.77,1.61h0a2.31,2.31,0,0,1-1.68-2.73v-.06Z"/><polygon class="cls-8" points="298.19 522.35 261.3 478.88 290.75 492.04 240.14 438.27 268.45 475.16 237.56 462.87 298.19 522.35"/><path class="cls-9" d="M222.9,522.26c-129.81-4-218-9.84-218-15.39,0-3.85,42.46-6.86,111.78-8.65-12.78,1.86-19.7,4-19.7,6.28C97,510.6,145.25,517,222.9,522.26Z"/><path class="cls-9" d="M152.92,501.18c7.53.31,13.62,3.17,13.62,6.39s-6.09,5.59-13.62,5.28-13.62-3.16-13.62-6.39S145.4,500.88,152.92,501.18Z"/><path class="cls-9" d="M123.89,503.88c4.62.18,8.37,1.94,8.37,3.92s-3.75,3.44-8.37,3.25-8.38-1.95-8.38-3.93S119.26,503.69,123.89,503.88Z"/><path class="cls-4" d="M148.22,502.81c2.57-.43,4.66.11,4.66,1.22s-2.09,2.34-4.66,2.77-4.66-.11-4.66-1.21S145.65,503.25,148.22,502.81Z"/><path class="cls-4" d="M121,504.26c2.36-.39,4.28.1,4.28,1.12s-1.92,2.15-4.28,2.55-4.28-.1-4.28-1.11S118.62,504.66,121,504.26Z"/><path class="cls-6" d="M10.4,409.83l197.5,72.74a7.75,7.75,0,0,1,4.58,9.92h0a7.75,7.75,0,0,1-9.92,4.58L5.06,424.33a7.75,7.75,0,0,1-4.59-9.92h0A7.76,7.76,0,0,1,10.4,409.83Z"/><path class="cls-6" d="M21.26,412.2h0A3.23,3.23,0,0,1,25,414.83l2.66,15.45A3.23,3.23,0,0,1,25,434h0a3.24,3.24,0,0,1-3.73-2.63l-2.66-15.45a3.23,3.23,0,0,1,2.63-3.72Zm154.35,56.85h0a3.24,3.24,0,0,1,3.73,2.63L182,487.13a3.23,3.23,0,0,1-2.63,3.72h0a3.23,3.23,0,0,1-3.72-2.63L173,472.77a3.23,3.23,0,0,1,2.62-3.72Zm-17.15-6.32h0a3.25,3.25,0,0,1,3.73,2.63l2.66,15.45a3.23,3.23,0,0,1-2.63,3.72h0a3.23,3.23,0,0,1-3.72-2.62l-2.67-15.45a3.25,3.25,0,0,1,2.63-3.73Zm-17.15-6.31h0a3.23,3.23,0,0,1,3.72,2.63l2.67,15.45a3.23,3.23,0,0,1-2.63,3.72h0a3.23,3.23,0,0,1-3.72-2.63l-2.67-15.45a3.23,3.23,0,0,1,2.63-3.72Zm-17.15-6.32h0a3.23,3.23,0,0,1,3.72,2.63l2.67,15.45a3.23,3.23,0,0,1-2.63,3.72h0a3.23,3.23,0,0,1-3.72-2.63l-2.67-15.45a3.24,3.24,0,0,1,2.63-3.72ZM107,443.79h0a3.22,3.22,0,0,1,3.72,2.62l2.67,15.45a3.23,3.23,0,0,1-2.63,3.72h0a3.23,3.23,0,0,1-3.72-2.62l-2.67-15.45a3.23,3.23,0,0,1,2.63-3.72Zm-17.15-6.32h0a3.23,3.23,0,0,1,3.72,2.62l2.67,15.46a3.23,3.23,0,0,1-2.63,3.72h0a3.23,3.23,0,0,1-3.72-2.63l-2.67-15.45a3.23,3.23,0,0,1,2.63-3.72Zm-17.15-6.32h0a3.23,3.23,0,0,1,3.72,2.63l2.67,15.45A3.24,3.24,0,0,1,76.47,453h0a3.24,3.24,0,0,1-3.73-2.63l-2.66-15.45a3.23,3.23,0,0,1,2.63-3.72Zm-17.15-6.32h0a3.23,3.23,0,0,1,3.72,2.63l2.66,15.45a3.22,3.22,0,0,1-2.62,3.72h0A3.24,3.24,0,0,1,55.59,444l-2.66-15.45a3.24,3.24,0,0,1,2.63-3.73Zm-17.15-6.31h0a3.23,3.23,0,0,1,3.72,2.62l2.66,15.45a3.24,3.24,0,0,1-2.62,3.73h0a3.23,3.23,0,0,1-3.72-2.63l-2.67-15.45A3.23,3.23,0,0,1,38.41,418.52Z"/><rect class="cls-11" x="504.96" y="377.62" width="8.23" height="4.95" rx="2.48"/><path class="cls-9" d="M397.76,364.88h15a8.63,8.63,0,0,1,8.61,8.61h0a8.63,8.63,0,0,1-8.61,8.6h-15a8.63,8.63,0,0,1-8.6-8.6h0A8.63,8.63,0,0,1,397.76,364.88Z"/><path class="cls-6" d="M411.91,364.88h.83a8.63,8.63,0,0,1,8.6,8.61h0a8.63,8.63,0,0,1-8.6,8.6h-.83a8.63,8.63,0,0,1-8.6-8.6h0A8.63,8.63,0,0,1,411.91,364.88Z"/><rect class="cls-14" x="383.33" y="373.49" width="16.09" height="8.6" rx="4.3"/><rect class="cls-11" x="390.41" y="373.49" width="9.02" height="8.6" rx="4.3"/><rect class="cls-14" x="439.15" y="373.49" width="25.52" height="8.6" rx="4.3"/><rect class="cls-11" x="450.37" y="373.49" width="14.3" height="8.6" rx="4.3"/><rect class="cls-11" x="472.72" y="376.48" width="8.7" height="5.23" rx="2.62"/><rect class="cls-11" x="477.71" y="378.3" width="8.23" height="4.95" rx="2.48"/><path class="cls-4" d="M412.21,384.05h2.24a1.82,1.82,0,0,1,1.81,1.81h0a1.82,1.82,0,0,1-1.81,1.81h-2.24a1.82,1.82,0,0,1-1.81-1.81h0A1.82,1.82,0,0,1,412.21,384.05Z"/><rect class="cls-10" x="427.31" y="377.26" width="9.75" height="6.03" rx="3.02"/><path class="cls-4" d="M443.2,382.27h1.92a1.56,1.56,0,0,1,1.56,1.56h0a1.56,1.56,0,0,1-1.56,1.56H443.2a1.57,1.57,0,0,1-1.57-1.56h0A1.57,1.57,0,0,1,443.2,382.27Z"/><path class="cls-6" d="M527.73,557.66c24.91,0,45.22-1.67,45.22-3.7s-20.31-3.7-45.22-3.7-45.21,1.66-45.21,3.7S502.83,557.66,527.73,557.66Z"/><rect class="cls-10" x="517.55" y="537.72" width="24.64" height="15.59" rx="7.79"/><rect class="cls-10" x="495.1" y="542.65" width="16.85" height="10.66" rx="5.33"/><rect class="cls-11" x="519.58" y="538.83" width="24.64" height="15.58" rx="7.79"/><rect class="cls-11" x="497.13" y="543.76" width="16.85" height="10.66" rx="5.33"/><path class="cls-2" d="M215.85,453.39l39.32,10.53a3.56,3.56,0,0,1,2.51,4.34l-3.58,13.35a3.55,3.55,0,0,1-4.34,2.5l-39.32-10.54a3.54,3.54,0,0,1-2.5-4.33l3.57-13.35A3.55,3.55,0,0,1,215.85,453.39Z"/><path class="cls-2" d="M237.79,459.27l39.33,10.53a3.55,3.55,0,0,1,2.5,4.34l-3.57,13.35a3.56,3.56,0,0,1-4.34,2.5l-39.32-10.54a3.54,3.54,0,0,1-2.51-4.33l3.58-13.35A3.54,3.54,0,0,1,237.79,459.27Z"/><path class="cls-2" d="M243,464.77h0a2.13,2.13,0,0,1,1.5,2.59l-2.27,8.46a2.12,2.12,0,0,1-2.59,1.49h0a2.12,2.12,0,0,1-1.49-2.59l2.26-8.45a2.13,2.13,0,0,1,2.59-1.5ZM269.88,472h0a2.13,2.13,0,0,1,1.5,2.59L269.11,483a2.12,2.12,0,0,1-2.59,1.49h0a2.12,2.12,0,0,1-1.49-2.59l2.26-8.45a2.13,2.13,0,0,1,2.59-1.5Zm-9-2.4h0a2.12,2.12,0,0,1,1.5,2.59l-2.27,8.45a2.12,2.12,0,0,1-2.59,1.5h0a2.12,2.12,0,0,1-1.49-2.59l2.26-8.45a2.12,2.12,0,0,1,2.59-1.5Zm-9-2.4h0a2.12,2.12,0,0,1,1.5,2.59l-2.27,8.45a2.11,2.11,0,0,1-2.59,1.49h0a2.12,2.12,0,0,1-1.49-2.59l2.26-8.45A2.12,2.12,0,0,1,251.94,467.18Z"/><rect class="cls-3" x="181.3" y="474.5" width="47.79" height="20.9" rx="3.54"/><rect class="cls-3" x="204.02" y="474.5" width="47.79" height="20.9" rx="3.54"/><path class="cls-9" d="M214,478.48h0a2.12,2.12,0,0,1,2.11,2.11v8.75a2.12,2.12,0,0,1-2.11,2.12h0a2.12,2.12,0,0,1-2.12-2.12v-8.75a2.12,2.12,0,0,1,2.12-2.11Zm27.86,0h0a2.12,2.12,0,0,1,2.11,2.11v8.75a2.12,2.12,0,0,1-2.11,2.12h0a2.12,2.12,0,0,1-2.12-2.12v-8.75a2.12,2.12,0,0,1,2.12-2.11Zm-9.29,0h0a2.12,2.12,0,0,1,2.11,2.11v8.75a2.12,2.12,0,0,1-2.11,2.12h0a2.12,2.12,0,0,1-2.11-2.12v-8.75a2.12,2.12,0,0,1,2.11-2.11Zm-9.29,0h0a2.12,2.12,0,0,1,2.12,2.11v8.75a2.12,2.12,0,0,1-2.12,2.12h0a2.12,2.12,0,0,1-2.11-2.12v-8.75A2.12,2.12,0,0,1,223.27,478.48Z"/><rect class="cls-3" x="222.2" y="479.78" width="47.79" height="20.9" rx="3.54"/><rect class="cls-3" x="244.92" y="479.78" width="47.79" height="20.9" rx="3.54"/><path class="cls-2" d="M254.88,483.76h0a2.13,2.13,0,0,1,2.12,2.12v8.75a2.13,2.13,0,0,1-2.12,2.11h0a2.12,2.12,0,0,1-2.11-2.11v-8.75a2.12,2.12,0,0,1,2.11-2.12Zm27.86,0h0a2.13,2.13,0,0,1,2.12,2.12v8.75a2.13,2.13,0,0,1-2.12,2.11h0a2.12,2.12,0,0,1-2.11-2.11v-8.75a2.12,2.12,0,0,1,2.11-2.12Zm-9.29,0h0a2.12,2.12,0,0,1,2.12,2.12v8.75a2.12,2.12,0,0,1-2.12,2.11h0a2.12,2.12,0,0,1-2.11-2.11v-8.75a2.12,2.12,0,0,1,2.11-2.12Zm-9.28,0h0a2.12,2.12,0,0,1,2.11,2.12v8.75a2.12,2.12,0,0,1-2.11,2.11h0a2.12,2.12,0,0,1-2.11-2.11v-8.75A2.12,2.12,0,0,1,264.17,483.76Z"/></g></g></svg>