<svg xmlns="http://www.w3.org/2000/svg" viewBox="0 0 213.8 301.1"><defs><style>.cls-1{fill:#e54355;}.cls-2{fill:#eb8b23;}.cls-3{fill:#36234c;}.cls-4{fill:#5f2d78;}.cls-5{fill:#2e1a47;}.cls-6{fill:#ddd;}.cls-7{fill:#c4c4c4;}</style></defs><g id="Layer_2" data-name="Layer 2"><g id="Layer_1-2" data-name="Layer 1"><path class="cls-1" d="M29.2,58.3a4.91,4.91,0,0,0,4.9,4.9H73a4.91,4.91,0,0,0,4.9-4.9H29.2Z"/><path class="cls-2" d="M72.9,53.4H34.1a4.91,4.91,0,0,0-4.9,4.9H77.8A4.91,4.91,0,0,0,72.9,53.4Z"/><path class="cls-1" d="M97.2,38.9h0a4.91,4.91,0,0,0,4.9,4.9H141a4.91,4.91,0,0,0,4.9-4.9H97.2Z"/><path class="cls-2" d="M145.8,38.9a4.91,4.91,0,0,0-4.9-4.9H102a4.91,4.91,0,0,0-4.9,4.9Z"/><path class="cls-2" d="M150.5,102H92.3a5,5,0,0,0-4.9,4.8h68A4.89,4.89,0,0,0,150.5,102Z"/><path class="cls-1" d="M87.4,106.9h0a4.91,4.91,0,0,0,4.9,4.9h58.2a4.91,4.91,0,0,0,4.9-4.9h-68Z"/><path class="cls-1" d="M24.3,121.4H82.7a4.91,4.91,0,0,0,4.9-4.9H19.4A4.84,4.84,0,0,0,24.3,121.4Z"/><path class="cls-2" d="M82.7,111.7H24.3a4.91,4.91,0,0,0-4.9,4.9H87.5A4.82,4.82,0,0,0,82.7,111.7Z"/><path class="cls-1" d="M116.9,281.7H29.1A29.06,29.06,0,0,1,0,252.6V194.2H184.6V214A67.69,67.69,0,0,1,116.9,281.7Z"/><path class="cls-1" d="M207,165.2h0a6.8,6.8,0,0,0-4.9,2l-27.2,27,9.7,9.8,27.1-27.1a6.73,6.73,0,0,0,2-4.8h0A6.68,6.68,0,0,0,207,165.2Z"/><path class="cls-2" d="M184.6,214V194.3H0v48.6H178.2A68.29,68.29,0,0,0,184.6,214Z"/><rect class="cls-1" y="194.3" width="184.6" height="9.7"/><path class="cls-3" d="M82.6,19.4h34.1V9.7H82.6a4.91,4.91,0,0,0-4.9,4.9h0A4.82,4.82,0,0,0,82.6,19.4Z"/><path class="cls-3" d="M34.1,48.6H48.7V38.9H34.1a4.91,4.91,0,0,0-4.9,4.9h0A4.89,4.89,0,0,0,34.1,48.6Z"/><path class="cls-3" d="M87.4,19.4h29.2v9.7H92.3a4.91,4.91,0,0,1-4.9-4.9Z"/><path class="cls-4" d="M184.6,291.4H0a9.65,9.65,0,0,1,9.7-9.7H174.9a9.65,9.65,0,0,1,9.7,9.7Z"/><path class="cls-5" d="M208.9,301.1H9.7A9.65,9.65,0,0,1,0,291.4H208.9a4.91,4.91,0,0,1,4.9,4.9h0A4.89,4.89,0,0,1,208.9,301.1Z"/><path class="cls-2" d="M58.4,194.3H48.7V34a4.91,4.91,0,0,1,4.9-4.9h0A4.91,4.91,0,0,1,58.5,34V194.3Z"/><path class="cls-2" d="M126.3,194.3h-9.7V4.9A4.91,4.91,0,0,1,121.5,0h0a4.91,4.91,0,0,1,4.9,4.9V194.3Z"/><circle class="cls-6" cx="29.2" cy="223.4" r="9.7"/><path class="cls-3" d="M33.9,223.4a4.7,4.7,0,1,1-4.7-4.7A4.76,4.76,0,0,1,33.9,223.4Z"/><circle class="cls-6" cx="58.3" cy="223.4" r="9.7"/><circle class="cls-3" cx="58.3" cy="223.4" r="4.7"/><path class="cls-6" d="M97.2,223.4a9.7,9.7,0,1,1-9.7-9.7A9.71,9.71,0,0,1,97.2,223.4Z"/><path class="cls-3" d="M92.1,223.4a4.7,4.7,0,1,1-4.7-4.7A4.69,4.69,0,0,1,92.1,223.4Z"/><circle class="cls-6" cx="116.6" cy="223.4" r="9.7"/><circle class="cls-3" cx="116.6" cy="223.4" r="4.7"/><path class="cls-2" d="M29.3,184.6H0v9.7H38.9A9.62,9.62,0,0,0,29.3,184.6Z"/><path class="cls-2" d="M9.8,174.9H0v9.7H19.5A9.77,9.77,0,0,0,9.8,174.9Z"/><path class="cls-7" d="M150.9,106.8H97.2a34,34,0,0,1,34,34h0a34,34,0,0,1-34,34h53.7a34,34,0,0,0,34-34h0A34,34,0,0,0,150.9,106.8Z"/><path class="cls-6" d="M184.9,140.8a34,34,0,0,0-34-34H97.2a34,34,0,0,1,34,34h53.7Z"/><path class="cls-7" d="M77.7,116.6H29.2a29.06,29.06,0,0,1,29.1,29.1h0a29,29,0,0,1-29.1,29.1H77.7a29.06,29.06,0,0,0,29.1-29.1h0A29.13,29.13,0,0,0,77.7,116.6Z"/><path class="cls-6" d="M106.8,145.8a29.06,29.06,0,0,0-29.1-29.1H29.2a29.06,29.06,0,0,1,29.1,29.1Z"/><path class="cls-7" d="M150.6,38.9H106.8a24.33,24.33,0,0,1,24.3,24.3h0a24,24,0,0,1-2.3,10.4,24.35,24.35,0,0,1-21.9,13.9h43.7a24.33,24.33,0,0,0,24.3-24.3h0A24.26,24.26,0,0,0,150.6,38.9Z"/><path class="cls-6" d="M174.9,63.1a24.33,24.33,0,0,0-24.3-24.3H106.8a24.33,24.33,0,0,1,24.3,24.3Z"/><path class="cls-7" d="M68.1,58.4H39A19.25,19.25,0,0,1,58.3,77.7h0A19.37,19.37,0,0,1,39,97H68.1A19.25,19.25,0,0,0,87.4,77.7h0A19.25,19.25,0,0,0,68.1,58.4Z"/><path class="cls-6" d="M87.4,77.7A19.25,19.25,0,0,0,68.1,58.4H39A19.25,19.25,0,0,1,58.3,77.7Z"/><path class="cls-2" d="M150.6,242.8a9.65,9.65,0,0,1-9.7-9.7h-9.8a19.5,19.5,0,0,0,39,0h-9.8A9.71,9.71,0,0,1,150.6,242.8Z"/><path class="cls-2" d="M155.4,242.9h-9.7V204h9.7Z"/><polygon class="cls-2" points="165.2 223.4 155.5 223.4 145.8 223.4 136 223.4 136 213.7 165.2 213.7 165.2 223.4"/><path class="cls-2" d="M43.7,262.3H24.3a4.91,4.91,0,0,1-4.9-4.9h0a4.91,4.91,0,0,1,4.9-4.9H43.7a4.91,4.91,0,0,1,4.9,4.9h0A4.91,4.91,0,0,1,43.7,262.3Z"/><path class="cls-2" d="M121.4,262.3H73.1a4.91,4.91,0,0,1-4.9-4.9h0a4.91,4.91,0,0,1,4.9-4.9h48.3a4.91,4.91,0,0,1,4.9,4.9h0A4.91,4.91,0,0,1,121.4,262.3Z"/></g></g></svg>