<svg xmlns="http://www.w3.org/2000/svg" xmlns:xlink="http://www.w3.org/1999/xlink" viewBox="0 0 652.36 648.19"><defs><style>.cls-1{opacity:0.45;fill:url(#New_Gradient_Swatch_3);}</style><linearGradient id="New_Gradient_Swatch_3" y1="324.1" x2="652.36" y2="324.1" gradientUnits="userSpaceOnUse"><stop offset="0" stop-color="#5f2d78"/><stop offset="1" stop-color="#af206e"/></linearGradient></defs><g id="Layer_2" data-name="Layer 2"><g id="Layer_1-2" data-name="Layer 1"><path class="cls-1" d="M573.87,557.46c-17,17.51-32.17,27.8-43.81,35.56-113.45,75.75-243.13,53.92-283.23,46.46-64.69-12-119.3-20.54-166.21-62.92C-26,480.24-20.81,279.31,60.66,154.85c9.65-14.76,91-135.33,221-152.32,3.18-.42,5.55-.65,7.63-.87C309.36-.47,434-11.71,535.54,73.41a303.1,303.1,0,0,1,59.64,67.67C674.54,263.64,674.79,453.44,573.87,557.46Z"/></g></g></svg>