<svg xmlns="http://www.w3.org/2000/svg" xmlns:xlink="http://www.w3.org/1999/xlink" viewBox="0 0 361.89 107.3"><defs><style>.cls-1{fill:url(#New_Gradient_Swatch_5);}.cls-2{fill:url(#New_Gradient_Swatch_5-2);}</style><linearGradient id="New_Gradient_Swatch_5" x1="-398.51" y1="466.44" x2="-229.44" y2="466.44" gradientTransform="translate(482.98 -425.71)" gradientUnits="userSpaceOnUse"><stop offset="0" stop-color="#140a23"/><stop offset="1" stop-color="#2e1a47"/></linearGradient><linearGradient id="New_Gradient_Swatch_5-2" x1="-389.23" y1="515.68" x2="-215.1" y2="515.68" xlink:href="#New_Gradient_Swatch_5"/></defs><g id="Layer_2" data-name="Layer 2"><g id="Layer_1-2" data-name="Layer 1"><path class="cls-1" d="M361.89,24.24l-.05,0-7,5.2c-1.16.86-2.31,1.75-3.51,2.57l-3.64,2.4-1.81,1.2-1.36.91c-1.34.88-2.69,1.76-4.07,2.61L333,43.56c-1.42.79-2.85,1.58-4.28,2.34t0,0q-4.29,2.3-8.64,4.46-2.19,1.09-4.39,2.12c-1.29.62-2.61,1.22-3.92,1.81-3.31,1.5-6.64,2.91-10,4.22l-4,1.62-4.08,1.46c-2.71.94-5.39,2-8.14,2.85l-8.24,2.59c-2.73.88-5.53,1.53-8.29,2.32a321.5,321.5,0,0,1-33.7,7.15c-11.32,1.79-22.72,3.14-34.14,3.92s-22.9,1.11-34.33,1l-5.53-.09c-10-.27-19.83-1-29.75-1.66h-.11l-5-.37-.72,0a364.36,364.36,0,0,1-69.2-11.93C36.68,61.93,17.47,52.83,1.81,39.5,1.2,39,.6,38.47,0,37.94,78.24,86.75,122.8,61.47,136.39,50.68a39.92,39.92,0,0,0,4.38-3.94s0-.05.07-.07l0-.05c-3.57,5.07-.88,13.9-.88,13.9,9-24.83,49.21-44.55,52.41-46.08l.18-.08c-4.52,4-6.34,13.37-6.43,14C196.86,9.65,235.28,2,238.24,1.47l.18,0c-7.4,4-10.63,14.43-10.63,14.43C249.87-.4,275.76-.63,287.41.3q3.12.33,6.24.77C280.83,5.19,276,14.92,276,14.92c33.78-12.73,65.48-.94,79,5.62C357.3,21.73,359.6,23,361.89,24.24Z"/><path class="cls-2" d="M222.77,92.45c-5.16.87-10.53,3.69-15.58,5.19-42.58,12.62-89.54,13.54-131.73-1.18l-2.67-1A180.42,180.42,0,0,1,29.54,72.64c4.07,2.92,11.34,4.12,16.1,5.68A379.74,379.74,0,0,0,185.38,96.65l.72,0q7.91-.48,15.78-1.3Q212.37,94.22,222.77,92.45Z"/></g></g></svg>