<svg xmlns="http://www.w3.org/2000/svg" viewBox="0 0 1160 758.96"><defs><style>.cls-1,.cls-16{fill:#eb8b23;}.cls-2,.cls-3{fill:#5f2d78;}.cls-10,.cls-11,.cls-13,.cls-14,.cls-15,.cls-16,.cls-3,.cls-4,.cls-7,.cls-9{fill-rule:evenodd;}.cls-4,.cls-6{fill:#fff;}.cls-5,.cls-7{fill:#24205b;}.cls-11,.cls-8{fill:#ea8baa;}.cls-9{fill:#d97696;}.cls-10,.cls-12{fill:#ffa7bf;}.cls-13{fill:#f7c4ba;}.cls-14{fill:#ffe0db;}.cls-15{fill:#e54355;}</style></defs><g id="Layer_2" data-name="Layer 2"><g id="Layer_1-2" data-name="Layer 1"><rect class="cls-1" x="1153.64" y="94.9" width="1.41" height="91.25"/><rect class="cls-1" x="820.69" y="15.01" width="2.98" height="65.97"/><rect class="cls-1" x="733.19" y="25.95" width="2.98" height="38.12"/><rect class="cls-1" x="495.45" y="12.2" width="2.98" height="38.12"/><rect class="cls-1" x="268.48" y="80.64" width="2.19" height="28.12"/><rect class="cls-2" x="1123.47" y="32.96" width="2.98" height="45.97"/><rect class="cls-1" x="949.24" y="88.75" width="2.98" height="45.97"/><rect class="cls-1" x="30.03" y="80.64" width="3.13" height="42.83"/><rect class="cls-1" x="181.98" y="25.95" width="2.19" height="38.12"/><rect class="cls-1" x="358.62" y="52.45" width="2.19" height="25.13"/><rect class="cls-1" x="390.97" y="97.5" width="2.98" height="38.12"/><rect class="cls-1" x="934.72" y="17.82" width="2.98" height="45.97"/><rect class="cls-1" x="855.45" y="65.01" width="2.98" height="65.97"/><polygon class="cls-3" points="311.94 186.75 398.97 186.75 398.97 520.25 274.94 520.25 274.94 223.76 311.94 186.75"/><polygon class="cls-3" points="84.05 356.87 136.28 356.87 136.28 637.75 31.81 637.75 31.81 409.1 84.05 356.87"/><polygon class="cls-3" points="150.48 290.61 223.78 290.61 223.78 571.5 119.31 571.5 119.31 321.78 150.48 290.61"/><polygon class="cls-3" points="754.39 138.01 816.27 138.01 878.16 199.9 878.16 571.5 754.39 571.5 754.39 138.01"/><polygon class="cls-3" points="956.19 205.61 1008.42 205.61 1060.66 257.85 1060.66 571.5 956.19 571.5 956.19 205.61"/><polygon class="cls-3" points="138.42 356.87 190.66 356.87 190.66 637.75 86.19 637.75 86.19 409.1 138.42 356.87"/><polygon class="cls-3" points="204.86 290.61 278.16 290.61 278.16 571.5 173.69 571.5 173.69 321.78 204.86 290.61"/><rect class="cls-1" x="201.57" width="3.53" height="548.67"/><rect class="cls-1" x="578.23" width="3.53" height="548.67"/><rect class="cls-1" x="1086.8" width="3.53" height="548.67"/><path class="cls-4" d="M978.35,370.16a66.09,66.09,0,0,1,25.9,52.38V529.13a66.31,66.31,0,0,1-66.11,66.11h0A66.31,66.31,0,0,1,872,529.13V422.54a65.46,65.46,0,0,1,5.13-25.45L850.4,370.9A17.79,17.79,0,0,1,845.2,356a17.69,17.69,0,0,1,.49-7L874.76,244a17.87,17.87,0,0,1,21.93-12.41h0c.42.12.84.25,1.24.4V159.3a40.33,40.33,0,0,1,40.21-40.2h0a40.33,40.33,0,0,1,40.21,40.2V370.16Zm-80.42-76.33-16.07,58,16.07,15.72Z"/><rect class="cls-5" x="1003.23" width="57.43" height="517.44"/><rect class="cls-6" x="1003.23" width="15.73" height="517.44"/><rect class="cls-5" x="100.81" width="57.43" height="517.44"/><rect class="cls-6" x="99.34" width="15.73" height="517.44"/><path class="cls-7" d="M987.66,236.92h0a17.86,17.86,0,0,0-12.41,21.92l29.07,104.94a17.87,17.87,0,0,0,21.92,12.41h0a17.86,17.86,0,0,0,12.41-21.92l-29.07-104.94A17.87,17.87,0,0,0,987.66,236.92Z"/><path class="cls-7" d="M902.31,236.92h0a17.86,17.86,0,0,1,12.41,21.92L885.65,363.78a17.87,17.87,0,0,1-21.92,12.41h0a17.86,17.86,0,0,1-12.41-21.92l29.07-104.94A17.87,17.87,0,0,1,902.31,236.92Z"/><path class="cls-3" d="M869,290.45l6.72-24.27a12.59,12.59,0,0,1-3.36,24.72A12.85,12.85,0,0,1,869,290.45Z"/><path class="cls-7" d="M943.76,361.74h0a66.3,66.3,0,0,1,66.11,66.11V534.44a66.3,66.3,0,0,1-66.11,66.11h0a66.3,66.3,0,0,1-66.1-66.11V427.85A66.3,66.3,0,0,1,943.76,361.74Z"/><rect class="cls-5" x="901.68" y="276.39" width="84.16" height="152.01" rx="42.08"/><path class="cls-7" d="M920.16,264.1h47.21a33.58,33.58,0,0,1,33.48,33.48h0a33.58,33.58,0,0,1-33.48,33.48H920.16a33.58,33.58,0,0,1-33.48-33.48h0A33.58,33.58,0,0,1,920.16,264.1Z"/><rect class="cls-5" x="903.56" y="124.41" width="80.41" height="304.6" rx="40.2"/><path class="cls-7" d="M920.16,233.4h47.21a33.58,33.58,0,0,1,33.48,33.48h0a33.59,33.59,0,0,1-33.48,33.49H920.16a33.59,33.59,0,0,1-33.48-33.49h0A33.58,33.58,0,0,1,920.16,233.4Z"/><rect class="cls-8" x="929.7" y="178.44" width="28.13" height="76.43" rx="14.06"/><path class="cls-9" d="M943.76,178.44h0a14.11,14.11,0,0,1,14.06,14.06v27a25,25,0,0,1-10.16,2.15h0a25.12,25.12,0,0,1-18-7.58V192.5A14.11,14.11,0,0,1,943.76,178.44Z"/><rect class="cls-8" x="918.56" y="134.98" width="50.41" height="80.44" rx="25.21"/><path class="cls-10" d="M944.78,215.4c-.34,0-.67,0-1,0h0a25.28,25.28,0,0,1-25.2-25.21v-30a25.11,25.11,0,0,1,6.69-17.06l1,0h0a25.28,25.28,0,0,1,25.2,25.21v30A25.07,25.07,0,0,1,944.78,215.4Z"/><path class="cls-11" d="M943.76,135h0A25.28,25.28,0,0,1,969,160.19v21.88a34.31,34.31,0,0,1-25.14,11h-.13a34.31,34.31,0,0,1-25.14-11V160.19A25.28,25.28,0,0,1,943.76,135Z"/><rect class="cls-8" x="917.8" y="232.9" width="51.93" height="73.62" rx="25.96"/><path class="cls-6" d="M943.76,276.39h0a35.2,35.2,0,0,1,35.2,35.2V350.7a35.2,35.2,0,0,1-35.2,35.2h0a35.21,35.21,0,0,1-35.21-35.21v-39.1a35.21,35.21,0,0,1,35.21-35.21Z"/><path class="cls-4" d="M947.7,385.68a34.26,34.26,0,0,1-3.93.22h0a35.3,35.3,0,0,1-35.2-35.2V311.59a34.82,34.82,0,0,1,1.27-9.35,34,34,0,0,1,3.93-.23h0A35.31,35.31,0,0,1,949,337.22v39.1A35.25,35.25,0,0,1,947.7,385.68Z"/><rect class="cls-12" x="907.41" y="250.86" width="71.5" height="34.25" rx="17.12"/><rect class="cls-6" x="897.33" y="258.77" width="92.87" height="58.16" rx="29.08"/><rect class="cls-6" x="900.11" y="259.26" width="67.98" height="42.57" rx="21.29"/><path class="cls-7" d="M855.75,351h0a17.86,17.86,0,0,1,25.19-.28l77.83,76.15a17.86,17.86,0,0,1,.27,25.19h0a17.86,17.86,0,0,1-25.19.27L856,376.22A17.87,17.87,0,0,1,855.75,351Z"/><path class="cls-7" d="M1034.22,351h0a17.86,17.86,0,0,0-25.19-.28L931.2,426.9a17.86,17.86,0,0,0-.27,25.19h0a17.85,17.85,0,0,0,25.18.27L1034,376.22A17.87,17.87,0,0,0,1034.22,351Z"/><path class="cls-13" d="M885.15,445.25l93.67-44.51a3.9,3.9,0,0,1,5.18,1.84l29.82,62.76a3.9,3.9,0,0,1-1.84,5.18L918.31,515a3.9,3.9,0,0,1-5.18-1.84l-29.82-62.76A3.9,3.9,0,0,1,885.15,445.25Z"/><path class="cls-4" d="M872.53,439.13l93.66-44.51a3.91,3.91,0,0,1,5.19,1.84l29.82,62.76a3.89,3.89,0,0,1-1.85,5.18l-93.66,44.51a3.9,3.9,0,0,1-5.18-1.84l-29.83-62.76A3.91,3.91,0,0,1,872.53,439.13Z"/><path class="cls-13" d="M890.72,437l93.67-44.51a3.89,3.89,0,0,1,5.18,1.85l29.82,62.75a3.89,3.89,0,0,1-1.84,5.18l-93.67,44.51A3.89,3.89,0,0,1,918.7,505l-29.82-62.75A3.91,3.91,0,0,1,890.72,437Z"/><path class="cls-14" d="M919.08,444.89l47.85-22.74a2,2,0,0,1,2.65.94l15.23,32.06a2,2,0,0,1-.94,2.65L936,480.54a2,2,0,0,1-2.65-.94l-15.24-32.07A2,2,0,0,1,919.08,444.89Z"/><path class="cls-10" d="M913.71,426.44v0l-.06-.17a17.66,17.66,0,0,1-.87-3.58,17.9,17.9,0,1,1,35.48-4.83,18.2,18.2,0,0,1,.12,3.68v.2l-1.84,23.79h0a12.53,12.53,0,0,1-24.66,3.36h0Z"/><rect class="cls-6" x="970.42" y="206.41" width="3.49" height="16.09" rx="1.75"/><rect class="cls-6" x="970.37" y="199.3" width="3.49" height="3.59" rx="1.75"/><rect class="cls-6" x="913.18" y="206.41" width="3.49" height="16.09" rx="1.75"/><rect class="cls-6" x="913.13" y="199.3" width="3.49" height="3.59" rx="1.75"/><path class="cls-7" d="M453.75,91.26H1160V105H453.75V91.26Zm0-80H1160V25H453.75V11.26Zm0,20H1160V45H453.75V31.26Zm0,20H1160V65H453.75V51.26Zm0,20H1160V85H453.75Z"/><path class="cls-3" d="M453.75,91.26H838.31L852.06,105H453.75V91.26Zm304.56-80L772.06,25H453.75V11.26Zm20,20L792.06,45H453.75V31.26Zm20,20L812.06,65H453.75V51.26Zm20,20L832.06,85H453.75V71.26Z"/><path class="cls-3" d="M0,11.26H434.47V25H0V11.26Zm0,80H434.47V105H0V91.26Zm0-20H434.47V85H0V71.26Zm0-20H434.47V65H0V51.26Zm0-20H434.47V45H0Z"/><path class="cls-7" d="M148.23,11.26H434.47V25H162L148.23,11.26Zm20,20L182,45H434.47V31.26Zm20,20L202,65H434.47V51.26Zm20,20L222,85H434.47V71.26Zm20,20L242,105H434.47V91.26Z"/><path class="cls-4" d="M448.46,144.67H715.94c32.35,0,62.27,17.6,66.52,39.67,11.43,59.41,24.14,125.44,38.31,199.14,16,83.19,34.15,177.55,54.91,285.46,9.2,47.82-24.59,88.53-75.39,88.15l-210-1.58-209-1.56c-50.2-.37-84.43-41.28-76.65-88.68,17.56-106.93,32.93-200.6,46.49-283.18,12-73.22,22.79-138.83,32.5-197.92C387.27,162.2,416.34,144.67,448.46,144.67Z"/><path class="cls-4" d="M470.79,101.31H696.18c27.26,0,52.47,14.83,56.05,33.43,9.64,50.06,20.34,105.7,32.29,167.8,13.48,70.1,28.77,149.61,46.26,240.54,7.75,40.29-20.72,74.59-63.52,74.27l-177-1.32-176.09-1.32c-42.3-.32-71.14-34.78-64.59-74.73,14.8-90.1,27.75-169,39.17-238.61,10.13-61.7,19.21-117,27.39-166.77C419.23,116.08,443.73,101.31,470.79,101.31Z"/><path class="cls-4" d="M510.79,74.66H654.51a27.62,27.62,0,0,1,27.54,27.54h0a27.62,27.62,0,0,1-27.54,27.54H510.79a27.62,27.62,0,0,1-27.54-27.54h0A27.62,27.62,0,0,1,510.79,74.66Z"/><rect class="cls-6" x="154.56" y="477.94" width="109.17" height="59.81" rx="29.9"/><rect class="cls-6" x="175.96" y="471.28" width="58.93" height="25.73" rx="12.86"/><path class="cls-7" d="M458.48,154.39h264c31.94,0,61.48,17.37,65.67,39.16C799.49,252.2,812,317.39,826,390.14c15.8,82.13,33.71,175.28,54.2,281.8,9.09,47.21-24.27,87.4-74.41,87L598.5,757.41l-206.3-1.54c-49.55-.37-83.35-40.75-75.67-87.55,17.33-105.56,32.51-198,45.89-279.55l32.09-195.39C398.07,171.69,426.77,154.39,458.48,154.39Z"/><path class="cls-3" d="M480.53,111.59H703c26.91,0,51.81,14.64,55.34,33,9.51,49.42,20.08,104.34,31.87,165.65,13.31,69.2,28.4,147.7,45.67,237.45,7.65,39.78-20.45,73.64-62.71,73.33l-174.68-1.31-173.83-1.3c-41.76-.31-70.23-34.34-63.76-73.77,14.6-88.95,27.39-166.86,38.67-235.56l27-164.63C429.63,126.17,453.81,111.59,480.53,111.59Z"/><path class="cls-7" d="M567.25,111.59H703c26.91,0,51.81,14.64,55.34,33,9.51,49.42,20.08,104.34,31.87,165.65,13.31,69.2,28.4,147.7,45.67,237.45,3.51,18.24-.5,35.22-9.93,48.25C768.84,608,723.27,617,723.27,617L540.7,144.67A262.67,262.67,0,0,1,567.25,111.59Z"/><path class="cls-7" d="M480.53,111.59H703a76.45,76.45,0,0,1,10.09.68q.09,1.2.09,2.4h0a34,34,0,0,1-33.87,33.87H502.57a34,34,0,0,1-33.87-33.87h0c0-.72,0-1.43.07-2.14A74.65,74.65,0,0,1,480.53,111.59Z"/><path class="cls-4" d="M361.9,348.46h0a58.81,58.81,0,0,1,16.77,81.22L286.46,569.91a58.82,58.82,0,0,1-81.23,16.77h0a58.82,58.82,0,0,1-16.78-81.22l92.22-140.22A58.83,58.83,0,0,1,361.9,348.46Z"/><path class="cls-4" d="M364.22,304.78h0a13.59,13.59,0,0,1,8,17.42l-14.32,38.44a13.58,13.58,0,0,1-17.42,8h0a13.59,13.59,0,0,1-8-17.42l14.32-38.44A13.58,13.58,0,0,1,364.22,304.78Z"/><path class="cls-4" d="M369,291.88h0a8.72,8.72,0,0,1,5.12,11.19l-9.21,24.72a8.73,8.73,0,0,1-11.2,5.12h0a8.74,8.74,0,0,1-5.12-11.2L357.83,297A8.72,8.72,0,0,1,369,291.88Z"/><path class="cls-4" d="M502.42,220.71h0a58.82,58.82,0,0,1,16.78,81.23L427,442.16a58.81,58.81,0,0,1-81.22,16.77h0A58.82,58.82,0,0,1,329,377.7l92.21-140.21A58.83,58.83,0,0,1,502.42,220.71Z"/><path class="cls-7" d="M368.77,358.47h0a58.82,58.82,0,0,1,16.78,81.22L293.33,579.91a58.83,58.83,0,0,1-81.23,16.78h0a58.81,58.81,0,0,1-16.77-81.22l92.21-140.22A58.82,58.82,0,0,1,368.77,358.47Z"/><circle class="cls-6" cx="237.07" cy="515.28" r="51.5" transform="translate(-322.1 420.19) rotate(-55.64)"/><path class="cls-7" d="M371.1,314.78h0a13.58,13.58,0,0,1,8,17.42l-14.32,38.44a13.58,13.58,0,0,1-17.42,8h0a13.58,13.58,0,0,1-8-17.42l14.32-38.44A13.58,13.58,0,0,1,371.1,314.78Z"/><path class="cls-7" d="M375.9,301.88h0a8.72,8.72,0,0,1,5.12,11.2l-9.2,24.71a8.73,8.73,0,0,1-11.2,5.12h0a8.73,8.73,0,0,1-5.12-11.2L364.7,307A8.73,8.73,0,0,1,375.9,301.88Z"/><path class="cls-7" d="M532,213.74h0a13.58,13.58,0,0,1,8,17.42L525.59,269.6a13.57,13.57,0,0,1-17.41,8h0a13.58,13.58,0,0,1-8-17.42l14.32-38.44A13.58,13.58,0,0,1,532,213.74Z"/><path class="cls-7" d="M536.75,200.84h0a8.74,8.74,0,0,1,5.13,11.2l-9.21,24.71a8.73,8.73,0,0,1-11.2,5.12h0a8.73,8.73,0,0,1-5.12-11.2L525.56,206A8.72,8.72,0,0,1,536.75,200.84Z"/><path class="cls-7" d="M509.3,230.71h0a58.82,58.82,0,0,1,16.77,81.23L433.86,452.16a58.82,58.82,0,0,1-81.23,16.77h0a58.83,58.83,0,0,1-16.78-81.23l92.22-140.21A58.83,58.83,0,0,1,509.3,230.71Z"/><path class="cls-7" d="M685.69,238.62h0a58.82,58.82,0,0,0-16.78,81.22l92.22,140.22a58.82,58.82,0,0,0,81.22,16.78h0a58.81,58.81,0,0,0,16.78-81.23L766.92,255.39A58.82,58.82,0,0,0,685.69,238.62Z"/><rect class="cls-5" x="463.43" y="301.42" width="267.69" height="256.8" rx="100.64"/><path class="cls-5" d="M545.4,277.33H649.15a40.29,40.29,0,0,1,40.29,40.29v22.23a40.29,40.29,0,0,1-40.29,40.29H545.4a40.3,40.3,0,0,1-40.3-40.3V317.62a40.29,40.29,0,0,1,40.29-40.29Z"/><rect class="cls-5" x="419.81" y="241.24" width="354.93" height="197.98" rx="77.59"/><rect class="cls-6" x="540.63" y="351.98" width="113.28" height="279.5" rx="44.39"/><path class="cls-6" d="M579.22,262.91h36.1a39,39,0,0,1,39,39v21.5a39,39,0,0,1-39,39h-36.1a39,39,0,0,1-39-39v-21.5A39,39,0,0,1,579.22,262.91Z"/><rect class="cls-5" x="549.07" y="263.38" width="96.41" height="75.27" rx="29.5"/><path class="cls-7" d="M540.32,242.62l3.1-5.37a11.27,11.27,0,0,1,15.35-4.12L580.9,245.9A11.28,11.28,0,0,1,585,261.26l-3.1,5.37a11.27,11.27,0,0,1-15.35,4.11L544.43,258A11.27,11.27,0,0,1,540.32,242.62Z"/><path class="cls-7" d="M656.3,242.62l-3.1-5.37a11.28,11.28,0,0,0-15.36-4.12L615.72,245.9a11.28,11.28,0,0,0-4.11,15.36l3.1,5.37a11.27,11.27,0,0,0,15.35,4.11L652.18,258A11.27,11.27,0,0,0,656.3,242.62Z"/><path class="cls-7" d="M586.3,181.62a11.25,11.25,0,0,1,9.09,11v25.52a11.26,11.26,0,0,1-11.23,11.22H578a11.26,11.26,0,0,1-11.23-11.22V192.64a11.26,11.26,0,0,1,7-10.39v-2.9a6.3,6.3,0,0,1,6.29-6.28h0a6.29,6.29,0,0,1,6.28,6.28Z"/><path class="cls-2" d="M591.45,244.72h12.39a22.46,22.46,0,0,1,22.46,22.46V290a22.46,22.46,0,0,1-22.46,22.46H591.45A22.45,22.45,0,0,1,569,290V267.17a22.45,22.45,0,0,1,22.45-22.45Z"/><path class="cls-3" d="M586.6,311.93A22.55,22.55,0,0,1,569,290V267.17A22.52,22.52,0,0,1,581.63,247,26.6,26.6,0,0,1,590,266.34V299A26.48,26.48,0,0,1,586.6,311.93Z"/><path class="cls-4" d="M577.24,307.36A22.43,22.43,0,0,1,569,290V267.17a22,22,0,0,1,.7-5.54,26.54,26.54,0,0,1,9.75,20.52V296.8A26.4,26.4,0,0,1,577.24,307.36Z"/><rect class="cls-5" x="568.99" y="244.72" width="57.3" height="36.8" rx="14.42"/><rect class="cls-5" x="554.71" y="202.61" width="85.86" height="67.74" rx="26.55"/><path class="cls-7" d="M732,482.4a51.5,51.5,0,1,0-51.51-51.5A51.6,51.6,0,0,0,732,482.4Z"/><path class="cls-15" d="M617.15,257.79a13.14,13.14,0,0,1-9.66,4.7h-19.7a13.14,13.14,0,0,1-9.66-4.7,11.67,11.67,0,0,0,5.47,1.4h28.07A11.68,11.68,0,0,0,617.15,257.79Z"/><rect class="cls-2" x="563.59" y="186.13" width="68.09" height="67.74" rx="26.55"/><path class="cls-3" d="M590.35,253.87h-.21a26.62,26.62,0,0,1-26.55-26.55V212.68a26.63,26.63,0,0,1,16-24.36h.21a26.61,26.61,0,0,1,26.54,26.54v14.65A26.64,26.64,0,0,1,590.35,253.87Z"/><path class="cls-4" d="M581.7,252.49a26.65,26.65,0,0,1-18.11-25.17V212.68a26.38,26.38,0,0,1,4.3-14.44A26.64,26.64,0,0,1,586,223.4v14.65A26.32,26.32,0,0,1,581.7,252.49Z"/><path class="cls-7" d="M605.68,244.72h8.67a.79.79,0,0,1,.79.79h0a.79.79,0,0,1-.79.79h-8.67a.79.79,0,0,1-.8-.79h0A.79.79,0,0,1,605.68,244.72Z"/><path class="cls-7" d="M605.68,248h8.67a.8.8,0,0,1,.79.79h0a.8.8,0,0,1-.79.8h-8.67a.8.8,0,0,1-.8-.8h0A.8.8,0,0,1,605.68,248Z"/><path class="cls-3" d="M562.47,263.5a2.65,2.65,0,1,0-2.65-2.65A2.65,2.65,0,0,0,562.47,263.5Z"/><path class="cls-3" d="M634.78,239.82c3,0,4.53,3.51,3.41,7.83s-4.46,7.83-7.46,7.83-4.54-3.51-3.42-7.83S631.77,239.82,634.78,239.82Z"/><path class="cls-3" d="M635.8,263.5a2.65,2.65,0,1,0-2.65-2.65A2.65,2.65,0,0,0,635.8,263.5Z"/><path class="cls-4" d="M716.77,362.76a51.5,51.5,0,0,1,28.17,94.62l-74.73-65.15A51.5,51.5,0,0,1,716.77,362.76Z"/><path class="cls-3" d="M560.4,267.07h0a2.07,2.07,0,0,1,2.07,2.07v8.52a2.07,2.07,0,0,1-2.07,2.07h0a2.07,2.07,0,0,1-2.07-2.07v-8.52A2.07,2.07,0,0,1,560.4,267.07Z"/><rect class="cls-2" x="566.01" y="254.72" width="3.7" height="7.02" rx="1.85"/><path class="cls-3" d="M572,250h0a1.43,1.43,0,0,1,1.43,1.42v.41a1.43,1.43,0,0,1-1.43,1.42h0a1.43,1.43,0,0,1-1.42-1.42v-.41A1.43,1.43,0,0,1,572,250Z"/><path class="cls-7" d="M594.44,337.09h5.38a9.78,9.78,0,0,1,9.75,9.76v4.45a12.47,12.47,0,0,1-12.44,12.44h0a12.47,12.47,0,0,1-12.44-12.44v-4.45A9.78,9.78,0,0,1,594.44,337.09Z"/><path class="cls-7" d="M597.27,361h0a12.58,12.58,0,0,1,12.55,12.55V552.24a12.59,12.59,0,0,1-12.55,12.55h0a12.59,12.59,0,0,1-12.55-12.55V373.52A12.58,12.58,0,0,1,597.27,361Z"/><path class="cls-3" d="M692.13,376,678.9,367.3a18.09,18.09,0,0,0-25,5.21h0a18.09,18.09,0,0,0,5.22,25l13.23,8.66a18.09,18.09,0,0,0,25-5.21h0A18.11,18.11,0,0,0,692.13,376Z"/><path class="cls-3" d="M649.12,370.15l-11.9,6.48a15.5,15.5,0,0,0-6.16,21h0a15.49,15.49,0,0,0,21,6.16l11.89-6.48a15.49,15.49,0,0,0,6.16-21h0A15.48,15.48,0,0,0,649.12,370.15Z"/><path class="cls-7" d="M749.58,396.68l-41.3-27a30,30,0,0,0-41.4,8.64h0a30,30,0,0,0,8.64,41.39l41.31,27a30,30,0,0,0,41.39-8.65h0A30,30,0,0,0,749.58,396.68Z"/><path class="cls-3" d="M756.79,439.62l-9-5.86A14.56,14.56,0,0,0,727.74,438h0a14.55,14.55,0,0,0,4.2,20.08l9,5.87a14.55,14.55,0,0,0,20.08-4.2h0A14.56,14.56,0,0,0,756.79,439.62Z"/><path class="cls-7" d="M755.71,448.87l-6.38-4.18a10.38,10.38,0,0,0-14.33,3h0A10.38,10.38,0,0,0,738,462l6.39,4.18a10.39,10.39,0,0,0,14.33-3h0A10.37,10.37,0,0,0,755.71,448.87Z"/><path class="cls-3" d="M752.94,453.77h0a14.21,14.21,0,0,0-19.61,4.09l-4,6.17a14.21,14.21,0,0,0,4.1,19.61h0A14.2,14.2,0,0,0,753,479.55l4-6.17A14.21,14.21,0,0,0,752.94,453.77Z"/><path class="cls-3" d="M704.4,409.66l9.36,6.12a15.21,15.21,0,0,1,4.38,21h0a15.22,15.22,0,0,1-21,4.38L687.8,435a15.2,15.2,0,0,1-4.39-21h0A15.2,15.2,0,0,1,704.4,409.66Z"/><path class="cls-7" d="M696,414.55l6.67,4.37a10.84,10.84,0,0,1,3.12,15h0a10.84,10.84,0,0,1-15,3.13l-6.67-4.37a10.84,10.84,0,0,1-3.13-15h0A10.85,10.85,0,0,1,696,414.55Z"/><path class="cls-3" d="M692.46,419.26h0a14.84,14.84,0,0,1,4.27,20.48l-4.21,6.44a14.84,14.84,0,0,1-20.48,4.28h0A14.84,14.84,0,0,1,667.77,430l4.21-6.44A14.83,14.83,0,0,1,692.46,419.26Z"/><path class="cls-3" d="M667.71,385.65l9.36,6.12a15.19,15.19,0,0,1,4.38,21h0a15.21,15.21,0,0,1-21,4.38L651.11,411a15.2,15.2,0,0,1-4.38-21h0A15.19,15.19,0,0,1,667.71,385.65Z"/><path class="cls-7" d="M659.31,390.54l6.68,4.37a10.84,10.84,0,0,1,3.12,15h0a10.84,10.84,0,0,1-15,3.13l-6.68-4.37a10.84,10.84,0,0,1-3.12-15h0A10.84,10.84,0,0,1,659.31,390.54Z"/><path class="cls-3" d="M655.78,395.25h0a14.83,14.83,0,0,1,4.28,20.48l-4.22,6.44a14.84,14.84,0,0,1-20.48,4.28h0A14.85,14.85,0,0,1,631.08,406l4.22-6.44A14.83,14.83,0,0,1,655.78,395.25Z"/><path class="cls-3" d="M650.25,404.47h0A12.65,12.65,0,0,1,653.9,422L643,438.58a12.65,12.65,0,0,1-17.48,3.65h0a12.68,12.68,0,0,1-3.65-17.49l10.88-16.62A12.66,12.66,0,0,1,650.25,404.47Z"/><path class="cls-3" d="M659.23,465h0a12.68,12.68,0,0,1-3.65-17.49l11.2-17.11a12.66,12.66,0,0,1,17.49-3.65h0a12.66,12.66,0,0,1,3.66,17.48l-11.21,17.12A12.67,12.67,0,0,1,659.23,465Z"/><path class="cls-3" d="M750.71,465.22h0a12.13,12.13,0,0,1-.58,17.09l-8.42,7.86a12.13,12.13,0,0,1-17.09-.59h0a12.13,12.13,0,0,1,.58-17.09l8.42-7.86A12.13,12.13,0,0,1,750.71,465.22Z"/><path class="cls-7" d="M748.26,390.22,720.49,372a12.91,12.91,0,0,0-17.81,3.72h0a12.89,12.89,0,0,0,3.72,17.81l27.77,18.18A12.91,12.91,0,0,0,752,408h0A12.9,12.9,0,0,0,748.26,390.22Z"/><path class="cls-3" d="M735.79,432.74l-9-5.86a14.56,14.56,0,0,0-20.09,4.2h0a14.55,14.55,0,0,0,4.19,20.09l9,5.86A14.56,14.56,0,0,0,740,452.84h0A14.55,14.55,0,0,0,735.79,432.74Z"/><path class="cls-7" d="M734.71,442l-6.39-4.18a10.37,10.37,0,0,0-14.32,3h0a10.37,10.37,0,0,0,3,14.33l6.39,4.18a10.37,10.37,0,0,0,14.32-3h0A10.38,10.38,0,0,0,734.71,442Z"/><path class="cls-3" d="M731.94,446.89h0a14.2,14.2,0,0,0-19.61,4.1l-4,6.16a14.2,14.2,0,0,0,4.1,19.61h0A14.2,14.2,0,0,0,732,472.67l4-6.17A14.2,14.2,0,0,0,731.94,446.89Z"/><path class="cls-3" d="M729.71,458.34h0a12.12,12.12,0,0,1-.59,17.09l-8.41,7.86a12.14,12.14,0,0,1-17.1-.59h0a12.13,12.13,0,0,1,.59-17.09l8.42-7.86A12.13,12.13,0,0,1,729.71,458.34Z"/><path class="cls-7" d="M711.06,213.94h0a14.65,14.65,0,0,1,20.62,1.27L761,248.37A14.64,14.64,0,0,1,759.69,269h0a14.65,14.65,0,0,1-20.62-1.28l-29.29-33.15A14.65,14.65,0,0,1,711.06,213.94Z"/><path class="cls-7" d="M701.23,202.81h0a9.41,9.41,0,0,1,13.25.82l18.84,21.31a9.42,9.42,0,0,1-.83,13.26h0a9.41,9.41,0,0,1-13.25-.82l-18.83-21.32A9.41,9.41,0,0,1,701.23,202.81Z"/><path class="cls-3" d="M295.57,504.94l6.4,11.94a15.49,15.49,0,0,1-6.32,20.91h0a15.49,15.49,0,0,1-20.91-6.32l-6.4-11.94a15.49,15.49,0,0,1,6.32-20.91h0A15.49,15.49,0,0,1,295.57,504.94Z"/><rect class="cls-5" x="238.35" y="486.25" width="51.9" height="36.08" rx="18.04"/><rect class="cls-5" x="159.56" y="482.76" width="109.17" height="59.81" rx="29.9"/><rect class="cls-2" x="145.41" y="514.74" width="39.73" height="29.02" rx="14.51"/><path class="cls-7" d="M155.76,523.07h7.63a10.38,10.38,0,0,1,10.35,10.35h0a10.38,10.38,0,0,1-10.35,10.34h-7.63a10.37,10.37,0,0,1-10.35-10.34h0A10.37,10.37,0,0,1,155.76,523.07Z"/><path class="cls-3" d="M155.39,528.69h0a14.21,14.21,0,0,1,14.17,14.16v7.37a14.22,14.22,0,0,1-14.17,14.17h0a14.21,14.21,0,0,1-14.16-14.17v-7.37A14.2,14.2,0,0,1,155.39,528.69Z"/><path class="cls-7" d="M247.07,610.35c55,0,99.89-12.79,99.89-28.47s-44.87-28.47-99.89-28.47-99.89,12.79-99.89,28.47S192.06,610.35,247.07,610.35Z"/><rect class="cls-2" x="193.82" y="518.36" width="41.5" height="30.32" rx="15.16"/><path class="cls-15" d="M247.07,562.79c37,0,67,8.55,67,19.09s-30,19.08-67,19.08-67-8.54-67-19.08,30-19.09,67-19.09Zm0,2.76c-31.63,0-57.27,7.31-57.27,16.33s25.64,16.32,57.27,16.32,57.28-7.3,57.28-16.32S278.7,565.55,247.07,565.55Z"/><rect class="cls-5" x="237.67" y="518.36" width="41.5" height="30.32" rx="15.16"/><path class="cls-7" d="M268.36,527.06h-8a10.84,10.84,0,0,0-10.81,10.81h0a10.84,10.84,0,0,0,10.81,10.8h8a10.84,10.84,0,0,0,10.81-10.8h0A10.84,10.84,0,0,0,268.36,527.06Z"/><rect class="cls-2" x="253.94" y="532.93" width="29.59" height="37.29" rx="14.8"/><rect class="cls-2" x="255.68" y="543.67" width="25.27" height="45.14" rx="12.63"/><path class="cls-3" d="M151,539.48h0a12.13,12.13,0,0,0-8.87,14.63l2.74,11.18a12.13,12.13,0,0,0,14.62,8.87h0a12.13,12.13,0,0,0,8.87-14.63l-2.74-11.18A12.13,12.13,0,0,0,151,539.48Z"/><rect class="cls-5" x="180.96" y="476.1" width="58.93" height="25.73" rx="12.86"/><rect class="cls-2" x="166.75" y="520.49" width="39.73" height="29.02" rx="14.51"/><path class="cls-7" d="M177.1,528.81h7.63a10.38,10.38,0,0,1,10.35,10.35h0a10.38,10.38,0,0,1-10.35,10.35H177.1a10.38,10.38,0,0,1-10.35-10.35h0A10.38,10.38,0,0,1,177.1,528.81Z"/><path class="cls-3" d="M176.73,534.43h0A14.22,14.22,0,0,1,190.9,548.6V556a14.21,14.21,0,0,1-14.17,14.16h0A14.2,14.2,0,0,1,162.57,556V548.6A14.21,14.21,0,0,1,176.73,534.43Z"/><path class="cls-3" d="M172.33,545.23h0a12.12,12.12,0,0,0-8.87,14.63L166.2,571a12.13,12.13,0,0,0,14.62,8.87h0a12.14,12.14,0,0,0,8.87-14.63L187,554.1A12.13,12.13,0,0,0,172.33,545.23Z"/><path class="cls-7" d="M176.85,526.6l4.34-9.26a4,4,0,0,1,5.27-1.9h0a4,4,0,0,1,1.9,5.26L184,530a4,4,0,0,1-5.27,1.9h0A4,4,0,0,1,176.85,526.6Z"/><path class="cls-7" d="M223.71,527.66l-.41-10.22a4,4,0,0,0-4.12-3.79h0a4,4,0,0,0-3.8,4.12L215.8,528a4,4,0,0,0,4.12,3.79h0A4,4,0,0,0,223.71,527.66Z"/><path class="cls-7" d="M267.67,525.28l-4.93-8.95a4,4,0,0,0-5.38-1.56h0a4,4,0,0,0-1.56,5.37l4.93,9a4,4,0,0,0,5.38,1.56h0A4,4,0,0,0,267.67,525.28Z"/><path class="cls-7" d="M156.1,522.7l3.53-7.54a3.23,3.23,0,0,1,4.28-1.55h0a3.22,3.22,0,0,1,1.55,4.29l-3.53,7.53a3.22,3.22,0,0,1-4.28,1.55h0A3.22,3.22,0,0,1,156.1,522.7Z"/><path class="cls-7" d="M664.75,396.17l7.54-6.89a4,4,0,0,0,.25-5.6h0a4,4,0,0,0-5.59-.25l-7.55,6.9a4,4,0,0,0-.25,5.59h0A4,4,0,0,0,664.75,396.17Z"/><path class="cls-7" d="M701.31,422.42l7.54-6.89a4,4,0,0,0,.26-5.6h0a4,4,0,0,0-5.59-.25l-7.54,6.9a4,4,0,0,0-.25,5.59h0A4,4,0,0,0,701.31,422.42Z"/><path class="cls-7" d="M726.76,441.09l.82-10.18a4,4,0,0,1,4.26-3.63h0a4,4,0,0,1,3.63,4.26l-.81,10.18a4,4,0,0,1-4.27,3.64h0A4,4,0,0,1,726.76,441.09Z"/><path class="cls-7" d="M748.86,446.57l.67-8.31a3.24,3.24,0,0,1,3.48-3h0a3.25,3.25,0,0,1,3,3.48l-.66,8.31a3.26,3.26,0,0,1-3.48,3h0A3.26,3.26,0,0,1,748.86,446.57Z"/><path class="cls-7" d="M649.07,388.71h0a6.6,6.6,0,0,1,1.9,9.1l-5.67,8.65a6.59,6.59,0,0,1-9.1,1.91h0a6.59,6.59,0,0,1-1.9-9.1l5.66-8.65A6.59,6.59,0,0,1,649.07,388.71Z"/><path class="cls-7" d="M690.59,422.81h0a6.59,6.59,0,0,1,1.9,9.1l-5.66,8.66a6.59,6.59,0,0,1-9.1,1.9h0a6.6,6.6,0,0,1-1.9-9.1l5.67-8.66A6.59,6.59,0,0,1,690.59,422.81Z"/><path class="cls-7" d="M268.89,541.52h0a14.83,14.83,0,0,0-14.79,14.8v1.76a16,16,0,0,1,14.79-10h0a16,16,0,0,1,14.8,10v-1.76A14.84,14.84,0,0,0,268.89,541.52Z"/><path class="cls-7" d="M176.05,541.52h0a14.84,14.84,0,0,0-14.79,14.8v1.76a16,16,0,0,1,14.79-10h0a16,16,0,0,1,14.79,10v-1.76A14.84,14.84,0,0,0,176.05,541.52Z"/><polygon class="cls-7" points="530.91 563.24 614.43 563.24 697.96 563.24 782.09 741.99 614.43 741.99 446.78 741.99 530.91 563.24"/><polygon class="cls-4" points="516.6 557.13 600.13 557.13 683.65 557.13 767.78 735.88 600.13 735.88 432.47 735.88 516.6 557.13"/><polygon class="cls-4" points="516.6 557.13 600.13 557.13 683.65 557.13 752.24 702.86 503.12 585.76 516.6 557.13"/><rect class="cls-5" x="492.82" y="85.28" width="196.25" height="54.37" rx="27.19"/><rect class="cls-5" x="492.82" y="85.28" width="110" height="54.37" rx="27.19"/><path class="cls-7" d="M432.78,626.64h0a9.78,9.78,0,0,1-7,13L281.67,675.93a12.52,12.52,0,0,1-14.48-7.64h0a9.76,9.76,0,0,1,7-13L418.3,619A12.51,12.51,0,0,1,432.78,626.64Z"/><path class="cls-7" d="M324.43,653.89h0a5.89,5.89,0,0,1-4.2,7.86L257.6,677.52a7.56,7.56,0,0,1-8.74-4.61h0a5.9,5.9,0,0,1,4.2-7.87l62.63-15.76A7.56,7.56,0,0,1,324.43,653.89Z"/><path class="cls-3" d="M392.06,620h0A10.64,10.64,0,0,1,385,633.24L269.84,668.07A10.65,10.65,0,0,1,256.6,661h0a10.65,10.65,0,0,1,7.09-13.24l115.14-34.83A10.64,10.64,0,0,1,392.06,620Z"/><path class="cls-3" d="M256.46,660.49a10.66,10.66,0,0,1,7.23-12.75l115.14-34.83a10.65,10.65,0,0,1,13.19,7,11.56,11.56,0,0,1-4.19,2.3L262,660.21A11.42,11.42,0,0,1,256.46,660.49Z"/><path class="cls-3" d="M303.43,646.81h0a6.44,6.44,0,0,1-4.28,8l-49.56,15a6.43,6.43,0,0,1-8-4.28h0a6.43,6.43,0,0,1,4.28-8l49.55-15A6.44,6.44,0,0,1,303.43,646.81Z"/><path class="cls-3" d="M851.16,606.6c55,0,99.89-12.79,99.89-28.47s-44.87-28.47-99.89-28.47-99.89,12.79-99.89,28.47S796.14,606.6,851.16,606.6Z"/><path class="cls-4" d="M851.16,597.21c36.88,0,67-8.57,67-19.08S888,559,851.16,559s-67,8.58-67,19.09S814.28,597.21,851.16,597.21Z"/><path class="cls-3" d="M927,708.2c70.28,0,127.59-16.34,127.59-36.37S997.31,635.46,927,635.46,799.44,651.8,799.44,671.83,856.76,708.2,927,708.2Z"/><ellipse class="cls-6" cx="927.03" cy="671.83" rx="85.53" ry="24.38"/><path class="cls-15" d="M927,613.29c47.24,0,85.53,10.91,85.53,24.38S974.27,662,927,662s-85.52-10.91-85.52-24.37S879.8,613.29,927,613.29Zm0,3.53c-40.4,0-73.16,9.33-73.16,20.85s32.76,20.85,73.16,20.85,73.16-9.34,73.16-20.85S967.44,616.82,927,616.82Z"/><path class="cls-3" d="M626.29,265.1v3.24a14.46,14.46,0,0,1-14.42,14.42H583.41A14.46,14.46,0,0,1,569,268.34V265.1a14.46,14.46,0,0,0,14.42,14.42h28.46A14.46,14.46,0,0,0,626.29,265.1Z"/><path class="cls-15" d="M626.29,263.51v3.25a14.46,14.46,0,0,1-14.42,14.42H583.41A14.46,14.46,0,0,1,569,266.76v-3.25a14.46,14.46,0,0,0,14.42,14.42h28.46A14.46,14.46,0,0,0,626.29,263.51Z"/><path class="cls-4" d="M561,239.82c-3,0-4.54,3.51-3.42,7.83s4.46,7.83,7.47,7.83,4.53-3.51,3.41-7.83S564,239.82,561,239.82Z"/><rect class="cls-2" x="492.82" y="85.28" width="77.87" height="54.37" rx="27.19"/><rect class="cls-6" x="205.11" y="49.38" width="60.29" height="4.06"/><rect class="cls-6" x="283.28" y="49.38" width="39" height="4.06"/><rect class="cls-6" x="375.78" y="49.38" width="19.5" height="4.06"/><rect class="cls-6" x="484.72" y="49.38" width="81.63" height="4.06"/><rect class="cls-6" x="607.22" y="49.38" width="356.63" height="4.06"/><rect class="cls-6" x="985.97" y="49.38" width="53.35" height="4.06"/><path class="cls-7" d="M467.71,240.05h0a19,19,0,0,1,5.41,26.2l-29.74,45.23a19,19,0,0,1-26.2,5.41h0a19,19,0,0,1-5.41-26.2l29.74-45.22A19,19,0,0,1,467.71,240.05Z"/><path class="cls-7" d="M409.36,296a18.88,18.88,0,0,1,2.41-5.33l29.74-45.22a17.63,17.63,0,0,1,1.24-1.67,14.39,14.39,0,0,1-1.87,11.63l-22.66,34.46A14.42,14.42,0,0,1,409.36,296Z"/><path class="cls-3" d="M721.81,401.16l-14.88-9.73a6.9,6.9,0,0,0-9.53,2h0a6.91,6.91,0,0,0,2,9.53l14.87,9.74a6.91,6.91,0,0,0,9.54-2h0A6.92,6.92,0,0,0,721.81,401.16Z"/><path class="cls-3" d="M719.19,389.62,713.66,386a2.57,2.57,0,0,0-3.55.74h0a2.58,2.58,0,0,0,.74,3.55l5.53,3.62a2.57,2.57,0,0,0,3.55-.74h0A2.56,2.56,0,0,0,719.19,389.62Z"/><path class="cls-7" d="M619.71,284.73l3.67-1.49c.64-.26,1.15.13,1.15.87h0a2.09,2.09,0,0,1-1.15,1.82l-3.67,1.5c-.64.26-1.16-.14-1.16-.88h0A2.1,2.1,0,0,1,619.71,284.73Z"/><path class="cls-7" d="M619.71,290.37l3.67-1.5c.64-.26,1.15.14,1.15.88h0a2.07,2.07,0,0,1-1.15,1.81l-3.67,1.5c-.64.26-1.16-.13-1.16-.87h0A2.08,2.08,0,0,1,619.71,290.37Z"/><path class="cls-7" d="M576.52,284.73l-3.67-1.49c-.63-.26-1.15.13-1.15.87h0a2.11,2.11,0,0,0,1.15,1.82l3.67,1.5c.64.26,1.16-.14,1.16-.88h0A2.1,2.1,0,0,0,576.52,284.73Z"/><path class="cls-7" d="M576.52,290.37l-3.67-1.5c-.63-.26-1.15.14-1.15.88h0a2.09,2.09,0,0,0,1.15,1.81l3.67,1.5c.64.26,1.16-.13,1.16-.87h0A2.08,2.08,0,0,0,576.52,290.37Z"/><path class="cls-7" d="M632.43,246.93c1.27,0,1.91,1.48,1.44,3.3s-1.88,3.29-3.14,3.29-1.91-1.48-1.44-3.29S631.17,246.93,632.43,246.93Z"/><path class="cls-15" d="M453.65,353.81h270.6Q721,374.59,718,393.76c-1.93,12.26-3.79,24.11-5.58,35.48H470.33q-4.14-17.06-8.6-35.5-4.65-19.12-9.69-39.93Zm266.79,3.27H456.06q4.53,19,8.71,36.66c2.71,11.38,5.31,22.32,7.83,32.93H709.84c1.62-10.61,3.28-21.55,5-32.91Q717.55,376.09,720.44,357.08Z"/><path class="cls-15" d="M481.35,363.46h69.29c.17,1.68.33,3.34.5,5H482.36C482,366.8,481.69,365.14,481.35,363.46Z"/><path class="cls-15" d="M483.77,375.4H501l.85,4.84H484.75C484.42,378.65,484.1,377.06,483.77,375.4Z"/><path class="cls-15" d="M490.32,407.8h16.37c.26,1.47.51,2.93.77,4.38H491.21C490.92,410.73,490.62,409.27,490.32,407.8Z"/><path class="cls-15" d="M515.81,407.8h16.37c.2,1.47.4,2.93.59,4.38H516.52C516.29,410.73,516.05,409.27,515.81,407.8Z"/><path class="cls-15" d="M600.35,407.8h16.37v4.38H600.47Q600.41,410,600.35,407.8Z"/><path class="cls-15" d="M624.06,407.8h8.2c0,1.47-.07,2.93-.11,4.38H624C624,410.73,624.05,409.27,624.06,407.8Z"/><path class="cls-15" d="M851.16,532.3c37,0,67,8.54,67,19.08s-30,19.09-67,19.09-67-8.55-67-19.09,30-19.08,67-19.08Zm0,2.76c-31.63,0-57.28,7.31-57.28,16.32s25.65,16.33,57.28,16.33,57.28-7.31,57.28-16.33S882.79,535.06,851.16,535.06Z"/><path class="cls-7" d="M357.1,630.58h0a5.15,5.15,0,0,1-3.43,6.4L298,653.83a5.15,5.15,0,0,1-6.41-3.43h0A5.16,5.16,0,0,1,295,644l55.7-16.85A5.15,5.15,0,0,1,357.1,630.58Z"/><path class="cls-7" d="M637.45,233.42c-.76,2.91-4.53,3.51-8.44,1.35s-6.46-6.28-5.71-9.19,4.53-3.51,8.43-1.35S638.2,230.51,637.45,233.42Z"/><path class="cls-3" d="M634.7,231.9c-.46,1.78-2.77,2.15-5.16.82s-3.95-3.84-3.49-5.62,2.77-2.14,5.16-.82S635.16,230.12,634.7,231.9Z"/><path class="cls-7" d="M558.77,233.42c.75,2.91,4.53,3.51,8.43,1.35s6.47-6.28,5.71-9.19-4.52-3.51-8.43-1.35S558,230.51,558.77,233.42Z"/><path class="cls-4" d="M561.52,231.9c.46,1.78,2.77,2.15,5.16.82s4-3.84,3.49-5.62-2.77-2.14-5.16-.82S561.06,230.12,561.52,231.9Z"/><path class="cls-3" d="M456.7,245.91h0a14.45,14.45,0,0,1,4.12,20l-22.66,34.46a14.47,14.47,0,0,1-20,4.13h0a14.46,14.46,0,0,1-4.12-20L436.74,250A14.45,14.45,0,0,1,456.7,245.91Z"/><path class="cls-7" d="M716,240.05h0a19,19,0,0,0-5.41,26.2l29.74,45.23a19,19,0,0,0,26.2,5.41h0a19,19,0,0,0,5.41-26.2l-29.75-45.22A19,19,0,0,0,716,240.05Z"/><path class="cls-3" d="M727,245.91h0a14.47,14.47,0,0,0-4.13,20l22.67,34.46a14.47,14.47,0,0,0,20,4.13h0a14.46,14.46,0,0,0,4.12-20L747,250A14.45,14.45,0,0,0,727,245.91Z"/><path class="cls-7" d="M600.11,220.88l11.4,19.73H587.26l12.12-21,.73,1.26ZM604,231l-4.6-8-9.2,15.93h18.4Z"/><path class="cls-7" d="M689.64,313.09a18.84,18.84,0,0,1,14.66,25.39l-14.66-25.39Zm11.85,30.31a18.83,18.83,0,0,1-29.56,0Zm-32.38-4.92a18.87,18.87,0,0,1,14.67-25.39l-14.67,25.39Zm25.35-11.36-7.75-13.43L671.2,340.55h31Z"/><path class="cls-10" d="M945.31,232.48a10,10,0,0,1,7.75,13.42l-7.75-13.42Zm6.26,16a10,10,0,0,1-15.62,0Zm-17.1-2.6a10,10,0,0,1,7.74-13.42l-7.74,13.42Zm13.39-6-4.1-7.1L935.57,247H952Z"/><path class="cls-7" d="M590.14,195.82h15a26.61,26.61,0,0,1,26.54,26.54V225a26.62,26.62,0,0,0-26.54-26.55h-15A26.63,26.63,0,0,0,563.59,225v-2.66A26.62,26.62,0,0,1,590.14,195.82Z"/><path class="cls-15" d="M267.74,592.81h0A14.83,14.83,0,0,1,253,578v-1.76a16,16,0,0,0,14.79,10h0a16,16,0,0,0,14.8-10V578A14.84,14.84,0,0,1,267.74,592.81Z"/><polygon class="cls-15" points="268.74 526.95 272.86 519.82 276.98 512.69 268.74 512.69 260.5 512.69 264.62 519.82 268.74 526.95"/><path class="cls-7" d="M224.51,527.06h-8a10.84,10.84,0,0,0-10.81,10.81h0a10.83,10.83,0,0,0,10.81,10.8h8a10.83,10.83,0,0,0,10.81-10.8h0A10.84,10.84,0,0,0,224.51,527.06Z"/><path class="cls-3" d="M220.22,533.52h0a14.85,14.85,0,0,0-10.61,18l1.94,7.45a14.83,14.83,0,0,0,18,10.61h0a14.84,14.84,0,0,0,10.61-18l-1.93-7.45A14.84,14.84,0,0,0,220.22,533.52Z"/><path class="cls-3" d="M230.23,589.1h0a12.67,12.67,0,0,0,10.49-14.46l-3.23-20.2A12.67,12.67,0,0,0,223,544h0a12.68,12.68,0,0,0-10.49,14.47l3.23,20.2A12.66,12.66,0,0,0,230.23,589.1Z"/><path class="cls-10" d="M915.18,180.58c2.3,0,4.8,3.34,5.58,7.46s-.46,7.46-2.77,7.46-4.8-3.34-5.57-7.46S912.88,180.58,915.18,180.58Z"/><path class="cls-11" d="M971.2,180.58c-2.3,0-4.8,3.34-5.58,7.46s.46,7.46,2.77,7.46,4.8-3.34,5.57-7.46S973.5,180.58,971.2,180.58Z"/><rect class="cls-5" x="909.3" y="125.82" width="68.93" height="68.8" rx="34.4"/><rect class="cls-5" x="910.49" y="128.79" width="46.01" height="45.93" rx="22.96"/><rect class="cls-6" x="912.84" y="130.47" width="17.22" height="17.19" rx="8.59"/><rect class="cls-6" x="908.68" y="149.33" width="5.44" height="5.43" rx="2.72"/><rect class="cls-6" x="17.65" y="49.38" width="39" height="4.06"/><rect class="cls-6" x="288.95" y="89.23" width="39" height="4.06"/><rect class="cls-6" x="816.45" y="89.23" width="39" height="4.06"/><rect class="cls-6" x="873.95" y="89.23" width="8.88" height="4.06"/><rect class="cls-6" x="921.46" y="89.23" width="97.51" height="4.06"/><path class="cls-16" d="M56.41,219.4c2.92,0,5.31-7.16,5.31-15.93s-2.39-15.94-5.31-15.94-5.32,7.16-5.32,15.94S53.48,219.4,56.41,219.4Z"/><ellipse class="cls-1" cx="56.41" cy="233.78" rx="2.55" ry="7.64"/><path class="cls-16" d="M66.72,173.6c1.4,0,2.54-3.43,2.54-7.63s-1.14-7.64-2.54-7.64-2.55,3.43-2.55,7.64S65.32,173.6,66.72,173.6Z"/><path class="cls-16" d="M223.78,377.53c2.93,0,5.32-7.16,5.32-15.94s-2.39-15.94-5.32-15.94-5.31,7.16-5.31,15.94S220.86,377.53,223.78,377.53Z"/><path class="cls-16" d="M166.78,337.72c2.05,0,3.72-5,3.72-11.15s-1.67-11.14-3.72-11.14-3.72,5-3.72,11.14S164.73,337.72,166.78,337.72Z"/><path class="cls-16" d="M166.78,304.34c1.26,0,2.29-3.09,2.29-6.86s-1-6.87-2.29-6.87-2.29,3.09-2.29,6.87S165.52,304.34,166.78,304.34Z"/><path class="cls-16" d="M183.9,212.5c1.26,0,2.29-3.09,2.29-6.87s-1-6.86-2.29-6.86-2.28,3.09-2.28,6.86S182.64,212.5,183.9,212.5Z"/><path class="cls-16" d="M847.22,184.89c2.92,0,5.31-7.16,5.31-15.94S850.14,153,847.22,153s-5.31,7.16-5.31,15.93S844.29,184.89,847.22,184.89Z"/><path class="cls-3" d="M852.26,174c-.7,6.33-2.7,10.89-5,10.89-2.94,0-5.31-7.13-5.31-15.94a45,45,0,0,1,.27-5Z"/><path class="cls-16" d="M829.22,223.61c1.46,0,2.65-3.58,2.65-8s-1.19-8-2.65-8-2.66,3.58-2.66,8S827.75,223.61,829.22,223.61Z"/><path class="cls-16" d="M1116.65,259.16c2.14,0,3.87,5.2,3.87,11.62s-1.73,11.63-3.87,11.63-3.88-5.21-3.88-11.63S1114.51,259.16,1116.65,259.16Z"/><path class="cls-16" d="M1116.65,309.67c1.06,0,1.93-2.6,1.93-5.79s-.87-5.8-1.93-5.8-1.93,2.61-1.93,5.8S1115.58,309.67,1116.65,309.67Z"/><rect class="cls-1" x="81.09" y="116.26" width="3.13" height="70"/><rect class="cls-1" x="62.03" y="116.26" width="3.13" height="21.25"/><rect class="cls-1" x="43.9" y="139.08" width="1.35" height="32.81"/><rect class="cls-1" x="67.75" y="256.73" width="1.36" height="32.81"/><rect class="cls-1" x="24.68" y="304.39" width="3.23" height="213.05"/><rect class="cls-1" x="70.62" y="347.52" width="2.19" height="82.5"/><rect class="cls-6" x="91.56" y="246.89" width="2.19" height="82.5"/><rect class="cls-1" x="182.19" y="124.39" width="2.19" height="38.12"/><rect class="cls-1" x="237.19" y="107.51" width="2.98" height="68.75"/><rect class="cls-6" x="353.82" y="135.64" width="2.98" height="38.12"/><rect class="cls-1" x="353.82" y="183.13" width="2.98" height="38.12"/><rect class="cls-1" x="222.81" y="161.45" width="2.19" height="25.13"/><rect class="cls-1" x="313.75" y="115.25" width="2.19" height="25.13"/><rect class="cls-1" x="331.95" y="167.69" width="2.98" height="38.12"/><rect class="cls-1" x="185.7" y="356.86" width="2.98" height="71.89"/><rect class="cls-1" x="234.88" y="285.32" width="2.98" height="50.94"/><rect class="cls-1" x="76.71" y="456.57" width="2.98" height="50.94"/><rect class="cls-1" x="50.94" y="450.32" width="2.98" height="67.12"/><rect class="cls-1" x="50.94" y="383.76" width="2.98" height="20.63"/><rect class="cls-1" x="336.33" y="263.13" width="2.98" height="38.12"/><rect class="cls-1" x="311.55" y="294.07" width="1.93" height="24.74"/><rect class="cls-1" x="802.82" y="119.07" width="2.98" height="56.75"/><rect class="cls-1" x="834.07" y="250.94" width="2.98" height="50.32"/><rect class="cls-6" x="847.2" y="210.63" width="1.49" height="35.01"/><rect class="cls-1" x="830.08" y="159.69" width="1.49" height="35.01"/><rect class="cls-1" x="817.03" y="242.35" width="1.49" height="15.31"/><rect class="cls-1" x="882.51" y="135" width="1.49" height="59.84"/><rect class="cls-1" x="994.81" y="129.26" width="3.52" height="54.32"/><rect class="cls-1" x="1071.34" y="174.38" width="1.49" height="59.84"/><rect class="cls-1" x="1097.68" y="110.63" width="2.98" height="45.97"/><rect class="cls-6" x="1097.68" y="196.88" width="2.98" height="45.97"/><rect class="cls-1" x="1097.68" y="401.88" width="2.98" height="45.97"/><rect class="cls-1" x="1133.33" y="228.27" width="2.98" height="45.97"/><rect class="cls-1" x="1123.5" y="201.88" width="1.16" height="11.11"/><rect class="cls-1" x="1140.33" y="129.38" width="1.49" height="59.84"/><rect class="cls-6" x="1138.21" y="365" width="1.49" height="59.84"/><rect class="cls-1" x="1122.59" y="343.27" width="2.98" height="45.97"/><rect class="cls-1" x="1143.6" y="296.33" width="2.98" height="28.61"/><rect class="cls-1" x="1097.68" y="295.14" width="2.98" height="45.97"/><rect class="cls-1" x="1138.21" y="491.88" width="1.49" height="14.22"/><rect class="cls-1" x="1131.86" y="187.1" width="1.23" height="11.85"/><rect class="cls-1" x="1102.95" y="161.79" width="1.59" height="15.25"/><rect class="cls-1" x="995.38" y="212.8" width="0.68" height="6.56"/><rect class="cls-2" x="868.48" y="215.63" width="1" height="9.65"/><rect class="cls-1" x="867.45" y="161.12" width="1" height="9.65"/><rect class="cls-2" x="851.2" y="286.43" width="1" height="9.65"/><rect class="cls-2" x="832.83" y="322.85" width="1" height="9.65"/><rect class="cls-1" x="779.55" y="127.31" width="1" height="21.41"/><rect class="cls-1" x="255.95" y="335.94" width="1.49" height="35.01"/><rect class="cls-1" x="280.23" y="115.8" width="2.19" height="29.1"/><rect class="cls-1" x="253.25" y="243.48" width="1.35" height="22.31"/><rect class="cls-1" x="287.43" y="328.02" width="1.35" height="23.59"/><rect class="cls-1" x="1077.58" y="416.26" width="1.68" height="16.18"/><rect class="cls-1" x="1106.28" y="470" width="1.49" height="34.22"/><path class="cls-16" d="M84.05,369.16c2.26,0,4.1-5.52,4.1-12.3s-1.84-12.3-4.1-12.3-4.1,5.53-4.1,12.3S81.79,369.16,84.05,369.16Z"/><path class="cls-16" d="M84.05,386.15c1.08,0,2-2.64,2-5.89s-.88-5.9-2-5.9-2,2.65-2,5.9S83,386.15,84.05,386.15Z"/><path class="cls-16" d="M228.47,277.46c1.08,0,2-2.65,2-5.89s-.88-5.9-2-5.9-2,2.65-2,5.9S227.38,277.46,228.47,277.46Z"/><rect class="cls-6" x="23.47" y="170.95" width="1.35" height="69.36"/><rect class="cls-6" x="974.72" y="109.69" width="1.46" height="14.03"/><rect class="cls-1" x="906.6" y="111.64" width="0.58" height="5.56"/><rect class="cls-1" x="1120.06" y="123.44" width="1.92" height="18.4"/><path class="cls-16" d="M254,149.14c1.56,0,2.84-3.82,2.84-8.51s-1.28-8.51-2.84-8.51-2.83,3.83-2.83,8.51S252.48,149.14,254,149.14Z"/><path class="cls-16" d="M254,123.65c1,0,1.75-2.35,1.75-5.23s-.79-5.24-1.75-5.24-1.74,2.35-1.74,5.24S253.08,123.65,254,123.65Z"/><rect class="cls-1" x="236.6" y="382.82" width="1.93" height="24.74"/><rect class="cls-1" x="236.6" y="358.13" width="1.93" height="5.62"/><rect class="cls-1" x="237.19" y="192.03" width="2.98" height="10.32"/><rect class="cls-1" x="81.09" y="212.66" width="3.13" height="12.82"/><rect class="cls-1" x="23.47" y="147.04" width="1.35" height="12.18"/><rect class="cls-1" x="46.29" y="267.2" width="2.91" height="70.47"/><rect class="cls-1" x="1113.21" y="154.14" width="1.49" height="15.79"/><rect class="cls-1" x="1113.21" y="194.54" width="1.49" height="22.88"/><rect class="cls-6" x="1139.34" y="341.02" width="1.49" height="15.79"/><path class="cls-4" d="M63.88,507.7a4.23,4.23,0,1,0-4.22-4.23A4.24,4.24,0,0,0,63.88,507.7Z"/><path class="cls-4" d="M60,488.78a2.12,2.12,0,1,0-2.12-2.11A2.12,2.12,0,0,0,60,488.78Z"/><circle class="cls-6" cx="72.67" cy="483.67" r="2.11"/><path class="cls-4" d="M37.74,505.14A2.12,2.12,0,1,0,35.62,503,2.12,2.12,0,0,0,37.74,505.14Z"/><path class="cls-16" d="M171.28,422.8a2.41,2.41,0,1,0-2.42-2.41A2.41,2.41,0,0,0,171.28,422.8Z"/><path class="cls-16" d="M178.36,403.53a.75.75,0,0,0,.74-.75.75.75,0,0,0-1.49,0A.76.76,0,0,0,178.36,403.53Z"/><path class="cls-16" d="M216,426.26a.75.75,0,0,0,.75-.74.75.75,0,1,0-1.49,0A.74.74,0,0,0,216,426.26Z"/><path class="cls-16" d="M220.66,235.54a2.41,2.41,0,1,0-2.41-2.41A2.41,2.41,0,0,0,220.66,235.54Z"/><path class="cls-16" d="M213.52,225.77a3.71,3.71,0,1,0-3.71-3.71A3.71,3.71,0,0,0,213.52,225.77Z"/><path class="cls-16" d="M231,215.81a1.86,1.86,0,1,0-1.86-1.85A1.85,1.85,0,0,0,231,215.81Z"/><path class="cls-4" d="M816.27,141.72a3.71,3.71,0,1,0-3.7-3.71A3.72,3.72,0,0,0,816.27,141.72Z"/><path class="cls-4" d="M827,144.39a.71.71,0,1,0,0-1.42.71.71,0,0,0,0,1.42Z"/><path class="cls-4" d="M820.68,148.18a1.26,1.26,0,0,0,0-2.52,1.26,1.26,0,1,0,0,2.52Z"/><path class="cls-4" d="M833.78,122.83a1.26,1.26,0,1,0-1.26-1.26A1.27,1.27,0,0,0,833.78,122.83Z"/><path class="cls-16" d="M850,194.39a1.26,1.26,0,1,0-1.26-1.26A1.26,1.26,0,0,0,850,194.39Z"/><path class="cls-16" d="M1132.93,451.75a3.71,3.71,0,1,0-3.7-3.7A3.71,3.71,0,0,0,1132.93,451.75Z"/><path class="cls-16" d="M1097.31,497.38a1.86,1.86,0,1,0-1.85-1.86A1.86,1.86,0,0,0,1097.31,497.38Z"/><path class="cls-16" d="M1074.72,479a1.63,1.63,0,1,0-1.63-1.63A1.64,1.64,0,0,0,1074.72,479Z"/><rect class="cls-1" x="1114.88" y="484.15" width="1.49" height="19.86"/><rect class="cls-1" x="1114.88" y="444.77" width="1.49" height="9.93"/><path class="cls-16" d="M1077.23,276.54a1.95,1.95,0,1,0-2-2A2,2,0,0,0,1077.23,276.54Z"/><path class="cls-16" d="M1098,251.55a1,1,0,1,0-1-1A1,1,0,0,0,1098,251.55Z"/><rect class="cls-1" x="1071.34" y="140.58" width="1.49" height="20.54"/><rect class="cls-1" x="1073.48" y="344.11" width="2.98" height="45.97"/><rect class="cls-1" x="373.09" y="124.38" width="2.19" height="17.72"/><rect class="cls-1" x="373.09" y="195.85" width="2.19" height="8.86"/><rect class="cls-1" x="385.9" y="130.22" width="1.09" height="30"/><rect class="cls-1" x="182.78" y="228.66" width="1.09" height="71.25"/><rect class="cls-1" x="237.78" y="209.91" width="1.09" height="71.25"/><rect class="cls-1" x="355.44" y="238.03" width="1.87" height="37.19"/><rect class="cls-1" x="337.31" y="123.14" width="2.19" height="8.86"/><rect class="cls-1" x="445.69" y="57.67" width="2.98" height="38.12"/><rect class="cls-1" x="440.92" y="37.59" width="1.09" height="14"/><rect class="cls-1" x="1148.94" y="233.82" width="1.42" height="43.42"/><rect class="cls-1" x="1148.94" y="210.7" width="1.42" height="12.79"/><rect class="cls-1" x="268.06" y="264.26" width="1.35" height="36.17"/><rect class="cls-6" x="1085.27" y="49.38" width="53.35" height="4.06"/><path class="cls-4" d="M36.26,463.16a1.06,1.06,0,1,0-1-1.06A1.06,1.06,0,0,0,36.26,463.16Z"/><path class="cls-15" d="M280.94,299.43l14.93,25.85H264.11L280,297.78l.95,1.65Zm5.07,13.2-6-10.44-12.05,20.87H292Z"/><rect class="cls-1" x="302.42" y="163.32" width="1.26" height="42.99"/><rect class="cls-1" x="268.82" y="181.76" width="1.26" height="42.99"/><rect class="cls-6" x="263.48" y="242.21" width="16.51" height="3.27"/><rect class="cls-6" x="263.47" y="249.55" width="33.02" height="3.27"/><rect class="cls-6" x="263.47" y="256.89" width="33.02" height="3.27"/><rect class="cls-6" x="285.33" y="264.23" width="5.59" height="3.27"/><path class="cls-4" d="M247,231.3h7.33v2.06h-6.3v49.17h6.3v2.06H246V231.3Zm60.57,0h8.35v53.29h-8.35v-2.06h6.3V233.36h-6.3Z"/><path class="cls-4" d="M261.84,186.66h28l-7.77-7.77H261.84V173h14.29l-7.83-7.83V152.36h15.59v12.78h-7.21l7.83,7.83H298.2v5.92h-7.76l7.76,7.77v11.85h-28l17.33,17.34v-7.64h10.14v16H287.55l-25.71-25.72V186.66Zm0-34.3v12.78h3.53V152.36Zm27.86,0v12.78h8.5V152.36Z"/></g></g></svg>