<svg xmlns="http://www.w3.org/2000/svg" viewBox="0 0 153.27 276.15"><defs><style>.cls-1{fill:#eb8b23;}.cls-1,.cls-2,.cls-3,.cls-4{fill-rule:evenodd;}.cls-2{fill:#c5c5c6;}.cls-3{fill:#f6cc1b;}.cls-4{fill:#bcbec0;}</style></defs><g id="Layer_2" data-name="Layer 2"><g id="Layer_1-2" data-name="Layer 1"><path class="cls-1" d="M95,14.45l-18.55,5,59.66,222.66,6.81-1.83c.26,7,1.25,31.9,2.29,35.79l-9.1-34,9.28-2.49a9.63,9.63,0,0,0,6.79-11.76Z"/><path class="cls-1" d="M153.27,90.52a11.85,11.85,0,0,1-11.81,11.81H14.25A11.83,11.83,0,0,1,2.44,90.52H7.28a7,7,0,0,0,7,7H141.46a7,7,0,0,0,7-7Z"/><path class="cls-1" d="M14.25,78.71H141.46a11.83,11.83,0,0,1,11.81,11.81h-4.84a7,7,0,0,0-7-7H14.25a7,7,0,0,0-7,7H2.44A11.81,11.81,0,0,1,14.25,78.71Z"/><path class="cls-2" d="M73.89,11.45a8.37,8.37,0,1,0,10.25,5.92A8.36,8.36,0,0,0,73.89,11.45Z"/><path class="cls-1" d="M81.55.67a19.64,19.64,0,1,1-24,13.89A19.65,19.65,0,0,1,81.55.67Z"/><path class="cls-3" d="M57.5,14.56l18.56,5L16.4,242.19l-6.81-1.83c-.26,7-1.25,31.9-2.29,35.79l9.1-34L7.12,239.7A9.63,9.63,0,0,1,.33,227.94Z"/><path class="cls-3" d="M80,6.53a13.57,13.57,0,1,1-16.62,9.6A13.57,13.57,0,0,1,80,6.53Z"/><path class="cls-1" d="M46.7,75.37A14.94,14.94,0,1,1,31.76,90.31,14.94,14.94,0,0,1,46.7,75.37Z"/><path class="cls-4" d="M83.44,15.11A8.05,8.05,0,0,1,72,25.81L83.14,14.62l.3.49ZM69.8,23.67,81,12.48a8.06,8.06,0,0,0-11.5,10.69C69.59,23.34,69.69,23.51,69.8,23.67Z"/><path class="cls-4" d="M53.54,86.31A8.06,8.06,0,0,1,42,97L53.23,85.82l.31.49ZM39.9,94.86,51.08,83.67A8,8,0,0,0,39.59,94.36,4.19,4.19,0,0,0,39.9,94.86Z"/></g></g></svg>