<svg xmlns="http://www.w3.org/2000/svg" xmlns:xlink="http://www.w3.org/1999/xlink" viewBox="0 0 1825.69 1868.78"><defs><style>.cls-1{isolation:isolate;}.cls-2{fill:#5f2d78;stroke:#fff;}.cls-10,.cls-11,.cls-12,.cls-13,.cls-14,.cls-15,.cls-16,.cls-17,.cls-18,.cls-2,.cls-20,.cls-21,.cls-22,.cls-23,.cls-24,.cls-25,.cls-26,.cls-27,.cls-28,.cls-3,.cls-30,.cls-31,.cls-32,.cls-33,.cls-34,.cls-35,.cls-36,.cls-37,.cls-38,.cls-39,.cls-4,.cls-40,.cls-41,.cls-42,.cls-43,.cls-44,.cls-45,.cls-46,.cls-47,.cls-48,.cls-49,.cls-5,.cls-50,.cls-51,.cls-52,.cls-53,.cls-54,.cls-55,.cls-56,.cls-57,.cls-58,.cls-59,.cls-6,.cls-60,.cls-61,.cls-62,.cls-63,.cls-64,.cls-65,.cls-66,.cls-67,.cls-68,.cls-69,.cls-7,.cls-70,.cls-8,.cls-9{stroke-miterlimit:10;stroke-width:3px;}.cls-10,.cls-11,.cls-12,.cls-13,.cls-14,.cls-15,.cls-16,.cls-17,.cls-18,.cls-20,.cls-21,.cls-22,.cls-23,.cls-24,.cls-25,.cls-26,.cls-27,.cls-28,.cls-3,.cls-30,.cls-31,.cls-32,.cls-33,.cls-34,.cls-35,.cls-36,.cls-37,.cls-38,.cls-39,.cls-4,.cls-40,.cls-41,.cls-42,.cls-43,.cls-44,.cls-45,.cls-46,.cls-47,.cls-48,.cls-49,.cls-5,.cls-50,.cls-51,.cls-52,.cls-53,.cls-54,.cls-55,.cls-56,.cls-57,.cls-58,.cls-59,.cls-6,.cls-60,.cls-61,.cls-62,.cls-63,.cls-64,.cls-65,.cls-66,.cls-67,.cls-68,.cls-69,.cls-7,.cls-70,.cls-8,.cls-9{stroke:#5f2d78;}.cls-3{fill:url(#New_Gradient_Swatch_1);}.cls-4{fill:url(#New_Gradient_Swatch_1-2);}.cls-5{fill:url(#New_Gradient_Swatch_1-3);}.cls-6{fill:url(#linear-gradient);}.cls-7{fill:url(#linear-gradient-2);}.cls-8{fill:url(#linear-gradient-3);}.cls-9{opacity:0.25;fill:url(#linear-gradient-4);}.cls-15,.cls-19,.cls-27,.cls-29,.cls-33,.cls-69,.cls-9{mix-blend-mode:multiply;}.cls-10{fill:url(#linear-gradient-5);}.cls-11{fill:url(#linear-gradient-6);}.cls-12{fill:url(#linear-gradient-7);}.cls-13{fill:url(#linear-gradient-8);}.cls-14{fill:url(#linear-gradient-9);}.cls-15{opacity:0.4;fill:url(#linear-gradient-10);}.cls-16{fill:url(#linear-gradient-11);}.cls-17{fill:url(#linear-gradient-12);}.cls-18{fill:url(#linear-gradient-13);}.cls-19,.cls-27,.cls-69{opacity:0.3;}.cls-20{fill:url(#linear-gradient-14);}.cls-21{fill:url(#linear-gradient-15);}.cls-22{fill:url(#linear-gradient-16);}.cls-23{fill:url(#linear-gradient-17);}.cls-24{fill:url(#linear-gradient-18);}.cls-25{fill:url(#linear-gradient-19);}.cls-26{fill:url(#linear-gradient-20);}.cls-27{fill:url(#linear-gradient-21);}.cls-28{fill:url(#linear-gradient-22);}.cls-29{opacity:0.2;}.cls-30{fill:url(#linear-gradient-23);}.cls-31{fill:url(#linear-gradient-24);}.cls-32{fill:url(#linear-gradient-25);}.cls-33{opacity:0.1;fill:url(#linear-gradient-26);}.cls-34{fill:url(#linear-gradient-27);}.cls-35{fill:url(#linear-gradient-28);}.cls-36{fill:url(#linear-gradient-29);}.cls-37{fill:url(#linear-gradient-30);}.cls-38{fill:url(#linear-gradient-31);}.cls-39{fill:url(#linear-gradient-32);}.cls-40{fill:url(#linear-gradient-33);}.cls-41{fill:url(#linear-gradient-34);}.cls-42{fill:url(#linear-gradient-35);}.cls-43{fill:url(#linear-gradient-36);}.cls-44{fill:url(#linear-gradient-37);}.cls-45{fill:url(#linear-gradient-38);}.cls-46{fill:url(#linear-gradient-39);}.cls-47{fill:url(#linear-gradient-40);}.cls-48{fill:url(#linear-gradient-41);}.cls-49{fill:#24205b;}.cls-50{fill:url(#linear-gradient-42);}.cls-51{fill:#af206e;}.cls-52{fill:url(#linear-gradient-43);}.cls-53{fill:url(#New_Gradient_Swatch_5);}.cls-54{fill:url(#New_Gradient_Swatch_5-2);}.cls-55{fill:url(#New_Gradient_Swatch_5-3);}.cls-56,.cls-65,.cls-70{fill:#fff;}.cls-56{opacity:0.75;}.cls-57{fill:url(#linear-gradient-44);}.cls-58{fill:url(#linear-gradient-45);}.cls-59{fill:url(#linear-gradient-46);}.cls-60{fill:url(#linear-gradient-47);}.cls-61{fill:url(#linear-gradient-48);}.cls-62{fill:url(#linear-gradient-49);}.cls-63{fill:url(#linear-gradient-50);}.cls-64{fill:url(#linear-gradient-51);}.cls-65{opacity:0.5;}.cls-65,.cls-70{mix-blend-mode:soft-light;}.cls-66{fill:url(#linear-gradient-52);}.cls-67{fill:url(#linear-gradient-53);}.cls-68{fill:url(#linear-gradient-54);}.cls-69{fill:url(#linear-gradient-55);}.cls-70{opacity:0.44;}</style><linearGradient id="New_Gradient_Swatch_1" x1="318.86" y1="745.53" x2="1397.32" y2="745.53" gradientUnits="userSpaceOnUse"><stop offset="0" stop-color="#5f2d78"/><stop offset="1" stop-color="#af206e"/></linearGradient><linearGradient id="New_Gradient_Swatch_1-2" x1="931.38" y1="742.76" x2="1397.32" y2="742.76" xlink:href="#New_Gradient_Swatch_1"/><linearGradient id="New_Gradient_Swatch_1-3" x1="361.98" y1="739.71" x2="1440.44" y2="739.71" xlink:href="#New_Gradient_Swatch_1"/><linearGradient id="linear-gradient" x1="-185.2" y1="1821.23" x2="-115.57" y2="1821.23" gradientTransform="matrix(-1, -0.05, -0.05, 1, 428.68, -30.09)" gradientUnits="userSpaceOnUse"><stop offset="0" stop-color="#e54355"/><stop offset="1" stop-color="#5f2d78"/></linearGradient><linearGradient id="linear-gradient-2" x1="-52.26" y1="1841.48" x2="17.37" y2="1841.48" xlink:href="#linear-gradient"/><linearGradient id="linear-gradient-3" x1="-299.06" y1="1320.56" x2="124.23" y2="1320.56" gradientTransform="matrix(-1, -0.05, -0.05, 1, 428.68, -30.09)" gradientUnits="userSpaceOnUse"><stop offset="0" stop-color="#5f2d78"/><stop offset="1" stop-color="#24205b"/></linearGradient><linearGradient id="linear-gradient-4" x1="-289.17" y1="1306.79" x2="119.72" y2="1306.79" gradientTransform="matrix(-1, 0.07, 0.07, 1, 298.38, -13.3)" xlink:href="#linear-gradient-3"/><linearGradient id="linear-gradient-5" x1="552.9" y1="557.61" x2="-241.9" y2="138.76" gradientTransform="matrix(-1, 0, 0, 1, 370.01, 0)" gradientUnits="userSpaceOnUse"><stop offset="0" stop-color="#2e1a47"/><stop offset="1" stop-color="#5f2d78"/></linearGradient><linearGradient id="linear-gradient-6" x1="-380.81" y1="405.41" x2="17.79" y2="582.57" gradientTransform="matrix(-0.99, 0.11, 0.11, 0.99, 550.9, -9.56)" gradientUnits="userSpaceOnUse"><stop offset="0" stop-color="#eb8b23"/><stop offset="1" stop-color="#e54355"/></linearGradient><linearGradient id="linear-gradient-7" x1="543.83" y1="574.82" x2="-250.97" y2="155.98" xlink:href="#linear-gradient-5"/><linearGradient id="linear-gradient-8" x1="-258.47" y1="543.35" x2="353.89" y2="1097.39" gradientTransform="matrix(-1, 0, 0, 1, 376.82, 0)" xlink:href="#linear-gradient-6"/><linearGradient id="linear-gradient-9" x1="1308.02" y1="344.59" x2="1320.7" y2="6.89" gradientTransform="matrix(1, 0.09, -0.09, 1, -807.37, -2.56)" gradientUnits="userSpaceOnUse"><stop offset="0" stop-color="#f6cc1b"/><stop offset="1" stop-color="#eb8b23"/></linearGradient><linearGradient id="linear-gradient-10" x1="-98.74" y1="407.12" x2="-88.36" y2="130.56" gradientTransform="matrix(-1, 0, 0, 1, 370.01, 0)" xlink:href="#linear-gradient-9"/><linearGradient id="linear-gradient-11" x1="1100.18" y1="168.73" x2="1096.76" y2="444.2" gradientTransform="matrix(1, 0, 0, 1.04, -584.99, -6.22)" xlink:href="#linear-gradient-9"/><linearGradient id="linear-gradient-12" x1="570.4" y1="524.42" x2="-224.4" y2="105.57" xlink:href="#linear-gradient-5"/><linearGradient id="linear-gradient-13" x1="-573.3" y1="557.88" x2="-492.69" y2="630.82" gradientTransform="matrix(-1, 0, 0, 1, 376.82, 0)" xlink:href="#linear-gradient-9"/><linearGradient id="linear-gradient-14" x1="-292.08" y1="580.5" x2="320.28" y2="1134.54" gradientTransform="matrix(-1, 0, 0, 1, 376.82, 0)" xlink:href="#linear-gradient-6"/><linearGradient id="linear-gradient-15" x1="491.07" y1="1108.07" x2="500.29" y2="970.78" gradientTransform="matrix(-1, 0.06, 0.06, 1, 582.66, -70.12)" xlink:href="#linear-gradient-9"/><linearGradient id="linear-gradient-16" x1="434.68" y1="1061.79" x2="441.28" y2="963.56" gradientTransform="matrix(-1, 0.06, 0.06, 1, 582.66, -70.12)" gradientUnits="userSpaceOnUse"><stop offset="0.1" stop-color="#2e1a47"/><stop offset="0.34" stop-color="#341c4d"/><stop offset="0.64" stop-color="#43225c"/><stop offset="0.98" stop-color="#5d2c76"/><stop offset="1" stop-color="#5f2d78"/></linearGradient><linearGradient id="linear-gradient-17" x1="393.27" y1="991.16" x2="467.43" y2="1030.92" xlink:href="#linear-gradient-16"/><linearGradient id="linear-gradient-18" x1="370.83" y1="1124.74" x2="381.34" y2="968.27" gradientTransform="matrix(-1, 0.06, 0.06, 1, 582.66, -70.12)" xlink:href="#linear-gradient-9"/><linearGradient id="linear-gradient-19" x1="276.86" y1="1112.65" x2="235.88" y2="738.01" gradientTransform="matrix(-1, 0.06, 0.06, 1, 582.66, -70.12)" gradientUnits="userSpaceOnUse"><stop offset="0.1" stop-color="#2e1a47"/><stop offset="0.47" stop-color="#44225d"/><stop offset="1" stop-color="#5f2d78"/></linearGradient><linearGradient id="linear-gradient-20" x1="459.98" y1="1270.12" x2="182.55" y2="1115.64" gradientTransform="matrix(-1, 0.06, 0.06, 1, 582.66, -70.12)" xlink:href="#linear-gradient-5"/><linearGradient id="linear-gradient-21" x1="210.21" y1="1057.07" x2="292.68" y2="1195.36" gradientTransform="matrix(-1, 0.06, 0.06, 1, 582.66, -70.12)" xlink:href="#linear-gradient-5"/><linearGradient id="linear-gradient-22" x1="445.76" y1="891.65" x2="475.71" y2="1293.62" xlink:href="#linear-gradient-19"/><linearGradient id="linear-gradient-23" x1="380.97" y1="1111.72" x2="630.88" y2="1304.28" gradientTransform="matrix(-1, 0.06, 0.06, 1, 582.66, -70.12)" xlink:href="#linear-gradient-5"/><linearGradient id="linear-gradient-24" x1="315.52" y1="1097.62" x2="422.83" y2="1093.45" xlink:href="#linear-gradient-19"/><linearGradient id="linear-gradient-25" x1="479" y1="1418.16" x2="445.89" y2="1046.14" xlink:href="#linear-gradient-16"/><linearGradient id="linear-gradient-26" x1="495.33" y1="1506.23" x2="438.94" y2="990.77" gradientTransform="matrix(-1, 0.06, 0.06, 1, 582.66, -70.12)" xlink:href="#linear-gradient-5"/><linearGradient id="linear-gradient-27" x1="582.76" y1="1236.65" x2="398.83" y2="1140.5" gradientTransform="matrix(-1, 0.06, 0.06, 1, 582.66, -70.12)" xlink:href="#linear-gradient-9"/><linearGradient id="linear-gradient-28" x1="417.35" y1="1155.27" x2="606.85" y2="1223.08" gradientTransform="matrix(-1, 0.06, 0.06, 1, 582.66, -70.12)" xlink:href="#linear-gradient-9"/><linearGradient id="linear-gradient-29" x1="418.9" y1="959.89" x2="489.6" y2="1023.85" gradientTransform="matrix(-1, 0.06, 0.06, 1, 582.66, -70.12)" xlink:href="#linear-gradient-9"/><linearGradient id="linear-gradient-30" x1="1236.71" y1="408.03" x2="1999.41" y2="1098.09" gradientTransform="matrix(-0.92, 0.38, 0.38, 0.92, 1350.75, -530.82)" xlink:href="#linear-gradient-6"/><linearGradient id="linear-gradient-31" x1="1090.46" y1="508.64" x2="1202.61" y2="649.74" gradientTransform="translate(-210.87)" xlink:href="#linear-gradient-9"/><linearGradient id="linear-gradient-32" x1="-1393.17" y1="893.29" x2="-1090.66" y2="440.99" gradientTransform="matrix(-1, 0, 0, 1, 376.82, 0)" gradientUnits="userSpaceOnUse"><stop offset="0" stop-color="#eb8b23"/><stop offset="1" stop-color="#5f2d78"/></linearGradient><linearGradient id="linear-gradient-33" x1="1585.38" y1="1962.83" x2="1636.68" y2="2008.46" gradientTransform="translate(-191.79 64.07) rotate(-8.05)" xlink:href="#linear-gradient-3"/><linearGradient id="linear-gradient-34" x1="709.53" y1="2008.53" x2="709.53" y2="1919.16" gradientTransform="translate(724.41 -65.45) rotate(-8.05)" xlink:href="#linear-gradient-9"/><linearGradient id="linear-gradient-35" x1="1590.54" y1="1957.03" x2="1641.84" y2="2002.66" gradientTransform="translate(-191.79 64.07) rotate(-8.05)" xlink:href="#linear-gradient-3"/><linearGradient id="linear-gradient-36" x1="1500.64" y1="1814.07" x2="1551.94" y2="1859.7" gradientTransform="translate(-210.87)" xlink:href="#linear-gradient-3"/><linearGradient id="linear-gradient-37" x1="624.75" y1="1859.79" x2="624.75" y2="1770.42" gradientTransform="translate(714.44)" xlink:href="#linear-gradient-9"/><linearGradient id="linear-gradient-38" x1="-1179.84" y1="1900.77" x2="-1514.35" y2="550.2" gradientTransform="matrix(-1, 0, 0, 1, 155.13, 0)" xlink:href="#linear-gradient-3"/><linearGradient id="linear-gradient-39" x1="1997.39" y1="856.03" x2="1279.35" y2="356.66" gradientTransform="translate(-210.87)" xlink:href="#linear-gradient-32"/><linearGradient id="linear-gradient-40" x1="1505.8" y1="1808.27" x2="1557.1" y2="1853.9" gradientTransform="translate(-210.87)" xlink:href="#linear-gradient-3"/><linearGradient id="linear-gradient-41" x1="1551.1" y1="186.44" x2="1828.9" y2="535.96" gradientTransform="translate(-210.87)" xlink:href="#linear-gradient-9"/><linearGradient id="linear-gradient-42" x1="1562.81" y1="177.13" x2="1840.62" y2="526.65" gradientTransform="translate(-210.87)" xlink:href="#linear-gradient-9"/><linearGradient id="linear-gradient-43" x1="-526" y1="49.19" x2="-916.63" y2="721.77" xlink:href="#linear-gradient-32"/><linearGradient id="New_Gradient_Swatch_5" x1="735.64" y1="1584.33" x2="1190.42" y2="1584.33" gradientUnits="userSpaceOnUse"><stop offset="0" stop-color="#140a23"/><stop offset="1" stop-color="#2e1a47"/></linearGradient><linearGradient id="New_Gradient_Swatch_5-2" x1="993.93" y1="1583.16" x2="1190.42" y2="1583.16" xlink:href="#New_Gradient_Swatch_5"/><linearGradient id="New_Gradient_Swatch_5-3" x1="753.82" y1="1581.88" x2="1208.6" y2="1581.88" xlink:href="#New_Gradient_Swatch_5"/><linearGradient id="linear-gradient-44" x1="925.64" y1="486.46" x2="928.51" y2="463.54" gradientUnits="userSpaceOnUse"><stop offset="0" stop-color="#2e1a47"/><stop offset="1" stop-color="#af206e"/></linearGradient><linearGradient id="linear-gradient-45" x1="913.86" y1="465.57" x2="942.51" y2="414.01" xlink:href="#linear-gradient-44"/><linearGradient id="linear-gradient-46" x1="881.46" y1="441.14" x2="976.54" y2="441.14" xlink:href="#linear-gradient-44"/><linearGradient id="linear-gradient-47" x1="916.59" y1="451.48" x2="944.87" y2="397.05" xlink:href="#linear-gradient-44"/><linearGradient id="linear-gradient-48" x1="877.2" y1="425.11" x2="980.75" y2="425.11" xlink:href="#linear-gradient-44"/><linearGradient id="linear-gradient-49" x1="875.67" y1="406.4" x2="982.33" y2="406.4" xlink:href="#linear-gradient-44"/><linearGradient id="linear-gradient-50" x1="926.35" y1="398.36" x2="936.86" y2="349.18" xlink:href="#linear-gradient-44"/><linearGradient id="linear-gradient-51" x1="906.18" y1="123.97" x2="1114.57" y2="454.81" gradientUnits="userSpaceOnUse"><stop offset="0" stop-color="#f6cc1b"/><stop offset="0.05" stop-color="#f6cc1b"/><stop offset="0.32" stop-color="#f6cc1b"/><stop offset="0.45" stop-color="#f4c11c"/><stop offset="0.69" stop-color="#efa420"/><stop offset="0.87" stop-color="#eb8b23"/><stop offset="1" stop-color="#eb8b23"/></linearGradient><linearGradient id="linear-gradient-52" x1="868.11" y1="378.71" x2="910.6" y2="254.58" gradientUnits="userSpaceOnUse"><stop offset="0.49" stop-color="#fff"/><stop offset="1" stop-color="#fff"/></linearGradient><linearGradient id="linear-gradient-53" x1="908.73" y1="392.62" x2="951.23" y2="268.49" xlink:href="#linear-gradient-52"/><linearGradient id="linear-gradient-54" x1="853.32" y1="373.65" x2="895.81" y2="249.52" xlink:href="#linear-gradient-52"/><linearGradient id="linear-gradient-55" x1="913.49" y1="49.4" x2="871.96" y2="391.71" xlink:href="#linear-gradient-51"/></defs><g class="cls-1"><g id="Layer_2" data-name="Layer 2"><g id="Layer_1-2" data-name="Layer 1"><path class="cls-2" d="M1767.35,307.31c19.49,1.64,36.73-14.14,38.51-35.25s-12.58-39.54-32.07-41.18c-1-.09-2-.1-3-.09a222,222,0,0,0-5.07-32c.92-.38,1.84-.77,2.75-1.24,17.77-9.13,25.53-32,17.32-51.12s-29.27-27.18-47-18.05c-.92.48-1.81,1-2.68,1.57a203.07,203.07,0,0,0-19.22-24.68c.64-.84,1.28-1.7,1.87-2.61,11.29-17.46,7.47-41.32-8.52-53.3s-38.11-7.52-49.39,9.93c-.58.9-1.09,1.82-1.59,2.74A180.22,180.22,0,0,0,1631,51.29c.17-1.07.33-2.14.42-3.23C1633.2,27,1637,3.12,1617.53,1.79c-45.15-3.09-54.92,19.22-56.7,40.32-.09,1.1-.11,2.18-.12,3.26a180.41,180.41,0,0,0-29.62,5.91c-.34-1-.69-2-1.11-3-8.2-19.09-6.72-31.84-25.38-24.68-40.67,15.61-47.17,38.65-39,57.75.43,1,.92,2,1.41,2.89A202.51,202.51,0,0,0,1444,105.39c-.77-.69-1.56-1.37-2.39-2-16-12-38.11-7.54-49.39,9.92s-7.47,41.32,8.52,53.3c.82.61,1.66,1.15,2.51,1.68A220.9,220.9,0,0,0,1392.87,199c-1-.17-2-.33-3-.42-19.49-1.64-36.73,14.14-38.51,35.25S1364,273.33,1383.46,275c1,.08,2,.09,3,.08a220.62,220.62,0,0,0,5.08,32c-.93.38-1.85.77-2.76,1.24-17.77,9.13-25.52,32-17.32,51.12s29.27,27.18,47,18.05c.93-.48,1.81-1,2.68-1.57a204.06,204.06,0,0,0,19.22,24.68c-.64.84-1.28,1.7-1.87,2.61-11.28,17.46-7.47,41.32,8.52,53.29s50.61,6.5,61.9-11c.58-.89-11.41-.78-10.92-1.7a180.33,180.33,0,0,0,28.22,10.78c-.18,1.07-.34,2.14-.43,3.23-1.78,21.11,12.59,39.55,32.08,41.19s36.73-14.14,38.51-35.24c.09-1.1.11-2.18.12-3.26a180.2,180.2,0,0,0,29.62-5.91c.34,1,.69,2,1.11,3,8.21,19.09,29.26,27.18,47,18s25.53-32,17.32-51.11c-.43-1-.91-2-1.41-2.89a202.61,202.61,0,0,0,23.08-21.12c.77.69,1.55,1.37,2.38,2,16,12,38.11,7.54,49.39-9.92s7.48-41.32-8.52-53.3c-.82-.61-1.66-1.15-2.51-1.68a220.45,220.45,0,0,0,10.35-30.66C1765.35,307.07,1766.34,307.22,1767.35,307.31Zm-200.41,84.37c-70.78-6-122.92-72.92-116.46-149.55s69.06-133.92,139.83-128,122.91,72.92,116.46,149.55S1637.71,397.64,1566.94,391.68Z"/><path class="cls-2" d="M1768.46,197.59c17.77-9.13,25.52-32,17.32-51.12s-29.27-27.18-47-18.05c-.92.48-1.81,1-2.68,1.57a203.07,203.07,0,0,0-19.22-24.68c.64-.84,1.28-1.7,1.87-2.61,11.29-17.46,20-52.09,2.82-62.36-32.52-19.49-49.45,1.54-60.73,19-.58.9-1.09,1.82-1.59,2.74A180.22,180.22,0,0,0,1631,51.29c.17-1.07.33-2.14.42-3.23a39.61,39.61,0,0,0-9.69-29.79q-6.51,49.5-12.2,99.11c60.74,15.29,103.09,76.83,97.24,146.34-5,58.9-43.11,106.34-92.63,122.45.11,6.44.28,12.89.22,19.34-.16,17.49-1.3,35-2.45,52.54q7.2-1.46,14.24-3.48c.34,1,.69,2,1.11,3,8.21,19.09,26.54,30.71,59.24,15.36,18.08-8.48,13.32-29.33,5.11-48.43-.43-1-.91-2-1.41-2.89a202.61,202.61,0,0,0,23.08-21.12c.77.69,1.55,1.37,2.38,2,16,12,51.87,5.26,63.16-12.2s-6.29-39-22.29-51c-.82-.61-1.66-1.15-2.51-1.68a220.9,220.9,0,0,0,10.35-30.66c1,.18,2,.33,3,.42,19.49,1.64,36.73-14.14,38.51-35.25s-12.58-39.54-32.07-41.18c-1-.09-2-.1-3-.09a222,222,0,0,0-5.07-32C1766.63,198.45,1767.55,198.06,1768.46,197.59Z"/><path class="cls-2" d="M1785.53,302.23c19.49,1.64,36.74-14.14,38.52-35.25s-12.59-39.55-32.08-41.19c-1-.08-2-.09-3-.09a220.47,220.47,0,0,0-5.07-31.95c.92-.38,1.85-.78,2.76-1.24,17.77-9.13,25.52-32,17.31-51.12s-29.26-27.18-47-18c-.93.48-1.82,1-2.69,1.57A201.42,201.42,0,0,0,1735,100.22c.65-.84,1.28-1.69,1.87-2.61,11.29-17.45,7.47-41.31-8.52-53.29s-38.1-7.53-49.39,9.93c-.58.9-1.09,1.81-1.59,2.74a180.26,180.26,0,0,0-28.21-10.79c.17-1.06.33-2.13.42-3.22,1.78-21.11-12.58-39.55-32.07-41.19S1580.79,15.93,1579,37c-.1,1.1-.12,2.18-.13,3.25a179.07,179.07,0,0,0-29.61,5.92c-.34-1-.69-2-1.11-3-8.21-19.1-29.27-27.18-47-18s-25.52,32-17.31,51.12c.43,1,.91,2,1.41,2.89a202.59,202.59,0,0,0-23.08,21.11c-.77-.68-1.55-1.36-2.39-2-16-12-38.1-7.53-49.39,9.93s-7.47,41.32,8.52,53.29c.82.62,1.67,1.16,2.52,1.69a220.45,220.45,0,0,0-10.35,30.66,29.67,29.67,0,0,0-3-.42c-19.49-1.64-36.74,14.14-38.51,35.24s12.58,39.55,32.07,41.19c1,.09,2,.1,3,.09a222.21,222.21,0,0,0,5.07,32c-.92.38-1.85.77-2.76,1.24-17.77,9.13-25.52,32-17.31,51.12s29.26,27.17,47,18c.93-.47,1.82-1,2.69-1.56a202.08,202.08,0,0,0,19.22,24.68c-.65.84-1.28,1.7-1.87,2.61-11.29,17.46-7.47,41.32,8.52,53.29s38.1,7.53,49.39-9.92c.58-.9,1.09-1.82,1.59-2.75a179.27,179.27,0,0,0,28.21,10.79c-.17,1.06-.33,2.13-.42,3.23-1.78,21.1,12.58,39.55,32.07,41.19s36.74-14.14,38.51-35.25c.1-1.09.12-2.17.13-3.25a179.07,179.07,0,0,0,29.61-5.92c.34,1,.69,2,1.11,3,8.21,19.1,29.27,27.18,47,18.05s25.52-32,17.31-51.11c-.43-1-.91-1.95-1.41-2.89a201.76,201.76,0,0,0,23.08-21.12c.77.69,1.55,1.37,2.39,2,16,12,38.1,7.53,49.39-9.92s7.47-41.32-8.52-53.3c-.82-.61-1.67-1.15-2.52-1.68a220.9,220.9,0,0,0,10.35-30.66C1783.54,302,1784.52,302.14,1785.53,302.23ZM1585.12,386.6c-70.77-6-122.91-72.92-116.46-149.55s69.06-133.92,139.83-128S1731.4,182,1725,258.64,1655.89,392.56,1585.12,386.6Z"/><path class="cls-3" d="M1305.64,880.72c46.22,3.9,87.11-33.52,91.33-83.57s-29.84-93.79-76.06-97.68c-2.4-.2-4.77-.22-7.13-.21a525.4,525.4,0,0,0-12-75.78c2.2-.9,4.39-1.83,6.54-2.94,42.14-21.66,60.53-75.93,41.07-121.22s-69.4-64.46-111.54-42.81c-2.21,1.14-4.3,2.41-6.37,3.71a481.29,481.29,0,0,0-45.58-58.52c1.53-2,3-4,4.44-6.19,26.76-41.4,17.71-98-20.21-126.38s-90.36-17.86-117.13,23.54c-1.37,2.12-2.58,4.31-3.76,6.5a427.07,427.07,0,0,0-66.91-25.58c.42-2.52.79-5.06,1-7.65,4.21-50.05,13.34-106.56-32.94-109.73-107.06-7.33-130.24,45.58-134.46,95.63-.21,2.59-.27,5.16-.28,7.71a427,427,0,0,0-70.24,14c-.8-2.36-1.63-4.71-2.63-7-19.46-45.3-16-75.51-60.18-58.54-96.46,37-111.88,91.66-92.42,137,1,2.37,2.16,4.62,3.34,6.84a481.54,481.54,0,0,0-54.72,50.08c-1.83-1.63-3.68-3.23-5.66-4.72-37.93-28.39-90.37-17.85-117.13,23.55s-17.72,98,20.21,126.37c1.94,1.46,3.94,2.74,6,4a524.07,524.07,0,0,0-24.55,72.7c-2.32-.41-4.66-.78-7.06-1-46.22-3.9-87.11,33.52-91.33,83.57s29.84,93.79,76.07,97.68c2.39.2,4.76.22,7.12.21a525.4,525.4,0,0,0,12,75.78c-2.2.9-4.38,1.83-6.54,2.94-42.14,21.66-60.53,75.93-41.06,121.22s69.39,64.46,111.53,42.8c2.21-1.13,4.3-2.4,6.37-3.71a480.63,480.63,0,0,0,45.58,58.53c-1.53,2-3,4-4.44,6.19-26.76,41.4-17.71,98,20.21,126.38s120,15.4,146.78-26c1.37-2.13-27.07-1.86-25.88-4.05a427,427,0,0,0,66.9,25.58c-.41,2.52-.79,5.06-1,7.65-4.21,50.05,29.84,93.78,76.07,97.68s87.11-33.53,91.33-83.58c.21-2.6.27-5.16.28-7.71a425.94,425.94,0,0,0,70.24-14c.8,2.37,1.63,4.72,2.63,7,19.46,45.3,69.4,64.46,111.54,42.8s60.52-75.92,41.06-121.21c-1-2.37-2.16-4.62-3.34-6.84a479.86,479.86,0,0,0,54.72-50.09c1.83,1.64,3.68,3.24,5.67,4.72,37.92,28.4,90.36,17.86,117.12-23.54s17.72-98-20.21-126.38c-1.94-1.45-3.94-2.73-6-4a525.36,525.36,0,0,0,24.54-72.7C1300.9,880.15,1303.24,880.52,1305.64,880.72ZM830.38,1080.8C662.55,1066.67,538.9,907.89,554.21,726.17S718,408.58,885.8,422.72,1177.28,595.63,1162,777.35,998.21,1094.94,830.38,1080.8Z"/><path class="cls-4" d="M1308.28,620.54c42.14-21.66,60.53-75.93,41.07-121.22s-69.4-64.46-111.54-42.8c-2.21,1.13-4.3,2.4-6.37,3.7a481.29,481.29,0,0,0-45.58-58.52c1.53-2,3-4,4.44-6.19,26.76-41.4,47.32-123.52,6.69-147.87-77.13-46.23-117.26,3.64-144,45-1.37,2.12-2.58,4.31-3.77,6.5a426.58,426.58,0,0,0-66.9-25.58c.42-2.52.79-5.06,1-7.65,2.29-27.24-6.81-52.55-23-70.64q-15.45,117.39-28.94,235c144,36.26,244.48,182.2,230.59,347-11.76,139.69-102.23,252.18-219.66,290.38.28,15.27.67,30.57.53,45.86-.39,41.49-3.08,83.07-5.81,124.61q17.09-3.46,33.77-8.27c.8,2.37,1.63,4.72,2.63,7,19.46,45.3,62.94,72.83,140.48,36.45,42.89-20.13,31.58-69.57,12.12-114.86-1-2.37-2.16-4.62-3.34-6.84a481.54,481.54,0,0,0,54.72-50.08c1.83,1.63,3.68,3.23,5.67,4.71,37.92,28.4,123,12.46,149.76-28.94s-14.92-92.58-52.85-121c-1.94-1.45-3.94-2.74-6-4a524.07,524.07,0,0,0,24.55-72.7c2.32.41,4.67.78,7.06,1,46.22,3.9,87.11-33.52,91.33-83.57s-29.84-93.79-76.06-97.68c-2.4-.2-4.77-.23-7.13-.21a525.4,525.4,0,0,0-12-75.78C1303.94,622.58,1306.13,621.64,1308.28,620.54Z"/><path class="cls-5" d="M1348.76,868.67c46.23,3.89,87.11-33.52,91.33-83.58s-29.84-93.78-76.06-97.67c-2.4-.2-4.77-.23-7.13-.21a522.57,522.57,0,0,0-12-75.79c2.2-.9,4.39-1.83,6.54-2.94,42.14-21.65,60.53-75.92,41.07-121.21s-69.4-64.46-111.54-42.81c-2.2,1.14-4.3,2.41-6.37,3.71A482.17,482.17,0,0,0,1229,389.64c1.53-2,3-4,4.44-6.18,26.76-41.4,17.71-98-20.21-126.38s-90.36-17.86-117.12,23.54c-1.37,2.12-2.59,4.3-3.77,6.5a426.09,426.09,0,0,0-66.91-25.58c.42-2.52.79-5.06,1-7.65,4.22-50-29.84-93.78-76.06-97.68S863.24,189.74,859,239.79c-.22,2.59-.28,5.16-.29,7.71a427,427,0,0,0-70.24,14c-.8-2.36-1.63-4.72-2.63-7-19.46-45.29-69.4-64.45-111.54-42.8s-60.52,75.93-41.06,121.22c1,2.37,2.16,4.62,3.34,6.84a481.54,481.54,0,0,0-54.72,50.08c-1.83-1.63-3.68-3.23-5.66-4.72-37.93-28.4-90.37-17.86-117.13,23.54s-17.71,98,20.21,126.38c1.94,1.46,3.94,2.74,6,4a524.65,524.65,0,0,0-24.55,72.71c-2.32-.41-4.66-.78-7.06-1-46.22-3.89-87.11,33.53-91.33,83.58S392.17,788.1,438.4,792c2.39.2,4.76.22,7.12.21a525.4,525.4,0,0,0,12,75.78c-2.19.9-4.38,1.83-6.54,2.94C408.88,892.59,390.5,946.85,410,992.15s69.4,64.45,111.53,42.8c2.21-1.13,4.31-2.4,6.38-3.71a480.33,480.33,0,0,0,45.57,58.53c-1.53,2-3,4-4.44,6.19-26.76,41.4-17.71,98,20.21,126.38s90.36,17.85,117.13-23.55c1.37-2.12,2.58-4.3,3.77-6.5a425.37,425.37,0,0,0,66.9,25.58c-.41,2.53-.79,5.06-1,7.66-4.21,50,29.84,93.78,76.07,97.67s87.11-33.52,91.33-83.58c.22-2.59.27-5.15.29-7.71a426,426,0,0,0,70.23-14c.8,2.37,1.64,4.72,2.63,7,19.47,45.29,69.4,64.46,111.54,42.8s60.52-75.92,41.06-121.21c-1-2.37-2.16-4.62-3.34-6.85a480.7,480.7,0,0,0,54.72-50.08c1.83,1.63,3.68,3.24,5.67,4.72,37.92,28.4,90.36,17.86,117.12-23.54s17.72-98-20.21-126.38c-1.94-1.45-3.94-2.74-5.95-4a525.36,525.36,0,0,0,24.54-72.7C1344,868.1,1346.37,868.47,1348.76,868.67ZM873.5,1068.75C705.67,1054.62,582,895.84,597.33,714.11S761.1,396.53,928.93,410.66,1220.4,583.57,1205.1,765.3,1041.33,1082.89,873.5,1068.75Z"/><path class="cls-6" d="M465.24,1767.55a93.76,93.76,0,0,0-13.75,30.91,92.24,92.24,0,0,0-2.4,16.24c3,6.34,18,28.89,41.68,37.67,14.68,5.43,41.31-3.48,16.26-25.33s-28.53-26.72-13.21-69.86c3.94-11.1,3.78-15.41,2.11-16.51C492,1738.12,477.27,1753.74,465.24,1767.55Z"/><path class="cls-7" d="M331.42,1780.91a94.17,94.17,0,0,0-13.75,30.91,93.1,93.1,0,0,0-2.39,16.24c3,6.34,18,28.89,41.67,37.67,14.68,5.43,41.31-3.48,16.27-25.33s-28.53-26.71-13.22-69.86c3.94-11.1,3.78-15.41,2.12-16.51C358.22,1751.48,343.45,1767.1,331.42,1780.91Z"/><path class="cls-8" d="M283.71,852.2Q266.83,936.82,250,1021.43A1613.24,1613.24,0,0,1,299.4,1198.6c50.27,230.09,42.11,435.12,19.78,591l35.68,19.79a1481,1481,0,0,0,107.69-357.34c30.28-181.35,18.79-324.33,27.19-324.54,8-.2,26.06,131,21,279.84A1502.35,1502.35,0,0,1,450,1781.44l44.95,10c61-112.13,125.27-266,153.22-454.8,19.41-131.11,43-305.36-38.78-488.75-8.16-18.32-37.45-59.35-42.86-69.43C465,794.29,385.2,836.36,283.71,852.2Z"/><path class="cls-9" d="M299.4,1198.6A1613.24,1613.24,0,0,0,250,1021.43q16.88-84.61,33.76-169.23C385.2,836.36,465,794.3,566.52,778.45c5.41,10.08,34.7,51.11,42.86,69.43a654.41,654.41,0,0,1,50.94,181c-195-8.8-252.85,29.89-269.68,66.8-26.78,58.77,46.4,121.78,15.66,241.51-9.25,36-21.82,53.48-24.78,98.88-3.88,59.58,15.39,66,16.36,126.8,1.07,66.5-21,121.06-39.11,165.84a580.56,580.56,0,0,1-31.35,65.43l-8.24-4.57C341.51,1633.72,349.67,1428.69,299.4,1198.6Z"/><path class="cls-10" d="M456.2,67.78c-7.08,7.67,1,19.79-1.36,60.62a288.19,288.19,0,0,1-6.21,45.08c-1.39,10-2.92,19.2-4.55,27.33-1.2,6-2.3,10.6-3.69,15.51A193.53,193.53,0,0,1,430.74,243a1.18,1.18,0,0,0,.5,1.52l.1.05a1.19,1.19,0,0,0,1.57-.6,196.45,196.45,0,0,0,9.78-27c1.4-5,2.51-9.67,3.72-15.69.86-4.28,1.69-8.89,2.49-13.72a128.78,128.78,0,0,1-7.7,45.54C421.44,289,462,331.36,497,336.52c40.28,5.94,71-23.28,80.59-32.89,38.56-38.74,52.28-107,25.35-160.69C567.62,72.56,473.57,49,456.2,67.78Z"/><path class="cls-11" d="M893.07,559.32c-3.81,23.44-19.46,102.72-80.24,135.76C712.71,749.51,537,649.43,516.24,518.53,500.41,418.49,576.71,310.8,618.86,317c52.92,7.74,29,191.59,133.26,244.64C799.83,585.88,855.23,573,893.07,559.32Z"/><path class="cls-12" d="M552.78,133.58c-1.07-6.59-6.19-33.53-28.41-52.39-42.17-35.79-117.5-18.39-163,13.9-47.61,33.78-32.21,62.16-79.51,100.24-51.39,41.37-82,17.8-151.39,55.72C103.18,266,29.62,306.15,17.39,379.46,6.82,442.81,45.3,511.34,97.92,541.69c90.09,52,216.19-11.1,279.19-74.58,60.41-60.88,26-80.89,115.38-201.3C524.82,222.27,560.75,182.81,552.78,133.58Z"/><path class="cls-13" d="M618.86,317a430.82,430.82,0,0,0-146.54-34.83c-64-3.59-108.68-7.81-139.31,18.4-62.51,53.5-1.67,140.32-63.08,294.39C223.11,712.38,146.15,789.41,146.15,789.41,103.42,832.17,79.36,840.7,66,879.23c-27.09,77.85,21.91,184.49,72.56,191.43,10.09,1.39,22.52-3.46,47.26-13.43,44-17.73,62.8-42.65,139.36-62.79,78-20.53,145.07-17.44,176.11-15.77,127.33,6.83,171.92,49.19,194.5,26.28C739.38,960.69,564,811.53,606.53,640c15.64-63,48.71-90.75,49.78-171.29C657.16,404.72,636.65,351.94,618.86,317Z"/><path class="cls-14" d="M479.41,192.91c7.81,21.09,13.56,47.06.93,62.77-7.7,9.57-19.27,14.14-30.67,18.41-26.94,10.07-38.29,3.67-44.15,10.86-12.89,15.85,11.91,84,62.73,94.92,50.58,10.91,102.66-40,97.39-64.38-4.74-22-55.8-20.52-62-48.3-3.13-14,6.72-28.13,15.06-37.54l6,1.15Z"/><path class="cls-15" d="M405.52,285c5.86-7.2,17.21-.8,44.15-10.87,11.4-4.27,23-8.84,30.67-18.41C493,240,487.22,214,479.41,192.91l45.24,37.89-6-1.15c-6.62,7.47-14.08,17.93-15.36,28.92a42.28,42.28,0,0,0-9.44,6.84,111.65,111.65,0,0,1,6.23,36.07c.06,12.74.1,22.2-6.23,30.48-6.89,9-17.32,11.37-26.44,13.42-20.25,4.53-38.32.46-50-3.67C402.94,319.23,398.29,293.85,405.52,285Z"/><path class="cls-16" d="M492.35,214.48s2.57,25.83,28.15,26c31.52.16,35-83,27.35-87.76-8.88-5.51-16.66,8-37.35,3.28-8.71-2-16.24-13.18-20.65-1.11-5,13.74-.78,38-.78,38s-7.49-6.18-8.64,1.26C478.93,203.89,486.22,210,492.35,214.48Z"/><path class="cls-17" d="M542.21,124.11c10,10.2,15.52,30,8.59,39.94-10,14.29-39.42-.63-51.47,16.85-5.28,7.66-5,18.3-7.71,18.13-2.27-.14-3.61-7.51-4.92-13.58-7.2-33.43-15.53-37.18-13-46.76C478.87,119.24,521.67,103.17,542.21,124.11Z"/><path class="cls-18" d="M972.12,589c-2-6.51-7.22-19.87-20.11-28.26-26.63-17.35-68.76-2.27-71,11.82-1.44,9.22,13.48,22.49,27.6,23.66,12.71,1,18.09-8.24,35.49-10.51A60.19,60.19,0,0,1,972.12,589Z"/><g class="cls-19"><path class="cls-20" d="M524.68,933.76c-28.64-33.38-22.43-63.56-60.95-96.23-75.23-63.83-175.82-14-198.89-54.54-26.48-46.59,100.11-122.86,93-218.14-2.74-36.92-25.05-69.8-58.46-98.84a420.28,420.28,0,0,1-29.48,128.91C223.11,712.38,146.15,789.41,146.15,789.41,103.42,832.17,79.36,840.7,66,879.23c-27.09,77.85,21.91,184.49,72.56,191.43,10.09,1.39,22.52-3.46,47.26-13.43,44-17.73,62.8-42.65,139.36-62.79,78-20.53,145.07-17.44,176.11-15.77,127.33,6.83,171.92,49.19,194.5,26.28,4.79-4.86,6.94-11,7-18.27C600.64,991,550.86,964.28,524.68,933.76Z"/></g><path class="cls-21" d="M157.85,939.14s-25.27,8.72-25.78,46c4.19-.54,14-.84,14-.84s-3.43-26.89,14.54-33.23C159,948,157.85,939.14,157.85,939.14Z"/><path class="cls-22" d="M252,931.26q-.36,10.2-.71,20.4c-12.88-2.28-27-5-41.95-4.72a216.44,216.44,0,0,0-52.79,7.47,14.38,14.38,0,0,1-3.26-6.08,18.46,18.46,0,0,1,.46-10.71,181.12,181.12,0,0,1,25.84-7.55C206.24,924.39,230.79,927,252,931.26Z"/><path class="cls-23" d="M253.55,937.05c-.19-2.44-.58-5.48-1.55-5.79s-2,2-2.42,3.26c-.18.53-.58,1.79-.64,5.75-.08,5.11.51,7.58,1,9.09.3.92.77,2.3,1.34,2.3s.81-.91,1.3-2.66A34.51,34.51,0,0,0,253.55,937.05Z"/><path class="cls-24" d="M279.51,978.36c-5.27,1.19-18.06,4.58-18.06,4.58s7-24.25-9.55-34.26a21.85,21.85,0,0,1,.71-14.38C259.57,937.24,275,947.62,279.51,978.36Z"/><path class="cls-25" d="M390,978s-1.39-12.43-23.6-11.1c-3.36,2.49-2.92,12.69-2.92,12.69Z"/><path class="cls-26" d="M424.41,1222l-58.8,36.5L321.56,1140l51-165.44L390,978l40,230.82A12.84,12.84,0,0,1,424.41,1222Z"/><path class="cls-27" d="M321.56,1140l51-165.44L390,978c-3.38,14.54-4,37.91-4.19,50.92-.77,55.33-13.36,71.47-4.51,109.51,7.35,31.63,19.49,35.25,19.74,56.82.28,23.48-13.84,44-31.09,60.51l-4.34,2.69Z"/><polygon class="cls-28" points="372.53 974.54 38.89 994.53 1.73 1254.16 365.61 1258.46 372.53 974.54"/><g class="cls-29"><path class="cls-30" d="M38.89,994.53l112.4-6.73A168.47,168.47,0,0,0,162.38,1008c55.63,86.51,171.38,90.9,170.18,105.74-1.79,22.17-259.9,6.31-264.63,36.92-2.29,14.78,53.81,44.7,111.1,53.86,68.61,11,117.22-11,152.33,20.85,11.89,10.76,17.64,23.86,20.59,32.78L1.73,1254.16Z"/></g><path class="cls-31" d="M366.4,966.91c3.76-.22,9-.95,14.89,1.7a24,24,0,0,1,3.36,1.87L382,969.8c-4.3-.86-10.05,1-12,4.89-2.4,4.83-2.72,15.67-3,21-.76,15.3-5.33,110.51-5.33,110.51A15.35,15.35,0,0,1,346.94,1121l-311.23,4.18a12.16,12.16,0,0,1-6.75-1.64,11.87,11.87,0,0,1-5.68-11.88l9-113.6a14,14,0,0,1,13-11.94Z"/><path class="cls-32" d="M363.08,967.11c3.76-.22,8.19-1,13.23-.05a14.74,14.74,0,0,1,4.53,1.36s-10.67-1.62-14.19,6.47c-2.15,4.94-2.72,15.67-3,21.05-.76,15.3-5.33,110.51-5.33,110.51a15.36,15.36,0,0,1-14.73,14.79L29.4,1134a12.14,12.14,0,0,1-6.75-1.64A11.84,11.84,0,0,1,17,1120.5l12-122.2a13.94,13.94,0,0,1,13-11.94Z"/><path class="cls-33" d="M17,1120.5l12-122.2a13.94,13.94,0,0,1,13-11.94l321.17-19.25c3.76-.22,8.19-1,13.23-.05a14.74,14.74,0,0,1,4.53,1.36s-10.67-1.62-14.19,6.47a19.15,19.15,0,0,0-.9,2.74c-30.44,2.9-61,4-91.38,7.54-60.09,7-121.06,10.65-176.67,35.74-17.79,8-28.78,33.69-23.15,44.9,4.06,8.09,16.17,6.7,21.07,17.34,5.14,11.19-5.09,19.61-.12,27.38,5.21,8.14,19.24,3.27,42.72,7.9a117.42,117.42,0,0,1,29.3,10L29.4,1134a12.14,12.14,0,0,1-6.75-1.64A11.84,11.84,0,0,1,17,1120.5Z"/><path class="cls-34" d="M169.37,1148.25l39.8,6.06,4.17,0a7.45,7.45,0,0,0,7.54-7.62l-.68-40.17a7.45,7.45,0,0,0-7.78-7.36l-4.18.19L169,1106.24c-3.78.18-7.06-1.42-7,2.56l.64,37.67C162.71,1150.45,165.59,1148.2,169.37,1148.25Z"/><path class="cls-35" d="M166.71,1154l43.74.56a7.46,7.46,0,0,0,7.53-7.63l-.67-40.16a7.46,7.46,0,0,0-7.79-7.37l-43.69,2a7.33,7.33,0,0,0-6.72,7.57l.63,37.66A7.33,7.33,0,0,0,166.71,1154Z"/><path class="cls-36" d="M213.41,904.61s17.72,13.43,20,23.61c0,0-23.79,1.11-24,18.72,0,0,21.57-3.27,25.27,1.91s-20.48,18-40.75,13.55-20.35-44-15.61-55.68S213.41,904.61,213.41,904.61Z"/><path class="cls-37" d="M382.62,379.29l-42.79-81c-11.2,5.92-239.26,131.3-246.37,368.61-3.56,119,50.19,207.87,75.69,244.61l55.44-17.26c-13.32-25.07-45.8-94.59-28.52-178.8C217.22,612.33,304.37,529,418.74,500.89Z"/><path class="cls-38" d="M973,575.59c-7.31-2.38-17-6.86-24.14-16-6.26-8-5.16-12.59-10.76-22.12-10.5-17.87-29.72-27.78-33-24.8-3.06,2.74,8.86,14.87,4,23.17-2.21,3.74-9.28,5.62-23.34,9.22-5.2,1.33-9.59,2.29-12.76,2.93a69.84,69.84,0,0,0,56,39.6Z"/><path class="cls-39" d="M1618.51,353.11c8.2,3.11,133.36,52.88,159.09,183.51,2.07,10.55,22.18,122.78-53.93,202.06-85.34,88.91-249.68,86.7-314.91,12.38-15.21-17.33-23.24-36.54-27.73-52.68h0l17.18-45.66c21-25.32,49.53-31.32,64.78-35.08,37.59-9.26,66,7.48,87.51-10.65,11.91-10,14.28-24.46,16.39-37.36,7.2-43.92-17.59-71-19.39-98.05-1.35-20.25-8.44-64.62,18-93.55C1582.23,359.71,1605.41,354.72,1618.51,353.11Z"/><path class="cls-40" d="M1667.28,1808.91c1.46-8,27.43-15.32,40.28-4.55,6.39,5.35,10.79,16.19,7.09,21.09-1.34,1.78,4.16,4.91-1.11,5C1696,1830.63,1665.82,1816.91,1667.28,1808.91Z"/><path class="cls-41" d="M1694.5,1811.84l26.7-3.77c-12.37-14.9-10.08-62.35-10.08-62.35l-28.4,6.34s3.23,13,8.74,32.24C1693.34,1790.87,1694.19,1801.16,1694.5,1811.84Z"/><path class="cls-42" d="M1692.13,1808.55s32.15-7.41,35.63-1,6.18,23.46-14.22,22.91S1690.31,1814,1692.13,1808.55Z"/><path class="cls-43" d="M1300.8,1839.07c2.57-7.76,29.31-11.33,40.53,1.13,5.58,6.19,8.41,17.54,4.07,21.87-1.58,1.58,3.43,5.45-1.8,4.77C1326.25,1864.6,1298.25,1846.78,1300.8,1839.07Z"/><path class="cls-44" d="M1327.35,1845.78h27c-10.17-16.49-1.26-63.14-1.26-63.14l-29,2.3s1.38,13.35,4.15,33.14C1329.14,1824.85,1328.53,1835.16,1327.35,1845.78Z"/><path class="cls-45" d="M1257.44,825.73a1249.07,1249.07,0,0,0-41.83,191.42c-32.76,238.33,36.88,245.93,23.87,510-4.15,84.3,73,278.7,79.84,283a84.58,84.58,0,0,0,10.68.42,106.76,106.76,0,0,0,27.18-4.53c12.23-2.11,56.31-121.51,46.09-192.5-7.23-50.25-5.13-104.17-.94-212,.68-17.48,45.39-340,45.39-340h0c13.6,119.37,29.24,220.8,42.8,299.44,43.56,252.65,185.21,405.57,192.6,408,1.46.58,14.75,5.41,25.61-1.75a17.72,17.72,0,0,0,6.49-7.3c3.78-3-1.12-252.25-44.33-439.85-62.71-272.31-35.4-336-55.27-457.65C1598.43,757.25,1257.44,825.73,1257.44,825.73Z"/><path class="cls-46" d="M1510.74,331.86c-41.64-1.22-137.34-15.92-190,31.51-.92.82,9.88,6.59,4.56,12.82a344.38,344.38,0,0,0-37.22,53.4c-11.11,19.82-21.15,42.93-31.27,77.37a664.14,664.14,0,0,0-24.69,135c-9.64,126.71-.09,185.17,8.58,224.93,37.65,19.33,134.65,53.93,250.22,36.74a390.39,390.39,0,0,0,124.74-41.09c-30-90.8-6.46-139.39,4.64-184.17,15.83-63.86,16.08-59,29.12-109.76,21.5-83.71,25-169.23,10.25-186.74C1619.79,334.66,1548,333,1510.74,331.86Z"/><path class="cls-47" d="M1325.46,1842.19s32.88-2.84,35.43,4,2.83,24.09-17.29,20.68S1322.91,1847.29,1325.46,1842.19Z"/><path class="cls-48" d="M1393.56,284.13c-12.89-21.81-7.15-46.72-5.85-52.1,5.42-22.53,7.44-25.95,11.62-30.72l5.92-6.25s.36-.28.75-.55c4.11-2.82,19.47-7.42,22.79-7.59,10.59-.53,32.13,37.45,44.47,96q1.52,3.14,3,6.34c6.12,13.27,11.37,26.33,15.88,39.06,71.56,6.05,81.5,14.45,81.81,19.29.68,10.21-40.1,22-70.76,26.5-66.88,9.79-135.63-7.85-135.31-20.32.13-5.43,13.42-12.51,70.12-19.93q-2-14.07-4-28.15C1429.39,304.65,1403.06,300.19,1393.56,284.13Z"/><path class="cls-49" d="M1380.11,184.2c4.83,17.86,18.34,34.71,23.45,36.63a31,31,0,0,1,8.36,5.35,9.07,9.07,0,0,1,1.58,1.84c6.92,10.22-7.46,28.26-2.65,32.38,3.48,3,14.35-5.15,16.64-2.37,2.16,2.61-6.32,11.46-3.82,14.61,1.88,2.38,7.46-1.74,12.48,1.33,2.5,1.53,2.36,3.31,6.11,9a58.84,58.84,0,0,0,6.64,8.5c9,8.85,27.5,8,29.75,2.92.62-1.42-.45-2.19-.54-6.37a32.64,32.64,0,0,1,1.33-8.77c2-7,9.61-13.61,16.73-22.31,13.2-16.11,15-27.31,15.39-31.05.15-1.34.21-2.32.24-3,.74-14.31-4.4-33.67-13.5-44-15.24-17.3-35.11-1.86-58.7-16.73-27.22-17.16-22.93-51.68-35.32-52.06C1390.62,109.68,1371.19,151.17,1380.11,184.2Z"/><path class="cls-50" d="M1416.15,254.49c2.78-7.19,12-3.59,14.11,4.19s-3.27,17.89-11,18.3S1412.42,264.16,1416.15,254.49Z"/><path class="cls-51" d="M1602.36,804.43a.57.57,0,0,1-.57-.51c-5-44.64,4.27-77,12.41-105.54,2-7,3.87-13.58,5.5-20.17,9-36.28,12.93-50.28,17.1-65.11,2.71-9.64,5.51-19.61,9.85-36.26a.56.56,0,0,1,.7-.41.57.57,0,0,1,.41.7c-4.34,16.66-7.14,26.63-9.85,36.28-4.17,14.82-8.1,28.82-17.09,65.07-1.64,6.62-3.52,13.22-5.52,20.22-8.11,28.44-17.3,60.67-12.37,105.09a.57.57,0,0,1-.5.64Z"/><path class="cls-49" d="M1416.23,240.51l-6.64,15.93s-6.64,19.12-15.4,11.95c-7.16-5.86-8.47-5.33-8.71-4.94,0,.07,0,.16-.06.16s-.19-3.81-.26-7.17a61.58,61.58,0,0,0-3.72,21c0,8.82,0,18.27,6.9,25.5.4.42,7.93,8.07,18.06,7.7,0,0,4-.14,19.13-7.17,0,0-20.72-8-21.78-10.89-2.89-7.94,7.22-15.35,11.15-34.26A69,69,0,0,0,1416.23,240.51Z"/><path class="cls-52" d="M956.32,553.64c-15.06,10.54-23.13,24.85-27.32,34,11.07,26,36.18,74.23,88.14,109.78,85.2,58.3,210.13,60.26,297.15-6.22,104-79.43,121.33-231.74,77.67-297-5-7.51-21.56-32.2-47.21-35-16.21-1.79-38.26,4.89-73.1,45.69-72.6,85-47,138.08-89.85,163C1117.48,605.12,1021.9,507.75,956.32,553.64Z"/><path class="cls-51" d="M1249,726.53a.58.58,0,0,1-.12-1.14c.25,0,25.75-5.75,56.54-26.89,28.41-19.5,67.27-56.52,91-122.12a.57.57,0,1,1,1.08.39c-23.89,65.91-63,103.11-91.53,122.71-31,21.25-56.64,27-56.9,27Z"/><path class="cls-53" d="M1151.75,1641.34c19.5,1.64,36.74-14.14,38.52-35.24s-12.59-39.55-32.08-41.19c-1-.09-2-.1-3-.09a220.84,220.84,0,0,0-5.08-32c.93-.38,1.85-.77,2.76-1.24,17.77-9.13,25.52-32,17.31-51.11s-29.26-27.18-47-18c-.93.48-1.81,1-2.69,1.56a202.08,202.08,0,0,0-19.22-24.68c.65-.84,1.29-1.7,1.88-2.61,11.28-17.46,7.47-41.32-8.53-53.29s-38.1-7.53-49.39,9.93c-.57.89-1.09,1.81-1.59,2.74a178.9,178.9,0,0,0-28.21-10.79c.18-1.06.33-2.13.43-3.23,1.77-21.1,5.62-44.93-13.9-46.27-45.14-3.09-54.91,19.22-56.69,40.33-.09,1.09-.12,2.17-.12,3.25a179.18,179.18,0,0,0-29.62,5.92c-.34-1-.69-2-1.11-3-8.21-19.1-6.73-31.84-25.38-24.69-40.67,15.61-47.18,38.66-39,57.76.43,1,.91,1.94,1.41,2.88a202.61,202.61,0,0,0-23.08,21.12c-.77-.69-1.55-1.37-2.39-2-16-12-38.1-7.53-49.39,9.93s-7.47,41.31,8.53,53.29c.81.61,1.66,1.15,2.51,1.68A221.34,221.34,0,0,0,777.28,1533c-1-.17-2-.33-3-.41-19.49-1.65-36.73,14.13-38.51,35.24s12.58,39.55,32.07,41.19c1,.08,2,.09,3,.09a222.21,222.21,0,0,0,5.07,32c-.92.37-1.85.77-2.75,1.23-17.77,9.14-25.53,32-17.32,51.12s29.26,27.18,47,18c.93-.48,1.82-1,2.69-1.56a203.07,203.07,0,0,0,19.22,24.68c-.65.84-1.28,1.69-1.87,2.61-11.29,17.45-7.47,41.31,8.52,53.29s50.61,6.49,61.9-11c.57-.9-11.42-.78-10.92-1.71a179.27,179.27,0,0,0,28.21,10.79c-.17,1.06-.33,2.13-.42,3.22-1.78,21.11,12.58,39.55,32.07,41.19s36.74-14.13,38.52-35.24c.09-1.09.11-2.18.12-3.25a179.39,179.39,0,0,0,29.62-5.92c.33,1,.69,2,1.11,3,8.2,19.1,29.26,27.18,47,18s25.52-32,17.32-51.12c-.43-1-.92-2-1.41-2.88a203.44,203.44,0,0,0,23.07-21.12c.77.69,1.55,1.36,2.39,2,16,12,38.1,7.53,49.39-9.93s7.47-41.32-8.52-53.29c-.82-.61-1.66-1.16-2.51-1.68a222.68,222.68,0,0,0,10.35-30.66C1149.76,1641.1,1150.74,1641.26,1151.75,1641.34Zm-200.41,84.37c-70.77-6-122.91-72.91-116.46-149.54s69.06-133.93,139.83-128,122.92,72.92,116.46,149.55S1022.11,1731.67,951.34,1725.71Z"/><path class="cls-54" d="M1152.87,1531.62c17.77-9.13,25.52-32,17.31-51.11s-29.26-27.18-47-18c-.93.47-1.81,1-2.69,1.56a202.08,202.08,0,0,0-19.22-24.68c.65-.84,1.29-1.7,1.88-2.61,11.28-17.46,20-52.08,2.82-62.36-32.53-19.49-49.45,1.54-60.74,19-.57.89-1.09,1.81-1.59,2.74a178.9,178.9,0,0,0-28.21-10.79c.18-1.06.33-2.13.43-3.23a39.66,39.66,0,0,0-9.69-29.79q-6.52,49.52-12.21,99.11c60.74,15.29,103.1,76.83,97.24,146.34-5,58.91-43.11,106.34-92.63,122.45.12,6.44.28,12.89.22,19.34-.16,17.5-1.29,35-2.44,52.54q7.2-1.45,14.24-3.48c.33,1,.69,2,1.11,3,8.2,19.1,26.54,30.71,59.23,15.37,18.09-8.49,13.32-29.34,5.12-48.44-.43-1-.92-2-1.41-2.88a204.38,204.38,0,0,0,23.07-21.12c.77.69,1.56,1.36,2.39,2,16,12,51.87,5.25,63.15-12.21s-6.29-39-22.28-51c-.82-.62-1.66-1.16-2.51-1.69a222.09,222.09,0,0,0,10.35-30.65c1,.17,2,.33,3,.41,19.5,1.64,36.74-14.14,38.52-35.24s-12.59-39.55-32.08-41.19c-1-.09-2-.1-3-.09a220.84,220.84,0,0,0-5.08-32C1151,1532.48,1152,1532.09,1152.87,1531.62Z"/><path class="cls-55" d="M1169.94,1636.26c19.49,1.64,36.73-14.14,38.51-35.24s-12.58-39.55-32.07-41.19c-1-.09-2-.1-3-.09a220.84,220.84,0,0,0-5.08-32c.93-.38,1.85-.77,2.76-1.24,17.77-9.13,25.53-32,17.32-51.12s-29.27-27.18-47-18.05c-.92.48-1.81,1-2.68,1.57a203.07,203.07,0,0,0-19.22-24.68c.64-.84,1.28-1.7,1.87-2.61,11.29-17.46,7.47-41.32-8.52-53.29s-38.11-7.53-49.39,9.92c-.58.9-1.09,1.82-1.59,2.74a180.22,180.22,0,0,0-28.21-10.78c.17-1.07.33-2.14.42-3.23,1.78-21.11-12.58-39.55-32.08-41.19s-36.73,14.14-38.51,35.25c-.09,1.09-.11,2.17-.12,3.25a180.41,180.41,0,0,0-29.62,5.91c-.34-1-.69-2-1.11-3-8.2-19.1-29.26-27.18-47-18s-25.52,32-17.32,51.11c.43,1,.92,2,1.41,2.89a201.67,201.67,0,0,0-23.07,21.12c-.77-.69-1.56-1.37-2.39-2-16-12-38.11-7.53-49.39,9.92s-7.47,41.32,8.52,53.3c.82.61,1.66,1.15,2.51,1.68a220.9,220.9,0,0,0-10.35,30.66c-1-.17-2-.33-3-.42-19.49-1.64-36.73,14.14-38.51,35.25s12.58,39.54,32.08,41.19c1,.08,2,.09,3,.09a220.7,220.7,0,0,0,5.08,32c-.93.38-1.85.77-2.76,1.24-17.77,9.13-25.52,32-17.32,51.12s29.27,27.18,47,18.05c.93-.48,1.81-1,2.68-1.57A203.39,203.39,0,0,0,843,1729.5c-.64.84-1.28,1.69-1.87,2.6-11.28,17.46-7.47,41.32,8.52,53.3s38.11,7.53,49.4-9.93c.57-.9,1.09-1.82,1.58-2.74a180.37,180.37,0,0,0,28.22,10.79c-.18,1.06-.34,2.13-.43,3.22-1.78,21.11,12.59,39.55,32.08,41.19s36.73-14.14,38.51-35.24c.09-1.1.11-2.18.12-3.26a180.2,180.2,0,0,0,29.62-5.91c.34,1,.69,2,1.11,3,8.21,19.1,29.26,27.18,47,18s25.53-32,17.32-51.12c-.43-1-.91-2-1.41-2.89a203.44,203.44,0,0,0,23.08-21.11c.77.68,1.55,1.36,2.38,2,16,12,38.11,7.53,49.39-9.93s7.48-41.32-8.52-53.29c-.82-.62-1.66-1.16-2.51-1.69a220.45,220.45,0,0,0,10.35-30.66C1167.94,1636,1168.93,1636.17,1169.94,1636.26Zm-200.42,84.37c-70.77-6-122.91-72.91-116.45-149.55s69.06-133.92,139.83-128,122.91,72.92,116.46,149.55S1040.3,1726.59,969.52,1720.63Z"/><path class="cls-56" d="M1090.29,156c0-84.82-72.21-153.58-161.29-153.58S767.71,71.13,767.71,156c0,51.47,26.6,97,67.42,124.89A63.35,63.35,0,0,1,863,333.12v11.75a46.24,46.24,0,0,0,46.24,46.24h39.62a46.24,46.24,0,0,0,46.24-46.24V333.12a63.35,63.35,0,0,1,27.82-52.28C1063.69,253,1090.29,207.42,1090.29,156Z"/><path class="cls-57" d="M964.78,459.58c0,10.46-16,18.94-35.78,18.94s-35.78-8.48-35.78-18.94,16-18.94,35.78-18.94S964.78,449.12,964.78,459.58Z"/><path class="cls-58" d="M881.46,425.74v19.35a17,17,0,0,0,9.64,15.35c8.2,3.92,21.83,8.21,41.65,7.7,16.07-.41,26.56-3,33.22-5.8a17.27,17.27,0,0,0,10.57-16v-10.7Z"/><path class="cls-59" d="M881.46,442.69a19,19,0,0,0,5,3.5c9.2,4.39,69.46,14.19,84,8.73a19.46,19.46,0,0,0,5.07-2.81,17.4,17.4,0,0,0,1-5.77v-10.7l-95.08-9.9Z"/><path class="cls-60" d="M885.69,412.58a9.07,9.07,0,0,0-10,9v.54a19.05,19.05,0,0,0,10.81,17.23c9.2,4.39,69.46,14.2,84,8.73a17.56,17.56,0,0,0,11.85-16.85v-.44a9.06,9.06,0,0,0-8.13-9Z"/><path class="cls-61" d="M974.2,421.8l-88.51-9.22a9.07,9.07,0,0,0-8.49,4,18.94,18.94,0,0,0,9.28,9.72c9.2,4.39,72,15.47,84,9.83a20.77,20.77,0,0,0,10.27-10.41A9,9,0,0,0,974.2,421.8Z"/><path class="cls-62" d="M882.22,381.24a6.55,6.55,0,0,0-6.55,6.55v15.15a19.07,19.07,0,0,0,10.81,17.23c9.2,4.39,72,15.47,84,9.83a20,20,0,0,0,11.85-17.95V387.79a6.55,6.55,0,0,0-6.55-6.55Z"/><path class="cls-63" d="M981,386c0,6.79-23.28,12.29-52,12.29s-52-5.5-52-12.29,23.29-12.3,52-12.3S981,379.17,981,386Z"/><path class="cls-64" d="M1090.29,156c0-84.82-72.21-153.58-161.29-153.58S767.71,71.13,767.71,156c0,51.47,26.6,97,67.42,124.89A63.35,63.35,0,0,1,863,333.12v11.75a46.24,46.24,0,0,0,46.24,46.24h39.62a46.24,46.24,0,0,0,46.24-46.24V333.12a63.35,63.35,0,0,1,27.82-52.28C1063.69,253,1090.29,207.42,1090.29,156Z"/><path class="cls-65" d="M967.06,376.26c0,5-17,9-38.06,9s-38.06-4-38.06-9,17-9,38.06-9S967.06,371.29,967.06,376.26Z"/><path class="cls-66" d="M919.08,381.76a2.21,2.21,0,0,1-2.18-1.92l-28-217.73a2.2,2.2,0,1,1,4.36-.56l28,217.73a2.2,2.2,0,0,1-1.9,2.46Z"/><path class="cls-67" d="M936.47,381.76l-.28,0a2.2,2.2,0,0,1-1.9-2.46l28-217.73a2.2,2.2,0,0,1,4.36.56l-28,217.73A2.2,2.2,0,0,1,936.47,381.76Z"/><path class="cls-68" d="M959.27,161.93a2.17,2.17,0,0,1-1.83-1l-7.73-11.72a.33.33,0,0,0-.31-.17.32.32,0,0,0-.3.18l-5.1,8.55a4.75,4.75,0,0,1-8,.19l-7-10.5a.35.35,0,0,0-.3-.17.33.33,0,0,0-.29.16l-6.16,8.89a4.73,4.73,0,0,1-3.9,2.06h0a4.77,4.77,0,0,1-3.91-2l-8.87-12.71a.46.46,0,0,0-.32-.17.36.36,0,0,0-.29.19l-8.1,14a2.2,2.2,0,0,1-3.81-2.2l8.1-14a4.75,4.75,0,0,1,8-.34L918,153.84a.34.34,0,0,0,.29.17h0a.38.38,0,0,0,.29-.16l6.15-8.9a4.75,4.75,0,0,1,7.87.08l7,10.5c.08.12.19.22.31.17a.35.35,0,0,0,.3-.18l5.1-8.54a4.75,4.75,0,0,1,8.06-.18l7.73,11.72a2.2,2.2,0,0,1-.63,3A2.14,2.14,0,0,1,959.27,161.93Z"/><path class="cls-69" d="M931.93,277.08c3.45-59.19,103.24-73,102.82-125.91-.27-32.56-39.92-56.74-48.39-61.58C924,53.91,847.17,95.12,831.31,66c-3.95-7.26-2.1-15.17-1-19.67a42.21,42.21,0,0,1,10.55-18.94c-44,27.43-73.11,74.78-73.11,128.61,0,51.47,26.6,97,67.42,124.89A63.35,63.35,0,0,1,863,333.12v11.75a46.24,46.24,0,0,0,46.24,46.24h39.62a46.24,46.24,0,0,0,46.24-46.24v-9.4c-5.45,4.18-11.72,7.1-18.59,7C952.63,342.32,930.21,306.54,931.93,277.08Z"/><ellipse class="cls-70" cx="931.58" cy="161.93" rx="138.79" ry="133.85"/></g></g></g></svg>