<svg xmlns="http://www.w3.org/2000/svg" xmlns:xlink="http://www.w3.org/1999/xlink" viewBox="0 0 1909.09 1872.75"><defs><style>.cls-1{fill:url(#linear-gradient);}.cls-2{fill:url(#linear-gradient-2);}.cls-3{isolation:isolate;}.cls-26,.cls-4,.cls-46{fill:#fff;}.cls-5{clip-path:url(#clip-path);}.cls-6{opacity:0.5;}.cls-51,.cls-6{mix-blend-mode:soft-light;}.cls-7{fill:url(#linear-gradient-4);}.cls-8{clip-path:url(#clip-path-2);}.cls-9{fill:url(#linear-gradient-6);}.cls-10{fill:url(#linear-gradient-7);}.cls-11{fill:url(#linear-gradient-8);}.cls-12{fill:url(#linear-gradient-9);}.cls-13{fill:url(#linear-gradient-10);}.cls-14,.cls-24,.cls-31,.cls-40{opacity:0.3;}.cls-14,.cls-16,.cls-24,.cls-31,.cls-40,.cls-46{mix-blend-mode:multiply;}.cls-14{fill:url(#linear-gradient-11);}.cls-15{fill:url(#linear-gradient-12);}.cls-16{opacity:0.69;fill:url(#linear-gradient-13);}.cls-17{fill:url(#linear-gradient-14);}.cls-18{fill:url(#linear-gradient-15);}.cls-19{fill:url(#linear-gradient-16);}.cls-20{fill:url(#linear-gradient-17);}.cls-21{fill:url(#linear-gradient-18);}.cls-22{fill:url(#linear-gradient-19);}.cls-23{fill:url(#linear-gradient-20);}.cls-24{fill:url(#linear-gradient-21);}.cls-25{fill:url(#linear-gradient-22);}.cls-26{opacity:0.17;}.cls-27{fill:url(#linear-gradient-23);}.cls-28{fill:url(#linear-gradient-24);}.cls-29{fill:url(#linear-gradient-25);}.cls-30{fill:url(#linear-gradient-26);}.cls-31{fill:url(#linear-gradient-27);}.cls-32{fill:url(#linear-gradient-28);}.cls-33{fill:url(#linear-gradient-29);}.cls-34{fill:url(#linear-gradient-30);}.cls-35{fill:url(#linear-gradient-31);}.cls-36{fill:url(#linear-gradient-32);}.cls-37{fill:url(#linear-gradient-33);}.cls-38{fill:url(#linear-gradient-34);}.cls-39{fill:url(#linear-gradient-35);}.cls-40{fill:url(#linear-gradient-36);}.cls-41{fill:url(#linear-gradient-37);}.cls-42{fill:url(#linear-gradient-38);}.cls-43{fill:url(#linear-gradient-39);}.cls-44{fill:url(#linear-gradient-40);}.cls-45{fill:url(#linear-gradient-41);}.cls-46{opacity:0.57;}.cls-47{fill:url(#linear-gradient-42);}.cls-48{fill:url(#linear-gradient-43);}.cls-49{fill:url(#linear-gradient-44);}.cls-50{fill:url(#linear-gradient-45);}</style><linearGradient id="linear-gradient" x1="741.13" y1="695.3" x2="965.41" y2="986.12" gradientUnits="userSpaceOnUse"><stop offset="0" stop-color="#e54355"/><stop offset="1" stop-color="#5f2d78"/></linearGradient><linearGradient id="linear-gradient-2" x1="582.02" y1="1355.97" x2="1749.53" y2="1355.97" gradientUnits="userSpaceOnUse"><stop offset="0" stop-color="#f6cc1b"/><stop offset="0.05" stop-color="#f6cc1b"/><stop offset="0.32" stop-color="#f6cc1b"/><stop offset="0.45" stop-color="#f4c11c"/><stop offset="0.69" stop-color="#efa420"/><stop offset="0.87" stop-color="#eb8b23"/><stop offset="1" stop-color="#eb8b23"/></linearGradient><clipPath id="clip-path"><path class="cls-1" d="M473.65,1617.34c89.21-42.24,213.22-117.57,301.65-252,116-176.37,68.85-299.53,183.22-624.52,72.32-205.48,124.86-348.15,254.26-391.87,101.4-34.25,237.86-3.63,300.24,78.45,51.87,68.24,58.6,180,47.59,254.77-9,60.9-30.22,100.38-6.7,141.55,24,42.07,66.47,36.29,90.89,69.58,49.52,67.52-37.69,210.31-51.79,233.38-156.79,256.7-473.67,361.88-612.44,406.1C865.82,1569.28,692.91,1611.56,473.65,1617.34Z"/></clipPath><linearGradient id="linear-gradient-4" x1="1772.61" y1="422.31" x2="1005.78" y2="742.81" gradientTransform="translate(525.97 262.21) rotate(24.09)" gradientUnits="userSpaceOnUse"><stop offset="0" stop-color="#eb8b23"/><stop offset="1" stop-color="#e54355"/></linearGradient><clipPath id="clip-path-2"><path class="cls-2" d="M582,1585.17c113.28,80.69,269.75,164.66,455.39,188.94,47.38,6.2,340.06,44.48,388.21-89.77,17-47.29-10.74-76,11-139.6,25.71-75.31,81.07-83.13,156.45-146.61,45-37.87,176.63-148.72,153.89-277.11-13.59-76.72-81.69-156.24-155-183.07-107.54-39.36-205.25,42.35-368.64,183.52-144.84,125.13-157.8,171.68-263.37,260C881.53,1446.93,760.85,1528.15,582,1585.17Z"/></clipPath><linearGradient id="linear-gradient-6" x1="-17.6" y1="1406.13" x2="290.28" y2="419.09" gradientTransform="matrix(0.98, -0.2, 0.2, 0.98, 558.34, 140.16)" gradientUnits="userSpaceOnUse"><stop offset="0" stop-color="#2e1a47"/><stop offset="1" stop-color="#5f2d78"/></linearGradient><linearGradient id="linear-gradient-7" x1="625.56" y1="1628.38" x2="939.21" y2="622.84" xlink:href="#linear-gradient-6"/><linearGradient id="linear-gradient-8" x1="13.94" y1="1406.12" x2="321.82" y2="419.09" gradientTransform="matrix(0.98, -0.2, 0.2, 0.98, 558.34, 140.16)" xlink:href="#linear-gradient-4"/><linearGradient id="linear-gradient-9" x1="649.66" y1="1602.19" x2="957.13" y2="616.46" gradientTransform="matrix(0.98, -0.2, 0.2, 0.98, 558.34, 140.16)" xlink:href="#linear-gradient-4"/><linearGradient id="linear-gradient-10" x1="725.29" y1="1972.7" x2="545.13" y2="1626.23" gradientTransform="matrix(1, 0, 0, 1, 0, 0)" xlink:href="#linear-gradient-6"/><linearGradient id="linear-gradient-11" x1="478.65" y1="1605" x2="465.71" y2="1799.21" gradientTransform="matrix(1, 0, 0, 1, 0, 0)" xlink:href="#linear-gradient-4"/><linearGradient id="linear-gradient-12" x1="332.43" y1="1487.89" x2="696.65" y2="1487.89" gradientTransform="matrix(1, 0, 0, 1, 0, 0)" xlink:href="#linear-gradient-4"/><linearGradient id="linear-gradient-13" x1="508.1" y1="1573.61" x2="512.57" y2="1513.19" gradientTransform="matrix(1, 0, 0, 1, 0, 0)" xlink:href="#linear-gradient-4"/><linearGradient id="linear-gradient-14" x1="541.25" y1="1435.18" x2="483.06" y2="1564.98" xlink:href="#linear-gradient-2"/><linearGradient id="linear-gradient-15" x1="573.45" y1="1672.34" x2="503.35" y2="1084.87" gradientTransform="matrix(1, 0, 0, 1, 0, 0)" xlink:href="#linear-gradient-6"/><linearGradient id="linear-gradient-16" x1="334.07" y1="536.08" x2="-172.15" y2="698.54" xlink:href="#linear-gradient-2"/><linearGradient id="linear-gradient-17" x1="743.58" y1="32.18" x2="291.65" y2="1029.22" gradientUnits="userSpaceOnUse"><stop offset="0" stop-color="#f6cc1b"/><stop offset="1" stop-color="#f6cc1b"/></linearGradient><linearGradient id="linear-gradient-18" x1="660.45" y1="1084.94" x2="573.25" y2="608.57" xlink:href="#linear-gradient-2"/><linearGradient id="linear-gradient-19" x1="475.57" y1="313.88" x2="834.93" y2="1076.74" xlink:href="#linear-gradient-2"/><linearGradient id="linear-gradient-20" x1="461.25" y1="149.73" x2="641.95" y2="826.96" xlink:href="#linear-gradient-17"/><linearGradient id="linear-gradient-21" x1="369.84" y1="363.25" x2="728.48" y2="1124.57" xlink:href="#linear-gradient-2"/><linearGradient id="linear-gradient-22" x1="245.11" y1="965.85" x2="554.47" y2="1589.64" xlink:href="#linear-gradient"/><linearGradient id="linear-gradient-23" x1="-587.53" y1="2576.15" x2="-578.3" y2="2742.4" gradientTransform="matrix(-0.72, 0.69, 0.69, 0.72, -562.84, 233.42)" gradientUnits="userSpaceOnUse"><stop offset="0" stop-color="#5f2d78"/><stop offset="1" stop-color="#24205b"/></linearGradient><linearGradient id="linear-gradient-24" x1="1373.16" y1="1652.4" x2="1387.48" y2="1910.22" gradientTransform="matrix(1, 0, 0, 1, 0, 0)" xlink:href="#linear-gradient-23"/><linearGradient id="linear-gradient-25" x1="1400.21" y1="1779.46" x2="1392.6" y2="1431.37" gradientUnits="userSpaceOnUse"><stop offset="0" stop-color="#f6cc1b"/><stop offset="1" stop-color="#eb8b23"/></linearGradient><linearGradient id="linear-gradient-26" x1="1289.69" y1="1553.22" x2="1434.25" y2="1359.2" gradientTransform="matrix(1, 0, 0, 1, 0, 0)" xlink:href="#linear-gradient-6"/><linearGradient id="linear-gradient-27" x1="1308.13" y1="1566.96" x2="1452.69" y2="1372.94" gradientTransform="matrix(1, 0, 0, 1, 0, 0)" xlink:href="#linear-gradient-6"/><linearGradient id="linear-gradient-28" x1="1701.15" y1="1756.96" x2="1690.51" y2="1270.13" xlink:href="#linear-gradient-25"/><linearGradient id="linear-gradient-29" x1="1601.34" y1="1638.68" x2="1570.69" y2="1420.92" gradientTransform="matrix(1, 0, 0, 1, 0, 0)" xlink:href="#linear-gradient-6"/><linearGradient id="linear-gradient-30" x1="1440.43" y1="551.47" x2="1744" y2="1045.75" gradientTransform="matrix(1, 0, 0, 1, 0, 0)" xlink:href="#linear-gradient-23"/><linearGradient id="linear-gradient-31" x1="879.5" y1="1051.79" x2="954.77" y2="944.8" xlink:href="#linear-gradient-25"/><linearGradient id="linear-gradient-32" x1="783.95" y1="1005.43" x2="973.14" y2="1249.44" xlink:href="#linear-gradient-2"/><linearGradient id="linear-gradient-33" x1="708.83" y1="1063.68" x2="898.09" y2="1307.78" xlink:href="#linear-gradient-2"/><linearGradient id="linear-gradient-34" x1="670.29" y1="1102.56" x2="848.09" y2="1331.88" xlink:href="#linear-gradient-2"/><linearGradient id="linear-gradient-35" x1="837.79" y1="1031.99" x2="897.28" y2="1128.86" gradientTransform="matrix(1, 0, 0, 1, 0, 0)" xlink:href="#linear-gradient-6"/><linearGradient id="linear-gradient-36" x1="783.96" y1="1005.43" x2="973.15" y2="1249.44" xlink:href="#linear-gradient-2"/><linearGradient id="linear-gradient-37" x1="876.53" y1="1089.33" x2="879.22" y2="1105.19" xlink:href="#linear-gradient-2"/><linearGradient id="linear-gradient-38" x1="867.04" y1="1014.03" x2="926.53" y2="1110.89" gradientTransform="matrix(1, 0, 0, 1, 0, 0)" xlink:href="#linear-gradient-6"/><linearGradient id="linear-gradient-39" x1="875.52" y1="1048.99" x2="950.8" y2="942" xlink:href="#linear-gradient-25"/><linearGradient id="linear-gradient-40" x1="1584.56" y1="1581.84" x2="1827.07" y2="1910.97" gradientUnits="userSpaceOnUse"><stop offset="0.49" stop-color="#fff"/><stop offset="1" stop-color="#fff"/></linearGradient><linearGradient id="linear-gradient-41" x1="1708.18" y1="1490.75" x2="1950.69" y2="1819.88" xlink:href="#linear-gradient-40"/><linearGradient id="linear-gradient-42" x1="1345.67" y1="906.02" x2="1428.74" y2="993.93" xlink:href="#linear-gradient-25"/><linearGradient id="linear-gradient-43" x1="1845.37" y1="1389.66" x2="2087.89" y2="1718.79" xlink:href="#linear-gradient-40"/><linearGradient id="linear-gradient-44" x1="1583.22" y1="962.25" x2="1671.67" y2="833.86" gradientTransform="translate(-445.41 166.53) rotate(-11.85)" xlink:href="#linear-gradient-25"/><linearGradient id="linear-gradient-45" x1="1575.21" y1="897.13" x2="1715.01" y2="812.96" gradientTransform="translate(-445.41 166.53) rotate(-11.85)" xlink:href="#linear-gradient-25"/></defs><g class="cls-3"><g id="Layer_2" data-name="Layer 2"><g id="Layer_1-2" data-name="Layer 1"><path class="cls-4" d="M1833.55,912.77c31,158,93.69,478.08-56.45,692.24-272.48,388.67-1199.18,361.28-1590.61-128.75-33.84-42.37-203.6-263.36-185.08-566C33.54,385.4,613.46-79.83,1078.22,11.54,1350.22,65,1531,299,1605.43,395.28,1636.11,435,1776.58,622.1,1833.55,912.77Z"/><path class="cls-1" d="M473.65,1617.34c89.21-42.24,213.22-117.57,301.65-252,116-176.37,68.85-299.53,183.22-624.52,72.32-205.48,124.86-348.15,254.26-391.87,101.4-34.25,237.86-3.63,300.24,78.45,51.87,68.24,58.6,180,47.59,254.77-9,60.9-30.22,100.38-6.7,141.55,24,42.07,66.47,36.29,90.89,69.58,49.52,67.52-37.69,210.31-51.79,233.38-156.79,256.7-473.67,361.88-612.44,406.1C865.82,1569.28,692.91,1611.56,473.65,1617.34Z"/><g class="cls-5"><g class="cls-6"><path class="cls-4" d="M378.76,1642.88l-.23-4.61c133.59-6.92,253.37-27.89,356-62.33,151.4-50.8,260.9-129.76,325.44-234.68,50.55-82.16,72.53-177,103-308.24,24.28-104.77,32-181.2,38.89-248.64,8.94-88,16-157.59,56-248.85,40.64-92.63,102.87-177.69,185-252.81l3.12,3.41c-81.61,74.68-143.47,159.22-183.84,251.26-39.75,90.6-46.78,159.82-55.68,247.45-6.85,67.58-14.63,144.17-39,249.22-29.37,126.73-52.57,226.82-103.51,309.62C998.79,1449.55,888.47,1529.16,736,1580.32,633,1614.89,512.78,1635.94,378.76,1642.88Z"/><path class="cls-4" d="M1181.81,958.76l-2-1.73c-.59-.51-58.68-52.33-104-143.84a521.68,521.68,0,0,1-50.76-168.65c-8.85-72.7-2-147.82,20.31-223.28l4.43,1.31c-22.15,74.85-28.93,149.34-20.16,221.41A517.11,517.11,0,0,0,1080,811.14c40.26,81.33,90.58,130.91,101,140.66C1296.09,784.87,1432.5,701,1526.85,659.91c102.74-44.69,179.29-49.6,180.05-49.65l.27,4.61c-.76,0-76.64,4.94-178.68,49.36-94.15,41-230.46,125-345.2,292.37Z"/><path class="cls-4" d="M1115.6,1240.32c-1.69,0-3.36,0-5-.07l-1.67,0-.48-1.61c-.35-1.2-36-120.59-95.19-233.28-58.93-112.23-251.06-206.46-253-207.4l2-4.16c1.94,1,195.43,95.83,255.07,209.41,55.64,106,90.55,217.79,95,232.5,1.07,0,2.14,0,3.22,0,120.6,0,280.75-113.32,394.57-209.13,125.22-105.39,222.89-212.9,223.86-214l3.42,3.1c-1,1.08-98.85,108.82-224.3,214.42-73.72,62.05-142.41,111.24-204.17,146.21C1233.93,1218.8,1168.91,1240.32,1115.6,1240.32Z"/><path class="cls-4" d="M1001.77,1584.26c-128.57,0-217.52-17.06-218.48-17.25l-4.52-.88,3.41-3.1c46.44-42.16,74.78-92.73,84.24-150.31,7.58-46.14,3.14-96.89-13.19-150.84-27.87-92.05-81.38-162.29-81.92-163l3.67-2.81c.54.7,54.56,71.62,82.67,164.46,16.54,54.64,21,106.09,13.33,152.93-9.4,57.2-37.07,107.59-82.27,149.83,21.63,3.76,118.44,19,247.84,15.92,135.18-3.27,334.57-27.9,516.77-126.64L1906.89,1261l2.2,4.06-353.57,191.62c-183,99.2-383.26,123.93-519,127.2C1024.67,1584.13,1013.06,1584.26,1001.77,1584.26Z"/></g></g><path class="cls-7" d="M582,1585.17c113.28,80.69,269.75,164.66,455.39,188.94,47.38,6.2,340.06,44.48,388.21-89.77,17-47.29-10.74-76,11-139.6,25.71-75.31,81.07-83.13,156.45-146.61,45-37.87,176.63-148.72,153.89-277.11-13.59-76.72-81.69-156.24-155-183.07-107.54-39.36-205.25,42.35-368.64,183.52-144.84,125.13-157.8,171.68-263.37,260C881.53,1446.93,760.85,1528.15,582,1585.17Z"/><path class="cls-2" d="M582,1585.17c113.28,80.69,269.75,164.66,455.39,188.94,47.38,6.2,340.06,44.48,388.21-89.77,17-47.29-10.74-76,11-139.6,25.71-75.31,81.07-83.13,156.45-146.61,45-37.87,176.63-148.72,153.89-277.11-13.59-76.72-81.69-156.24-155-183.07-107.54-39.36-205.25,42.35-368.64,183.52-144.84,125.13-157.8,171.68-263.37,260C881.53,1446.93,760.85,1528.15,582,1585.17Z"/><g class="cls-8"><g class="cls-6"><path class="cls-4" d="M660.21,1586.57q-122.12,0-234.6-40c-135.92-48.45-255.86-137.25-356.46-263.93l3.62-2.88c100.06,126,219.29,214.31,354.4,262.46,180,64.15,380.27,50.57,595.27-40.36,223.94-94.72,407.73-249.61,522.48-362.87,79.54-78.51,141.12-184,183-313.52l4.39,1.42c-42.12,130.24-104.08,236.35-184.16,315.39-115,113.54-299.31,268.83-523.92,363.83C897.48,1559.72,775.74,1586.57,660.21,1586.57Z"/><path class="cls-4" d="M1298.07,1350l-.09-2.3c0-.68-2.45-69.23,16.79-157.87,17.76-81.86,58.15-198.14,149.69-287.22l3.22,3.31C1377,994.14,1337,1109.45,1319.31,1190.65c-17.16,79-17,141.93-16.77,154.54,358.61-13.36,489.69-224.49,521.37-289,.91-1.84,1.28-2.6,1.56-3l3.87,2.51-1.93-1.26,1.94,1.26c-.16.24-.71,1.36-1.29,2.55-32,65.23-164.77,279-527.69,291.66Z"/><path class="cls-4" d="M1369.45,1665.77c-2.93,0-5.88,0-8.87-.11-50.63-1.23-101.79-12.82-152.09-34.44-62.78-27-124.36-69.78-183-127.19l-.87-.85.22-1.21c.37-2.07,38.87-209.83,193.81-420.5L1375,868.81l3.73,2.73-156.43,212.67c-148.21,201.51-189.41,400.16-192.76,417.38,72.84,71.05,189.15,156,331.11,159.45,85,2.06,139.64-26.57,140.18-26.86l2.18,4.08C1502.52,1638.54,1450.66,1665.77,1369.45,1665.77Z"/></g></g><path class="cls-9" d="M211.39,1742.32c-35.4,8.6-73.39,6.13-107.15-9.6-74.77-34.82-99.88-121-55.86-192L690.5,498c21-33.91,56.73-57.55,97.69-64.87,40.78-7.28,82.81,2.33,115.26,26.28l339,250.15,241.78-408.87c36.16-61.17,116.6-81.08,179.48-45,62.5,35.88,84.52,113.88,49.37,174.7L1401.48,969.58c-19.41,33.58-52.78,57.75-91.56,66.21-39,8.49-79.51.29-111.13-22.55L857.14,766.37l-541.3,901C292.54,1705.77,253.83,1732,211.39,1742.32Z"/><polygon class="cls-10" points="1810.71 476.34 1407.01 247.31 1818.63 7.27 1849.52 0.88 1841.66 466.22 1810.71 476.34"/><path class="cls-11" d="M242.28,1735.93c-35.4,8.6-73.39,6.13-107.15-9.6-74.77-34.82-99.88-121-55.86-192L721.39,491.64c21.05-33.91,56.73-57.56,97.69-64.87,40.78-7.29,82.81,2.33,115.26,26.28l339,250.15L1515.1,294.33c36.16-61.17,116.6-81.08,179.48-45,62.5,35.88,84.52,113.87,49.37,174.7L1432.37,963.19c-19.41,33.58-52.78,57.75-91.56,66.2-39,8.5-79.52.3-111.13-22.55L888,760,346.73,1661C323.43,1699.38,284.72,1725.62,242.28,1735.93Z"/><polygon class="cls-12" points="1841.6 469.95 1437.9 240.92 1849.52 0.88 1841.6 469.95"/><path class="cls-13" d="M332.43,1487.89l61,274.06c0,17.68,54.23,32,121.13,32s121.14-14.34,121.14-32l61-274.06Z"/><path class="cls-14" d="M573,1739.24c-25.46-34.42-11.52-58.33-40.28-97-43.29-58.18-104.21-43.42-134.27-85-10.47-14.5-17.28-36-13-69.34H332.43l61,274.06c0,17.68,54.23,32,121.13,32,46.12,0,86.2-6.81,106.66-16.84C597.4,1766.1,582.62,1752.31,573,1739.24Z"/><path class="cls-15" d="M696.65,1487.89c0,17.69-81.53,32-182.11,32s-182.11-14.34-182.11-32,81.54-32,182.11-32S696.65,1470.21,696.65,1487.89Z"/><ellipse class="cls-16" cx="514.54" cy="1486.61" rx="169.66" ry="25.36"/><path class="cls-17" d="M353.88,1494.76c22.71,10,86,17.21,160.66,17.21s138-7.2,160.66-17.21c-30.65-10.09-91.06-17-160.66-17S384.54,1484.67,353.88,1494.76Z"/><path class="cls-18" d="M514.54,1495.71a9,9,0,0,1-8.95-9V870.52a9,9,0,0,1,17.9,0v616.24A9,9,0,0,1,514.54,1495.71Z"/><path class="cls-19" d="M916.84,517.71c0,234.85-183.63,419.59-418.33,412.38-244.26-7.5-449.69-218.45-449.69-470.9S254.25,23.5,498.51,48.93C733.21,73.37,916.84,282.87,916.84,517.71Z"/><path class="cls-20" d="M980.27,497.46c0,234.85-183.64,419.59-418.34,412.38-244.26-7.5-449.69-218.45-449.69-470.9S317.67,3.25,561.93,28.68C796.63,53.12,980.27,262.62,980.27,497.46Z"/><path class="cls-21" d="M961.85,496.22c0,224.5-175.71,400.81-399.92,393.55C329,882.23,133.46,680.91,133.46,440.37S329,24.89,561.93,48.75C786.14,71.72,961.85,271.72,961.85,496.22Z"/><path class="cls-22" d="M948.65,495.33c0,217.1-170,387.38-386.72,380.1-224.83-7.55-413.36-202-413.36-434S337.1,40.32,561.93,63.09C778.63,85,948.65,278.24,948.65,495.33Z"/><path class="cls-23" d="M559.71,136.94h0c11.53,1.1,20.86,11.48,20.86,23.19v40a587.86,587.86,0,0,1,69.28,12q25.57,6,50.81,14.31c10.08,3.31,17,13.49,15.92,24l-4.91,50.13a18.79,18.79,0,0,1-26.82,15.59,287.58,287.58,0,0,0-34.09-12.7,309,309,0,0,0-64.29-12l-5.9-.48V405.4c60.16,16.83,104.34,39.47,132.89,68S756,537,756,579.42Q756,648.21,709,689.7q-47.4,41.76-133.18,46.89V780.7a20.07,20.07,0,0,1-20.88,20.39l-.37,0a22.17,22.17,0,0,1-21-22.12V735.43l-9.3-.42a611.55,611.55,0,0,1-77.15-8.22,502.62,502.62,0,0,1-53.31-12.27c-10.49-3-17.69-13-16.73-23.75l5.78-64.43c1.25-13.93,15.24-22,28.48-16.81a418.24,418.24,0,0,0,46.89,15.39,411.05,411.05,0,0,0,75,12.53l.37-127.34c-57.74-14.28-101-35.45-129.38-63.48s-42.85-64.21-42.85-108q0-68,46.46-104.93c30.77-24.44,74.53-36.61,131-36.58V156.23C538.77,144.48,548.15,135.84,559.71,136.94Zm-20.94,152.8q-26.78,2-41.72,14.71t-15,34.37q0,20.43,13.85,34.14t42.84,21.86Zm37,230.58V637.09q29.1.06,44.66-13.88T636,583.9q0-23.16-14.45-38.43T575.78,520.32Z"/><path class="cls-24" d="M492,548.49c13.06-129,131.66-183.67,116.19-302.38-9.54-73.16-65-134.82-126.86-183-187.62,19.68-332.71,175-332.71,378.24,0,232.05,188.53,426.5,413.36,434a390.23,390.23,0,0,0,63.88-3.11C536.52,783.47,480.72,659.36,492,548.49Z"/><path class="cls-25" d="M508.94,1484.62c-18,9.93-78.15-52-119.18-119.18-26.69-43.68-15.38-47.62-36.93-78.32-50.38-71.75-110.5-62.63-133-120.1-16.23-41.53,11.75-55-4.62-92.39C185.37,1006.39,78,1018.69,67.73,972.41c-6.74-30.49,32-71.31,71-88.75,108.74-48.67,297.72,57,339.78,192.71,22.61,73-15.65,95.15,2.54,235.82C494.59,1416.93,525,1475.77,508.94,1484.62Z"/><path class="cls-26" d="M113.62,938.35c14.16-27.07,103.32-26.49,164,9.24,61.22,36,63.6,90.3,140.9,300.27,49.83,135.36,77.42,190.43,67,196.33-10.76,6.09-58.49-42.13-85.46-101.63-25.87-57.09-9.85-74.27-34.64-106.25-41.08-53-104.64-31.06-124.73-73.91-20.9-44.55,38.32-88.5,16.17-124.73-23.15-37.87-100.23-10.12-134-60.05C120.4,974,106.08,952.78,113.62,938.35Z"/><path class="cls-27" d="M1704.94,1700.89c4.48.27,10.54,1.43,14.59,5.86,9.8,10.72,2.55,34.89-11.24,47.62-14.58,13.47-38.25,15.77-41.53,10.08-1.61-2.8,1.66-7.61,3.63-10.48,7.43-10.91,16.36-8.63,20.61-16.63,4.34-8.16-2.88-14.45,1.37-24.35C1695.12,1706.58,1700.85,1702.91,1704.94,1700.89Z"/><path class="cls-28" d="M1409,1744.08s1.79,14.25.59,19-42.64,8.22-56.7,6.56,8.38-16,17.34-18.72S1409,1744.08,1409,1744.08Z"/><path class="cls-29" d="M1388.18,1720.3l4.36,28.6s11.14,5,16.49.06l.59-29.93Z"/><path class="cls-30" d="M1301.4,1192.59a740.56,740.56,0,0,0-1.59,132.09c5.67,73.08,20.28,119.32,38.61,197.25,11.2,47.62,26.29,117.71,39.94,205.36a38.59,38.59,0,0,0,24.5,4.8,37.22,37.22,0,0,0,14.71-5.59c35.83-109.49,25.25-177.34,8-219.61-7.37-18-16.31-32.23-21.09-59.93-6.32-36.65,1.5-57.14,12.64-142,8-60.5,6.57-69.86,1.29-78.93C1397.24,1189.73,1332.62,1190.44,1301.4,1192.59Z"/><path class="cls-31" d="M1425.53,1506.89c-7.37-18-16.31-32.24-21.09-59.93-6.32-36.65,1.5-57.14,12.64-142,8-60.5,6.57-69.86,1.29-78.93-11.48-19.71-35.82-28.46-60.65-32,.33,1.27.67,2.54.94,3.78,13,59.49-36.69,95.8-14.27,161.2,11.06,32.25,28.7,39.63,32.81,77,3.86,35-10.11,42.34-7.13,74.18,4.46,47.61,38.28,59.13,47.08,95.58,5.72,23.69.9,58.33-40.86,108.47.69,4.32,1.39,8.65,2.07,13.06a38.59,38.59,0,0,0,24.5,4.8,37.22,37.22,0,0,0,14.71-5.59C1453.4,1617,1442.82,1549.16,1425.53,1506.89Z"/><path class="cls-32" d="M1687.69,1679.77l10.44,32.87c1.4,4.4,6.95,6.27,10.4,3.19a15.93,15.93,0,0,0,2.55-3v-40.34Z"/><path class="cls-33" d="M1417.11,1220.87c-8,12,1.23,30.2,104.84,179.85,61.3,88.53,77.82,110.71,101.1,151.62a981.31,981.31,0,0,1,66.73,142.83,25.51,25.51,0,0,0,13.63-.89,28.17,28.17,0,0,0,9.68-6.55c5.14-5.43,27.11-50.68-1.3-151.81-12.73-45.35-25.06-89.25-61.17-132.44-23.53-28.14-36-30.7-55.12-61.56-26.8-43.31-17.49-63-37.26-88.79C1522.37,1206.24,1434.05,1195.66,1417.11,1220.87Z"/><path class="cls-34" d="M1354.1,832.78c-35.64-42.59-69.26-35.33-95.17-75.81-15.34-24-26.28-62-9.77-84.66,8.56-11.73,21.81-15.63,32.36-18.57,38.56-10.77,63.14,5.21,91.94,8.06,49.69,4.93,57.82-34.59,135.4-65.4C1535,586,1618,553.05,1688,589.22c9,4.67,59.76,32.16,62.91,74.2,2.49,33.27-26.86,48.71-19.53,67.16,12.75,32.07,105.18-5.21,147,36.07,39,38.51,21.38,133.09-21,191.94-62.63,87-174.93,89.76-198.39,90.33-117.67,2.85-237.47-69.59-272.6-153.23C1378.71,877.47,1374.33,857,1354.1,832.78Z"/><path class="cls-35" d="M927.63,1016.89s-34.61-2.77-44.75,1.29S857.82,1039,859,1047.32l1.14,8.35s21.47,9.19,27.36-1,12.36-18.89,23-20.61S927.6,1027.12,927.63,1016.89Z"/><path class="cls-36" d="M827.41,1152.25l35.77,91.62a24.25,24.25,0,0,0,29.22,14.56c32.53-9.2,93.08-31.57,117.77-75.35a24.16,24.16,0,0,0-2.64-27.18l-61.48-74.24a13.64,13.64,0,0,0-17.5-3l-95.42,56.92A13.66,13.66,0,0,0,827.41,1152.25Z"/><polygon class="cls-37" points="729.09 1157.42 851 1173.34 864.58 1225.1 735 1171.12 729.09 1157.42"/><path class="cls-38" d="M696.37,1145c-.72,17.57.76,31.65,4.08,42.78a5.54,5.54,0,0,0,6.78,3.79l44.23-12.21v-19L704.05,1140A5.53,5.53,0,0,0,696.37,1145Z"/><path class="cls-39" d="M847.52,1133.45a6.47,6.47,0,0,1-5.68-3.38c-1.71-3.15-41.38-77.41-1.57-99.57,39-21.71,88.9,58.62,94.46,67.85a6.45,6.45,0,0,1-11.05,6.66c-12.43-20.62-53.3-76.57-77.13-63.23-28.32,15.76,6.28,81.48,6.63,82.14a6.45,6.45,0,0,1-2.59,8.75A6.57,6.57,0,0,1,847.52,1133.45Z"/><path class="cls-40" d="M1007.52,1155.9l-61.47-74.24a13.64,13.64,0,0,0-17.5-3l-65.75,39.22c-.57,12.47,1.6,24.15,9.3,31.82,21.06,21,67.64-3.49,78.5,14,7.85,12.64-8.31,38.6-24.73,52.69-20.7,17.77-46.43,20.65-65.8,19.56l3.11,7.95a24.25,24.25,0,0,0,29.22,14.56c32.53-9.2,93.08-31.57,117.77-75.35A24.15,24.15,0,0,0,1007.52,1155.9Z"/><path class="cls-41" d="M934.93,1078.85c3.69,6.4-17.85,25.75-48.12,43.23s-57.8,26.45-61.49,20.06,17.85-25.75,48.12-43.23S931.23,1072.46,934.93,1078.85Z"/><path class="cls-42" d="M934.73,1098.35c-4.05-6.72-31.63-51.14-61.38-66.39a42.86,42.86,0,0,1-3.27,12.93c21.33,12.65,44.72,45.39,53.6,60.12a6.45,6.45,0,0,0,11.05-6.66Z"/><path class="cls-43" d="M893.26,1026.38l-25.39,17.28s.16,7.41,10.8,0,17.63-8,17.63-8Z"/><path class="cls-44" d="M915.56,1011.89q3,13.53,6,27.05c33.57,10.26,90.09,22.37,158.07,11.82,130.15-20.19,207.12-108.68,228-134.41.29-59.11-18.17-111.08-48.16-117.47-5.77-1.23-3.74-47.37-71.2,40-47.43,61.47-53.65,77.27-71,96.78C1087.51,969.24,1031.46,1006.37,915.56,1011.89Z"/><path class="cls-45" d="M1407.31,776.33c-35-35.34-106.82-14.8-121-10.76-20.57,5.89-64.58,18.48-82.07,54.8-8.31,17.25-9.8,38.14,21.22,124.52,46.51,129.52,73.64,148.75,64.35,200-5.87,32.37-22.46,56.55-9.42,72.29,10.68,12.88,31.69,8.62,57,7.53,75.86-3.28,76.82,26.84,161.29,31.18,69.68,3.58,74.33-16.64,133.39-5.08,39.39,7.71,68.88,22.88,76.3,12.61,7.79-10.77-15.68-39.76-18.06-42.64-31.23-38-60.56-28.86-94.85-61.67-13.35-12.78-6.7-12.06-43.24-72.05-19.91-32.69-36.15-56.33-51.39-78.49-55.43-80.67-56.27-69.12-66.67-92.48C1403.36,846.82,1438.66,808,1407.31,776.33Z"/><path class="cls-46" d="M1690.34,1220.81c-31.23-38-60.56-28.86-94.85-61.67-13.35-12.78-6.7-12.06-43.24-72.05-19.91-32.69-36.15-56.33-51.39-78.49-55.43-80.67-56.27-69.12-66.67-92.48-23.94-53.81-8-89.27-14.38-117.24-35.2,25-57.11,60.54-58.74,95.73-2.54,55,43.88,121.93,94.63,134.42,14.3,3.52,28.54,2.61,34.41,12.9,12.26,21.49-35.06,51.4-30.11,83.88,8,52.28,144.3,64.59,142,81.72-1.7,12.35-73.47,13.49-102.16,12.91-16.86-.34-32.69-.66-53.77-4.31-52.15-9-65.12-26-90.32-26.88-16.77-.56-39,6.12-66.28,34.36,11.63,4.65,28.53,2,48,1.13,75.86-3.28,76.82,26.84,161.29,31.18,69.68,3.58,74.33-16.64,133.39-5.08,39.39,7.71,68.88,22.88,76.3,12.61C1716.19,1252.68,1692.72,1223.69,1690.34,1220.81Z"/><path class="cls-47" d="M1404.33,940.63s-21.36-9.39-31-18.51-41.1-9.29-41.1-9.29-.18,11.27,12.72,17.23,35.64,10.57,35.64,10.57l19.91,19.29Z"/><path class="cls-48" d="M1328.22,769c20.29-31.56,118.78.43,160.28,17.85,46.86,19.67,109.23,45.86,121.54,104.4,6.21,29.53-.72,65.38-22.34,88.35-38.83,41.24-125.89,41.86-199.56-17q4.6-16.11,9.22-32.21c80.79,25.42,102.8,23.56,106.62,16.08,4.58-9-14.43-31-35.64-42.7-23.73-13-40.27-7.62-59.68-12.1C1354.62,879.21,1309.87,797.5,1328.22,769Z"/><path class="cls-49" d="M1299.14,711.83s12.14,35.28,27.25,40.77,39,11.8,42,14.24-80.29,29.48-127,17h0c13.31-5.83,16.87-7.69,16.87-7.69a79.94,79.94,0,0,0,16.4-10.83,62,62,0,0,0,15.84-22.31l-4.36-20Z"/><path class="cls-50" d="M1303.87,724.24S1297.66,738,1283,735.91c-13.18-1.89-12.51-35-3.56-40.68,3-1.89,9-2.6,13.54-1,3.16,1.16,12.58,8.87,10.48,20.16,2.9-1.54,5.79-1.3,6.8.09,1.27,1.76-.79,5-1.26,5.68A10.68,10.68,0,0,1,1303.87,724.24Z"/><g class="cls-51"><path class="cls-4" d="M413.8,1492.91a1.34,1.34,0,0,1-1.33-1.3s0-1.39,0-4a1.35,1.35,0,0,1,1.34-1.31,1.33,1.33,0,0,1,1.31,1.34c0,2.54,0,3.91,0,3.92a1.33,1.33,0,0,1-1.3,1.35Z"/><path class="cls-4" d="M414,1481h-.05a1.33,1.33,0,0,1-1.28-1.37c.09-2.37.21-5,.38-8a1.31,1.31,0,0,1,1.39-1.25,1.33,1.33,0,0,1,1.25,1.4c-.17,3-.29,5.62-.37,8A1.32,1.32,0,0,1,414,1481Zm.9-16h-.1a1.32,1.32,0,0,1-1.22-1.42c.19-2.52.41-5.19.67-8a1.29,1.29,0,0,1,1.44-1.19,1.32,1.32,0,0,1,1.19,1.44q-.39,4.17-.66,7.94A1.33,1.33,0,0,1,414.89,1465Zm1.47-15.91h-.15a1.32,1.32,0,0,1-1.17-1.46c.28-2.56.59-5.22.93-8a1.33,1.33,0,1,1,2.63.33q-.51,4.08-.93,7.91A1.32,1.32,0,0,1,416.36,1449.1Zm2-15.85h-.19a1.32,1.32,0,0,1-1.12-1.5q.54-3.87,1.19-7.91a1.3,1.3,0,0,1,1.51-1.1,1.32,1.32,0,0,1,1.1,1.51c-.43,2.68-.82,5.31-1.18,7.87A1.32,1.32,0,0,1,418.35,1433.25Zm2.5-15.77a.9.9,0,0,1-.23,0,1.31,1.31,0,0,1-1.07-1.53c.45-2.58.93-5.21,1.45-7.87a1.32,1.32,0,1,1,2.59.5q-.76,4-1.44,7.83A1.32,1.32,0,0,1,420.85,1417.48Zm3-15.67-.27,0a1.32,1.32,0,0,1-1-1.56q.81-3.87,1.71-7.82a1.33,1.33,0,0,1,1.59-1,1.31,1.31,0,0,1,1,1.58c-.59,2.62-1.16,5.22-1.7,7.78A1.32,1.32,0,0,1,423.87,1401.81Zm3.55-15.56a1.12,1.12,0,0,1-.32,0,1.32,1.32,0,0,1-1-1.6c.63-2.56,1.29-5.15,2-7.75a1.32,1.32,0,1,1,2.56.68c-.69,2.59-1.34,5.16-2,7.7A1.32,1.32,0,0,1,427.42,1386.25Zm4.09-15.42a1.57,1.57,0,0,1-.37,0,1.33,1.33,0,0,1-.91-1.64q1.09-3.81,2.26-7.67a1.33,1.33,0,0,1,2.54.77q-1.17,3.84-2.25,7.63A1.33,1.33,0,0,1,431.51,1370.83Zm4.65-15.26a1.51,1.51,0,0,1-.41-.06,1.34,1.34,0,0,1-.85-1.67c.82-2.52,1.68-5,2.56-7.59a1.32,1.32,0,0,1,2.5.87c-.88,2.52-1.73,5-2.54,7.54A1.32,1.32,0,0,1,436.16,1355.57Zm5.25-15.06a1.22,1.22,0,0,1-.46-.09,1.31,1.31,0,0,1-.78-1.7q1.38-3.73,2.86-7.47a1.32,1.32,0,1,1,2.46,1q-1.47,3.72-2.84,7.42A1.33,1.33,0,0,1,441.41,1340.51Zm5.86-14.84a1.29,1.29,0,0,1-.51-.1,1.31,1.31,0,0,1-.71-1.73q1.54-3.67,3.18-7.34a1.32,1.32,0,0,1,2.42,1.07q-1.63,3.65-3.16,7.29A1.32,1.32,0,0,1,447.27,1325.67Zm6.5-14.55a1.39,1.39,0,0,1-.56-.13,1.34,1.34,0,0,1-.63-1.77c1.14-2.4,2.31-4.79,3.52-7.19a1.32,1.32,0,0,1,2.36,1.2q-1.8,3.55-3.49,7.13A1.33,1.33,0,0,1,453.77,1311.12Zm7.18-14.24a1.27,1.27,0,0,1-.62-.16,1.31,1.31,0,0,1-.54-1.79c1.25-2.35,2.54-4.68,3.86-7a1.32,1.32,0,1,1,2.3,1.31q-2,3.45-3.83,7A1.34,1.34,0,0,1,461,1296.88Zm7.88-13.86a1.43,1.43,0,0,1-.69-.19,1.34,1.34,0,0,1-.45-1.82q2.07-3.42,4.23-6.8a1.31,1.31,0,0,1,1.83-.4,1.33,1.33,0,0,1,.4,1.83Q472,1279,470,1282.38A1.33,1.33,0,0,1,468.83,1283Zm8.59-13.43a1.25,1.25,0,0,1-.74-.23,1.32,1.32,0,0,1-.36-1.84c1.5-2.2,3-4.39,4.6-6.55a1.32,1.32,0,1,1,2.14,1.55c-1.55,2.14-3.06,4.31-4.55,6.49A1.3,1.3,0,0,1,477.42,1269.59Zm9.33-12.92a1.36,1.36,0,0,1-.81-.27,1.32,1.32,0,0,1-.24-1.86c1.62-2.11,3.27-4.21,5-6.28a1.32,1.32,0,1,1,2.05,1.67q-2.52,3.09-4.92,6.22A1.33,1.33,0,0,1,486.75,1256.67Zm10.07-12.35a1.3,1.3,0,0,1-.87-.32,1.33,1.33,0,0,1-.13-1.87q2.61-3,5.34-6a1.34,1.34,0,0,1,1.87-.07,1.32,1.32,0,0,1,.07,1.87q-2.7,2.93-5.28,5.91A1.32,1.32,0,0,1,496.82,1244.32Zm10.81-11.7a1.32,1.32,0,0,1-.94-2.25c1.86-1.9,3.77-3.77,5.71-5.62a1.32,1.32,0,0,1,1.82,1.92q-2.88,2.74-5.65,5.56A1.33,1.33,0,0,1,507.63,1232.62Zm11.54-11a1.32,1.32,0,0,1-.88-2.31q3-2.65,6.06-5.23a1.33,1.33,0,0,1,1.7,2c-2,1.69-4,3.42-6,5.16A1.3,1.3,0,0,1,519.17,1221.64Zm12.24-10.19a1.33,1.33,0,0,1-.82-2.37c2.1-1.63,4.23-3.24,6.41-4.81a1.32,1.32,0,0,1,1.55,2.14c-2.15,1.56-4.26,3.14-6.33,4.76A1.31,1.31,0,0,1,531.41,1211.45Zm12.89-9.35a1.34,1.34,0,0,1-1.1-.58,1.32,1.32,0,0,1,.36-1.84c2.2-1.49,4.44-2.94,6.71-4.37a1.33,1.33,0,1,1,1.41,2.25c-2.25,1.41-4.47,2.84-6.64,4.31A1.37,1.37,0,0,1,544.3,1202.1Zm13.49-8.45a1.32,1.32,0,0,1-.66-2.47q3.43-2,7-3.9a1.32,1.32,0,1,1,1.25,2.33c-2.34,1.26-4.64,2.54-6.91,3.86A1.35,1.35,0,0,1,557.79,1193.65Zm14-7.53a1.32,1.32,0,0,1-.58-2.51c2.37-1.17,4.78-2.32,7.23-3.43a1.32,1.32,0,0,1,1.09,2.41q-3.63,1.65-7.15,3.39A1.25,1.25,0,0,1,571.82,1186.12Zm14.5-6.58a1.33,1.33,0,0,1-.51-2.55c2.45-1,4.93-2,7.44-3a1.33,1.33,0,1,1,.94,2.48q-3.74,1.41-7.36,2.92A1.32,1.32,0,0,1,586.32,1179.54Zm14.89-5.64a1.32,1.32,0,0,1-.43-2.57q3.75-1.29,7.61-2.48a1.3,1.3,0,0,1,1.65.87,1.32,1.32,0,0,1-.87,1.66q-3.81,1.17-7.53,2.45A1.29,1.29,0,0,1,601.21,1173.9Zm15.21-4.71a1.32,1.32,0,0,1-.35-2.6c2.55-.7,5.13-1.38,7.74-2a1.32,1.32,0,0,1,.63,2.57c-2.59.64-5.14,1.31-7.67,2A1.34,1.34,0,0,1,616.42,1169.19Zm15.46-3.8a1.33,1.33,0,0,1-.28-2.62q3.89-.84,7.84-1.58a1.32,1.32,0,0,1,1.55,1,1.34,1.34,0,0,1-1.06,1.55q-3.93.74-7.77,1.57A1.33,1.33,0,0,1,631.88,1165.39Zm15.65-3a1.32,1.32,0,0,1-.2-2.63c2.61-.42,5.24-.81,7.91-1.16a1.32,1.32,0,1,1,.35,2.62q-4,.52-7.85,1.16Zm15.79-2.12a1.32,1.32,0,0,1-.14-2.64q3.95-.43,8-.77a1.32,1.32,0,1,1,.23,2.63c-2.66.23-5.3.48-7.9.77Z"/><path class="cls-4" d="M679.2,1159a1.32,1.32,0,0,1-.08-2.64c1.32-.08,2.65-.16,4-.22a1.3,1.3,0,0,1,1.39,1.25,1.33,1.33,0,0,1-1.26,1.39l-4,.22Z"/></g><g class="cls-51"><path class="cls-4" d="M685.67,1173.74a1.33,1.33,0,0,1-.48-2.56c2.43-1,3.76-1.42,3.76-1.42a1.33,1.33,0,0,1,.86,2.51s-1.31.45-3.65,1.37A1.23,1.23,0,0,1,685.67,1173.74Z"/><path class="cls-4" d="M507.19,1476.75a1.32,1.32,0,0,1-1.31-1.2c-.24-2.65-.45-5.27-.63-7.88a1.32,1.32,0,0,1,1.23-1.41,1.34,1.34,0,0,1,1.41,1.23q.27,3.87.62,7.82a1.32,1.32,0,0,1-1.2,1.44ZM506.1,1461a1.33,1.33,0,0,1-1.32-1.26c-.13-2.65-.23-5.29-.3-7.9a1.32,1.32,0,0,1,1.29-1.35,1.33,1.33,0,0,1,1.36,1.28c.07,2.59.17,5.21.3,7.84a1.34,1.34,0,0,1-1.26,1.39Zm-.43-15.74a1.32,1.32,0,0,1-1.32-1.32v-2c0-2,0-4,.05-5.91a1.29,1.29,0,0,1,1.35-1.3,1.32,1.32,0,0,1,1.3,1.34c0,1.94-.05,3.9-.05,5.87v2a1.33,1.33,0,0,1-1.32,1.33Zm.27-15.75h-.05a1.32,1.32,0,0,1-1.27-1.37q.15-4,.41-7.9a1.3,1.3,0,0,1,1.4-1.23,1.32,1.32,0,0,1,1.24,1.4c-.17,2.59-.3,5.2-.41,7.83A1.32,1.32,0,0,1,505.94,1429.55Zm1-15.71h-.11a1.32,1.32,0,0,1-1.21-1.43c.24-2.65.5-5.27.8-7.86a1.32,1.32,0,0,1,2.63.29q-.45,3.87-.79,7.8A1.33,1.33,0,0,1,506.94,1413.84Zm1.78-15.64h-.19a1.34,1.34,0,0,1-1.13-1.5q.56-3.95,1.2-7.81a1.32,1.32,0,1,1,2.61.43q-.65,3.84-1.18,7.75A1.33,1.33,0,0,1,508.72,1398.2Zm2.57-15.53-.25,0a1.32,1.32,0,0,1-1.05-1.55c.51-2.61,1-5.19,1.61-7.74a1.32,1.32,0,1,1,2.58.57q-.84,3.8-1.59,7.68A1.33,1.33,0,0,1,511.29,1382.67Zm3.41-15.37a1.24,1.24,0,0,1-.33,0,1.33,1.33,0,0,1-1-1.61c.65-2.57,1.32-5.12,2-7.64a1.32,1.32,0,0,1,2.55.71c-.7,2.5-1.37,5-2,7.58A1.32,1.32,0,0,1,514.7,1367.3Zm4.24-15.16a1.32,1.32,0,0,1-1.26-1.72c.79-2.53,1.6-5,2.45-7.51a1.33,1.33,0,1,1,2.51.85c-.84,2.45-1.66,4.94-2.43,7.45A1.33,1.33,0,0,1,518.94,1352.14Zm5.1-14.89a1.25,1.25,0,0,1-.46-.09,1.32,1.32,0,0,1-.78-1.7c.94-2.49,1.9-4.94,2.89-7.37a1.32,1.32,0,0,1,2.45,1q-1.47,3.6-2.86,7.3A1.32,1.32,0,0,1,524,1337.25Zm6-14.58a1.23,1.23,0,0,1-.53-.11,1.33,1.33,0,0,1-.68-1.75q1.62-3.64,3.32-7.18a1.32,1.32,0,1,1,2.38,1.14q-1.68,3.51-3.27,7.12A1.33,1.33,0,0,1,530,1322.67Zm6.8-14.2a1.29,1.29,0,0,1-.6-.14,1.33,1.33,0,0,1-.57-1.79c1.21-2.36,2.46-4.69,3.72-7a1.33,1.33,0,0,1,2.32,1.29c-1.26,2.26-2.49,4.57-3.69,6.91A1.33,1.33,0,0,1,536.79,1308.47Zm7.62-13.78a1.32,1.32,0,0,1-1.14-2c1.36-2.28,2.73-4.53,4.13-6.74a1.32,1.32,0,1,1,2.24,1.41c-1.38,2.19-2.75,4.42-4.09,6.68A1.32,1.32,0,0,1,544.41,1294.69Zm8.41-13.31a1.24,1.24,0,0,1-.73-.23,1.31,1.31,0,0,1-.36-1.83c1.48-2.21,3-4.37,4.51-6.5a1.32,1.32,0,1,1,2.15,1.54c-1.51,2.11-3,4.25-4.47,6.44A1.31,1.31,0,0,1,552.82,1281.38Zm9.17-12.8a1.32,1.32,0,0,1-1-2.13q2.41-3.17,4.88-6.23a1.33,1.33,0,0,1,2.06,1.67q-2.45,3-4.83,6.17A1.33,1.33,0,0,1,562,1268.58Zm9.89-12.27a1.32,1.32,0,0,1-1-2.18q2.6-3,5.22-5.94a1.32,1.32,0,0,1,2,1.77c-1.74,1.92-3.46,3.89-5.18,5.89A1.29,1.29,0,0,1,571.88,1256.31Zm10.55-11.69a1.32,1.32,0,0,1-1-2.24c1.84-1.92,3.69-3.81,5.54-5.65a1.33,1.33,0,0,1,1.87,1.88q-2.76,2.73-5.49,5.6A1.33,1.33,0,0,1,582.43,1244.62Zm11.17-11.11a1.33,1.33,0,0,1-1-.41,1.32,1.32,0,0,1,.06-1.87c1.94-1.84,3.88-3.62,5.83-5.36a1.32,1.32,0,1,1,1.76,2c-1.93,1.72-3.85,3.49-5.78,5.3A1.31,1.31,0,0,1,593.6,1233.51Zm11.75-10.5a1.32,1.32,0,0,1-.85-2.33q3.06-2.6,6.09-5a1.33,1.33,0,1,1,1.66,2.07c-2,1.61-4,3.28-6,5A1.34,1.34,0,0,1,605.35,1223Zm12.28-9.89a1.31,1.31,0,0,1-1.06-.52,1.32,1.32,0,0,1,.25-1.85q3.2-2.45,6.35-4.73a1.33,1.33,0,0,1,1.85.3,1.31,1.31,0,0,1-.3,1.84q-3.12,2.27-6.29,4.69A1.27,1.27,0,0,1,617.63,1213.12Zm12.75-9.25a1.31,1.31,0,0,1-1.09-.58,1.33,1.33,0,0,1,.34-1.84c2.23-1.53,4.42-3,6.58-4.4a1.33,1.33,0,0,1,1.45,2.22c-2.15,1.39-4.32,2.85-6.53,4.37A1.38,1.38,0,0,1,630.38,1203.87Zm13.21-8.61a1.32,1.32,0,0,1-.69-2.45q3.48-2.14,6.79-4.08A1.32,1.32,0,1,1,651,1191c-2.19,1.28-4.43,2.62-6.73,4A1.38,1.38,0,0,1,643.59,1195.26Zm13.63-7.94a1.33,1.33,0,0,1-.64-2.49q3.66-2,7-3.72a1.32,1.32,0,1,1,1.21,2.35c-2.2,1.14-4.52,2.37-6.93,3.69A1.25,1.25,0,0,1,657.22,1187.32Zm14-7.22a1.33,1.33,0,0,1-.57-2.52c2.65-1.28,5.06-2.38,7.2-3.33a1.32,1.32,0,1,1,1.07,2.42c-2.11.94-4.5,2-7.13,3.29A1.3,1.3,0,0,1,671.25,1180.1Z"/><path class="cls-4" d="M508.43,1488.57a1.33,1.33,0,0,1-1.31-1.17c-.16-1.32-.31-2.64-.46-4a1.32,1.32,0,0,1,1.17-1.46,1.3,1.3,0,0,1,1.46,1.17l.45,3.93a1.32,1.32,0,0,1-1.15,1.47Z"/></g><g class="cls-51"><path class="cls-4" d="M686.18,1190.83a1.32,1.32,0,0,1-.8-2.38c2.09-1.58,3.26-2.37,3.26-2.37a1.31,1.31,0,0,1,1.83.36,1.33,1.33,0,0,1-.35,1.84s-1.15.77-3.15,2.28A1.32,1.32,0,0,1,686.18,1190.83Z"/><path class="cls-4" d="M604.76,1488.36a1.31,1.31,0,0,1-1.26-.94q-1.14-3.8-2.18-7.54a1.32,1.32,0,0,1,2.55-.71q1,3.72,2.16,7.49a1.33,1.33,0,0,1-.89,1.65A1.2,1.2,0,0,1,604.76,1488.36Zm-4.18-15.07a1.33,1.33,0,0,1-1.28-1c-.65-2.55-1.27-5.1-1.86-7.62a1.32,1.32,0,0,1,2.58-.6c.58,2.5,1.2,5,1.85,7.57a1.32,1.32,0,0,1-1,1.61A1.24,1.24,0,0,1,600.58,1473.29ZM597,1458.06a1.32,1.32,0,0,1-1.29-1q-.82-3.88-1.53-7.71a1.32,1.32,0,1,1,2.6-.48c.47,2.53,1,5.07,1.52,7.64a1.33,1.33,0,0,1-1,1.57Zm-2.87-15.38a1.31,1.31,0,0,1-1.3-1.11q-.65-3.91-1.18-7.76a1.33,1.33,0,0,1,1.13-1.5,1.32,1.32,0,0,1,1.49,1.13c.36,2.55.74,5.12,1.17,7.7a1.32,1.32,0,0,1-1.09,1.52ZM592,1427.19a1.33,1.33,0,0,1-1.32-1.17q-.45-3.94-.79-7.82a1.31,1.31,0,0,1,1.2-1.43,1.34,1.34,0,0,1,1.44,1.2c.22,2.56.49,5.14.78,7.74a1.31,1.31,0,0,1-1.16,1.47Zm-1.39-15.58a1.33,1.33,0,0,1-1.32-1.24q-.25-4-.39-7.85a1.32,1.32,0,0,1,1.27-1.37,1.34,1.34,0,0,1,1.37,1.27c.1,2.57.23,5.17.39,7.78a1.32,1.32,0,0,1-1.23,1.41Zm-.57-15.63a1.33,1.33,0,0,1-1.33-1.31c0-1,0-1.94,0-2.91,0-1.66,0-3.31,0-5a1.33,1.33,0,1,1,2.65,0c0,1.62,0,3.26,0,4.9,0,1,0,1.92,0,2.88a1.33,1.33,0,0,1-1.31,1.34Zm.27-15.64h-.06A1.31,1.31,0,0,1,589,1379c.12-2.65.27-5.26.47-7.85a1.31,1.31,0,0,1,1.41-1.22,1.34,1.34,0,0,1,1.23,1.42q-.29,3.84-.47,7.77A1.32,1.32,0,0,1,590.32,1380.34Zm1.15-15.59h-.13a1.32,1.32,0,0,1-1.18-1.45c.27-2.63.57-5.23.92-7.81a1.32,1.32,0,0,1,2.62.35c-.34,2.55-.64,5.12-.91,7.73A1.33,1.33,0,0,1,591.47,1364.75Zm2.06-15.5-.21,0a1.32,1.32,0,0,1-1.09-1.52q.63-3.92,1.38-7.74a1.31,1.31,0,0,1,1.55-1,1.33,1.33,0,0,1,1.05,1.55q-.74,3.78-1.37,7.66A1.34,1.34,0,0,1,593.53,1349.25Zm3-15.35-.29,0a1.34,1.34,0,0,1-1-1.59c.58-2.58,1.2-5.12,1.85-7.64a1.32,1.32,0,0,1,2.56.66q-1,3.73-1.83,7.57A1.32,1.32,0,0,1,596.51,1333.9Zm3.91-15.14a1.19,1.19,0,0,1-.37-.06,1.33,1.33,0,0,1-.9-1.64q1.11-3.81,2.31-7.51a1.33,1.33,0,1,1,2.52.82c-.79,2.44-1.56,4.92-2.29,7.43A1.33,1.33,0,0,1,600.42,1318.76Zm4.83-14.88a1.19,1.19,0,0,1-.45-.08,1.32,1.32,0,0,1-.79-1.69c.89-2.49,1.82-4.94,2.77-7.35a1.32,1.32,0,1,1,2.46,1c-.94,2.38-1.86,4.81-2.74,7.28A1.33,1.33,0,0,1,605.25,1303.88Zm5.74-14.55a1.37,1.37,0,0,1-.52-.1,1.32,1.32,0,0,1-.69-1.74q1.58-3.66,3.22-7.17a1.32,1.32,0,0,1,2.4,1.12c-1.09,2.32-2.15,4.69-3.19,7.09A1.33,1.33,0,0,1,611,1289.33Zm6.63-14.16a1.33,1.33,0,0,1-1.18-1.93q1.8-3.54,3.66-7a1.32,1.32,0,1,1,2.32,1.27q-1.83,3.38-3.62,6.89A1.33,1.33,0,0,1,617.62,1275.17Zm7.48-13.74a1.34,1.34,0,0,1-.66-.18,1.32,1.32,0,0,1-.48-1.81q2-3.45,4.07-6.73a1.33,1.33,0,1,1,2.25,1.41c-1.36,2.16-2.71,4.38-4,6.66A1.33,1.33,0,0,1,625.1,1261.43Zm8.31-13.26a1.32,1.32,0,0,1-1.1-2.06c1.48-2.22,3-4.37,4.47-6.47a1.32,1.32,0,1,1,2.15,1.54q-2.22,3.1-4.42,6.4A1.34,1.34,0,0,1,633.41,1248.17Zm9.08-12.74a1.32,1.32,0,0,1-1-2.12q2.43-3.21,4.85-6.19a1.32,1.32,0,1,1,2.06,1.66c-1.59,2-3.2,4-4.81,6.13A1.32,1.32,0,0,1,642.49,1235.43Zm9.84-12.17a1.32,1.32,0,0,1-1-2.19q2.64-3.08,5.21-5.88a1.32,1.32,0,0,1,2,1.78c-1.7,1.85-3.42,3.8-5.17,5.83A1.33,1.33,0,0,1,652.33,1223.26Zm10.56-11.56a1.3,1.3,0,0,1-.92-.37,1.32,1.32,0,0,1,0-1.87c1.92-2,3.79-3.83,5.57-5.56a1.33,1.33,0,1,1,1.84,1.91q-2.65,2.55-5.51,5.49A1.32,1.32,0,0,1,662.89,1211.7Zm11.27-10.86a1.35,1.35,0,0,1-1-.44,1.34,1.34,0,0,1,.1-1.87c2.17-2,4.17-3.68,6-5.17a1.32,1.32,0,1,1,1.7,2c-1.76,1.48-3.74,3.18-5.88,5.11A1.35,1.35,0,0,1,674.16,1200.84Z"/><path class="cls-4" d="M608.32,1499.64a1.32,1.32,0,0,1-1.26-.91q-.63-1.89-1.23-3.78a1.33,1.33,0,0,1,.85-1.67,1.34,1.34,0,0,1,1.67.86c.4,1.25.81,2.51,1.22,3.76a1.33,1.33,0,0,1-.84,1.68A1.51,1.51,0,0,1,608.32,1499.64Z"/></g></g></g></g></svg>