<svg xmlns="http://www.w3.org/2000/svg" viewBox="0 0 97.1 272"><defs><style>.cls-1{fill:#f6cc1b;}.cls-2{fill:#eb8b23;}.cls-3{fill:#af206e;}.cls-4{fill:#ddd;}.cls-5{fill:#c4c4c4;}</style></defs><g id="Layer_2" data-name="Layer 2"><g id="Layer_1-2" data-name="Layer 1"><rect class="cls-1" x="68" width="19.4" height="126.3"/><path class="cls-2" d="M58.2,32.7v93.6h9.7V23A9.71,9.71,0,0,0,58.2,32.7Z"/><path class="cls-2" d="M38.8,252.6A19.4,19.4,0,1,0,19.4,272,19.42,19.42,0,0,0,38.8,252.6Z"/><path class="cls-2" d="M77.6,194.3a19.4,19.4,0,1,0-19.4,19.4A19.42,19.42,0,0,0,77.6,194.3Zm-29.1,0a9.7,9.7,0,1,1,9.7,9.7A9.71,9.71,0,0,1,48.5,194.3Z"/><path class="cls-3" d="M87.4,204V121.4a14.62,14.62,0,0,0-14.6-14.6H58.2v87.4a38.88,38.88,0,0,1-38.9,38.9h0V272h0A68,68,0,0,0,87.4,204Z"/><path class="cls-4" d="M77.7,189.4V140.3a4.9,4.9,0,0,0-9.8,0v49.1a4.9,4.9,0,0,0,9.8,0Z"/><path class="cls-5" d="M97.1,184.6v-9.7H72.8a4.9,4.9,0,1,0,0,9.8H97.1Z"/><path class="cls-5" d="M97.1,170.1a4.8,4.8,0,0,0-9.6,0v14.5h9.6Z"/><path class="cls-4" d="M97.1,14.6a4.91,4.91,0,0,0-4.9-4.9H87.4v9.7h4.9A4.74,4.74,0,0,0,97.1,14.6Z"/></g></g></svg>