<svg xmlns="http://www.w3.org/2000/svg" xmlns:xlink="http://www.w3.org/1999/xlink" viewBox="0 0 561.15 656.44"><defs><style>.cls-1{fill:none;}.cls-2{clip-path:url(#clip-path);}.cls-3{fill:url(#New_Gradient_Swatch_2);}.cls-4{fill:#beb8f2;}</style><clipPath id="clip-path" transform="translate(0 27.82)"><path class="cls-1" d="M85,628.61Q42,601.44,0,572.2c-.7.23,18.81-70.93,66-91.87,92.7-40,77.46-119.54,81.4-160.91,3.26-59.37,40.51-116.76,91.36-80.38,50.12,34.14,108.16-74.47,137.08-165.13,10.63-45.66,73-79.13,117.8-73.24,46.19,5,74.84,49.38,50,138.77-24.33,105.46-121.2,132.62-169,169.69-47,36.37-4.08,101.7-71.23,122.62C246,451.36,182.75,455.7,180.55,511.3,179.1,566.6,157.54,602.77,85,628.61Z"/></clipPath><linearGradient id="New_Gradient_Swatch_2" x1="9264.6" y1="3723.59" x2="9023.56" y2="4408.65" gradientTransform="matrix(-0.59, -0.81, -0.81, 0.59, 8968.59, 5283.6)" gradientUnits="userSpaceOnUse"><stop offset="0" stop-color="#af206e"/><stop offset="0.55" stop-color="#e34256"/><stop offset="1" stop-color="#eb8b23"/></linearGradient></defs><g id="Layer_2" data-name="Layer 2"><g id="Layer_1-2" data-name="Layer 1"><g class="cls-2"><path class="cls-3" d="M85,628.61Q42,601.44,0,572.2c-.7.23,18.81-70.93,66-91.87,92.7-40,77.46-119.54,81.4-160.91,3.43-59.24,37.84-109.79,89.89-87.69C295.54,255.11,348,164.83,375.86,73.91c10.63-45.66,73-79.13,117.8-73.24,46.19,5,74.84,49.38,50,138.77-24.33,105.46-121.2,132.62-169,169.69-47,36.37-4.08,101.7-71.23,122.62C246,451.36,182.75,455.7,180.55,511.3,179.1,566.6,157.54,602.77,85,628.61Z" transform="translate(0 27.82)"/><path class="cls-4" d="M40.69,613.68c.26-.59,91.8-128,203-242.21,16.78-19,34.25-38,51.15-56.27,94.12-102,183-198.4,197.35-343l2,.2c-14.4,145.3-103.52,241.9-197.87,344.19-16.89,18.31-34.36,37.25-51.16,56.28C133.37,487.7,43,613.72,42.52,614.55Z" transform="translate(0 27.82)"/><path class="cls-4" d="M381.36,220.35l-.82-1.84c51-22.84,116.26-58.56,151.3-77.75,28.36-15.53,28.43-15.49,29.31-14.92l-.55.85.08,1c-1.31.3-13,6.72-27.87,14.85C497.75,161.73,432.49,197.48,381.36,220.35Z" transform="translate(0 27.82)"/><path class="cls-4" d="M414.36,172.42c12.17-46.47,7-82.92.54-105.31-7-24.39-17.5-38.8-19.09-39.88l.44-.65L396,25.33c.6-.11,1.06.26,1.72,1,9.37,10.18,40,64.91,18.57,146.63Z" transform="translate(0 27.82)"/><path class="cls-4" d="M175.72,448.43l-1.73-1c48.76-82.14,25.73-189.15,13.56-231.35-.65-2.27-.86-3-.9-3.35l2-.22-1,.11,1-.12c0,.25.4,1.53.83,3a413.62,413.62,0,0,1,15.83,89.95C208.65,361.63,198.69,409.74,175.72,448.43Z" transform="translate(0 27.82)"/><path class="cls-4" d="M208.37,412l-1.14-1.67c63-43.07,142.32-13.07,143.51-12.37h0l.31,1.17-1,.63.1-1-.47.88C348.92,399.29,270.79,369.35,208.37,412Zm141.84-14.25-.09,1Z" transform="translate(0 27.82)"/><path class="cls-4" d="M56,593c8.45-17.31,15.45-50.11.84-108.06-.83-3.29-.83-3.29-.55-3.73L58,482.3l-.85-.53,1,0c0,.24.31,1.39.65,2.72,14.76,58.54,7.61,91.82-1,109.44Z" transform="translate(0 27.82)"/><path class="cls-4" d="M80.28,564.19l-1.55-1.31c23-27.35,77-30.9,107.12-30.57,1,0,1.57,0,1.8,0l.12,2h-1.94C156.06,534,102.76,537.46,80.28,564.19Z" transform="translate(0 27.82)"/></g></g></g></svg>