<svg xmlns="http://www.w3.org/2000/svg" xmlns:xlink="http://www.w3.org/1999/xlink" viewBox="0 0 650.69 119.83"><defs><style>.cls-1{fill:url(#New_Gradient_Swatch_2);}.cls-2{fill:url(#New_Gradient_Swatch_2-2);}.cls-3{fill:url(#New_Gradient_Swatch_2-3);}.cls-4{fill:url(#New_Gradient_Swatch_2-4);}.cls-5{fill:url(#New_Gradient_Swatch_2-5);}.cls-6{fill:url(#New_Gradient_Swatch_2-6);}.cls-7{fill:url(#New_Gradient_Swatch_2-7);}.cls-8{fill:url(#New_Gradient_Swatch_2-8);}.cls-9{fill:url(#New_Gradient_Swatch_2-9);}.cls-10{fill:url(#New_Gradient_Swatch_2-10);}.cls-11{fill:url(#New_Gradient_Swatch_2-11);}.cls-12{fill:url(#New_Gradient_Swatch_2-12);}.cls-13{fill:url(#New_Gradient_Swatch_2-13);}</style><linearGradient id="New_Gradient_Swatch_2" x1="511.3" y1="47.19" x2="106.48" y2="37.32" gradientUnits="userSpaceOnUse"><stop offset="0" stop-color="#af206e"/><stop offset="0.55" stop-color="#e34256"/><stop offset="1" stop-color="#eb8b23"/></linearGradient><linearGradient id="New_Gradient_Swatch_2-2" x1="509.47" y1="111.39" x2="105.29" y2="101.53" xlink:href="#New_Gradient_Swatch_2"/><linearGradient id="New_Gradient_Swatch_2-3" x1="509.63" y1="110.79" x2="104.82" y2="100.92" xlink:href="#New_Gradient_Swatch_2"/><linearGradient id="New_Gradient_Swatch_2-4" x1="509.56" y1="110.15" x2="105.59" y2="100.3" xlink:href="#New_Gradient_Swatch_2"/><linearGradient id="New_Gradient_Swatch_2-5" x1="509.63" y1="109.46" x2="105.62" y2="99.61" xlink:href="#New_Gradient_Swatch_2"/><linearGradient id="New_Gradient_Swatch_2-6" x1="509.69" y1="108.9" x2="105.84" y2="99.05" xlink:href="#New_Gradient_Swatch_2"/><linearGradient id="New_Gradient_Swatch_2-7" x1="509.73" y1="108.28" x2="105.08" y2="98.41" xlink:href="#New_Gradient_Swatch_2"/><linearGradient id="New_Gradient_Swatch_2-8" x1="509.99" y1="107.92" x2="108.15" y2="98.12" xlink:href="#New_Gradient_Swatch_2"/><linearGradient id="New_Gradient_Swatch_2-9" x1="509.84" y1="107.4" x2="105.79" y2="97.54" xlink:href="#New_Gradient_Swatch_2"/><linearGradient id="New_Gradient_Swatch_2-10" x1="509.79" y1="106.73" x2="105.23" y2="96.86" xlink:href="#New_Gradient_Swatch_2"/><linearGradient id="New_Gradient_Swatch_2-11" x1="510.91" y1="62.28" x2="106.12" y2="52.41" xlink:href="#New_Gradient_Swatch_2"/><linearGradient id="New_Gradient_Swatch_2-12" x1="510.58" y1="58.97" x2="106.25" y2="49.11" xlink:href="#New_Gradient_Swatch_2"/><linearGradient id="New_Gradient_Swatch_2-13" x1="510.55" y1="65.72" x2="106.32" y2="55.86" xlink:href="#New_Gradient_Swatch_2"/></defs><g id="Layer_2" data-name="Layer 2"><g id="Layer_1-2" data-name="Layer 1"><path class="cls-1" d="M650,53.43a9.07,9.07,0,0,0-4.39-2.81c-1.9-.34-3.23,1.46-4.35,2.59l-1,1C632.85,61.22,615,75,605,64.64a12.42,12.42,0,0,1-3.3-8.41c0-1,.07-1,1.13-1.26a62.14,62.14,0,0,0,7.34-1.88,59.91,59.91,0,0,0,18.28-11c4.19-3.57,7.72-7.6,9.25-12.84a10.34,10.34,0,0,0-1.1-9c-2.57-3.93-6.65-5.51-11.32-6a25.91,25.91,0,0,0-15.45,3.41A49.93,49.93,0,0,0,589.56,38.5a38.27,38.27,0,0,0-4,11,39.83,39.83,0,0,1-6.93-.55c-5.74-.95-7.88-3.68-7.76-5.12.42-.62.83-1.25,1.24-1.87a65.8,65.8,0,0,0,7.32-14,5.86,5.86,0,0,0-.12-5.07,16.79,16.79,0,0,0-10.42-7.81c-2-.6-2.65-.1-3.31,1.82-.74,2.19-1.52,4.37-2.41,6.5a150.23,150.23,0,0,1-8.62,17.09c-4.88,8.44-9.87,16.82-15.93,24.6a56.88,56.88,0,0,1-4.61,5,1.81,1.81,0,0,1-1.49.42c-.36-.15-.61-.87-.61-1.34a17.44,17.44,0,0,1,.35-3.3,91.81,91.81,0,0,1,4.54-14c2.35-6,4.91-12,6.25-18.35a9.48,9.48,0,0,0-.36-5.74,15.4,15.4,0,0,0-6.34-6.92,15.35,15.35,0,0,0-6.94-2.61c-2-.17-3,.56-3.12,2.41-.13,1.57-.2,3.13-.39,4.69-.22,1.8-.5,3.6-.84,5.38-.42,2.21-.9,4.41-1.41,6.6-.56,2.44-1.16,4.87-1.78,7.3-.93,3.64-1.75,6.37-2.69,10a8.56,8.56,0,0,1-2.4,4.17c-1.17,1-2.24,2-3.42,2.94-3.57,2.84-8.86,5.82-13.75,4.55-4.22-1.09-4.62-5.38-4-8.81,1-5.23,8-15,11-19.48a3.2,3.2,0,0,0-.05-4,13,13,0,0,0-4.78-4.14,14.53,14.53,0,0,0-4-1.43,5.76,5.76,0,0,0-5.61,2.2c-7.86,8.83-20.4,22-29.92,29.27a32.17,32.17,0,0,1-8.1,5c-.95.36-2,.69-2.86,0s-.68-1.78-.46-2.76a22.7,22.7,0,0,1,3-6.67,60.07,60.07,0,0,1,12.9-14.83,72.8,72.8,0,0,1,22.57-13.27c2.53-.91,5.13-1.62,7.72-2.39,1.19-.35,1.52-.69,1.45-1.84a7.16,7.16,0,0,0-1.66-3.81c-2.29-3-5.21-5.09-9.35-5.16a33.5,33.5,0,0,0-10.25,1.58,50.9,50.9,0,0,0-16.34,8.74c-1.57,1.22-3.07,2.49-4.52,3.81-5,.87-21.09-.06-22.27-7.35a6.17,6.17,0,0,0-.57-1.33c-2.33-4.41-6.3-6.82-11.35-7.77-1.93-.36-2.71.42-3.11,2.22a176.06,176.06,0,0,1-7.53,26.34c-2.93,7.48-6.82,15.17-13.31,20.57l-.55.46a11.32,11.32,0,0,1-6.21,2.63,3.25,3.25,0,0,1-3.6-2,7.14,7.14,0,0,1-.63-3,48.42,48.42,0,0,1,1.1-7.58,85.7,85.7,0,0,1,5-13.88,12.28,12.28,0,0,0,1.1-3.07c.32-2.11-1-3.5-2.78-4.55-3.18-1.93-7.92-3.89-11.8-3.56-4.17.35-5.57,4.78-6.45,7.93-2.82,10.12-6.68,21.39-15.55,28.42a11.32,11.32,0,0,1-6.21,2.63c-10,.8,2-28,2.89-32.08a11.58,11.58,0,0,0-.37-6.84,17.13,17.13,0,0,0-8.21-8.83A11.21,11.21,0,0,0,340.31,16a2,2,0,0,0-2,1.17,11.48,11.48,0,0,0-.45,1.65c-2.64,12.56-7.5,25-7.84,38.05-.24,8.72,1.58,19.47,12.28,21.7A20.66,20.66,0,0,0,354,77.31a44.34,44.34,0,0,0,13.65-8.48q1.68-1.47,3.27-3a17.79,17.79,0,0,0,1.51,4,13.6,13.6,0,0,0,9.67,7.4c16.41,3.42,29.57-10.4,37.65-21.76a86.51,86.51,0,0,0,12.54-24.55c4.12,2.9,15,3.77,18.33,3.23a75.43,75.43,0,0,0-6.6,8.68c-4.34,6.64-7.79,13.61-8.78,21.44a16.76,16.76,0,0,0,.88,8.36c1.49,3.76,4.77,5.83,9.07,5.81a22.93,22.93,0,0,0,9.2-2.3,63,63,0,0,0,13.52-8.5c4.51-3.6,8.88-7.35,13.31-11,.25-.21.53-.4.95-.72-.26,1.21-.49,2.2-.71,3.21-1.08,4.93-.69,11,4,14.24,3.66,2.58,8.69,2.89,13.09,2.36,7.49-.89,13.67-4.6,19-9.52-.05,1-.08,1.89-.05,2.84a17.9,17.9,0,0,0,3,10.07A8.56,8.56,0,0,0,528.78,83a18.23,18.23,0,0,0,6.91-2.31A55,55,0,0,0,547.41,72a144,144,0,0,0,17.41-19.55,29.61,29.61,0,0,0,9.77,3.87c3,.61,7.21.47,10.32.39a19.55,19.55,0,0,0,.18,2.49,27.11,27.11,0,0,0,.93,4.06,19.52,19.52,0,0,0,9.3,11.07c15.22,8.55,33.34.83,45.52-8.4,2.37-1.8,4.7-4.51,6.95-6.43C649.5,58,651.92,55.58,650,53.43Zm-45.6-9.68a40.37,40.37,0,0,1,12.16-15.26,13.42,13.42,0,0,1,5-2.61,7.61,7.61,0,0,1,2.33-.15,1.6,1.6,0,0,1,1.53,1.46,5.84,5.84,0,0,1-1,3.73,31,31,0,0,1-8.41,9,48.21,48.21,0,0,1-11.89,6.7c-.23.09-.47.16-.71.24l-.23-.19C603.56,45.7,603.9,44.7,604.35,43.75Z"/><polygon class="cls-2" points="405.07 111.25 400.04 99.23 393.87 99.23 393.87 118.45 398.27 118.45 398.27 104.59 404.11 118.45 406.03 118.45 411.87 104.59 411.87 118.45 416.31 118.45 416.31 99.23 410.1 99.23 405.07 111.25"/><path class="cls-3" d="M430.87,99.23l-8,19.23h5l1.3-3.26h8.88l1.3,3.26h5l-8-19.23Zm-.47,12.37,3.23-8.28,3.23,8.28Z"/><path class="cls-4" d="M467.62,105.43c0-3.58-2.67-6.2-7-6.2H451v19.23h4.41v-6.84h3.22l4.07,6.84h5.09l-4.69-7.33A5.65,5.65,0,0,0,467.62,105.43ZM460,108h-4.65v-5.19H460c1.74,0,3.07,1,3.07,2.57S461.75,108,460,108Z"/><polygon class="cls-5" points="492.73 99.23 487.3 99.23 479.97 107.79 479.97 99.23 475.56 99.23 475.56 118.45 479.97 118.45 479.97 112.55 481.58 110.73 487.85 118.45 493.29 118.45 484.5 108.25 492.73 99.23"/><polygon class="cls-6" points="499.96 118.45 514.61 118.45 514.61 114.85 504.37 114.85 504.37 110.47 514.39 110.47 514.39 106.87 504.37 106.87 504.37 102.83 514.61 102.83 514.61 99.23 499.96 99.23 499.96 118.45"/><polygon class="cls-7" points="521.44 102.83 527.49 102.83 527.49 118.45 531.93 118.45 531.93 102.83 537.95 102.83 537.95 99.23 521.44 99.23 521.44 102.83"/><rect class="cls-8" x="545.43" y="99.23" width="4.41" height="19.23"/><polygon class="cls-9" points="573.96 111.31 564.37 99.23 559.83 99.23 559.83 118.45 564.24 118.45 564.24 105.92 574.11 118.45 578.36 118.45 578.36 99.23 573.96 99.23 573.96 111.31"/><path class="cls-10" d="M596.09,111.39h5.46v2.31a7.23,7.23,0,0,1-4.38,1.47,6.32,6.32,0,1,1,0-12.63,6.09,6.09,0,0,1,4.91,2.51l3.63-1.84a9.83,9.83,0,0,0-8.54-4.3c-6.08,0-11,3.86-11,10s5,9.94,11,9.94a11.86,11.86,0,0,0,8.79-3.6v-7.38h-9.87Z"/><path class="cls-11" d="M78.75,3.89a65.67,65.67,0,0,0-42.32-.76c-14.17,4.35-24.7,12.8-31,25.39C-.37,39.91-1.35,51.85,1.68,64.05S11.88,86.26,23.21,93.4c10,6.32,21.26,8.9,32.43,9a67.21,67.21,0,0,0,23-3.65C92.24,93.87,102.22,85.36,108.12,73a49.44,49.44,0,0,0,3.44-33.3C107.51,22.38,96.54,10.28,78.75,3.89ZM81.2,68.1c-4.62,6.75-11.53,10.35-20,11.43a33.94,33.94,0,0,1-17.29-2C34.45,73.69,29.2,66.75,27.27,57.47a28.67,28.67,0,0,1-.46-3.2c-.1-1-.11-2-.14-2.72,0-6.83,1.69-12.94,5.94-18.28,4.9-6.16,11.62-9.42,19.71-10.33a34.24,34.24,0,0,1,16.61,2c7.75,3.06,13,8.37,15.53,15.77C87.73,50.24,87.06,59.52,81.2,68.1Z"/><path class="cls-12" d="M218.45,29.83c-3.31-12.6-11.09-21.78-24.36-26.38-12.3-4.26-24.92-4.4-37.54-1.26-10.58,2.63-18.77,8.3-24.06,17.3a42.69,42.69,0,0,0-5.72,21.74c-.12,19.42-.06,38.83-.07,58.24a8.54,8.54,0,0,0,.1.9h25.57V72.55h41.48v27.84h26.22V99.15q0-27.72,0-55.44A53.77,53.77,0,0,0,218.45,29.83ZM192.91,51.41l-40,0a1.31,1.31,0,0,1-.31-.06c0-4.06-.2-8,.07-12a22.05,22.05,0,0,1,1.68-6.78c2.13-5.12,6.37-8.07,12.11-9.19a32.68,32.68,0,0,1,14.82.34c6.07,1.59,9.84,5.38,11.4,11a31.47,31.47,0,0,1,1.07,6.46c.19,3.12.08,6.24.12,9.37C193.83,51.14,193.65,51.41,192.91,51.41Z"/><path class="cls-13" d="M320.14,87c-14.89-9.41-22.06-28.08-24.93-37.37q1.69-1.61,3.32-3.36C314.68,28.69,319.15,10.59,320,6.6c-2.8-.71-7.73-1.89-12-2.51-4.52-.67-8.94,0-11.72-.12a66.62,66.62,0,0,1-15.71,28.11,67.86,67.86,0,0,1-14.76,11.67c0-17.47,0-35.15,0-40.38,0-.93-.19-1.3-1.32-1.3-7.9.05-15.79,0-23.69,0-.37,0-.75,0-1.17,0v98.22h26.22c0-5,0-17.66,0-32.32,2.58-1.07,5.37-2.33,8.27-3.81,5.11,12.82,14.76,30.09,32,41,19.84,12.54,46,14.61,61.13,14.61,3.84,0,7-.14,9.09-.27a104.52,104.52,0,0,0,.79-11.35,89.59,89.59,0,0,0-.86-11C372.12,97.53,340.13,99.6,320.14,87Z"/></g></g></svg>