<svg xmlns="http://www.w3.org/2000/svg" xmlns:xlink="http://www.w3.org/1999/xlink" viewBox="0 0 649.09 774.75"><defs><style>.cls-1{fill:url(#New_Gradient_Swatch_2);}</style><linearGradient id="New_Gradient_Swatch_2" x1="1399.4" y1="984.52" x2="771.26" y2="1737.54" gradientTransform="translate(-1133.75 -484.31) rotate(-14.54)" gradientUnits="userSpaceOnUse"><stop offset="0" stop-color="#af206e"/><stop offset="0.55" stop-color="#e34256"/><stop offset="1" stop-color="#eb8b23"/></linearGradient></defs><g id="Layer_2" data-name="Layer 2"><g id="Layer_1-2" data-name="Layer 1"><path class="cls-1" d="M252.29,774.48C189,722,90.56,623.14,37.88,470.41c-21.7-62.93-64.1-185.84-15.42-314C46.73,92.57,107.16-8.25,168,.54c39.11,5.66,75.62,56.3,76.77,101.72,1.17,45.79-34.29,59.25-55,142.85-7.68,30.94-16.22,67.13,1.35,81.77,14.68,12.22,45,7.27,64.88-7.5,41-30.5,11.9-83.9,50.86-137.73,27.71-38.27,82.94-67.21,114.5-49.93,27.4,15,36.11,64.39,25,101.69-17.77,59.74-77.58,59.08-99.37,125-9.66,29.24-11.34,70.06,6.69,81.36,20.54,12.86,64.15-14.18,89.67-40.92,33.68-35.29,28.3-62.15,53.87-72.33,28.53-11.35,72.67,7.17,86.5,36.74,19.36,41.42-21.85,102.19-58.83,133.54C477.48,537,433.3,532.06,416.12,574.57c-6.3,15.61-9.65,39.27,1.67,50.17,16.15,15.55,55.58-1.19,81.76-12.31,63.72-27.06,75.73-55.83,102.51-50.31,27.11,5.59,49.87,42.3,46.74,73-1.74,17.06-12.84,45.68-94.95,83.1C496.38,744.43,397.14,778.1,252.29,774.48Z"/></g></g></svg>