<svg xmlns="http://www.w3.org/2000/svg" xmlns:xlink="http://www.w3.org/1999/xlink" viewBox="0 0 1884.54 1900"><defs><style>.cls-1{isolation:isolate;}.cls-14,.cls-2,.cls-23,.cls-28{fill:#fff;}.cls-3{fill:url(#linear-gradient);}.cls-4{fill:url(#linear-gradient-2);}.cls-5{fill:url(#linear-gradient-3);}.cls-6{fill:url(#linear-gradient-4);}.cls-7{fill:url(#linear-gradient-5);}.cls-17,.cls-19,.cls-27,.cls-8{opacity:0.3;}.cls-17,.cls-19,.cls-27,.cls-38,.cls-41,.cls-8{mix-blend-mode:multiply;}.cls-8{fill:url(#linear-gradient-6);}.cls-9{fill:url(#linear-gradient-7);}.cls-10{fill:url(#linear-gradient-8);}.cls-11{fill:url(#linear-gradient-9);}.cls-12{fill:url(#linear-gradient-10);}.cls-13{fill:url(#linear-gradient-11);}.cls-14{opacity:0.75;}.cls-15{fill:url(#linear-gradient-12);}.cls-16{fill:url(#linear-gradient-13);}.cls-17{fill:url(#linear-gradient-14);}.cls-18{fill:url(#linear-gradient-15);}.cls-19{fill:url(#linear-gradient-16);}.cls-20{fill:url(#linear-gradient-17);}.cls-21{fill:url(#linear-gradient-18);}.cls-22{fill:url(#linear-gradient-19);}.cls-23{opacity:0.5;}.cls-23,.cls-28{mix-blend-mode:soft-light;}.cls-24{fill:url(#linear-gradient-20);}.cls-25{fill:url(#linear-gradient-21);}.cls-26{fill:url(#linear-gradient-22);}.cls-27{fill:url(#linear-gradient-23);}.cls-28{opacity:0.44;}.cls-29{fill:url(#linear-gradient-24);}.cls-30{fill:url(#linear-gradient-25);}.cls-31{fill:url(#linear-gradient-26);}.cls-32{fill:url(#linear-gradient-27);}.cls-33{fill:#64337c;}.cls-34{fill:url(#linear-gradient-28);}.cls-35{fill:url(#linear-gradient-29);}.cls-36{fill:url(#linear-gradient-30);}.cls-37{fill:url(#linear-gradient-31);}.cls-38,.cls-41{opacity:0.25;}.cls-38{fill:url(#linear-gradient-32);}.cls-39{fill:#7f5793;}.cls-40{fill:url(#linear-gradient-33);}.cls-41{fill:url(#linear-gradient-34);}.cls-42{fill:url(#linear-gradient-35);}.cls-43{fill:url(#linear-gradient-36);}.cls-44{fill:url(#linear-gradient-37);}.cls-45{fill:url(#linear-gradient-38);}</style><linearGradient id="linear-gradient" x1="400.72" y1="597.56" x2="513.1" y2="794.21" gradientUnits="userSpaceOnUse"><stop offset="0" stop-color="#b59ec1"/><stop offset="1" stop-color="#9776a7"/></linearGradient><linearGradient id="linear-gradient-2" x1="1428.58" y1="244.04" x2="819.9" y2="1433.31" xlink:href="#linear-gradient"/><linearGradient id="linear-gradient-3" x1="1741" y1="1657.57" x2="776.76" y2="909.78" gradientUnits="userSpaceOnUse"><stop offset="0" stop-color="#c5b3ce"/><stop offset="1" stop-color="#aa90b7"/></linearGradient><linearGradient id="linear-gradient-4" x1="1496.08" y1="1104.76" x2="1836.61" y2="1104.76" xlink:href="#linear-gradient-3"/><linearGradient id="linear-gradient-5" x1="1791.96" y1="1855.47" x2="1551.48" y2="1041.82" gradientUnits="userSpaceOnUse"><stop offset="0" stop-color="#5f2d78"/><stop offset="1" stop-color="#845d97"/></linearGradient><linearGradient id="linear-gradient-6" x1="1591.65" y1="1640.28" x2="1560.07" y2="1389.03" xlink:href="#linear-gradient-5"/><linearGradient id="linear-gradient-7" x1="1699.28" y1="1183.13" x2="1609.92" y2="2828.89" gradientUnits="userSpaceOnUse"><stop offset="0" stop-color="#eb8b23"/><stop offset="1" stop-color="#baa5c5"/></linearGradient><linearGradient id="linear-gradient-8" x1="1539.54" y1="1953.34" x2="1299.17" y2="1140.06" xlink:href="#linear-gradient-5"/><linearGradient id="linear-gradient-9" x1="1470.65" y1="1170.24" x2="1381.37" y2="2814.44" xlink:href="#linear-gradient-7"/><linearGradient id="linear-gradient-10" x1="1263.49" y1="2059.87" x2="1021.3" y2="1240.42" xlink:href="#linear-gradient-5"/><linearGradient id="linear-gradient-11" x1="1307.51" y1="1689.8" x2="1096.44" y2="1565.24" xlink:href="#linear-gradient-7"/><linearGradient id="linear-gradient-12" x1="936.95" y1="1875.03" x2="947.51" y2="1790.54" gradientUnits="userSpaceOnUse"><stop offset="0" stop-color="#64337c"/><stop offset="1" stop-color="#7f5793"/></linearGradient><linearGradient id="linear-gradient-13" x1="893.51" y1="1798.02" x2="999.13" y2="1607.92" xlink:href="#linear-gradient-12"/><linearGradient id="linear-gradient-14" x1="774.07" y1="1707.93" x2="1124.6" y2="1707.93" xlink:href="#linear-gradient-12"/><linearGradient id="linear-gradient-15" x1="903.57" y1="1746.07" x2="1007.86" y2="1545.41" xlink:href="#linear-gradient-12"/><linearGradient id="linear-gradient-16" x1="758.37" y1="1648.85" x2="1140.13" y2="1648.85" xlink:href="#linear-gradient-12"/><linearGradient id="linear-gradient-17" x1="752.71" y1="1579.88" x2="1145.96" y2="1579.88" xlink:href="#linear-gradient-12"/><linearGradient id="linear-gradient-18" x1="939.57" y1="1550.21" x2="978.29" y2="1368.91" xlink:href="#linear-gradient-12"/><linearGradient id="linear-gradient-19" x1="865.2" y1="538.57" x2="1633.49" y2="1758.34" gradientUnits="userSpaceOnUse"><stop offset="0" stop-color="#f6cc1b"/><stop offset="0.05" stop-color="#f6cc1b"/><stop offset="0.32" stop-color="#f6cc1b"/><stop offset="0.45" stop-color="#f4c11c"/><stop offset="0.69" stop-color="#efa420"/><stop offset="0.87" stop-color="#eb8b23"/><stop offset="1" stop-color="#eb8b23"/></linearGradient><linearGradient id="linear-gradient-20" x1="724.84" y1="1477.78" x2="881.5" y2="1020.12" gradientUnits="userSpaceOnUse"><stop offset="0.49" stop-color="#fff"/><stop offset="1" stop-color="#fff"/></linearGradient><linearGradient id="linear-gradient-21" x1="874.61" y1="1529.04" x2="1031.27" y2="1071.39" xlink:href="#linear-gradient-20"/><linearGradient id="linear-gradient-22" x1="670.29" y1="1459.1" x2="826.95" y2="1001.45" xlink:href="#linear-gradient-20"/><linearGradient id="linear-gradient-23" x1="892.16" y1="263.63" x2="739.02" y2="1525.7" xlink:href="#linear-gradient-19"/><linearGradient id="linear-gradient-24" x1="-592.93" y1="767.94" x2="-636.88" y2="815.41" gradientTransform="matrix(-1, 0.07, 0.07, 1, 238.36, -8.31)" gradientUnits="userSpaceOnUse"><stop offset="0" stop-color="#87619a"/><stop offset="1" stop-color="#774c8c"/></linearGradient><linearGradient id="linear-gradient-25" x1="87.98" y1="858.64" x2="21.73" y2="930.22" xlink:href="#linear-gradient-24"/><linearGradient id="linear-gradient-26" x1="-177.11" y1="692.87" x2="109.86" y2="1148.99" gradientTransform="matrix(-1, 0.07, 0.07, 1, 238.36, -8.31)" xlink:href="#linear-gradient-7"/><linearGradient id="linear-gradient-27" x1="-66.94" y1="1869.14" x2="-66.94" y2="1796.33" xlink:href="#linear-gradient-24"/><linearGradient id="linear-gradient-28" x1="-288.87" y1="1889.89" x2="-288.87" y2="1802.14" xlink:href="#linear-gradient-24"/><linearGradient id="linear-gradient-29" x1="-1196.77" y1="-71.94" x2="-849.93" y2="479.34" gradientTransform="matrix(-0.97, -0.26, -0.26, 0.97, -397.14, 563.68)" xlink:href="#linear-gradient-7"/><linearGradient id="linear-gradient-30" x1="-337.96" y1="1545.2" x2="-50.88" y2="1545.2" gradientTransform="matrix(-1, 0.07, 0.07, 1, 238.36, -8.31)" xlink:href="#linear-gradient-5"/><linearGradient id="linear-gradient-31" x1="-347.09" y1="1331.19" x2="-140.26" y2="1678.58" gradientTransform="matrix(-1, 0.07, 0.07, 1, 238.36, -8.31)" xlink:href="#linear-gradient-5"/><linearGradient id="linear-gradient-32" x1="-265.67" y1="1282.71" x2="-58.84" y2="1630.1" gradientTransform="matrix(-1, 0.07, 0.07, 1, 238.36, -8.31)" xlink:href="#linear-gradient-5"/><linearGradient id="linear-gradient-33" x1="-429.32" y1="788.42" x2="-89.12" y2="1329.13" gradientTransform="matrix(-1, 0.07, 0.07, 1, 238.36, -8.31)" xlink:href="#linear-gradient-7"/><linearGradient id="linear-gradient-34" x1="-563.08" y1="755.73" x2="-168.46" y2="1382.95" gradientTransform="matrix(-1, 0.07, 0.07, 1, 238.36, -8.31)" xlink:href="#linear-gradient-7"/><linearGradient id="linear-gradient-35" x1="-149.84" y1="883.47" x2="-206.34" y2="974.86" xlink:href="#linear-gradient-24"/><linearGradient id="linear-gradient-36" x1="-185.79" y1="885.96" x2="-101.09" y2="885.96" gradientTransform="matrix(-1, 0.07, 0.07, 1, 238.36, -8.31)" gradientUnits="userSpaceOnUse"><stop offset="0" stop-color="#5f2d78"/><stop offset="1" stop-color="#7d5592"/></linearGradient><linearGradient id="linear-gradient-37" x1="-735.85" y1="306.58" x2="-790.53" y2="395.03" gradientTransform="matrix(-0.99, -0.16, -0.16, 0.99, -203.55, 424.84)" xlink:href="#linear-gradient-24"/><linearGradient id="linear-gradient-38" x1="-209.14" y1="896.53" x2="-160.38" y2="974.03" gradientTransform="matrix(-1, 0.07, 0.07, 1, 238.36, -8.31)" xlink:href="#linear-gradient-3"/></defs><g class="cls-1"><g id="Layer_2" data-name="Layer 2"><g id="Layer_1-2" data-name="Layer 1"><path class="cls-2" d="M1657.8,1628.8c-49,50.57-92.94,80.29-126.55,102.73-327.73,218.83-702.37,155.76-818.2,134.2C526.17,1831,368.42,1806.41,232.89,1684c-308-278.24-293-858.68-57.67-1218.24,27.91-42.63,262.88-390.94,638.33-440,9.18-1.2,16-1.88,22-2.52,58.08-6.15,418-38.6,711.47,207.27A875.46,875.46,0,0,1,1719.37,426C1948.61,780,1949.33,1328.31,1657.8,1628.8Z"/><path class="cls-3" d="M195.68,601.42C167.72,710.5,73.22,708,47.5,811.7,18.28,929.51,105,1075.17,167.66,1074.43c34.23-.4,44.62-44.26,95.54-102.64C350.74,871.42,431.75,873,544.74,808.72c54.59-31.05,271-154.07,280.32-342.61C831.66,333,733.62,197.7,605,143.05c-24-10.21-169.77-68.88-297.42,12.08C199.46,223.7,177,346.34,174.24,363.11,155.3,476.69,220.06,506.29,195.68,601.42Z"/><path class="cls-4" d="M1171.54,180.5C994.31,354.6,1097,500.33,924.42,675.18c-176.37,178.68-340,83.56-553.53,287.24-55.77,53.19-203.18,193.78-188,368.16,20.78,238.31,329.73,361.51,408.77,393,210.1,83.78,468.56,89.5,500.26,11.38,24-59.12-104.93-109.42-140.46-276.25-22.46-105.42-8.1-259.6,83.58-333.39,85.63-68.91,160.6-4.84,386.17-32.72,122.93-15.2,311.71-38.53,403.17-174.52,64.42-95.77,76.55-241.45,16.68-292.79-59.24-50.81-171.45,5.81-184.95-24-15.27-33.71,136-89,184.95-219.47,39.78-106,7.93-250.49-74.91-323.07C1622.84-66.81,1329.54,25.3,1171.54,180.5Z"/><path class="cls-5" d="M1103.85,1430.61c-14.53,6.23,52.08,158,27.89,174.09-14.43,9.61-103.55-51.75-120.26-141.57-19.31-103.87,158.2-136.71,205.76-290.93,4.72-15.31,12.06-43.92,36.56-57.25,30.25-16.48,66.35,1.42,133.43,31.6,112,50.4,168,75.6,200.16,80.76,95.52,15.35,132.87-24.37,164.15,4.93,43,40.31,9.84,150.78-30.72,218.29-47.24,78.63-116.91,113.12-165,137-61.12,30.26-181.27,89.74-284.42,45.64C1154.16,1583,1118,1424.53,1103.85,1430.61Z"/><path class="cls-6" d="M1812.94,1021.41c-30.87-19.09-72.78,20.07-162.35,58.37-104.8,44.82-153.9,36.74-154.5,52.67-1.22,32.54,202.13,103.69,295.55,24.76,11.84-10,44.83-37.87,45-79.1C1836.63,1073.27,1836.28,1035.84,1812.94,1021.41Z"/><path class="cls-7" d="M1746.16,1036.37,1706,765.05l-89.84,9c-7.58-1.41-22,6.48-25.4,14.43l-118,274.9c-3.65,8.52,2,18.31,10.44,18.25l33.69-1.41V1721c0,11.42,8.29,19.61,18.49,18.31l80.75,18c9.66-1.25,100.09-50,100.09-61V1054l20.42-.11C1744.38,1053.84,1749.47,1044.47,1746.16,1036.37Z"/><path class="cls-8" d="M1606,1077.37l-89.1,2.89V1721c0,11.42,8.29,19.61,18.49,18.31l80.75,18c4-.51,21.69-9.1,41.13-19.77Z"/><path class="cls-9" d="M1833.09,1058.52,1716.34,772c-3.93-9.67-15.76-10.27-19.72-1l-122.87,288.34c-3.61,8.48,1.93,18.22,10.33,18.16l21.91-.14v662.82c0,11.36,8.22,19.51,18.31,18.2l162-20.94c9.48-1.23,17.15-11.11,17.15-22.06V1076.1l20.22-.13C1831.33,1075.92,1836.38,1066.58,1833.09,1058.52Z"/><path class="cls-10" d="M1357.21,1792.45l-84.37-19.6c-10.62,1.36-19.25-6.74-19.25-18.1V1231.34c0-11.35,8.63-20.81,19.25-21.12l180.91-5.33c9.93-.29,94.07,4.48,94.07,4.48l-76.11,518.29C1471.71,1738.6,1357.21,1792.45,1357.21,1792.45Z"/><path class="cls-11" d="M1543.45,1768.85,1364.28,1792c-10.51,1.36-19.07-6.7-19.07-18V1235.26c0-11.3,8.56-20.72,19.07-21l179.17-5.33c9.84-.3,17.8,8.29,17.8,19.17v518.78C1561.25,1757.73,1553.29,1767.58,1543.45,1768.85Z"/><path class="cls-12" d="M1074.51,1829.16l-89-19.63c-11.68,1.5-21.19-7-21.19-18.86L967,1423.91c0-11.91,9.5-22.14,21.19-22.83L1187,1389.22c10.9-.65,102.33,11.94,102.33,11.94l-85.25,359.74C1204.05,1772.35,1085.54,1827.73,1074.51,1829.16Z"/><path class="cls-13" d="M1276.64,1803.35l-196.87,25.46c-11.57,1.5-21-6.9-21-18.75V1431.61c0-11.86,9.42-22,21-22.73L1276.64,1397c10.79-.66,19.52,8,19.52,19.45v363.74C1296.16,1791.59,1287.43,1802,1276.64,1803.35Z"/><path class="cls-14" d="M1544,656.46c0-312.72-266.24-566.22-594.66-566.22S354.67,343.74,354.67,656.46c0,189.78,98.07,357.75,248.57,460.48,63.85,43.59,102.58,115.43,102.58,192.73V1353a170.47,170.47,0,0,0,170.46,170.47h146.1A170.47,170.47,0,0,0,1192.85,1353v-43.33c0-77.3,38.72-149.14,102.57-192.73C1445.93,1014.21,1544,846.24,1544,656.46Z"/><path class="cls-15" d="M1081.25,1775.93c0,38.57-59.06,69.84-131.92,69.84s-131.91-31.27-131.91-69.84,59.06-69.83,131.91-69.83S1081.25,1737.36,1081.25,1775.93Z"/><path class="cls-16" d="M774.07,1651.18v71.31a62.66,62.66,0,0,0,35.51,56.63c30.24,14.42,80.51,30.24,153.57,28.37,59.27-1.52,97.92-11.2,122.49-21.37,23.74-9.82,39-33.29,39-59v-39.46Z"/><path class="cls-17" d="M774.07,1713.64a69.26,69.26,0,0,0,18.48,12.92c33.92,16.17,256.11,52.32,309.7,32.18a71.87,71.87,0,0,0,18.71-10.33,64.58,64.58,0,0,0,3.64-21.28v-39.46l-350.53-36.5Z"/><path class="cls-18" d="M789.63,1602.65a33.46,33.46,0,0,0-36.92,33.28v2a70.29,70.29,0,0,0,39.84,63.52c33.92,16.18,256.11,52.33,309.7,32.19,27-10.14,43.71-33.3,43.71-62.13v-1.62a33.46,33.46,0,0,0-30-33.28Z"/><path class="cls-19" d="M1116,1636.63l-326.34-34a33.38,33.38,0,0,0-31.26,14.73,69.77,69.77,0,0,0,34.18,35.85c33.92,16.18,265.57,57,309.7,36.24a76.58,76.58,0,0,0,37.88-38.38A33.44,33.44,0,0,0,1116,1636.63Z"/><path class="cls-20" d="M776.87,1487.1a24.15,24.15,0,0,0-24.16,24.16v55.85a70.3,70.3,0,0,0,39.84,63.53c33.92,16.18,265.57,57,309.7,36.24,26.08-12.29,43.71-37.36,43.71-66.18v-89.44a24.16,24.16,0,0,0-24.16-24.16Z"/><path class="cls-21" d="M1141.09,1504.49c0,25-85.85,45.34-191.76,45.34s-191.76-20.3-191.76-45.34,85.86-45.34,191.76-45.34S1141.09,1479.45,1141.09,1504.49Z"/><path class="cls-22" d="M1544,656.46c0-312.72-266.24-566.22-594.66-566.22S354.67,343.74,354.67,656.46c0,189.78,98.07,357.75,248.57,460.48,63.85,43.59,102.58,115.43,102.58,192.73V1353a170.47,170.47,0,0,0,170.46,170.47h146.1A170.47,170.47,0,0,0,1192.85,1353v-43.33c0-77.3,38.72-149.14,102.57-192.73C1445.93,1014.21,1544,846.24,1544,656.46Z"/><ellipse class="cls-23" cx="949.33" cy="1468.74" rx="140.31" ry="33.17"/><path class="cls-24" d="M912.77,1489a8.12,8.12,0,0,1-8-7.07L801.51,679.19a8.11,8.11,0,1,1,16.09-2.07l103.22,802.75a8.12,8.12,0,0,1-7,9.08A7.34,7.34,0,0,1,912.77,1489Z"/><path class="cls-25" d="M976.88,1489a7.34,7.34,0,0,1-1-.06,8.12,8.12,0,0,1-7-9.08l103.23-802.75a8.11,8.11,0,1,1,16.08,2.07L984.92,1481.94A8.12,8.12,0,0,1,976.88,1489Z"/><path class="cls-26" d="M1061,678.54a8.13,8.13,0,0,1-6.78-3.65l-28.49-43.22a1.28,1.28,0,0,0-1.15-.65,1.26,1.26,0,0,0-1.1.68l-18.81,31.51a17.51,17.51,0,0,1-29.67.72l-25.83-38.72a1.31,1.31,0,0,0-1.12-.64,1.37,1.37,0,0,0-1.08.59L924.24,658a17.56,17.56,0,0,1-14.38,7.59h0A17.6,17.6,0,0,1,895.42,658l-32.71-46.86a1.47,1.47,0,0,0-1.15-.61,1.26,1.26,0,0,0-1.09.7l-29.86,51.54a8.11,8.11,0,0,1-14-8.14l29.86-51.54A17.49,17.49,0,0,1,876,601.85l32.71,46.86a1.32,1.32,0,0,0,1.11.61h0a1.25,1.25,0,0,0,1.07-.59l22.69-32.8a17.5,17.5,0,0,1,29,.28l25.83,38.72c.29.44.72.8,1.15.64a1.28,1.28,0,0,0,1.1-.68l18.81-31.5a17.5,17.5,0,0,1,29.72-.64L1067.71,666a8.1,8.1,0,0,1-6.76,12.57Z"/><path class="cls-27" d="M960.12,1103.08c12.74-218.24,380.66-269.32,379.08-464.22-1-120-147.17-209.19-178.38-227-230-131.57-513.19,20.36-571.66-87.17-14.56-26.77-7.74-55.91-3.85-72.51,5.88-25.09,19.18-48.45,38.91-69.82C461.93,283.42,354.67,458,354.67,656.46c0,189.78,98.07,357.75,248.57,460.48,63.85,43.59,102.58,115.43,102.58,192.74V1353a170.47,170.47,0,0,0,170.46,170.47h146.1A170.47,170.47,0,0,0,1192.85,1353v-34.64c-20.11,15.41-43.2,26.16-68.52,26C1036.46,1343.59,953.79,1211.68,960.12,1103.08Z"/><ellipse class="cls-28" cx="958.85" cy="678.54" rx="511.72" ry="493.5"/><path class="cls-29" d="M885.63,746.36l14.84-17.21s10.87-16.4,1.23-37.84-20.2-14.62-20.2-14.62l4.15,15.3s2.74,9.87-5.85,23.08c-7.41,15.65-8.06,27.28-8.06,27.28Z"/><path class="cls-30" d="M223.35,857.92l-19.23-15-10.2-29.12s-21.39,10.31-7.3,37.46c8.36,8.78,28.25,21.41,37.27,34.5S223.35,857.92,223.35,857.92Z"/><path class="cls-31" d="M415.6,1044.09s-90.38-47-112.81-64.51c-23.39-18.22-86.69-90.26-92.36-98.9S224,852.5,224,852.5s109.71,118.1,233.15,71.75C440.4,970.79,415.6,1044.09,415.6,1044.09Z"/><path class="cls-32" d="M457.43,1782.48s-12.91,41-7.43,58.44a178.56,178.56,0,0,1-28.23-.44s5.51-18.7,6.18-27.81c.9-12.3-.68-32-.68-32Z"/><path class="cls-33" d="M639.08,1862.89a12.6,12.6,0,0,0-2.46,7.55,12,12,0,0,0,1.26,4.84c3.23,6.91,7.55,7.54,12.68,14.75,3.14,4.41,2.72,5.84,5.44,7.73,3.58,2.49,7.68,2.35,11.23,2.13a194.93,194.93,0,0,0,25.36-3.32c-6.23-6.91-12.83-13.92-19.82-21q-4.59-4.63-9.16-9l-17.15-4.41Z"/><path class="cls-34" d="M647,1780.64s13.24,49.19,2.1,64.06c-9.34,14.73,5.3,3.64,5.3,3.64L674,1863l12.41,18.22s-13.74-48.09-12.46-67.67,1.67-32.75,1.67-32.75Z"/><path class="cls-35" d="M535.85,918.11c46-11.28,114.37,7.37,188.41-39.05,72.85-45.68,113.27-108.16,136.58-148l35.26,14.32c-16.81,34.67-56.94,109.27-113.42,163.31-71.1,68-144.9,77.14-181.48,131.11C580.84,1022.41,513.42,923.62,535.85,918.11Z"/><path class="cls-36" d="M642.84,1232.19s27.38,21.1,34.36,115.74S687.15,1649,687.15,1649l-8.63,148.57s-20.14,2.21-34-.85c-16.25-54.54-43-146.85-39.3-226-2.23-85.48-48-189.5-48-189.5s-24.47,110.56-43.47,166.33-50.28,228.43-53.44,240.9c-26.71,4.42-38.73-1.84-38.73-1.84s3.81-183.61,15-253.76-2.47-236.36,21.08-285.67C516.75,1218.38,642.84,1232.19,642.84,1232.19Z"/><path class="cls-37" d="M642.84,1232.19s27.38,21.1,34.36,115.74S687.15,1649,687.15,1649l-8.63,148.57s-20.14,2.21-34-.85c-16.25-54.54-43-146.85-39.3-226-2.23-85.48-48-189.5-48-189.5s-24.47,110.56-43.47,166.33-50.28,228.43-53.44,240.9c-26.71,4.42-38.73-1.84-38.73-1.84s3.81-183.61,15-253.76-2.47-236.36,21.08-285.67C516.75,1218.38,642.84,1232.19,642.84,1232.19Z"/><path class="cls-38" d="M522.17,1415.45c-4.18,52.66-18.13,81.87-55.53,120.87-30.27,26.39-2.4,76.69-11.46,117.63-3.12,12.31-14.25,25.21-17.37,37.52-12.71,30.91,3.9,66.35-.53,98.41-10.63-.68-15.62-3.25-15.62-3.25s3.81-183.61,15-253.76-2.47-236.36,21.08-285.67c59.05-28.82,185.14-15,185.14-15s27.38,21.1,34.36,115.74c.56,7.68,1.1,16.11,1.62,25.09-24.93,25.56-79.09,34.83-114.66,11.14a16,16,0,0,0-6.64-2.44l-.22-.48-.1.48C541.68,1380.05,524.62,1401.3,522.17,1415.45Z"/><path class="cls-33" d="M455.28,1855.74s4-.29,4,4.84,3.45,22.53-16.58,24.83-23.28.29-23.94.34,4-17.18,4-17.18l5.81-8.71,17.16-3.08Z"/><path class="cls-39" d="M412,1876.65c.12-4.27,2-11.12,4-16.67,3-8.24-.17-11,2.68-18.52a21.76,21.76,0,0,1,4.25-7.61,20.79,20.79,0,0,1,13.79-6.45,14.43,14.43,0,0,1,6.79,1.07c3.24,1.43,5,3.81,6.48,5.9,2.34,3.29,1.94,4.38,5.89,14a34.43,34.43,0,0,1,1.63,4.79,35.65,35.65,0,0,1,.85,4.34c-5.27.39-25.46,2.71-29.51,6.15s-5.8,8.87-5.41,14.14-2.07,7.93-4.71,8C416.39,1885.78,411.39,1881.76,412,1876.65Z"/><path class="cls-39" d="M653.76,1837.31c-4.52.4-7.57,4.25-9.43,13.11s-13.32,17.43.57,14.56,25.52,16.24,31.07,23.21,19.47,12.51,18.61,5.36-7-10.07-9.25-17.29S664.07,1836.39,653.76,1837.31Z"/><path class="cls-40" d="M490.24,918.45c22.65-2.34,79.94-12.9,109,12.11,29.66,25.57,4.13,60.78,12.46,105.91,5.65,30.6,5.77,48.87,15.35,98.87a312.25,312.25,0,0,0,9,35.28c10.13,32.3,28.31,96,36.72,111.58-22.25,13.58-80.26,39.22-152,33.89a240.46,240.46,0,0,1-78.48-19.59c14.31-57.13,5.24-133.27-3.61-160.28-17.46-53.31-22.08-74.41-65.88-149.71-12.08-20.76,13.72-10.54,28.28-30.61C423.38,925.11,467.39,920.81,490.24,918.45Z"/><path class="cls-41" d="M568.14,1055.67c-1.89-9.94-5.13-28.13,2.5-48A73.35,73.35,0,0,1,585,984.46c18.77-20,44.83-20.66,74.33-25a462.45,462.45,0,0,0,89.9-22.8C695,976.59,642.71,991.53,610.45,1028c.28,2.8.67,5.63,1.2,8.5,5.65,30.6,5.77,48.87,15.35,98.87a312.25,312.25,0,0,0,9,35.28c10.13,32.3,28.31,96,36.72,111.58-22.25,13.58-80.26,39.22-152,33.89a240.46,240.46,0,0,1-78.48-19.59c4.37-17.44,6.55-36.66,7.23-55.71,26.1-2,63.77-9,101.76-31.86,21.17-12.77,31.76-19.15,37.41-32C599.5,1152.42,582.59,1131.54,568.14,1055.67Z"/><path class="cls-42" d="M506,870.54c-3.52-17.15-18-27.24-21.2-29.39-13.24-9-15.86-9.84-20.21-10.34l-5.94-.45-.64.07c-3.42.46-13.41,5.24-15.19,6.69-5.67,4.65.93,34.1,21.79,69.8q1.41,4.62,2.83,9.25c-15.6,3.94-19.3,7.08-19.26,9.36.1,5,17.86,10,33.92,9.19,20.14-1,40.85-11.19,40-17.61-.35-2.61-4.38-5.55-19.21-7.64l-7.56-9.12C497.2,897.69,508.61,883.18,506,870.54Z"/><path class="cls-43" d="M463.71,818.62c6.76,5.7,9.09,16.3,7.8,24.15-.78,4.7-2.19,5.29-1.76,8.3,1.21,8.45,16.94,11,16.4,15.35-.39,3.1-8.52,2.57-9.63,6.51-1.21,4.31,7.9,7.28,12.48,17.57.71,1.6,5,11.34.86,17.57-3.9,5.81-13.63,5.21-24.6,4.6a87,87,0,0,1-23.55-4.5c-8.18-2.89-17-6-24.68-14.09-1.83-1.91-12.58-13.53-13-30.85-.58-22.76,16.95-43.52,36.24-48C443.36,814.46,455.42,811.64,463.71,818.62Z"/><path class="cls-44" d="M480.68,865.85c-4.75-2.39-7.8,3.73-5.27,8.7s10,7.64,14.13,4.27S487.09,869.07,480.68,865.85Z"/><path class="cls-45" d="M530.57,915.56,519.2,913s-1.8,15.26-37.4,19.78A53.57,53.57,0,0,1,448.32,924l-8.26,4.56s19.27,21.12,45.73,18.64C519.94,944,530.57,915.56,530.57,915.56Z"/></g></g></g></svg>