<svg xmlns="http://www.w3.org/2000/svg" viewBox="0 0 48.5 155.4"><defs><style>.cls-1{fill:#eb8b23;}.cls-2{fill:#ddd;}.cls-3{fill:#af206e;}.cls-4{fill:#c4c4c4;}.cls-5{fill:#f6cc1b;}</style></defs><g id="Layer_2" data-name="Layer 2"><g id="Layer_1-2" data-name="Layer 1"><path class="cls-1" d="M24.3,0a9.65,9.65,0,0,0-9.7,9.7V48.5H34V9.7A9.77,9.77,0,0,0,24.3,0Z"/><path class="cls-2" d="M38.8,77.7V67.9H9.7V136l14.6,19.4L38.9,136v-9.7a4.9,4.9,0,0,1,0-9.8v-9.7a4.9,4.9,0,0,1,0-9.8V87.3A4.91,4.91,0,0,1,34,82.4,4.85,4.85,0,0,1,38.8,77.7Z"/><rect class="cls-3" x="14.6" y="9.7" width="19.4" height="48.5"/><path class="cls-4" d="M29.1,130.6V67.9H19.4v62.7a4.91,4.91,0,0,0,4.9,4.9A4.82,4.82,0,0,0,29.1,130.6Z"/><path class="cls-5" d="M43.7,67.9a4.8,4.8,0,0,0,4.8-4.8,4.87,4.87,0,0,0-4.8-4.8H4.8A4.8,4.8,0,0,0,0,63.1a4.87,4.87,0,0,0,4.8,4.8Z"/></g></g></svg>