<svg xmlns="http://www.w3.org/2000/svg" viewBox="0 0 579.8 428.55"><defs><style>.cls-1{fill:#fff;}.cls-1,.cls-10,.cls-11,.cls-15,.cls-16,.cls-17,.cls-18,.cls-19,.cls-2,.cls-20,.cls-21,.cls-22,.cls-3,.cls-4,.cls-5,.cls-6,.cls-7,.cls-8,.cls-9{fill-rule:evenodd;}.cls-2{fill:#e54355;}.cls-3{fill:#5f2d78;}.cls-4{fill:#b89f60;}.cls-5{fill:#f6cc1b;}.cls-14,.cls-6{fill:#ff9a38;}.cls-7{fill:#231f20;}.cls-13,.cls-8{fill:#af206e;}.cls-9{fill:#ffab55;}.cls-10,.cls-12{fill:#ff5e0e;}.cls-11{fill:#8f8587;}.cls-15{fill:#ce6615;}.cls-16{fill:#eb8b23;}.cls-17{fill:#f28531;}.cls-18{fill:#ce6e23;}.cls-19{fill:#bcad9e;}.cls-20{fill:#ab9c8f;}.cls-21{fill:#95877d;}.cls-22{fill:#8f847b;}</style></defs><g id="Layer_2" data-name="Layer 2"><g id="Layer_1-2" data-name="Layer 1"><path class="cls-1" d="M0,192.44c2.58,1.29,54.38,39.72,113.63,83.9.38-1.19.77-2.38,1.17-3.59C76,244.14,35.8,215.65,0,192.44Zm177,131.2c61.27,45.77,114.87,85.93,114.87,85.93s-48.69-39.51-112.48-88.28C178.6,322.1,177.8,322.89,177,323.64Z"/><path class="cls-1" d="M84.3,101.74c2.39,1.2,47,34.22,100.57,74.16,1.06-.66,2.12-1.3,3.21-1.94-35.35-25.85-71.36-51.2-103.78-72.22ZM263.89,234.87c60.18,45,112.29,84,112.29,84s-47.45-38.5-110-86.41C265.4,233.26,264.65,234.07,263.89,234.87Z"/><path class="cls-1" d="M23.74,84.84c2.94,1.47,70,51.33,139.1,102.89.94-.8,1.89-1.6,2.86-2.39C118.9,150.26,68,113.52,23.74,84.84Z"/><path class="cls-2" d="M188.52,20.48l2.52-7.2a1.52,1.52,0,0,1,2.89.06l5.61,18.4a1.47,1.47,0,0,1-.49,1.62,1.5,1.5,0,0,1-1.69.17l-16.91-9.17a1.52,1.52,0,0,1,.52-2.84Z"/><path class="cls-2" d="M194.31,27.57l2.52-7.2a1.53,1.53,0,0,1,2.9.06l5.61,18.4a1.53,1.53,0,0,1-2.19,1.78l-16.91-9.16a1.53,1.53,0,0,1,.52-2.85Z"/><path class="cls-2" d="M198.93,33.21,201.45,26a1.49,1.49,0,0,1,1.46-1,1.51,1.51,0,0,1,1.43,1.08L210,44.47a1.52,1.52,0,0,1-.49,1.63,1.5,1.5,0,0,1-1.69.16L190.86,37.1a1.52,1.52,0,0,1,.51-2.85Z"/><path class="cls-3" d="M275.54,130.42l-90-110.09a2.17,2.17,0,0,1,.3-3h0a2.18,2.18,0,0,1,3.05.31l90,110.09a2.17,2.17,0,0,1-.3,3h0A2.17,2.17,0,0,1,275.54,130.42Z"/><path class="cls-4" d="M205.64,46.28h0a1.56,1.56,0,0,1,.22-2.2l2.3-1.88a1.56,1.56,0,0,1,2.2.22h0a1.57,1.57,0,0,1-.23,2.2l-2.3,1.88A1.56,1.56,0,0,1,205.64,46.28Z"/><path class="cls-4" d="M208.2,49.41h0a1.56,1.56,0,0,1,.22-2.2l2.3-1.88a1.56,1.56,0,0,1,2.2.22h0a1.56,1.56,0,0,1-.22,2.2l-2.3,1.88A1.56,1.56,0,0,1,208.2,49.41Z"/><path class="cls-2" d="M461.86,78.24c.5-.37,1.48.09,2.2,1s.9,2,.4,2.4-1.48-.09-2.2-1S461.36,78.62,461.86,78.24Z"/><path class="cls-2" d="M439,69.3l7.22-2.44a1.52,1.52,0,0,1,1.73,2.32l-11,15.74a1.49,1.49,0,0,1-1.58.61,1.5,1.5,0,0,1-1.17-1.23l-3.18-19A1.52,1.52,0,0,1,433.48,64Z"/><path class="cls-2" d="M436.92,78.23l7.23-2.44a1.52,1.52,0,0,1,1.73,2.31L434.83,93.85a1.52,1.52,0,0,1-2.75-.63l-3.18-19a1.52,1.52,0,0,1,2.56-1.34Z"/><path class="cls-2" d="M435.31,85.34l7.22-2.44a1.52,1.52,0,0,1,1.74,2.31l-11,15.75a1.54,1.54,0,0,1-1.59.61,1.5,1.5,0,0,1-1.16-1.24l-3.18-19A1.52,1.52,0,0,1,429.85,80Z"/><path class="cls-3" d="M405.83,205.54,437.25,66.88a2.18,2.18,0,0,1,2.6-1.64h0a2.18,2.18,0,0,1,1.63,2.6L410.06,206.5a2.18,2.18,0,0,1-2.6,1.63h0A2.16,2.16,0,0,1,405.83,205.54Z"/><path class="cls-4" d="M429.14,98.67h0A1.57,1.57,0,0,1,431,97.49l2.91.66a1.57,1.57,0,0,1,1.17,1.87h0a1.57,1.57,0,0,1-1.87,1.18l-2.9-.66A1.57,1.57,0,0,1,429.14,98.67Z"/><path class="cls-4" d="M428.25,102.61h0a1.57,1.57,0,0,1,1.87-1.18l2.9.66A1.57,1.57,0,0,1,434.2,104h0a1.57,1.57,0,0,1-1.87,1.18l-2.9-.66A1.57,1.57,0,0,1,428.25,102.61Z"/><path class="cls-1" d="M115.65,379.17l-9.5,0A226.16,226.16,0,0,1,100.4,354C82.08,244.84,151,155.25,257.24,143.33,173.62,161,117.49,229,116.87,314.72c17.19-94.53,101.07-165.67,204-165.7,117.6,0,215.51,92.76,218.7,207.26a203.23,203.23,0,0,1-.81,24.52l-422.86.12Z"/><path class="cls-5" d="M366,195.83c93.33,0,171,73.62,173.57,164.49a162.88,162.88,0,0,1-.64,19.46l-335.6.1a164.55,164.55,0,0,1-1.73-19.46C199.08,269.54,272.69,195.85,366,195.83Z"/><path class="cls-2" d="M96.49,409.46s-23.8-29.33-23.77-88l23.77,34.09s-12.29-27.36,1.66-70c0,0-9.89,52.92,17.11,94.34a186.69,186.69,0,0,1-33.12-26.64S80.07,374.55,96.49,409.46Z"/><path class="cls-2" d="M408.59,282.74c25.53,0,47.41,8.49,63.33,22.75-17.2-26.59-46.92-44.25-83.83-46.6,2.84-.18,5.69-.28,8.55-.28,50.15,0,88.45,27.52,102.64,67.91-.77-25.17-12.71-49.9-35.43-68.69,2.1,1.33,4.17,2.73,6.19,4.19,37.15,26.91,49.59,68.55,36,105.7H285.24C294,346,309,326.7,327.72,312l-41.06-29.75h0L327.73,312C350.79,293.88,379.41,282.75,408.59,282.74Z"/><path class="cls-2" d="M185.59,324.82c37.65,0,69,29.7,70,66.36a65.93,65.93,0,0,1-.26,7.85l-135.38,0a65.78,65.78,0,0,1-.69-7.85C118.26,354.56,148,324.83,185.59,324.82Z"/><path class="cls-2" d="M286.36,300.38c37.65,0,69,29.7,70,66.36a65.93,65.93,0,0,1-.26,7.85l-135.38,0a65.78,65.78,0,0,1-.69-7.85C219,330.12,248.72,300.39,286.36,300.38Z"/><path class="cls-1" d="M201.39,256.1l-8.9,19.44a39.85,39.85,0,0,0-1.12,31.35l-3.49,10.25a29.52,29.52,0,0,0-10.51,14.23l-16.46,48.24a26.11,26.11,0,0,0,2.27,22.28A29.86,29.86,0,0,0,184,382.78l11.79-34.55a20.86,20.86,0,0,0,4.08,1.6h0C211.51,353,224.35,345.9,228.4,334l9-26.27a44.06,44.06,0,0,0,15.56-18.24l22.13-48.32-20.32-8.05C234.79,225.25,210.79,235.58,201.39,256.1Z"/><path class="cls-1" d="M141.41,260.79l-32-18.37-.8-4.71-5.41,1.15L62.1,215.3a2.89,2.89,0,0,1-1.35-1.68l-6-19.22a3,3,0,0,1,2.12-3.74l22.77-5.56a2.79,2.79,0,0,1,1.49,0L99,190.06l3.19,6.95,7.16-4.09,56,15.45a2.95,2.95,0,0,1,1.89,4.08l-21.67,47a2.94,2.94,0,0,1-4.14,1.33Z"/><path class="cls-1" d="M141.41,260.79l-32-18.37-.8-4.71-5.41,1.15L62.1,215.3a2.89,2.89,0,0,1-1.35-1.68l-6-19.22a2.86,2.86,0,0,1,.25-2.32l98.48,39a295,295,0,0,1-10.41,30.07A3,3,0,0,1,141.41,260.79Z"/><path class="cls-5" d="M138.07,264.09a6.78,6.78,0,0,1-1.59-2.91c-2.61-8.81,3.85-28.64,14.44-44.28,8.27-12.2,16.6-18.25,21.11-16.14h0l11.06,5.18.55,9.5-34.35,61.39-11.22-12.74Z"/><path class="cls-3" d="M186.73,210.28c3.4,9.82-2.71,31.9-13.64,49.33s-22.56,23.59-26,13.77,2.71-31.91,13.64-49.33S183.33,200.46,186.73,210.28Z"/><path class="cls-6" d="M288.61,69.38h12a17,17,0,0,1,17,17h0a17,17,0,0,1-17,17h-12a17,17,0,0,1-17-17h0A17,17,0,0,1,288.61,69.38Z"/><path class="cls-7" d="M240.79,226.77l-7.48,19.43a40.09,40.09,0,0,0,23,51.66h0a40.08,40.08,0,0,0,51.66-22.95l21.83-56.75-37.31-14.35A40.09,40.09,0,0,0,240.79,226.77Z"/><path class="cls-8" d="M218.44,310.28h0a27,27,0,0,1,19,33L224.55,391.5a27,27,0,0,1-33,19h0a27,27,0,0,1-19-33l12.93-48.24A27,27,0,0,1,218.44,310.28Z"/><path class="cls-2" d="M176.44,399.84a26.87,26.87,0,0,1-3.91-22.28l12.93-48.24a27,27,0,0,1,19.41-19.11,26.9,26.9,0,0,1,3.9,22.28l-12.93,48.24A27,27,0,0,1,176.44,399.84Z"/><path class="cls-8" d="M188.64,322a27.12,27.12,0,0,1,16.23-11.81,26.9,26.9,0,0,1,3.9,22.28l-5,18.82A22.42,22.42,0,0,1,188.11,324Z"/><path class="cls-7" d="M231.6,264.54h0a22.41,22.41,0,0,1,15.8,27.38L236.68,332a22.42,22.42,0,0,1-27.38,15.81h0a22.42,22.42,0,0,1-15.8-27.38l10.73-40A22.41,22.41,0,0,1,231.6,264.54Z"/><path class="cls-3" d="M198.74,341.4a22.39,22.39,0,0,1-5.24-21l10.73-40a22.17,22.17,0,0,1,8.05-12,22.39,22.39,0,0,1,5.24,21l-10.73,40.05A22.13,22.13,0,0,1,198.74,341.4Z"/><path class="cls-7" d="M204,254.05l-7.48,19.44a40.1,40.1,0,0,0,23,51.66h0a40.09,40.09,0,0,0,51.66-23l21.83-56.75-37.31-14.35A40.09,40.09,0,0,0,204,254.05Z"/><path class="cls-3" d="M204,254.05l-7.48,19.44a39.94,39.94,0,0,0,1.92,32.84,40.06,40.06,0,0,0,7.89,4.09h0A40.1,40.1,0,0,0,258,287.47l18.58-48.33-20.91-8A40.09,40.09,0,0,0,204,254.05Z"/><path class="cls-2" d="M231.9,60.13s21.53-27.46,47.23-13,37.52-7.29,37.52-7.29S317.76,69.18,299,69,267.88,28.35,231.9,60.13Z"/><path class="cls-8" d="M315.12,53.52C313.17,61.14,308.79,69.07,299,69c-9.6-.11-17.51-10.72-27.77-16.82a32.41,32.41,0,0,1,10.21,3.73C298.75,65.6,309.77,58.92,315.12,53.52Z"/><path class="cls-9" d="M247,128.79c14.61,14.74,15.22,39.3,1.37,54.85s-36.94,16.2-51.55,1.45-15.23-39.3-1.37-54.85S232.41,114,247,128.79Z"/><path class="cls-2" d="M369.16,149.83a28.24,28.24,0,1,1-9.31,38.84A28.25,28.25,0,0,1,369.16,149.83Z"/><path class="cls-10" d="M345.23,143.32a23.19,23.19,0,1,1,43.89-15c.06.17,20.17,60.81,64.41,48.79a23.18,23.18,0,0,1,12.28,44.7C378.94,245.42,345.33,143.61,345.23,143.32Z"/><path class="cls-2" d="M400.85,215c-20.05-11.27-34.12-29.68-43.09-45,7.82-1.43,12.16-1.37,18,3.36,7.43,6,17.42,19,17.42,19l2.2,5.38S386.55,206.25,400.85,215Z"/><path class="cls-2" d="M377,145.57a28.24,28.24,0,1,1-9.31,38.84A28.24,28.24,0,0,1,377,145.57Z"/><path class="cls-6" d="M384.81,142.27A28.25,28.25,0,0,1,416,184.21a28.25,28.25,0,0,1-31.18-41.94Z"/><path class="cls-10" d="M403.87,184.61A28.29,28.29,0,0,1,380.8,158.3a28.23,28.23,0,0,1,23.07,26.31Z"/><path class="cls-10" d="M388.5,145.16c-8.81,6-11.37,18.66-5.59,29.52,6.18,11.62,19.58,16.74,29.92,11.42a18.74,18.74,0,0,0,6.73-5.83,18.69,18.69,0,0,1-1.94,1.15c-10.34,5.31-23.74.2-29.93-11.42C383.16,161.47,383.76,151.8,388.5,145.16Z"/><path class="cls-2" d="M430.34,174.79a29.57,29.57,0,1,1-9.75,40.66A29.56,29.56,0,0,1,430.34,174.79Z"/><path class="cls-8" d="M443.34,170.53a29.57,29.57,0,0,1,17.91,54.67,30.82,30.82,0,0,1-3.78,2,29.56,29.56,0,0,1-14.13-56.63Z"/><path class="cls-8" d="M356.22,119A31,31,0,1,1,346,161.57,31,31,0,0,1,356.22,119Z"/><path class="cls-7" d="M269.11,267.69c27.7,0,50.28-11.23,50.28-25s-22.58-25-50.28-25-50.27,11.23-50.27,25S241.42,267.69,269.11,267.69Z"/><path class="cls-10" d="M349.2,106.51a34.39,34.39,0,1,1-11.34,47.3A34.39,34.39,0,0,1,349.2,106.51Z"/><path class="cls-6" d="M349.2,106.51a34.39,34.39,0,0,1,42.56,5.27,34.39,34.39,0,0,1-56.4,37.11A34.39,34.39,0,0,1,349.2,106.51Z"/><path class="cls-9" d="M349.2,106.51a34.35,34.35,0,0,1,30.57-2.68,34.38,34.38,0,0,1-46.13,24.4A34.27,34.27,0,0,1,349.2,106.51Z"/><path class="cls-5" d="M343.91,136.55c6.87-3.56,15.78,0,19.9,7.87s1.89,17.2-5,20.76-15.78,0-19.9-7.87S337,140.11,343.91,136.55Z"/><path class="cls-2" d="M445.25,170.42c14.58-11,33.56-9.55,42.39,3.27s4.17,32.15-10.42,43.17-33.56,9.55-42.39-3.27S430.66,181.44,445.25,170.42Z"/><path class="cls-8" d="M316.71,33.46h9.36A9.52,9.52,0,0,1,335.56,43h0a9.52,9.52,0,0,1-9.49,9.49H321A9.52,9.52,0,0,1,311.52,43v-4.3A5.2,5.2,0,0,1,316.71,33.46Z"/><polygon class="cls-10" points="288.63 75.34 313.79 46.86 336.61 76.48 288.63 75.34"/><path class="cls-10" d="M314,66.39A24.11,24.11,0,0,1,317.59,79h0a24.37,24.37,0,0,1-24.3,24.3h-7.2a24,24,0,0,1-3.57-12.64h0a24.36,24.36,0,0,1,24.3-24.3Z"/><path class="cls-3" d="M289.4,83.06H301c42.92,0,78,34.18,78,75.95h0c0,35.76-25.73,66-60.06,73.91C316,245,294.79,254.37,269,254.37c-24.27,0-44.52-8.32-49.23-19.4h-8.43V159C211.38,117.24,246.49,83.06,289.4,83.06Z"/><path class="cls-3" d="M289.4,83.06H301a77.25,77.25,0,0,1,28.89,5.58,83.18,83.18,0,0,1,13.17,44.71c0,51.57-48.37,93.37-108,93.37a124.64,124.64,0,0,1-23.65-2.25V161.09A78.25,78.25,0,0,1,289.4,83.06Z"/><path class="cls-3" d="M211.38,224.47V168.18C240.17,171,273,174.4,273,174.4v0l0,.06-.05.09-.07.13-.08.16-.11.2-.11.23-.13.26h0l-.15.3h0l-.15.32-.16.36-.18.39-.18.41-.18.44h0l-.2.47-.19.5h0l-.2.52h0l-.2.55h0l-.2.57h0l-.2.59h0l-.2.62h0l-.2.64h0l-.19.66h0l-.18.67h0l-.18.69h0l-.17.72h0l-.17.73h0l-.15.75h0l-.14.76h0l-.13.78h0l-.11.79h0l-.1.81h0l-.09.82h0c0,.28-.05.56-.07.84h0c0,.28,0,.56,0,.85h0l0,.86h0c0,.29,0,.58,0,.87h0v.87h0c0,.29,0,.59,0,.88h0l.06.89h0l.09.9h0c0,.3.07.6.11.91h0c.05.3.09.6.15.91h0c0,.31.1.61.17.92h0c.06.31.13.61.2.92h0c.07.31.15.62.23.92h0c.08.3.17.61.27.92h0c.09.31.19.62.29.93h0c.11.31.22.62.34.93h0c.12.31.24.62.37.92h0c.13.31.26.61.41.92h0c.14.3.28.61.44.92h0c.16.31.32.62.49.92h0c.17.31.34.62.52.92h0c.18.3.36.6.56.91h0c.19.3.39.61.6.91h0c.21.3.42.61.65.9h0l.7.89h0l.74.88h0l.8.88h0c.27.29.56.59.84.87h0l.89.86h0c.3.29.62.57.94.86h0l1,.84h0s-8,25.23,6,34.68a99.59,99.59,0,0,1-17,1.42c-24.27,0-44.52-8.32-49.23-19.4h-8.43Z"/><path class="cls-11" d="M289.4,83.06H301a77.36,77.36,0,0,1,28.64,5.48c-18.81,13.72-43.1,22-69.64,22a124.42,124.42,0,0,1-27.22-3A77.86,77.86,0,0,1,289.4,83.06Z"/><path class="cls-8" d="M321.69,27.48h9.36A9.52,9.52,0,0,1,340.54,37h0a9.52,9.52,0,0,1-9.49,9.49H326A9.52,9.52,0,0,1,316.5,37v-4.3A5.2,5.2,0,0,1,321.69,27.48Z"/><path class="cls-2" d="M326.83,23.16h10.38a9.51,9.51,0,0,1,9.49,9.49h0a9.52,9.52,0,0,1-9.49,9.49h-5.06a9.52,9.52,0,0,1-9.49-9.49V27.33A4.18,4.18,0,0,1,326.83,23.16Z"/><path class="cls-7" d="M566.87,366.74l12.89,4.62C578.58,390,586,397.28,546.49,406c-58.51,13-189.59,31-410.27,6.26Z"/><path class="cls-7" d="M189.7,212.19c3.25,9.38-2.59,30.49-13,47.15s-21.56,22.55-24.81,13.16,2.59-30.5,13-47.15S186.45,202.8,189.7,212.19Z"/><path class="cls-3" d="M362.87,100.82v.07c2.12,14.27-4.21,25.83-14.26,25.83h-13.9c-10.05,0-20.23-11.56-22.85-25.83v-.07C309.74,86.55,316.07,75,326.12,75H340C350.08,75,360.25,86.55,362.87,100.82Z"/><path class="cls-3" d="M312.72,343.8C167.5,349.12,51.61,369.55,53.87,389.43s121.82,31.68,267,26.36S582,390.05,579.76,370.16,458,338.48,312.72,343.8Z"/><path class="cls-3" d="M312.72,343.8C167.5,349.12,51.61,369.55,53.87,389.43c.55,4.83,8.05,9.19,21.14,12.94q11.55-.28,23.33-.71c145.22-5.33,261.12-25.75,258.85-45.63-.55-4.84-8.05-9.19-21.15-12.94Q324.51,343.38,312.72,343.8Z"/><path class="cls-7" d="M200.58,403.92c-2.75.27-4.58,1.62-4.09,3s3.12,2.34,5.87,2.08,4.58-1.62,4.09-3S203.34,403.66,200.58,403.92Z"/><path class="cls-2" d="M200.58,403c-2.75.85-4.58,2.6-4.09,3.91s3.12,1.67,5.87.82,4.58-2.6,4.09-3.91S203.34,402.18,200.58,403Z"/><path class="cls-7" d="M113.9,397.56c-2.18.2-3.63,1.28-3.24,2.39s2.47,1.85,4.64,1.64,3.63-1.28,3.24-2.39S116.07,397.35,113.9,397.56Z"/><path class="cls-2" d="M113.9,396.85c-2.18.68-3.63,2.06-3.24,3.09s2.47,1.32,4.64.65,3.63-2.06,3.24-3.09S116.07,396.18,113.9,396.85Z"/><path class="cls-7" d="M124.75,398c-3.32.32-5.53,1.95-4.94,3.66s3.77,2.82,7.09,2.5,5.53-2,4.94-3.66S128.07,397.72,124.75,398Z"/><path class="cls-2" d="M124.75,397c-3.32,1-5.53,3.14-4.94,4.72s3.77,2,7.09,1,5.53-3.14,4.94-4.71S128.07,395.93,124.75,397Z"/><rect class="cls-12" x="310.2" y="31.79" width="61.68" height="77.37" rx="22.44"/><path class="cls-2" d="M262.85,243.06l-17-6.47-14,36.74a18.15,18.15,0,0,0,10.49,23.35l.19.08a18.16,18.16,0,0,0,23.35-10.49l7.5-19.73A18.25,18.25,0,0,0,262.85,243.06Z"/><path class="cls-6" d="M332.63,31.79h6.64a26.13,26.13,0,0,1,5.47,16.13V84.44c0,11.69-7.46,21.54-17.4,24.08a22.51,22.51,0,0,1-17.14-21.8V54.23A22.5,22.5,0,0,1,332.63,31.79Z"/><path class="cls-10" d="M345.64,50.57V63.51h-4.77v-4a6.78,6.78,0,0,0-6.76-6.75h-4V50.57Z"/><path class="cls-7" d="M371.87,88.7v.07c-.31,15.35-10.28,27.78-22.43,27.78H332.63c-12.14,0-22.12-12.43-22.43-27.78V88.7c.31-15.35,10.29-27.78,22.43-27.78h16.81C361.59,60.92,371.56,73.35,371.87,88.7Z"/><path class="cls-8" d="M329.2,116.21c-10.54-2.08-18.72-13.57-19-27.44V88.7c.31-15,9.9-27.29,21.73-27.76,10.54,2.08,18.72,13.57,19,27.44v.07C350.62,103.5,341,115.74,329.2,116.21Z"/><path class="cls-3" d="M168,255.33a11.61,11.61,0,0,1,8.9-21.45L281.92,277.8A11.61,11.61,0,0,1,273,299.25Z"/><path class="cls-7" d="M163.67,237a11.63,11.63,0,0,1,13.18-3.07L281.92,277.8a11.56,11.56,0,0,1,6.07,5.82,11.62,11.62,0,0,1-13.19,3.07L169.74,242.78A11.62,11.62,0,0,1,163.67,237Z"/><path class="cls-2" d="M360.08,54a3.82,3.82,0,0,1-7.62,0Z"/><path class="cls-10" d="M330.53,54a3.82,3.82,0,0,1-7.62,0Z"/><path class="cls-6" d="M310.16,52.57c3.39.74,6.14,4.37,6.14,8.11s-2.75,6.17-6.14,5.43S304,61.74,304,58,306.76,51.83,310.16,52.57Z"/><path class="cls-2" d="M310.2,56.18a3.38,3.38,0,0,1,2.15,1.69.74.74,0,0,1-.12.9.59.59,0,0,1-.83,0,1.69,1.69,0,0,0-.82-.44,1.08,1.08,0,0,0-1.36,1.18,2.2,2.2,0,0,0,.3,1.06.77.77,0,0,1-.12.9.6.6,0,0,1-.83,0,3.77,3.77,0,0,1-1.25-2.76A2.4,2.4,0,0,1,310.2,56.18Z"/><path class="cls-10" d="M371.6,52.57c-3.4.74-6.15,4.37-6.15,8.11s2.75,6.17,6.15,5.43,6.14-4.37,6.14-8.11S375,51.83,371.6,52.57Z"/><path class="cls-2" d="M371.55,56.18a3.4,3.4,0,0,0-2.15,1.69.77.77,0,0,0,.12.9.59.59,0,0,0,.83,0,1.74,1.74,0,0,1,.82-.44,1.08,1.08,0,0,1,1.36,1.18,2.19,2.19,0,0,1-.29,1.06.74.74,0,0,0,.12.9.59.59,0,0,0,.83,0,3.79,3.79,0,0,0,1.24-2.76A2.4,2.4,0,0,0,371.55,56.18Z"/><rect class="cls-13" x="318.72" y="49.57" width="15.93" height="5.3" rx="2.65"/><rect class="cls-13" x="347.77" y="49.57" width="15.93" height="5.3" rx="2.65"/><path class="cls-3" d="M295.28,103.78a44.4,44.4,0,1,1-62.77,1.66A44.4,44.4,0,0,1,295.28,103.78Z"/><path class="cls-2" d="M324.4,175.88a17.15,17.15,0,0,1,0-28.22Z"/><path class="cls-2" d="M361.06,175.88a17.15,17.15,0,0,0,0-28.22Z"/><path class="cls-8" d="M346.63,88.34l1.95,3.52,3.52-2a1.33,1.33,0,0,1,1.8.52h0a1.32,1.32,0,0,1-.51,1.8l-4.65,2.57a1.34,1.34,0,0,1-1,.12h-.06a1.32,1.32,0,0,1-.79-.63l-2.57-4.65a1.33,1.33,0,0,1,.52-1.8h0A1.33,1.33,0,0,1,346.63,88.34Z"/><path class="cls-8" d="M334.12,101.81l1.95,3.53,3.53-2a1.32,1.32,0,0,1,1.79.52h0a1.33,1.33,0,0,1-.52,1.8l-4.65,2.58a1.37,1.37,0,0,1-1,.11h-.05a1.31,1.31,0,0,1-.8-.63l-2.57-4.65a1.33,1.33,0,0,1,.52-1.8h0A1.33,1.33,0,0,1,334.12,101.81Z"/><path class="cls-9" d="M244.07,99.76a29.94,29.94,0,1,1,33.35,49.74c-.19.13-69.1,45.47-39.33,96.64a29.92,29.92,0,1,1-51.64,30.25C128,175.93,243.74,100,244.07,99.76Z"/><path class="cls-6" d="M281.81,103.34a29.59,29.59,0,0,1,3.8,4.62,29.92,29.92,0,0,1-8.19,41.54c-.19.13-69.1,45.47-39.33,96.64a29.92,29.92,0,0,1-31,44.6,30,30,0,0,1-4.77-6.15C143.89,184.13,259.63,108.19,260,108A29.88,29.88,0,0,1,281.81,103.34Z"/><path class="cls-10" d="M284.79,106.27c.42.54.83,1.11,1.22,1.69a29.93,29.93,0,0,1-8.2,41.54c-.19.13-69.1,45.47-39.33,96.64a29.92,29.92,0,0,1-10.69,40.95,30.86,30.86,0,0,1-4.26,2.06,31.86,31.86,0,0,1-2.18-3.22C162.9,185.47,278.65,109.53,279,109.31A29.66,29.66,0,0,1,284.79,106.27Z"/><path class="cls-6" d="M251.89,140.18a36.46,36.46,0,1,1-51.55,1.36A36.46,36.46,0,0,1,251.89,140.18Z"/><path class="cls-10" d="M196.82,145.88a36.4,36.4,0,0,1,32-15.65c3.68,6.62,7.85,16.46,7.85,16.46s-28.64,31.75-25.33,18.2S204.89,139.56,196.82,145.88Z"/><path class="cls-2" d="M255.61,143.89a36.46,36.46,0,0,1-36.33,58.57,36.46,36.46,0,0,1,36.33-58.57Z"/><path class="cls-10" d="M223.11,202.91a35.84,35.84,0,0,1-4.35-.71,36.45,36.45,0,0,1,22.61-59,35.81,35.81,0,0,1,4.35.7,36.47,36.47,0,0,1-22.61,59Z"/><path class="cls-9" d="M256.23,154.34c-10.36-9-27.06-7.94-38.68,2.9-12.43,11.59-14.33,30-4.25,41.14a24.34,24.34,0,0,0,9.52,6.44,25,25,0,0,1-2.08-2c-10.08-11.12-8.18-29.54,4.25-41.14C234.11,153.13,246.37,150.66,256.23,154.34Z"/><path class="cls-2" d="M236.2,221.73a38.18,38.18,0,1,1-54,1.43A38.18,38.18,0,0,1,236.2,221.73Z"/><path class="cls-8" d="M243.19,230.68a38.18,38.18,0,0,1-59.53,46.45c-.86-.81-1.67-1.66-2.44-2.53a38.18,38.18,0,0,1,59.53-46.46C241.61,229,242.42,229.8,243.19,230.68Z"/><path class="cls-3" d="M313.44,66.6a10.63,10.63,0,0,1,5.3-11.26l-1.33,5.58s2.65-2.82,11.76-3Z"/><path class="cls-3" d="M369.17,66.6a10.63,10.63,0,0,0-5.3-11.26l1.33,5.58s-2.65-2.82-11.76-3Z"/><path class="cls-8" d="M278.13,105.33a40,40,0,1,1-56.56,1.5A40,40,0,0,1,278.13,105.33Z"/><path class="cls-2" d="M278.1,105a40.55,40.55,0,0,1,4.19,4.63,44.72,44.72,0,0,1-64.22,48.66,40.28,40.28,0,0,1,60-53.29Z"/><path class="cls-2" d="M291.3,92.41a44.4,44.4,0,1,1-62.77,1.67A44.41,44.41,0,0,1,291.3,92.41Z"/><path class="cls-10" d="M291.3,92.41a44.4,44.4,0,0,1,5.79,57.74,44.41,44.41,0,0,1-63.73-60.47A44.4,44.4,0,0,1,291.3,92.41Z"/><path class="cls-6" d="M218,138.59a44.42,44.42,0,0,1,63.21-53.8A44.42,44.42,0,0,1,218,138.59Z"/><path class="cls-9" d="M269.53,87c6.36,9.6.51,25.59-13.06,35.71s-29.73,10.55-36.09,1S219.88,98.1,233.45,88,263.17,77.43,269.53,87Z"/><path class="cls-5" d="M255.09,88.5c3.65,5.51.3,14.69-7.49,20.5s-17.06,6-20.71.54-.29-14.68,7.5-20.49S251.45,83,255.09,88.5Z"/><path class="cls-9" d="M462.51,150.3,472.6,156l-12.2,21.79a11.53,11.53,0,0,1-15.65,4.41l-.12-.06a11.53,11.53,0,0,1-4.41-15.65l6.55-11.7A11.6,11.6,0,0,1,462.51,150.3Z"/><rect class="cls-12" x="328.56" y="44.12" width="26.05" height="7.84" rx="3.92"/><rect class="cls-14" x="328.56" y="40.26" width="26.05" height="7.84" rx="3.92"/><path class="cls-2" d="M334.35,19.35h12a10.93,10.93,0,0,1,10.9,10.9h0a10.93,10.93,0,0,1-10.9,10.9h-5.81a10.93,10.93,0,0,1-10.89-10.9V24A4.7,4.7,0,0,1,334.35,19.35Z"/><path class="cls-8" d="M262.1,81.14S276.34,63,293.33,72.53s24.81-4.82,24.81-4.82.73,19.41-11.67,19.26S285.89,60.12,262.1,81.14Z"/><path class="cls-2" d="M287,87.1s8.86-11.3,19.44-5.36,13.13-4.55,13.13-4.55,2.06,10.13-2.32,12.87a4.76,4.76,0,0,1-2.63.68C306.88,90.65,301.79,74,287,87.1Z"/><path class="cls-7" d="M358.26,184h0A31.89,31.89,0,0,1,383.89,221l-10.48,58a31.88,31.88,0,0,1-36.93,25.63h0a31.89,31.89,0,0,1-25.63-36.93l10.48-58A31.89,31.89,0,0,1,358.26,184Z"/><path class="cls-3" d="M357.62,183.76h0l.14,0a31.46,31.46,0,0,1,1.39,16.4l-10.47,58a31.88,31.88,0,0,1-36.93,25.63h0l-.14,0a31.54,31.54,0,0,1-1.4-16.39l10.48-58A31.89,31.89,0,0,1,357.62,183.76Z"/><path class="cls-3" d="M357.62,183.76h0l.14,0a31.46,31.46,0,0,1,1.39,16.4l-10.47,58A31.91,31.91,0,0,1,321.73,284a32.31,32.31,0,0,1-4-.46h0l-.14,0a31.43,31.43,0,0,1-1.39-16.39l10.47-58a31.92,31.92,0,0,1,26.95-25.83A32.31,32.31,0,0,1,357.62,183.76Z"/><path class="cls-7" d="M353.38,224.69h0a40.18,40.18,0,0,1,32.3,46.54l-13.2,73.1A40.17,40.17,0,0,1,326,376.63h0a40.17,40.17,0,0,1-32.3-46.53L306.85,257A40.17,40.17,0,0,1,353.38,224.69Z"/><path class="cls-2" d="M294.24,347a39.63,39.63,0,0,1-.59-16.9L306.85,257a40.16,40.16,0,0,1,46.08-32.37,39.78,39.78,0,0,1,.6,16.9l-13.21,73.11A40.17,40.17,0,0,1,294.24,347Z"/><path class="cls-15" d="M299,300.42,306.85,257A40.11,40.11,0,0,1,332,226.73l-7.84,43.43A40.13,40.13,0,0,1,299,300.42Z"/><path class="cls-7" d="M294.24,347a39.63,39.63,0,0,1-.59-16.9l2.57-14.22a58.36,58.36,0,0,1,46.28-13.3l-2.18,12.05A40.17,40.17,0,0,1,294.24,347Z"/><path class="cls-7" d="M377.24,402.61C441,402.61,493,392.19,493,379.42s-52-23.19-115.76-23.19-115.76,10.41-115.76,23.19S313.48,402.61,377.24,402.61Z"/><path class="cls-2" d="M325,305.63a58.29,58.29,0,0,1,59.06,66.16,162.55,162.55,0,0,1-51.17,9.15c-24.39.55-46.89-3.87-64.59-11.69-.12-1.34-.2-2.68-.23-4A58.28,58.28,0,0,1,325,305.63Z"/><path class="cls-16" d="M306.1,356.23c16.41,0,29.8-8.53,29.8-19s-13.39-19-29.8-19-29.8,8.52-29.8,19S289.69,356.23,306.1,356.23Z"/><path class="cls-8" d="M389.8,361.23a65.85,65.85,0,0,1,.6,7.43,63.8,63.8,0,0,1-.57,10.15,2.61,2.61,0,0,1-1.74,2.15,173.57,173.57,0,0,1-54.78,9.81c-23.2.52-47.9-3.13-69.23-12.55a2.64,2.64,0,0,1-1.59-2.2c-.13-1.48-.22-3-.25-4.45a63.85,63.85,0,0,1,1.16-13.73,2.68,2.68,0,0,1,3.62-2c21.3,8.51,45.36,11.84,68.21,11.32A185.32,185.32,0,0,0,386.34,359a2.69,2.69,0,0,1,3.46,2.19Z"/><path class="cls-7" d="M389.79,361.23a63.89,63.89,0,0,1,0,17.58,2.61,2.61,0,0,1-1.74,2.15,173.57,173.57,0,0,1-54.78,9.81c-5.53.12-11.13,0-16.76-.36,14.07-11.67-.19-23.69-.19-23.69,6.32.45,12.64.6,18.86.46A185.33,185.33,0,0,0,386.34,359a2.61,2.61,0,0,1,2.24.3A2.52,2.52,0,0,1,389.79,361.23Z"/><path class="cls-17" d="M297.6,340.12c8.21,0,14.9-4.26,14.9-9.49s-6.69-9.49-14.9-9.49-14.9,4.26-14.9,9.49S289.4,340.12,297.6,340.12Z"/><path class="cls-7" d="M482.89,373.26c-4.74.46-7.89,2.8-7.05,5.22s5.37,4,10.11,3.57,7.89-2.79,7-5.22S487.62,372.81,482.89,373.26Z"/><path class="cls-2" d="M482.89,371.73c-4.74,1.47-7.89,4.48-7.05,6.72s5.37,2.88,10.11,1.42,7.89-4.48,7-6.72S487.62,370.27,482.89,371.73Z"/><path class="cls-7" d="M235.32,363.91c-4.74.46-7.9,2.79-7,5.22s5.37,4,10.11,3.57,7.89-2.79,7-5.22S240.05,363.45,235.32,363.91Z"/><path class="cls-2" d="M235.32,362.38c-4.74,1.46-7.9,4.47-7,6.72s5.37,2.88,10.11,1.41,7.89-4.47,7-6.72S240.05,360.91,235.32,362.38Z"/><path class="cls-7" d="M512,369.84c-3.84.37-6.39,2.27-5.71,4.23s4.35,3.26,8.19,2.89,6.39-2.26,5.71-4.22S515.86,369.47,512,369.84Z"/><path class="cls-2" d="M512,368.6c-3.84,1.19-6.39,3.63-5.71,5.45s4.35,2.33,8.19,1.14,6.39-3.62,5.71-5.44S515.86,367.41,512,368.6Z"/><path class="cls-7" d="M434.07,344.69c-3.84.37-6.4,2.27-5.71,4.23s4.35,3.26,8.19,2.89,6.39-2.26,5.7-4.22S437.9,344.32,434.07,344.69Z"/><path class="cls-2" d="M434.07,343.45c-3.84,1.19-6.4,3.63-5.71,5.45s4.35,2.33,8.19,1.14,6.39-3.62,5.7-5.44S437.9,342.26,434.07,343.45Z"/><path class="cls-18" d="M333,19.35h8.54a7.78,7.78,0,0,1,7.76,7.75h0a7.78,7.78,0,0,1-7.76,7.76h-4.13a7.78,7.78,0,0,1-7.75-7.76V22.69A3.35,3.35,0,0,1,333,19.35Z"/><path class="cls-5" d="M326.38,38.75c1.1,1.66.09,4.42-2.25,6.17s-5.14,1.82-6.23.16-.09-4.42,2.25-6.17S325.28,37.09,326.38,38.75Z"/><path class="cls-3" d="M333,215.21c-2.32,6.16-6.35,9.81-9,8.14s-2.93-8-.61-14.17,6.34-9.8,9-8.13S335.3,209.05,333,215.21Z"/><path class="cls-3" d="M340.45,198.56c-1.22,3.26-3.35,5.19-4.75,4.31s-1.55-4.24-.32-7.49,3.35-5.18,4.75-4.3S341.68,195.31,340.45,198.56Z"/><path class="cls-3" d="M299.85,272c9.09,4.79,11.4,18.28,5.15,30.14s-18.68,17.59-27.77,12.8-11.4-18.29-5.16-30.14S290.75,267.21,299.85,272Z"/><path class="cls-5" d="M299.85,272c5.53,2.91,8.55,9.05,8.66,16.07a31.55,31.55,0,0,1-1.53,3.37c-6.24,11.85-18.68,17.58-27.77,12.79-5.53-2.91-8.55-9-8.67-16.07a33.51,33.51,0,0,1,1.53-3.36C278.32,272.94,290.75,267.21,299.85,272Z"/><path class="cls-1" d="M301.08,282.55c5.39,2.84,6.76,10.83,3.06,17.86s-11.06,10.41-16.45,7.58-6.75-10.83-3.06-17.86S295.7,279.72,301.08,282.55Z"/><path class="cls-10" d="M221.26,245.09l-33.53,14.17,15.3,36.2a18.16,18.16,0,0,0,23.72,9.63l.19-.08a18.15,18.15,0,0,0,9.62-23.72Z"/><path class="cls-10" d="M261.24,266.4H224.83v31a18.15,18.15,0,0,0,18.1,18.1h.21a18.15,18.15,0,0,0,18.1-18.1Z"/><path class="cls-6" d="M243.7,233.56c18.61,14.51,23.13,38.68,10.09,54s-38.71,15.94-57.33,1.43-23.13-38.67-10.09-54S225.08,219.06,243.7,233.56Z"/><path class="cls-9" d="M215.35,252.84c8.07,6.28,10,16.75,4.38,23.38s-16.78,6.91-24.84.62-10-16.75-4.38-23.38S207.29,246.55,215.35,252.84Z"/><path class="cls-8" d="M508.23,78.54h0A9.9,9.9,0,0,1,513,91.64L435,260.26a9.9,9.9,0,0,1-13.1,4.81h0a9.9,9.9,0,0,1-4.81-13.1l78-168.62A9.9,9.9,0,0,1,508.23,78.54Z"/><path class="cls-8" d="M422.48,240.42,495.13,83.35A9.92,9.92,0,0,1,507.4,78.2L434.74,235.27A9.89,9.89,0,0,1,422.48,240.42Z"/><path class="cls-19" d="M431,269.07l-.9,1.93a9.37,9.37,0,0,1-12.39,4.56h0a9.38,9.38,0,0,1-4.56-12.4l.9-1.93a9.35,9.35,0,0,1,12.39-4.55h0A9.37,9.37,0,0,1,431,269.07Z"/><path class="cls-1" d="M421.87,248.69,435.44,255a9.38,9.38,0,0,1,4.56,12.4h0a9.37,9.37,0,0,1-12.4,4.55L414,265.63a9.35,9.35,0,0,1-4.55-12.39h0A9.35,9.35,0,0,1,421.87,248.69Z"/><path class="cls-1" d="M421.87,248.69,426,250.6a9.36,9.36,0,0,1,4.55,12.4h0a9.35,9.35,0,0,1-12.39,4.55L414,265.63a9.35,9.35,0,0,1-4.55-12.39h0A9.35,9.35,0,0,1,421.87,248.69Z"/><path class="cls-1" d="M420.85,253.9l1.85.86a4.18,4.18,0,0,1,2,5.54h0a4.2,4.2,0,0,1-5.55,2l-1.85-.86a4.2,4.2,0,0,1-2-5.54h0A4.18,4.18,0,0,1,420.85,253.9Z"/><path class="cls-6" d="M454.55,161.85c15.72-11.88,36.18-10.3,45.7,3.52S504.74,200,489,211.91s-36.18,10.3-45.7-3.53S438.83,173.72,454.55,161.85Z"/><path class="cls-9" d="M456.24,160.69c9.78-7.39,22.51-6.41,28.43,2.19s2.79,21.56-7,29-22.51,6.41-28.43-2.19S446.46,168.08,456.24,160.69Z"/><polygon class="cls-20" points="489.58 121.65 476.46 139.29 503.93 151.25 522.58 104.58 499.29 89.29 489.58 121.65"/><path class="cls-8" d="M575.74,35.14c1.88,19.34-8.18,54.75-27.43,92-10.13,19.6-21.32,36.83-32.12,50.16l-5-2.47,2.46,5.51c-7.81,9.26-15.34,16.39-22,20.79,11.89-33.59,13.74-60.17,2.86-65.8-4.55-2.35-10.81-.77-18,4A322.8,322.8,0,0,1,494.05,99q2.58-5,5.24-9.75c.68,7.08,3,12,7,14.08C520.27,110.61,550.41,80.58,575.74,35.14Z"/><path class="cls-20" d="M484.92,129.69c-1,2.1-2.84,8.76-2.84,8.76s12.48,0,20.06,10.15,10.05-15.95,9-17.46S506,121.8,484.92,129.69Z"/><path class="cls-1" d="M497.18,183.28c6.59-24.88,6.19-43.4-2.68-48-4.55-2.35-10.81-.77-18,4l-10.07-16,14.55-30.35,18.35-3.6c.68,7.08,3,12,7,14.08,12,6.18,35.67-14.81,58.12-49.37-3.81,19-12.59,43.23-25.51,68.22C525.7,147.7,510.73,169.17,497.18,183.28Z"/><path class="cls-5" d="M499.54,173.21c3.95-19.73,2.58-34-5-37.92-3.4-1.75-7.74-1.32-12.74,1a17.59,17.59,0,0,0-6.37,1.29l-9-14.34L480.7,93.4l10.38-2c.69,7.08,3,12,7,14.08,3.4,1.76,7.74,1.32,12.74-1,10.28.11,25.74-12.7,41.72-33.57a303.83,303.83,0,0,1-21.85,53.43A303.06,303.06,0,0,1,499.54,173.21Z"/><path class="cls-8" d="M516.71,136c1.81,2.74,6.54,16,6.54,16l4.82-7.81Z"/><polygon class="cls-8" points="561.99 85.73 540.12 97.16 561.16 77.68 561.99 85.73"/><path class="cls-20" d="M490.65,98.17c4.73,1.92,5.62,10,2,18s-10.4,13-15.13,11.09-5.61-10-2-18S485.93,96.25,490.65,98.17Z"/><path class="cls-21" d="M493.16,100.2c2.39,3.36,2.33,9.69-.52,16-3.62,8-10.35,13-15.07,11.11-2.39-3.36-2.33-9.69.52-16C481.71,103.3,488.44,98.34,493.16,100.2Z"/><path class="cls-5" d="M487.48,101.32c3.18,1.29,3.77,6.72,1.33,12.13s-7,8.75-10.17,7.46-3.77-6.72-1.33-12.13S484.3,100,487.48,101.32Z"/><path class="cls-1" d="M486.43,105.72l-.61,6.2a6.27,6.27,0,0,1-.53,2,6.89,6.89,0,0,1-1.14,1.74,4,4,0,0,1-1.41,1,1.81,1.81,0,0,1-1.31,0l-3.69-1.5a1.59,1.59,0,0,1-.87-.94,3.54,3.54,0,0,1-.18-1.68,6.22,6.22,0,0,1,.54-2,6.46,6.46,0,0,1,1.13-1.73l4.3-4.7a3.87,3.87,0,0,1,1.41-1,1.72,1.72,0,0,1,1.31-.06,1.59,1.59,0,0,1,.87.94,3.54,3.54,0,0,1,.18,1.68Zm-2.46,7,.61-6.2a1.1,1.1,0,0,0-.06-.54.47.47,0,0,0-.28-.29.53.53,0,0,0-.41,0,1.22,1.22,0,0,0-.45.34l-4.31,4.7a2.27,2.27,0,0,0-.36.55,2.11,2.11,0,0,0-.17.62,1.12,1.12,0,0,0,.06.54.47.47,0,0,0,.28.29l3.69,1.5a.56.56,0,0,0,.42,0,1.31,1.31,0,0,0,.44-.34,2.13,2.13,0,0,0,.37-.55A2.29,2.29,0,0,0,484,112.67Z"/><path class="cls-21" d="M528.13,104.59c-.76-.07-25.22,8.67-28.58,10.3S505.23,148,505.23,148s-5-26.34,1-30.3S528.13,104.59,528.13,104.59Z"/><path class="cls-5" d="M302.86,289.93c3.07,1.62,3.85,6.17,1.74,10.16s-6.29,5.93-9.36,4.32-3.84-6.16-1.74-10.16S299.8,288.32,302.86,289.93Z"/><path class="cls-2" d="M126.56,217.46c2.4,0,4.36-1,4.36-2.17s-2-2.18-4.36-2.18-4.36,1-4.36,2.18S124.16,217.46,126.56,217.46Z"/><path class="cls-2" d="M126.05,242.05c5.63,0,10.21-2.29,10.21-5.1s-4.58-5.11-10.21-5.11-10.2,2.3-10.2,5.11S120.43,242.05,126.05,242.05Z"/><path class="cls-2" d="M78.55,209.79c1.13,0,2.06-.46,2.06-1s-.93-1-2.06-1-2.07.46-2.07,1S77.41,209.79,78.55,209.79Z"/><path class="cls-2" d="M101.7,219.77c1.14,0,2.07-.46,2.07-1s-.93-1-2.07-1-2.06.46-2.06,1S100.57,219.77,101.7,219.77Z"/><path class="cls-2" d="M130.84,245.14c2.81,0,5.1-1.15,5.1-2.55s-2.29-2.56-5.1-2.56-5.11,1.15-5.11,2.56S128,245.14,130.84,245.14Z"/><path class="cls-2" d="M245.63,105c3.68,1.59,6,4.36,5.23,6.2s-4.41,2-8.09.46-6-4.36-5.22-6.19S242,103.46,245.63,105Z"/><path class="cls-2" d="M260.41,96.12c2.58,1.1,4.21,3,3.66,4.33s-3.09,1.43-5.66.33-4.21-3-3.66-4.34S257.84,95,260.41,96.12Z"/><path class="cls-2" d="M247.53,94c1.29.55,2.11,1.52,1.83,2.17s-1.55.71-2.83.16-2.11-1.52-1.83-2.17S246.24,93.44,247.53,94Z"/><path class="cls-2" d="M320.07,46.41a1.76,1.76,0,0,1-1.67,2,2,2,0,0,1-2-1.9,1.76,1.76,0,0,1,1.68-2A2,2,0,0,1,320.07,46.41Z"/><path class="cls-2" d="M194.65,148c1.89,1,3,2.55,2.54,3.5s-2.43.91-4.33-.07-3-2.56-2.54-3.51S192.75,147,194.65,148Z"/><path class="cls-2" d="M49,195c1,.79,1.55,1.84,1.16,2.36s-1.55.3-2.58-.48-1.56-1.84-1.17-2.36S48,194.23,49,195Z"/><path class="cls-2" d="M527.82,85.75c3.44,0,7.13,5.3,8.23,11.85s-.79,11.85-4.24,11.85-7.13-5.3-8.24-11.85S524.37,85.75,527.82,85.75Z"/><path class="cls-2" d="M315.21,51a1.21,1.21,0,0,1-1.14,1.36,1.42,1.42,0,0,1-1.38-1.3,1.2,1.2,0,0,1,1.15-1.36A1.39,1.39,0,0,1,315.21,51Z"/><path class="cls-2" d="M332.37,39.31c.37.74.11,1.35-.57,1.37a2.4,2.4,0,0,1-1.92-1.31c-.37-.73-.11-1.34.58-1.36A2.39,2.39,0,0,1,332.37,39.31Z"/><path class="cls-2" d="M334.59,44.12c.72,1.27.35,2.31-.83,2.34a4.44,4.44,0,0,1-3.44-2.23c-.72-1.27-.35-2.31.82-2.34A4.46,4.46,0,0,1,334.59,44.12Z"/><path class="cls-3" d="M342.9,163.72c.31,3.61-2.17,6-5.52,5.37a8.86,8.86,0,0,1-6.6-7.7,6.43,6.43,0,0,1,.1-1.88,5.78,5.78,0,0,1-3.22-4.58c-.19-2.3,1.39-3.83,3.52-3.42a5.66,5.66,0,0,1,4.14,4.41,5.62,5.62,0,0,1,1,.1A8.88,8.88,0,0,1,342.9,163.72Z"/><path class="cls-3" d="M337.26,145.46A2.43,2.43,0,0,1,335,148.2a2.82,2.82,0,0,1-2.76-2.62,2.43,2.43,0,0,1,2.31-2.73A2.8,2.8,0,0,1,337.26,145.46Z"/><path class="cls-2" d="M314.29,112.53a2.43,2.43,0,0,1-2.31,2.74,2.82,2.82,0,0,1-2.76-2.62,2.43,2.43,0,0,1,2.31-2.73A2.8,2.8,0,0,1,314.29,112.53Z"/><path class="cls-2" d="M288.4,194c.66,2.94-1.06,5.38-3.83,5.44a6.63,6.63,0,0,1-6.2-5.2c-.65-2.94,1.06-5.38,3.83-5.45A6.65,6.65,0,0,1,288.4,194Z"/><path class="cls-2" d="M280.15,183.85a2.41,2.41,0,0,1-2.29,2.72,2.79,2.79,0,0,1-2.74-2.6,2.41,2.41,0,0,1,2.29-2.72A2.79,2.79,0,0,1,280.15,183.85Z"/><path class="cls-2" d="M243.64,119.12s8.5,11,43.76,17.08C287.4,136.2,249.52,136,243.64,119.12Z"/><path class="cls-2" d="M240.47,113.53s10,9.68,45.73,10.73C286.2,124.26,248.68,129.42,240.47,113.53Z"/><path class="cls-2" d="M196.4,262.09s12,15.55,61.91,24.17C258.31,286.26,204.71,286,196.4,262.09Z"/><path class="cls-10" d="M390.31,115.6c2.63,3.72,3.26,7.8,1.4,9.12s-5.5-.63-8.14-4.35-3.27-7.8-1.41-9.12S387.67,111.88,390.31,115.6Z"/><path class="cls-10" d="M377.13,112.64c1.06,1.48,1.31,3.11.56,3.64s-2.19-.25-3.24-1.74-1.31-3.11-.56-3.64S376.08,111.15,377.13,112.64Z"/><path class="cls-8" d="M548.31,141.7c4.23,0,7.69-6.56,7.69-14.6s-3.46-14.59-7.69-14.59-7.68,6.56-7.68,14.59S544.08,141.7,548.31,141.7Z"/><path class="cls-2" d="M544,148.2c1.33-.31,2.88,1.48,3.47,4s0,4.81-1.33,5.13-2.88-1.48-3.47-4S542.66,148.51,544,148.2Z"/><path class="cls-2" d="M544.73,37c1.26-.51,3.07,1,4.06,3.41s.75,4.75-.51,5.27-3.08-1-4.06-3.4S543.47,37.54,544.73,37Z"/><path class="cls-2" d="M536.78,70.93c1.59-.65,3.89,1.27,5.14,4.3s1,6-.64,6.67-3.9-1.27-5.14-4.3S535.19,71.59,536.78,70.93Z"/><path class="cls-2" d="M531.55.05c.63-.26,1.54.5,2,1.7s.38,2.38-.25,2.64-1.54-.51-2-1.7S530.92.31,531.55.05Z"/><path class="cls-2" d="M521.71,86.17c1.51-.82,4,.84,5.57,3.71s1.62,5.87.11,6.7-4-.84-5.58-3.71S520.19,87,521.71,86.17Z"/><path class="cls-2" d="M458.73,184.08c4.33,0,8.95,4.28,10.34,9.56s-1,9.56-5.33,9.56-8.95-4.28-10.34-9.56S454.4,184.08,458.73,184.08Z"/><path class="cls-2" d="M458.67,166.64a3.08,3.08,0,0,1,2.58,2.39c.35,1.32-.25,2.39-1.33,2.39a3.09,3.09,0,0,1-2.59-2.39C457,167.71,457.58,166.64,458.67,166.64Z"/><path class="cls-2" d="M463.1,174.56c2.17,0,4.48,2.14,5.17,4.78s-.5,4.78-2.66,4.78-4.48-2.14-5.17-4.78S460.94,174.56,463.1,174.56Z"/><path class="cls-2" d="M471.24,209.36s9.18-10.42,8.47-46.2C479.71,163.16,486.71,200.39,471.24,209.36Z"/><path class="cls-8" d="M365.12,341c4.33,0,9.83,4.28,12.3,9.56s.95,9.56-3.38,9.56-9.83-4.28-12.29-9.56S360.79,341,365.12,341Z"/><path class="cls-8" d="M354.33,326.3c2.16,0,4.91,2.14,6.14,4.78s.48,4.78-1.68,4.78-4.92-2.14-6.15-4.78S352.16,326.3,354.33,326.3Z"/><path class="cls-8" d="M328.46,321.18c5.43,0,11.24,5.38,13,12s-1.26,12-6.69,12-11.24-5.37-13-12S323,321.18,328.46,321.18Z"/><path class="cls-8" d="M332,312.44c2.06,0,4.26,2,4.92,4.56s-.47,4.55-2.53,4.55-4.27-2-4.93-4.55S330,312.44,332,312.44Z"/><path class="cls-2" d="M125.49,322.71c.9-1.75.93-3.54.05-4s-2.31.61-3.22,2.35-.92,3.54,0,4S124.59,324.46,125.49,322.71Z"/><path class="cls-2" d="M119.55,350.6c.9-1.75.92-3.54,0-4s-2.32.61-3.22,2.36-.92,3.53,0,4S118.65,352.35,119.55,350.6Z"/><polygon class="cls-2" points="524.39 79.63 514.45 53.78 528.56 62.12 496.32 5.05 516.35 49.33 501.84 37.55 524.39 79.63"/><path class="cls-2" d="M93.55,220.66s7.09-18.1,33.4-33L117.71,207s9.13-12.44,31.79-17c0,0-26.22,9-37.92,31.59A96.45,96.45,0,0,1,115.11,200S105,204.45,93.55,220.66Z"/><path class="cls-1" d="M139.38,112.29c2.16-2.45,6.57-2.1,9.83.79s4.15,7.21,2,9.66-6.56,2.1-9.83-.79S137.21,114.74,139.38,112.29Z"/><path class="cls-1" d="M153.69,125.42c1.08-1.22,3.28-1,4.91.4s2.08,3.6,1,4.83-3.29,1-4.92-.4S152.61,126.65,153.69,125.42Z"/><path class="cls-2" d="M344.44,14H348a13.61,13.61,0,0,1,13.56,13.57h0A13.61,13.61,0,0,1,348,41.15h-3.59A13.61,13.61,0,0,0,358,27.58h0A13.61,13.61,0,0,0,344.44,14Z"/><path class="cls-2" d="M249.31,268.17c2.32,4,1.17,7.33-2.57,7.42s-8.67-3.08-11-7.09-1.17-7.34,2.57-7.43S247,264.16,249.31,268.17Z"/><path class="cls-2" d="M227.2,263.82c1.3,2.25.66,4.11-1.44,4.17s-4.86-1.74-6.17-4-.66-4.11,1.45-4.16S225.9,261.57,227.2,263.82Z"/><path class="cls-2" d="M216.38,239.6c.65,1.13.33,2.06-.72,2.08a4,4,0,0,1-3.09-2c-.65-1.12-.32-2.05.73-2.08A4,4,0,0,1,216.38,239.6Z"/><path class="cls-2" d="M469.62,85.13c1-.75,3,.17,4.41,2.06s1.79,4,.79,4.81-3-.17-4.41-2.07S468.62,85.89,469.62,85.13Z"/><path class="cls-1" d="M58.64,265.24c2.17-2.45,6.57-2.1,9.83.79s4.15,7.21,2,9.66-6.57,2.1-9.84-.79S56.47,267.69,58.64,265.24Z"/><path class="cls-1" d="M73,278.37c1.08-1.22,3.28-1.05,4.92.4s2.07,3.6,1,4.82-3.28,1.05-4.92-.39S71.87,279.6,73,278.37Z"/><path class="cls-1" d="M524.44,220.4c2.17-2.45,6.57-2.1,9.83.79s4.15,7.21,2,9.66-6.57,2.1-9.83-.79S522.28,222.85,524.44,220.4Z"/><path class="cls-1" d="M538.75,233.53c1.09-1.22,3.29-1.05,4.92.4s2.07,3.6,1,4.83-3.28,1.05-4.91-.4S537.67,234.76,538.75,233.53Z"/><path class="cls-2" d="M163.29,362.88c25.91-1.82,46.91.47,46.91,5.11s-21,9.88-46.91,11.7-46.91-.47-46.91-5.11S137.39,364.7,163.29,362.88Z"/><path class="cls-2" d="M147.91,374.89c13.62-1,24.67.24,24.67,2.69s-11.05,5.19-24.67,6.15-24.67-.25-24.67-2.69S134.28,375.84,147.91,374.89Z"/><path class="cls-2" d="M248.83,403.91c12.35,0,22.43-1.81,22.43-4s-10.08-4-22.43-4-22.44,1.8-22.44,4S236.47,403.91,248.83,403.91Z"/><path class="cls-2" d="M236.06,408.28c7.66,0,13.91-1.12,13.91-2.5s-6.25-2.49-13.91-2.49-13.91,1.12-13.91,2.49S228.4,408.28,236.06,408.28Z"/><path class="cls-2" d="M145.21,366.77c12.35-.86,22.36.23,22.36,2.44s-10,4.71-22.36,5.58-22.36-.23-22.36-2.44S132.86,367.64,145.21,366.77Z"/><path class="cls-2" d="M190.41,363.57c7.05-.5,12.77.13,12.77,1.39s-5.72,2.69-12.77,3.19-12.76-.13-12.76-1.4S183.36,364.06,190.41,363.57Z"/><path class="cls-2" d="M495,241c2.11,0,3.84-3.28,3.84-7.29s-1.73-7.3-3.84-7.3-3.84,3.28-3.84,7.3S492.84,241,495,241Z"/><path class="cls-8" d="M496.83,352.94c12.73.76,22.95,3.23,22.81,5.52s-10.57,3.51-23.31,2.74-22.95-3.23-22.81-5.52S484.09,352.17,496.83,352.94Z"/><path class="cls-8" d="M483.25,359.78c7.89.47,14.23,2,14.14,3.42s-6.55,2.18-14.45,1.7-14.23-2-14.14-3.42S475.35,359.3,483.25,359.78Z"/><path class="cls-2" d="M132.26,428.55c5.62,0,10.21-1.37,10.21-3.05s-4.59-3.05-10.21-3.05-10.2,1.37-10.2,3.05S126.64,428.55,132.26,428.55Z"/><path class="cls-2" d="M110,427.79c2.81,0,5.1-.68,5.1-1.52s-2.29-1.53-5.1-1.53-5.11.69-5.11,1.53S107.15,427.79,110,427.79Z"/><path class="cls-22" d="M401.09,236.32l7.23-2.44a1.48,1.48,0,0,1,1.7.53,1.52,1.52,0,0,1,0,1.79L399,251.94a1.53,1.53,0,0,1-2.75-.62l-3.18-19a1.52,1.52,0,0,1,2.56-1.35Z"/><path class="cls-2" d="M409.55,202.46c3,1.25,4.83,3.56,4.16,5.15s-3.63,1.88-6.6.63-4.82-3.55-4.15-5.15S406.59,201.21,409.55,202.46Z"/><path class="cls-3" d="M398.08,239.71l7.86-34.65a2.17,2.17,0,0,1,2.59-1.64h0a2.17,2.17,0,0,1,1.63,2.59l-7.85,34.65a2.17,2.17,0,0,1-2.59,1.64h0A2.18,2.18,0,0,1,398.08,239.71Z"/><path class="cls-10" d="M410.52,200c3,1.25,4.83,3.56,4.16,5.16s-3.63,1.88-6.59.63-4.83-3.56-4.16-5.16S407.56,198.75,410.52,200Z"/><path class="cls-8" d="M334.5,85l.9,1.63,1.63-.9a.6.6,0,0,1,.83.24h0a.62.62,0,0,1-.24.83l-2.15,1.18A.58.58,0,0,1,335,88h0a.61.61,0,0,1-.36-.29l-1.19-2.15a.62.62,0,0,1,.24-.83h0A.62.62,0,0,1,334.5,85Z"/><path class="cls-8" d="M371.87,96.34v.07c-.31,15.35-10.28,27.78-22.43,27.78h-6.67c12.15,0,22.13-12.43,22.43-27.78v-.07c-.3-15.34-10.28-27.77-22.43-27.77h6.67C361.59,68.57,371.56,81,371.87,96.34Z"/><path class="cls-2" d="M336.52,60.37h12.77c9.39,0,17.06,8.45,17.06,18.79v65.6a3.61,3.61,0,0,1-3.6,3.6h0a3.61,3.61,0,0,1-3.61-3.6v-10.5h0V89.49c0-7.16-5.31-13-11.81-13h-8.85c-6.5,0-11.81,5.85-11.81,13v53.86a3.62,3.62,0,0,1-3.6,3.61h0a3.62,3.62,0,0,1-3.6-3.61V79.16C319.46,68.82,327.14,60.37,336.52,60.37Z"/><path class="cls-18" d="M336.69,76.63c-5.65,1-10,6.37-10,12.86v53.86a3.61,3.61,0,0,1-3.6,3.61h0a3.61,3.61,0,0,1-3.6-3.61V79.16c0-10,7.16-18.21,16.09-18.76a8.08,8.08,0,0,1,7.36,8h0a8.08,8.08,0,0,1-6.22,7.84Z"/><rect class="cls-13" x="318.84" y="145.46" width="8.49" height="5.81" rx="2.9"/><rect class="cls-13" x="358.5" y="145.46" width="8.49" height="5.81" rx="2.9"/><path class="cls-3" d="M333.41,138.44a1.21,1.21,0,0,1-1.15,1.37,1.41,1.41,0,0,1-1.38-1.31,1.22,1.22,0,0,1,1.15-1.37A1.4,1.4,0,0,1,333.41,138.44Z"/><path class="cls-3" d="M305.21,199.5c.55,4.21-2.2,7-6.14,6.27s-7.58-4.77-8.13-9,2.19-7,6.13-6.27S304.66,195.3,305.21,199.5Z"/><path class="cls-3" d="M303.57,192c.34,2.55-1.33,4.25-3.73,3.8a6.72,6.72,0,0,1-4.94-5.46c-.33-2.55,1.34-4.25,3.73-3.8A6.7,6.7,0,0,1,303.57,192Z"/><path class="cls-3" d="M294.55,174.47c.23,2.74-1.65,4.57-4.19,4.08a6.75,6.75,0,0,1-5-5.84c-.23-2.74,1.65-4.56,4.19-4.07A6.72,6.72,0,0,1,294.55,174.47Z"/><path class="cls-8" d="M504.94,123.41c1.43-1.08,4.25.24,6.3,3s2.56,5.79,1.13,6.86-4.25-.24-6.3-3S503.52,124.48,504.94,123.41Z"/><path class="cls-2" d="M504.87,108.27c1-.77,3,.17,4.49,2.1s1.82,4.13.8,4.9-3-.18-4.48-2.11S503.86,109,504.87,108.27Z"/><path class="cls-1" d="M121.1,300.17c1.1.55,32.23,23.76,56.91,42.21l1.21-3.48C166.1,328.91,147.42,316,121.1,300.17Z"/><path class="cls-1" d="M146.6,283.85c.85.42,25,18.4,44.08,32.69l.94-2.69A501,501,0,0,0,146.6,283.85Z"/><path class="cls-8" d="M494.19,204.77c2,.55,2.7,4,1.64,7.74s-3.49,6.3-5.45,5.74-2.7-4-1.64-7.74S492.23,204.21,494.19,204.77Z"/><path class="cls-8" d="M486.46,218c.87.24,1.2,1.78.73,3.42s-1.55,2.79-2.42,2.54-1.19-1.78-.72-3.43S485.6,217.76,486.46,218Z"/><path class="cls-8" d="M488.31,253.85c.9,0,1.62,1.4,1.61,3.11s-.75,3.1-1.65,3.09-1.62-1.4-1.61-3.11S487.41,253.85,488.31,253.85Z"/><path class="cls-8" d="M541,160.5c.86-.27,2,.84,2.47,2.48s.22,3.18-.64,3.44-2-.84-2.48-2.48S540.09,160.76,541,160.5Z"/><path class="cls-8" d="M555.72,178.66c.6-.23,1.41.44,1.82,1.51s.26,2.11-.33,2.34-1.41-.45-1.82-1.51S555.13,178.89,555.72,178.66Z"/><path class="cls-7" d="M260.31,234.46s24.76,1.58,57.55-18.13C317.86,216.33,289.47,242.79,260.31,234.46Z"/><path class="cls-2" d="M362,88.54v0c-.19,9.39-6.3,17-13.73,17h-4.08c7.44,0,13.54-7.61,13.73-17v0c-.19-9.39-6.29-17-13.73-17h4.08C355.69,71.54,361.79,79.15,362,88.54Z"/></g></g></svg>