<svg xmlns="http://www.w3.org/2000/svg" xmlns:xlink="http://www.w3.org/1999/xlink" viewBox="0 0 125.57 423.51"><defs><style>.cls-1{fill:url(#New_Gradient_Swatch_7_copy);}.cls-2{fill:url(#New_Gradient_Swatch_7_copy-2);}</style><linearGradient id="New_Gradient_Swatch_7_copy" x1="-108.29" y1="234.66" x2="82.82" y2="194.8" gradientTransform="translate(-160.79 209.44) rotate(-90)" gradientUnits="userSpaceOnUse"><stop offset="0" stop-color="#af206e"/><stop offset="0.11" stop-color="#8e2572"/><stop offset="0.28" stop-color="#5f2d78"/><stop offset="0.43" stop-color="#572a70"/><stop offset="0.66" stop-color="#42225b"/><stop offset="0.82" stop-color="#2e1a47"/></linearGradient><linearGradient id="New_Gradient_Swatch_7_copy-2" x1="-101.68" y1="266.36" x2="89.43" y2="226.51" xlink:href="#New_Gradient_Swatch_7_copy"/></defs><g id="Layer_2" data-name="Layer 2"><g id="Layer_1-2" data-name="Layer 1"><path class="cls-1" d="M28.37,0l0,.05L34.5,8.26c1,1.36,2,2.7,3,4.1l2.81,4.26c.47.7.93,1.42,1.4,2.12.36.53.72,1.06,1.06,1.6,1,1.57,2.06,3.15,3.06,4.76L51,33.87c.92,1.66,1.84,3.32,2.74,5l0,0Q56.44,43.94,59,49q1.28,2.56,2.48,5.14c.72,1.51,1.43,3.06,2.12,4.59,1.76,3.87,3.41,7.77,4.93,11.73l1.9,4.68,1.71,4.77c1.1,3.18,2.32,6.32,3.34,9.53l3,9.64c1,3.2,1.79,6.48,2.71,9.71a373.06,373.06,0,0,1,8.37,39.43c2.1,13.25,3.68,26.6,4.59,40s1.3,26.79,1.15,40.16c0,2.16-.06,4.31-.11,6.47-.32,11.65-1.12,23.21-1.94,34.83a.49.49,0,0,0,0,.12c-.15,2-.3,3.94-.43,5.92,0,.28,0,.55-.06.84a426,426,0,0,1-14,81c-6.32,23.05-17,45.53-32.56,63.86-.59.71-1.21,1.42-1.83,2.12C101.52,332,71.94,279.8,59.31,263.89a47.53,47.53,0,0,0-4.61-5.13l-.08-.08-.06-.05c5.93,4.18,16.26,1,16.26,1-29.06-10.54-52.13-57.59-53.92-61.32a1,1,0,0,1-.09-.22c4.69,5.29,15.65,7.42,16.33,7.53C11.29,193.12,2.38,148.17,1.73,144.71c0-.07,0-.15-.05-.22,4.72,8.66,16.89,12.44,16.89,12.44C-.46,131.09-.73,100.8.35,87.16c.26-2.44.56-4.87.9-7.31,4.82,15,16.21,20.68,16.21,20.68C2.56,61,16.36,23.91,24,8.07,25.43,5.36,26.86,2.68,28.37,0Z"/><path class="cls-2" d="M108.19,162.81c1,6,4.32,12.32,6.07,18.23,14.77,49.83,15.85,104.79-1.38,154.16-.37,1-.74,2.09-1.12,3.13A211.48,211.48,0,0,1,85,388.94c3.42-4.76,4.82-13.27,6.64-18.84a444.43,444.43,0,0,0,21.46-163.54c0-.28,0-.56,0-.84q-.56-9.24-1.52-18.46Q110.25,175,108.19,162.81Z"/></g></g></svg>