<svg xmlns="http://www.w3.org/2000/svg" viewBox="0 0 608.01 517.12"><defs><style>.cls-1,.cls-2{fill:#fff;}.cls-1,.cls-10,.cls-13,.cls-18,.cls-4,.cls-5,.cls-6,.cls-7,.cls-8{fill-rule:evenodd;}.cls-3,.cls-5{fill:#5f2d78;}.cls-11,.cls-4{fill:#231f20;}.cls-12,.cls-6{fill:#2e1a47;}.cls-15,.cls-7{fill:#eb8b23;}.cls-8,.cls-9{fill:#f6cc1b;}.cls-10{fill:#24205b;}.cls-13,.cls-14{fill:#e54355;}.cls-16{fill:#af206e;}.cls-17,.cls-18{fill:#fffeff;}</style></defs><g id="Layer_2" data-name="Layer 2"><g id="Layer_1-2" data-name="Layer 1"><path class="cls-1" d="M392.82,46a21.57,21.57,0,0,1,29.32,30.32,26.07,26.07,0,0,1-7.35,14.43L403.5,102.07l-9.4,9.4-8.39,8.39a26.82,26.82,0,0,1-2.9,3.44,26.55,26.55,0,0,1-27,6.46l-4.35,4.35a11.29,11.29,0,0,1-15.94,0h0a11.29,11.29,0,0,1,0-15.94l3.86-3.87a26.54,26.54,0,0,1,5.92-28.54L356.82,74.2l0,0,9.39-9.39,0,0,11.25-11.25.2-.2.16-.15.05,0,.2-.19.11-.1h0l.3-.27,0-.06.15-.13.22-.18h0l.21-.18.17-.14,0,0,.22-.18.12-.1.1-.07.21-.17.07-.06.15-.11.23-.17h0l.21-.15.19-.13,0,0,.31-.22,0,0,.09-.06.23-.15.08-.06.15-.09.23-.15,0,0,.08-.05.32-.2,0,0,.24-.13,0,0,.2-.11h0l.24-.13.09-.06.15-.08.23-.13,0,0,.2-.1.22-.12h0l.24-.13.17-.08.08,0,.24-.12.11-.05.13-.06.25-.11.05,0,.19-.09.24-.1h0l.25-.11.18-.07.07,0,.25-.09.25-.1.25-.09.2-.07.05,0,.25-.09h0l.26-.08.19-.06.06,0,.26-.08.25-.08.26-.07.24-.07h0l.26-.07h0l.25-.07.26-.06.26-.06.14,0,.11,0,.26,0,.26-.06h0l.78-.14.26,0Z"/><rect class="cls-2" x="440.86" y="14.28" width="13.5" height="9.16" rx="3.82"/><path class="cls-1" d="M298.06,49.12h47.52A17.83,17.83,0,0,1,363,63.56a17.63,17.63,0,0,1-8.42,2.14H307.07a17.82,17.82,0,0,1-17.44-14.44A17.64,17.64,0,0,1,298.06,49.12Z"/><path class="cls-1" d="M244.87,44.09h23.82l5-5a2.18,2.18,0,0,1,1.52-.63h31.91a2.18,2.18,0,0,1,1.52.63l5,5h7.49a14.63,14.63,0,0,1,14.59,14.6h0a14.63,14.63,0,0,1-14.59,14.59h-76.3a14.64,14.64,0,0,1-14.59-14.59h0a14.64,14.64,0,0,1,14.59-14.6Zm29.89,0h32.85l-1.36-1.35H276.12Z"/><path class="cls-1" d="M182,7.5H424.5a5.73,5.73,0,0,1,5.72,5.71h0a5.73,5.73,0,0,1-5.72,5.72H182a5.73,5.73,0,0,1-5.72-5.72h0A5.73,5.73,0,0,1,182,7.5Z"/><rect class="cls-3" x="164.84" y="1.02" width="276.81" height="11.43" rx="5.72"/><path class="cls-4" d="M337.58,226.49H321.07l-5.44,5.44a2.15,2.15,0,0,1-3-3l6.08-6.07a2.13,2.13,0,0,1,1.51-.63h18.29a2.13,2.13,0,0,1,1.52.63l7.46,7.46a2.15,2.15,0,1,1-3,3Z"/><path class="cls-5" d="M472.74,330.68h23.53L498,322H474.51l-1.77,8.71Zm-2.67,13.09H493.6l1.78-8.71H471.85l-1.78,8.71Zm22.64,4.38H469.18l-2.26,11.14a2.28,2.28,0,0,1-2.7,1.78h0a2.29,2.29,0,0,1-1.78-2.69l23.91-117.48a2.29,2.29,0,0,1,2.7-1.79h0a2.3,2.3,0,0,1,1.78,2.7l-2.1,10.34h23.52l2.3-11.25a2.28,2.28,0,0,1,2.69-1.79h0a2.3,2.3,0,0,1,1.79,2.7L495.11,359.28a2.28,2.28,0,0,1-2.69,1.78h0a2.29,2.29,0,0,1-1.79-2.69l2.08-10.22Zm18.65-91.63H487.83l-1.77,8.71h23.53l1.77-8.71Zm-2.66,13.09H485.17l-1.77,8.71h23.53l1.77-8.71ZM506,282.7H482.51l-1.78,8.71h23.53L506,282.7Zm-2.66,13.09H479.84l-1.77,8.71H501.6l1.77-8.71Zm-2.66,13.09H477.18l-1.78,8.71h23.53Z"/><path class="cls-3" d="M524.28,179.52h36.79a5.35,5.35,0,0,1,5.35,5.35v0a5.35,5.35,0,0,1-5.35,5.35H524.28a5.36,5.36,0,0,1-5.36-5.36v0a5.35,5.35,0,0,1,5.35-5.35Z"/><path class="cls-5" d="M548.86,487.7V180.3h7V487.7a3.52,3.52,0,0,1-3.51,3.51h0A3.52,3.52,0,0,1,548.86,487.7Z"/><path class="cls-5" d="M529.47,487.7V180.3h7V487.7a3.52,3.52,0,0,1-3.51,3.51h0A3.52,3.52,0,0,1,529.47,487.7Z"/><path class="cls-5" d="M532.71,464.41l16.95-16.94a2.1,2.1,0,0,1,3,0h0a2.11,2.11,0,0,1,0,3l-16.94,16.94a2.1,2.1,0,0,1-3,0h0A2.13,2.13,0,0,1,532.71,464.41Z"/><path class="cls-5" d="M532.71,450.45l16.95,16.94a2.1,2.1,0,0,0,3,0h0a2.11,2.11,0,0,0,0-3l-16.94-16.94a2.1,2.1,0,0,0-3,0h0A2.13,2.13,0,0,0,532.71,450.45Z"/><path class="cls-5" d="M532.71,392.85l16.95-16.94a2.1,2.1,0,0,1,3,0h0a2.1,2.1,0,0,1,0,3l-16.94,16.95a2.12,2.12,0,0,1-3,0h0A2.12,2.12,0,0,1,532.71,392.85Z"/><path class="cls-5" d="M532.71,378.88l16.95,16.95a2.11,2.11,0,0,0,3,0h0a2.1,2.1,0,0,0,0-3l-16.94-16.94a2.1,2.1,0,0,0-3,0h0A2.12,2.12,0,0,0,532.71,378.88Z"/><path class="cls-5" d="M532.71,321.28l16.95-16.94a2.1,2.1,0,0,1,3,0h0a2.11,2.11,0,0,1,0,3l-16.94,16.94a2.1,2.1,0,0,1-3,0h0A2.13,2.13,0,0,1,532.71,321.28Z"/><path class="cls-5" d="M532.71,307.32l16.95,16.94a2.1,2.1,0,0,0,3,0h0a2.11,2.11,0,0,0,0-3l-16.94-16.94a2.1,2.1,0,0,0-3,0h0A2.13,2.13,0,0,0,532.71,307.32Z"/><path class="cls-5" d="M532.71,249.72l16.95-16.95a2.11,2.11,0,0,1,3,0h0a2.1,2.1,0,0,1,0,3l-16.94,16.94a2.1,2.1,0,0,1-3,0h0A2.12,2.12,0,0,1,532.71,249.72Z"/><path class="cls-5" d="M532.71,235.75l16.95,16.94a2.1,2.1,0,0,0,3,0h0a2.1,2.1,0,0,0,0-3l-16.94-16.95a2.12,2.12,0,0,0-3,0h0A2.12,2.12,0,0,0,532.71,235.75Z"/><path class="cls-5" d="M536.52,180.3l-.83.83a2.1,2.1,0,0,1-3,0h0a2.1,2.1,0,0,1-.5-.83Z"/><path class="cls-5" d="M548.83,180.3l.83.83a2.1,2.1,0,0,0,3,0h0a2.13,2.13,0,0,0,.51-.83Z"/><path class="cls-6" d="M307.49,43.31H277.36l-5.45,5.44a2.15,2.15,0,1,1-3-3L275,39.64a2.16,2.16,0,0,1,1.52-.63h31.91a2.13,2.13,0,0,1,1.51.63l7.47,7.47a2.15,2.15,0,1,1-3,3Z"/><path class="cls-4" d="M510.73,251.34h0a8.64,8.64,0,0,1,0,12.2l-24.38,24.38a8.65,8.65,0,0,1-12.19,0h0a8.64,8.64,0,0,1,0-12.2l24.38-24.38A8.65,8.65,0,0,1,510.73,251.34Z"/><path class="cls-6" d="M500.68,273.59l0,0-2.14,2.13a8.63,8.63,0,0,0,0-12.19h0a8.64,8.64,0,0,0-12.14-.05l2.09-2.08a8.63,8.63,0,0,1,12.19,0h0A8.65,8.65,0,0,1,500.68,273.59Z"/><path class="cls-6" d="M477.34,288.86a4.46,4.46,0,1,0-4.46-4.46A4.46,4.46,0,0,0,477.34,288.86Z"/><rect class="cls-3" x="81.24" y="79.68" width="514.09" height="11.52" rx="5.76"/><path class="cls-5" d="M336.85,143.68l88.81-88.8a41.64,41.64,0,0,1,58.89,58.89L339.7,258.61l8.15,8.14L492.69,121.91a53.16,53.16,0,0,0-75.18-75.18l-88.8,88.81Z"/><path class="cls-6" d="M433.55,38.89h0a11.29,11.29,0,0,1,0,15.94L418.48,69.91a11.32,11.32,0,0,1-16,0h0a11.32,11.32,0,0,1,0-15.95l15.08-15.07A11.29,11.29,0,0,1,433.55,38.89Z"/><rect class="cls-3" x="518.92" y="36.39" width="47.5" height="10.71" rx="5.35"/><path class="cls-5" d="M548.86,344.57V37.17h7v307.4a3.52,3.52,0,0,1-3.51,3.51h0A3.52,3.52,0,0,1,548.86,344.57Z"/><path class="cls-5" d="M529.47,344.57V37.17h7v307.4a3.52,3.52,0,0,1-3.51,3.51h0A3.52,3.52,0,0,1,529.47,344.57Z"/><path class="cls-5" d="M532.71,321.28l16.95-16.94a2.1,2.1,0,0,1,3,0h0a2.11,2.11,0,0,1,0,3l-16.94,16.94a2.1,2.1,0,0,1-3,0h0A2.13,2.13,0,0,1,532.71,321.28Z"/><path class="cls-5" d="M532.71,307.32l16.95,16.94a2.1,2.1,0,0,0,3,0h0a2.11,2.11,0,0,0,0-3l-16.94-16.94a2.1,2.1,0,0,0-3,0h0A2.13,2.13,0,0,0,532.71,307.32Z"/><path class="cls-5" d="M532.71,249.72l16.95-16.95a2.1,2.1,0,0,1,3,0h0a2.1,2.1,0,0,1,0,3l-16.94,16.94a2.1,2.1,0,0,1-3,0h0A2.12,2.12,0,0,1,532.71,249.72Z"/><path class="cls-5" d="M532.71,235.75l16.95,16.94a2.1,2.1,0,0,0,3,0h0a2.1,2.1,0,0,0,0-3l-16.94-16.95a2.1,2.1,0,0,0-3,0h0A2.13,2.13,0,0,0,532.71,235.75Z"/><path class="cls-5" d="M532.71,178.15l16.95-16.94a2.1,2.1,0,0,1,3,0h0a2.11,2.11,0,0,1,0,3l-16.94,16.94a2.1,2.1,0,0,1-3,0h0A2.13,2.13,0,0,1,532.71,178.15Z"/><path class="cls-5" d="M532.71,164.19l16.95,16.94a2.1,2.1,0,0,0,3,0h0a2.11,2.11,0,0,0,0-3l-16.94-16.94a2.1,2.1,0,0,0-3,0h0A2.13,2.13,0,0,0,532.71,164.19Z"/><path class="cls-5" d="M532.71,106.58l16.95-16.94a2.1,2.1,0,0,1,3,0h0a2.11,2.11,0,0,1,0,3l-16.94,16.94a2.1,2.1,0,0,1-3,0h0A2.13,2.13,0,0,1,532.71,106.58Z"/><path class="cls-5" d="M532.71,92.62l16.95,16.94a2.1,2.1,0,0,0,3,0h0a2.11,2.11,0,0,0,0-3L535.69,89.64a2.1,2.1,0,0,0-3,0h0A2.13,2.13,0,0,0,532.71,92.62Z"/><path class="cls-5" d="M536.52,37.17l-.83.83a2.1,2.1,0,0,1-3,0h0a2.17,2.17,0,0,1-.5-.83Z"/><path class="cls-5" d="M548.83,37.17l.83.83a2.12,2.12,0,0,0,3,0h0a2.09,2.09,0,0,0,.51-.82Z"/><path class="cls-1" d="M212.11,279.38l-25.36,25.36v34.17H145.36v0a15.1,15.1,0,0,1-9.83-4.4l-15-15a15.23,15.23,0,0,1,0-21.47l63.31-63.31a15.17,15.17,0,0,1,10.36-4.43H235.6v49.09Z"/><rect class="cls-3" x="70.69" y="36.39" width="47.5" height="10.71" rx="5.35"/><path class="cls-5" d="M100.63,344.57V37.17h7v307.4a3.52,3.52,0,0,1-3.51,3.51h0A3.52,3.52,0,0,1,100.63,344.57Z"/><path class="cls-5" d="M81.24,344.57V37.17h7v307.4a3.52,3.52,0,0,1-3.51,3.51h0A3.52,3.52,0,0,1,81.24,344.57Z"/><path class="cls-5" d="M84.49,321.28l16.94-16.94a2.11,2.11,0,0,1,3,0h0a2.11,2.11,0,0,1,0,3L87.47,324.26a2.11,2.11,0,0,1-3,0h0A2.11,2.11,0,0,1,84.49,321.28Z"/><path class="cls-5" d="M84.49,307.32l16.94,16.94a2.11,2.11,0,0,0,3,0h0a2.11,2.11,0,0,0,0-3L87.47,304.34a2.11,2.11,0,0,0-3,0h0A2.11,2.11,0,0,0,84.49,307.32Z"/><path class="cls-5" d="M84.49,249.72l16.94-16.95a2.11,2.11,0,0,1,3,0h0a2.1,2.1,0,0,1,0,3L87.47,252.69a2.11,2.11,0,0,1-3,0h0A2.1,2.1,0,0,1,84.49,249.72Z"/><path class="cls-5" d="M84.49,235.75l16.94,16.94a2.11,2.11,0,0,0,3,0h0a2.1,2.1,0,0,0,0-3L87.47,232.77a2.11,2.11,0,0,0-3,0h0A2.11,2.11,0,0,0,84.49,235.75Z"/><path class="cls-5" d="M84.49,178.15l16.94-16.94a2.11,2.11,0,0,1,3,0h0a2.11,2.11,0,0,1,0,3L87.47,181.13a2.11,2.11,0,0,1-3,0h0A2.11,2.11,0,0,1,84.49,178.15Z"/><path class="cls-5" d="M84.49,164.19l16.94,16.94a2.11,2.11,0,0,0,3,0h0a2.11,2.11,0,0,0,0-3L87.47,161.21a2.11,2.11,0,0,0-3,0h0A2.11,2.11,0,0,0,84.49,164.19Z"/><path class="cls-5" d="M84.49,106.58l16.94-16.94a2.11,2.11,0,0,1,3,0h0a2.11,2.11,0,0,1,0,3L87.47,109.56a2.11,2.11,0,0,1-3,0h0A2.11,2.11,0,0,1,84.49,106.58Z"/><path class="cls-5" d="M84.49,92.62l16.94,16.94a2.11,2.11,0,0,0,3,0h0a2.11,2.11,0,0,0,0-3L87.47,89.64a2.11,2.11,0,0,0-3,0h0A2.11,2.11,0,0,0,84.49,92.62Z"/><path class="cls-5" d="M88.29,37.17l-.82.83a2.11,2.11,0,0,1-3,0h0a2.2,2.2,0,0,1-.51-.83Z"/><path class="cls-5" d="M100.6,37.17l.83.83a2.13,2.13,0,0,0,3,0h0a2,2,0,0,0,.5-.82Z"/><path class="cls-5" d="M304,517.12c167.44,0,304-8,304-17.85s-136.56-17.86-304-17.86-304,8-304,17.86S136.57,517.12,304,517.12Z"/><path class="cls-5" d="M291.47,455.06H315l1.78-8.71H293.24l-1.77,8.71Zm-2.67,13.09h23.53l1.77-8.71H290.57l-1.77,8.71Zm22.64,4.38H287.91l-2.27,11.14a2.28,2.28,0,0,1-2.69,1.78h0a2.29,2.29,0,0,1-1.79-2.69l23.92-117.48a2.29,2.29,0,0,1,2.69-1.79h0a2.3,2.3,0,0,1,1.79,2.7l-2.11,10.34H331l2.29-11.25a2.3,2.3,0,0,1,2.7-1.79h0a2.3,2.3,0,0,1,1.78,2.7L313.84,483.66a2.28,2.28,0,0,1-2.7,1.78h0a2.29,2.29,0,0,1-1.78-2.69l2.08-10.22Zm18.65-91.63H306.56l-1.77,8.71h23.53l1.77-8.71ZM327.42,394H303.9l-1.78,8.71h23.53l1.77-8.71Zm-2.66,13.09H301.23l-1.77,8.71H323l1.77-8.71Zm-2.66,13.09H298.57l-1.78,8.71h23.53l1.78-8.71Zm-2.67,13.09H295.9L294.13,442h23.53Z"/><path class="cls-5" d="M86.43,356.78H549.17a5.2,5.2,0,0,1,5.18,5.19h0a5.19,5.19,0,0,1-5.18,5.18H86.43A5.2,5.2,0,0,1,81.24,362h0A5.2,5.2,0,0,1,86.43,356.78Z"/><path class="cls-5" d="M86.43,234.72H549.17a5.2,5.2,0,0,1,5.18,5.19h0a5.19,5.19,0,0,1-5.18,5.18H86.43a5.2,5.2,0,0,1-5.19-5.18h0A5.2,5.2,0,0,1,86.43,234.72Z"/><path class="cls-3" d="M76,179.52h36.79a5.36,5.36,0,0,1,5.36,5.36v0a5.36,5.36,0,0,1-5.36,5.36H76a5.35,5.35,0,0,1-5.35-5.35v0A5.35,5.35,0,0,1,76,179.52Z"/><path class="cls-5" d="M100.63,487.7V180.3h7V487.7a3.52,3.52,0,0,1-3.51,3.51h0A3.52,3.52,0,0,1,100.63,487.7Z"/><path class="cls-5" d="M81.24,487.7V180.3h7V487.7a3.52,3.52,0,0,1-3.51,3.51h0A3.52,3.52,0,0,1,81.24,487.7Z"/><path class="cls-5" d="M84.49,464.41l16.94-16.94a2.11,2.11,0,0,1,3,0h0a2.11,2.11,0,0,1,0,3L87.47,467.39a2.11,2.11,0,0,1-3,0h0A2.11,2.11,0,0,1,84.49,464.41Z"/><path class="cls-5" d="M84.49,450.45l16.94,16.94a2.11,2.11,0,0,0,3,0h0a2.11,2.11,0,0,0,0-3L87.47,447.47a2.11,2.11,0,0,0-3,0h0A2.11,2.11,0,0,0,84.49,450.45Z"/><path class="cls-5" d="M84.49,392.85l16.94-16.94a2.11,2.11,0,0,1,3,0h0a2.1,2.1,0,0,1,0,3L87.47,395.83a2.13,2.13,0,0,1-3,0h0A2.1,2.1,0,0,1,84.49,392.85Z"/><path class="cls-5" d="M84.49,378.88l16.94,16.95a2.12,2.12,0,0,0,3,0h0a2.1,2.1,0,0,0,0-3L87.47,375.91a2.11,2.11,0,0,0-3,0h0A2.1,2.1,0,0,0,84.49,378.88Z"/><path class="cls-5" d="M84.49,321.28l16.94-16.94a2.11,2.11,0,0,1,3,0h0a2.11,2.11,0,0,1,0,3L87.47,324.26a2.11,2.11,0,0,1-3,0h0A2.11,2.11,0,0,1,84.49,321.28Z"/><path class="cls-5" d="M84.49,307.32l16.94,16.94a2.11,2.11,0,0,0,3,0h0a2.11,2.11,0,0,0,0-3L87.47,304.34a2.11,2.11,0,0,0-3,0h0A2.11,2.11,0,0,0,84.49,307.32Z"/><path class="cls-5" d="M84.49,249.72l16.94-16.95a2.12,2.12,0,0,1,3,0h0a2.1,2.1,0,0,1,0,3L87.47,252.69a2.11,2.11,0,0,1-3,0h0A2.1,2.1,0,0,1,84.49,249.72Z"/><path class="cls-5" d="M84.49,235.75l16.94,16.94a2.11,2.11,0,0,0,3,0h0a2.1,2.1,0,0,0,0-3L87.47,232.77a2.13,2.13,0,0,0-3,0h0A2.1,2.1,0,0,0,84.49,235.75Z"/><path class="cls-5" d="M88.29,180.3l-.82.83a2.11,2.11,0,0,1-3,0h0a2.13,2.13,0,0,1-.51-.83Z"/><path class="cls-5" d="M100.6,180.3l.83.83a2.11,2.11,0,0,0,3,0h0a2,2,0,0,0,.5-.83Z"/><path class="cls-4" d="M510.73,235.21h0a8.63,8.63,0,0,1,0,12.19l-24.38,24.38a8.63,8.63,0,0,1-12.19,0h0a8.63,8.63,0,0,1,0-12.19l24.38-24.38A8.63,8.63,0,0,1,510.73,235.21Z"/><path class="cls-6" d="M500.68,257.45l0,0-2.14,2.13a8.64,8.64,0,0,0,0-12.2h0a8.64,8.64,0,0,0-12.14,0l2.09-2.09a8.65,8.65,0,0,1,12.19,0h0A8.65,8.65,0,0,1,500.68,257.45Z"/><path class="cls-6" d="M477.34,272.72a4.45,4.45,0,1,0-4.46-4.45A4.46,4.46,0,0,0,477.34,272.72Z"/><path class="cls-4" d="M506.73,218.29h0a8.64,8.64,0,0,1,0,12.19l-24.38,24.38a8.63,8.63,0,0,1-12.19,0h0a8.63,8.63,0,0,1,0-12.19l24.38-24.38A8.65,8.65,0,0,1,506.73,218.29Z"/><path class="cls-6" d="M496.68,240.54l0,0-2.14,2.13a8.63,8.63,0,0,0,0-12.19h0a8.63,8.63,0,0,0-12.14,0l2.08-2.09a8.66,8.66,0,0,1,12.2,0h0A8.66,8.66,0,0,1,496.68,240.54Z"/><path class="cls-6" d="M473.34,255.81a4.46,4.46,0,1,0-4.46-4.46A4.46,4.46,0,0,0,473.34,255.81Z"/><path class="cls-7" d="M533.09,320.5h10.36a9.66,9.66,0,0,1,8.9-6h8.15a9.66,9.66,0,0,1,9.63,9.62v.19a9.67,9.67,0,0,1-8.1,9.51,15.9,15.9,0,0,1,.18,2.41v.3a15.81,15.81,0,0,1-15.77,15.77H533.09a15.81,15.81,0,0,1-15.77-15.77v-.3A15.81,15.81,0,0,1,533.09,320.5Z"/><path class="cls-8" d="M513.91,363.42v12.3a12.33,12.33,0,0,1-12.3,12.3h-12.3v-12.3a12.34,12.34,0,0,1,12.3-12.3Z"/><path class="cls-1" d="M502.17,374.59v5.1a5.11,5.11,0,0,1-5.1,5.1H492v-5.1a5.11,5.11,0,0,1,5.1-5.1Z"/><rect class="cls-9" x="426.35" y="282.2" width="19.46" height="3.77" rx="1.89"/><path class="cls-6" d="M248.22,377.62a14.7,14.7,0,1,1,0,20.79A14.7,14.7,0,0,1,248.22,377.62Z"/><path class="cls-6" d="M218.43,402.61l22-22a18,18,0,0,1,25.41,0h0a18,18,0,0,1,0,25.4l-22,22Z"/><path class="cls-5" d="M218.43,402.61l22-22a18,18,0,0,1,19.08-4.08L225.93,410.1Z"/><circle class="cls-3" cx="231.23" cy="415.4" r="18.09"/><path class="cls-10" d="M218.23,407.6a14.7,14.7,0,1,1,0,20.79A14.7,14.7,0,0,1,218.23,407.6Z"/><path class="cls-8" d="M226.31,394.73l6.41-6.41a18,18,0,0,1,25.41,0h0a18,18,0,0,1,0,25.4l-6.41,6.41a18,18,0,0,0,0-25.4h0A18,18,0,0,0,226.31,394.73Z"/><path class="cls-7" d="M251.8,384.24a17.91,17.91,0,0,1,6.33,4.08h0a18,18,0,0,1,0,25.4l-6.41,6.41a18,18,0,0,0,0-25.4h0a17.91,17.91,0,0,0-6.33-4.08Z"/><path class="cls-4" d="M220,411.06a11.15,11.15,0,1,1,0,15.77A11.16,11.16,0,0,1,220,411.06Z"/><path class="cls-4" d="M232.91,414.42h0a7.71,7.71,0,0,1,0,10.87l-10.27,10.27a7.71,7.71,0,0,1-10.87,0h0a7.7,7.7,0,0,1,0-10.86L222,414.42A7.71,7.71,0,0,1,232.91,414.42Z"/><path class="cls-6" d="M391.25,50a21.57,21.57,0,1,1,0,30.5A21.56,21.56,0,0,1,391.25,50Z"/><path class="cls-5" d="M347.54,86.7l32.25-32.25a26.44,26.44,0,0,1,37.28,0h0a26.44,26.44,0,0,1,0,37.28L384.82,124Z"/><path class="cls-5" d="M347.54,86.7l32.25-32.25a26.47,26.47,0,0,1,28-6L358.55,97.7Z"/><path class="cls-5" d="M347.54,86.7a26.55,26.55,0,1,1,0,37.55A26.55,26.55,0,0,1,347.54,86.7Z"/><path class="cls-10" d="M347.25,94a21.57,21.57,0,1,1,0,30.51A21.58,21.58,0,0,1,347.25,94Z"/><path class="cls-8" d="M359.1,75.14l9.41-9.4a26.44,26.44,0,0,1,37.28,0h0a26.43,26.43,0,0,1,0,37.27l-9.41,9.41a26.44,26.44,0,0,0,0-37.28h0A26.44,26.44,0,0,0,359.1,75.14Z"/><path class="cls-7" d="M396.5,59.75a26,26,0,0,1,9.29,6h0a26.43,26.43,0,0,1,0,37.27l-9.41,9.41a26.44,26.44,0,0,0,0-37.28h0a26.14,26.14,0,0,0-9.28-6Z"/><circle class="cls-11" cx="361.4" cy="110.68" r="16.36"/><path class="cls-6" d="M368.78,104h0a11.3,11.3,0,0,1,0,15.95l-15.07,15.07a11.32,11.32,0,0,1-15.95,0h0a11.32,11.32,0,0,1,0-16L352.84,104A11.29,11.29,0,0,1,368.78,104Z"/><path class="cls-5" d="M214.75,79.55l14.73,14.73A4.92,4.92,0,0,1,231,97.87v20.07a4.9,4.9,0,0,1-1.49,3.59l-49.22,49.22a4.9,4.9,0,0,1-3.59,1.49H156.6a4.92,4.92,0,0,1-3.59-1.49L138.28,156a4.9,4.9,0,0,1-1.49-3.59V132.36a4.9,4.9,0,0,1,1.49-3.59L187.5,79.55a4.9,4.9,0,0,1,3.59-1.49h20.06A4.92,4.92,0,0,1,214.75,79.55Z"/><path class="cls-5" d="M214.75,79.55l14.73,14.73A4.92,4.92,0,0,1,231,97.87v20.07a4.9,4.9,0,0,1-1.49,3.59l-8,8H137.65a5.45,5.45,0,0,1,.63-.75L187.5,79.55a4.9,4.9,0,0,1,3.59-1.49h20.06A4.92,4.92,0,0,1,214.75,79.55Z"/><path class="cls-6" d="M220.57,79.55,235.3,94.28a4.92,4.92,0,0,1,1.49,3.59v20.07a4.9,4.9,0,0,1-1.49,3.59l-49.22,49.22a4.9,4.9,0,0,1-3.59,1.49H162.42a4.92,4.92,0,0,1-3.59-1.49L144.1,156a4.9,4.9,0,0,1-1.49-3.59V132.36a4.9,4.9,0,0,1,1.49-3.59l49.22-49.22a4.9,4.9,0,0,1,3.59-1.49H217A4.92,4.92,0,0,1,220.57,79.55Z"/><path class="cls-4" d="M197.75,85.72h16.64a2.87,2.87,0,0,1,2.87,2.86h0a2.88,2.88,0,0,1-2.87,2.87H197.75a2.88,2.88,0,0,1-2.87-2.87h0A2.87,2.87,0,0,1,197.75,85.72Z"/><path class="cls-7" d="M197.75,85.72h10.86a2.87,2.87,0,0,1,2.86,2.86h0a2.87,2.87,0,0,1-2.86,2.87H197.75a2.88,2.88,0,0,1-2.87-2.87h0A2.87,2.87,0,0,1,197.75,85.72Z"/><path class="cls-4" d="M299.58,50.84H347.1A17.81,17.81,0,0,1,364.86,68.6h0A17.81,17.81,0,0,1,347.1,86.35H299.58A17.81,17.81,0,0,1,281.82,68.6h0A17.81,17.81,0,0,1,299.58,50.84Z"/><path class="cls-5" d="M299.58,50.84H347.1a17.83,17.83,0,0,1,17.45,14.44,17.64,17.64,0,0,1-8.43,2.13H308.6A17.82,17.82,0,0,1,291.16,53,17.52,17.52,0,0,1,299.58,50.84Z"/><path class="cls-1" d="M208.79,122.36c-.83,3.56,8.83,7.14,5.88,9.69l-88.95,77.12h7.2v13.25H112.83v-.22a20.29,20.29,0,0,1-11.36-5.71h0a20.41,20.41,0,0,1,0-28.77l84.44-84.43a20.18,20.18,0,0,1,12.53-5.85h0a20.67,20.67,0,0,1,3.69,0h15.62v24.92Z"/><rect class="cls-12" x="248.99" y="45.81" width="88.3" height="29.18" rx="14.59"/><rect class="cls-3" x="228.96" y="45.81" width="88.3" height="29.18" rx="14.59"/><path class="cls-5" d="M243.55,45.81h59.12A14.64,14.64,0,0,1,316.85,57H229.37A14.66,14.66,0,0,1,243.55,45.81Z"/><path class="cls-5" d="M243.24,45h12.58A15.41,15.41,0,0,1,271.18,60.4h0a15.41,15.41,0,0,1-15.36,15.37H243.24A15.42,15.42,0,0,1,227.87,60.4h0A15.42,15.42,0,0,1,243.24,45Z"/><path class="cls-6" d="M243.55,48.23a12.17,12.17,0,0,0,0,24.34H255.5a12.17,12.17,0,1,0,0-24.34Z"/><path class="cls-5" d="M226.44,49h28.1A11.41,11.41,0,0,1,265.92,60.4h0a11.41,11.41,0,0,1-11.38,11.38h-28.1A11.42,11.42,0,0,1,215.05,60.4h0A11.42,11.42,0,0,1,226.44,49Z"/><path class="cls-5" d="M226.44,49h28.1A11.41,11.41,0,0,1,265.39,57H215.58A11.44,11.44,0,0,1,226.44,49Z"/><rect class="cls-3" x="214.52" y="48.64" width="33.33" height="23.53" rx="11.76"/><rect class="cls-11" x="175.48" y="51.76" width="66.98" height="17.27" rx="8.64"/><path class="cls-6" d="M184.12,51.76h49.7a8.66,8.66,0,0,1,8.54,7.37H175.58A8.66,8.66,0,0,1,184.12,51.76Z"/><path class="cls-5" d="M156.28,48.76h37.54A11.68,11.68,0,0,1,205.46,60.4h0A11.68,11.68,0,0,1,193.82,72H156.28A11.67,11.67,0,0,1,144.65,60.4h0A11.67,11.67,0,0,1,156.28,48.76Z"/><rect class="cls-3" x="143.22" y="51.69" width="34.26" height="17.41" rx="8.71"/><rect class="cls-3" x="145.8" y="55.47" width="27.54" height="9.86" rx="4.93"/><rect class="cls-11" x="151.79" y="55.47" width="21.54" height="9.85" rx="4.93"/><path class="cls-5" d="M183.49,54.77h12.42A2.07,2.07,0,0,1,198,56.84h0a2.07,2.07,0,0,1-2.07,2.07H183.49a2.07,2.07,0,0,1-2.07-2.07h0A2.07,2.07,0,0,1,183.49,54.77Z"/><path class="cls-5" d="M183.49,61.41h12.42A2.07,2.07,0,0,1,198,63.48h0a2.07,2.07,0,0,1-2.07,2.07H183.49a2.07,2.07,0,0,1-2.07-2.07h0A2.07,2.07,0,0,1,183.49,61.41Z"/><path class="cls-4" d="M183.49,54.77h8.93a2.07,2.07,0,0,1,2.06,2.07h0a2.07,2.07,0,0,1-2.06,2.07h-8.93a2.07,2.07,0,0,1-2.07-2.07h0A2.07,2.07,0,0,1,183.49,54.77Z"/><path class="cls-4" d="M183.49,61.41h8.93a2.07,2.07,0,0,1,2.06,2.07h0a2.07,2.07,0,0,1-2.06,2.07h-8.93a2.07,2.07,0,0,1-2.07-2.07h0A2.07,2.07,0,0,1,183.49,61.41Z"/><path class="cls-6" d="M390.3.45h0a1.55,1.55,0,0,1,0,2.18L305.52,87.41a1.55,1.55,0,0,1-2.18,0h0a1.55,1.55,0,0,1,0-2.18L388.12.45A1.55,1.55,0,0,1,390.3.45Z"/><path class="cls-6" d="M369.53,39.15h0a3.05,3.05,0,0,1,0,4.3l-44,44a3,3,0,0,1-4.31,0h0a3.05,3.05,0,0,1,0-4.3l44-44A3,3,0,0,1,369.53,39.15Z"/><path class="cls-4" d="M436.51,490.86a7.25,7.25,0,0,0,1.91-14.24h0l-34.29-10.4h0a12.6,12.6,0,1,0-3.69,24.65h36.07Z"/><path class="cls-4" d="M200.24,485.27A7.25,7.25,0,0,0,202.15,471h0l-34.29-10.41h0a12.75,12.75,0,0,0-3.68-.55,12.6,12.6,0,0,0,0,25.2h36.06Z"/><path class="cls-6" d="M475.87,377.62a14.7,14.7,0,1,1,0,20.79A14.7,14.7,0,0,1,475.87,377.62Z"/><path class="cls-6" d="M446.09,402.61l22-22a18,18,0,0,1,25.4,0h0a18,18,0,0,1,0,25.4l-22,22Z"/><path class="cls-5" d="M446.09,402.61l22-22a18,18,0,0,1,19.07-4.08L453.58,410.1Z"/><path class="cls-5" d="M446.09,402.61a18.09,18.09,0,1,1,0,25.58A18.08,18.08,0,0,1,446.09,402.61Z"/><path class="cls-10" d="M445.89,407.6a14.7,14.7,0,1,1,0,20.79A14.7,14.7,0,0,1,445.89,407.6Z"/><path class="cls-8" d="M454,394.73l6.41-6.41a18,18,0,0,1,25.41,0h0a18,18,0,0,1,0,25.4l-6.41,6.41a18,18,0,0,0,0-25.4h0A18,18,0,0,0,454,394.73Z"/><path class="cls-7" d="M479.45,384.24a17.82,17.82,0,0,1,6.33,4.08h0a18,18,0,0,1,0,25.4l-6.41,6.41a18,18,0,0,0,0-25.4h0a17.82,17.82,0,0,0-6.33-4.08Z"/><circle class="cls-11" cx="455.53" cy="418.95" r="11.15"/><path class="cls-4" d="M460.56,414.42h0a7.71,7.71,0,0,1,0,10.87l-10.27,10.27a7.71,7.71,0,0,1-10.87,0h0a7.7,7.7,0,0,1,0-10.86l10.27-10.28A7.71,7.71,0,0,1,460.56,414.42Z"/><path class="cls-5" d="M551.69,117.6h0a10.06,10.06,0,0,1,0,14.2L538.45,145a10.06,10.06,0,0,1-14.2,0h0a10.06,10.06,0,0,1,0-14.2l13.24-13.24A10.06,10.06,0,0,1,551.69,117.6Z"/><path class="cls-6" d="M538.12,129.9h0a14.83,14.83,0,0,1,0,20.91l-19.5,19.5a14.84,14.84,0,0,1-20.92,0h0a14.84,14.84,0,0,1,0-20.92l19.5-19.49A14.82,14.82,0,0,1,538.12,129.9Z"/><path class="cls-5" d="M211.27,122.36c-.84,3.56,8.82,7.14,5.88,9.69l-89,77.12h7.21v13.25H115.31v-.22A20.26,20.26,0,0,1,104,216.49h0a20.41,20.41,0,0,1,0-28.77l84.43-84.43a20.23,20.23,0,0,1,12.54-5.85h0a20.67,20.67,0,0,1,3.69,0h15.61v24.92Z"/><path class="cls-5" d="M211.27,122.36c-.84,3.56,8.82,7.14,5.88,9.69l-81.28,70.46H98A20.32,20.32,0,0,1,104,187.72l84.43-84.43a20.21,20.21,0,0,1,12.54-5.85h0a20.67,20.67,0,0,1,3.69,0h15.61v24.92Z"/><path class="cls-5" d="M234.21,103.29h0a20.4,20.4,0,0,1,0,28.76l-84.44,84.44a20.39,20.39,0,0,1-28.76,0h0a20.41,20.41,0,0,1,0-28.77l84.43-84.43A20.39,20.39,0,0,1,234.21,103.29Z"/><path class="cls-6" d="M117.93,242.16l74.57-74.57a5.87,5.87,0,0,1,8.28,0l25.86,25.86a5.87,5.87,0,0,1,0,8.28l-48.71,48.71a5.65,5.65,0,0,1-4.14,1.71H122.06a5.85,5.85,0,0,1-4.13-10Z"/><path class="cls-4" d="M137,242.16l74.57-74.57a5.87,5.87,0,0,1,8.28,0l25.86,25.86a5.87,5.87,0,0,1,0,8.28L197,250.44a5.65,5.65,0,0,1-4.14,1.71H141.17a5.85,5.85,0,0,1-4.14-10Z"/><path class="cls-4" d="M242.43,102.47h0a20.39,20.39,0,0,1,0,28.76L161.2,212.45v9.14h-18a20.31,20.31,0,0,1-14-5.92h0a20.39,20.39,0,0,1,0-28.76l84.43-84.43A20.41,20.41,0,0,1,242.43,102.47Z"/><path class="cls-4" d="M116.68,242l-.06.06-4.11,4.1L88.68,270a9.9,9.9,0,0,1-14,0h0a9.91,9.91,0,0,1,0-14l23.83-23.83h0l4.1-4.11,14-14,0,0,9.8-9.8,18.15-18.14a9.91,9.91,0,0,1,14,0h0a9.91,9.91,0,0,1,0,14l-18.08,18.09-.06.06-9.8,9.8Z"/><path class="cls-6" d="M73.9,269A9.91,9.91,0,0,1,74.7,256l23.83-23.83h0l4.1-4.11,3.72-3.72.13-.12,23.83-23.83h0l4.11-4.11,10.2-10.19.07-.07,3.74-3.75,0,0,9.8-9.8,18.14-18.14a9.85,9.85,0,0,1,5.34-2.75,9.94,9.94,0,0,1-.81,13.07l-18.09,18.08,0,.06-9.81,9.8-3.66,3.66-.18.19-18.08,18.08-.06.06-9.8,9.8-14,14-.06.06-4.1,4.11L79.23,266.3A9.84,9.84,0,0,1,73.9,269Z"/><path class="cls-6" d="M84.45,258.91h0a14.76,14.76,0,0,1,0,20.81l-41.6,41.6a14.76,14.76,0,0,1-20.81,0h0a14.76,14.76,0,0,1,0-20.81l41.6-41.6A14.76,14.76,0,0,1,84.45,258.91Z"/><path class="cls-5" d="M67.58,277.78h0a5.15,5.15,0,0,1,0,7.27L55.19,297.44a5.15,5.15,0,0,1-7.28,0h0a5.15,5.15,0,0,1,0-7.27L60.3,277.78A5.17,5.17,0,0,1,67.58,277.78Z"/><path class="cls-4" d="M64.92,287.71h0l-9.72,9.72a5.16,5.16,0,0,1-7.28,0h0a5.16,5.16,0,0,1,0-7.27l9.73-9.72a5.15,5.15,0,0,1,7.27,0h0A5.15,5.15,0,0,1,64.92,287.71Z"/><path class="cls-5" d="M31.68,325A13.69,13.69,0,1,0,18,311.3,13.71,13.71,0,0,0,31.68,325Z"/><path class="cls-4" d="M75.69,267.67h0a14.76,14.76,0,0,1,0,20.81l-2.83,2.83a14.74,14.74,0,0,0,0-20.81h0a14.75,14.75,0,0,0-20.8,0l2.82-2.83A14.76,14.76,0,0,1,75.69,267.67Z"/><path class="cls-5" d="M260,103.29h0a20.39,20.39,0,0,1,0,28.76L175.6,216.49a20.55,20.55,0,0,1-4,3.12v2.8h-11a20.26,20.26,0,0,1-13.76-5.92h0a20.41,20.41,0,0,1,0-28.77l84.43-84.43A20.39,20.39,0,0,1,260,103.29Z"/><path class="cls-5" d="M260,103.29h0a20.39,20.39,0,0,1,0,28.76l-70.46,70.46H140.91a20.28,20.28,0,0,1,5.93-14.79l84.43-84.43A20.39,20.39,0,0,1,260,103.29Z"/><path class="cls-6" d="M268.62,103.29h0a20.39,20.39,0,0,1,0,28.76l-84.43,84.44a20.41,20.41,0,0,1-28.77,0h0a20.41,20.41,0,0,1,0-28.77l84.44-84.43A20.39,20.39,0,0,1,268.62,103.29Z"/><path class="cls-6" d="M267.24,104.67a18.45,18.45,0,0,0-26,0L156.8,189.1a18.39,18.39,0,1,0,26,26l84.43-84.43A18.45,18.45,0,0,0,267.24,104.67Z"/><path class="cls-4" d="M195.36,150.54,156.8,189.1a18,18,0,0,0-1.24,1.38h51.88l39.94-39.94Z"/><rect class="cls-3" x="156.91" y="110.72" width="58.78" height="58.31" rx="29.15"/><path class="cls-5" d="M186.06,110.72h.48a29.23,29.23,0,0,1,29.15,29.15h0a30,30,0,0,1-.34,4.47H157.26a28.68,28.68,0,0,1-.35-4.47h0A29.24,29.24,0,0,1,186.06,110.72Z"/><rect class="cls-3" x="165.98" y="110.72" width="58.78" height="58.31" rx="29.15"/><rect class="cls-3" x="172.45" y="103.76" width="72.81" height="72.22" rx="36.11"/><path class="cls-5" d="M208.56,103.76h.59a36,36,0,0,1,26.24,11.37v29.21H172.73a36.74,36.74,0,0,1-.28-4.47h0A36.22,36.22,0,0,1,208.56,103.76Z"/><rect class="cls-12" x="181.94" y="103.76" width="72.81" height="72.22" rx="36.11"/><path class="cls-4" d="M243.55,188.91h0a5.41,5.41,0,0,1,0,7.63L227.06,213a5.4,5.4,0,0,1-7.62,0h0a5.43,5.43,0,0,1,0-7.63l16.49-16.49A5.41,5.41,0,0,1,243.55,188.91Z"/><path class="cls-5" d="M230.94,202.76h0a9.57,9.57,0,0,1,0,13.49l-10.63,10.63a9.57,9.57,0,0,1-13.49,0h0a9.57,9.57,0,0,1,0-13.49l10.63-10.63A9.57,9.57,0,0,1,230.94,202.76Z"/><path class="cls-5" d="M230.94,202.76h0a9.37,9.37,0,0,1,1.24,1.52,12.8,12.8,0,0,1-3.33,5.85L214.6,224.37a12.61,12.61,0,0,1-6.61,3.5,9.89,9.89,0,0,1-1.17-1h0a9.57,9.57,0,0,1,0-13.49l10.63-10.63A9.57,9.57,0,0,1,230.94,202.76Z"/><path class="cls-5" d="M224.27,200h0a9.52,9.52,0,0,1,2.75.44,9,9,0,0,0-6.28,2.65L210.16,213.7a9.14,9.14,0,0,0,0,12.87l.09.08c-.33.1-.65.18-1,.25a10,10,0,0,1,.27-13.82l10.63-10.63A9.81,9.81,0,0,1,224.27,200Z"/><path class="cls-5" d="M227.56,242.69h0a20.17,20.17,0,0,0,28.42,0l31.36-31.36a20.17,20.17,0,0,0,0-28.42h0a20.17,20.17,0,0,0-28.42,0l-31.36,31.36A20.17,20.17,0,0,0,227.56,242.69Z"/><path class="cls-6" d="M292.47,202.51a20.16,20.16,0,0,0-5.13-19.6h0a20.17,20.17,0,0,0-28.42,0l-19.6,19.6Z"/><path class="cls-6" d="M238.22,242.69h0a20.17,20.17,0,0,0,28.42,0L298,211.33a20.15,20.15,0,0,0,0-28.42h0a20.17,20.17,0,0,0-28.42,0l-31.35,31.36A20.15,20.15,0,0,0,238.22,242.69Z"/><path class="cls-6" d="M288.15,221.17l9.84-9.84a20.15,20.15,0,0,0,0-28.42h0a20.17,20.17,0,0,0-28.42,0L250,202.51Z"/><rect class="cls-3" x="273.6" y="188.45" width="8.74" height="5.53" rx="2.76"/><rect class="cls-12" x="225.24" y="188.45" width="8.74" height="5.53" rx="2.76"/><path class="cls-6" d="M289.63,188.91h0a5.41,5.41,0,0,1,0,7.63L273.14,213a5.41,5.41,0,0,1-7.63,0h0a5.41,5.41,0,0,1,0-7.63L282,188.91A5.41,5.41,0,0,1,289.63,188.91Z"/><path class="cls-5" d="M277,202.76h0a9.57,9.57,0,0,1,0,13.49l-10.63,10.63a9.57,9.57,0,0,1-13.49,0h0a9.57,9.57,0,0,1,0-13.49l10.63-10.63A9.57,9.57,0,0,1,277,202.76Z"/><path class="cls-5" d="M277,202.76h0a8.82,8.82,0,0,1,.76.86,11.92,11.92,0,0,1-3.36,6.72l-13.33,13.33a11.91,11.91,0,0,1-7.91,3.48l-.28-.27h0a9.57,9.57,0,0,1,0-13.49l10.63-10.63A9.57,9.57,0,0,1,277,202.76Z"/><path class="cls-5" d="M256.09,226.65c-.32.1-.65.18-1,.25a10,10,0,0,1,.27-13.82L266,202.45a9.78,9.78,0,0,1,4.11-2.47,9.51,9.51,0,0,1,3,.44h-.09a9.07,9.07,0,0,0-6.43,2.66L256,213.7a9.14,9.14,0,0,0,0,12.87Z"/><rect class="cls-11" x="228.77" y="185.82" width="17.05" height="10.79" rx="5.39"/><rect class="cls-12" x="277.69" y="185.82" width="17.05" height="10.79" rx="5.39"/><rect class="cls-3" x="288.96" y="188.45" width="8.74" height="5.53" rx="2.76"/><rect class="cls-12" x="239.42" y="188.45" width="8.74" height="5.53" rx="2.76"/><path class="cls-4" d="M177.81,401.29h0a12.42,12.42,0,0,1,9.65,14.62L172.9,487.17a12.42,12.42,0,0,1-14.62,9.65h0a12.42,12.42,0,0,1-9.66-14.61L163.19,411A12.42,12.42,0,0,1,177.81,401.29Z"/><path class="cls-4" d="M153.72,494.87a12.42,12.42,0,0,1-5.1-12.66L163.19,411A12.44,12.44,0,0,1,175.13,401a12.45,12.45,0,0,1,5.09,12.67L165.66,485A12.45,12.45,0,0,1,153.72,494.87Z"/><path class="cls-4" d="M404.58,407.59h0a12.43,12.43,0,0,1,9.66,14.62l-14.57,71.26a12.42,12.42,0,0,1-14.62,9.66h0a12.43,12.43,0,0,1-9.65-14.62L390,417.25A12.43,12.43,0,0,1,404.58,407.59Z"/><path class="cls-5" d="M226.51,308A20.21,20.21,0,0,1,233,327.17l-23.7,116a20.15,20.15,0,0,1-7.42,11.89v4.23H190.1c-.4,0-.81,0-1.21,0h0a20.63,20.63,0,0,1-3.38-.4h0a20.22,20.22,0,0,1-15.72-23.79l23.71-116A20.24,20.24,0,0,1,212.67,303h13.84Z"/><path class="cls-6" d="M229.34,303.38h0a20.22,20.22,0,0,1,15.72,23.79l-23.71,116a20.22,20.22,0,0,1-23.79,15.72h0a20.23,20.23,0,0,1-15.72-23.8l23.71-116A20.22,20.22,0,0,1,229.34,303.38Z"/><path class="cls-4" d="M226.85,315.58a7.77,7.77,0,0,0-9.1,6l-23.7,116a7.71,7.71,0,0,0,15.1,3.09l23.7-116A7.77,7.77,0,0,0,226.85,315.58Z"/><path class="cls-6" d="M229.34,303.38h0a20.22,20.22,0,0,1,15.72,23.79l-23.71,116a20.22,20.22,0,0,1-23.79,15.72h0a20.22,20.22,0,0,1-15.72-23.79l23.71-116a20.22,20.22,0,0,1,23.79-15.72Zm-1.16,5.69a14.43,14.43,0,0,0-16.94,11.19l-23.71,116A14.36,14.36,0,0,0,215.66,442l23.7-116A14.42,14.42,0,0,0,228.18,309.07Z"/><path class="cls-5" d="M225.52,349.36A24.33,24.33,0,1,0,201.18,325,24.38,24.38,0,0,0,225.52,349.36Z"/><path class="cls-4" d="M225.52,300.7a24.33,24.33,0,0,1,21.39,12.73,32.24,32.24,0,0,1-37.6,29.75,24.33,24.33,0,0,1,16.21-42.48Z"/><path class="cls-6" d="M231.44,341.27A16.24,16.24,0,1,0,215.2,325,16.27,16.27,0,0,0,231.44,341.27Z"/><rect class="cls-11" x="224" y="322.98" width="20.21" height="4.11" rx="2.05"/><ellipse class="cls-11" cx="318.59" cy="494.13" rx="248.54" ry="14.89"/><path class="cls-5" d="M340.17,330l62.09,62.09a21.57,21.57,0,0,0,30.41,0h0a21.57,21.57,0,0,0,0-30.41L370.58,299.6a21.57,21.57,0,0,0-30.41,0h0A21.55,21.55,0,0,0,340.17,330Z"/><rect class="cls-11" x="291.55" y="292.85" width="97.29" height="43.01" rx="21.5"/><path class="cls-5" d="M453.8,314.29a20.22,20.22,0,0,1,6.47,19.19l-23.71,116a20,20,0,0,1-7.42,11.88v4.23h-13a19.59,19.59,0,0,1-3.38-.4h0A20.22,20.22,0,0,1,397,441.39l23.71-116A20.24,20.24,0,0,1,440,309.28H453.8Z"/><path class="cls-4" d="M453.8,314.29a20.22,20.22,0,0,1,6.47,19.19l-3.93,19.18H415.18l5.57-27.26A20.25,20.25,0,0,1,440,309.28H453.8Z"/><path class="cls-6" d="M456.63,309.68h0a20.22,20.22,0,0,1,15.72,23.79l-23.71,116a20.22,20.22,0,0,1-23.79,15.72h0a20.22,20.22,0,0,1-15.72-23.79l23.71-116A20.22,20.22,0,0,1,456.63,309.68Z"/><path class="cls-4" d="M454.14,321.89a7.77,7.77,0,0,0-9.1,6l-23.7,116a7.71,7.71,0,1,0,15.1,3.09l23.71-116A7.76,7.76,0,0,0,454.14,321.89Z"/><path class="cls-6" d="M456.63,309.68h0a20.23,20.23,0,0,1,15.72,23.8l-23.71,116a20.22,20.22,0,0,1-23.79,15.71h0a20.22,20.22,0,0,1-15.72-23.79l23.71-116a20.22,20.22,0,0,1,23.79-15.72Zm-1.16,5.69a14.44,14.44,0,0,0-16.94,11.19l-23.7,116A14.35,14.35,0,1,0,443,448.3l23.71-116A14.44,14.44,0,0,0,455.47,315.37Z"/><path class="cls-4" d="M438.79,407.59h0a12.42,12.42,0,0,1,9.66,14.62l-14.56,71.26a12.43,12.43,0,0,1-14.62,9.66h0a12.43,12.43,0,0,1-9.66-14.62l14.57-71.26A12.42,12.42,0,0,1,438.79,407.59Z"/><path class="cls-5" d="M214.49,306.81a7.58,7.58,0,0,1,0,5.84v6.49h-5.7L190,337.89v16.85H171.08a7.53,7.53,0,0,1-6.41-2.12L148,336a7.53,7.53,0,0,1,0-10.63l29.24-29.25a19.25,19.25,0,0,1,13.36-5.63h23.88Z"/><path class="cls-6" d="M215.69,296.08l8.34,8.33A7.54,7.54,0,0,1,224,315l-37.58,37.58a7.54,7.54,0,0,1-10.64,0L159.15,336a7.53,7.53,0,0,1,0-10.63l29.25-29.25A19.34,19.34,0,0,1,215.69,296.08Z"/><path class="cls-5" d="M221.92,325.61l-4.67,4.67H200.16v24.46h-9.47a7.55,7.55,0,0,1-6.42-2.12L167.61,336a7.54,7.54,0,0,1,0-10.63l29.25-29.25a19.23,19.23,0,0,1,13.36-5.63h11.7Z"/><path class="cls-4" d="M235.3,296.08l8.33,8.33a7.54,7.54,0,0,1,0,10.63l-37.58,37.58a7.53,7.53,0,0,1-10.63,0L178.75,336a7.54,7.54,0,0,1,0-10.63L208,296.08A19.36,19.36,0,0,1,235.3,296.08Z"/><path class="cls-1" d="M213.63,279.38l-25.36,25.36v34.17H146.88v0a15.15,15.15,0,0,1-9.83-4.4l-15-15a15.22,15.22,0,0,1,0-21.47l63.31-63.31a15.14,15.14,0,0,1,10.36-4.43h41.38v49.09Z"/><path class="cls-5" d="M188.27,310.08v28.83H146.88v0a15.15,15.15,0,0,1-9.83-4.4l-15-15a15.09,15.09,0,0,1-4.38-9.42Z"/><path class="cls-1" d="M243.91,234.72l15,15a15.22,15.22,0,0,1,0,21.47l-63.31,63.32a15.23,15.23,0,0,1-21.47,0l-15-15a15.23,15.23,0,0,1,0-21.47l63.32-63.31A15.22,15.22,0,0,1,243.91,234.72Z"/><path class="cls-5" d="M179.71,338.91h-1.83v0a15.15,15.15,0,0,1-9.83-4.4l-15-15a15.22,15.22,0,0,1,0-21.47l63.31-63.31a15.15,15.15,0,0,1,10.35-4.43h1.83a15.13,15.13,0,0,0-10.35,4.43L154.89,298a15.23,15.23,0,0,0,0,21.47l15,15a15.12,15.12,0,0,0,9.83,4.4Z"/><path class="cls-5" d="M247.62,234.72l15,15a15.22,15.22,0,0,1,0,21.47l-63.31,63.32a15.23,15.23,0,0,1-21.47,0l-15-15a15.23,15.23,0,0,1,0-21.47l63.32-63.31A15.22,15.22,0,0,1,247.62,234.72Z"/><path class="cls-1" d="M137.05,290.45l8.17-8.17H161l-8.16,8.17Zm14-14,5.35-5.35h15.77l-5.34,5.35Zm8.23-8.23,33.54-33.54a15.15,15.15,0,0,1,10.36-4.43h15.78a15.15,15.15,0,0,0-10.36,4.43L175,268.26Z"/><path class="cls-5" d="M174,290.79h25.81V234.53H174a28.21,28.21,0,0,0-28.13,28.13h0A28.21,28.21,0,0,0,174,290.79Z"/><path class="cls-1" d="M199.76,253.05V234.53H174a28.24,28.24,0,0,0-26.43,18.52Z"/><path class="cls-5" d="M199.76,264v-1.15H145.82l0,1.15Z"/><path class="cls-5" d="M199.76,281.1h4.76a4.85,4.85,0,0,1,4.84,4.84h0a4.85,4.85,0,0,1-4.84,4.85H189.94a28.21,28.21,0,0,1-28.13-28.13h0a28.21,28.21,0,0,1,28.13-28.13h14.58a4.85,4.85,0,0,1,4.84,4.84h0a4.85,4.85,0,0,1-4.84,4.85H192.27a18.49,18.49,0,0,0-18.45,18.44h0a18.5,18.5,0,0,0,18.45,18.44Z"/><path class="cls-5" d="M161.85,264c0-.38,0-.77,0-1.15h12c0,.38,0,.77,0,1.15Z"/><rect class="cls-12" x="191.77" y="221.17" width="113.61" height="25.76" rx="12.88"/><rect class="cls-11" x="241.61" y="221.17" width="67.74" height="25.76" rx="12.88"/><rect class="cls-3" x="172.46" y="235.89" width="71.08" height="53.53" rx="26.76"/><path class="cls-5" d="M228.07,238.42a26.46,26.46,0,0,0-11.3-2.53H199.22a26.84,26.84,0,0,0-26.76,26.77h55.61Z"/><rect class="cls-11" x="192.53" y="235.89" width="71.08" height="53.53" rx="26.76"/><path class="cls-1" d="M230.55,290.79h25.81V234.53H230.55a28.21,28.21,0,0,0-28.13,28.13h0A28.21,28.21,0,0,0,230.55,290.79Z"/><path class="cls-1" d="M256.36,253.05V234.53H230.55a28.24,28.24,0,0,0-26.43,18.52Z"/><path class="cls-5" d="M202.42,262.88c0,.38,0,.77,0,1.15h28v-1.15Z"/><path class="cls-5" d="M256.36,281.1h4.76a4.86,4.86,0,0,1,4.85,4.84h0a4.86,4.86,0,0,1-4.85,4.85H246.55a28.21,28.21,0,0,1-28.13-28.13h0a28.2,28.2,0,0,1,28.13-28.13h14.57a4.86,4.86,0,0,1,4.85,4.84h0a4.86,4.86,0,0,1-4.85,4.85H248.87a18.49,18.49,0,0,0-18.44,18.44h0a18.5,18.5,0,0,0,18.44,18.44Z"/><path class="cls-5" d="M218.45,264c0-.38,0-.77,0-1.15h12V264Z"/><rect class="cls-11" x="230.07" y="244.22" width="71.08" height="36.88" rx="18.44"/><rect class="cls-3" x="242.68" y="244.22" width="58.46" height="36.88" rx="18.44"/><path class="cls-6" d="M354.39,330l62.09,62.09a21.57,21.57,0,0,0,30.41,0h0a21.57,21.57,0,0,0,0-30.41L384.8,299.6a21.57,21.57,0,0,0-30.41,0h0A21.57,21.57,0,0,0,354.39,330Z"/><path class="cls-4" d="M434.72,398.71a24.34,24.34,0,1,0-24.34-24.34A24.39,24.39,0,0,0,434.72,398.71Z"/><path class="cls-5" d="M434.72,350a24.33,24.33,0,0,1,21.39,12.73,32.23,32.23,0,0,1-37.59,29.75A24.33,24.33,0,0,1,434.72,350Z"/><path class="cls-5" d="M440.64,390.61a16.24,16.24,0,1,0-16.23-16.24A16.27,16.27,0,0,0,440.64,390.61Z"/><path class="cls-12" d="M435.26,372.32h16.1a2.05,2.05,0,0,1,2.05,2.05v0a2.06,2.06,0,0,1-2.06,2.06h-16.1a2.05,2.05,0,0,1-2.05-2.05v0A2.06,2.06,0,0,1,435.26,372.32Z"/><path class="cls-5" d="M320.84,306.81a7.58,7.58,0,0,1,0,5.84v6.49h-5.7l-18.76,18.75v16.85H277.43a7.52,7.52,0,0,1-6.41-2.12L254.35,336a7.54,7.54,0,0,1,0-10.63l29.25-29.25A19.23,19.23,0,0,1,297,290.45h23.88Z"/><path class="cls-6" d="M322,296.08l8.33,8.33a7.53,7.53,0,0,1,0,10.63l-37.58,37.58a7.53,7.53,0,0,1-10.63,0L265.5,336a7.53,7.53,0,0,1,0-10.63l29.24-29.25A19.36,19.36,0,0,1,322,296.08Z"/><path class="cls-5" d="M328.27,325.61l-4.67,4.67H306.51v24.46H297a7.53,7.53,0,0,1-6.41-2.12L274,336a7.53,7.53,0,0,1,0-10.63l29.25-29.25a19.23,19.23,0,0,1,13.36-5.63h11.7Z"/><path class="cls-4" d="M341.65,296.08l8.33,8.33A7.54,7.54,0,0,1,350,315L312.4,352.62a7.53,7.53,0,0,1-10.63,0L285.1,336a7.54,7.54,0,0,1,0-10.63l29.25-29.25A19.36,19.36,0,0,1,341.65,296.08Z"/><path class="cls-1" d="M321.14,279.38l-25.36,25.36v34.17H254.39v0a15.15,15.15,0,0,1-9.83-4.4l-15-15a15.22,15.22,0,0,1,0-21.47l63.31-63.31a15.15,15.15,0,0,1,10.36-4.43h41.38v49.09Z"/><path class="cls-5" d="M295.78,310.08v28.83H254.39v0a15.15,15.15,0,0,1-9.83-4.4l-15-15a15.08,15.08,0,0,1-4.37-9.42Z"/><path class="cls-5" d="M275.06,338.91h-1.63l-14.71-14.7a.86.86,0,0,0-.28-.2.84.84,0,0,0-.33-.06H247.48a.91.91,0,0,0-.49.14.84.84,0,0,0-.31.4.87.87,0,0,0-.06.5.88.88,0,0,0,.25.45l5.94,5.94,7.54,7.53h-1.64l-1.81-1.81-10.85-10.85a2.06,2.06,0,0,1-.56-1,2.15,2.15,0,0,1,.12-1.17,2,2,0,0,1,1.87-1.25h10.63a2,2,0,0,1,.77.15,2.18,2.18,0,0,1,.66.44Z"/><path class="cls-1" d="M351.42,234.72l15,15a15.23,15.23,0,0,1,0,21.47l-63.32,63.32a15.23,15.23,0,0,1-21.47,0l-15-15a15.23,15.23,0,0,1,0-21.47L330,234.72A15.22,15.22,0,0,1,351.42,234.72Z"/><path class="cls-5" d="M355.13,234.72l15,15a15.22,15.22,0,0,1,0,21.47L306.8,334.49a15.23,15.23,0,0,1-21.47,0l-15-15a15.23,15.23,0,0,1,0-21.47l63.32-63.31A15.22,15.22,0,0,1,355.13,234.72Z"/><path class="cls-5" d="M355.13,234.72l15,15a15.22,15.22,0,0,1,0,21.47l-13.95,14H283.24l50.42-50.41A15.22,15.22,0,0,1,355.13,234.72Z"/><polygon class="cls-5" points="359.46 239.05 360.27 239.86 314.19 285.94 314.19 318.9 318.29 323 317.48 323.81 313.04 319.38 313.04 285.46 359.46 239.05"/><path class="cls-1" d="M250.88,290.45l8.17-8.17h15.78l-8.17,8.17Zm14-14,5.35-5.35H286l-5.35,5.35Zm8.23-8.23,33.55-33.54A15.13,15.13,0,0,1,317,230.29h15.78a15.17,15.17,0,0,0-10.36,4.43l-33.54,33.54Z"/><path class="cls-5" d="M391.1,417.11h0a5.86,5.86,0,0,1,4.55,6.89l-6.87,33.6a5.86,5.86,0,0,1-6.89,4.55h0a5.86,5.86,0,0,1-4.55-6.89l6.87-33.6A5.86,5.86,0,0,1,391.1,417.11Z"/><path class="cls-4" d="M372.24,344.38a26.4,26.4,0,1,0-26.4-26.4A26.45,26.45,0,0,0,372.24,344.38Z"/><path class="cls-4" d="M372.24,291.59a26.39,26.39,0,0,1,23.21,13.81,35,35,0,0,1-34.91,32.77,35.62,35.62,0,0,1-5.88-.49,26.4,26.4,0,0,1,17.58-46.09Z"/><circle class="cls-12" cx="378.67" cy="317.98" r="17.62" transform="translate(-62.53 94.73) rotate(-13.18)"/><path class="cls-4" d="M373.81,322.58l12.35-12.35a2.25,2.25,0,0,1,3.16,0h0a2.25,2.25,0,0,1,0,3.16L377,325.74a2.24,2.24,0,0,1-3.16,0h0A2.24,2.24,0,0,1,373.81,322.58Z"/><path class="cls-5" d="M260.84,338.91H259v0a15.1,15.1,0,0,1-9.83-4.4l-15-15a15.23,15.23,0,0,1,0-21.47l63.31-63.31a15.17,15.17,0,0,1,10.36-4.43h1.83a15.15,15.15,0,0,0-10.36,4.43L236,298a15.22,15.22,0,0,0,0,21.47l15,15a15.15,15.15,0,0,0,9.83,4.4Z"/><path class="cls-4" d="M200.05,314h0a1.65,1.65,0,0,1,0,2.31L190.44,326a1.65,1.65,0,0,1-2.31,0h0a1.63,1.63,0,0,1,0-2.31l9.61-9.6A1.63,1.63,0,0,1,200.05,314Z"/><path class="cls-4" d="M203.64,317.62h0a1.63,1.63,0,0,1,0,2.31l-9.6,9.6a1.63,1.63,0,0,1-2.31,0h0a1.65,1.65,0,0,1,0-2.31l9.61-9.61A1.65,1.65,0,0,1,203.64,317.62Z"/><path class="cls-5" d="M209.14,296a7.89,7.89,0,1,1-5.58,2.31,7.86,7.86,0,0,1,5.58-2.31Zm4.76,3.12a6.74,6.74,0,1,0,2,4.77A6.74,6.74,0,0,0,213.9,299.15Z"/><path class="cls-5" d="M164.57,311.6a1.53,1.53,0,1,0-1.53-1.53A1.53,1.53,0,0,0,164.57,311.6Z"/><path class="cls-5" d="M188.27,336.15a1.53,1.53,0,1,0-1.53-1.53A1.53,1.53,0,0,0,188.27,336.15Z"/><path class="cls-5" d="M257.52,128.24l-.23.23-7.21,20.73L237.54,182H213.3A10.11,10.11,0,0,1,206,179l-22.4-22.4a10.15,10.15,0,0,1,0-14.3L222.9,103a26,26,0,0,1,19.6-7.54h24.89v32.81Z"/><path class="cls-5" d="M257.52,128.24l-.23.23-7.21,20.73-.18.46H180.63a10.11,10.11,0,0,1,3-7.36L222.9,103a26,26,0,0,1,19.6-7.54h24.89v32.81Z"/><path class="cls-8" d="M197.59,149.66h-11.3a10.06,10.06,0,0,1,1.4-5.35H199a10.16,10.16,0,0,0-1.4,5.35Zm-5.78-9.93,2.29-2.29h11.3l-2.28,2.29Zm6.72-6.72,30-30a25.91,25.91,0,0,1,19.59-7.54H257A25.88,25.88,0,0,0,239.87,103l-30,30Z"/><path class="cls-5" d="M284.49,103l11.2,11.21a10.13,10.13,0,0,1,0,14.29L245.16,179a10.13,10.13,0,0,1-14.29,0l-22.41-22.4a10.15,10.15,0,0,1,0-14.3L247.79,103A26,26,0,0,1,284.49,103Z"/><path class="cls-5" d="M274.86,86.29a5.34,5.34,0,0,1,0,4.15v4.61h-4.05l-13.33,13.33v12H244a5.32,5.32,0,0,1-4.56-1.5L227.61,107a5.36,5.36,0,0,1,0-7.56L248.4,78.66a13.68,13.68,0,0,1,9.49-4h17Z"/><path class="cls-5" d="M274.86,86.29a5.34,5.34,0,0,1,0,4.15v4.61h-4.05L264,101.89H226.22a5.32,5.32,0,0,1,1.39-2.44L248.4,78.66a13.69,13.69,0,0,1,9.49-4h17Z"/><path class="cls-6" d="M275.72,78.66l5.92,5.93a5.35,5.35,0,0,1,0,7.55l-26.71,26.71a5.36,5.36,0,0,1-7.56,0L235.53,107a5.36,5.36,0,0,1,0-7.56l20.79-20.79A13.77,13.77,0,0,1,275.72,78.66Z"/><path class="cls-5" d="M280.14,99.65,276.83,103H264.68v17.38h-6.74a5.31,5.31,0,0,1-4.55-1.5L241.55,107a5.36,5.36,0,0,1,0-7.56l20.78-20.79a13.65,13.65,0,0,1,9.5-4h8.31Z"/><path class="cls-5" d="M280.14,99.65l-2.23,2.24H240.16a5.24,5.24,0,0,1,1.39-2.44l20.78-20.79a13.7,13.7,0,0,1,9.5-4h8.31Z"/><path class="cls-6" d="M289.65,78.66l5.92,5.93a5.35,5.35,0,0,1,0,7.55l-26.7,26.71a5.36,5.36,0,0,1-7.56,0L249.47,107a5.36,5.36,0,0,1,0-7.56l20.78-20.79A13.77,13.77,0,0,1,289.65,78.66Z"/><path class="cls-5" d="M290.23,127.13l-.23.23-7,20L270.92,179H247.5a9.75,9.75,0,0,1-7.07-2.85l-21.65-21.65a9.8,9.8,0,0,1,0-13.82l38-38a25.06,25.06,0,0,1,18.94-7.29h24v31.7Z"/><path class="cls-6" d="M301.37,127.13l14.49.23-21.67,20L282.07,179H258.65a9.75,9.75,0,0,1-7.07-2.85l-21.65-21.65a9.78,9.78,0,0,1,0-13.82l38-38a25,25,0,0,1,18.94-7.29h38.75v31.7Z"/><path class="cls-5" d="M200.86,169.64l-4.9-4.9,0,0L190,158.8a1.44,1.44,0,0,1,1-2.47h10.62a1.43,1.43,0,0,1,1,.42l5.89,5.89v0h0l4.9,4.91,0,0,5.93,5.92a1.45,1.45,0,0,1-1,2.47H207.83a1.39,1.39,0,0,1-1-.42l-5.89-5.9h0l0,0Z"/><path class="cls-4" d="M192.58,156.33h9.08a1.43,1.43,0,0,1,1,.42l5.89,5.89v0h0l4.9,4.91,0,0,5.34,5.34h-9.08a1.39,1.39,0,0,1-1-.42l-5.89-5.89,0,0h0l0,0-4.9-4.9,0,0Z"/><path class="cls-5" d="M205.69,169.5h9.74l2.28,2.28h-12a1.15,1.15,0,0,1-1.14-1.15h0a1.14,1.14,0,0,1,1.14-1.14Zm-11.88-11.89h9.73l2.28,2.28h-12a1.15,1.15,0,0,1-1.15-1.14h0a1.16,1.16,0,0,1,1.15-1.15Zm4,4h9.74l2.28,2.27h-12a1.15,1.15,0,0,1-1.15-1.14h0a1.15,1.15,0,0,1,1.15-1.14Zm4,4h9.74l2.28,2.28h-12a1.14,1.14,0,0,1-1.14-1.14h0A1.14,1.14,0,0,1,201.73,165.54Z"/><rect class="cls-3" x="199.07" y="150.54" width="127.24" height="39.94" rx="19.97"/><path class="cls-5" d="M293.49,150.54H219a20,20,0,0,0-20,20h0c0,.45,0,.9.05,1.34h94.37Z"/><rect class="cls-11" x="247.89" y="150.54" width="106.43" height="39.94" rx="19.97"/><path class="cls-5" d="M318.43,80.46l-.18.18-16.19,16.2v25.59H273.32a7.9,7.9,0,0,1-5.72-2.31l-17.5-17.5a7.91,7.91,0,0,1,0-11.17l30.72-30.73a20.25,20.25,0,0,1,15.32-5.89h30V80.46Z"/><path class="cls-5" d="M318.43,80.46l-.18.18-11.49,11.5H249.48a6.66,6.66,0,0,1,.62-.69l30.72-30.73a20.25,20.25,0,0,1,15.32-5.89h30V80.46Z"/><path class="cls-4" d="M294.36,122.43h0Zm-.2,0a7.84,7.84,0,0,1-5.52-2.31l-17.51-17.5a7.92,7.92,0,0,1,0-11.17l30.73-30.73a20.17,20.17,0,0,1,13.39-5.89h-1.32a20.16,20.16,0,0,0-13.4,5.89L269.8,91.45a7.92,7.92,0,0,0,0,11.17l17.51,17.5a7.86,7.86,0,0,0,5.52,2.31h1.33Z"/><path class="cls-4" d="M303.47,95.43l-1.41,1.41v25.59H273.32a7.9,7.9,0,0,1-5.72-2.31l-17.5-17.5A7.89,7.89,0,0,1,248,95.43Z"/><path class="cls-5" d="M217.73,150.54h34.12a2.48,2.48,0,0,0,2.47-2.48V131.65a2.48,2.48,0,0,0-2.47-2.48H225.94a2.39,2.39,0,0,0-1.76.73l-8.2,8.2a2.38,2.38,0,0,0-.73,1.75v8.21A2.48,2.48,0,0,0,217.73,150.54Z"/><path class="cls-5" d="M220.73,150.54h34.12a2.48,2.48,0,0,0,2.47-2.48V131.65a2.48,2.48,0,0,0-2.47-2.48H228.94a2.39,2.39,0,0,0-1.76.73l-8.2,8.2a2.42,2.42,0,0,0-.73,1.75v8.21A2.48,2.48,0,0,0,220.73,150.54Z"/><rect class="cls-12" x="253.01" y="110.33" width="26.27" height="6.84" rx="3.42"/><path class="cls-6" d="M229.94,142h0a3.08,3.08,0,0,0,4.32,0l6.42-6.42,0,0,2.06-2.07,3.77-3.76,2.65-2.66,0,0,3.77-3.76.05-.06,2-2,6.44-6.44a3.06,3.06,0,0,0,0-4.32h0a3.08,3.08,0,0,0-4.32,0l-6.42,6.43h0l-2.06,2.07-3.77,3.77-2.65,2.65-3.79,3.79,0,0-2,2-6.44,6.44A3.06,3.06,0,0,0,229.94,142Z"/><path class="cls-5" d="M239.82,106.12h0a4.48,4.48,0,0,0,0,6.31l7.71,7.71a4.48,4.48,0,0,0,6.31,0h0a4.48,4.48,0,0,0,0-6.32L248,108v-3.2h-5.26A4.47,4.47,0,0,0,239.82,106.12Z"/><path class="cls-6" d="M245,106.12h0a4.47,4.47,0,0,0,0,6.31l7.7,7.71a4.48,4.48,0,0,0,6.31,0h0a4.48,4.48,0,0,0,0-6.32l-7.7-7.7A4.47,4.47,0,0,0,245,106.12Z"/><path class="cls-6" d="M263.31,115.2h0a3.65,3.65,0,0,1,3.64,3.64v16.77h-7.27V118.84A3.64,3.64,0,0,1,263.31,115.2Z"/><path class="cls-6" d="M275.2,120.41l.22-.14a3.68,3.68,0,0,1,5,1.34h0a3.66,3.66,0,0,1-1.34,5l-.23.13a3.66,3.66,0,0,1-5-1.33h0A3.65,3.65,0,0,1,275.2,120.41Z"/><path class="cls-6" d="M275.54,115.07h-2.76v1.47a7.71,7.71,0,0,0-3.18,6.23v17.49a3.93,3.93,0,0,0,3.18,3.85v.07h6.55a3.92,3.92,0,0,0,3.91-3.92V122.77A7.72,7.72,0,0,0,275.54,115.07Z"/><path class="cls-13" d="M254.44,126.22,249,131.63a4,4,0,0,0,0,5.65h0a4,4,0,0,0,5.65,0l5.41-5.41a4,4,0,0,0,0-5.65h0A4,4,0,0,0,254.44,126.22Z"/><rect class="cls-14" x="240.76" y="130.97" width="12.81" height="7.99" rx="3.99"/><path class="cls-5" d="M272.78,115.07h0a6.34,6.34,0,0,1,6.38,7.7l-3,17.49a4.85,4.85,0,0,1-4.58,3.92H264a3.21,3.21,0,0,1-3.23-3.92l3-17.49A9.56,9.56,0,0,1,272.78,115.07Z"/><rect class="cls-2" x="252.76" y="120.23" width="24.08" height="23.35" rx="11.67"/><path class="cls-13" d="M273.27,128l6.5,6.49a4.83,4.83,0,0,1,0,6.79h0a4.82,4.82,0,0,1-6.78,0l-6.5-6.5a4.8,4.8,0,0,1,0-6.78h0A4.8,4.8,0,0,1,273.27,128Z"/><path class="cls-7" d="M275.87,142.62a4.8,4.8,0,0,1-2.89-1.37l-6.49-6.5a4.82,4.82,0,0,1-.24-6.53,4.76,4.76,0,0,1,2.88,1.38l6.5,6.49A4.82,4.82,0,0,1,275.87,142.62Z"/><rect class="cls-12" x="231.02" y="138.74" width="57.66" height="11.8" rx="5.9"/><rect class="cls-3" x="231.02" y="138.74" width="31.43" height="11.8" rx="5.9"/><rect class="cls-3" x="252.68" y="140.04" width="2.74" height="2.56" rx="1.28"/><path class="cls-15" d="M243.1,131h.74a4.47,4.47,0,0,1,4.47,4.47v0a4.47,4.47,0,0,1-4.47,4.47h-.74a4.48,4.48,0,0,1-4.48-4.48v0A4.48,4.48,0,0,1,243.1,131Z"/><path class="cls-5" d="M223.72,141.93h38a4.31,4.31,0,0,1,4.3,4.3v4.31H219.41v-4.31A4.31,4.31,0,0,1,223.72,141.93Z"/><path class="cls-5" d="M231.74,134.25h20.31a1.22,1.22,0,0,1,1.22,1.22h0a1.22,1.22,0,0,1-1.22,1.22H231.74a1.22,1.22,0,0,1-1.22-1.22h0A1.22,1.22,0,0,1,231.74,134.25Z"/><path class="cls-5" d="M256.94,141.93h1.12a4.31,4.31,0,0,1,4.31,4.3v4.31h-1.12v-4.31A4.31,4.31,0,0,0,256.94,141.93Z"/><path class="cls-5" d="M223.72,141.93h21a4.31,4.31,0,0,1,4.3,4.3v4.31H219.41v-4.31A4.31,4.31,0,0,1,223.72,141.93Z"/><rect class="cls-15" x="251.98" y="110.69" width="12.32" height="17.19" rx="6.16"/><path class="cls-13" d="M258.14,110.74h0a6.18,6.18,0,0,1,6.16,6.16v4.87a6.18,6.18,0,0,1-6.16,6.16h0a5.9,5.9,0,0,1-1.69-.24,6.11,6.11,0,0,1-1.53-4V115a6.12,6.12,0,0,1,1.53-4A5.9,5.9,0,0,1,258.14,110.74Z"/><rect class="cls-9" x="249.25" y="109.66" width="14.71" height="6.71" rx="3.36"/><rect class="cls-15" x="262.05" y="112.5" width="4.13" height="8.2" rx="2.06"/><rect class="cls-16" x="257.91" y="118.51" width="1.01" height="1.53" rx="0.51"/><rect class="cls-16" x="252.87" y="118.51" width="1.01" height="1.53" rx="0.51"/><rect class="cls-14" x="262.16" y="117.91" width="3.64" height="4.11" rx="1.82"/><rect class="cls-15" x="255.36" y="109.66" width="9.49" height="6.71" rx="3.36"/><rect class="cls-15" x="256.11" y="108.56" width="5.96" height="5.08" rx="2.54"/><rect class="cls-9" x="248.37" y="108.08" width="9.03" height="7.71" rx="3.85"/><path class="cls-5" d="M223.65,144.34h20.5a1.82,1.82,0,0,1,1.82,1.81h0a1.82,1.82,0,0,1-1.82,1.81h-20.5a1.81,1.81,0,0,1-1.81-1.81h0A1.81,1.81,0,0,1,223.65,144.34Z"/><rect class="cls-3" x="224.8" y="144.34" width="21.16" height="3.63" rx="1.81"/><rect class="cls-12" x="227.2" y="144.34" width="18.76" height="3.63" rx="1.81"/><path class="cls-1" d="M250.59,108.08h.76a2.23,2.23,0,0,1,2.22,2.22h0a2.23,2.23,0,0,1-2.22,2.22h-.76a2.23,2.23,0,0,1-2.22-2.22h0A2.23,2.23,0,0,1,250.59,108.08Z"/><rect class="cls-3" x="246.42" y="105.91" width="26.27" height="6.84" rx="3.42"/><path class="cls-6" d="M263.29,112.75h6a3.43,3.43,0,0,0,3.42-3.42h0a3.43,3.43,0,0,0-3.42-3.42h-6a3.43,3.43,0,0,0-3.42,3.42h0A3.43,3.43,0,0,0,263.29,112.75Z"/><path class="cls-5" d="M263,106.12h0a4.47,4.47,0,0,0,0,6.31l7.7,7.71a4.5,4.5,0,0,0,6.32,0h0a4.5,4.5,0,0,0,0-6.32l-5.81-5.8v-3.2H266A4.45,4.45,0,0,0,263,106.12Z"/><path class="cls-6" d="M268.2,106.12h0a4.47,4.47,0,0,0,0,6.31l7.7,7.71a4.5,4.5,0,0,0,6.32,0h0a4.5,4.5,0,0,0,0-6.32l-7.71-7.7A4.47,4.47,0,0,0,268.2,106.12Z"/><rect class="cls-3" x="227.22" y="135.54" width="33.78" height="6.39" rx="3.19"/><path class="cls-6" d="M257,140.55h0a3.06,3.06,0,0,0,4.32,0l6.42-6.42,0,0,5.83-5.83,6.44-6.44a3.08,3.08,0,0,0,0-4.32h0a3.06,3.06,0,0,0-4.32,0l-6.42,6.42,0,0-5.83,5.83L257,136.23A3.06,3.06,0,0,0,257,140.55Z"/><path class="cls-6" d="M280.22,127.12a5.78,5.78,0,1,0-5.79-5.78A5.79,5.79,0,0,0,280.22,127.12Z"/><path class="cls-6" d="M264.11,116.1h0a2.65,2.65,0,0,1,2.65,2.65v.67a2.65,2.65,0,0,1-2.65,2.65h0a2.65,2.65,0,0,1-2.65-2.65v-.67A2.65,2.65,0,0,1,264.11,116.1Z"/><rect class="cls-3" x="263.03" y="117.09" width="3.53" height="3.99" rx="1.77"/><path class="cls-6" d="M257.93,124.46h1.75a2.08,2.08,0,0,0,2.07-2.07v-3h.6v3a2.66,2.66,0,0,1-2.67,2.67h-1.75Z"/><path class="cls-5" d="M252.31,150.54h34.12a2.49,2.49,0,0,0,2.48-2.48V131.65a2.49,2.49,0,0,0-2.48-2.48H260.52a2.36,2.36,0,0,0-1.75.73l-8.21,8.2a2.42,2.42,0,0,0-.73,1.75v8.21A2.49,2.49,0,0,0,252.31,150.54Z"/><path class="cls-5" d="M255.31,150.54h34.12a2.49,2.49,0,0,0,2.48-2.48V131.65a2.49,2.49,0,0,0-2.48-2.48H263.52a2.36,2.36,0,0,0-1.75.73l-8.21,8.2a2.42,2.42,0,0,0-.73,1.75v8.21A2.49,2.49,0,0,0,255.31,150.54Z"/><path class="cls-5" d="M338.41,60.72l8.76,8.75a7.94,7.94,0,0,1,0,11.18l-39.48,39.47a7.91,7.91,0,0,1-11.17,0L279,102.62a7.92,7.92,0,0,1,0-11.17l30.73-30.73A20.32,20.32,0,0,1,338.41,60.72Z"/><path class="cls-6" d="M338.42,60.72l8.75,8.75a7.92,7.92,0,0,1,0,11.17l-39.48,39.48a6.38,6.38,0,0,1-9.78,0l-17.5-17.5a7.91,7.91,0,0,1,0-11.17l30.73-30.73a18.72,18.72,0,0,1,27.28,0Z"/><path class="cls-4" d="M287,110.57l-.82-.82,18.13-18.13V79.44l24.17-24.17c.44.1.87.21,1.3.33L305.42,79.92V92.1Z"/><path class="cls-5" d="M340.64,128.24l-.23.23L333.2,149.2,320.66,182H296.43A10.12,10.12,0,0,1,289.1,179l-22.4-22.4a10.15,10.15,0,0,1,0-14.3L306,103a25.91,25.91,0,0,1,19.59-7.54h24.89v32.81Z"/><path class="cls-6" d="M352.17,128.24l-.23.23-7.21,20.73L332.2,182H308a10.1,10.1,0,0,1-7.32-2.95l-22.4-22.4a10.13,10.13,0,0,1,0-14.3L317.56,103a25.93,25.93,0,0,1,19.6-7.54H362v32.81Z"/><path class="cls-5" d="M348.73,86.29a5.38,5.38,0,0,1,0,4.15v4.61h-4.05l-13.33,13.33v12H317.88a5.32,5.32,0,0,1-4.56-1.5L301.48,107a5.36,5.36,0,0,1,0-7.56l20.79-20.79a13.67,13.67,0,0,1,9.49-4h17Z"/><path class="cls-5" d="M348.73,86.29a5.38,5.38,0,0,1,0,4.15v4.61h-4.05l-6.84,6.84H300.09a5.32,5.32,0,0,1,1.39-2.44l20.79-20.79a13.66,13.66,0,0,1,9.49-4h17Z"/><path class="cls-6" d="M349.59,78.66l5.92,5.93a5.35,5.35,0,0,1,0,7.55L328.8,118.85a5.36,5.36,0,0,1-7.56,0L309.4,107a5.36,5.36,0,0,1,0-7.56l20.79-20.79A13.77,13.77,0,0,1,349.59,78.66Z"/><path class="cls-5" d="M354,99.65,350.69,103H338.55v17.38h-6.74a5.3,5.3,0,0,1-4.55-1.5L315.42,107a5.36,5.36,0,0,1,0-7.56L336.2,78.66a13.65,13.65,0,0,1,9.5-4H354Z"/><path class="cls-5" d="M354,99.65l-2.24,2.24H314a5.41,5.41,0,0,1,1.39-2.44L336.2,78.66a13.7,13.7,0,0,1,9.5-4H354Z"/><path class="cls-4" d="M363.52,78.66l5.92,5.93a5.35,5.35,0,0,1,0,7.55l-26.71,26.71a5.35,5.35,0,0,1-7.55,0L323.33,107a5.38,5.38,0,0,1,0-7.56l20.79-20.79A13.77,13.77,0,0,1,363.52,78.66Z"/><path class="cls-5" d="M362.76,128.24l-.23.23-7.21,20.73L342.78,182H318.55a10.1,10.1,0,0,1-7.32-2.95l-22.41-22.4a10.15,10.15,0,0,1,0-14.3L328.15,103a25.93,25.93,0,0,1,19.6-7.54h24.88v32.81Z"/><path class="cls-5" d="M357.56,142.78l-.87,2.5-27.15,27.15H304.66l-1.15-1.15h25.55l28.5-28.5Zm15.07-15.07v.53h-.53Z"/><path class="cls-5" d="M362.76,128.24l-.23.23-7.21,20.73-.17.46H285.88a10.06,10.06,0,0,1,2.94-7.36L328.15,103a25.93,25.93,0,0,1,19.6-7.54h24.88v32.81Z"/><path class="cls-5" d="M389.73,103l11.21,11.21a10.12,10.12,0,0,1,0,14.29L350.41,179a10.15,10.15,0,0,1-14.3,0l-22.4-22.4a10.13,10.13,0,0,1,0-14.3L353,103A26,26,0,0,1,389.73,103Z"/><path class="cls-5" d="M379.75,149.66,350.41,179a10.15,10.15,0,0,1-14.3,0l-22.4-22.4a10.06,10.06,0,0,1-2.95-6.94Z"/><path class="cls-5" d="M329.54,172.43l-1.15-1.15h.67l28.5-28.5-.87,2.5-27.15,27.15Zm43.09-44.72v.53h-.53Z"/><polygon class="cls-5" points="393.55 106.79 394.36 107.61 329.54 172.43 328.39 171.28 329.06 171.28 393.55 106.79"/><path class="cls-4" d="M293.8,88h0a1.21,1.21,0,0,1,0,1.71l-7.1,7.1a1.21,1.21,0,0,1-1.71,0h0a1.21,1.21,0,0,1,0-1.71l7.1-7.1A1.21,1.21,0,0,1,293.8,88Z"/><path class="cls-4" d="M296.46,90.67h0a1.21,1.21,0,0,1,0,1.71l-7.1,7.1a1.21,1.21,0,0,1-1.71,0h0a1.21,1.21,0,0,1,0-1.71l7.1-7.1A1.21,1.21,0,0,1,296.46,90.67Z"/><circle class="cls-12" cx="370.52" cy="144.4" r="22.65" transform="translate(116.79 450.59) rotate(-71.64)"/><path class="cls-1" d="M219.13,208.26h0a1.92,1.92,0,0,1,0,2.7l-5.85,5.85a1.92,1.92,0,0,1-2.7,0h0a1.92,1.92,0,0,1,0-2.7l5.85-5.84A1.9,1.9,0,0,1,219.13,208.26Z"/><path class="cls-11" d="M262.61,217.91h3.21a2.77,2.77,0,0,1,2.77,2.77v0a2.77,2.77,0,0,1-2.77,2.77h-3.21a2.76,2.76,0,0,1-2.76-2.76v0A2.77,2.77,0,0,1,262.61,217.91Z"/><path class="cls-5" d="M322,142l12.2-12.2a6.71,6.71,0,0,1,9.44,0h0a6.71,6.71,0,0,1,0,9.44l-12.2,12.2a6.71,6.71,0,0,1-9.44,0h0A6.71,6.71,0,0,1,322,142Z"/><path class="cls-5" d="M319.42,144.65l12.19-12.2a6.71,6.71,0,0,1,9.44,0h0a6.71,6.71,0,0,1,0,9.44l-12.2,12.19a6.68,6.68,0,0,1-9.43,0h0A6.68,6.68,0,0,1,319.42,144.65Z"/><path class="cls-5" d="M321.34,146.57a4,4,0,1,0,5.59,5.59l12.2-12.2a4,4,0,1,0-5.59-5.59Z"/><path class="cls-4" d="M329.59,149.5l9.54-9.54a4,4,0,1,0-5.59-5.59L324,143.91a4,4,0,1,0,5.59,5.59Z"/><path class="cls-7" d="M331.37,146.22l7-7a2.89,2.89,0,1,0-4.09-4.09l-7,7a2.89,2.89,0,1,0,4.09,4.09Z"/><path class="cls-5" d="M526.54,86.67h0a8.53,8.53,0,0,1,0,12l-11.22,11.21a8.52,8.52,0,0,1-12,0h0a8.53,8.53,0,0,1,0-12l11.21-11.21A8.53,8.53,0,0,1,526.54,86.67Z"/><path class="cls-6" d="M515,97.08h0a12.57,12.57,0,0,1,0,17.72l-16.51,16.51a12.57,12.57,0,0,1-17.72,0h0a12.55,12.55,0,0,1,0-17.71l16.51-16.52A12.56,12.56,0,0,1,515,97.08Z"/><path class="cls-6" d="M509.48,197.5h0a10.59,10.59,0,0,1,0,14.92l-29.85,29.85a10.6,10.6,0,0,1-14.93,0h0a10.6,10.6,0,0,1,0-14.93l29.85-29.84A10.58,10.58,0,0,1,509.48,197.5Z"/><path class="cls-4" d="M509.48,197.5h0a10,10,0,0,1,1.4,1.74c-.5.6-1,1.18-1.58,1.74l-36.43,36.43a27.59,27.59,0,0,1-7.61,5.37,6.64,6.64,0,0,1-.55-.51h0a10.6,10.6,0,0,1,0-14.93l29.85-29.85A10.59,10.59,0,0,1,509.48,197.5Z"/><path class="cls-5" d="M485.71,122.12h0a20.39,20.39,0,0,1,0,28.76l-84.43,84.44a20.41,20.41,0,0,1-28.77,0h0a20.41,20.41,0,0,1,0-28.77L457,122.12A20.39,20.39,0,0,1,485.71,122.12Z"/><path class="cls-5" d="M485.71,122.12h0a20.41,20.41,0,0,1,0,28.77l-68.83,68.83H366.62a20.23,20.23,0,0,1,5.89-13.16L457,122.12A20.39,20.39,0,0,1,485.71,122.12Z"/><path class="cls-5" d="M485.71,122.12h0a20.41,20.41,0,0,1,0,28.77l-68.83,68.83H392.21a20.29,20.29,0,0,1,5.9-13.17l84.43-84.43a19.22,19.22,0,0,1,1.59-1.42A20.87,20.87,0,0,1,485.71,122.12Z"/><path class="cls-5" d="M494.3,122.12h0a20.39,20.39,0,0,1,0,28.76l-84.44,84.44a20.39,20.39,0,0,1-28.76,0h0a20.41,20.41,0,0,1,0-28.77l84.43-84.43A20.41,20.41,0,0,1,494.3,122.12Z"/><path class="cls-4" d="M396.81,163.36h0a5.61,5.61,0,0,1,5.6-5.59H467a5.61,5.61,0,0,1,5.59,5.59h0A5.61,5.61,0,0,1,467,169H402.41A5.62,5.62,0,0,1,396.81,163.36Z"/><rect class="cls-12" x="401.91" y="151.16" width="54.49" height="28.2" rx="14.1"/><rect class="cls-3" x="387.65" y="157.02" width="23.06" height="11.94" rx="5.97"/><path class="cls-6" d="M502.83,118.31h0a20.39,20.39,0,0,1,0,28.76L418.4,231.51a20.39,20.39,0,0,1-28.76,0h0a20.41,20.41,0,0,1,0-28.77l84.43-84.43A20.39,20.39,0,0,1,502.83,118.31Z"/><path class="cls-5" d="M407.45,204.52h0a10.44,10.44,0,0,1,0,14.74L378,248.73a10.46,10.46,0,0,1-14.74,0h0a10.44,10.44,0,0,1,0-14.74l29.47-29.47A10.45,10.45,0,0,1,407.45,204.52Z"/><path class="cls-6" d="M361.91,247.08A10.45,10.45,0,0,1,363.25,234l29.47-29.47A10.44,10.44,0,0,1,403,201.89,10.46,10.46,0,0,1,401.65,215l-29.47,29.47A10.43,10.43,0,0,1,361.91,247.08Z"/><path class="cls-4" d="M416.51,106.12h0a5.6,5.6,0,0,1,7.91,0l45.7,45.69a5.61,5.61,0,0,1,0,7.91h0a5.6,5.6,0,0,1-7.91,0L416.51,114A5.62,5.62,0,0,1,416.51,106.12Z"/><path class="cls-6" d="M410.65,103.29h0a11.26,11.26,0,0,1,15.88,0l14.8,14.8a11.24,11.24,0,0,1,0,15.87h0a11.26,11.26,0,0,1-15.87,0l-14.81-14.81A11.26,11.26,0,0,1,410.65,103.29Z"/><path class="cls-4" d="M415,140.7h0a11.29,11.29,0,0,1,15.92,0l14.84,14.85a11.28,11.28,0,0,1,0,15.92h0a11.29,11.29,0,0,1-15.92,0L415,156.63A11.3,11.3,0,0,1,415,140.7Z"/><path class="cls-5" d="M386.56,103.49h.59a36.35,36.35,0,0,1,36.25,36.24h0A36.35,36.35,0,0,1,387.15,176h-.59a36.35,36.35,0,0,1-36.25-36.25h0A36.35,36.35,0,0,1,386.56,103.49Z"/><path class="cls-5" d="M386.56,103.49h.59a36.35,36.35,0,0,1,36.25,36.24h0a35.91,35.91,0,0,1-5.64,19.35H356a35.91,35.91,0,0,1-5.64-19.35h0A36.35,36.35,0,0,1,386.56,103.49Z"/><path class="cls-6" d="M396.09,103.49h.59a36.36,36.36,0,0,1,36.25,36.24h0A36.36,36.36,0,0,1,396.68,176h-.59a36.35,36.35,0,0,1-36.25-36.25h0A36.35,36.35,0,0,1,396.09,103.49Z"/><path class="cls-5" d="M394.6,110.47h.48a29.34,29.34,0,0,1,29.26,29.26h0A29.35,29.35,0,0,1,395.08,169h-.48a29.35,29.35,0,0,1-29.26-29.27h0A29.35,29.35,0,0,1,394.6,110.47Z"/><path class="cls-5" d="M403.71,110.47h.48a29.35,29.35,0,0,1,29.26,29.26h0A29.35,29.35,0,0,1,404.19,169h-.48a29.35,29.35,0,0,1-29.27-29.27h0A29.35,29.35,0,0,1,403.71,110.47Z"/><path class="cls-5" d="M505.43,141.19c-.84,3.56,8.82,7.14,5.87,9.69L422.35,228h7.21v13.25H409.47V241a20.2,20.2,0,0,1-11.36-5.71h0a20.41,20.41,0,0,1,0-28.77l84.43-84.43a20.23,20.23,0,0,1,12.54-5.85h0a20.67,20.67,0,0,1,3.69,0h15.61v24.92Z"/><path class="cls-5" d="M505.43,141.19c-.84,3.56,8.82,7.14,5.87,9.7l-79.39,68.83h-39.7a20.29,20.29,0,0,1,5.9-13.17l84.43-84.43a20.31,20.31,0,0,1,12.54-5.85h0a20.67,20.67,0,0,1,3.69,0h15.61v24.92Z"/><path class="cls-5" d="M505.43,141.19c-.84,3.56,8.82,7.14,5.87,9.7l-29.82,25.85H427.92l54.62-54.62a20.31,20.31,0,0,1,12.54-5.85h0a20.67,20.67,0,0,1,3.69,0h15.61v24.92Z"/><path class="cls-7" d="M505.43,141.19a2.9,2.9,0,0,0,.79,2.43v4.74H456.31l12.05-12.06h37.86v4.89Zm-54.31,12.35,2.38-2.37h29.55v2.37Z"/><path class="cls-5" d="M528.37,122.12h0a20.39,20.39,0,0,1,0,28.76l-84.44,84.44a20.39,20.39,0,0,1-28.76,0h0a20.41,20.41,0,0,1,0-28.77l84.43-84.43A20.39,20.39,0,0,1,528.37,122.12Z"/><path class="cls-5" d="M426.21,102.41l8.43,8.43a10.81,10.81,0,0,1,0,15.24h0a10.81,10.81,0,0,1-15.24,0l-14.21-14.21q-.26-.25-.48-.51l5.78,5.78a10.82,10.82,0,0,0,15.25,0h0A10.82,10.82,0,0,0,426.21,102.41Z"/><rect class="cls-12" x="382.02" y="116.83" width="46.17" height="45.8" rx="22.9"/><path class="cls-5" d="M407.29,116.92a23,23,0,0,1,20.9,22.81h0a23,23,0,0,1-20.9,22.81,23,23,0,0,1-20.91-22.81h0A23,23,0,0,1,407.29,116.92Z"/><rect class="cls-3" x="395.51" y="124.77" width="30.17" height="29.93" rx="14.96"/><path class="cls-5" d="M406,142.19l9.5-9.5a3.25,3.25,0,0,1,4.58,0h0a3.23,3.23,0,0,1,0,4.58l-9.5,9.51a3.25,3.25,0,0,1-4.58,0h0A3.24,3.24,0,0,1,406,142.19Z"/><path class="cls-6" d="M406,142.19l6.94-6.94a3.25,3.25,0,0,1,4.58,0h0a3.25,3.25,0,0,1,0,4.58l-6.94,6.95a3.25,3.25,0,0,1-4.58,0h0A3.24,3.24,0,0,1,406,142.19Z"/><path class="cls-6" d="M508.68,159.16h0a27.73,27.73,0,0,1,0,39.08l-36.43,36.43a27.73,27.73,0,0,1-39.08,0h0a27.7,27.7,0,0,1,0-39.07l36.43-36.43A27.7,27.7,0,0,1,508.68,159.16Z"/><path class="cls-5" d="M508.68,159.16h0a27.06,27.06,0,0,1,5.2,7.24,31.48,31.48,0,0,1-8.75,16.79L463.31,225a31.8,31.8,0,0,1-31.77,7.86,27.71,27.71,0,0,1,1.64-37.28l36.43-36.43A27.7,27.7,0,0,1,508.68,159.16Z"/><path class="cls-4" d="M482.12,152c.7-.18,1.39-.34,2.09-.46l-42.28,42.28v8.53h-1.16v-9Z"/><path class="cls-6" d="M473.31,215l-10,10a31.8,31.8,0,0,1-31.77,7.86,27.77,27.77,0,0,1-2.92-31.26A25.63,25.63,0,0,1,473.31,215Z"/><path class="cls-4" d="M440.77,193.86c.5-.14,1-.27,1.51-.39l-.35.35v8.53h-1.16Z"/><path class="cls-4" d="M381.28,226h0a2.06,2.06,0,0,1,0,2.91l-5,5a2.06,2.06,0,0,1-2.91,0h0a2.06,2.06,0,0,1,0-2.91l5-5A2.06,2.06,0,0,1,381.28,226Z"/><path class="cls-4" d="M386.2,231.75h0a2.06,2.06,0,0,1,0,2.91l-5,5a2.06,2.06,0,0,1-2.91,0h0a2.06,2.06,0,0,1,0-2.91l5-5A2.06,2.06,0,0,1,386.2,231.75Z"/><path class="cls-4" d="M368.19,249.64a6.4,6.4,0,1,0-6.4-6.4A6.41,6.41,0,0,0,368.19,249.64Z"/><path class="cls-5" d="M507.12,177.71h0a7.47,7.47,0,0,1,0,10.54L486,209.32a7.47,7.47,0,0,1-10.54,0h0a7.47,7.47,0,0,1,0-10.54l21.08-21.07A7.47,7.47,0,0,1,507.12,177.71Z"/><path class="cls-4" d="M478.34,211.1a7.44,7.44,0,0,1-2.84-1.78h0a7.47,7.47,0,0,1,0-10.54l21.08-21.07a3.53,3.53,0,0,1,6.22-.17h0a7.47,7.47,0,0,1,0,10.54l-21.08,21.08A7.47,7.47,0,0,1,478.34,211.1Z"/><path class="cls-4" d="M447,241.16a20.64,20.64,0,1,0-20.64-20.64A20.68,20.68,0,0,0,447,241.16Z"/><path class="cls-5" d="M459.37,208.24h0a17.84,17.84,0,0,1,0,25.17L409,283.74a17.84,17.84,0,0,1-25.17,0h0a17.84,17.84,0,0,1,0-25.17l50.33-50.33A17.84,17.84,0,0,1,459.37,208.24Z"/><path class="cls-5" d="M378.86,273.76a17.83,17.83,0,0,1,5-15.19l50.33-50.33a17.85,17.85,0,0,1,24.73-.43,21.61,21.61,0,0,1-1.57,1.77l-58.74,58.74A20.83,20.83,0,0,1,378.86,273.76Z"/><path class="cls-5" d="M394.73,289.87a17.15,17.15,0,1,0-17.15-17.14A17.17,17.17,0,0,0,394.73,289.87Z"/><path class="cls-5" d="M394.73,255.59a17.11,17.11,0,0,1,12,4.88l-24.24,24.24a17.13,17.13,0,0,1,12.26-29.12Z"/><path class="cls-5" d="M391.6,285.53a10.74,10.74,0,1,0-10.74-10.74A10.75,10.75,0,0,0,391.6,285.53Z"/><path class="cls-5" d="M306.75,169.64l-4.9-4.9,0,0-5.93-5.92a1.45,1.45,0,0,1,1-2.47h10.63a1.39,1.39,0,0,1,1,.42l5.89,5.89,0,0h0l4.9,4.91,0,0,5.92,5.92a1.44,1.44,0,0,1-1,2.47H313.71a1.4,1.4,0,0,1-1-.42l-5.89-5.9h0l0,0Z"/><path class="cls-4" d="M298.46,156.33h9.09a1.39,1.39,0,0,1,1,.42l5.89,5.89,0,0h0l4.9,4.91,0,0,5.34,5.34H315.7a1.43,1.43,0,0,1-1-.42l-5.89-5.89v0h0v0l-4.9-4.9,0,0Z"/><path class="cls-5" d="M311.58,169.5h9.74l2.28,2.28h-12a1.16,1.16,0,0,1-1.15-1.15h0a1.15,1.15,0,0,1,1.15-1.14Zm-11.89-11.89h9.74l2.28,2.28h-12a1.15,1.15,0,0,1-1.14-1.14h0a1.15,1.15,0,0,1,1.14-1.15Zm4,4h9.73l2.28,2.27h-12a1.15,1.15,0,0,1-1.15-1.14h0a1.15,1.15,0,0,1,1.15-1.14Zm4,4h9.74l2.27,2.28h-12a1.15,1.15,0,0,1-1.15-1.14h0A1.15,1.15,0,0,1,307.62,165.54Z"/><path class="cls-6" d="M171.14,188.54a14,14,0,1,1-14,14,14,14,0,0,1,14-14Zm0,1a13,13,0,1,0,13,13A13,13,0,0,0,171.14,189.54Z"/><path class="cls-4" d="M262.84,190.48h1.4a20,20,0,0,1-20-20h0a20,20,0,0,1,20-20h-1.4a20,20,0,0,0-20,20h0A20,20,0,0,0,262.84,190.48Z"/><rect class="cls-11" x="211.15" y="157.88" width="6.34" height="1.64" rx="0.82"/><rect class="cls-11" x="212.87" y="155.28" width="6.34" height="1.64" rx="0.82"/><path class="cls-8" d="M302,149.66h-11.3a10.05,10.05,0,0,1,1.39-5.35h11.3a10.15,10.15,0,0,0-1.39,5.35Zm-5.78-9.93,2.28-2.29h11.3l-2.28,2.29ZM303,133l30-30a25.93,25.93,0,0,1,19.6-7.54h8.82A25.91,25.91,0,0,0,344.3,103l-30,30Z"/><path class="cls-8" d="M302,149.66h-11.3a10.05,10.05,0,0,1,1.39-5.35h11.3a10.15,10.15,0,0,0-1.39,5.35Zm18.82-34.53h11.3L314.27,133H303l17.89-17.88Zm-24.6,24.6,2.28-2.29h11.3l-2.28,2.29Z"/><path class="cls-5" d="M512.92,152.55a16.17,16.17,0,1,0-16.17-16.17A16.2,16.2,0,0,0,512.92,152.55Z"/><rect class="cls-12" x="499.5" y="120.51" width="31.88" height="31.62" rx="15.81"/><path class="cls-5" d="M517,120.57a15.87,15.87,0,0,1,14.43,15.75h0a14.49,14.49,0,1,1-28.87,0h0A15.87,15.87,0,0,1,517,120.57Z"/><rect class="cls-3" x="508.82" y="125.99" width="20.83" height="20.66" rx="10.33"/><path class="cls-5" d="M516,138l6.57-6.57a2.24,2.24,0,0,1,3.16,0h0a2.24,2.24,0,0,1,0,3.16l-6.56,6.56a2.24,2.24,0,0,1-3.16,0h0A2.26,2.26,0,0,1,516,138Z"/><path class="cls-6" d="M516,138l4.79-4.8a2.24,2.24,0,0,1,3.16,0h0a2.25,2.25,0,0,1,0,3.17l-4.79,4.79a2.24,2.24,0,0,1-3.16,0h0A2.24,2.24,0,0,1,516,138Z"/><path class="cls-4" d="M478.22,492.24a9.07,9.07,0,0,0,2.39-17.82h0l-42.92-13h0a16,16,0,0,0-4.61-.68,15.77,15.77,0,1,0,0,31.53h45.14Z"/><path class="cls-5" d="M167.87,338.91h-1.63l-14.71-14.7a1,1,0,0,0-.28-.2.9.9,0,0,0-.34-.06H140.29a.87.87,0,0,0-.62,1.49l6,5.94,7.53,7.53h-1.63l-1.82-1.81-10.84-10.85a2,2,0,0,1-.56-1,2.06,2.06,0,0,1,.12-1.17,2,2,0,0,1,1.87-1.25h10.62a2.08,2.08,0,0,1,.78.15,2,2,0,0,1,.65.44Z"/><path class="cls-5" d="M104.31,231.38h0a1.89,1.89,0,0,1,0,2.66L93.59,244.76a1.89,1.89,0,0,1-2.66,0h0a1.9,1.9,0,0,1,0-2.67l10.71-10.71A1.9,1.9,0,0,1,104.31,231.38Z"/><path class="cls-5" d="M112.87,222.81h0a1.88,1.88,0,0,1,0,2.67L109.4,229a1.89,1.89,0,0,1-2.66,0h0a1.88,1.88,0,0,1,0-2.66l3.48-3.48A1.89,1.89,0,0,1,112.87,222.81Z"/><polygon class="cls-5" points="260.74 150.54 261.62 150.54 261.62 142.48 274.93 129.17 273.69 129.17 260.74 142.12 260.74 150.54"/><path class="cls-5" d="M314.82,150a1.53,1.53,0,0,0,0-3,1.53,1.53,0,1,0,0,3Z"/><path class="cls-5" d="M344.46,179.09a1.53,1.53,0,1,0-1.52-1.52A1.53,1.53,0,0,0,344.46,179.09Z"/><path class="cls-1" d="M426.41,225.22h0a1.89,1.89,0,0,1,0,2.66L415.7,238.59a1.89,1.89,0,0,1-2.67,0h0a1.89,1.89,0,0,1,0-2.66l10.71-10.71A1.88,1.88,0,0,1,426.41,225.22Z"/><path class="cls-1" d="M435,216.65h0a1.89,1.89,0,0,1,0,2.66l-3.48,3.48a1.89,1.89,0,0,1-2.66,0h0a1.9,1.9,0,0,1,0-2.67l3.47-3.47A1.88,1.88,0,0,1,435,216.65Z"/><path class="cls-5" d="M396.06,256a16.72,16.72,0,0,1,0,33.44c-.32,0-.63,0-.94,0a16.72,16.72,0,0,0,0-33.38C395.43,256,395.74,256,396.06,256Z"/><path class="cls-4" d="M392.56,283.44a9.31,9.31,0,1,0-9.31-9.31A9.33,9.33,0,0,0,392.56,283.44Z"/><path class="cls-6" d="M428.71,244c2.26,0,4.09,2.84,4.09,6.34s-1.83,6.34-4.09,6.34-4.09-2.84-4.09-6.34,1.83-6.34,4.09-6.34Zm11.58-10.22c2.26,0,4.09,2.84,4.09,6.34s-1.83,6.34-4.09,6.34-4.09-2.84-4.09-6.34S438,233.73,440.29,233.73Z"/><path class="cls-4" d="M429.5,256.51a2.66,2.66,0,0,1-.79.12c-2.26,0-4.09-2.84-4.09-6.34a7.91,7.91,0,0,1,1.59-5,2.54,2.54,0,0,1,.78-.12c2.26,0,4.09,2.84,4.09,6.34a8,8,0,0,1-1.58,5Zm9.08-21.57c2.26,0,4.09,2.84,4.09,6.34a8,8,0,0,1-1.59,5,3,3,0,0,1-.79.12c-2.26,0-4.09-2.84-4.09-6.34a7.91,7.91,0,0,1,1.59-5A2.61,2.61,0,0,1,438.58,234.94Z"/><path class="cls-4" d="M452.15,215.47h0a17.85,17.85,0,0,1,0,25.17l-1.78,1.78a17.87,17.87,0,0,0,0-25.18h0a17.85,17.85,0,0,0-25.17,0l1.77-1.77A17.85,17.85,0,0,1,452.15,215.47Z"/><path class="cls-4" d="M416,251.64h0a17.84,17.84,0,0,1,0,25.17l-1.77,1.78a17.85,17.85,0,0,0,0-25.17h0a17.85,17.85,0,0,0-25.18,0l1.78-1.78A17.85,17.85,0,0,1,416,251.64Z"/><circle class="cls-11" cx="30.28" cy="312.45" r="9.14"/><rect class="cls-17" x="426.35" y="288.34" width="8.89" height="3.77" rx="1.89"/><rect class="cls-17" x="426.35" y="293.98" width="8.89" height="3.77" rx="1.89"/><path class="cls-4" d="M482.94,468.85l4.17-4.45a8.78,8.78,0,0,0-.43-12.37h0a8.78,8.78,0,0,0-12.36.42l-4.17,4.46a8.79,8.79,0,0,1,12.37-.42h0A8.76,8.76,0,0,1,482.94,468.85Z"/><path class="cls-4" d="M490.74,455.71l2.61-2.79a5.5,5.5,0,0,0-.26-7.75h0a5.51,5.51,0,0,0-7.75.27l-2.61,2.79a5.5,5.5,0,0,1,7.75-.26h0A5.49,5.49,0,0,1,490.74,455.71Z"/><path class="cls-8" d="M514.22,340.43a5.05,5.05,0,0,0-4.08-2.08h-5.05v5a5.06,5.06,0,0,0,2.71,4.46,5,5,0,0,1-1-3v-5h5A5.09,5.09,0,0,1,514.22,340.43Z"/><path class="cls-8" d="M402,416.72l1.18-5.8,10.63,7.85-1.19,5.8L402,416.72Zm2.29-11.25,10.63,7.85,1.18-5.8-10.62-7.86Z"/><path class="cls-8" d="M173.51,416.69l1.19-5.81,10.5,7.73L184,424.42l-10.51-7.73Zm2.31-11.25,10.5,7.73,1.18-5.81L177,399.63Z"/><rect class="cls-12" x="304.1" y="225.71" width="10.34" height="4.58" rx="2.29"/><path class="cls-4" d="M309.13,218l-5.66,9.81a5.07,5.07,0,0,1-6.9,1.84h0a5.05,5.05,0,0,1-1.85-6.89l5.66-9.81a5.06,5.06,0,0,1,6.9-1.85h0A5.06,5.06,0,0,1,309.13,218Z"/><rect class="cls-12" x="300.73" y="208.96" width="10.1" height="21.42" rx="5.05"/><rect class="cls-12" x="296.23" y="195.9" width="16.09" height="21.42" rx="8.04"/><path class="cls-7" d="M294.66,176.6,305,166.25l5.34,5.34a7.33,7.33,0,0,1,0,10.35h0a7.35,7.35,0,0,1-10.36,0Z"/><path class="cls-13" d="M294.66,176.6l7.88-7.88,5.34,5.34a7.35,7.35,0,0,1,1.09,9,7.35,7.35,0,0,1-9-1.09Z"/><path class="cls-13" d="M299.68,182.4h8.95v7.06a4.49,4.49,0,0,1-4.48,4.48h0a4.49,4.49,0,0,1-4.47-4.48Z"/><rect class="cls-9" x="294.65" y="171.35" width="10.56" height="11.97" rx="4.41" transform="translate(-37.55 264.03) rotate(-45)"/><rect class="cls-9" x="293.83" y="164.41" width="13.5" height="9.16" rx="3.82" transform="translate(-31.47 262) rotate(-44.99)"/><rect class="cls-2" x="295.72" y="168.41" width="7.41" height="8.41" rx="3.09" transform="translate(-34.36 262.29) rotate(-45)"/><path class="cls-14" d="M304.77,172.73h.69a1.73,1.73,0,0,1,1.73,1.73v1.25a1.74,1.74,0,0,1-1.74,1.74h-.69a1.74,1.74,0,0,1-1.74-1.74v-1.25a1.73,1.73,0,0,1,1.73-1.73Z" transform="translate(-34.4 267.17) rotate(-45.02)"/><rect class="cls-2" x="293.24" y="184.4" width="19.42" height="25.53" rx="9.71"/><path class="cls-7" d="M312.22,191.23a9.48,9.48,0,0,1,.44,2.88v6.12a8.92,8.92,0,0,1-.07,1.16l-5-2.87a4.32,4.32,0,0,1-1.58-5.88h0a4.34,4.34,0,0,1,5.89-1.58Z"/><path class="cls-1" d="M303,184.4h0a10.29,10.29,0,0,1,1.86.18A10,10,0,0,0,298,194v6.28a10,10,0,0,0,6.8,9.44,9.46,9.46,0,0,1-1.86.19h0a9.74,9.74,0,0,1-9.71-9.71v-6.12A9.74,9.74,0,0,1,303,184.4Z"/><rect class="cls-12" x="304.46" y="225.71" width="7.69" height="4.58" rx="2.29"/><path class="cls-8" d="M266.94,109.34h6a1.09,1.09,0,0,1,1.09,1.1h0a1.1,1.1,0,0,1-1.09,1.1h-6a1.1,1.1,0,0,1-1.1-1.1h0A1.1,1.1,0,0,1,266.94,109.34Z"/><path class="cls-8" d="M270.66,112.87h2a1.1,1.1,0,0,1,1.1,1.1h0a1.1,1.1,0,0,1-1.1,1.1h-2a1.1,1.1,0,0,1-1.1-1.1h0A1.1,1.1,0,0,1,270.66,112.87Z"/><path class="cls-7" d="M548.86,352.16v-37a9.62,9.62,0,0,1,3.49-.65h3.53v34.65A15.75,15.75,0,0,1,548.86,352.16Z"/><path class="cls-7" d="M529.47,351.92v-31a15.46,15.46,0,0,1,3.62-.42h3.4v31.84h-3.4A15.46,15.46,0,0,1,529.47,351.92Z"/><path class="cls-7" d="M532.71,321.28l.79-.78h6l-3.76,3.76a2.1,2.1,0,0,1-3,0h0A2.13,2.13,0,0,1,532.71,321.28Z"/><path class="cls-7" d="M544.3,318.9l5.36,5.36a2.1,2.1,0,0,0,3,0h0a2.12,2.12,0,0,0,0-3L547.32,316A9.71,9.71,0,0,0,544.3,318.9Z"/><rect class="cls-15" x="515.78" y="340.58" width="36.01" height="25.55" rx="12.65"/><path class="cls-18" d="M503.3,359.77l5.71-5.71a11.63,11.63,0,0,1,16.4,0h0a11.62,11.62,0,0,1,0,16.39l-5.72,5.72a11.62,11.62,0,0,0,0-16.39h0A11.64,11.64,0,0,0,503.3,359.77Z"/><path class="cls-18" d="M520.35,348.84l3.58-3.58a7.29,7.29,0,0,1,10.27,0h0a7.27,7.27,0,0,1,0,10.27l-3.58,3.59a7.27,7.27,0,0,0,0-10.27h0A7.29,7.29,0,0,0,520.35,348.84Z"/><path class="cls-8" d="M542.05,344.65a3.26,3.26,0,0,1,2.63-1.35h3.26v3.26a3.27,3.27,0,0,1-1.75,2.89,3.19,3.19,0,0,0,.63-1.91v-3.26h-3.26A3.18,3.18,0,0,0,542.05,344.65Z"/><path class="cls-5" d="M447.26,18.4h.61a1.73,1.73,0,0,1,1.72,1.73v3.35h-4V20.13A1.73,1.73,0,0,1,447.26,18.4Z"/><path class="cls-7" d="M448.58,23.48h-3V20.13a1.53,1.53,0,1,1,3,0Z"/><rect class="cls-3" x="442.77" y="74.81" width="10.34" height="4.58" rx="2.29"/><path class="cls-4" d="M452.46,66.46l5.67,9.81A5,5,0,0,0,465,78.12h0a5.07,5.07,0,0,0,1.84-6.9l-5.66-9.81a5.07,5.07,0,0,0-6.9-1.84h0A5.06,5.06,0,0,0,452.46,66.46Z"/><rect class="cls-12" x="446.38" y="58.06" width="10.1" height="21.42" rx="5.05"/><rect class="cls-12" x="444.89" y="44.39" width="16.09" height="21.42" rx="8.04"/><path class="cls-7" d="M458.23,20.06H443.58v7.55a7.35,7.35,0,0,0,7.33,7.33h0a7.35,7.35,0,0,0,7.32-7.33Z"/><path class="cls-13" d="M458.23,20.06H447.08v7.55a5.74,5.74,0,1,0,11.15,0Z"/><path class="cls-13" d="M457.53,30.9h-8.95V38a4.48,4.48,0,0,0,4.48,4.47h0A4.48,4.48,0,0,0,457.53,38Z"/><rect class="cls-12" x="449.73" y="18.32" width="10.56" height="11.97" rx="4.41"/><rect class="cls-14" x="447.68" y="24.02" width="4.16" height="4.72" rx="1.73"/><rect class="cls-12" x="444.55" y="32.9" width="19.42" height="25.53" rx="9.71"/><path class="cls-4" d="M445,39.73a9.48,9.48,0,0,0-.44,2.88v6.11a9,9,0,0,0,.07,1.17l5-2.87a4.32,4.32,0,0,0,1.58-5.88h0a4.33,4.33,0,0,0-5.89-1.58Z"/><path class="cls-4" d="M454.26,32.9h0a9.46,9.46,0,0,0-1.86.18,10,10,0,0,1,6.8,9.45v6.28a10,10,0,0,1-6.8,9.44,9.46,9.46,0,0,0,1.86.18h0A9.74,9.74,0,0,0,464,48.72V42.61A9.74,9.74,0,0,0,454.26,32.9Z"/><rect class="cls-12" x="445.06" y="74.81" width="7.69" height="4.58" rx="2.29"/><rect class="cls-15" x="430.35" y="39.67" width="15.97" height="8.61" rx="4.31"/><path class="cls-6" d="M446.72,36.6l-6.38,3.68a4.32,4.32,0,0,0-1.57,5.89h0a4.31,4.31,0,0,0,5.88,1.57L451,44.06a4.31,4.31,0,0,0,1.58-5.88h0A4.32,4.32,0,0,0,446.72,36.6Z"/><path class="cls-5" d="M469,80.11l14.73,14.74a4.9,4.9,0,0,1,1.49,3.59v20.07a4.92,4.92,0,0,1-1.49,3.59l-49.22,49.22a4.9,4.9,0,0,1-3.59,1.49H410.88a4.88,4.88,0,0,1-3.59-1.49l-14.74-14.74a4.88,4.88,0,0,1-1.49-3.59V132.93a4.9,4.9,0,0,1,1.49-3.59l49.22-49.22a4.9,4.9,0,0,1,3.59-1.49h20.07A4.93,4.93,0,0,1,469,80.11Z"/><path class="cls-5" d="M469,80.11l14.73,14.74a4.9,4.9,0,0,1,1.49,3.59v20.07a4.92,4.92,0,0,1-1.49,3.59l-8,8H391.92a4.91,4.91,0,0,1,.63-.75l49.22-49.22a4.9,4.9,0,0,1,3.59-1.49h20.07A4.93,4.93,0,0,1,469,80.11Z"/><path class="cls-6" d="M474.84,80.11l14.73,14.74a4.9,4.9,0,0,1,1.49,3.59v20.07a4.92,4.92,0,0,1-1.49,3.59l-49.22,49.22a4.9,4.9,0,0,1-3.59,1.49H416.7a4.88,4.88,0,0,1-3.59-1.49l-14.74-14.74a4.88,4.88,0,0,1-1.49-3.59V132.93a4.9,4.9,0,0,1,1.49-3.59l49.22-49.22a4.9,4.9,0,0,1,3.59-1.49h20.07A5,5,0,0,1,474.84,80.11Z"/><path class="cls-4" d="M472.44,82.51a1.5,1.5,0,0,0-1.19-.5H451.18a1.53,1.53,0,0,0-1.19.5l-49.23,49.22a1.56,1.56,0,0,0-.49,1.2V153a1.54,1.54,0,0,0,.49,1.2l14.74,14.74a1.54,1.54,0,0,0,1.2.49h20.06a1.52,1.52,0,0,0,1.19-.49l49.23-49.23a1.53,1.53,0,0,0,.5-1.19V98.44a1.57,1.57,0,0,0-.5-1.2L472.44,82.51Zm-1.19,1.2L486,98.44V118.5l-49.22,49.23H416.7L402,153V132.93l49.22-49.22Z"/><path class="cls-4" d="M452,86.28h16.64a2.88,2.88,0,0,1,2.87,2.87h0A2.87,2.87,0,0,1,468.66,92H452a2.86,2.86,0,0,1-2.86-2.86h0A2.87,2.87,0,0,1,452,86.28Z"/><path class="cls-7" d="M452.06,86.28h10.86a2.87,2.87,0,0,1,2.86,2.87h0A2.86,2.86,0,0,1,462.92,92H452.06a2.86,2.86,0,0,1-2.86-2.86h0A2.87,2.87,0,0,1,452.06,86.28Z"/><rect class="cls-11" x="408.1" y="124.5" width="71.66" height="1.59"/><path class="cls-5" d="M410.18,136.4a2.68,2.68,0,1,0-2.68-2.68A2.69,2.69,0,0,0,410.18,136.4Z"/><path class="cls-5" d="M422.94,136.4a2.68,2.68,0,1,0-2.68-2.68A2.68,2.68,0,0,0,422.94,136.4Z"/><path class="cls-5" d="M435.7,136.4a2.68,2.68,0,1,0-2.68-2.68A2.68,2.68,0,0,0,435.7,136.4Z"/><path class="cls-5" d="M448.47,136.4a2.68,2.68,0,1,0-2.68-2.68A2.69,2.69,0,0,0,448.47,136.4Z"/><path class="cls-5" d="M461.23,136.4a2.68,2.68,0,1,0-2.68-2.68A2.68,2.68,0,0,0,461.23,136.4Z"/><path class="cls-5" d="M410.18,148.39a2.68,2.68,0,1,0-2.68-2.68A2.69,2.69,0,0,0,410.18,148.39Z"/><path class="cls-5" d="M422.94,148.39a2.68,2.68,0,1,0-2.68-2.68A2.69,2.69,0,0,0,422.94,148.39Z"/><path class="cls-5" d="M435.7,148.39a2.68,2.68,0,1,0-2.68-2.68A2.69,2.69,0,0,0,435.7,148.39Z"/><path class="cls-5" d="M448.47,148.39a2.68,2.68,0,1,0-2.68-2.68A2.69,2.69,0,0,0,448.47,148.39Z"/><path class="cls-5" d="M422.94,160.44a2.68,2.68,0,1,0-2.68-2.68A2.69,2.69,0,0,0,422.94,160.44Z"/><circle class="cls-3" cx="435.7" cy="157.76" r="2.68"/><path class="cls-5" d="M427.73,120.2a2.68,2.68,0,1,0-2.67-2.68A2.68,2.68,0,0,0,427.73,120.2Z"/><path class="cls-5" d="M440.43,120.2a2.68,2.68,0,1,0-2.68-2.68A2.68,2.68,0,0,0,440.43,120.2Z"/><path class="cls-5" d="M453.13,120.2a2.68,2.68,0,1,0-2.68-2.68A2.69,2.69,0,0,0,453.13,120.2Z"/><path class="cls-5" d="M465.83,120.2a2.68,2.68,0,1,0-2.68-2.68A2.69,2.69,0,0,0,465.83,120.2Z"/><path class="cls-5" d="M478.52,120.2a2.68,2.68,0,1,0-2.67-2.68A2.68,2.68,0,0,0,478.52,120.2Z"/><path class="cls-5" d="M440.43,109.09a2.68,2.68,0,1,0-2.68-2.68A2.68,2.68,0,0,0,440.43,109.09Z"/><path class="cls-5" d="M453.13,109.09a2.68,2.68,0,1,0-2.68-2.68A2.69,2.69,0,0,0,453.13,109.09Z"/><path class="cls-5" d="M465.83,109.09a2.68,2.68,0,1,0-2.68-2.68A2.69,2.69,0,0,0,465.83,109.09Z"/><path class="cls-5" d="M478.52,109.09a2.68,2.68,0,1,0-2.67-2.68A2.68,2.68,0,0,0,478.52,109.09Z"/><path class="cls-6" d="M411.58,136.47a2.68,2.68,0,1,0-2.68-2.68A2.69,2.69,0,0,0,411.58,136.47Z"/><path class="cls-6" d="M424.34,136.47a2.68,2.68,0,1,0-2.68-2.68A2.69,2.69,0,0,0,424.34,136.47Z"/><path class="cls-6" d="M437.1,136.47a2.68,2.68,0,1,0-2.68-2.68A2.69,2.69,0,0,0,437.1,136.47Z"/><path class="cls-6" d="M449.87,136.47a2.68,2.68,0,1,0-2.68-2.68A2.69,2.69,0,0,0,449.87,136.47Z"/><path class="cls-6" d="M462.63,136.47a2.68,2.68,0,1,0-2.68-2.68A2.69,2.69,0,0,0,462.63,136.47Z"/><path class="cls-6" d="M411.58,148.45a2.68,2.68,0,1,0-2.68-2.68A2.69,2.69,0,0,0,411.58,148.45Z"/><path class="cls-6" d="M424.34,148.45a2.68,2.68,0,1,0-2.68-2.68A2.69,2.69,0,0,0,424.34,148.45Z"/><path class="cls-6" d="M437.1,148.45a2.68,2.68,0,1,0-2.68-2.68A2.68,2.68,0,0,0,437.1,148.45Z"/><path class="cls-6" d="M449.87,148.45a2.68,2.68,0,1,0-2.68-2.68A2.69,2.69,0,0,0,449.87,148.45Z"/><path class="cls-6" d="M424.34,160.5a2.68,2.68,0,1,0-2.68-2.68A2.69,2.69,0,0,0,424.34,160.5Z"/><path class="cls-6" d="M437.1,160.5a2.68,2.68,0,1,0-2.68-2.68A2.68,2.68,0,0,0,437.1,160.5Z"/><path class="cls-6" d="M429.19,120.2a2.68,2.68,0,1,0-2.68-2.68A2.69,2.69,0,0,0,429.19,120.2Z"/><path class="cls-6" d="M441.89,120.2a2.68,2.68,0,1,0-2.68-2.68A2.69,2.69,0,0,0,441.89,120.2Z"/><path class="cls-6" d="M454.58,120.2a2.68,2.68,0,1,0-2.68-2.68A2.68,2.68,0,0,0,454.58,120.2Z"/><path class="cls-6" d="M467.28,120.2a2.68,2.68,0,1,0-2.68-2.68A2.68,2.68,0,0,0,467.28,120.2Z"/><path class="cls-6" d="M480,120.2a2.68,2.68,0,1,0-2.68-2.68A2.69,2.69,0,0,0,480,120.2Z"/><path class="cls-6" d="M441.89,109.09a2.68,2.68,0,1,0-2.68-2.68A2.69,2.69,0,0,0,441.89,109.09Z"/><path class="cls-6" d="M454.58,109.09a2.68,2.68,0,1,0-2.68-2.68A2.68,2.68,0,0,0,454.58,109.09Z"/><path class="cls-6" d="M467.28,109.09a2.68,2.68,0,1,0-2.68-2.68A2.68,2.68,0,0,0,467.28,109.09Z"/><path class="cls-6" d="M480,109.09a2.68,2.68,0,1,0-2.68-2.68A2.69,2.69,0,0,0,480,109.09Z"/><path class="cls-5" d="M141.61,430.77H141a1.72,1.72,0,0,0-1.72,1.72v3.35h4.05v-3.35A1.72,1.72,0,0,0,141.61,430.77Z"/><path class="cls-7" d="M140.29,435.84h3v-3.35a1.53,1.53,0,1,0-3,0Z"/><rect class="cls-12" x="135.75" y="487.17" width="10.34" height="4.58" rx="2.29"/><path class="cls-4" d="M140.79,478.83l-5.67,9.81a5.06,5.06,0,0,1-6.89,1.84h0a5.06,5.06,0,0,1-1.84-6.89l5.66-9.81a5.06,5.06,0,0,1,6.9-1.85h0A5.07,5.07,0,0,1,140.79,478.83Z"/><rect class="cls-12" x="132.39" y="470.42" width="10.1" height="21.42" rx="5.05"/><rect class="cls-12" x="127.89" y="456.76" width="16.09" height="21.42" rx="8.04"/><path class="cls-7" d="M130.64,432.42h14.64V440A7.34,7.34,0,0,1,138,447.3h0a7.34,7.34,0,0,1-7.32-7.32Z"/><path class="cls-13" d="M130.64,432.42h11.15V440a7.35,7.35,0,0,1-5.57,7.11,7.35,7.35,0,0,1-5.58-7.11Z"/><path class="cls-13" d="M131.33,443.26h9v7.06a4.49,4.49,0,0,1-4.48,4.47h0a4.49,4.49,0,0,1-4.48-4.47Z"/><rect class="cls-11" x="128.57" y="430.69" width="10.56" height="11.97" rx="4.41"/><rect class="cls-11" x="133.46" y="426.64" width="13.5" height="9.16" rx="3.82"/><rect class="cls-12" x="133.13" y="428.78" width="7.41" height="8.41" rx="3.09"/><rect class="cls-14" x="137.03" y="436.39" width="4.16" height="4.72" rx="1.73"/><rect class="cls-2" x="124.9" y="445.26" width="19.42" height="25.53" rx="9.71"/><path class="cls-7" d="M143.88,452.09a9.48,9.48,0,0,1,.44,2.88v6.12a11.11,11.11,0,0,1-.07,1.16l-5-2.87a4.31,4.31,0,0,1-1.58-5.88h0a4.32,4.32,0,0,1,5.88-1.58Z"/><path class="cls-1" d="M134.61,445.26h0a9.54,9.54,0,0,1,1.86.18,10,10,0,0,0-6.8,9.45v6.28a10,10,0,0,0,6.8,9.44,9.54,9.54,0,0,1-1.86.18h0a9.73,9.73,0,0,1-9.71-9.7V455A9.74,9.74,0,0,1,134.61,445.26Z"/><rect class="cls-12" x="136.12" y="487.17" width="7.69" height="4.58" rx="2.29"/><rect class="cls-9" x="124.51" y="52.71" width="14.06" height="3.77" rx="1.89"/><rect class="cls-17" x="124.51" y="58.85" width="8.89" height="3.77" rx="1.89"/><rect class="cls-17" x="124.51" y="64.49" width="8.89" height="3.77" rx="1.89"/><rect class="cls-9" x="146.99" y="32.9" width="31.99" height="3.77" rx="1.89"/><rect class="cls-17" x="146.99" y="26.23" width="7.99" height="3.78" rx="1.89"/><rect class="cls-17" x="226.23" y="38.48" width="7.99" height="3.77" rx="1.89"/><rect class="cls-3" x="578.21" y="83.49" width="4.93" height="308.91" rx="2.47"/><rect class="cls-3" x="576.53" y="360.02" width="8.28" height="59.82" rx="4.14"/><path class="cls-5" d="M579.87,428.43a5.36,5.36,0,0,0-3.69,9.25,4.35,4.35,0,0,0,.19,2.91l3.54,4.9A3.66,3.66,0,1,1,576,451h0a19.58,19.58,0,0,1-2.19-4.8,9,9,0,0,0-1.79-2.49s-.86-1.05-1.86-.46.85,1.68.52,3h0a8.9,8.9,0,1,0,13-4.78h0s-2.17-1.29-2.28-2.51a5.37,5.37,0,0,0-1.56-10.5Zm0,3a2.36,2.36,0,1,1-2.35,2.36A2.36,2.36,0,0,1,579.87,431.43Z"/><path class="cls-5" d="M573.9,404.88H587a5.39,5.39,0,0,1,5.38,5.38V419a12,12,0,0,1-11.94,11.94h0A12,12,0,0,1,568.51,419v-8.74A5.4,5.4,0,0,1,573.9,404.88Z"/><path class="cls-7" d="M572.75,416.07l6.6-6.6a2.48,2.48,0,0,1,3.51,0h0a2.49,2.49,0,0,1,0,3.52l-6.59,6.59a2.49,2.49,0,0,1-3.52,0h0A2.5,2.5,0,0,1,572.75,416.07Z"/><path class="cls-7" d="M578.18,421.49l6.59-6.6a2.5,2.5,0,0,1,3.51,0h0a2.49,2.49,0,0,1,0,3.52L581.69,425a2.48,2.48,0,0,1-3.51,0h0A2.48,2.48,0,0,1,578.18,421.49Z"/><path class="cls-8" d="M22.2,274.72l5-8.73a1,1,0,0,0-.9-1.56H16.26a1,1,0,0,0-.9,1.56l5,8.73a1,1,0,0,0,1.8,0Z"/><rect class="cls-9" x="31.59" y="256.03" width="14.06" height="3.78" rx="1.89"/><rect class="cls-17" x="31.59" y="262.17" width="8.89" height="3.77" rx="1.89"/><rect class="cls-2" x="560.67" y="138.16" width="14.06" height="3.77" rx="1.89"/><rect class="cls-9" x="560.67" y="144.45" width="7.03" height="3.77" rx="1.89"/><rect class="cls-9" x="568.8" y="144.45" width="3.52" height="3.77" rx="1.76"/><path class="cls-8" d="M330.87,146.22,337,140.1a2.54,2.54,0,0,0-3.59-3.59l-6.12,6.12a2.54,2.54,0,1,0,3.59,3.59Z"/><path class="cls-5" d="M328.08,257.26l-.92,5.05-.4,2.22h5.15l-4.91,5-4.91,5.05.93-5.05.4-2.21h-5.15l4.9-5.05,4.91-5.05Zm-1.53,21a19.32,19.32,0,0,1,9.74,0c-4.42,1.86-9.6,4.16-15.11,6.85a2,2,0,0,0-1.73.84c-1.28.63-2.57,1.28-3.86,1.95l0-.11c-.85-3.68,4.07-8,11-9.56Zm11.06.53-14.17,6.69c1.64.58,2.71,1.72,2.43,2.62s-2,1.28-3.76.74a4.72,4.72,0,0,1-2.45-1.57L316,289c1,1.62,3.29,2.7,6.18,3.07,2.51-1.95,5-3.8,7.41-5.55a4.09,4.09,0,0,1,1.53-3c1.36-1.28,3-1.72,3.7-1a1,1,0,0,1,.13.16c1.46-1,2.88-2,4.24-2.89a7.24,7.24,0,0,0-1.62-1Zm2.39,1.88-5,3.6a5.28,5.28,0,0,1-1.34,1.9,4,4,0,0,1-3.14,1.31l-6.56,4.7h.58c-1.14,1-1.73,2.12-1.48,3.17a2.13,2.13,0,0,0,.42.87l2.54-.67-.78-3.38c.47,0,.95-.05,1.43-.1l.73,3.14,2.26-.55-.68-2.94.69-.14.69-.17.68,2.94,2.27-.51-.73-3.14c.45-.17.9-.34,1.33-.54l.78,3.39c.87-.18,1.73-.36,2.58-.52a2.27,2.27,0,0,0,0-1c-.25-1-1.27-1.81-2.73-2.2,4.19-2.05,6.75-5.11,6.11-7.85a3.83,3.83,0,0,0-.61-1.35Zm0-5.85a2.15,2.15,0,0,0,.79.32,3.75,3.75,0,0,0,3.75-1.48,1.63,1.63,0,0,0-1.22-2.57,3.71,3.71,0,0,0-2.17.24,3,3,0,0,0-.67-2,1.41,1.41,0,0,0-2.41.11,2.94,2.94,0,0,0,.31,3.27,2.37,2.37,0,0,0,.37.34l-2.23,3.56a14.49,14.49,0,0,1,2,.56l1.46-2.35ZM313,281.07l2.34,1.46a16.62,16.62,0,0,1,1.57-1.38l-3.56-2.23a1.92,1.92,0,0,0,.18-.46,2.94,2.94,0,0,0-1.16-3.07,1.42,1.42,0,0,0-2.22,1,3,3,0,0,0,.28,2.08,3.71,3.71,0,0,0-2,.75,1.63,1.63,0,0,0,0,2.84,3.75,3.75,0,0,0,4-.31A2.25,2.25,0,0,0,313,281.07Z"/><path class="cls-8" d="M376.51,32.37h0a2.12,2.12,0,0,1,0,3l-3.23,3.23a2.11,2.11,0,0,1-3,0h0a2.11,2.11,0,0,1,0-3l3.24-3.24A2.11,2.11,0,0,1,376.51,32.37Z"/><path class="cls-8" d="M21.78,261.56l2.69-4.66a.52.52,0,0,0,0-.56.53.53,0,0,0-.48-.28H18.61a.54.54,0,0,0-.48.28.56.56,0,0,0,0,.56l2.69,4.66a.55.55,0,0,0,.48.27A.54.54,0,0,0,21.78,261.56Z"/><rect class="cls-17" x="436.92" y="288.34" width="8.89" height="3.77" rx="1.89"/><path class="cls-6" d="M105.44,221.62l-21.3,21.3v7.7a2.15,2.15,0,0,1-4.3,0V242a2.16,2.16,0,0,1,.63-1.52L103,218a2.13,2.13,0,0,1,1.52-.63h10.56a2.15,2.15,0,1,1,0,4.29Z"/><path class="cls-4" d="M416.15,348.2l-14.4-14.4h-5.2a1.45,1.45,0,1,1,0-2.9h5.8a1.45,1.45,0,0,1,1,.42l15.25,15.25a1.5,1.5,0,0,1,.43,1v7.14a1.46,1.46,0,0,1-2.91,0Z"/><path class="cls-1" d="M164,108.09a.59.59,0,0,1,.49.35c.08.19,0,.34-.2.34H161l1.37,3.16h-.69l-1.51-3.5c-.08-.19,0-.35.19-.35ZM188,171.38l1.47,3.4h2.94a.59.59,0,0,1,.49.35c.08.19,0,.34-.19.34h-3.29a.61.61,0,0,1-.49-.34l-1.61-3.75Z"/><path class="cls-1" d="M222.24,108.09c-.2,0-.28.16-.2.35a.58.58,0,0,0,.49.34h3.24l1.37,3.16h.68l-1.52-3.5a.59.59,0,0,0-.49-.35ZM253,171.38l1.48,3.4h-2.94c-.19,0-.28.16-.19.35a.58.58,0,0,0,.49.34h3.28c.19,0,.28-.15.19-.34l-1.63-3.75Z"/><polygon class="cls-1" points="166.88 122.36 183.53 160.95 182.85 160.95 166.19 122.36 166.88 122.36"/><polygon class="cls-1" points="231.67 122.36 248.46 160.95 249.15 160.95 232.36 122.36 231.67 122.36"/><rect class="cls-2" x="167.02" y="111.28" width="7.48" height="1.24" rx="0.62"/><rect class="cls-2" x="168.26" y="113.89" width="5.1" height="1.24" rx="0.62"/><rect class="cls-2" x="215.93" y="111.28" width="7.48" height="1.24" rx="0.62"/><rect class="cls-2" x="191.02" y="171.46" width="5.1" height="1.24" rx="0.62"/><path class="cls-1" d="M198.51,116c6.8,0,13.75,2.75,19.48,7.2a34.87,34.87,0,0,1,12.21,17.4c2,6.79,1,12.95-2.21,17.4s-8.53,7.21-15.32,7.21-13.74-2.76-19.48-7.21A34.78,34.78,0,0,1,181,140.55c-1.95-6.79-1-12.94,2.21-17.39s8.53-7.21,15.32-7.21Zm.22.73c-6.59,0-11.79,2.68-14.87,7s-4,10.28-2.14,16.87a33.74,33.74,0,0,0,11.85,16.88c5.56,4.32,12.29,7,18.89,7s11.78-2.67,14.86-7,4-10.29,2.14-16.88a33.7,33.7,0,0,0-11.84-16.88C212.06,119.36,205.32,116.68,198.73,116.68Z"/><rect class="cls-2" x="187.96" y="142.13" width="30.77" height="0.65" rx="0.32"/><rect class="cls-2" x="192.5" y="119.81" width="7.48" height="1.24" rx="0.62"/><rect class="cls-2" x="196.27" y="122" width="3.74" height="1.24" rx="0.62"/><rect class="cls-2" x="200.53" y="122" width="1.35" height="1.24" rx="0.62"/><rect class="cls-2" x="190.28" y="169.18" width="3.6" height="1.24" rx="0.62"/><rect class="cls-2" x="204.65" y="179.69" width="32.1" height="3.7" rx="1.85"/><rect class="cls-11" x="198.6" y="181.19" width="47.43" height="4.4" rx="2.2"/><rect class="cls-3" x="200.27" y="181.19" width="40.96" height="4.4" rx="2.2"/><path class="cls-5" d="M272.24,300.52l9.06-9a5,5,0,0,1,7,0h0a5,5,0,0,1,0,7l-9.05,9a5,5,0,0,1-7,0h0A5,5,0,0,1,272.24,300.52Z"/><path class="cls-5" d="M270.31,302.45l9.05-9.05a5,5,0,0,1,7,0h0a5,5,0,0,1,0,7l-9.06,9a5,5,0,0,1-7,0h0A5,5,0,0,1,270.31,302.45Z"/><path class="cls-5" d="M271.74,303.88a2.93,2.93,0,0,0,4.15,4.15l9.05-9a2.93,2.93,0,1,0-4.15-4.15Z"/><path class="cls-4" d="M277.86,306.06l7.08-7.08a2.93,2.93,0,1,0-4.15-4.15l-7.08,7.08a2.93,2.93,0,1,0,4.15,4.15Z"/><path class="cls-8" d="M279.18,303.62l5.18-5.18a2.15,2.15,0,1,0-3-3l-5.19,5.19a2.15,2.15,0,1,0,3,3Z"/><path class="cls-1" d="M278.56,302.62l2.65-2.65a1.1,1.1,0,0,0-1.56-1.55L277,301.07a1.09,1.09,0,0,0,0,1.55A1.11,1.11,0,0,0,278.56,302.62Z"/><path class="cls-5" d="M534.58,154l-9.67,9.67a5.31,5.31,0,0,1-7.49,0h0a5.3,5.3,0,0,1,0-7.48l9.68-9.68a5.3,5.3,0,0,1,7.48,0h0A5.31,5.31,0,0,1,534.58,154Z"/><path class="cls-5" d="M536.65,152,527,161.64a5.32,5.32,0,0,1-7.48,0h0a5.31,5.31,0,0,1,0-7.49l9.68-9.68a5.3,5.3,0,0,1,7.48,0h0A5.31,5.31,0,0,1,536.65,152Z"/><path class="cls-5" d="M535.13,150.43a3.14,3.14,0,1,0-4.44-4.43L521,155.67a3.14,3.14,0,0,0,4.44,4.44Z"/><path class="cls-4" d="M528.58,148.11,521,155.67a3.14,3.14,0,0,0,4.44,4.44l7.57-7.57a3.14,3.14,0,0,0-4.44-4.43Z"/><path class="cls-8" d="M527.17,150.71l-5.54,5.54a2.29,2.29,0,0,0,3.24,3.25l5.54-5.54a2.29,2.29,0,1,0-3.24-3.25Z"/><path class="cls-1" d="M525.54,153.92l-2.83,2.83a1.19,1.19,0,0,0,0,1.66,1.17,1.17,0,0,0,1.66,0l2.83-2.83a1.17,1.17,0,0,0,0-1.66A1.19,1.19,0,0,0,525.54,153.92Z"/><path class="cls-1" d="M333.66,141.27l2.43-2.43a1,1,0,0,0-1.43-1.42l-2.43,2.43a1,1,0,0,0,0,1.42A1,1,0,0,0,333.66,141.27Z"/><path class="cls-8" d="M320.56,150.84a3.91,3.91,0,0,0,1.05,1.9,4,4,0,0,0,5.58,0l12.2-12.2a4,4,0,0,0,.81-4.41,4,4,0,0,1-1.05,3.7L327,152a4,4,0,0,1-5.59,0A3.77,3.77,0,0,1,320.56,150.84Z"/><path class="cls-7" d="M395.16,103.17h1.06a36.67,36.67,0,0,0-36.1,36.56h0a36.67,36.67,0,0,0,36.1,36.55h-1.06a36.67,36.67,0,0,1-36.57-36.56h0A36.67,36.67,0,0,1,395.16,103.17Z"/><path class="cls-4" d="M251.14,492.24a9.07,9.07,0,0,0,2.39-17.82h0l-42.92-13h0a16,16,0,0,0-4.61-.68,15.77,15.77,0,1,0,0,31.53h45.14Z"/><path class="cls-4" d="M209.38,401.29h0A12.43,12.43,0,0,1,219,415.91l-14.57,71.26a12.41,12.41,0,0,1-14.61,9.65h0a12.41,12.41,0,0,1-9.65-14.61L194.76,411A12.43,12.43,0,0,1,209.38,401.29Z"/><path class="cls-5" d="M196.11,417.68h0a5.87,5.87,0,0,1,4.56,6.89l-6.87,33.6a5.86,5.86,0,0,1-6.89,4.55h0a5.85,5.85,0,0,1-4.55-6.89l6.86-33.59A5.86,5.86,0,0,1,196.11,417.68Z"/><path class="cls-8" d="M535.26,378.77a5.05,5.05,0,0,0,4.08,2.08h5V375.8a5,5,0,0,0-2.71-4.46,5,5,0,0,1,1,3v5h-5A5,5,0,0,1,535.26,378.77Z"/><path class="cls-4" d="M208,289.42h1.91a26.84,26.84,0,0,1-26.77-26.76h0a26.85,26.85,0,0,1,26.77-26.77H208a26.84,26.84,0,0,0-26.76,26.77h0A26.84,26.84,0,0,0,208,289.42Z"/><path class="cls-5" d="M260.75,92.14h-6.89a8,8,0,0,1,.62-.69l1-1h6.88l-1,1a7.92,7.92,0,0,0-.61.69Zm-3.1-3.86,3.21-3.21h6.88l-3.21,3.21Zm8.59-8.6,3-3h6.89l-3,3ZM279,67l6.25-6.25a20.23,20.23,0,0,1,15.31-5.89h4.94a20.19,20.19,0,0,0-13.37,5.89L285.84,67Z"/><path class="cls-1" d="M397.67,258h0a1.3,1.3,0,0,1,0,1.84l-2.4,2.41a1.31,1.31,0,0,1-1.85,0h0a1.31,1.31,0,0,1,0-1.85l2.41-2.4A1.3,1.3,0,0,1,397.67,258Z"/><rect class="cls-15" x="142.54" y="452.04" width="15.97" height="8.61" rx="4.31"/><path class="cls-1" d="M142.15,449l6.38,3.68a4.32,4.32,0,0,1,1.57,5.89h0a4.31,4.31,0,0,1-5.88,1.57l-6.38-3.68a4.31,4.31,0,0,1-1.57-5.88h0A4.32,4.32,0,0,1,142.15,449Z"/><path class="cls-8" d="M435.78,270.74l-3.2,5.53a.65.65,0,0,0,0,.66.64.64,0,0,0,.57.33h6.4a.64.64,0,0,0,.57-.33.65.65,0,0,0,0-.66l-3.2-5.53a.66.66,0,0,0-1.14,0Z"/><path class="cls-8" d="M313.27,184.84l4.48-5.84a4.31,4.31,0,0,1,6-.79h0a4.31,4.31,0,0,1,.79,6l-4.48,5.83a4.32,4.32,0,0,1-6,.8h0A4.31,4.31,0,0,1,313.27,184.84Z"/><path class="cls-7" d="M312.93,185.65l4.49-5.84a4.3,4.3,0,0,1,6-.79h0a4.33,4.33,0,0,1,.79,6l-4.48,5.83a4.32,4.32,0,0,1-6,.8h0A4.32,4.32,0,0,1,312.93,185.65Z"/><path class="cls-7" d="M307.64,187.5l6.8-2.81a4.3,4.3,0,0,1,5.62,2.33h0a4.32,4.32,0,0,1-2.33,5.63l-6.8,2.81a4.32,4.32,0,0,1-5.63-2.33h0A4.33,4.33,0,0,1,307.64,187.5Z"/><path class="cls-8" d="M304.63,166.44l.76-.76,5.34,5.34a7.33,7.33,0,0,1,0,10.35h0l-.39.37a7.35,7.35,0,0,0-.37-10Z"/><path class="cls-1" d="M443.88,20.06h-.81v7.55a7.35,7.35,0,0,0,7.33,7.33h0l.4,0a7.34,7.34,0,0,1-6.92-7.31Z"/><rect class="cls-12" x="441.91" y="14.28" width="13.5" height="9.16" rx="3.82"/><rect class="cls-3" x="448.33" y="16.42" width="7.41" height="8.41" rx="3.09"/><rect class="cls-9" x="143.56" y="407.37" width="8.89" height="3.77" rx="1.89"/><rect class="cls-17" x="143.56" y="413.01" width="8.89" height="3.77" rx="1.89"/><rect class="cls-15" x="560.93" y="310.62" width="11.82" height="8.38" rx="4.15"/><path class="cls-8" d="M550,319.21a7.5,7.5,0,0,1,6.07-3.1h7.5v7.5a7.53,7.53,0,0,1-4,6.64,7.47,7.47,0,0,0,1.44-4.4v-7.5h-7.5A7.44,7.44,0,0,0,550,319.21Z"/><path class="cls-4" d="M358.45,468.85l-4.17-4.45A8.79,8.79,0,0,1,354.7,452h0a8.79,8.79,0,0,1,12.37.42l4.16,4.46a8.78,8.78,0,0,0-12.36-.42h0A8.76,8.76,0,0,0,358.45,468.85Z"/><path class="cls-4" d="M350.64,455.71,348,452.92a5.51,5.51,0,0,1,.27-7.75h0a5.5,5.5,0,0,1,7.74.27l2.61,2.79a5.49,5.49,0,0,0-7.74-.26h0A5.49,5.49,0,0,0,350.64,455.71Z"/></g></g></svg>