<svg xmlns="http://www.w3.org/2000/svg" xmlns:xlink="http://www.w3.org/1999/xlink" viewBox="0 0 663.34 131.54"><defs><style>.cls-1{fill:url(#New_Gradient_Swatch_1);}.cls-2{fill:url(#New_Gradient_Swatch_1-2);}.cls-3{fill:url(#New_Gradient_Swatch_1-3);}.cls-4{fill:url(#New_Gradient_Swatch_1-4);}.cls-5{fill:url(#New_Gradient_Swatch_1-5);}.cls-6{fill:url(#New_Gradient_Swatch_1-6);}.cls-7{fill:url(#New_Gradient_Swatch_1-7);}.cls-8{fill:url(#New_Gradient_Swatch_1-8);}.cls-9{fill:url(#New_Gradient_Swatch_1-9);}.cls-10{fill:url(#New_Gradient_Swatch_1-10);}.cls-11{fill:url(#New_Gradient_Swatch_1-11);}.cls-12{fill:url(#New_Gradient_Swatch_1-12);}.cls-13{fill:url(#New_Gradient_Swatch_1-13);}</style><linearGradient id="New_Gradient_Swatch_1" x1="559.78" y1="36.93" x2="318.21" y2="84.74" gradientUnits="userSpaceOnUse"><stop offset="0" stop-color="#fff33b"/><stop offset="0.04" stop-color="#fce137"/><stop offset="0.11" stop-color="#f6c631"/><stop offset="0.19" stop-color="#f2b02c"/><stop offset="0.28" stop-color="#ef9f28"/><stop offset="0.39" stop-color="#ed9425"/><stop offset="0.55" stop-color="#eb8d23"/><stop offset="1" stop-color="#eb8b23"/><stop offset="1" stop-color="#e93e3a"/></linearGradient><linearGradient id="New_Gradient_Swatch_1-2" x1="569.97" y1="88.41" x2="328.4" y2="136.22" xlink:href="#New_Gradient_Swatch_1"/><linearGradient id="New_Gradient_Swatch_1-3" x1="571.22" y1="94.72" x2="329.65" y2="142.53" xlink:href="#New_Gradient_Swatch_1"/><linearGradient id="New_Gradient_Swatch_1-4" x1="572.05" y1="98.94" x2="330.48" y2="146.75" xlink:href="#New_Gradient_Swatch_1"/><linearGradient id="New_Gradient_Swatch_1-5" x1="573.01" y1="103.81" x2="331.44" y2="151.62" xlink:href="#New_Gradient_Swatch_1"/><linearGradient id="New_Gradient_Swatch_1-6" x1="573.89" y1="108.25" x2="332.32" y2="156.06" xlink:href="#New_Gradient_Swatch_1"/><linearGradient id="New_Gradient_Swatch_1-7" x1="574.64" y1="112.01" x2="333.07" y2="159.83" xlink:href="#New_Gradient_Swatch_1"/><linearGradient id="New_Gradient_Swatch_1-8" x1="575.44" y1="116.08" x2="333.87" y2="163.89" xlink:href="#New_Gradient_Swatch_1"/><linearGradient id="New_Gradient_Swatch_1-9" x1="576.27" y1="120.25" x2="334.7" y2="168.06" xlink:href="#New_Gradient_Swatch_1"/><linearGradient id="New_Gradient_Swatch_1-10" x1="577.35" y1="125.72" x2="335.78" y2="173.53" xlink:href="#New_Gradient_Swatch_1"/><linearGradient id="New_Gradient_Swatch_1-11" x1="544.53" y1="-40.1" x2="302.96" y2="7.71" xlink:href="#New_Gradient_Swatch_1"/><linearGradient id="New_Gradient_Swatch_1-12" x1="549.59" y1="-14.56" x2="308.02" y2="33.25" xlink:href="#New_Gradient_Swatch_1"/><linearGradient id="New_Gradient_Swatch_1-13" x1="556.2" y1="18.85" x2="314.63" y2="66.66" xlink:href="#New_Gradient_Swatch_1"/></defs><g id="Layer_2" data-name="Layer 2"><g id="Layer_1-2" data-name="Layer 1"><path class="cls-1" d="M662.58,58.65c-1.06-1.24-2.82-2.77-4.46-3.08-2-.38-3.3,1.6-4.45,2.84-.34.37-.68.73-1,1.09C645.16,67.21,627,82.34,616.8,71a14.21,14.21,0,0,1-3.36-9.23c-.05-1.1.07-1.11,1.15-1.38a59,59,0,0,0,7.48-2.07,60.14,60.14,0,0,0,18.64-12c4.27-3.92,7.87-8.35,9.43-14.1A12.13,12.13,0,0,0,649,22.3c-2.61-4.31-6.78-6-11.53-6.59-5.68-.67-10.9.89-15.75,3.74-9.27,5.44-15.94,13.28-20.7,22.81a44.36,44.36,0,0,0-4.11,12.1,36.46,36.46,0,0,1-7.06-.61c-5.85-1-8-4-7.91-5.61.43-.69.84-1.37,1.26-2.06a74.73,74.73,0,0,0,7.47-15.33,6.92,6.92,0,0,0-.13-5.57,17.28,17.28,0,0,0-10.62-8.57c-2.09-.66-2.7-.11-3.37,2-.76,2.4-1.55,4.79-2.46,7.13a170.22,170.22,0,0,1-8.78,18.76c-5,9.26-10.07,18.47-16.25,27A62.25,62.25,0,0,1,544.38,77a1.76,1.76,0,0,1-1.53.46c-.36-.16-.62-1-.61-1.47a20.11,20.11,0,0,1,.35-3.63,106,106,0,0,1,4.63-15.39c2.39-6.63,5-13.19,6.37-20.14a11.1,11.1,0,0,0-.37-6.3,16.41,16.41,0,0,0-6.46-7.6A15.06,15.06,0,0,0,539.68,20c-2-.19-3,.61-3.17,2.65-.14,1.72-.21,3.44-.4,5.14-.23,2-.51,4-.86,5.92-.43,2.42-.92,4.83-1.44,7.24-.57,2.68-1.19,5.35-1.82,8-.94,4-1.78,7-2.74,11a9.5,9.5,0,0,1-2.44,4.57c-1.19,1-2.28,2.2-3.49,3.24-3.64,3.11-9,6.38-14,5-4.29-1.2-4.71-5.9-4.05-9.67,1-5.75,8.12-16.44,11.18-21.39a3.72,3.72,0,0,0,0-4.39,13.53,13.53,0,0,0-4.88-4.54,14.58,14.58,0,0,0-4.06-1.58c-2.36-.47-4.2.59-5.72,2.42-8,9.7-20.79,24.13-30.5,32.14A32.94,32.94,0,0,1,463,71.25c-1,.39-2,.74-2.92,0s-.69-2-.47-3a26.15,26.15,0,0,1,3.05-7.32,64.54,64.54,0,0,1,13.15-16.28,73.21,73.21,0,0,1,23-14.57c2.57-1,5.23-1.77,7.86-2.61,1.21-.39,1.56-.76,1.48-2a8.11,8.11,0,0,0-1.69-4.18c-2.33-3.29-5.31-5.59-9.54-5.66a31.71,31.71,0,0,0-10.44,1.73,50.72,50.72,0,0,0-16.66,9.59c-1.6,1.34-3.13,2.73-4.61,4.18-5.11,1-21.5-.06-22.71-8.07a7,7,0,0,0-.57-1.45c-2.37-4.85-6.42-7.49-11.58-8.53-2-.39-2.76.45-3.16,2.44a206,206,0,0,1-7.68,28.91c-3,8.21-7,16.65-13.56,22.58l-.57.5A11.14,11.14,0,0,1,399,70.33a3.3,3.3,0,0,1-3.67-2.23,8.32,8.32,0,0,1-.64-3.3,58,58,0,0,1,1.12-8.32A98.8,98.8,0,0,1,401,41.25a14.58,14.58,0,0,0,1.12-3.38c.33-2.31-1.06-3.85-2.84-5-3.24-2.11-8.07-4.26-12-3.9-4.25.38-5.69,5.25-6.58,8.71-2.88,11.1-6.81,23.47-15.86,31.19a11.11,11.11,0,0,1-6.32,2.89c-10.15.88,2-30.76,3-35.22A13.71,13.71,0,0,0,361,29a18.32,18.32,0,0,0-8.36-9.69,10.91,10.91,0,0,0-5.73-1.82,2,2,0,0,0-2.07,1.28,12.76,12.76,0,0,0-.46,1.82c-2.7,13.78-7.64,27.46-8,41.77C336.17,72,338,83.76,348.93,86.21a19.74,19.74,0,0,0,11.91-1.34,45,45,0,0,0,13.92-9.31q1.71-1.62,3.33-3.31a20,20,0,0,0,1.54,4.4,14.07,14.07,0,0,0,9.86,8.13c16.73,3.75,30.15-11.42,38.38-23.89a98,98,0,0,0,12.79-26.95c4.2,3.18,15.25,4.14,18.68,3.55A83.24,83.24,0,0,0,452.61,47c-4.42,7.29-7.94,14.94-8.95,23.54a19.85,19.85,0,0,0,.9,9.18,9.29,9.29,0,0,0,9.24,6.38,21.92,21.92,0,0,0,9.38-2.53A63.49,63.49,0,0,0,477,74.25c4.59-4,9-8.07,13.57-12.11.25-.24.53-.44,1-.8-.27,1.32-.51,2.42-.73,3.52-1.1,5.42-.7,12,4.06,15.64,3.74,2.83,8.86,3.16,13.35,2.59,7.64-1,13.94-5,19.32-10.45,0,1-.08,2.07,0,3.11a20.85,20.85,0,0,0,3.06,11.06c2,3.07,4.75,4.7,8.54,4.3a17.74,17.74,0,0,0,7.05-2.53A56.94,56.94,0,0,0,558.06,79,155.9,155.9,0,0,0,575.8,57.53a28.68,28.68,0,0,0,10,4.25c3.06.67,7.34.52,10.51.43a23.35,23.35,0,0,0,.18,2.73,32.47,32.47,0,0,0,.95,4.46,21.12,21.12,0,0,0,9.49,12.15c15.51,9.38,34,.91,46.4-9.22,2.42-2,4.8-5,7.09-7.06C662.13,63.66,664.6,61,662.58,58.65ZM616.11,48a43.92,43.92,0,0,1,12.38-16.75,13.53,13.53,0,0,1,5.11-2.86,6.83,6.83,0,0,1,2.38-.16,1.67,1.67,0,0,1,1.56,1.59,6.89,6.89,0,0,1-1,4.11A33,33,0,0,1,628,43.83a48.27,48.27,0,0,1-12.12,7.36c-.24.1-.48.17-.73.26l-.23-.2C615.29,50.17,615.64,49.07,616.11,48Z"/><polygon class="cls-2" points="412.95 122.12 407.82 108.93 401.53 108.93 401.53 130.03 406.02 130.03 406.02 114.81 411.97 130.03 413.93 130.03 419.88 114.81 419.88 130.03 424.4 130.03 424.4 108.93 418.07 108.93 412.95 122.12"/><path class="cls-3" d="M439.24,108.93,431.11,130h5.1l1.33-3.57h9l1.33,3.57H453l-8.13-21.1Zm-.47,13.57,3.29-9.08,3.29,9.08Z"/><path class="cls-4" d="M476.71,115.73c0-3.92-2.72-6.8-7.12-6.8h-9.87V130h4.49v-7.5h3.29l4.15,7.5h5.18l-4.77-8A6.09,6.09,0,0,0,476.71,115.73ZM469,118.58h-4.75v-5.7H469a2.86,2.86,0,1,1,0,5.7Z"/><polygon class="cls-5" points="502.31 108.93 496.77 108.93 489.3 118.32 489.3 108.93 484.81 108.93 484.81 130.03 489.3 130.03 489.3 123.54 490.95 121.55 497.34 130.03 502.88 130.03 493.92 118.83 502.31 108.93"/><polygon class="cls-6" points="509.68 130.03 524.62 130.03 524.62 126.08 514.17 126.08 514.17 121.27 524.39 121.27 524.39 117.31 514.17 117.31 514.17 112.88 524.62 112.88 524.62 108.93 509.68 108.93 509.68 130.03"/><polygon class="cls-7" points="531.58 112.88 537.75 112.88 537.75 130.03 542.27 130.03 542.27 112.88 548.41 112.88 548.41 108.93 531.58 108.93 531.58 112.88"/><rect class="cls-8" x="556.04" y="108.93" width="4.49" height="21.1"/><polygon class="cls-9" points="585.12 122.18 575.34 108.93 570.72 108.93 570.72 130.03 575.21 130.03 575.21 116.27 585.27 130.03 589.61 130.03 589.61 108.93 585.12 108.93 585.12 122.18"/><path class="cls-10" d="M607.68,122.28h5.57v2.53a7.06,7.06,0,0,1-4.47,1.61,6.94,6.94,0,0,1,0-13.86,6.06,6.06,0,0,1,5,2.76l3.71-2a9.87,9.87,0,0,0-8.71-4.71c-6.2,0-11.26,4.24-11.26,10.91s5.06,10.92,11.26,10.92a11.69,11.69,0,0,0,9-4v-8.11H607.68Z"/><path class="cls-11" d="M80.28,4.27a62.39,62.39,0,0,0-43.14-.83C22.7,8.21,12,17.48,5.49,31.3c-5.86,12.51-6.87,25.62-3.78,39a51.72,51.72,0,0,0,22,32.22c10.22,6.93,21.68,9.76,33.07,9.86a64.22,64.22,0,0,0,23.43-4C94,103,104.21,93.7,110.23,80.07a58.13,58.13,0,0,0,3.5-36.55C109.6,24.56,98.42,11.28,80.28,4.27Zm2.49,70.49C78.07,82.17,71,86.11,62.41,87.3a32.21,32.21,0,0,1-17.62-2.16c-9.67-4.24-15-11.87-17-22a32.14,32.14,0,0,1-.47-3.51c-.1-1.1-.11-2.2-.15-3,.06-7.5,1.73-14.21,6.07-20.07,5-6.76,11.84-10.34,20.09-11.33a32.56,32.56,0,0,1,16.93,2.18A27.07,27.07,0,0,1,86.1,44.69C89.44,55.15,88.76,65.33,82.77,74.76Z"/><path class="cls-12" d="M222.7,32.75c-3.38-13.84-11.31-23.92-24.83-29C185.33-.89,172.46-1,159.59,2.41c-10.78,2.88-19.13,9.1-24.52,19a49.63,49.63,0,0,0-5.83,23.86c-.13,21.31-.07,42.62-.07,63.93,0,.34.06.67.09,1h26.07V79.64h42.29V110.2h26.73v-1.36q0-30.43,0-60.86A63.42,63.42,0,0,0,222.7,32.75Zm-26,23.69-40.83,0a2.61,2.61,0,0,1-.32-.06c0-4.47-.19-8.84.08-13.18a25.74,25.74,0,0,1,1.71-7.43c2.17-5.63,6.5-8.86,12.34-10.1a31.16,31.16,0,0,1,15.11.37c6.19,1.76,10,5.91,11.63,12.07a37.61,37.61,0,0,1,1.08,7.09c.2,3.42.08,6.86.13,10.28C197.6,56.13,197.42,56.44,196.66,56.44Z"/><path class="cls-13" d="M326.36,95.46c-15.17-10.33-22.48-30.83-25.41-41q1.74-1.77,3.38-3.69c16.47-19.25,21-39.12,21.86-43.5-2.85-.78-7.88-2.07-12.24-2.77-4.61-.73-9.11,0-11.95-.13a75.14,75.14,0,0,1-16,30.87A70.92,70.92,0,0,1,270.94,48c0-19.18,0-38.59,0-44.33,0-1-.19-1.43-1.35-1.43-8,.06-16.1,0-24.15,0l-1.19.06V110.18H271c0-5.48,0-19.39,0-35.49,2.62-1.16,5.47-2.54,8.43-4.17,5.21,14.07,15.05,33,32.62,45,20.22,13.77,46.91,16,62.31,16,3.92,0,7.1-.15,9.26-.29a122.55,122.55,0,0,0,.81-12.47,104.86,104.86,0,0,0-.88-12.07C379.35,107.06,346.74,109.33,326.36,95.46Z"/></g></g></svg>