<svg xmlns="http://www.w3.org/2000/svg" xmlns:xlink="http://www.w3.org/1999/xlink" viewBox="0 0 284.41 492.51"><defs><style>.cls-1{fill:url(#linear-gradient);}.cls-2{clip-path:url(#clip-path);}.cls-3{fill:#e4e1e7;}</style><linearGradient id="linear-gradient" x1="96.65" y1="27.03" x2="231.38" y2="888.32" gradientUnits="userSpaceOnUse"><stop offset="0" stop-color="#e54355"/><stop offset="1" stop-color="#eb8b23"/></linearGradient><clipPath id="clip-path" transform="translate(0 12.28)"><path class="cls-1" d="M73.27,480.21c-5.14.31-16.59-3.54-19.17-5.78C37,459.56,3.13,433.78,0,410c-.53-4.06,16.7-11.22,18.51-15.39,9.87-7.23,13.75-9.12,19.76-20.61C56,340.09-7.88,295,50.45,263.72c42.72-22.94,84.1-14.63,65.71-84.24S129.11-29.42,213,5.54C261.19,25.6,229.27,93.9,259.74,134,288.7,172,277.5,210,237.65,243.82s-12.26,48.62,8.37,86.1c24.78,45-47.43,67.66-81.67,75.27C136.79,411.32,70.72,445.52,73.27,480.21Z"/></clipPath></defs><g id="Layer_2" data-name="Layer 2"><g id="Layer_1-2" data-name="Layer 1"><path class="cls-1" d="M73.27,480.21c-5.14.31-16.59-3.54-19.17-5.78C37,459.56,3.13,433.78,0,410c-.53-4.06,16.7-11.22,18.51-15.39,9.87-7.23,13.75-9.12,19.76-20.61C56,340.09-7.88,295,50.45,263.72c42.72-22.94,84.1-14.63,65.71-84.24S129.11-29.42,213,5.54C261.19,25.6,229.27,93.9,259.74,134,288.7,172,277.5,210,237.65,243.82s-12.26,48.62,8.37,86.1c24.78,45-47.43,67.66-81.67,75.27C136.79,411.32,70.72,445.52,73.27,480.21Z" transform="translate(0 12.28)"/><g class="cls-2"><path class="cls-3" d="M28.07,444.13l-.65-.88C162.43,342.19,222.85,172,189-12.08l1.08-.2c16,87.22,10.57,174.67-15.76,252.89C146.68,322.84,96.09,393.21,28.07,444.13Z" transform="translate(0 12.28)"/><path class="cls-3" d="M258.47,347.45C212.72,341.57,140.64,355,97.8,377.32l-.51-1c43-22.44,115.38-35.89,161.32-30Z" transform="translate(0 12.28)"/><path class="cls-3" d="M54.35,424l-.87-.67c15.14-20,19.58-46.95,13.19-80-4.69-24.24-15-51.16-30.61-80l1-.53c15.68,28.95,26,56,30.72,80.33C74.2,376.47,69.69,403.69,54.35,424Z" transform="translate(0 12.28)"/><path class="cls-3" d="M177.67,229.36l-.91-.61c26.61-39.24,73.09-57.27,107.4-65.48l.25,1.06C250.29,172.5,204.08,190.42,177.67,229.36Z" transform="translate(0 12.28)"/><path class="cls-3" d="M198,122.75l-1.09.13c-6.22-53-45.15-93.39-67.8-112.71l.71-.84C152.55,28.76,191.69,69.33,198,122.75Z" transform="translate(0 12.28)"/></g></g></g></svg>