<svg xmlns="http://www.w3.org/2000/svg" viewBox="0 0 688.09 438.3"><defs><style>.cls-1,.cls-13{fill:#231f20;}.cls-1,.cls-12,.cls-15,.cls-16,.cls-18,.cls-2,.cls-3,.cls-4,.cls-5,.cls-6,.cls-7,.cls-8,.cls-9{fill-rule:evenodd;}.cls-2{fill:#eb8b23;}.cls-19,.cls-3{fill:#5f2d78;}.cls-17,.cls-4{fill:#24205b;}.cls-11,.cls-5{fill:#fff;}.cls-6{fill:#ff9470;}.cls-7{fill:#d96b46;}.cls-14,.cls-8{fill:#f6cc1b;}.cls-10,.cls-9{fill:#140a23;}.cls-12{fill:#af206e;}.cls-15,.cls-20{fill:#e54355;}.cls-16{fill:#ff825a;}.cls-18{fill:#2e1a47;}</style></defs><g id="Layer_2" data-name="Layer 2"><g id="Layer_1-2" data-name="Layer 1"><path class="cls-1" d="M30.08,149.15a2.74,2.74,0,1,0-2.73-2.74A2.74,2.74,0,0,0,30.08,149.15Z"/><path class="cls-1" d="M57.1,146c1,5.21,27.08,7.81,13.28,15.37S49.54,147.53,42,149.1C25.71,152.47,54.4,132.5,57.1,146Z"/><path class="cls-2" d="M321.9,193.72c5.35-4.31,51.22-86.12,51.22-86.12l-.77,53.83L495.44,60.24l10.75,61.54L688.09,43,493.37,184.51l-37-54.27-81.76,67.07L356.3,162.5Z"/><path class="cls-2" d="M316.7,154.57c-5.87-4.24-82.53-100.16-82.53-100.16l32.11,71.22L130.13,25.3l29.48,84.64L0,55.6,204.47,189.66l-8.88-82.23L286,173.89l-9-51.26Z"/><path class="cls-3" d="M532.63,251.42l-58.58-20.57-15-5.26-5.12,14.6a15.52,15.52,0,0,0,9.47,19.73l20.34,7.14L481,274.94a3,3,0,0,0-.15.59l-80.76,69.35a3.87,3.87,0,0,0-.41,5.44h0a3.87,3.87,0,0,0,5.44.42l55.11-47.32,40.49,3.07-60.93,52.33a3.86,3.86,0,0,0-.42,5.43h0a3.86,3.86,0,0,0,5.44.41l55.1-47.32L521.4,319l18.31,12.52,13.39,71.2a3.86,3.86,0,0,0,4.51,3.07h0a3.87,3.87,0,0,0,3.08-4.5l-14.82-78.75,33.53,22.91,13.39,71.2a3.87,3.87,0,0,0,4.51,3.08h0a3.87,3.87,0,0,0,3.08-4.5L580.46,309.34a3.57,3.57,0,0,0-.32-1l2.34-6.65-6-2.11-2.76,7.88-.06.18a3.85,3.85,0,0,0-.76,3.1l1.79,9.55L545,318.06l-4.26-22.66a4.6,4.6,0,0,0-.32-1l2.33-6.64,11.33,4,.12,0,38.16,13.4,46-64.5c13.83-19.39,7.49-41.45-14.09-49h0c-21.58-7.58-50.55,2.08-64.38,21.47l-27.29,38.26ZM539,327.73l-12.19-8.33,10.78.82,1.41,7.51Zm-2.85-15.14-5.61-3.83,5,.38.65,3.45ZM535,306.38l-8.91-.68-7-4.79,7.47-6.42a3.87,3.87,0,0,0,.7-5.06l2.23-6.32,7.32,2.57L534,293.55l-.06.18a3.9,3.9,0,0,0-.77,3.1l1.8,9.55Zm1.88,10,.21,1.1-14.74-1.12-11.83-8.09,1.08-.93,13.56,1,11.72,8ZM487.53,275.5l2.22-6.33L523.43,281l-2.76,7.88a3.29,3.29,0,0,0-.15.6L503.9,303.74,479.36,287l7.47-6.42a3.85,3.85,0,0,0,.7-5.05Zm-10.3,13.3,21.71,14.84-35.82-2.72,14.11-12.12Zm43.43,16.49-6.17-.47,2.43-2.08,3.74,2.55Zm-12.29,4.79,8.55,5.85-14.11-1.08,5.56-4.77Zm70.32,31.58-30.17-20.61,26.67,2Z"/><path class="cls-4" d="M423,164.4c-19.92-7.79-34-10.67-43.27-9.59-4.32.51-6.77,1.76-7.67,3.62-1.32,2.73-1.19,7.55.11,14,4,19.87,18.75,48.42,38.86,79.58,3.85,6,2.7,14.36-2.56,18.73s-12.65,3.06-16.49-2.92c-21.82-33.81-38-65.71-42.8-89.47-2.57-12.75-2-23.88,2.26-32.79,4.72-9.78,13.11-15.87,25.81-17.35,10.82-1.26,25.54,1.07,44.8,7.77,7.38-6.55,20.2-10.13,34.3-8.65s26.15,7.79,31.93,15.86c18.77-4.26,33.05-5.2,43.47-3.41,12.58,2.16,20.58,8.07,24.71,17,3.77,8.12,3.63,17.94.3,29-6.2,20.56-24.23,47.5-48,75.75a11.8,11.8,0,0,1-18.07-15.18c21.92-26,38.32-50.13,43.51-67.33,1.68-5.58,2.09-9.81.94-12.29-.78-1.69-3.16-3-7.43-3.7-9.1-1.56-23.21,0-43.32,5.39-7.51,5.94-19.76,9.1-33.15,7.69C439.58,174.85,429.48,170.4,423,164.4Z"/><path class="cls-5" d="M407.59,100.91a11.76,11.76,0,1,0-18.86-14c-.09.12-19.46,25.39-19.91,64.23,10.16-1.89,18.06,1.87,23.68,6.59C390.47,123.23,407.52,101,407.59,100.91Z"/><path class="cls-5" d="M387.4,139.12A18.39,18.39,0,1,0,397.8,163,18.39,18.39,0,0,0,387.4,139.12Z"/><path class="cls-6" d="M393.49,158.21A11.77,11.77,0,0,0,370,157.3c0,.11-1.7,38.79,25.1,72.33a11.76,11.76,0,0,0,18.36-14.7C392.16,188.33,393.49,158.3,393.49,158.21Z"/><path class="cls-7" d="M393.49,158.21A11.77,11.77,0,0,0,382.2,146c.21,9.73,2.72,41.31,25.1,69.32a11.72,11.72,0,0,0,8.41,4.38,11.86,11.86,0,0,0-2.29-4.76C392.16,188.33,393.49,158.3,393.49,158.21Z"/><path class="cls-3" d="M95,195.56l93.31-63.68a7.6,7.6,0,0,1,10.53,2l45.42,66.57a7.6,7.6,0,0,1-2,10.53L149,274.64a7.59,7.59,0,0,1-10.53-2L93,206.09A7.6,7.6,0,0,1,95,195.56Z"/><path class="cls-3" d="M253,208.67a7.6,7.6,0,0,1-2,10.53l-93.31,63.67a7.6,7.6,0,0,1-10.53-2Z"/><path class="cls-1" d="M401.91,130.16A176.36,176.36,0,0,1,422.08,136c7.38-6.55,20.2-10.13,34.3-8.65s26.15,7.79,31.93,15.86q9.44-2.15,17.37-3.18c-8.94,13.33-28.75,22-51.46,20.84C429,159.58,408.14,146.68,401.91,130.16Z"/><path class="cls-5" d="M445.44,71.18c30.58,1.53,54.84,20.21,54.2,41.71S473.7,150.58,443.13,149s-54.84-20.21-54.2-41.71S414.87,69.64,445.44,71.18Z"/><path class="cls-8" d="M499.6,113.82c-.91,14.48-13.05,26.43-30.36,32,7.19-17.2,6.88-30.75,6.88-30.83a11.76,11.76,0,0,1,23.48-1.15Z"/><path class="cls-3" d="M343.46,438.3c178.15,0,323.44-9.41,323.44-20.94s-145.29-20.94-323.44-20.94S20,405.82,20,417.36,165.32,438.3,343.46,438.3Z"/><path class="cls-3" d="M305.48,79.35a33.54,33.54,0,1,0-33.54-33.54A33.6,33.6,0,0,0,305.48,79.35Z"/><path class="cls-5" d="M270.3,120.8l-32.73,44.77A11.71,11.71,0,0,0,235,149.25L204.19,126.7l32.73-44.77,30.85,22.55A11.71,11.71,0,0,1,270.3,120.8Z"/><path class="cls-5" d="M195.54,105.92l32.74-44.78a11.72,11.72,0,0,0,2.53,16.32L261.66,100l-32.73,44.77-30.85-22.56A11.71,11.71,0,0,1,195.54,105.92Z"/><path class="cls-9" d="M263,109.68l-5.8,7.93a1.2,1.2,0,0,1-1.67.26h0a1.21,1.21,0,0,1-.26-1.67l5.8-7.93a1.2,1.2,0,0,1,1.66-.26h0A1.19,1.19,0,0,1,263,109.68Z"/><path class="cls-9" d="M258.27,106.24l-16.92,23.14a1.21,1.21,0,0,1-1.67.26h0a1.18,1.18,0,0,1-.26-1.66l16.92-23.14a1.19,1.19,0,0,1,1.66-.26h0A1.21,1.21,0,0,1,258.27,106.24Z"/><path class="cls-9" d="M253.56,102.79l-16.92,23.14a1.2,1.2,0,0,1-1.67.26h0a1.2,1.2,0,0,1-.26-1.67l16.92-23.14a1.19,1.19,0,0,1,1.66-.25h0A1.19,1.19,0,0,1,253.56,102.79Z"/><path class="cls-9" d="M248.84,99.35,241.09,110a1.21,1.21,0,0,1-1.67.26h0a1.18,1.18,0,0,1-.26-1.66l7.76-10.61a1.18,1.18,0,0,1,1.66-.26h0A1.2,1.2,0,0,1,248.84,99.35Z"/><path class="cls-9" d="M244.13,95.91,227.22,119a1.2,1.2,0,0,1-1.67.26h0a1.2,1.2,0,0,1-.26-1.67L242.21,94.5a1.18,1.18,0,0,1,1.66-.26h0A1.2,1.2,0,0,1,244.13,95.91Z"/><path class="cls-9" d="M239.42,92.46l-7.75,10.61a1.21,1.21,0,0,1-1.67.26h0a1.2,1.2,0,0,1-.26-1.67l7.75-10.61a1.21,1.21,0,0,1,1.67-.26h0A1.18,1.18,0,0,1,239.42,92.46Z"/><path class="cls-9" d="M234.71,89,227,99.62a1.2,1.2,0,0,1-1.67.26h0a1.2,1.2,0,0,1-.26-1.67l7.75-10.6a1.2,1.2,0,0,1,1.67-.26h0A1.2,1.2,0,0,1,234.71,89Z"/><path class="cls-9" d="M230,85.57l-7.75,10.61a1.2,1.2,0,0,1-1.67.26h0a1.2,1.2,0,0,1-.26-1.67l7.75-10.61a1.21,1.21,0,0,1,1.67-.26h0A1.18,1.18,0,0,1,230,85.57Z"/><path class="cls-9" d="M238.51,113.49l-1,1.39a1.2,1.2,0,0,1-1.67.26h0a1.2,1.2,0,0,1-.26-1.67l1-1.39a1.19,1.19,0,0,1,1.66-.26h0A1.21,1.21,0,0,1,238.51,113.49Z"/><path class="cls-9" d="M234.94,118.36l-1,1.39a1.2,1.2,0,0,1-1.67.26h0a1.19,1.19,0,0,1-.26-1.66l1-1.4a1.19,1.19,0,0,1,1.66-.26h0A1.19,1.19,0,0,1,234.94,118.36Z"/><path class="cls-9" d="M255,120.61l-5.8,7.93a1.2,1.2,0,0,1-1.67.25h0a1.19,1.19,0,0,1-.26-1.66l5.8-7.93a1.2,1.2,0,0,1,1.67-.26h0A1.2,1.2,0,0,1,255,120.61Z"/><path class="cls-9" d="M220.34,108.67l-2.08,2.84a1.18,1.18,0,0,1-1.66.26h0a1.2,1.2,0,0,1-.25-1.67l2.07-2.84a1.21,1.21,0,0,1,1.67-.26h0A1.18,1.18,0,0,1,220.34,108.67Z"/><circle class="cls-10" cx="301.16" cy="39.11" r="33.54" transform="translate(66.92 232.39) rotate(-46.93)"/><path class="cls-5" d="M306.49,6a33.34,33.34,0,0,1,11.35,4L273.45,54.38a33.24,33.24,0,0,1-4.67-10.68L306.49,6Zm16.73,7.85L277.6,59.46A33.34,33.34,0,0,0,281.74,63L327,17.73A34,34,0,0,0,323.22,13.84Z"/><path class="cls-2" d="M301.16,13.25A25.86,25.86,0,1,1,275.3,39.11,25.86,25.86,0,0,1,301.16,13.25Z"/><rect class="cls-11" x="300.35" y="16.13" width="1.63" height="5.39"/><rect class="cls-11" x="300.35" y="56.69" width="1.63" height="5.39"/><rect class="cls-11" x="278.19" y="38.29" width="5.39" height="1.63"/><rect class="cls-11" x="318.75" y="38.29" width="5.39" height="1.63"/><path class="cls-5" d="M302.22,27.09l1.39.21-1.42,9.63a2.41,2.41,0,0,1-.56,4.54,2.42,2.42,0,0,1-2.83-1.9,2.39,2.39,0,0,1,.2-1.52l-10.4-8.87.9-1.07L300,37a2.29,2.29,0,0,1,.73-.27l.12,0Z"/><path class="cls-3" d="M302.88,65.07a25.86,25.86,0,0,1-1.68-51.62,26.44,26.44,0,0,0,1.68,51.62Z"/><path class="cls-2" d="M567.09,44.59l15.2,8.9a6.33,6.33,0,0,1,2.46,8.28c0,.21-17.73,30.31-19.5,33.37A6.36,6.36,0,0,1,557,97.61c-.15,0-14.13-8.26-15.57-9.1a6.33,6.33,0,0,1-2.26-8.65l19.31-33a6.34,6.34,0,0,1,8.65-2.27Zm13.62,11.6-15.2-8.89a3.21,3.21,0,0,0-4.37,1.14l-19.31,33A3.21,3.21,0,0,0,543,85.81l15.2,8.9a3.24,3.24,0,0,0,4.33-1.07c6.43-11,12.93-22,19.35-33.08a3.2,3.2,0,0,0-1.06-4.32Z"/><path class="cls-3" d="M515.76,409a7.92,7.92,0,0,0,13.72-7.92v0l-50.26-97h0c-.09-.18-.19-.35-.29-.53a12.93,12.93,0,0,0-22.4,12.93,13.76,13.76,0,0,0,1.52,2.12L515.75,409v0Zm-360.37,0a7.92,7.92,0,1,1-13.72-7.92v0l50.26-97h0l.29-.53a12.93,12.93,0,0,1,22.4,12.93,12.54,12.54,0,0,1-1.52,2.12L155.4,409Z"/><path class="cls-3" d="M117.88,353.19l36.71-45.9h0l.43-.5a14.2,14.2,0,1,1,21.34,18.73,13.7,13.7,0,0,1-2.09,2l-25.16,26.22L137,351.54l1.17,8.46-12.5-.91Z"/><path class="cls-3" d="M83.3,411.33a8.7,8.7,0,1,1-10-14.22h0l48.39-37.53,6.21,7.57,5.42,12.16-50,32Z"/><path class="cls-3" d="M574.19,414.32a8.69,8.69,0,1,0,15.06-8.69v0L534.05,299h0l-.32-.58A14.2,14.2,0,1,0,510.81,315l63.37,99.32Z"/><path class="cls-3" d="M255.26,325.38h24.33a7.89,7.89,0,0,1,7.88,7.87v24.33a7.89,7.89,0,0,1-7.88,7.88H255.26a7.89,7.89,0,0,1-7.87-7.88V333.25a7.89,7.89,0,0,1,7.87-7.87Zm24.33,3.17H255.26a4.69,4.69,0,0,0-4.7,4.7v24.33a4.71,4.71,0,0,0,4.7,4.71h24.33a4.71,4.71,0,0,0,4.71-4.71V333.25a4.71,4.71,0,0,0-4.71-4.7Z"/><path class="cls-12" d="M267.43,354.43a9,9,0,1,0-9-9A9,9,0,0,0,267.43,354.43Z"/><path class="cls-12" d="M268.88,344.54v23.58a16.84,16.84,0,0,1-33.68,0V272.18h3.18v95.94a13.67,13.67,0,0,0,27.33,0V344.54Z"/><path class="cls-2" d="M618.6,131.76A23,23,0,1,1,601.43,128a22.84,22.84,0,0,1,17.17,3.76Zm4.09,15.76a17.5,17.5,0,1,0-2.87,13.07A17.44,17.44,0,0,0,622.69,147.52Z"/><path class="cls-1" d="M635.17,172.69l-2.12-1.93a12.61,12.61,0,0,0-17.77.81l-7.52,8.23-9.13,10-6.51,7.13a11.92,11.92,0,0,1-16.79.76l-16-14.62.12.12L596,216.6a11.91,11.91,0,0,0,16.79-.77l6.51-7.13,9.13-10,7.51-8.23A12.62,12.62,0,0,0,635.17,172.69Z"/><path class="cls-1" d="M585.56,243.73,543.68,205.5a9.76,9.76,0,0,0,13.75-.62l5.81-6.37,25.33-27.75,5-5.52a9.21,9.21,0,0,1,13-.59l28.3,25.84a9.21,9.21,0,0,1,.6,13l-5,5.52-25.33,27.75-5.81,6.37A9.76,9.76,0,0,1,585.56,243.73Z"/><path class="cls-3" d="M585.51,238.77l-6.84-6.24,41.87-45.87a9.52,9.52,0,0,0,.61,13.41h0a9.52,9.52,0,0,0,13.41-.61L630.39,204l-25.33,27.75-5.81,6.37A9.76,9.76,0,0,1,585.51,238.77Z"/><path class="cls-3" d="M515.09,179.4l70.82,64.65a9.75,9.75,0,0,1-.62-13.74l5.81-6.37,25.33-27.75,5-5.52a9.22,9.22,0,0,0-.6-13l-57.25-52.26a9.22,9.22,0,0,0-13,.59l-5,5.52-25.33,27.75-5.81,6.37A9.74,9.74,0,0,0,515.09,179.4Z"/><path class="cls-2" d="M581.48,123.68l54.14,49.43a12.62,12.62,0,0,0-17.77.81l-7.51,8.23-9.13,10-6.52,7.14a11.9,11.9,0,0,1-16.78.76l-36.6-33.4a11.92,11.92,0,0,1-.76-16.79l6.51-7.13,9.13-10,7.51-8.23A12.63,12.63,0,0,1,581.48,123.68Z"/><path class="cls-2" d="M581.48,123.68l27.2,24.83a78.29,78.29,0,0,1-71.07,7.4,11.81,11.81,0,0,1,2.94-6l6.51-7.13,9.13-10,7.52-8.23A12.62,12.62,0,0,1,581.48,123.68Z"/><rect class="cls-13" x="536.33" y="164.35" width="15.24" height="8.47" rx="2.3" transform="translate(52.75 456.71) rotate(-47.61)"/><rect class="cls-13" x="565.1" y="190.61" width="15.24" height="8.47" rx="2.3" transform="translate(42.7 486.49) rotate(-47.61)"/><rect class="cls-14" x="539.52" y="168.19" width="4.72" height="5.33" rx="1.28" transform="translate(50.36 455.88) rotate(-47.61)"/><rect class="cls-14" x="568.29" y="194.46" width="4.72" height="5.33" rx="1.28" transform="translate(40.31 485.63) rotate(-47.6)"/><path class="cls-8" d="M580.81,147.65l9.32,8.51a3.72,3.72,0,0,1,.24,5.23h0a3.72,3.72,0,0,1-5.24.24l-9.32-8.51a3.71,3.71,0,0,1-.23-5.23h0A3.72,3.72,0,0,1,580.81,147.65Z"/><path class="cls-8" d="M281,240.22a1.79,1.79,0,1,1-1.8,1.79A1.79,1.79,0,0,1,281,240.22Z"/><path class="cls-8" d="M281,245.43a1.79,1.79,0,1,1-1.8,1.79A1.79,1.79,0,0,1,281,245.43Z"/><path class="cls-5" d="M253.63,270H363.79V228.4a8.67,8.67,0,0,0-8.65-8.65H262.28a8.67,8.67,0,0,0-8.65,8.65Z"/><path class="cls-12" d="M275.63,221.6,336.54,239l5-17.6a3,3,0,0,0-2.05-3.68L284.32,202a3,3,0,0,0-3.68,2.05Z"/><path class="cls-3" d="M272,214.8l75.62,10-1.44,10.88a5.35,5.35,0,0,1-6,4.58l-65-8.64a5.34,5.34,0,0,1-4.59-6Z"/><path class="cls-12" d="M265.16,270h87.1V247.9a4.08,4.08,0,0,0-4.06-4.06h-79a4.08,4.08,0,0,0-4.06,4.06Z"/><path class="cls-2" d="M274.32,251.9H344.4a3.76,3.76,0,0,1,3.75,3.75v17.69H270.57V255.65A3.76,3.76,0,0,1,274.32,251.9Z"/><path class="cls-12" d="M271.34,276l87.31-13.86-1.42-8.94a2,2,0,0,0-2.26-1.64l-22.72,3.6.38,2.39a2.42,2.42,0,0,1-2,2.77l-33.2,5.27a2.42,2.42,0,0,1-2.76-2l-.38-2.39-22.72,3.61a2,2,0,0,0-1.64,2.25Z"/><path class="cls-5" d="M354.24,238.27a4.64,4.64,0,1,0-4.64-4.64A4.65,4.65,0,0,0,354.24,238.27Z"/><path class="cls-15" d="M354.24,236a2.37,2.37,0,1,0-2.37-2.37A2.38,2.38,0,0,0,354.24,236Z"/><path class="cls-9" d="M279.12,222.32,259,205.49a11.47,11.47,0,0,1,1.44,16.1l20.13,16.83A11.47,11.47,0,0,0,279.12,222.32Z"/><path class="cls-5" d="M239.39,189.1,281,223.92a11.47,11.47,0,0,0-16.1,1.44l-24,28.7-41.65-34.83,24-28.7A11.46,11.46,0,0,1,239.39,189.1Z"/><path class="cls-9" d="M179.64,227.35l20.13,16.83a11.47,11.47,0,0,1-1.44-16.1L178.2,211.25A11.47,11.47,0,0,0,179.64,227.35Z"/><path class="cls-5" d="M220.09,261.18l-41.65-34.83a11.47,11.47,0,0,0,16.1-1.44l24-28.7L260.19,231l-24,28.7A11.48,11.48,0,0,1,220.09,261.18Z"/><path class="cls-9" d="M229.39,196.31l4.07,3.41a1.17,1.17,0,0,1,.15,1.65h0a1.18,1.18,0,0,1-1.65.15l-4.07-3.41a1.17,1.17,0,0,1-.15-1.65h0A1.18,1.18,0,0,1,229.39,196.31Z"/><path class="cls-9" d="M225.72,200.7l9.87,8.25a1.17,1.17,0,0,1,.15,1.64h0a1.17,1.17,0,0,1-1.64.15l-9.87-8.25a1.17,1.17,0,0,1-.14-1.65h0A1.16,1.16,0,0,1,225.72,200.7Z"/><path class="cls-9" d="M222.06,205.08l9.86,8.25a1.16,1.16,0,0,1,.15,1.64h0a1.17,1.17,0,0,1-1.65.15l-9.86-8.25a1.17,1.17,0,0,1-.15-1.64h0A1.16,1.16,0,0,1,222.06,205.08Z"/><path class="cls-9" d="M218.39,209.46l9.87,8.25a1.18,1.18,0,0,1,.15,1.65h0a1.17,1.17,0,0,1-1.65.14l-9.87-8.25a1.17,1.17,0,0,1-.14-1.64h0A1.16,1.16,0,0,1,218.39,209.46Z"/><path class="cls-9" d="M214.73,213.84,243,237.49a1.18,1.18,0,0,1,.14,1.65h0a1.17,1.17,0,0,1-1.64.15l-28.29-23.65a1.18,1.18,0,0,1-.15-1.65h0A1.18,1.18,0,0,1,214.73,213.84Z"/><path class="cls-9" d="M211.07,218.22l28.28,23.65a1.18,1.18,0,0,1,.15,1.65h0a1.18,1.18,0,0,1-1.65.15L209.57,220a1.17,1.17,0,0,1-.15-1.65h0A1.18,1.18,0,0,1,211.07,218.22Z"/><path class="cls-9" d="M207.4,222.61l28.29,23.65a1.17,1.17,0,0,1,.14,1.64h0a1.16,1.16,0,0,1-1.64.15L205.9,224.4a1.18,1.18,0,0,1-.15-1.65h0A1.17,1.17,0,0,1,207.4,222.61Z"/><path class="cls-9" d="M203.74,227l9.86,8.25a1.16,1.16,0,0,1,.15,1.64h0a1.18,1.18,0,0,1-1.65.14l-9.86-8.25a1.16,1.16,0,0,1-.15-1.64h0A1.17,1.17,0,0,1,203.74,227Z"/><rect class="cls-10" x="229.29" y="214.27" width="19.2" height="5.72" transform="translate(-80.92 261.14) rotate(-50.1)"/><rect class="cls-10" x="247.32" y="213.63" width="7.66" height="12.46" transform="translate(-78.62 271.5) rotate(-50.1)"/><rect class="cls-10" x="239.61" y="221.82" width="9.4" height="12.46" transform="translate(-87.36 269.18) rotate(-50.1)"/><path class="cls-5" d="M475.36,109.58a11.76,11.76,0,0,1,22.7-6.18c0,.14,8.83,30.73-4.95,67.06-8.77-5.48-17.49-4.87-24.45-2.53C483.14,136.61,475.39,109.69,475.36,109.58Z"/><path class="cls-16" d="M419.48,91a14.95,14.95,0,1,1-10.1,18.57A14.94,14.94,0,0,1,419.48,91Z"/><path class="cls-4" d="M427.39,85.67a21.65,21.65,0,1,1-21.65,21.65,21.64,21.64,0,0,1,21.65-21.65Zm-1.87,2.2a16.88,16.88,0,1,0,16.88,16.88A16.88,16.88,0,0,0,425.52,87.87Z"/><path class="cls-16" d="M418.64,205.1a18.75,18.75,0,1,0,21,16.19A18.76,18.76,0,0,0,418.64,205.1Z"/><path class="cls-4" d="M479.76,91.47l-10.28-1.42S472,70.64,482.62,57.1l16.93-2.61-.78,11.2Z"/><path class="cls-5" d="M283.24,178.18s-27.19-11-16.71-33.82C266.53,144.36,270.24,157.68,283.24,178.18Z"/><rect class="cls-17" x="439.03" y="109.58" width="12.19" height="16.15" rx="5.6" transform="translate(317.42 560) rotate(-88.7)"/><path class="cls-1" d="M469.48,90.05s19.27-8.72,27.6-10.93l-1.71,17.74s-4.8,5.43-5.71,4.91Z"/><path class="cls-4" d="M448.38,116.75s43.49-15.24,48.7-37.63c0,0,7,9.89,7.29,16.66,0,0-8.72,20.57-57,24.61Z"/><path class="cls-1" d="M491.36,251a27.89,27.89,0,0,1,26.41,19H465A27.87,27.87,0,0,1,491.36,251Z"/><path class="cls-18" d="M502.69,270H465A27.92,27.92,0,0,1,483.82,252,27.92,27.92,0,0,1,502.69,270Z"/><path class="cls-18" d="M394,251a27.87,27.87,0,0,1,26.41,19H367.62A27.89,27.89,0,0,1,394,251Z"/><path class="cls-1" d="M403.66,252.71A27.89,27.89,0,0,1,420.44,270H386.88A27.92,27.92,0,0,1,403.66,252.71Z"/><path class="cls-8" d="M402,109.18c0,.91,7.29,23.7,7.29,23.7s1.11-10.85,10.5-12.24l-12.32-13.28Z"/><path class="cls-8" d="M428.71,92.65,437,98.47s8-6.6,19.72-2.44L431,71.78Z"/><path class="cls-3" d="M367.88,37.21s-2.11,5.8,3.54,12.63l-5.27.91s4.72,20.11,14.12,22.3,17-31.51,17-31.51S376.21,46.45,367.88,37.21Z"/><path class="cls-7" d="M419.48,91a14.94,14.94,0,0,1,18.57,10.1,15.79,15.79,0,0,1,.46,2.1,17.92,17.92,0,0,1-9.4,6.6l-3,.9a21.18,21.18,0,0,1-17-2.22A14.94,14.94,0,0,1,419.48,91Z"/><path class="cls-16" d="M376.51,70.55a7.57,7.57,0,1,1-5.12,9.4A7.57,7.57,0,0,1,376.51,70.55Z"/><path class="cls-7" d="M377.85,75.09a2.84,2.84,0,1,1-1.91,3.52A2.85,2.85,0,0,1,377.85,75.09Z"/><path class="cls-16" d="M392,39.4,400,37a24,24,0,0,1,29.76,16.19l8,27A24,24,0,0,1,421.51,110l-4,1.18a28.2,28.2,0,0,1-34.94-19l-6.79-23A24,24,0,0,1,392,39.4Z"/><path class="cls-7" d="M433.53,66.09,437.7,80.2A24,24,0,0,1,429.29,106a23.94,23.94,0,0,0,3.11-20.12l-5.85-19.78Z"/><path class="cls-6" d="M392,39.4,400,37c.67-.2,1.34-.37,2-.51a24.06,24.06,0,0,0-14.22,29.09l6.79,23a28.23,28.23,0,0,0,30.69,19.91,23.75,23.75,0,0,1-3.74,1.45l-4,1.18a28.2,28.2,0,0,1-34.94-19l-6.79-23A24,24,0,0,1,392,39.4Z"/><path class="cls-15" d="M409.07,107.25h0a11.2,11.2,0,0,1-13.86-7.54L391.39,86.8a7.57,7.57,0,0,1,5.09-9.36l3.48-1A11.21,11.21,0,0,1,413.83,84l2.78,9.42A11.19,11.19,0,0,1,409.07,107.25Z"/><path class="cls-15" d="M409.07,107.25h0a11.16,11.16,0,0,1-4.35.39,10.93,10.93,0,0,1-2-3.77L399,91A7.54,7.54,0,0,1,404,81.61l3.49-1a11.16,11.16,0,0,1,4.35-.39,11.28,11.28,0,0,1,2,3.77l2.78,9.42A11.19,11.19,0,0,1,409.07,107.25Z"/><path class="cls-15" d="M412.83,87.2l2,6.87a5.28,5.28,0,0,1-3.55,6.54l-2.44.72a7.51,7.51,0,0,1-2,.32c-.13-.32-.24-.64-.34-1h0A11.28,11.28,0,0,1,412.83,87.2Z"/><path class="cls-5" d="M396.63,79.09h0a11.16,11.16,0,0,1,9.55-.35,16.28,16.28,0,0,1-3,2.07l-.2.1a16,16,0,0,1-10.2,1.56A11,11,0,0,1,396.63,79.09Z"/><path class="cls-5" d="M415,98.16a3.16,3.16,0,0,0-3.5-.34l-7,3.83a4.63,4.63,0,0,0-2.33,3.1,4.35,4.35,0,0,0,5.41,1.07l5.32-2.89A4.33,4.33,0,0,0,415,98.16Z"/><path class="cls-3" d="M381.66,60.79l9.21,2.58a2.09,2.09,0,0,1,1.45,2.57h0a2.09,2.09,0,0,1-2.57,1.45l-9.22-2.59a2.09,2.09,0,0,1-1.44-2.57h0A2.09,2.09,0,0,1,381.66,60.79Z"/><path class="cls-3" d="M385.09,67.61a3.19,3.19,0,0,1,4.28,1.44,3,3,0,0,1,.31,1,3.2,3.2,0,0,0-5.41,2.68,3.32,3.32,0,0,1-.62-.85A3.2,3.2,0,0,1,385.09,67.61Z"/><path class="cls-3" d="M427.11,62.17c13.61-14.93,8.87-32.53-13.05-34.85-13.38-1.41-28.37-1-22.44-14.87C369.7,16.48,363,51.62,391,48,406.62,46,419.79,41.34,427.11,62.17Z"/><path class="cls-5" d="M360.57,118.58s-13.69-13.21-24.46-1C336.11,117.61,345,116.29,360.57,118.58Z"/><path class="cls-9" d="M447.71,146.3c1,0,1.83-.41,1.83-.92s-.82-.91-1.83-.91-1.82.41-1.82.91S446.71,146.3,447.71,146.3Z"/><path class="cls-9" d="M440.09,135.1c1,0,1.83-.41,1.83-.92s-.82-.91-1.83-.91-1.82.41-1.82.91S439.09,135.1,440.09,135.1Z"/><path class="cls-12" d="M214.76,178.41S185.8,183,183,158C183,158,193.05,167.54,214.76,178.41Z"/><path class="cls-12" d="M267.62,190s-17.21,2.73-18.87-12.11C248.75,177.88,254.73,183.53,267.62,190Z"/><path class="cls-12" d="M467.41,237.24s-11.67,26.91-34.23,15.86C433.18,253.1,446.59,249.72,467.41,237.24Z"/><path class="cls-3" d="M268.58,206.67a4.17,4.17,0,1,0-4.17-4.16A4.17,4.17,0,0,0,268.58,206.67Z"/><path class="cls-3" d="M243.35,182.46a3.62,3.62,0,1,0-3.61-3.62A3.62,3.62,0,0,0,243.35,182.46Z"/><circle class="cls-19" cx="227.88" cy="165.34" r="1.43"/><path class="cls-3" d="M344.88,211.62a4.17,4.17,0,1,0-4.17-4.16A4.17,4.17,0,0,0,344.88,211.62Z"/><path class="cls-5" d="M191,72.42l-50,24a11.71,11.71,0,0,0,5.46-15.58l-3.28-6.82L129.89,46.44l-3.28-6.82A11.7,11.7,0,0,1,132.07,24l50-24a11.72,11.72,0,0,0-5.46,15.58l3.28,6.82h0L193.15,50l3.28,6.82A11.7,11.7,0,0,1,191,72.42Z"/><path class="cls-3" d="M176.93,189.48a2.08,2.08,0,1,0-2.08-2.08A2.09,2.09,0,0,0,176.93,189.48Z"/><path class="cls-3" d="M290.7,210.54a1.18,1.18,0,0,1,2.15-1L299,223.12l5.14-.56a1.17,1.17,0,0,1,1,2l-2.35,2.64,3.52-.21a1.17,1.17,0,0,1,.9,2L304,232.22l3.22,8a1.17,1.17,0,1,1-2.18.87l-3.49-8.65a1.18,1.18,0,0,1,.23-1.34l1.57-1.58-3.25.2a1.17,1.17,0,0,1-.95-1.95l2.25-2.54-2.9.32a1.2,1.2,0,0,1-1.26-.69Z"/><path class="cls-3" d="M290.14,183.18l1.23-.44a1.19,1.19,0,0,1,1.5.71l.67,1.89a6.12,6.12,0,0,1,3.92,11l.67,1.89a1.18,1.18,0,0,1-.71,1.49l-1.23.44a1.17,1.17,0,0,1-1.5-.71l-.67-1.89a6.12,6.12,0,0,1-3.92-11l-.67-1.88a1.18,1.18,0,0,1,.71-1.5Zm2.6,5.35a3.11,3.11,0,1,0,4,1.88A3.11,3.11,0,0,0,292.74,188.53Z"/><path class="cls-5" d="M550.91,46.11l18.74,5.78a5.31,5.31,0,0,1,3.5,6.63L560.59,99.2a5.31,5.31,0,0,1-6.62,3.51l-18.74-5.79a5.31,5.31,0,0,1-3.5-6.63l12.55-40.68A5.31,5.31,0,0,1,550.91,46.11Z"/><path class="cls-3" d="M549.82,50.13l18.46,5.7a1.23,1.23,0,0,1,.81,1.52L558.34,92.16a1.23,1.23,0,0,1-1.52.8l-18.46-5.7a1.21,1.21,0,0,1-.8-1.52L548.3,50.93A1.22,1.22,0,0,1,549.82,50.13Z"/><path class="cls-3" d="M544.11,92.45l5,1.56a1.32,1.32,0,0,1,.87,1.66h0a1.32,1.32,0,0,1-1.66.88l-5-1.55a1.34,1.34,0,0,1-.88-1.67h0A1.34,1.34,0,0,1,544.11,92.45Z"/><rect class="cls-20" x="543.93" y="65.12" width="18.79" height="12.84" transform="matrix(0.29, -0.96, 0.96, 0.29, 321.79, 579.16)"/><path class="cls-3" d="M555.13,65.68h0A2.84,2.84,0,0,1,557,69.22l-.57,1.83a2.83,2.83,0,0,1-3.53,1.87h0A2.84,2.84,0,0,1,551,69.38l.56-1.83A2.84,2.84,0,0,1,555.13,65.68Z"/><path class="cls-3" d="M551.14,73l3.17,1a2.84,2.84,0,0,1,1.86,3.54l-.83,2.7-8.57-2.64.84-2.71A2.83,2.83,0,0,1,551.14,73Z"/><path class="cls-5" d="M349.9,94.38s-11.37,1.32-9.79,11C340.11,105.39,342.89,100.75,349.9,94.38Z"/><path class="cls-3" d="M368.34,107.55a4.17,4.17,0,1,0-4.16-4.17A4.18,4.18,0,0,0,368.34,107.55Z"/><path class="cls-3" d="M361.57,78.9a2.08,2.08,0,1,0-2.08-2.08A2.08,2.08,0,0,0,361.57,78.9Z"/><path class="cls-3" d="M385.53,123.17a2.08,2.08,0,1,0-2.08-2.08A2.08,2.08,0,0,0,385.53,123.17Z"/><path class="cls-3" d="M416,164.92a1.18,1.18,0,1,1,1.3,2l-12.37,8.27,1.39,5a1.18,1.18,0,0,1-.83,1.44,1.16,1.16,0,0,1-1-.16l-3-1.9.78,3.44a1.18,1.18,0,0,1-1.84,1.22l-3.7-2.66L389.36,186a1.18,1.18,0,1,1-1.22-2l8-4.84a1.17,1.17,0,0,1,1.36,0l1.81,1.29-.72-3.17a1.18,1.18,0,0,1,1.77-1.26l2.87,1.81-.78-2.81a1.19,1.19,0,0,1,.47-1.35Z"/><path class="cls-6" d="M393.46,58.42h0a4.68,4.68,0,0,1,5.36,3.85l1.27,7.78a4.68,4.68,0,0,1-3.85,5.36h0a4.67,4.67,0,0,1-5.35-3.85l-1.27-7.79A4.67,4.67,0,0,1,393.46,58.42Z"/><path class="cls-3" d="M406.67,56.37l-8.16,5a2.09,2.09,0,0,0-.68,2.86h0a2.1,2.1,0,0,0,2.87.68l8.15-5a2.08,2.08,0,0,0,.68-2.86h0A2.08,2.08,0,0,0,406.67,56.37Z"/><path class="cls-3" d="M406.66,62.79a3.18,3.18,0,0,1,3,4.26,3.19,3.19,0,0,0-6-.07,3.24,3.24,0,0,1-.17-1A3.19,3.19,0,0,1,406.66,62.79Z"/><path class="cls-5" d="M480.19,189.31a18.39,18.39,0,1,0-18.39-18.39A18.42,18.42,0,0,0,480.19,189.31Z"/><path class="cls-16" d="M467.54,168.07a11.78,11.78,0,1,1,22.24,7.75c0,.1-12.59,36.73-49.8,58.15a11.76,11.76,0,1,1-11.72-20.39C457.77,196.59,467.51,168.15,467.54,168.07Z"/><path class="cls-6" d="M390.83,216c-5.84,7.89-3.09,19.09,6.12,25s21.41,4.31,27.24-3.58,3.09-19.09-6.12-25S396.66,208.12,390.83,216Z"/><path class="cls-12" d="M371.82,237.54l5.93,4a4.78,4.78,0,0,1,1.33,6.61h0a4.78,4.78,0,0,1-6.61,1.33l-5.94-4a4.79,4.79,0,0,1-1.33-6.61h0A4.78,4.78,0,0,1,371.82,237.54Z"/><polygon class="cls-5" points="313.22 189.16 316.35 199.58 319.73 195.03 313.22 189.16"/><polygon class="cls-8" points="288.31 230.69 296.87 237.4 297.01 231.72 288.31 230.69"/><polygon class="cls-8" points="320.46 297.96 320.96 308.83 325.35 305.23 320.46 297.96"/><polygon class="cls-5" points="147.83 234.25 156.39 240.96 156.53 235.28 147.83 234.25"/><polygon class="cls-2" points="241.5 265.73 204.05 237.04 208.94 254.27 111.1 184.57 145.93 258.44 67.54 213.12 98.53 260.51 52.18 239.16 58.69 259.99 36.55 251.92 65.98 268.58 64.16 254 117.8 274.05 107.64 248.27 174.31 276.92 171.45 242.54 219.89 272.23 219.1 255.3 241.5 265.73"/><path class="cls-5" d="M63.4,145.09a19.52,19.52,0,0,1,6.57.2l-1.17-4.16a3.13,3.13,0,1,0-6,1.7l.63,2.26Zm9.65,1.09a19.67,19.67,0,0,1-1.63,37.31l-8.74-31-.37-1.31-1.57-5.56-.59-2.08a5.85,5.85,0,0,1,11.26-3.18Z"/><path class="cls-5" d="M112.36,199.45a52.33,52.33,0,0,1-52.9-9.69Z"/><polygon class="cls-5" points="57.07 201.01 67.92 200.26 64.22 195.95 57.07 201.01"/><path class="cls-1" d="M20.65,144.34A1.37,1.37,0,1,0,19.28,143,1.37,1.37,0,0,0,20.65,144.34Z"/><path class="cls-1" d="M31.38,179.16a4.49,4.49,0,1,0-4.49-4.49A4.5,4.5,0,0,0,31.38,179.16Z"/><path class="cls-1" d="M21,180.66a2.25,2.25,0,1,0-2.25-2.25A2.24,2.24,0,0,0,21,180.66Z"/><polygon class="cls-3" points="258.57 53.97 321.06 126.87 296.78 128.05 323.08 161.24 305.62 159.41 331.21 193.01 318.66 167.06 343.09 173.98 313.22 136.96 345.56 137.66 258.57 53.97"/><path class="cls-3" d="M295.09,140.25a7.74,7.74,0,0,1,1.83,1.06l3.15-.53c.42-.07.84-.09,1.05.28l1.07,1.86c.21.37,0,.72-.28,1.05l-2,2.46a7.22,7.22,0,0,1,.07,1,7.45,7.45,0,0,1-.07,1.06l2,2.46c.27.32.5.68.28,1l-1.07,1.87c-.21.36-.63.35-1.05.28l-3.14-.53a8,8,0,0,1-1.84,1.06l-1.11,3c-.14.4-.34.77-.76.77h-2.16c-.42,0-.62-.37-.76-.77l-1.12-3a8.16,8.16,0,0,1-1.83-1.06l-3.14.53c-.42.07-.84.08-1-.28L282.08,152c-.21-.36,0-.72.29-1l2-2.46a7.45,7.45,0,0,1-.07-1.06,7.31,7.31,0,0,1,.07-1l-2-2.46c-.27-.33-.5-.68-.29-1.05l1.08-1.86c.21-.37.63-.35,1-.28l3.14.53a7.94,7.94,0,0,1,1.83-1.06l1.12-3c.14-.39.34-.76.76-.76h2.16c.42,0,.62.37.76.76l1.11,3Zm-2.95,3.33a3.91,3.91,0,1,0,3.91,3.9A3.91,3.91,0,0,0,292.14,143.58Z"/><path class="cls-3" d="M206.73,159.48a2.28,2.28,0,1,0-2.28-2.28A2.28,2.28,0,0,0,206.73,159.48Z"/><path class="cls-2" d="M569.6,271.63,116.28,294.06l.85,17A17,17,0,0,0,135,327.21l419.33-20.75a17.07,17.07,0,0,0,16.15-17.84Z"/><path class="cls-1" d="M342.17,282.88l-61.76,3.06c-10.93,6.2-19,11.1-21.54,13-9.46,6.87-9.41,17.27-3.59,22.34l20.89-1C291.21,311.73,317.51,298.37,342.17,282.88Z"/><path class="cls-1" d="M372.79,315.44l28-1.38,11.89-11.49-.33,5.64,15.54-13-9.46-11.73a3.76,3.76,0,0,0-5.27-.57Z"/><path class="cls-2" d="M57.21,284.1,627.4,255.88a3.57,3.57,0,0,1,3.74,3.39l.28,5.72a3.57,3.57,0,0,1-3.39,3.74L57.85,297a3.59,3.59,0,0,1-3.75-3.4l-.28-5.72A3.57,3.57,0,0,1,57.21,284.1Z"/><path class="cls-2" d="M306.53,271.76,362.85,269c-6.55,4.77-13.54,9.43-20.68,13.91l-61.76,3.06C288,281.64,297,276.73,306.53,271.76Z"/><rect class="cls-13" x="116.18" y="282.84" width="453.87" height="7.18" transform="translate(-13.74 17.31) rotate(-2.83)"/><path class="cls-5" d="M183.73,379.33l-33.4-44.27a11.71,11.71,0,0,0,16.35,2.29l6-4.56,24.46-18.46,6-4.56a11.73,11.73,0,0,1,16.36,2.29L253,356.34a11.7,11.7,0,0,0-16.35-2.29l-6,4.56h0l-24.47,18.46-6,4.55A11.7,11.7,0,0,1,183.73,379.33Z"/><path class="cls-8" d="M262.33,292.9c22.38-8.32,70-22.83,103.83-41.69a416.47,416.47,0,0,1,40-19h0s5-3.1,3-6.71-6.86-3-6.86-3h0a449.81,449.81,0,0,1-44.82,11.57c-39.59,7.59-99.06,30.22-107.52,34.47C232.09,277.61,240,301.23,262.33,292.9Z"/><path class="cls-8" d="M407.91,224.07a8,8,0,0,0-5.64-1.48h0a449.81,449.81,0,0,1-44.82,11.57c-39.59,7.59-99.06,30.22-107.52,34.47a18.83,18.83,0,0,0-7.68,6.73c.71,7.83,8.88,14.15,22.17,9.21,22.38-8.33,70-22.83,103.83-41.69A410.68,410.68,0,0,1,407.91,224.07Z"/><path class="cls-12" d="M344.94,255.49l16.85-2.38a5.08,5.08,0,0,1,5.71,4.3l1.76,12.51-30.61,4.32-1.23-8.76A8.87,8.87,0,0,1,344.94,255.49Z"/><path class="cls-12" d="M332.14,296.11l62.09-32.5a3.77,3.77,0,0,1,5.06,1.58l7,13.36-17.79,9.76,1.43-5.48-27.34,17.59,2.08-7L334,307.82l-3.49-6.65A3.77,3.77,0,0,1,332.14,296.11Z"/><path class="cls-3" d="M419.71,45.79q.33,13,.65,26L429.68,59Z"/><path class="cls-16" d="M429.06,56.39a7.83,7.83,0,1,1-5.29,9.73A7.82,7.82,0,0,1,429.06,56.39Z"/><path class="cls-7" d="M430.44,61.09a2.93,2.93,0,1,1-2,3.64A2.93,2.93,0,0,1,430.44,61.09Z"/><path class="cls-2" d="M575.53,40.26l5.65,3.5a1.56,1.56,0,0,1,.51,2.14h0a1.56,1.56,0,0,1-2.14.51l-5.65-3.5a1.57,1.57,0,0,1-.51-2.15h0a1.56,1.56,0,0,1,2.15-.5ZM575.65,26a1.56,1.56,0,0,0-2.14.5h0a1.58,1.58,0,0,0,.5,2.15L592.21,40a1.57,1.57,0,0,0,2.15-.51h0a1.56,1.56,0,0,0-.51-2.14L575.65,26Zm.1,7.14a1.56,1.56,0,0,0-2.14.51h0a1.56,1.56,0,0,0,.5,2.15l11.66,7.22a1.57,1.57,0,0,0,2.15-.51h0a1.57,1.57,0,0,0-.51-2.15Z"/><polygon class="cls-2" points="335.82 255.82 322.02 261.38 328.64 265.42 335.82 255.82"/><polygon class="cls-2" points="325.57 274.98 309.57 260.49 308.5 271.7 325.57 274.98"/></g></g></svg>