<svg xmlns="http://www.w3.org/2000/svg" viewBox="0 0 813.46 829.96"><defs><style>.cls-1{fill:#5f2d78;opacity:0.1;}</style></defs><g id="Layer_2" data-name="Layer 2"><g id="Layer_1-2" data-name="Layer 1"><path class="cls-1" d="M263.18,54.64C189.87,20.85,71.41,31.75,14.37,118.17c-55.92,84.74,72.05,179.65,33.76,373.09-20.6,104-58.27,140.24-35.28,204.28,23.72,66.08,94.08,111.85,157.26,127.87,130.34,33,187.13-71.44,333.62-35.27,50.41,12.44,67.58,30.71,120.52,30.86,12.68,0,111.48.4,163.13-57.32,80.14-89.54-52.34-208.11-27.19-482.89,4.2-45.93,12.91-97.33-15.43-150.92-39.27-74.26-122-99.58-153.84-110C513.39-7.61,395.31-11.25,363.71,43.3,353.5,60.94,307.76,75.19,263.18,54.64Z"/></g></g></svg>