<svg xmlns="http://www.w3.org/2000/svg" xmlns:xlink="http://www.w3.org/1999/xlink" viewBox="0 0 835.32 852.76"><defs><style>.cls-1{fill:none;}.cls-2{fill:#5f2d78;opacity:0.1;}.cls-3{fill:url(#New_Gradient_Swatch_3);}.cls-4{clip-path:url(#clip-path);}.cls-5{fill:#fcfdfe;}.cls-6{clip-path:url(#clip-path-2);}.cls-7{fill:url(#New_Gradient_Swatch_2);}.cls-8{fill:#beb8f2;}</style><linearGradient id="New_Gradient_Swatch_3" x1="1958.76" y1="1632.8" x2="2115.44" y2="2634.39" gradientTransform="matrix(-0.13, -0.99, -0.99, 0.13, 2690.66, 2066.5)" gradientUnits="userSpaceOnUse"><stop offset="0" stop-color="#5f2d78"/><stop offset="1" stop-color="#af206e"/></linearGradient><clipPath id="clip-path" transform="translate(0 22.79)"><path class="cls-1" d="M321.73,269.78c-18.56,34.77-38.88,69.39-57.76,104.31,14.24,17.41,31.42,37.54,54.72,22,32.38-21.62,89.17,16.06,111.51,38.16C457.85,461.6,523.11,515.17,550,464.7c22.38-42,19.51-76.79,75.25-60.15s98,4,116-46.18c18.86-52.77,102-64.5,91.43-121.65-18.36-99.58-167.49-44.09-221.16,15.34S539.93,268,493,241.93c-64.12-35.65-69.34,52.3-109.73,55.37C351.56,299.71,343.72,285.12,321.73,269.78Z"/></clipPath><clipPath id="clip-path-2" transform="translate(0 22.79)"><path class="cls-1" d="M349,633.64q-43-27.17-85-56.41c-.7.23,18.81-70.93,66-91.87,92.7-40,77.45-119.54,81.39-160.91,3.26-59.37,40.51-116.76,91.36-80.38,50.12,34.14,108.16-74.47,137.08-165.13,10.63-45.66,73-79.13,117.8-73.24,46.2,5,74.84,49.38,50,138.77-24.33,105.46-121.2,132.62-169,169.69-47,36.37-4.09,101.7-71.24,122.62-57.37,19.61-120.64,24-122.84,79.55C443.07,571.63,421.52,607.8,349,633.64Z"/></clipPath><linearGradient id="New_Gradient_Swatch_2" x1="9528.58" y1="3728.62" x2="9287.54" y2="4413.68" gradientTransform="matrix(-0.59, -0.81, -0.81, 0.59, 9392.7, 5498.52)" gradientUnits="userSpaceOnUse"><stop offset="0" stop-color="#af206e"/><stop offset="0.55" stop-color="#e34256"/><stop offset="1" stop-color="#eb8b23"/></linearGradient></defs><g id="Layer_2" data-name="Layer 2"><g id="Layer_1-2" data-name="Layer 1"><path class="cls-2" d="M263.18,54.64C189.87,20.85,71.41,31.75,14.37,118.17c-55.92,84.74,72.05,179.65,33.76,373.09-20.6,104-58.27,140.24-35.28,204.28,23.72,66.08,94.08,111.85,157.26,127.87,130.34,33,187.13-71.44,333.62-35.27,50.41,12.44,67.58,30.71,120.52,30.86,12.68,0,111.48.4,163.13-57.32,80.14-89.54-52.34-208.11-27.19-482.89,4.2-45.93,12.91-97.33-15.43-150.92-39.27-74.26-122-99.58-153.84-110C513.39-7.61,395.31-11.25,363.71,43.3,353.5,60.94,307.76,75.19,263.18,54.64Z" transform="translate(0 22.79)"/><path class="cls-3" d="M304.73,394.87c-3.41-4.61-6.78-17.64-6.26-21.4,3.48-25,6.94-72.28,27.23-89.64,3.47-3,20.62,8.76,25.61,7.92,12.75,4.82,16.88,7.28,31.25,5.91C425,293.6,428.2,206.57,492.87,242c47.37,25.93,64.78,69.6,118.56,10.11s202.79-114.91,221.19-15.35c10.56,57.14-72.59,68.88-91.43,121.65-17.9,50.15-60.2,62.82-116,46.18S572.41,422.66,550,464.7c-26.94,50.5-92-3.13-119.88-30.45C407.63,412.25,335.56,371.4,304.73,394.87Z" transform="translate(0 22.79)"/><g class="cls-4"><path class="cls-5" d="M310.93,330.76l.42-1.15c176.38,64.55,371.94,17.45,523.13-126l.84.88c-71.66,68-156.57,116.05-245.56,139C496.21,367.69,399.79,363.27,310.93,330.76Z" transform="translate(0 22.79)"/><path class="cls-5" d="M541.19,487C518.87,440.7,462.55,381.59,415.65,355.2l.6-1.06c47.09,26.49,103.63,85.84,126,132.3Z" transform="translate(0 22.79)"/><path class="cls-5" d="M345.7,343l.08-1.22c27.91,2,55.73-10.27,82.69-36.33,19.77-19.12,38.63-45.09,56.06-77.2l1.07.58c-17.48,32.22-36.42,58.29-56.28,77.49C402.1,332.67,374,345,345.7,343Z" transform="translate(0 22.79)"/><path class="cls-5" d="M602.27,339.79l0-1.22c52.79,1,97.86,33.39,126.39,60.41l-.84.88C699.47,373,654.66,340.76,602.27,339.79Z" transform="translate(0 22.79)"/><path class="cls-5" d="M714.08,293.91l-.78-.93c45.72-38.06,59.69-98.9,64-131.79l1.21.16C774.18,194.41,760.12,255.6,714.08,293.91Z" transform="translate(0 22.79)"/></g><g class="cls-6"><path class="cls-7" d="M349,633.64q-43-27.17-85-56.41c-.7.23,18.81-70.93,66-91.87,92.7-40,77.45-119.54,81.39-160.91,3.44-59.24,37.84-109.79,89.89-87.69C559.51,260.14,612,169.86,639.83,78.94c10.63-45.66,73-79.13,117.8-73.24,46.2,5,74.84,49.38,50,138.77-24.33,105.46-121.2,132.62-169,169.69-47,36.37-4.09,101.7-71.24,122.62-57.37,19.61-120.64,24-122.84,79.55C443.07,571.63,421.52,607.8,349,633.64Z" transform="translate(0 22.79)"/><path class="cls-8" d="M304.67,618.71c.25-.59,91.79-128,203-242.21,16.78-19,34.26-37.95,51.16-56.27,94.11-102,183-198.4,197.34-343l2,.19C743.75,122.71,654.62,219.31,560.27,321.6c-16.89,18.31-34.36,37.25-51.16,56.28C397.34,492.73,307,618.75,306.49,619.58Z" transform="translate(0 22.79)"/><path class="cls-8" d="M645.34,225.38l-.83-1.84c51-22.84,116.27-58.56,151.3-77.75,28.36-15.53,28.44-15.49,29.31-14.92l-.55.85.08,1c-1.3.3-13,6.72-27.87,14.85C761.72,166.76,696.46,202.51,645.34,225.38Z" transform="translate(0 22.79)"/><path class="cls-8" d="M678.33,177.45c12.18-46.47,7-82.92.55-105.31-7-24.39-17.5-38.8-19.1-39.88l.44-.65L660,30.36c.6-.11,1.07.26,1.72,1,9.37,10.18,40,64.91,18.57,146.63Z" transform="translate(0 22.79)"/><path class="cls-8" d="M439.7,453.46l-1.74-1c48.76-82.14,25.73-189.15,13.56-231.35-.65-2.27-.86-3-.9-3.35l2-.22-1,.11,1-.12c0,.25.41,1.53.84,3a414.22,414.22,0,0,1,15.83,90C472.62,366.66,462.67,414.77,439.7,453.46Z" transform="translate(0 22.79)"/><path class="cls-8" d="M472.35,417l-1.14-1.67c63.05-43.07,142.31-13.07,143.51-12.37h0l.3,1.17-1,.63.09-1-.47.88C612.9,404.32,534.77,374.38,472.35,417Zm141.83-14.25-.09,1Z" transform="translate(0 22.79)"/><path class="cls-8" d="M320,598.05c8.45-17.31,15.45-50.11.84-108.06-.83-3.29-.83-3.29-.55-3.73l1.71,1.07-.85-.53,1,0c0,.24.32,1.39.65,2.72,14.76,58.54,7.62,91.82-1,109.44Z" transform="translate(0 22.79)"/><path class="cls-8" d="M344.25,569.22l-1.54-1.31c23-27.35,77-30.9,107.12-30.57h1.79l.12,2h-1.93C420,539,366.73,542.49,344.25,569.22Z" transform="translate(0 22.79)"/></g></g></g></svg>