<svg xmlns="http://www.w3.org/2000/svg" xmlns:xlink="http://www.w3.org/1999/xlink" viewBox="0 0 536.9 325.78"><defs><style>.cls-1{fill:none;}.cls-2{fill:url(#New_Gradient_Swatch_3);}.cls-3{clip-path:url(#clip-path);}.cls-4{fill:#fcfdfe;}</style><linearGradient id="New_Gradient_Swatch_3" x1="1694.79" y1="1450.82" x2="1851.46" y2="2452.4" gradientTransform="matrix(-0.13, -0.99, -0.99, 0.13, 2211.77, 1646.6)" gradientUnits="userSpaceOnUse"><stop offset="0" stop-color="#5f2d78"/><stop offset="1" stop-color="#af206e"/></linearGradient><clipPath id="clip-path" transform="translate(-34.44 20.79)"><path class="cls-1" d="M57.76,87.8C39.2,122.57,18.88,157.19,0,192.11c14.24,17.41,31.42,37.54,54.71,22,32.39-21.61,89.18,16.07,111.52,38.17,27.64,27.35,92.9,80.92,119.79,30.44,22.38-42,19.51-76.79,75.25-60.14s98,4,116-46.18c18.85-52.78,102-64.5,91.42-121.65C550.28-44.85,401.16,10.65,347.48,70.08S276,86.05,229,59.94c-64.13-35.65-69.34,52.31-109.74,55.38C87.59,117.72,79.75,103.14,57.76,87.8Z"/></clipPath></defs><g id="Layer_2" data-name="Layer 2"><g id="Layer_1-2" data-name="Layer 1"><path class="cls-2" d="M40.76,212.88c-3.42-4.6-6.78-17.63-6.26-21.39,3.47-25,6.94-72.28,27.23-89.64,3.46-3,20.62,8.76,25.61,7.91,12.75,4.82,16.87,7.29,31.25,5.91C161,111.62,164.23,24.59,228.9,60c47.37,25.93,64.77,69.59,118.55,10.11S550.25-44.82,568.64,54.74c10.56,57.14-72.58,68.87-91.42,121.65-17.91,50.15-60.21,62.82-116,46.18S308.44,240.68,286,282.72c-26.94,50.49-92-3.13-119.88-30.45C143.65,230.27,71.58,189.42,40.76,212.88Z" transform="translate(-34.44 20.79)"/><g class="cls-3"><path class="cls-4" d="M47,148.77l.42-1.14c176.38,64.54,372,17.45,523.13-126l.84.88c-71.65,68-156.56,116.05-245.55,139C232.23,185.71,135.81,181.29,47,148.77Z" transform="translate(-34.44 20.79)"/><path class="cls-4" d="M277.22,305c-22.32-46.27-78.64-105.38-125.54-131.77l.6-1.06c47.08,26.49,103.62,85.84,126,132.3Z" transform="translate(-34.44 20.79)"/><path class="cls-4" d="M81.72,161.05l.09-1.22c27.9,2,55.72-10.27,82.69-36.34,19.77-19.11,38.63-45.08,56.06-77.2l1.07.58c-17.49,32.23-36.42,58.3-56.28,77.5C138.12,150.69,110,163,81.72,161.05Z" transform="translate(-34.44 20.79)"/><path class="cls-4" d="M338.29,157.8l0-1.21c52.78,1,97.86,33.39,126.38,60.4l-.84.89C435.5,191,390.69,158.78,338.29,157.8Z" transform="translate(-34.44 20.79)"/><path class="cls-4" d="M450.11,111.93l-.78-.94C495,72.94,509,12.09,513.28-20.79l1.21.16C510.21,12.43,496.14,73.61,450.11,111.93Z" transform="translate(-34.44 20.79)"/></g></g></g></svg>