<svg xmlns="http://www.w3.org/2000/svg" xmlns:xlink="http://www.w3.org/1999/xlink" viewBox="0 0 230.25 523.46"><defs><style>.cls-1{fill:url(#linear-gradient);}.cls-2{isolation:isolate;}.cls-3{clip-path:url(#clip-path);}.cls-4{fill:#fff;opacity:0.7;mix-blend-mode:soft-light;}</style><linearGradient id="linear-gradient" x1="41.13" y1="41.34" x2="112.57" y2="292.61" gradientUnits="userSpaceOnUse"><stop offset="0" stop-color="#2e1a47"/><stop offset="1" stop-color="#5f2d78"/></linearGradient><clipPath id="clip-path" transform="translate(0 29.11)"><path class="cls-1" d="M12.06,459.34c-19-21.85-12.78-65.4-.19-92.57C26.58,335,44,338.35,53.52,312.78c17.72-47.61-35.45-78.62-21.4-128,11.49-40.41,51.39-35,62.07-80.34,7.72-32.7-9.35-51.23,6.75-77.48C102.31,24.67,117.5.68,141.31,0c24-.67,42.81,22.81,50.74,40,14.65,31.72-5.54,46.58-2,90.56,4.86,59.88,45.18,67.78,39.65,112.62-4.57,37-33.11,40.17-37.36,81.32-3.94,38.21,19.24,49.38,14.12,74.83C194.72,457.87,50.9,503.9,12.06,459.34Z"/></clipPath></defs><g class="cls-2"><g id="Layer_2" data-name="Layer 2"><g id="Layer_1-2" data-name="Layer 1"><path class="cls-1" d="M12.06,459.34c-19-21.85-12.78-65.4-.19-92.57C26.58,335,44,338.35,53.52,312.78c17.72-47.61-35.45-78.62-21.4-128,11.49-40.41,51.39-35,62.07-80.34,7.72-32.7-9.35-51.23,6.75-77.48C102.31,24.67,117.5.68,141.31,0c24-.67,42.81,22.81,50.74,40,14.65,31.72-5.54,46.58-2,90.56,4.86,59.88,45.18,67.78,39.65,112.62-4.57,37-33.11,40.17-37.36,81.32-3.94,38.21,19.24,49.38,14.12,74.83C194.72,457.87,50.9,503.9,12.06,459.34Z" transform="translate(0 29.11)"/><g class="cls-3"><path class="cls-4" d="M38.78,494.35a.48.48,0,0,1-.14-.94,170.91,170.91,0,0,0,65-36.16c17.67-15.74,35.95-32,40.79-56.57,3.65-18.56-2.55-30.56-10.41-45.74-7.65-14.8-17.18-33.22-19.58-63.66-1.37-17.38-3.08-39,7.9-61.86,6.39-13.31,13.8-19.89,20.33-25.69,6.82-6.07,12.22-10.87,13.93-21.3,2.78-17-3.61-30-11-45.05-4.57-9.29-9.3-18.9-12.64-30.74-9.39-33.32-.27-72.78,27.12-117.28a.49.49,0,0,1,.66-.16.49.49,0,0,1,.16.67c-27.24,44.26-36.33,83.46-27,116.51,3.32,11.76,8,21.33,12.58,30.58,7.47,15.18,13.92,28.3,11.09,45.63-1.76,10.76-7.55,15.9-14.25,21.86-6.46,5.74-13.78,12.25-20.09,25.39-10.87,22.61-9.17,44.1-7.81,61.37,2.38,30.24,11.86,48.56,19.48,63.28,7.94,15.36,14.21,27.49,10.49,46.37-4.9,24.87-23.3,41.26-41.09,57.11a171.68,171.68,0,0,1-65.4,36.36Z" transform="translate(0 29.11)"/><path class="cls-4" d="M118.41,241.18a.46.46,0,0,1-.4-.21c-28.79-41.86-38.63-76.62-41.82-98.41-3.46-23.65,0-37.59,0-37.73a.48.48,0,0,1,.58-.35.49.49,0,0,1,.35.59c0,.14-3.41,13.94,0,37.42,3.18,21.67,13,56.25,41.65,97.94a.48.48,0,0,1-.12.67A.53.53,0,0,1,118.41,241.18Z" transform="translate(0 29.11)"/><path class="cls-4" d="M118.77,316.15a.47.47,0,0,1-.43-.28.48.48,0,0,1,.23-.64c24.31-11.62,44.29-26.64,59.41-44.64a142.67,142.67,0,0,0,26.78-48.53c9.7-30.33,6.32-54.75,6.29-55a.48.48,0,0,1,.95-.14c0,.25,3.44,24.86-6.3,55.39a143.67,143.67,0,0,1-27,48.88c-15.2,18.12-35.3,33.23-59.75,44.91A.54.54,0,0,1,118.77,316.15Z" transform="translate(0 29.11)"/><path class="cls-4" d="M123.73,441.07a.45.45,0,0,1-.25-.07c-50.42-29.17-71.7-65.06-80.67-90-9.72-27.09-7.48-47.56-7.45-47.76a.48.48,0,0,1,.53-.43.49.49,0,0,1,.42.54c0,.2-2.24,20.49,7.43,47.37,8.92,24.81,30.08,60.48,80.23,89.49a.48.48,0,0,1,.17.66A.49.49,0,0,1,123.73,441.07Z" transform="translate(0 29.11)"/><path class="cls-4" d="M133,101.07a.49.49,0,0,1-.27-.89c38.6-25.66,50.74-59.26,54.13-82.94C190.53-8.43,185-28.3,184.94-28.5a.48.48,0,0,1,.33-.59.48.48,0,0,1,.6.33c.06.2,5.64,20.23,1.94,46.1C184.4,41.22,172.16,75.12,133.26,101A.46.46,0,0,1,133,101.07Z" transform="translate(0 29.11)"/></g></g></g></g></svg>