<svg xmlns="http://www.w3.org/2000/svg" xmlns:xlink="http://www.w3.org/1999/xlink" viewBox="0 0 287.21 497.35"><defs><style>.cls-1{fill:url(#linear-gradient);}.cls-2{clip-path:url(#clip-path);}.cls-3{fill:#e4e1e7;}</style><linearGradient id="linear-gradient" x1="97.6" y1="27.3" x2="233.65" y2="897.06" gradientUnits="userSpaceOnUse"><stop offset="0" stop-color="#e54355"/><stop offset="1" stop-color="#af206e"/></linearGradient><clipPath id="clip-path" transform="translate(0 12.4)"><path class="cls-1" d="M74,484.93c-5.19.32-16.76-3.57-19.35-5.83C37.35,464.08,3.16,438.05,0,414c-.53-4.1,16.86-11.33,18.69-15.53,10-7.31,13.89-9.22,20-20.82C56.58,343.44-8,297.92,50.94,266.31c43.15-23.16,84.94-14.77,66.36-85.07S130.38-29.71,215.12,5.59c48.64,20.26,16.4,89.24,47.18,129.67,29.23,38.43,17.92,76.84-22.31,111s-12.39,49.1,8.45,87c25,45.46-47.9,68.32-82.47,76C138.13,415.36,71.42,449.9,74,484.93Z"/></clipPath></defs><g id="Layer_2" data-name="Layer 2"><g id="Layer_1-2" data-name="Layer 1"><path class="cls-1" d="M74,484.93c-5.19.32-16.76-3.57-19.35-5.83C37.35,464.08,3.16,438.05,0,414c-.53-4.1,16.86-11.33,18.69-15.53,10-7.31,13.89-9.22,20-20.82C56.58,343.44-8,297.92,50.94,266.31c43.15-23.16,84.94-14.77,66.36-85.07S130.38-29.71,215.12,5.59c48.64,20.26,16.4,89.24,47.18,129.67,29.23,38.43,17.92,76.84-22.31,111s-12.39,49.1,8.45,87c25,45.46-47.9,68.32-82.47,76C138.13,415.36,71.42,449.9,74,484.93Z" transform="translate(0 12.4)"/><g class="cls-2"><path class="cls-3" d="M28.35,448.5l-.66-.89C164,345.55,225,173.66,190.9-12.2l1.09-.2C208.17,75.68,202.67,164,176.07,243,148.12,326,97,397.08,28.35,448.5Z" transform="translate(0 12.4)"/><path class="cls-3" d="M261,350.87c-46.2-5.94-119,7.59-162.25,30.16l-.51-1c43.43-22.66,116.51-36.24,162.9-30.28Z" transform="translate(0 12.4)"/><path class="cls-3" d="M54.88,428.16l-.88-.67c15.3-20.23,19.78-47.42,13.32-80.81C62.59,322.19,52.19,295,36.41,265.87l1-.52c15.82,29.23,26.26,56.52,31,81.12C74.93,380.18,70.38,407.66,54.88,428.16Z" transform="translate(0 12.4)"/><path class="cls-3" d="M179.41,231.62l-.91-.62c26.87-39.63,73.81-57.83,108.45-66.13l.26,1.08C252.76,174.2,206.09,192.29,179.41,231.62Z" transform="translate(0 12.4)"/><path class="cls-3" d="M199.9,124l-1.1.13c-6.28-53.57-45.59-94.31-68.46-113.82l.71-.85C154.05,29.05,193.58,70,199.9,124Z" transform="translate(0 12.4)"/></g></g></g></svg>