<svg xmlns="http://www.w3.org/2000/svg" viewBox="0 0 1157.36 1454.87"><defs><style>.cls-1,.cls-2,.cls-26{fill:#fff;}.cls-1,.cls-3{stroke:#dedede;stroke-miterlimit:10;}.cls-1{stroke-width:18px;}.cls-3{fill:#af206e;stroke-width:6px;}.cls-10,.cls-11,.cls-12,.cls-13,.cls-14,.cls-15,.cls-16,.cls-17,.cls-18,.cls-19,.cls-20,.cls-21,.cls-22,.cls-23,.cls-24,.cls-25,.cls-26,.cls-27,.cls-28,.cls-29,.cls-3,.cls-30,.cls-31,.cls-32,.cls-33,.cls-34,.cls-35,.cls-36,.cls-37,.cls-38,.cls-39,.cls-4,.cls-40,.cls-41,.cls-42,.cls-43,.cls-5,.cls-6,.cls-7,.cls-8,.cls-9{fill-rule:evenodd;}.cls-4{fill:#a47348;}.cls-5{fill:#eda5a5;}.cls-6{fill:#ffc6c5;}.cls-7{fill:#c39165;}.cls-8{fill:#e0b287;}.cls-9{fill:#ee9e46;}.cls-10{fill:#e96372;}.cls-11{fill:#65357d;}.cls-12{fill:#f7d339;}.cls-13{fill:#eb8c25;}.cls-14{fill:#f8d852;}.cls-15{fill:#aca087;}.cls-16{fill:#6d4084;}.cls-17{fill:#c67c7b;}.cls-18{fill:#c68382;}.cls-19{fill:#272324;}.cls-20{fill:#64337c;}.cls-21{fill:#855f98;}.cls-22{fill:#62317b;}.cls-23{fill:#b9a8b3;}.cls-24{fill:#998492;}.cls-25{fill:#ed983b;}.cls-27{fill:#d08888;}.cls-28{fill:#bd8e90;}.cls-29{fill:#cea1a3;}.cls-30{fill:#231f20;}.cls-31{fill:#6a3c81;}.cls-32{fill:#eb8b23;}.cls-33{fill:#585556;}.cls-34{fill:#5f5869;}.cls-35{fill:#ee9a40;}.cls-36{fill:#794f8e;}.cls-37{fill:#ff8360;}.cls-38{fill:#ed9537;}.cls-39{fill:#612f79;}.cls-40{fill:#ec9332;}.cls-41{fill:#f1ab61;}.cls-42{fill:#5f2d78;}.cls-43{fill:#ff98ce;}</style></defs><g id="Layer_2" data-name="Layer 2"><g id="Layer_1-2" data-name="Layer 1"><rect class="cls-1" x="-67.8" y="244.08" width="1321.27" height="999.9" transform="translate(-199.33 1270.82) rotate(-85.08)"/><rect class="cls-1" x="-110.52" y="200.42" width="1321.27" height="999.89" transform="matrix(0.06, -1, 1, 0.06, -183.52, 1205.27)"/><rect class="cls-2" x="-75.3" y="225.89" width="1254.86" height="949.64" transform="translate(-175.2 1217.27) rotate(-87.15)"/><path class="cls-3" d="M1043.36,342.5l-18.74,375.93C881,732.35,741.44,744.65,708,788.72c-41.58,54.83,126.35,166.89,299.56,271.52l-10,199.48c-242.7-36.91-513.95-82.24-445.51-24.1,25,21.24,86.15,57.84,158.11,100.94L44.65,1303.38,92.54,342.59C325.25,405.79,508.23,468,498.37,450.8c-13-22.78-244.85-121-400.65-212.21l8-161.55C323.49,93.93,744.71,211.7,1043.36,342.5Z"/><path class="cls-4" d="M108.29,814c6.6-4.63,9.34-12.09,6.12-16.67s-11.16-4.55-17.75.08-9.33,12.09-6.12,16.66S101.7,818.62,108.29,814Z"/><path class="cls-5" d="M269,613A265.43,265.43,0,0,0,153.86,834.46a84.85,84.85,0,0,0,69.55,83c40.4,7.68,36.88-41,52.42-79,9.44-23.17,62.95-19.14,75-42.27s24.9-45.29,38.44-66.35A85.54,85.54,0,0,0,269,613Z"/><path class="cls-6" d="M259.47,686c3.3,18.72,6.1,41.73,4.78,61.42a25.37,25.37,0,0,0,23.21,26.94L320,777s-21.34,41-51.23,45-98.29,25.79-98.29,25.79-55.4-100.7,49-177.79a25.35,25.35,0,0,1,40,16Z"/><path class="cls-5" d="M987.55,513.55a248.68,248.68,0,0,1,45.2,41.74l-12.32,247.3a80.11,80.11,0,0,1-84.81-51.34c-8.45-22.07-18.13-44.26-29-66.35s-22.59-43.28-35-63.42a80.79,80.79,0,0,1,115.9-107.93Z"/><path class="cls-6" d="M1028.9,632.61a29,29,0,0,1-3.62-5.49c-3.76-7.39-7.93-14.77-12.53-22.08s-9.45-14.28-14.49-20.86a28.33,28.33,0,0,1,35.18-42.56Z"/><path class="cls-5" d="M434.92,485.34A250.63,250.63,0,0,0,290.14,671.4,80.78,80.78,0,0,0,437.8,728.61c12.74-19.9,26.69-39.67,41.81-59.12s30.86-37.81,47-55a80.79,80.79,0,0,0-91.73-129.1Z"/><path class="cls-6" d="M374.48,509.41a87.9,87.9,0,0,0-50.78,65.25,28.33,28.33,0,0,0,51.79,20.07c4.46-7,9.35-13.91,14.65-20.73s10.84-13.27,16.51-19.32a28.33,28.33,0,0,0-32.17-45.27Z"/><path class="cls-7" d="M506,307.88s-80.37,90.2-23.81,361.28S748.78,921.29,847.87,872.58s105.54-469,84.38-528.78S834.13,246,771.6,241.24,566,232.62,506,307.88Z"/><path class="cls-8" d="M506,307.88S454,366.22,463.06,530l4.36.26C585,536.1,683.32,480.56,687,406.2c2.94-58.91-54.37-111.95-136.75-134.38C533.08,281.13,517.88,292.94,506,307.88Z"/><path class="cls-4" d="M849.1,262.21c-25.14-11.83-52.47-19.08-77.5-21-26.12-2-66.31-3.82-108.62.22-3.86,4.56-6.1,9.1-6.27,13.17-.31,7.53,6.52,12.31,17.72,15.62q1.5,3.35,3.26,6.54c-1.68,3.33-3.2,6.7-4.55,10.08-8.1,6.37-13,15.8-13.6,29.37-1.63,39.41,32.39,104.84,78.31,109.27s86.32-53.81,88-93.21c.58-14.19-3.7-24.79-11.57-32.76-.9-2.92-1.92-5.84-3-8.76l1,0h.45a29.4,29.4,0,0,0,9.9,2.75c10.78.82,15.24-7,17.85-17.32a61.38,61.38,0,0,0,8.8-11.89A2.61,2.61,0,0,0,849.1,262.21Z"/><path class="cls-4" d="M571,293.69s-94.35,8.05-119.77,41.64-26.11,420.43,5.24,454.31,415.16,59,470.28,30.24S968.75,350.08,953,334,906.36,276.4,571,293.69Z"/><path class="cls-7" d="M560.65,294.84c-25.2,3.18-89.17,13.73-109.42,40.49-11.65,15.4-18.1,105.07-18.66,200.92,117.07,5.44,214.76-50,218.45-124.09C653.37,365.11,617.26,321.8,560.65,294.84Z"/><path class="cls-9" d="M824.35,293.6l-4.06-.35a20.74,20.74,0,0,0,2.27.29c.62,0,1.22.06,1.79.06Zm-12.46-1c.85,2.31,1.64,4.62,2.35,6.93,7.87,8,12.15,18.57,11.57,32.76-1.64,39.4-42,97.65-88,93.21s-79.94-69.86-78.31-109.27c.48-11.48,4.09-20,10.09-26.2C729,288.83,775.42,290,811.89,292.61Z"/><path class="cls-10" d="M432.8,514.37c-1.83,118.85,5.59,255.74,23.67,275.27,31.35,33.87,415.16,59,470.28,30.24,31.18-16.24,40.52-164.39,39.92-293-23.43-18.58-90.4-49.42-424.35-36.09C542.32,490.83,474.72,495.55,432.8,514.37Z"/><path class="cls-11" d="M937,951.31s73.09,193.46,54.75,233.94-92.34,65.64-103.2,54.27-54.59-233-46.71-258S927.42,935.67,937,951.31Z"/><path class="cls-11" d="M959.77,1000.54c-3.94-1.33-9.71-9.49-16-18.24C935,970.13,925.1,956.79,917.58,959c-12.94,3.79-21.74,19.48-31.05,20.78s-70.24-2.72-69.16-12.86,104.38-38.95,124-30.7c8,3.38,13.58,11.78,19.15,19.35C968.9,966.91,981.15,1007.76,959.77,1000.54Z"/><path class="cls-11" d="M421.64,992.18S365.88,1191.33,387.71,1230s97.77,57.25,107.58,45,33.86-236.87,23.81-261.13S429.82,975.76,421.64,992.18Z"/><path class="cls-11" d="M403.3,1043.22c3.82-1.67,8.84-10.3,14.36-19.58,7.68-12.89,16.33-27.06,24-25.52,13.22,2.64,23.38,17.49,32.75,18s69.74-8.89,67.76-18.89S434.79,967.58,416,977.53c-7.69,4.07-12.49,12.93-17.38,21C391.26,1010.54,382.65,1052.3,403.3,1043.22Z"/><path class="cls-12" d="M842.35,1219.41c-34,16.65-49.65,52.5-35.07,80.08a311.32,311.32,0,0,1,14.87,42.65l138.27,6.9c-12-25.38-22.91-53.19-24.76-88.27h0a47,47,0,0,0-5.44-21.55C915.65,1211.63,876.3,1202.76,842.35,1219.41Z"/><path class="cls-11" d="M838.32,1196.62c-55,14.06-89,51.56-76.08,83.77s68,46.92,123,32.86,89-51.56,76.07-83.77S893.3,1182.56,838.32,1196.62Z"/><path class="cls-12" d="M751.57,1224.65a37.79,37.79,0,0,0,2.72,12.78c13,32.21,68,46.92,123,32.86,52.93-13.53,86.47-48.8,77.32-80.16,7.16-11.3,10.24-23.28,8.33-34.94h0c-9.3-82.29-70.5-130.83-79.78-202.07-.31-2.4-.64-4.6-1-6.65,7.27-23.93,6.45-47.58-4.19-66.39C854.2,838,790.27,836,735.21,875.66s-80.4,105.89-56.59,148c8,14.11,20.48,23.71,35.64,28.74l-.94.61c23,80.71,13.25,93.92,19.35,139.79l.14,1,.06.46h0a43.29,43.29,0,0,0,2.58,9.32A52.84,52.84,0,0,0,751.57,1224.65Z"/><path class="cls-13" d="M905.4,1017.82c-10.53-20.46-19.15-41.37-22.2-64.71-.31-2.4-.64-4.6-1-6.65,7.27-23.93,6.45-47.58-4.19-66.39C854.2,838,790.27,836,735.21,875.66s-80.4,105.89-56.59,148c8,14.11,20.48,23.71,35.64,28.74l-.94.61c7.26,25.45,11.26,44.19,13.53,59.36,13,2.44,31.67,1.88,58.72-5.12C841.47,1092.74,883.58,1046.76,905.4,1017.82Z"/><path class="cls-14" d="M839.28,1005.53a39.55,39.55,0,0,1,37.45,36.25,15.42,15.42,0,0,0,8,12.51,27.93,27.93,0,0,1,6.51,43.62,15.55,15.55,0,0,0-2.91,17.6,25.22,25.22,0,1,1-42.67-5,15.56,15.56,0,0,0,1.25-17.79l-.17-.31a15.39,15.39,0,0,0-12.52-8,39.55,39.55,0,0,1,5.07-78.92Z"/><path class="cls-15" d="M962.17,1149.06c-4-27.17-13.56-50.67-24.77-72.66a16.82,16.82,0,0,0-2.89,23.49,15.44,15.44,0,0,1,2.32,15.21,25.2,25.2,0,0,0,22.36,34A26.88,26.88,0,0,0,962.17,1149.06Z"/><path class="cls-13" d="M751.57,1224.65a37.79,37.79,0,0,0,2.72,12.78c11,27.34,52.37,42.08,98.27,37.29a20.26,20.26,0,0,0-12.33-8.08,15.5,15.5,0,0,1-12-11.39,31.15,31.15,0,0,0-8-13.87,15.39,15.39,0,0,1-4.34-13.87,43.11,43.11,0,0,0-15.16-40.83,15.6,15.6,0,0,1-4.71-18,26.19,26.19,0,1,0-48.12,1.5,15.6,15.6,0,0,1-3.57,18.33,43,43,0,0,0-9.62,13.08c.23.69.48,1.37.76,2.06A52.84,52.84,0,0,0,751.57,1224.65Z"/><path class="cls-11" d="M803.43,1265.28a162.38,162.38,0,0,0,23.79,77.12l132.6,6.61c7.37-16.37,11.12-36.55,10-59-3-62.66-42.76-119-88.72-125.84S800.39,1202.61,803.43,1265.28Z"/><path class="cls-16" d="M841.21,1272.48c1.37,28.3,13,54.82,29.63,72.09l75.13,3.75c11.23-13.33,17.68-33.81,16.52-57.8-2.22-45.66-31.17-86.72-64.65-91.7S839,1226.81,841.21,1272.48Z"/><path class="cls-11" d="M836.76,1252.93c10.54,7.89,23.91,8.89,29.88,2.25s2.27-18.44-8.27-26.33-23.91-8.89-29.87-2.24S826.23,1245,836.76,1252.93Z"/><path class="cls-16" d="M841.14,1248.05c6.27,4.7,14.23,5.3,17.78,1.34s1.35-11-4.92-15.67-14.23-5.29-17.78-1.33S834.87,1243.36,841.14,1248.05Z"/><path class="cls-11" d="M856.36,1330.18c8.63-5.93,20.16-5.65,25.77.63,3.55,4,3.86,9.43,1.4,14.39l-35.64-1.77C848.24,1338.67,851.2,1333.72,856.36,1330.18Z"/><path class="cls-16" d="M860.46,1334.78c5.13-3.53,12-3.36,15.33.38,2.38,2.67,2.32,6.44.21,9.67l-20.58-1C855.18,1340.65,857,1337.17,860.46,1334.78Z"/><path class="cls-5" d="M1018.08,849.71c-5.27-4.25-9.28-9-10.9-14.71-7.1-25.09-15.24-49.39-24.25-72.74a84.89,84.89,0,0,1,33.8-102.92,88.58,88.58,0,0,1,11.14-6Z"/><path class="cls-6" d="M972.52,595.12a156.1,156.1,0,0,1,49.18,58.07q3.08,6.24,5.55,12.59l-4.82,96.63A50.78,50.78,0,0,1,940,744c-5.29-13.82-11.35-27.72-18.18-41.56s-14.14-27.1-21.88-39.72a50.6,50.6,0,0,1,72.6-67.6Z"/><path class="cls-12" d="M890.93,413.84c-67.44-1.58-114.22,52-104.48,119.74S858.75,657.46,926.18,659s114.22-52,104.48-119.75S958.36,415.41,890.93,413.84Z"/><path class="cls-14" d="M882.27,395c-67.43-1.57-114.21,52-104.48,119.75S850.1,638.58,917.53,640.15s114.21-52,104.48-119.75S949.71,396.53,882.27,395Z"/><polygon class="cls-17" points="1007.8 784.31 1021.2 787.14 1021.41 782.95 1007.8 784.31"/><path class="cls-6" d="M433.18,568.26A157,157,0,0,0,342.5,684.8,50.6,50.6,0,0,0,435,720.64c8-12.47,16.71-24.85,26.19-37s19.33-23.69,29.46-34.49a50.6,50.6,0,0,0-57.46-80.86Z"/><polygon class="cls-17" points="360.43 746.42 308.32 746.71 318.44 694.04 323.76 734.97 360.43 746.42"/><path class="cls-12" d="M532.74,412.23c66.37,12.08,101.36,74,78.16,138.38s-95.82,106.73-162.18,94.65-101.36-74-78.15-138.37S466.38,400.16,532.74,412.23Z"/><path class="cls-14" d="M545.82,394c66.36,12.08,101.36,74,78.16,138.38S528.16,639.11,461.79,627s-101.36-74-78.15-138.39S479.46,381.93,545.82,394Z"/><path class="cls-12" d="M546.52,541.13a28,28,0,0,1-20,30.91,10.85,10.85,0,0,0-7.57,7.24,19.72,19.72,0,0,1-29.34,10.46,11,11,0,0,0-12.59.4,17.81,17.81,0,1,1-13-32,17.76,17.76,0,0,1,10.68,1.77,11,11,0,0,0,12.5-1.56,1.45,1.45,0,0,1,.18-.16,10.83,10.83,0,0,0,3.8-9.76,27.93,27.93,0,0,1,55.37-7.27Z"/><path class="cls-15" d="M381.2,559.23c-6.18-19.41-6.49-41.35.21-63.78a30,30,0,0,1,3.16-.64,30.29,30.29,0,0,1,22.25,5.5,11,11,0,0,0,13.18,0,18.5,18.5,0,1,1,7.62,33.13,11,11,0,0,0-11.87,5.73,30.34,30.34,0,0,1-22.41,15.78,35.32,35.32,0,0,1-3.8.3A10.84,10.84,0,0,0,381.2,559.23Z"/><path class="cls-12" d="M514.78,625.78a136,136,0,0,1-45.73,2.34,17.72,17.72,0,0,1,9.45-4.47,17.39,17.39,0,0,1,5.44,0A10.89,10.89,0,0,0,494.16,620a11.86,11.86,0,0,1,20.62,5.77Z"/><path class="cls-5" d="M262.64,903.39A101.87,101.87,0,0,1,311.44,1022a26,26,0,0,1-50.32-2.42,224.88,224.88,0,0,0-12.54-41,225.46,225.46,0,0,0-20-38,26,26,0,0,1,34-37.15Z"/><path class="cls-18" d="M116.28,995a101.87,101.87,0,0,0,99.2,81.24,26,26,0,0,0,12.35-48.84,229.13,229.13,0,0,1-66.11-54.14A26,26,0,0,0,116.28,995Z"/><path class="cls-5" d="M154.15,1004.17a101.82,101.82,0,0,0,66.52,109.63,26,26,0,0,0,27.89-42,229.14,229.14,0,0,1-44.33-73,26,26,0,0,0-50.08,5.37Z"/><path class="cls-11" d="M181.86,789.48c-53.83,7.61-92.05,44-85.35,81.28s55.75,61.34,109.59,53.73,92-44,85.36-81.28S235.7,781.87,181.86,789.48Z"/><path class="cls-11" d="M196.24,829c-42-7.64-80.7,11.93-86.48,43.72s23.56,63.74,65.55,71.38,80.7-11.94,86.48-43.72S238.22,836.64,196.24,829Z"/><path class="cls-16" d="M146.45,964.9c-33.58,5.73-53.08,25.62-43.58,44.42s44.44,29.41,78,23.67,53.09-25.62,43.58-44.42S180,959.16,146.45,964.9Z"/><path class="cls-16" d="M233.49,944.64c-11.69,25.74-7.11,48.4,10.24,50.61s40.88-16.84,52.57-42.58,7.11-48.4-10.24-50.62S245.19,918.9,233.49,944.64Z"/><path class="cls-11" d="M120.19,867.59s-28.81,68-19.5,129c0,0,77.18,27.38,126-.91s69.85-88.52,69.85-88.52S276.78,896,275.88,866.66Z"/><path class="cls-19" d="M218.68,1027.16l33.5-2.08a15.81,15.81,0,0,1,16.71,14.75l11.8,190.37a15.79,15.79,0,0,1-14.75,16.7l-33.5,2.08a15.79,15.79,0,0,1-16.7-14.75l-11.81-190.37A15.8,15.8,0,0,1,218.68,1027.16Z"/><path class="cls-19" d="M225,1039.06l22.47-1.39a10.6,10.6,0,0,1,11.21,9.9l12.44,200.71a10.6,10.6,0,0,1-9.89,11.21l-22.48,1.4A10.62,10.62,0,0,1,227.5,1251l-12.44-200.71A10.6,10.6,0,0,1,225,1039.06Z"/><path class="cls-19" d="M215.84,926.44l26.73-1.66a30.44,30.44,0,0,1,32.17,28.42l14.74,237.63A30.43,30.43,0,0,1,261.07,1223l-26.74,1.66a30.45,30.45,0,0,1-32.18-28.41L187.42,958.62A30.45,30.45,0,0,1,215.84,926.44Z"/><path class="cls-20" d="M215.83,926.44l26.74-1.65a30.28,30.28,0,0,1,22.38,8l17.33,279.59A30.28,30.28,0,0,1,261.06,1223l-26.73,1.65a30.26,30.26,0,0,1-22.38-8L194.61,937.11A30.34,30.34,0,0,1,215.83,926.44Z"/><path class="cls-21" d="M220.22,908.45l15.77-1a18,18,0,0,1,19,16.77l14.16,228.41a17.94,17.94,0,0,1-16.76,19l-15.77,1a17.94,17.94,0,0,1-19-16.76L203.46,927.43A18,18,0,0,1,220.22,908.45Z"/><path class="cls-22" d="M222.87,951.08l15.77-1a18,18,0,0,1,19,16.76l.63,10.15a18,18,0,0,0-19-16.76l-15.77,1a17.94,17.94,0,0,0-16.75,19l-.63-10.15A18,18,0,0,1,222.87,951.08Z"/><path class="cls-22" d="M226.76,1013.91l15.77-1a18,18,0,0,1,19,16.76l.63,10.14a18,18,0,0,0-19-16.76l-15.77,1a18,18,0,0,0-16.76,19l-.63-10.14A18,18,0,0,1,226.76,1013.91Z"/><path class="cls-21" d="M244.92,1184.37l3.73-.23a4,4,0,0,1,4.24,3.75l1.39,22.36a4,4,0,0,1-3.74,4.25l-3.74.22a4,4,0,0,1-4.24-3.74l-1.38-22.36A4,4,0,0,1,244.92,1184.37Z"/><path class="cls-23" d="M224.33,890.65l5.39-.33a6.11,6.11,0,0,1,6.47,5.72l1.47,23.68a6.12,6.12,0,0,1-5.72,6.47l-5.38.33a6.12,6.12,0,0,1-6.48-5.72l-1.47-23.67A6.14,6.14,0,0,1,224.33,890.65Z"/><path class="cls-24" d="M244.92,1184.37l3.73-.23a4,4,0,0,1,4.24,3.75l.45,7.19a4,4,0,0,1-3.75,4.24l-3.73.23a4,4,0,0,1-4.24-3.74l-.44-7.2A4,4,0,0,1,244.92,1184.37Z"/><path class="cls-23" d="M228.53,1075.6h0a6.74,6.74,0,0,1,7.13,6.3l3.43,55.42a6.74,6.74,0,0,1-6.29,7.13h0a6.74,6.74,0,0,1-7.13-6.29l-3.44-55.43A6.75,6.75,0,0,1,228.53,1075.6Z"/><path class="cls-23" d="M226.34,1040.24h0a6.74,6.74,0,0,1,7.12,6.3l.47,7.54a6.74,6.74,0,0,1-6.29,7.13h0a6.73,6.73,0,0,1-7.12-6.3l-.47-7.54A6.74,6.74,0,0,1,226.34,1040.24Z"/><path class="cls-13" d="M489.19,926.86c-.22,2-.41,4.2-.56,6.58-4.5,70.56-62.63,113.14-66.41,194.78l233.51,62.22c3.37-46.62-7.78-60.28,10.09-139.83l-1-.7c14.88-3.54,26.77-11.92,33.83-25.28,21.05-39.85-8.84-108.84-66.76-154.12s-121.94-49.68-143-9.83C479.51,878.49,480.28,902.13,489.19,926.86Z"/><path class="cls-12" d="M547.58,1204.71c35.19,20.1,53.37,57.64,40.59,83.86a268.43,268.43,0,0,0-12,41.31L437.85,1323c10.36-24.27,19.4-51.08,18.88-86.1h0a42.34,42.34,0,0,1,4-21.08C473.51,1189.59,512.39,1184.62,547.58,1204.71Z"/><path class="cls-14" d="M582.84,1304.07a238.34,238.34,0,0,0-6.71,25.81L533,1327.73a31.43,31.43,0,1,1,48.15-29.14A12.43,12.43,0,0,0,582.84,1304.07Z"/><path class="cls-11" d="M550.08,1182.25c56.11,19.6,92.82,60.62,82,91.65s-65.09,40.28-121.2,20.69-92.82-60.63-82-91.65S494,1162.65,550.08,1182.25Z"/><path class="cls-13" d="M555.16,1139.93c56.11,19.6,92.82,60.64,82,91.66s-65.1,40.28-121.22,20.68-92.81-60.62-82-91.64S499.05,1120.34,555.16,1139.93Z"/><path class="cls-13" d="M609.41,743.46c12.71-33.57,50.33-45,88.85-45.11s75.31,11.47,85.61,45c44.53,145.07-8,326-95.2,335.4C599.28,1088.45,552.63,893.45,609.41,743.46Z"/><path class="cls-25" d="M792.84,225.47s27.75,23.69,24.77,28.83-18.69,26.39-38.55,26.39-21.76-18.91-21.76-18.91Z"/><path class="cls-14" d="M641.84,210.86S610.06,228.8,612,234.42s13.29,29.48,32.78,33.29,25-14.4,25-14.4Z"/><path class="cls-11" d="M837.14,403.41c-3-2.48-29.72-35-29.72-35L775,390.4l53.58,24Z"/><path class="cls-11" d="M573,397.24c3.16-2.33,33.11-34.18,33.11-34.18l29.56,24.09L581,408.62Z"/><path class="cls-11" d="M546,674.88c20.86-31.27,86.11-40.61,153.39-39.14s132,13.86,151.34,46c83.58,139.1-1,308.24-152.88,313.66C542.14,1001,452.86,814.58,546,674.88Z"/><path class="cls-6" d="M636,309.57l-25.53,100.7s76.22,115.19,167.93,12.52l-9.49-113.38S699.94,251.7,636,309.57Z"/><path class="cls-5" d="M636,309.57l-7.12,28.08c.85,39.54,30.23,96.26,72.82,100.38,28.62,2.77,56.44-18.89,74.2-45.11l-5.75-68.73c-2.73,1.56-5.4,2.65-7.56,2.7-7.91.16-48.79-22.84-48.79-22.84S681.33,317.53,672,317.38c-7.61-.12-21.09-11.69-25.85-16A116.66,116.66,0,0,0,636,309.57Z"/><path class="cls-11" d="M1029.2,413s19.22,107.35-113.73,129.18L844.56,395.3S948.6,371.16,1029.2,413Z"/><path class="cls-26" d="M888.28,477.82,856,410.91a19,19,0,0,1,14.8-27.09c25.64-3.12,67.07-5.37,109,4.09a19,19,0,0,1,14,23.92c-8.17,27.52-29.52,59.91-82.93,75.92A18.85,18.85,0,0,1,888.28,477.82Z"/><path class="cls-25" d="M723,145.45c62.62,6.06,74.8,44.49,70.4,90s-43.06,79-86.34,74.87-74.8-44.5-70.4-90S660.35,139.4,723,145.45Z"/><path class="cls-14" d="M722.92,145.24c3.67.36,7.15.82,10.48,1.4,35.51,14.31,42.7,46.36,39.15,83-4.4,45.59-43.1,79.16-86.44,75-.72-.06-1.44-.15-2.15-.23-30.92-13.55-51.07-47.14-47.49-84.16C640.88,174.61,660.22,139.18,722.92,145.24Z"/><path class="cls-11" d="M717.51,201.9c44.63,4.32,91.06,37.94,89.26,56.55S755.63,273.6,711,269.28s-87.68-6.07-85.89-24.68S672.89,197.59,717.51,201.9Z"/><path class="cls-5" d="M659.89,251.05c1,11.31-15.6,18.59-26.73,17.29s-14.28-10.52-15.32-21.83.43-20.44,11.57-19.14S658.85,239.74,659.89,251.05Z"/><path class="cls-5" d="M766.36,261.35c-3.18,10.9,11.75,21.23,22.92,22.08s16-7.57,19.22-18.48,3.49-20.15-7.69-21S769.55,250.44,766.36,261.35Z"/><path class="cls-27" d="M651.47,250.07c.63,6.85-9.46,11.27-16.21,10.48l-.76-.11c6.36-.55,13.68-4.63,13.15-10.51-.59-6.48-10.52-12.81-17.32-14.18a9.2,9.2,0,0,1,2.65-.05C639.73,236.49,650.84,243.2,651.47,250.07Z"/><path class="cls-27" d="M773.49,261.87c-1.93,6.61,7.13,12.88,13.9,13.4l.76,0c-6.13-1.76-12.54-7.17-10.88-12.84,1.82-6.24,12.78-10.56,19.71-10.59a8.79,8.79,0,0,0-2.59-.56C787.6,250.8,775.42,255.25,773.49,261.87Z"/><path class="cls-6" d="M770.21,261.83a138.08,138.08,0,0,1,10.41,27.58c7.45,7.94,11.16,18.52,9.79,32.67-3.8,39.3-47.52,97.37-93.32,92.95s-76.31-69.69-72.52-109c1.31-13.53,6.78-22.94,15.25-29.29a137.65,137.65,0,0,1,16-26.51,58.63,58.63,0,0,1-.6-14.68c2.66-27.57,30.47-30.71,63.24-27.54s58.1,11.44,55.43,39A58,58,0,0,1,770.21,261.83Z"/><path class="cls-5" d="M769.38,253.05s-18.12,30.43-49.88,16.72l-4.71-11.89S734.92,239.6,769.38,253.05Z"/><path class="cls-5" d="M659.39,242.41s10.76,33.23,42,25.61l6.44-10.82S693,235.54,659.39,242.41Z"/><path class="cls-28" d="M780.66,289.46c7.42,7.94,11.12,18.5,9.75,32.62-3.8,39.3-47.52,97.37-93.32,92.95s-76.31-69.69-72.52-109c1.31-13.53,6.78-22.94,15.25-29.29,0,0,18.23,17.47,27.58,17.61S709.2,281,709.2,281s40.87,23,48.78,22.85S780.66,289.46,780.66,289.46Z"/><path class="cls-29" d="M780.66,289.46c7.42,7.94,11.12,18.5,9.75,32.62a78.4,78.4,0,0,1-3.3,15.68c-17.56,31.62-52.16,61.41-88.2,57.92C663.19,392.23,635.83,357,624.85,323a81.67,81.67,0,0,1-.28-16.9c1.31-13.53,6.78-22.94,15.25-29.29,0,0,18.23,17.47,27.58,17.61S709.2,281,709.2,281s40.87,23,48.78,22.85S780.66,289.46,780.66,289.46Z"/><path class="cls-5" d="M773.45,236.87c-3.93-19.54-26.69-26.1-55-28.84-31.21-3-57.9-.32-62.69,23.76C655.92,231.72,721.4,207.09,773.45,236.87Z"/><path class="cls-26" d="M738.12,239.05c6.23-.11,12,7,13,15.94s-3.33,16.25-9.55,16.37-12-7-13-15.94c-.65-6.08,1.13-11.42,4.3-14.23A8,8,0,0,1,738.12,239.05Z"/><path class="cls-30" d="M729.19,258.83a22.08,22.08,0,0,1-.62-3.41,21.3,21.3,0,0,1,.4-7.17,8.39,8.39,0,0,1,2.18-3.26,5.54,5.54,0,0,1,3.6-1.46c4.26-.08,8.25,4.81,8.89,10.92s-2.28,11.13-6.54,11.21C733.85,265.72,730.76,262.89,729.19,258.83Z"/><path class="cls-11" d="M733.42,247.31c3.08-.05,6,3.48,6.43,7.9s-1.65,8-4.73,8.1-6-3.47-6.43-7.89S730.34,247.37,733.42,247.31Z"/><path class="cls-26" d="M690.33,234.43c-6.09-1.29-13.14,4.43-15.77,12.8s.2,16.19,6.29,17.48,13.15-4.44,15.77-12.8c1.78-5.7,1-11.14-1.53-14.45A8.14,8.14,0,0,0,690.33,234.43Z"/><path class="cls-30" d="M695.32,255.56a24.19,24.19,0,0,0,1.26-3.24,21.34,21.34,0,0,0,1-7.12,8.32,8.32,0,0,0-1.51-3.6,5.42,5.42,0,0,0-3.25-2.12c-4.17-.9-9,3.13-10.82,9s.1,11.37,4.28,12.26C689.42,261.43,693,259.24,695.32,255.56Z"/><path class="cls-11" d="M693.36,243.44c-3-.65-6.51,2.27-7.82,6.51s.08,8.22,3.09,8.86,6.52-2.27,7.83-6.51S696.38,244.09,693.36,243.44Z"/><path class="cls-26" d="M686.24,255.88c-.9-.75-2.61-.39-3.8.81s-1.44,2.78-.53,3.54,2.59.39,3.79-.81S687.14,256.64,686.24,255.88Z"/><path class="cls-26" d="M738.42,260.82c.9-.75,2.6-.39,3.8.81s1.44,2.78.54,3.54-2.6.39-3.8-.81S737.52,261.58,738.42,260.82Z"/><path class="cls-31" d="M705.48,253.35s-5,19.38-7.07,22.66-8.35,2.33-7.81,7.5-.07,9.17,12.23,10.48,22.83-.7,24.89-2.71.22-10.67-3.13-12-5-1.06-5.14-4.56.74-19.83-1.32-22.43S707.94,246.67,705.48,253.35Z"/><path class="cls-32" d="M691.47,288.76c1,2.54,3.68,4.41,11.36,5.23,11.8,1.25,22-.54,24.59-2.46-4.93-2.89-12.3-6.16-20.08-5.86A56.59,56.59,0,0,0,691.47,288.76Z"/><path class="cls-33" d="M682.43,301.81a1.73,1.73,0,1,1,2.89,1.92l-5,7.6a1.74,1.74,0,1,1-2.9-1.92Z"/><path class="cls-5" d="M696.27,233.11s12.54,12.84,34.1,5.72Z"/><path class="cls-5" d="M703,229.64s7.91,8.1,21.52,3.6Z"/><path class="cls-11" d="M744.83,233.46a36.69,36.69,0,0,1,28.53,8c2.22,1.86,3.08,5.5,2.11,9s-3.45,5.65-6.12,5.41a111,111,0,0,0-24,.53,118.45,118.45,0,0,0-23.84,5.54c-2.65.92-5.22-.63-6.35-3.82a9.82,9.82,0,0,1,1.68-9.43A45,45,0,0,1,744.83,233.46Z"/><path class="cls-11" d="M684.09,230.76c-10.58-3.07-21-2.27-29.45,1.5a6.63,6.63,0,0,0-3.64,6.91,5.87,5.87,0,0,0,5.07,5.47,134.18,134.18,0,0,1,23.46,4.63A136,136,0,0,1,702,258a5.39,5.39,0,0,0,6.91-2,7,7,0,0,0,0-8A46.29,46.29,0,0,0,684.09,230.76Z"/><path class="cls-11" d="M704.89,257.71a5.77,5.77,0,0,0,3.6-1.77,7,7,0,0,0,1.41-7.84A45.83,45.83,0,0,0,692,228.71a44.57,44.57,0,0,1,10.72,14.1,7,7,0,0,1-1.41,7.85,6.81,6.81,0,0,1-1.34,1Z"/><path class="cls-31" d="M713,253.59c6.14,1.07,10.67,4.5,10.12,7.68s-6,4.89-12.11,3.83-10.66-4.5-10.1-7.68S706.9,252.53,713,253.59Z"/><path class="cls-34" d="M709.84,273.72c4.93.86,8.56,3.62,8.12,6.17s-4.79,3.92-9.72,3.07-8.55-3.61-8.11-6.17S704.92,272.87,709.84,273.72Z"/><path class="cls-25" d="M721.52,167.72c10.61,1,12.67,7.54,11.93,15.26s-7.3,13.4-14.64,12.69-12.67-7.54-11.93-15.26S710.91,166.69,721.52,167.72Z"/><path class="cls-11" d="M679.78,221c13.77,2.75,29.46-16.63,32.21-30.41s-7.56-18.83-21.34-21.59-25.81-2.14-28.56,11.63S666,218.23,679.78,221Z"/><path class="cls-11" d="M746.61,234.32c13.78,2.74,29.46-16.63,32.21-30.41s-7.56-18.83-21.34-21.59-25.8-2.15-28.55,11.63S732.83,231.57,746.61,234.32Z"/><path class="cls-11" d="M722.65,182.81c7.42,1.48,12.66,6.57,11.71,11.37a6.14,6.14,0,0,1-.68,1.79c-.54-4.17-5.33-8.17-11.77-9.45s-12.4.56-14.49,4.21a6.19,6.19,0,0,1,.05-1.92C708.44,184,715.23,181.32,722.65,182.81Z"/><polygon class="cls-11" points="665.64 180.18 648.14 230.53 645.58 229.54 663.09 179.19 665.64 180.18"/><polygon class="cls-11" points="778.19 197.11 783.67 245.64 780.96 246.03 775.48 197.5 778.19 197.11"/><path class="cls-14" d="M701.57,363.87c58.57,1.37,105.62,20.24,105.11,42.15s-48.4,38.58-107,37.21S594.1,423,594.62,401.07,643,362.5,701.57,363.87Z"/><path class="cls-13" d="M534.49,599.19C557.12,566.11,628,556.3,701.13,558s143.48,14.87,164.54,49c91,147.39-.66,326.36-165.71,331.89C530.71,944.49,433.42,747,534.49,599.19Z"/><path class="cls-12" d="M822.36,895.22c-28.44,22.31-63.49,37.42-103.43,42.13a16.3,16.3,0,0,0-7-1.31,26.7,26.7,0,1,1,18.11-45.62,15.91,15.91,0,0,0,18.79,2.92,43.78,43.78,0,0,1,39.57-.37,42.82,42.82,0,0,1,4.77,2.74A15.7,15.7,0,0,0,808,897.27,31.73,31.73,0,0,1,822.36,895.22Z"/><path class="cls-35" d="M508.17,503.25c26.42-34.71,109.47-44.82,195.17-42.88s168.19,16,193,51.94c107.09,155.23.16,343.12-193.26,348.47C504.7,866.28,390.13,658.33,508.17,503.25Z"/><path class="cls-12" d="M753,731.41c9.51.48,12.17,8.34,5.94,17.56a32.84,32.84,0,0,1-4.5,5.3c-4.33,4.16-5.89,8.7-4,11.53,3.61,5.34,2.73,13.6-3.39,22.66-.79,1.17-1.64,2.31-2.54,3.43-2.7,3.33-3.6,6.45-2.57,8.86s1,5.48-.11,8.86c-1.27,3.77.08,6.48,3.64,7.28,5.7,1.3,7,6.89,2.61,13.33-4.82,7.14-14.7,12.63-22,12.26-3.94-.19-6.37-2-7-4.79-.73-3-3.85-4.34-8.41-3.52a25.08,25.08,0,0,1-5.78.41c-9.19-.45-13-6.72-10.12-14.93,1.14-3.28.34-5.73-2.27-6.94-8.94-4.13-10.16-14.88-1.93-27.07,5-7.46,12.68-14.06,21-18.76,5.37-3,9.2-7.64,9.7-11.7a18.67,18.67,0,0,1,3.28-7.92C730.68,738,743.45,730.94,753,731.41Z"/><path class="cls-11" d="M521.12,475.65c24.75-32.52,102.55-42,182.83-40.17s157.55,15,180.76,48.66c100.31,145.41.15,321.42-181,326.44C517.87,815.72,410.54,620.93,521.12,475.65Z"/><path class="cls-11" d="M374.12,396s-23.6,106.24,108.32,134.92l76.85-143S456.36,358.41,374.12,396Z"/><path class="cls-16" d="M512.76,467.92l35-65.1a19,19,0,0,0-13.44-27.68c-25.41-4.45-66.74-8.89-109-1.65a19,19,0,0,0-15.18,23.37c7.06,27.88,27.06,61.22,79.6,79.95A18.87,18.87,0,0,0,512.76,467.92Z"/><path class="cls-16" d="M522.13,432.16c24.76-32.52,102.56-42,182.84-40.17s157.55,15,180.76,48.66c100.31,145.41.14,321.42-181,326.43C518.89,772.23,411.56,577.44,522.13,432.16Z"/><path class="cls-26" d="M545.38,434.3c21.56-27,89.41-34.74,159.43-33.16s137.43,12.63,157.71,40.56c87.64,120.78.45,266.74-157.58,270.73C542.88,716.52,449.08,554.75,545.38,434.3Z"/><path class="cls-36" d="M545.38,434.3c21.56-27,89.41-34.74,159.43-33.16,32.21.78,63.87,3.51,90.64,9a240.44,240.44,0,0,1,6,67.52c-5.14,103.19-72.6,183.68-150.67,179.79-74-3.69-130.9-81.79-132.32-177.73A183.37,183.37,0,0,1,545.38,434.3Z"/><path class="cls-26" d="M632.71,348a15.12,15.12,0,0,1-.68,8.53,14,14,0,0,1-5.11,6.56,12.38,12.38,0,0,1-15.13-.71,4.71,4.71,0,0,1-1.26-1.68,4.78,4.78,0,0,1-.37-2.17,4.94,4.94,0,0,1,.57-2.1,4.66,4.66,0,0,1,1.42-1.58l14.09-9.69a4,4,0,0,1,1.92-.72,4.11,4.11,0,0,1,2,.33,4.34,4.34,0,0,1,1.66,1.27,4.83,4.83,0,0,1,.89,2Zm-3.14,7.45a12,12,0,0,0,.54-6.8,1.66,1.66,0,0,0-.33-.75,1.68,1.68,0,0,0-.63-.48,1.49,1.49,0,0,0-.76-.13,1.65,1.65,0,0,0-.73.28l-14.09,9.69a1.73,1.73,0,0,0-.75,1.4,1.8,1.8,0,0,0,.13.82,1.59,1.59,0,0,0,.48.64,10.08,10.08,0,0,0,6,2.34,10,10,0,0,0,6.12-1.77A11.24,11.24,0,0,0,629.57,355.47Z"/><path class="cls-11" d="M649.9,228.19s-68.51,84.49-34.46,129.25l11.9-7.39s-34.76-34.52,26.22-117.54Z"/><path class="cls-11" d="M506.4,579.48c-14.8,10.08-37.75,28.41-50.89,52.39a18.11,18.11,0,0,0-2.33,9.44c.22,13.11,1.93,50.14,13.64,78.66a19,19,0,0,0,32.28,4.74c12-14.75,29.37-34.3,47.14-47.93a18.44,18.44,0,0,0,7.42-15.71c-.57-17.15-4-52-21-76.66A19,19,0,0,0,506.4,579.48Z"/><path class="cls-11" d="M893.93,588.54c14.31,10.75,36.38,30.13,48.39,54.7a18.19,18.19,0,0,1,1.89,9.54c-.83,13.08-4.27,50-17.31,77.94A19,19,0,0,1,894.44,734c-11.29-15.3-27.74-35.65-44.85-50.09a18.45,18.45,0,0,1-6.68-16c1.38-17.11,6.39-51.76,24.52-75.6A19,19,0,0,1,893.93,588.54Z"/><path class="cls-16" d="M668.41,290c1.24-.56,6.08-10.21,6.74-9.4s25.91,26,25.91,26-11.28,2.49-15,1.09S668,298.39,668,298.39Z"/><path class="cls-16" d="M666.32,283.19s-7.32,13,2.22,15.26S682.22,268.89,666.32,283.19Z"/><path class="cls-37" d="M665.18,282.52S659.3,293,667,294.77,677.94,271,665.18,282.52Z"/><path class="cls-26" d="M665.2,283s-4,7,1.2,8.25S673.8,275.25,665.2,283Z"/><path class="cls-33" d="M681.05,309.3a1.74,1.74,0,1,1-.17-3.48c.14,0,49.14-2.26,53.26-.85a12,12,0,0,1,5.07,3.3,4.48,4.48,0,0,0,1.25,1c1.24.44,3.72-.44,3.72-.44a1.76,1.76,0,0,1,2.25,1,1.74,1.74,0,0,1-1,2.25s-3.78,1.31-6.12.48a6.64,6.64,0,0,1-2.55-1.84,9,9,0,0,0-3.75-2.47C729.42,307,681.19,309.3,681.05,309.3Z"/><path class="cls-33" d="M699.26,313.13a1.74,1.74,0,1,1,.52-3.45l17.07,2.62a1.75,1.75,0,1,1-.53,3.45Z"/><path class="cls-11" d="M548.62,383.92a246.58,246.58,0,0,0-47.56,57.45,19,19,0,0,0,15.22,28.71c15.06.84,33.86,1.31,50.9,0A18.67,18.67,0,0,0,584,456.54l24.85-84.35s-14,8.31-47,7.05A18.29,18.29,0,0,0,548.62,383.92Z"/><path class="cls-11" d="M862.11,391.24a246.57,246.57,0,0,1,44.82,59.61,19,19,0,0,1-16.54,28c-15.08.13-33.89-.28-50.85-2.35a18.68,18.68,0,0,1-16.13-14.33l-20.88-85.43s13.64,9,46.58,9.23A18.33,18.33,0,0,1,862.11,391.24Z"/><path class="cls-16" d="M500.17,570.94c-14.8,10.07-37.75,28.4-50.89,52.38a18.11,18.11,0,0,0-2.33,9.44c.22,13.1,1.92,50.14,13.65,78.65a19,19,0,0,0,32.27,4.76c12-14.76,29.37-34.32,47.14-47.94a18.44,18.44,0,0,0,7.42-15.7c-.57-17.16-4-52-21-76.68A19,19,0,0,0,500.17,570.94Z"/><path class="cls-16" d="M900.16,577.19c14.32,10.74,36.38,30.12,48.39,54.69a18.21,18.21,0,0,1,1.89,9.54c-.84,13.08-4.27,50-17.31,77.94a19,19,0,0,1-32.46,3.23c-11.28-15.3-27.74-35.64-44.85-50.08a18.47,18.47,0,0,1-6.68-16c1.37-17.12,6.39-51.77,24.52-75.61A19,19,0,0,1,900.16,577.19Z"/><path class="cls-26" d="M545.9,374.8a246.86,246.86,0,0,0-47.55,57.45A19,19,0,0,0,513.56,461c15.07.84,33.87,1.3,50.91,0a18.66,18.66,0,0,0,16.78-13.56l24.85-84.36s-14,8.32-47,7.05A18.36,18.36,0,0,0,545.9,374.8Z"/><path class="cls-36" d="M545.9,374.8c-2.49,2.18-5.64,5.06-9.23,8.61a236.72,236.72,0,0,0-17.76,77.82,388,388,0,0,0,45.56-.25,18.66,18.66,0,0,0,16.78-13.56l24.85-84.36s-14,8.32-47,7.05A18.36,18.36,0,0,0,545.9,374.8Z"/><path class="cls-11" d="M582.12,441.91s-18.63,45.76-32.6,83.46l-16.36,9.25,1.22,38.47h0v.11c.69,12.31,137,8.52,144.2,4.1s9-127.47,6.54-135.88a2,2,0,0,0-.84-1l-18.12-22.06L649,436.15C620,435.67,583.89,438.12,582.12,441.91Z"/><path class="cls-16" d="M575.28,418.77s-42.73,105-42.12,115.85S654,542.14,660.4,538.24s7.91-112.49,5.77-119.91S577.88,413.21,575.28,418.77Z"/><path class="cls-11" d="M575.36,415.11S534,460.23,534.78,465,655.7,469.83,662,468.22s6.42-48.85,4.19-52.1S577.89,412.72,575.36,415.11Z"/><path class="cls-36" d="M576.39,417.92s-33.66,35.16-33,38.84,98.59,3.9,103.75,2.65,5.2-38.08,3.37-40.62S578.45,416.07,576.39,417.92Z"/><polygon class="cls-11" points="584.09 439.97 615.35 440.7 611.59 456.31 580.33 455.58 584.09 439.97"/><path class="cls-16" d="M867,383a246.45,246.45,0,0,1,44.82,59.6,19,19,0,0,1-16.53,28c-15.09.13-33.9-.28-50.86-2.35a18.7,18.7,0,0,1-16.13-14.33l-20.88-85.44s13.64,9,46.58,9.24A18.33,18.33,0,0,1,867,383Z"/><path class="cls-11" d="M826.76,447.62s16.48,46.58,28.69,84.9l15.9,10-3,38.37h0V581c-1.26,12.27-137.21,2.12-144.23-2.62s-3-127.76-.19-136a2.07,2.07,0,0,1,.88-1l19.13-21.18,16.36,18.6C789.24,439.62,825.17,443.75,826.76,447.62Z"/><path class="cls-16" d="M834.68,424.82s37.79,106.87,36.67,117.69-121.07,1.87-127.27-2.31-2.65-112.74-.17-120.05S832.34,419.16,834.68,424.82Z"/><path class="cls-16" d="M788.24,545.73c-22.7-1.62-41.78-3.93-44.16-5.53-6.2-4.2-2.65-112.74-.17-120.05,1.39-4.1,28.92-3.92,53.31-2a245.17,245.17,0,0,1-9,127.56Z"/><path class="cls-11" d="M834.09,422.51s39.18,47,38.2,51.7-121-.78-127.26-2.69-4.14-49.09-1.75-52.24S831.67,420,834.09,422.51Z"/><path class="cls-26" d="M834.39,424s34.11,39.12,33.27,43-105.21-.76-110.65-2.35-3.64-40.82-1.57-43.44S832.3,421.92,834.39,424Z"/><path class="cls-36" d="M801.79,467.46c-22.42-.89-42.47-2.11-44.78-2.79-5.43-1.59-3.64-40.82-1.57-43.44,1.09-1.37,22.19-1.11,42.32-.26A241.65,241.65,0,0,1,801.79,467.46Z"/><polygon class="cls-11" points="825.73 445.61 794.46 444.88 797.49 460.65 828.75 461.38 825.73 445.61"/><path class="cls-26" d="M562.14,472.91l87.39,2-7,22.84a18.74,18.74,0,0,1-18.57,13.39l-48-1.12a19,19,0,0,1-17.7-24.55Z"/><path class="cls-26" d="M846.89,479.56l-87.39-2,6,23.14a18.75,18.75,0,0,0,17.94,14.25l48,1.12a19,19,0,0,0,18.82-23.7Z"/><path class="cls-26" d="M801.45,478.5l-42-1,6,23.14a18.75,18.75,0,0,0,17.94,14.25l13.34.31A247.59,247.59,0,0,0,801.45,478.5Z"/><polygon class="cls-26" points="489.12 598.32 508.99 584.56 534.35 647.75 514.47 661.51 489.12 598.32"/><polygon class="cls-26" points="474.96 639.58 489.96 623.97 509.12 664.02 494.12 679.63 474.96 639.58"/><polygon class="cls-26" points="909.93 608.15 890.73 593.48 862.45 655.42 881.66 670.09 909.93 608.15"/><polygon class="cls-26" points="922.16 650.02 907.9 633.73 886.89 672.84 901.15 689.13 922.16 650.02"/><polygon class="cls-26" points="854.75 441.77 851.54 420.36 894.95 429.62 898.16 451.04 854.75 441.77"/><polygon class="cls-16" points="600.04 606.82 629.35 621.84 649.56 603.52 600.04 606.82"/><polygon class="cls-16" points="592.95 633.9 593.89 666.83 619.68 675.72 592.95 633.9"/><polygon class="cls-16" points="747.84 595.7 744.46 628.46 768.86 640.65 747.84 595.7"/><polygon class="cls-16" points="696.06 579.31 692.7 612.08 717.09 624.26 696.06 579.31"/><polygon class="cls-16" points="808.46 606.64 805.08 639.4 829.48 651.59 808.46 606.64"/><polygon class="cls-16" points="709.09 669.58 705.72 702.35 730.12 714.54 709.09 669.58"/><polygon class="cls-16" points="691.81 433.98 723.47 424.92 725.71 397.73 691.81 433.98"/><path class="cls-26" d="M611.15,488.59A23.46,23.46,0,0,1,567,487.5a8.08,8.08,0,0,1-.31-3.6,7.88,7.88,0,0,1,4.23-5.69,7.54,7.54,0,0,1,3.55-.76l29.76.73a7.47,7.47,0,0,1,3.51.94,7.89,7.89,0,0,1,2.66,2.46,7.6,7.6,0,0,1,1.27,3.42,7.73,7.73,0,0,1-.48,3.59Zm-11.51,7.16a18.76,18.76,0,0,0,7.06-8.86,2.76,2.76,0,0,0,.21-1.37,2.92,2.92,0,0,0-.5-1.29,2.88,2.88,0,0,0-1-1,3.13,3.13,0,0,0-1.35-.33l-29.76-.74a3,3,0,0,0-1.35.27,2.88,2.88,0,0,0-1.05.9,2.91,2.91,0,0,0-.57,1.26,3.12,3.12,0,0,0,.13,1.38,18.82,18.82,0,0,0,6.64,9.19,18.7,18.7,0,0,0,21.53.54Z"/><path class="cls-11" d="M586.64,447.47c-.51,1.71-12.95,39.08-12.95,39.08l30.75,1.08,4.38-39.33Z"/><path class="cls-26" d="M841.24,494a23.46,23.46,0,0,1-44.19-1.09,7.89,7.89,0,0,1-.3-3.59,7.5,7.5,0,0,1,1.44-3.36,7.73,7.73,0,0,1,2.79-2.34,7.52,7.52,0,0,1,3.54-.76l29.76.74a7.66,7.66,0,0,1,3.52.93,7.77,7.77,0,0,1,2.65,2.46,7.61,7.61,0,0,1,1.28,3.42,7.72,7.72,0,0,1-.49,3.59Zm-11.51,7.15a18.74,18.74,0,0,0,7.08-8.85,2.79,2.79,0,0,0-.3-2.66,3,3,0,0,0-1-1,3.2,3.2,0,0,0-1.35-.34l-29.76-.73a2.93,2.93,0,0,0-1.34.28,2.74,2.74,0,0,0-1,.88,3,3,0,0,0-.57,1.28,3.06,3.06,0,0,0,.12,1.37,18.8,18.8,0,0,0,6.64,9.2,18.7,18.7,0,0,0,21.53.52Z"/><path class="cls-11" d="M823.4,453c.42,1.74,11.1,39.65,11.1,39.65l-30.76-.35L801.2,452.8Z"/><polygon class="cls-38" points="756.89 325.29 758.66 317.61 765.27 322.38 763.61 324.69 760.47 322.43 759.66 325.93 756.89 325.29"/><polygon class="cls-38" points="746.88 342.56 748.64 334.88 755.26 339.65 753.59 341.96 750.46 339.69 749.65 343.19 746.88 342.56"/><polygon class="cls-38" points="763.72 340.46 765.48 332.78 772.1 337.55 770.43 339.86 767.29 337.6 766.49 341.1 763.72 340.46"/><polygon class="cls-38" points="643.39 308.71 645.15 301.04 651.77 305.8 650.1 308.11 646.96 305.85 646.16 309.35 643.39 308.71"/><polygon class="cls-38" points="644.43 328.51 646.19 320.84 652.8 325.6 651.14 327.92 648 325.65 647.2 329.15 644.43 328.51"/><path class="cls-26" d="M685.85,173.89c5.83.56,10.4,2.62,10.21,4.6s-5.07,3.12-10.9,2.56-10.41-2.63-10.21-4.6S680,173.33,685.85,173.89Z"/><path class="cls-26" d="M677.49,185.49c2.92.27,5.2,1.3,5.11,2.29s-2.54,1.57-5.45,1.28-5.21-1.31-5.11-2.3S674.58,185.2,677.49,185.49Z"/><path class="cls-13" d="M561.12,1096c63.4,22.14,104.88,68.51,92.64,103.55s-73.55,45.53-137,23.38-104.87-68.51-92.63-103.56S497.72,1073.82,561.12,1096Z"/><path class="cls-11" d="M579,1260.67c2.09,25.5-2,49.34-10.75,68.81L429,1322.54a152.14,152.14,0,0,1-14.3-53.59c-5.14-62.78,27.47-115.52,72.83-117.8S573.86,1197.9,579,1260.67Z"/><path class="cls-16" d="M543.43,1264.21c2,24.81-4,47.47-15.28,63.28l-85.75-4.28c-10.09-14-17-32.48-18.68-53-3.73-45.74,20-84.17,53.09-85.84S539.69,1218.47,543.43,1264.21Z"/><path class="cls-11" d="M542.18,1245.91c-9.58,6.89-22.91,6.56-29.79-.73s-4.69-18.78,4.89-25.67,22.9-6.56,29.77.73S551.74,1239,542.18,1245.91Z"/><path class="cls-16" d="M537.13,1240.57c-5.69,4.09-13.63,3.9-17.72-.44s-2.8-11.17,2.9-15.27,13.63-3.91,17.73.43S542.82,1236.47,537.13,1240.57Z"/><path class="cls-11" d="M532.56,1321.7c-9.47-6.83-21-7.7-25.86-1.94a9.38,9.38,0,0,0-2.08,6.55l34.46,1.72A30.06,30.06,0,0,0,532.56,1321.7Z"/><path class="cls-16" d="M529,1325.93c-5.64-4.07-12.53-4.58-15.38-1.16a5.13,5.13,0,0,0-1,1.94l18.46.92A19.27,19.27,0,0,0,529,1325.93Z"/><path class="cls-11" d="M659.34,1085.88c5.3,11.89,6.52,23.73,2.76,34.52-12.5,35.81-75.14,46.51-139.91,23.88s-107.14-70-94.64-105.79c4.53-13,15.64-22.63,31-28.63.84,29.73,36.06,64.13,86.49,81.75C592.08,1108,637.82,1104.8,659.34,1085.88Z"/><path class="cls-11" d="M717.87,1085.14c-2.77,12.08-1.73,23.36,3.77,32.75,18.27,31.14,78.73,29.58,135.05-3.46s87.16-85.1,68.89-116.23c-6.61-11.28-18.77-18.26-34.25-21,4.69,27.91-21.87,66.52-65.71,92.25C784.75,1093.43,741.45,1098.85,717.87,1085.14Z"/><path class="cls-26" d="M595.56,1095.18l25.55,1.28a10.81,10.81,0,0,1,8.35,4.27,11.26,11.26,0,0,1,1.69,9.38l-9.3,39.19a16.23,16.23,0,0,1-6,9,15.72,15.72,0,0,1-10.17,3.37l-25.56-1.28a10.8,10.8,0,0,1-8.35-4.27,11.21,11.21,0,0,1-1.69-9.38l9.3-39.19a16.19,16.19,0,0,1,6-9,15.67,15.67,0,0,1,10.18-3.38Zm23.93,8.09L593.94,1102a7.46,7.46,0,0,0-4.84,1.59,7.68,7.68,0,0,0-2.87,4.28l-9.3,39.19a5.36,5.36,0,0,0,.79,4.47,5.13,5.13,0,0,0,4,2l25.56,1.27a7.51,7.51,0,0,0,4.85-1.59A7.71,7.71,0,0,0,615,1149l9.3-39.19a5.4,5.4,0,0,0-.79-4.47A5.18,5.18,0,0,0,619.49,1103.27Z"/><path class="cls-16" d="M578.86,1111.35a114.77,114.77,0,0,1-131.63-81.08c14.23,20.13,33.8,38.72,57.83,53.51S554.48,1107.7,578.86,1111.35Z"/><path class="cls-14" d="M556.36,807.43c12.79.64,25.88,10.86,30.77,23.48a15.19,15.19,0,0,0,7.52,8.09c6.61,3.26,12.22,9.59,14.07,16.67,1.18,4.52.62,8.58-1.26,11.61s-1.27,7.5,1.7,11.4a22.05,22.05,0,0,1,3.82,7.68c2.35,9-3,16-11.82,15.52s-18-8.11-20.31-17.12a13.9,13.9,0,0,1,.51-9.31c1.54-3.37.48-7.81-2.77-11.52a1.73,1.73,0,0,1-.17-.21,14.12,14.12,0,0,0-9.46-5.14c-13.68-1.07-27.51-12.92-31.13-26.81C534.15,817.63,542.44,806.74,556.36,807.43Z"/><path class="cls-39" d="M981.85,546.64c.9,7.71-3.91,16.55-11,20.73a9.16,9.16,0,0,0-4.1,5.3,16.42,16.42,0,0,1-8.56,10.07,8.94,8.94,0,0,1-7.06.4c-2-.83-4.61,0-6.65,2.15a13,13,0,0,1-4.21,3c-5.15,2.3-9.83-.17-10.45-5.52s3.06-11.54,8.21-13.84a8.39,8.39,0,0,1,5.62-.62c2.17.59,4.71-.49,6.61-2.81l.11-.12a8.5,8.5,0,0,0,2.13-6.16c-.72-8.28,5-17.74,12.93-21.28S980.89,538.25,981.85,546.64Z"/><path class="cls-12" d="M847.68,798.52c.89,7.71-3.91,16.55-11,20.73a9.16,9.16,0,0,0-4.1,5.3,16.41,16.41,0,0,1-8.56,10.07,8.94,8.94,0,0,1-7.06.4c-2-.83-4.61,0-6.65,2.15a13.24,13.24,0,0,1-4.2,3c-5.16,2.3-9.84-.17-10.45-5.52s3-11.54,8.2-13.84a8.39,8.39,0,0,1,5.62-.62c2.17.59,4.71-.49,6.61-2.8l.11-.13a8.5,8.5,0,0,0,2.13-6.16c-.72-8.28,5-17.74,12.93-21.28C839.38,786.26,846.71,790.13,847.68,798.52Z"/><path class="cls-14" d="M543.74,968.77c8.64.43,13.67,7.7,11.22,16.25a18.83,18.83,0,0,1-2.23,4.9c-2.45,3.84-2.32,8.05.34,10.66,5,4.94,7,12.58,4.61,21a27,27,0,0,1-1.11,3.17c-1.28,3.08-1,6,.7,8.2a14,14,0,0,1,2.89,8.2,6.84,6.84,0,0,0,5.71,6.73c5.52,1.19,8.52,6.37,6.81,12.33-1.89,6.61-8.84,11.69-15.52,11.36a9.4,9.4,0,0,1-7.87-4.42c-1.67-2.81-4.9-4-8.68-3.26a20.22,20.22,0,0,1-5,.39c-8.34-.42-13.85-6.21-14.06-13.81a6.72,6.72,0,0,0-4.36-6.41c-9.36-3.81-14.07-13.75-10.84-25a33.62,33.62,0,0,1,12.39-17.38c3.76-2.8,5.62-7.07,4.71-10.82a14.15,14.15,0,0,1,.24-7.33C526.11,974.91,535.1,968.34,543.74,968.77Z"/><path class="cls-40" d="M563.44,948.79s-3.08,83.54,93,120.66C656.45,1069.45,589.91,1012.64,563.44,948.79Z"/><path class="cls-26" d="M786.4,1079.86l23.77-9.48a10.82,10.82,0,0,1,9.37.41,11.24,11.24,0,0,1,5.43,7.83l7.86,39.5a16.3,16.3,0,0,1-1.74,10.68,15.77,15.77,0,0,1-7.86,7.29l-23.76,9.48a10.8,10.8,0,0,1-9.38-.41,11.26,11.26,0,0,1-5.43-7.83l-7.86-39.5a16.22,16.22,0,0,1,1.75-10.67,15.65,15.65,0,0,1,7.85-7.3Zm25.13-2.61-23.76,9.48a7.51,7.51,0,0,0-3.75,3.46,7.79,7.79,0,0,0-.82,5.09l7.85,39.5a5.38,5.38,0,0,0,2.58,3.74,5.21,5.21,0,0,0,4.47.19l23.77-9.48a7.57,7.57,0,0,0,3.75-3.47,7.77,7.77,0,0,0,.82-5.09l-7.86-39.5a5.35,5.35,0,0,0-2.58-3.73A5.18,5.18,0,0,0,811.53,1077.25Z"/><path class="cls-12" d="M873.56,1271.75c1.62,33.35,22.76,63.33,47.21,67s43-20.44,41.35-53.78-22.75-63.33-47.21-67S871.94,1238.41,873.56,1271.75Z"/><path class="cls-12" d="M514.18,1262.39c1.41,32.59-16.22,60.08-39.65,62.42l-9.68-.48c-20.62-4.17-37.14-28-38.42-57.55-1.45-33.34,17-61.35,41.26-62.55S512.73,1229.06,514.18,1262.39Z"/><path class="cls-16" d="M646.1,916.83l93.33,4.66A19,19,0,0,1,757,944.39L747,991.83a18.86,18.86,0,0,1-19.51,15L650.08,1003a18.87,18.87,0,0,1-17.89-16.66l-5.88-48.24a19,19,0,0,1,19.79-21.26Z"/><path class="cls-12" d="M647.64,931.88l88.76,4.43a18,18,0,0,1,16.76,21.78l-9.6,45.12A18,18,0,0,1,725,1017.49l-73.57-3.67a17.92,17.92,0,0,1-17-15.84l-5.59-45.89a18,18,0,0,1,18.82-20.21Z"/><path class="cls-11" d="M455.27,426.33c5.3,6.57-8.38,26.41-14.95,31.71a15.29,15.29,0,1,1-19.2-23.8C427.69,428.94,450,419.75,455.27,426.33Z"/><path class="cls-16" d="M449.88,430.8c3.84,4.76-6.07,19.13-10.83,23a11.08,11.08,0,0,1-13.91-17.24C429.9,432.69,446,426,449.88,430.8Z"/><path class="cls-11" d="M937.51,450.37c-5.93,6,5.71,27.11,11.72,33.05a15.3,15.3,0,0,0,21.48-21.78C964.7,455.71,943.44,444.36,937.51,450.37Z"/><path class="cls-16" d="M942.42,455.35c-4.29,4.36,4.14,19.64,8.5,23.93a11.07,11.07,0,1,0,15.55-15.76C962.12,459.22,946.72,451,942.42,455.35Z"/><path class="cls-16" d="M696,927.26l-.82,16.5.48,23.16-33.82-5.64L663,988.79,696.54,982l-3,33.9-3.71-.34,2.58-28.91-32.94,6.7-1.56-36.47,33.9,5.65c-.27-13-.21-22.48.43-35.42Z"/><path class="cls-26" d="M600.17,355.94A23.46,23.46,0,0,0,556,358.1a7.94,7.94,0,0,0-.22,3.61,7.73,7.73,0,0,0,1.52,3.32,7.81,7.81,0,0,0,2.84,2.26,7.44,7.44,0,0,0,3.58.67l29.73-1.45a7.63,7.63,0,0,0,3.48-1,7.75,7.75,0,0,0,2.6-2.53,7.6,7.6,0,0,0,1.2-3.45,8,8,0,0,0-.57-3.57Zm-11.69-6.88a18.84,18.84,0,0,1,7.29,8.69,2.72,2.72,0,0,1,.23,1.36,3.12,3.12,0,0,1-1.44,2.27,3.18,3.18,0,0,1-1.34.38l-29.73,1.45a2.83,2.83,0,0,1-1.35-.24,2.78,2.78,0,0,1-1.08-.87,2.87,2.87,0,0,1-.59-1.25,2.8,2.8,0,0,1,.09-1.37,18.7,18.7,0,0,1,27.92-10.42Z"/><polygon class="cls-11" points="566.13 360.08 537.93 397.04 584.14 395.87 594.35 359.76 566.13 360.08"/><path class="cls-26" d="M815.92,366.7a23.46,23.46,0,0,1,43.72,6.54,7.82,7.82,0,0,1-.14,3.61,7.82,7.82,0,0,1-4.9,5.12,7.42,7.42,0,0,1-3.61.31l-29.44-4.4a7.65,7.65,0,0,1-3.38-1.36,7.89,7.89,0,0,1-2.33-2.77,7.5,7.5,0,0,1,.08-7.05ZM828.23,361a18.76,18.76,0,0,0-8.11,7.91,2.87,2.87,0,0,0-.37,1.33,3.05,3.05,0,0,0,.33,1.35,3,3,0,0,0,.87,1.06,3.25,3.25,0,0,0,1.3.51l29.44,4.4a3,3,0,0,0,1.37-.1,2.85,2.85,0,0,0,1.16-.76,3,3,0,0,0,.72-1.19,3,3,0,0,0,0-1.37,18.74,18.74,0,0,0-5.45-10,18.7,18.7,0,0,0-21.3-3.19Z"/><polygon class="cls-11" points="849.38 374.21 873.76 413.78 827.9 408.03 821.32 371.07 849.38 374.21"/><path class="cls-4" d="M489.46,354.31S295.09,535,475.58,801.37c0,0,2.35,23,35.47,18.48,0,0-29.26-127.13-21.6-259C493.79,486,510,409.72,550.14,354.17,550.14,354.17,529.85,346.47,489.46,354.31Z"/><path class="cls-4" d="M489.46,354.31S418.1,420.66,402,532.23c7.69.92,15.51,1.6,23.45,2a328,328,0,0,0,66.37-3.32c6.69-64.83,23.51-128.58,58.3-176.73C550.14,354.17,529.85,346.47,489.46,354.31Z"/><path class="cls-4" d="M918.9,375.72s186.9,199.68-3.68,447.57c0,0-3.24,22.75-36.11,14.91,0,0,83.94-304.39-20.77-468.66C858.34,369.54,878.9,363.87,918.9,375.72Z"/><path class="cls-7" d="M479.26,368.9C446.06,406.64,352,537.44,453.63,716.27a34.57,34.57,0,0,1,3.31,7.84c1.48,5.15,6.84,14.62,26,11.84,0,0-16.22-103.23-3.58-210.41,7.17-60.76,23.62-122.79,57.56-168,0,0-10.56-4.26-32.24-2Q489.73,357,479.26,368.9Z"/><path class="cls-8" d="M479.26,368.9c-21.76,24.73-69.61,89.39-71.47,181.33l4.89.29a329.06,329.06,0,0,0,64.45-3q.92-10.9,2.2-22c7.17-60.76,23.62-122.79,57.56-168,0,0-10.56-4.26-32.24-2Q489.73,357,479.26,368.9Z"/><path class="cls-26" d="M472.56,523.38a34.08,34.08,0,0,1-64.2-1.59,11.39,11.39,0,0,1-.45-5.22,11.4,11.4,0,0,1,6.14-8.26,11,11,0,0,1,5.16-1.11l43.23,1.06a11.09,11.09,0,0,1,5.11,1.36,11.35,11.35,0,0,1,3.86,3.58,11,11,0,0,1,1.85,5,11.22,11.22,0,0,1-.7,5.21Zm-16.73,10.4a27.23,27.23,0,0,0,10.27-12.87,4,4,0,0,0,.3-2,4.11,4.11,0,0,0-.73-1.87,4.19,4.19,0,0,0-1.44-1.38,4.58,4.58,0,0,0-2-.49L419,514.12a4,4,0,0,0-3.49,1.69,4.26,4.26,0,0,0-.82,1.84,4.38,4.38,0,0,0,.18,2A27.45,27.45,0,0,0,424.55,533a27.21,27.21,0,0,0,31.28.77Z"/><path class="cls-4" d="M439.82,457.11s-12.76,32.53-17,62.26l34.56,1.73L473.32,460S456.67,452.68,439.82,457.11Z"/><path class="cls-4" d="M466.47,891.42a34.08,34.08,0,0,1-64.2-1.58,11.57,11.57,0,0,1-.44-5.23,11,11,0,0,1,2.09-4.87,11.15,11.15,0,0,1,4.05-3.39,10.76,10.76,0,0,1,5.15-1.1l43.24,1.06a11,11,0,0,1,5.1,1.35,11.45,11.45,0,0,1,3.86,3.58,11.19,11.19,0,0,1,1.86,5,11.36,11.36,0,0,1-.71,5.21Zm-16.72,10.4A27.3,27.3,0,0,0,460,889a4.17,4.17,0,0,0,.3-2,4.42,4.42,0,0,0-.74-1.89,4,4,0,0,0-1.44-1.36,4.43,4.43,0,0,0-1.95-.5L413,882.16a4.32,4.32,0,0,0-4.31,3.54,4.4,4.4,0,0,0,.18,2,27.38,27.38,0,0,0,9.65,13.36,27.21,27.21,0,0,0,31.28.77Z"/><path class="cls-8" d="M428.49,630.06l39.5,2c4.66,95.73-19,141-13,260.68l-39.49-2C419.83,803.85,436.73,730.26,428.49,630.06Z"/><path class="cls-4" d="M437.05,641.33l21.81,1.09.7,47.56-23.68-1.18-.7-47.56,1.87.09ZM455.18,646,439,645.17l.59,40.07,16.21.81Z"/><path class="cls-26" d="M446.15,696.75a6.81,6.81,0,0,1,6.36,6.5,5.6,5.6,0,0,1-6,5.88,6.83,6.83,0,0,1-6.36-6.5A5.61,5.61,0,0,1,446.15,696.75Z"/><path class="cls-26" d="M453.48,462.32a5,5,0,0,1,4.69,6.41,7.82,7.82,0,0,1-7.64,5.8,5,5,0,0,1-4.69-6.41A7.81,7.81,0,0,1,453.48,462.32Z"/><path class="cls-26" d="M446.62,490.68a5,5,0,0,1,4.69,6.42,7.8,7.8,0,0,1-7.64,5.79,5,5,0,0,1-4.69-6.41A7.81,7.81,0,0,1,446.62,490.68Z"/><path class="cls-7" d="M931.29,391.44c31.49,41,119.65,180.84,10.46,349.17a32.64,32.64,0,0,0-3.63,7.49c-1.71,5-7.48,13.91-26.45,9.23,0,0,20.68-101.39,12.73-209.6-4.5-61.34-18.21-124.88-50.11-173.37,0,0,10.71-3.21,32.24,1.15Q921.37,378.53,931.29,391.44Z"/><path class="cls-8" d="M923.13,532.89c-5.56-56.63-19.52-113.95-48.84-158.53,0,0,10.71-3.21,32.24,1.15.59.12,1.16.26,1.74.4,31,25.2,49,56.9,47.28,90.51C954.32,491.19,942.58,513.86,923.13,532.89Z"/><path class="cls-26" d="M930.91,546.23A37,37,0,0,0,943,563.62a35.66,35.66,0,0,0,19.46,7.69,32.53,32.53,0,0,0,19.72-4.75A31.67,31.67,0,0,0,995,551a11.06,11.06,0,0,0,.68-5.16,11.53,11.53,0,0,0-1.86-5.08A12.06,12.06,0,0,0,990,537a11.35,11.35,0,0,0-5.09-1.62l-43.19-3.24a10.68,10.68,0,0,0-5.15.84,10.68,10.68,0,0,0-6.1,8,11.81,11.81,0,0,0,.46,5.27Zm16.21,12a29.34,29.34,0,0,1-9.65-13.86,4.17,4.17,0,0,1-.2-2,4,4,0,0,1,.8-1.79,4,4,0,0,1,1.51-1.23,4.54,4.54,0,0,1,2-.3l43.18,3.24a4.38,4.38,0,0,1,1.93.6,4.48,4.48,0,0,1,1.47,1.44,4.13,4.13,0,0,1,.47,3.89,25.38,25.38,0,0,1-10.24,12.38,26,26,0,0,1-15.73,3.77A28.34,28.34,0,0,1,947.12,558.27Z"/><path class="cls-4" d="M966.63,483.38s11.24,33.72,14.06,63.81l-34.56-1.73-13.06-62.52S950,477.27,966.63,483.38Z"/><path class="cls-26" d="M954.73,487.89a5,5,0,0,0-4.59,6.49,7.81,7.81,0,0,0,7.72,5.68,5,5,0,0,0,4.59-6.49A7.81,7.81,0,0,0,954.73,487.89Z"/><path class="cls-26" d="M962,516.15a5,5,0,0,0-4.6,6.49,7.81,7.81,0,0,0,7.73,5.67,5,5,0,0,0,4.6-6.49A7.81,7.81,0,0,0,962,516.15Z"/><path class="cls-8" d="M506,328.09l-5.82,11.49a7.88,7.88,0,0,0,7,11.43l31.11.28a7.87,7.87,0,0,0,7.9-8.71l-1.4-13a7.88,7.88,0,0,0-8.24-7l-23.9,1.25A7.69,7.69,0,0,0,506,328.09Z"/><path class="cls-7" d="M911.09,348.29l4.64,12A7.87,7.87,0,0,1,907.68,371l-31-2.81a7.88,7.88,0,0,1-7-9.46l2.68-12.83a7.87,7.87,0,0,1,8.9-6.16l23.66,3.62A7.69,7.69,0,0,1,911.09,348.29Z"/><path class="cls-26" d="M891.66,349.19a5,5,0,0,0-4.6,6.48,7.84,7.84,0,0,0,7.73,5.69,5,5,0,0,0,4.59-6.49A7.8,7.8,0,0,0,891.66,349.19Z"/><path class="cls-26" d="M523.74,330.85a5,5,0,0,1,3.92,6.91,7.8,7.8,0,0,1-8.25,4.88,5,5,0,0,1-3.92-6.91A7.79,7.79,0,0,1,523.74,330.85Z"/><path class="cls-5" d="M1007.47,1062.5a26,26,0,0,1-18.05-45.81A222.75,222.75,0,0,0,1010.79,996Z"/><path class="cls-41" d="M176.5,817.7c-26.26,3.71-48.79,14.27-64.23,28.44l-2.72,54.66c14.5-19.92,41.66-35.44,74.71-40.1,43-6.08,82.88,8,100.65,32.91a48.81,48.81,0,0,0,1.18-22.17C279.41,834.15,230.34,810.09,176.5,817.7Z"/><path class="cls-4" d="M100.24,852.54c.86-15.62,4.69-29.73,10.34-40.38l.53-16.13,19.4-3.2a17.84,17.84,0,0,1,4.58-.76h0c.54,0,1.08,0,1.62,0,18.25,1,31.53,29.69,29.64,64.08s-18.22,61.46-36.47,60.46a18.09,18.09,0,0,1-4-.68l-.17-.05L105.11,910l2.53-9.57.1-2.83C102.23,885.93,99.29,870,100.24,852.54Z"/><path class="cls-8" d="M81.15,851.49c1.74-31.66,16.77-56.58,33.58-55.65s29,27.34,27.29,59-16.76,56.58-33.57,55.67S79.42,883.15,81.15,851.49Z"/><path class="cls-41" d="M82.77,851.58c1.34-24.58,13-43.94,26.08-43.22s22.54,21.22,21.2,45.81-13,44-26.08,43.23S81.42,876.18,82.77,851.58Z"/><path class="cls-13" d="M91.21,852.05c1.08-19.66,10.41-35.13,20.85-34.56s18,17,16.95,36.63-10.42,35.13-20.85,34.55S90.14,871.7,91.21,852.05Z"/><path class="cls-41" d="M97.81,839.21c.38-6.83,3.63-12.22,7.26-12s6.27,5.91,5.89,12.76-3.62,12.22-7.25,12S97.44,846.05,97.81,839.21Z"/><path class="cls-41" d="M109.8,841.85c.37-6.84,3.62-12.23,7.25-12s6.27,5.91,5.9,12.75-3.63,12.23-7.26,12S109.42,848.7,109.8,841.85Z"/><path class="cls-8" d="M137.55,808.28c-6.1-5.27-8.08-13-4.43-17.2s11.57-3.41,17.67,1.84,8.07,13,4.42,17.2S143.65,813.53,137.55,808.28Z"/><path class="cls-16" d="M141.86,802.43c-4.19-3.62-5.55-8.9-3-11.81s7.94-2.35,12.13,1.26,5.54,8.9,3,11.82S146,806,141.86,802.43Z"/><path class="cls-12" d="M163.51,811.93h0a10.49,10.49,0,0,1,11,9.86l2.38,41.89a10.49,10.49,0,0,1-9.85,11h0a10.5,10.5,0,0,1-11-9.85L153.66,823A10.5,10.5,0,0,1,163.51,811.93Z"/><path class="cls-8" d="M141.72,886.64c-6.59,4.62-9.34,12.09-6.12,16.67s11.16,4.55,17.76-.08,9.32-12.09,6.11-16.66S148.31,882,141.72,886.64Z"/><path class="cls-16" d="M145.42,892.89c-4.53,3.18-6.41,8.3-4.21,11.45s7.67,3.13,12.2-.05,6.41-8.31,4.2-11.45S150,889.71,145.42,892.89Z"/><path class="cls-41" d="M101.39,867.88c.38-6.84,3.63-12.22,7.25-12s6.27,5.91,5.9,12.75-3.62,12.23-7.25,12S101,874.72,101.39,867.88Z"/><path class="cls-12" d="M172.52,821h0a6.43,6.43,0,0,1,6.77,6l1.46,25.71a6.44,6.44,0,0,1-6,6.77h0a6.44,6.44,0,0,1-6.77-6l-1.45-25.7A6.42,6.42,0,0,1,172.52,821Z"/><path class="cls-41" d="M171.59,826.32h0a4.44,4.44,0,0,1,4.67,4.17l1,17.72a4.43,4.43,0,0,1-4.16,4.67h0a4.43,4.43,0,0,1-4.67-4.16l-1-17.72A4.43,4.43,0,0,1,171.59,826.32Z"/><path class="cls-8" d="M153.64,818.59h0a8.22,8.22,0,0,1,8.65,7.72l1.86,32.83a8.22,8.22,0,0,1-7.72,8.65h0a8.22,8.22,0,0,1-8.65-7.72l-1.86-32.83A8.22,8.22,0,0,1,153.64,818.59Z"/><path class="cls-4" d="M152.8,823.82c1.77.09,3.1,2.1,3,4.48s-1.64,4.24-3.41,4.15-3.1-2.09-3-4.47S151,823.74,152.8,823.82Z"/><path class="cls-4" d="M154.13,854.33c1.76.09,3.09,2.09,3,4.47s-1.65,4.25-3.41,4.16-3.1-2.1-3-4.48S152.36,854.24,154.13,854.33Z"/><path class="cls-12" d="M227.68,825.33h0a5.44,5.44,0,0,1,4.84,6L230.27,853a5.45,5.45,0,0,1-6,4.85h0a5.45,5.45,0,0,1-4.85-6l2.25-21.68A5.45,5.45,0,0,1,227.68,825.33Z"/><path class="cls-41" d="M227.21,829.83h0a3.75,3.75,0,0,1,3.34,4.11L229,848.89a3.76,3.76,0,0,1-4.11,3.34h0a3.76,3.76,0,0,1-3.34-4.11l1.55-15A3.76,3.76,0,0,1,227.21,829.83Z"/><path class="cls-12" d="M198.18,820.9h0a5.91,5.91,0,0,1,5.74,6l-.61,23.63a5.92,5.92,0,0,1-6.05,5.74h0a5.92,5.92,0,0,1-5.74-6l.61-23.62A5.91,5.91,0,0,1,198.18,820.9Z"/><path class="cls-41" d="M198.27,826.06h0a4.07,4.07,0,0,1,3.95,4.17l-.42,16.28a4.08,4.08,0,0,1-4.17,4h0a4.09,4.09,0,0,1-4-4.17l.43-16.29A4.06,4.06,0,0,1,198.27,826.06Z"/><path class="cls-12" d="M256.36,835.39h0a5.07,5.07,0,0,1,3.78,6.08l-4.61,19.79a5.08,5.08,0,0,1-6.08,3.78h0a5.08,5.08,0,0,1-3.79-6.08l4.61-19.79A5.08,5.08,0,0,1,256.36,835.39Z"/><path class="cls-41" d="M255.39,839.49h0a3.5,3.5,0,0,1,2.61,4.19l-3.18,13.64a3.5,3.5,0,0,1-4.19,2.61h0a3.5,3.5,0,0,1-2.6-4.2l3.17-13.64A3.51,3.51,0,0,1,255.39,839.49Z"/><path class="cls-4" d="M481.62,630.18s241.43,110.61,430.5,15l-.8,37.11s-222.68,107-429.65-15.47Z"/><path class="cls-11" d="M669.93,670.14l66.35,3.31a13.52,13.52,0,0,1,12.53,16.29l-7.18,33.73a13.41,13.41,0,0,1-13.87,10.66l-55-2.74a13.4,13.4,0,0,1-12.72-11.84l-4.18-34.3a13.5,13.5,0,0,1,14.06-15.11Z"/><path class="cls-12" d="M675.56,680.29,729.67,683a11,11,0,0,1,10.22,13.28L734,723.77a11,11,0,0,1-11.32,8.7l-44.84-2.24a10.93,10.93,0,0,1-10.38-9.65l-3.41-28a11,11,0,0,1,11.47-12.32Z"/><path class="cls-11" d="M705.75,670l-.58,11.72.35,16.47-24-4,.84,19.56,23.85-4.85L704,733l-2.63-.24,1.83-20.56L679.8,717l-1.11-25.93,24.11,4c-.2-9.26-.16-16,.3-25.18Z"/><path class="cls-4" d="M907.06,861.31a34.08,34.08,0,0,0,64,4.81,11.24,11.24,0,0,0,1-5.15,11,11,0,0,0-1.59-5.06,11.19,11.19,0,0,0-3.69-3.77,10.88,10.88,0,0,0-5-1.62l-43.12-3.24a11,11,0,0,0-5.21.84,11.41,11.41,0,0,0-4.2,3.18,11,11,0,0,0-2.34,4.76,11.55,11.55,0,0,0,.18,5.25Zm15.61,12a27.2,27.2,0,0,1-8.94-13.82,4,4,0,0,1-.09-2,4.05,4.05,0,0,1,.9-1.79,4.31,4.31,0,0,1,1.58-1.23,4.84,4.84,0,0,1,2-.3l43.12,3.24a4.3,4.3,0,0,1,1.9.6,4,4,0,0,1,1.4,1.44,4.19,4.19,0,0,1,.63,1.91,4.27,4.27,0,0,1-.37,2,27.18,27.18,0,0,1-26.9,16.11A27.12,27.12,0,0,1,922.67,873.32Z"/><path class="cls-8" d="M966.52,656.88l-39.49-2c-13.19,75.37,6.36,113.32-10.34,207.51l39.48,2C959.62,795.22,949.38,735.46,966.52,656.88Z"/><path class="cls-4" d="M956.89,667.25l-21.81-1.09-5.43,47.26,23.68,1.18,5.42-47.26-1.86-.09Zm-18.51,2.82,16.22.8L950,710.69l-16.21-.8Z"/><path class="cls-26" d="M942.32,721.49a6.83,6.83,0,0,0-7,5.83,5.61,5.61,0,0,0,5.36,6.45,6.83,6.83,0,0,0,7-5.84A5.6,5.6,0,0,0,942.32,721.49Z"/><path class="cls-32" d="M759.52,384.13a15.77,15.77,0,0,0-2.17,8.48,15.23,15.23,0,0,0,2.62,8.24,13,13,0,0,0,6.46,5,12,12,0,0,0,8,0,4.59,4.59,0,0,0,1.74-1.16,4.9,4.9,0,0,0,1.07-1.94,5.39,5.39,0,0,0,.14-2.25,4.76,4.76,0,0,0-.8-2.05l-10-14.62A4.27,4.27,0,0,0,765,382.4a4.09,4.09,0,0,0-2-.44,4.22,4.22,0,0,0-2,.61,4.54,4.54,0,0,0-1.48,1.56Zm.49,8.36a12.48,12.48,0,0,1,1.73-6.76,1.62,1.62,0,0,1,.56-.6,1.44,1.44,0,0,1,.75-.23,1.59,1.59,0,0,1,.76.15,1.81,1.81,0,0,1,.58.56l10,14.61a1.87,1.87,0,0,1,.31.77,2.13,2.13,0,0,1-.06.86,2.07,2.07,0,0,1-.4.75,1.55,1.55,0,0,1-.66.43,9.54,9.54,0,0,1-6.35,0,10.4,10.4,0,0,1-5.15-4A12.11,12.11,0,0,1,760,392.49Z"/><path class="cls-11" d="M782.11,240.6S819.83,356.13,772,400.15l-9-11.55s45.13-31.88,14.18-143.83Z"/><path class="cls-42" d="M706.19,327.78c16.77.84,30,8.25,29.61,16.57s-14.34,14.37-31.11,13.54-30-8.26-29.61-16.57S689.42,326.94,706.19,327.78Z"/><path class="cls-28" d="M691.56,323.54s11-5.67,31.39,2.11C723,325.65,711,338.43,691.56,323.54Z"/><polygon class="cls-29" points="685.92 344.01 687.68 336.33 694.3 341.1 692.63 343.4 689.49 341.14 688.69 344.65 685.92 344.01"/><path class="cls-5" d="M175.26,680.72s4.12,17.52,24.5,33.15l-.67-32.73-6.78,13Z"/><path class="cls-5" d="M165.57,724.77s10.51,9.69,30.89,10.91l-15-21.25L182.77,726Z"/><path class="cls-5" d="M217.2,723.28s7,10.58,24.33,15.94l-8.46-21.5L231.76,728Z"/><path class="cls-5" d="M145,759.88s10.51,9.69,30.88,10.91l-15-21.25,1.32,11.58Z"/><path class="cls-26" d="M671.7,292.71s-1.6,2.85.49,3.34S675.18,289.57,671.7,292.71Z"/><path class="cls-26" d="M667.6,293.51s-1.06,1.89.33,2.22S669.91,291.45,667.6,293.51Z"/><path class="cls-20" d="M686.44,238a25.92,25.92,0,0,0-17.56-2.56,3.65,3.65,0,0,0-1.62.87A37.54,37.54,0,0,1,685,240a35.7,35.7,0,0,1,14.34,11.87,3.12,3.12,0,0,0-.26-.8A27.84,27.84,0,0,0,686.44,238Z"/><path class="cls-26" d="M483.26,1231.49c.28,6.53-3.33,12-8.07,12.24s-8.82-4.85-9.1-11.38,3.33-12,8.08-12.24S483,1225,483.26,1231.49Z"/><path class="cls-16" d="M440.9,1236.85S430,1271.2,455,1301.4C455,1301.4,441.75,1270.47,440.9,1236.85Z"/><path class="cls-26" d="M438.58,1237.65s-10.87,34.36,14.1,64.56C452.68,1302.21,439.43,1271.27,438.58,1237.65Z"/><path class="cls-16" d="M473.21,1265.48s-28.15,8.16-37.3,38.72C435.91,1304.2,450.86,1281.25,473.21,1265.48Z"/><path class="cls-26" d="M471.63,1264.28s-28.16,8.17-37.3,38.72C434.33,1303,449.27,1280.05,471.63,1264.28Z"/><path class="cls-16" d="M907,1252.81s-28.15,8.17-37.3,38.72C869.68,1291.53,884.62,1268.58,907,1252.81Z"/><path class="cls-26" d="M905.39,1251.61s-28.15,8.17-37.3,38.72C868.09,1290.33,883,1267.38,905.39,1251.61Z"/><path class="cls-40" d="M818.74,961.51s.65,81-99.65,99.24C719.09,1060.75,789.48,1018.18,818.74,961.51Z"/><path class="cls-40" d="M774.09,996.15s.4,48.93-60.16,59.91C713.93,1056.06,756.43,1030.36,774.09,996.15Z"/><path class="cls-11" d="M946.49,585.35h0a10.5,10.5,0,0,1,7,13l-13.78,46.24a10.51,10.51,0,0,1-13,7h0a10.51,10.51,0,0,1-7.05-13l13.78-46.23A10.51,10.51,0,0,1,946.49,585.35Z"/><path class="cls-13" d="M938.72,611.41h0a21.81,21.81,0,0,1,14.62,27.06L946,663.1a21.8,21.8,0,0,1-27,14.63h0a21.82,21.82,0,0,1-14.63-27.06L911.67,626A21.8,21.8,0,0,1,938.72,611.41Z"/><path class="cls-11" d="M930.39,639.36a56.35,56.35,0,1,1-70.09,37.9A56.35,56.35,0,0,1,930.39,639.36Z"/><path class="cls-11" d="M953.1,558a22.63,22.63,0,1,1-17.23,1.78A22.58,22.58,0,0,1,953.1,558Zm10.14,12.7a18.88,18.88,0,1,0,1.49,14.38A18.79,18.79,0,0,0,963.24,570.73Z"/><path class="cls-36" d="M914.56,644A31,31,0,1,1,876,664.91,31,31,0,0,1,914.56,644Z"/><path class="cls-11" d="M977.76,585.68h0a10.52,10.52,0,0,0-6.5,13.32L987,644.63a10.49,10.49,0,0,0,13.31,6.5h0a10.52,10.52,0,0,0,6.51-13.32l-15.69-45.62A10.51,10.51,0,0,0,977.76,585.68Z"/><path class="cls-13" d="M986.61,611.4h0A21.81,21.81,0,0,0,973.11,639l8.36,24.31a21.8,21.8,0,0,0,27.63,13.5h0a21.81,21.81,0,0,0,13.5-27.64l-8.35-24.31A21.81,21.81,0,0,0,986.61,611.4Z"/><path class="cls-11" d="M996.09,639a56.36,56.36,0,0,0,27.06,109l5.5-110.21A56.18,56.18,0,0,0,996.09,639Z"/><path class="cls-11" d="M970,558.66a22.63,22.63,0,1,0,17.29,1.07A22.63,22.63,0,0,0,970,558.66Zm-9.62,13.11a18.89,18.89,0,1,1-.89,14.44A18.85,18.85,0,0,1,960.42,571.77Z"/><path class="cls-36" d="M1012.1,643a31,31,0,0,0,13.28,60.23l3.06-61.28A31,31,0,0,0,1012.1,643Z"/><path class="cls-26" d="M947.67,566.75a35.25,35.25,0,0,0,14.82,4.56,33.27,33.27,0,0,0,10.42-.84c-1.43-1.84-3.24-4-5-6.19a26.75,26.75,0,0,1-5.23.11,27.49,27.49,0,0,1-9.43-2.41Z"/><path class="cls-43" d="M708,273.29c3.1.54,5.4,2.28,5.12,3.89s-3,2.47-6.13,1.94-5.4-2.29-5.12-3.9S704.89,272.75,708,273.29Z"/><path class="cls-26" d="M713.22,277.1c1.55.27,2.7,1.14,2.56,1.95s-1.51,1.23-3.07,1-2.69-1.14-2.55-1.94S711.66,276.83,713.22,277.1Z"/><path class="cls-26" d="M695.74,265.34s7.89-6.07,14.56-5.48,15.79,6.4,15.79,6.4l-.66,8.09s-11.51-5.84-16.38-5.24-15.54,3.55-15.54,3.55Z"/><path class="cls-5" d="M331.37,641s31.1,47,46.85,54.82,18.35-15.18,14.74-23-42.08-52.74-48.81-55.55S328.06,632.5,331.37,641Z"/><path class="cls-32" d="M331.37,640.9s31.1,44.63,46.85,51.25,18.35-16.57,14.74-24.08-42.08-49.54-48.81-51.83S328.06,632.7,331.37,640.9Z"/><path class="cls-26" d="M343.73,659.79c4.87,6.16,10.46,12.87,15.94,18.63a2.18,2.18,0,0,0,3.57-.62l12.17-27.52A2.11,2.11,0,0,0,375,648c-5.64-6.34-12-13.09-17.61-18.76a2.18,2.18,0,0,0-3.58.78c-2.91,7.81-7.21,19.3-10.44,27.69A2.11,2.11,0,0,0,343.73,659.79Z"/><path class="cls-32" d="M357,642c1,0,1.77-1.55,1.77-3.45s-.79-3.46-1.77-3.46-1.76,1.55-1.76,3.46S356,642,357,642Z"/><path class="cls-32" d="M357.49,652.06c1,0,1.76-1.56,1.76-3.46s-.79-3.45-1.76-3.45-1.77,1.55-1.77,3.45S356.51,652.06,357.49,652.06Z"/><path class="cls-32" d="M358,662.07c1,0,1.77-1.55,1.77-3.45s-.8-3.45-1.77-3.45-1.77,1.55-1.77,3.45S357,662.07,358,662.07Z"/><path class="cls-32" d="M358.49,672.09c1,0,1.77-1.55,1.77-3.45s-.79-3.45-1.77-3.45-1.76,1.55-1.76,3.45S357.52,672.09,358.49,672.09Z"/><path class="cls-32" d="M363.47,646.41c1,0,1.76-1.55,1.76-3.45s-.79-3.45-1.76-3.45-1.77,1.55-1.77,3.45S362.49,646.41,363.47,646.41Z"/><path class="cls-32" d="M364,656.43c1,0,1.77-1.55,1.77-3.45s-.8-3.45-1.77-3.45-1.77,1.55-1.77,3.45S363,656.43,364,656.43Z"/><path class="cls-32" d="M364.22,666.45c1,0,1.77-1.55,1.77-3.45s-.79-3.45-1.77-3.45-1.77,1.55-1.77,3.45S363.25,666.45,364.22,666.45Z"/><path class="cls-32" d="M350.92,654.66c1,0,1.77-1.55,1.77-3.45s-.8-3.45-1.77-3.45-1.77,1.55-1.77,3.45S349.94,654.66,350.92,654.66Z"/><path class="cls-32" d="M351.42,664.68c1,0,1.77-1.55,1.77-3.45s-.79-3.45-1.77-3.45-1.76,1.55-1.76,3.45S350.45,664.68,351.42,664.68Z"/><path class="cls-32" d="M370.2,653.91c1,0,1.77-1.55,1.77-3.45s-.79-3.46-1.77-3.46-1.77,1.55-1.77,3.46S369.23,653.91,370.2,653.91Z"/><path class="cls-26" d="M666.51,281.87s-2.48,4.41.75,5.18S671.9,277,666.51,281.87Z"/><path class="cls-42" d="M658.08,258.77s-30.56-22.27-20.92-38.56,25.09-25.27,16.77-33.58-26.67,6.64-32.18-5.66S643,157.7,643,157.7s-15.79,11.64-9.88,15.63,21.92-1.66,32.82,8.31S622.9,228.85,658.08,258.77Z"/><path class="cls-26" d="M694.55,288.47a7.38,7.38,0,0,1,0-12.46,15.36,15.36,0,0,0,0,12.46Z"/><path class="cls-5" d="M658.61,259.68s1.5,15.93,24.59,16.67C683.2,276.35,654.05,283,658.61,259.68Z"/><path class="cls-5" d="M766.27,269.91s-6.29,14.71-28.5,8.37C737.77,278.28,763.49,293.56,766.27,269.91Z"/></g></g></svg>