<svg xmlns="http://www.w3.org/2000/svg" xmlns:xlink="http://www.w3.org/1999/xlink" viewBox="0 0 634.13 756.98"><defs><style>.cls-1{isolation:isolate;}.cls-2{fill:url(#New_Gradient_Swatch_2);}.cls-3{fill:#fff;opacity:0.16;mix-blend-mode:screen;}.cls-4{fill:url(#New_Gradient_Swatch_3);}.cls-5{fill:url(#New_Gradient_Swatch_3-2);}</style><linearGradient id="New_Gradient_Swatch_2" x1="-77.8" y1="-652.53" x2="459.03" y2="-652.53" gradientTransform="translate(67.27 1010.76) rotate(2.3)" gradientUnits="userSpaceOnUse"><stop offset="0" stop-color="#af206e"/><stop offset="0.55" stop-color="#e34256"/><stop offset="1" stop-color="#eb8b23"/></linearGradient><linearGradient id="New_Gradient_Swatch_3" x1="-224.48" y1="1976.84" x2="114.6" y2="1435.92" gradientTransform="translate(115.53 -1497.77) rotate(-16.4)" gradientUnits="userSpaceOnUse"><stop offset="0" stop-color="#5f2d78"/><stop offset="1" stop-color="#af206e"/></linearGradient><linearGradient id="New_Gradient_Swatch_3-2" x1="-4406.49" y1="4368.28" x2="-4208.13" y2="4051.84" gradientTransform="matrix(0.42, -0.91, 0.91, 0.42, -1908.01, -5176.6)" xlink:href="#New_Gradient_Swatch_3"/></defs><g class="cls-1"><g id="Layer_2" data-name="Layer 2"><g id="Layer_1-2" data-name="Layer 1"><path class="cls-2" d="M431.72,722.09c21.11-6.37,56.65-17.1,82.52-49.76,47-59.36,31.55-152.65-1.14-212-28.08-51-80.18-84.24-184.36-150.69-98.13-62.58-131.66-69.83-140-107.92-11.83-54.3,44.35-94.52,21.05-155.8C207,38.53,197.43,13.27,174.4,3.72,135-12.64,83.86,28.5,59.92,58.88c-23.1,29.31-48,83-29.52,126.49,13.41,31.51,38.24,30.91,43.42,59.87C79,274.39,55.47,283.79,44.45,331.7c-4.4,19.15-13.25,57.57,3.61,90.69,21.79,42.84,66.81,38,74.91,73.63,5.86,25.72-15.73,36.63-15.33,66.39.52,39.17,38.58,68,70.57,91.56C215.88,681.72,317.51,756.57,431.72,722.09Z"/><path class="cls-3" d="M159.25,20.31c20.95,15.6-43.14,80-28.47,168.18,15.78,94.87,113.12,159.41,158.1,189.23,76.75,50.89,110.42,41.71,159.06,97.83,19.25,22.21,59.36,68.48,52.71,130.68-.62,5.78-8.47,70.11-59.2,99-57.55,32.81-126.51-4.87-185.93-37.34-35.91-19.61-107.63-58.8-101.06-99.12,4-24.64,36.38-44,62.63-49.1,37.48-7.22,67.67,13.75,71.24,7.39,3.21-5.73-18.19-28.25-48-45.39-59.59-34.27-91.83-11.95-135.89-43.47-5.34-3.82-47.21-34.71-46.6-79.74.35-26,14.85-57.32,36-61.94,23.9-5.22,46,26,51.67,21.09C150.94,313,134,281.55,112.8,253c-31.21-42-45.77-43-57-69.29-17.11-40.17-1.55-81,.76-86.89C78.32,42,141.33,7,159.25,20.31Z"/><path class="cls-4" d="M469.48,665.46c17.91,3.88,48,10.41,80-2.88,58.09-24.16,84.45-98.16,84.65-154.48.17-48.38-24.28-93.51-73.18-183.77-46.05-85-67.48-103.79-58.15-134.8,13.29-44.22,70.31-50.78,78.09-104.69.93-6.47,4.14-28.68-8.74-44.91-22-27.77-75.76-18.49-105.4-6.07-28.59,12-68.34,40.92-72.42,80-3,28.3,15.31,37.87,7.4,61s-28.86,20.6-56.19,51c-10.91,12.13-32.82,36.48-33.93,67.33-1.44,39.9,33.2,54.56,24.74,83.68-6.12,21-26.2,20.26-37.9,42-15.41,28.67.61,64.94,14.35,95C329,549.13,372.63,644.47,469.48,665.46Z"/><path class="cls-3" d="M554.45,45.88c8.93,19.78-63.58,40.71-88.47,110.68C439.2,231.84,483.89,318,504.55,357.75c35.23,67.9,63.39,74.8,76.1,135.17,5,23.89,15.51,73.67-14.39,116.17-2.78,3.95-34.42,47.51-82.93,48.07-55,.64-89.93-54.52-120-102.06-18.17-28.72-54.48-86.1-33.45-112.73C342.73,426.08,374.05,425,395.16,432c30.14,9.86,43.62,37.26,48.77,34.08,4.64-2.87-1.82-27.85-16.56-52.31C397.9,364.8,365.49,368,346.2,327.37c-2.34-4.93-20.31-44.25-1.71-76.71,10.72-18.72,33.88-35.65,51.1-30.48,19.47,5.84,22.93,37.43,29,36.14,5.84-1.22,6.22-30.85,2.31-60.18-5.73-43.09-15.92-49.65-13.46-73.29C417.24,86.78,445,63.35,449.06,60,486.92,29,546.82,29,554.45,45.88Z"/><path class="cls-5" d="M282.77,736.46c8.63-6.36,23.15-17.06,29.68-36.22,11.87-34.84-10.41-75-35.05-96.9-21.16-18.79-50.42-25.52-108.94-39-55.11-12.67-71.65-10.53-81.65-26.62C72.55,514.8,91.73,487.24,71.08,463c-2.47-2.91-11-12.91-23.09-13.54-20.71-1.07-37.41,26.09-43.43,43.9-5.81,17.18-8.48,45.82,7.08,62.72C22.91,568.3,34.18,564,41.27,576.4s-2.13,20.64.63,44.37c1.1,9.48,3.31,28.51,16.41,40.94,17,16.06,36.79,6.53,46.29,21.51,6.87,10.82-1.24,19.33,3.79,32.89C115,734,137.13,741,155.61,746.54,177.37,753.11,236.09,770.84,282.77,736.46Z"/><path class="cls-3" d="M43.76,459.51c12.13,3.73-6.73,43.65,14.34,81.63C80.78,582,135.85,595.71,161.3,602c43.43,10.8,57.35,1.12,88.76,18.9,12.43,7,38.32,21.69,45.41,51.25.65,2.75,7.53,33.48-11,55-21,24.39-58.71,18.37-91.2,13.18-19.64-3.14-58.86-9.4-62.41-28.93-2.17-11.94,9.49-26.09,20.68-32.68,16-9.41,33.22-4.72,33.82-8.22.54-3.14-12.93-10-29.36-13-32.86-6-44,9.47-69.29,2.22-3.07-.88-27.27-8.21-34.32-28.93-4.07-11.94-2.53-28.66,6.39-34.21,10.1-6.29,25.3,4.41,27.09,1.24s-11.13-14.66-25.51-24.29C39.24,559.43,32.42,561.37,23,551.14,8.63,535.54,9.09,514.29,9.2,511.23,10.24,482.62,33.39,456.32,43.76,459.51Z"/></g></g></g></svg>