<svg xmlns="http://www.w3.org/2000/svg" viewBox="0 0 131.1 301.1"><defs><style>.cls-1{fill:#eb8b23;}.cls-2{fill:#ddd;}.cls-3{fill:#f6cc1b;}.cls-4{fill:#c4c4c4;}</style></defs><g id="Layer_2" data-name="Layer 2"><g id="Layer_1-2" data-name="Layer 1"><rect class="cls-1" x="33.9" y="223.5" width="29.2" height="58.3"/><path class="cls-2" d="M59.4,66.9A75.46,75.46,0,0,1,76.1,42.2a77.2,77.2,0,0,1,55-22.8V0A97.16,97.16,0,0,0,33.9,97.1V213.7H53.3V97.1A78,78,0,0,1,59.4,66.9Z"/><rect class="cls-3" x="33.9" y="204" width="29.1" height="9.7"/><path class="cls-4" d="M68.5,70.7A67.07,67.07,0,0,1,83.1,49.1a69.26,69.26,0,0,1,21.6-14.6,68.56,68.56,0,0,1,17.2-4.7,10.57,10.57,0,0,0,9.2-10.5h0A77.82,77.82,0,0,0,53.3,97.1V204h9.8l.1-106.9A68.38,68.38,0,0,1,68.5,70.7Z"/><path class="cls-3" d="M77.7,223.4a4.8,4.8,0,0,0,0-9.6H19.3a4.8,4.8,0,0,0,0,9.6Z"/><path class="cls-3" d="M53.5,301.1a9.6,9.6,0,0,0,9.6-9.6v-9.7H33.9v9.7a9.6,9.6,0,0,0,9.6,9.6Z"/><path class="cls-1" d="M33.9,233.3v-9.7a33.9,33.9,0,1,0,0,67.8v-9.7a23.73,23.73,0,0,1-17.1-7.1,24.06,24.06,0,0,1-7.1-17.1,23.73,23.73,0,0,1,7.1-17.1A24.06,24.06,0,0,1,33.9,233.3Z"/><rect class="cls-1" x="33.9" y="233.3" width="29.2" height="9.5"/><rect class="cls-1" x="33.9" y="252.6" width="29.2" height="9.5"/><rect class="cls-1" x="33.9" y="272" width="29.2" height="9.5"/></g></g></svg>