<svg xmlns="http://www.w3.org/2000/svg" xmlns:xlink="http://www.w3.org/1999/xlink" viewBox="0 0 1943.67 1886.42"><defs><style>.cls-1{fill:url(#linear-gradient);}.cls-2{fill:url(#linear-gradient-2);}.cls-3{isolation:isolate;}.cls-4{opacity:0.41;fill:url(#New_Gradient_Swatch_3);}.cls-5{clip-path:url(#clip-path);}.cls-24,.cls-29,.cls-6{mix-blend-mode:soft-light;}.cls-15,.cls-24,.cls-29,.cls-7{fill:#fff;}.cls-8{clip-path:url(#clip-path-2);}.cls-9{fill:url(#linear-gradient-5);}.cls-10{fill:url(#linear-gradient-6);}.cls-11{fill:url(#linear-gradient-7);}.cls-12{fill:url(#linear-gradient-8);}.cls-13{fill:url(#linear-gradient-9);}.cls-14{fill:url(#linear-gradient-10);}.cls-15{opacity:0.75;}.cls-16{fill:url(#linear-gradient-11);}.cls-17{fill:url(#linear-gradient-12);}.cls-18,.cls-20,.cls-28,.cls-31{opacity:0.3;mix-blend-mode:multiply;}.cls-18{fill:url(#linear-gradient-13);}.cls-19{fill:url(#linear-gradient-14);}.cls-20{fill:url(#linear-gradient-15);}.cls-21{fill:url(#linear-gradient-16);}.cls-22{fill:url(#linear-gradient-17);}.cls-23{fill:url(#linear-gradient-18);}.cls-24{opacity:0.5;}.cls-25{fill:url(#linear-gradient-19);}.cls-26{fill:url(#linear-gradient-20);}.cls-27{fill:url(#linear-gradient-21);}.cls-28{fill:url(#linear-gradient-22);}.cls-29{opacity:0.44;}.cls-30{fill:url(#linear-gradient-23);}.cls-31{fill:url(#linear-gradient-24);}.cls-32{fill:url(#linear-gradient-25);}.cls-33{fill:url(#linear-gradient-26);}.cls-34{fill:url(#linear-gradient-27);}.cls-35{fill:url(#linear-gradient-28);}.cls-36{fill:url(#linear-gradient-29);}.cls-37{fill:url(#linear-gradient-30);}.cls-38{fill:url(#linear-gradient-31);}.cls-39{fill:url(#linear-gradient-32);}.cls-40{fill:url(#linear-gradient-33);}</style><linearGradient id="linear-gradient" x1="963.72" y1="1228.9" x2="1864.96" y2="1228.9" gradientUnits="userSpaceOnUse"><stop offset="0" stop-color="#e54355"/><stop offset="1" stop-color="#5f2d78"/></linearGradient><linearGradient id="linear-gradient-2" x1="1661.72" y1="2734.09" x2="1621.36" y2="2556.02" gradientUnits="userSpaceOnUse"><stop offset="0" stop-color="#eb8b23"/><stop offset="1" stop-color="#5f2d78"/></linearGradient><linearGradient id="New_Gradient_Swatch_3" y1="943.21" x2="1894.28" y2="943.21" gradientUnits="userSpaceOnUse"><stop offset="0" stop-color="#af206e"/><stop offset="0.55" stop-color="#e54355"/><stop offset="1" stop-color="#eb8b23"/></linearGradient><clipPath id="clip-path"><path class="cls-1" d="M963.72,1803.13c.16-93.07,14.43-230.52,94.24-362,91.65-151,186-156.11,318.6-306.05,189.35-214,127.84-434.65,263.8-474.29,66.31-19.33,151.29,8.69,191.36,63.29,114.33,155.8-79.71,606-376.59,708.66-134.26,46.43-224.65,5.83-340.09,85.17C1013,1588,977.86,1713.3,963.72,1803.13Z"/></clipPath><clipPath id="clip-path-2"><path class="cls-2" d="M867.92,1751.62c4.65-57.37,20.9-144.73,85-210.49,111.77-114.71,243.27-34.57,415.69-144.32,139.07-88.52,126.89-187.34,268.14-234,23.64-7.8,149.28-51.88,218.84,10.93,39.2,35.39,43.22,89,44,99,11.42,152-186.46,336.1-398,390.09-121.51,31-151.35,3.52-356.62,23.83A1093,1093,0,0,0,867.92,1751.62Z"/></clipPath><linearGradient id="linear-gradient-5" x1="1282.54" y1="369.24" x2="859.69" y2="249.58" gradientUnits="userSpaceOnUse"><stop offset="0" stop-color="#2e1a47"/><stop offset="1" stop-color="#af206e"/></linearGradient><linearGradient id="linear-gradient-6" x1="1281.43" y1="373.16" x2="858.58" y2="253.5" xlink:href="#linear-gradient-5"/><linearGradient id="linear-gradient-7" x1="848.61" y1="102.02" x2="855.22" y2="635.99" xlink:href="#linear-gradient-2"/><linearGradient id="linear-gradient-8" x1="811.5" y1="507.63" x2="521.74" y2="425.63" xlink:href="#linear-gradient-5"/><linearGradient id="linear-gradient-9" x1="810.74" y1="510.31" x2="520.97" y2="428.32" xlink:href="#linear-gradient-5"/><linearGradient id="linear-gradient-10" x1="514.14" y1="324.51" x2="518.67" y2="690.43" xlink:href="#linear-gradient-2"/><linearGradient id="linear-gradient-11" x1="1366.19" y1="1012.62" x2="1372.09" y2="965.44" gradientUnits="userSpaceOnUse"><stop offset="0" stop-color="#24205b"/><stop offset="1" stop-color="#5f2d78"/></linearGradient><linearGradient id="linear-gradient-12" x1="1341.94" y1="969.62" x2="1400.91" y2="863.46" xlink:href="#linear-gradient-11"/><linearGradient id="linear-gradient-13" x1="1275.24" y1="919.31" x2="1470.98" y2="919.31" xlink:href="#linear-gradient-11"/><linearGradient id="linear-gradient-14" x1="1347.55" y1="940.61" x2="1405.79" y2="828.56" xlink:href="#linear-gradient-11"/><linearGradient id="linear-gradient-15" x1="1266.47" y1="886.32" x2="1479.65" y2="886.32" xlink:href="#linear-gradient-11"/><linearGradient id="linear-gradient-16" x1="1263.31" y1="847.81" x2="1482.9" y2="847.81" xlink:href="#linear-gradient-11"/><linearGradient id="linear-gradient-17" x1="1367.66" y1="831.24" x2="1389.28" y2="730" xlink:href="#linear-gradient-11"/><linearGradient id="linear-gradient-18" x1="1326.13" y1="266.34" x2="1755.15" y2="947.46" gradientUnits="userSpaceOnUse"><stop offset="0" stop-color="#f6cc1b"/><stop offset="0.05" stop-color="#f6cc1b"/><stop offset="0.32" stop-color="#f6cc1b"/><stop offset="0.45" stop-color="#f4c11c"/><stop offset="0.69" stop-color="#efa420"/><stop offset="0.87" stop-color="#eb8b23"/><stop offset="1" stop-color="#eb8b23"/></linearGradient><linearGradient id="linear-gradient-19" x1="1247.75" y1="790.79" x2="1335.23" y2="535.23" gradientUnits="userSpaceOnUse"><stop offset="0.49" stop-color="#fff"/><stop offset="1" stop-color="#fff"/></linearGradient><linearGradient id="linear-gradient-20" x1="1331.38" y1="819.42" x2="1418.86" y2="563.86" xlink:href="#linear-gradient-19"/><linearGradient id="linear-gradient-21" x1="1217.29" y1="780.37" x2="1304.77" y2="524.81" xlink:href="#linear-gradient-19"/><linearGradient id="linear-gradient-22" x1="1341.18" y1="112.81" x2="1255.67" y2="817.55" xlink:href="#linear-gradient-18"/><linearGradient id="linear-gradient-23" x1="785.29" y1="785.25" x2="722.54" y2="1999.48" gradientUnits="userSpaceOnUse"><stop offset="0" stop-color="#eb8b23"/><stop offset="1" stop-color="#e54355"/></linearGradient><linearGradient id="linear-gradient-24" x1="770.97" y1="868.81" x2="712.99" y2="1990.75" xlink:href="#linear-gradient-23"/><linearGradient id="linear-gradient-25" x1="576.85" y1="774.47" x2="514.1" y2="1988.71" xlink:href="#linear-gradient-23"/><linearGradient id="linear-gradient-26" x1="1413.13" y1="810.76" x2="1143.3" y2="1090" xlink:href="#linear-gradient-23"/><linearGradient id="linear-gradient-27" x1="1138.5" y1="1093" x2="1518.14" y2="1249.88" xlink:href="#linear-gradient-23"/><linearGradient id="linear-gradient-28" x1="752.13" y1="738.24" x2="808.51" y2="445.77" xlink:href="#linear-gradient-18"/><linearGradient id="linear-gradient-29" x1="711.67" y1="243.58" x2="585.25" y2="-77.51" gradientTransform="matrix(-0.97, 0.23, 0.23, 0.97, 1378.22, 280.49)" gradientUnits="userSpaceOnUse"><stop offset="0" stop-color="#2e1a47"/><stop offset="1" stop-color="#5f2d78"/></linearGradient><linearGradient id="linear-gradient-30" x1="884" y1="437.94" x2="594.21" y2="607.87" xlink:href="#linear-gradient-18"/><linearGradient id="linear-gradient-31" x1="673.05" y1="258.95" x2="546.5" y2="-62.46" xlink:href="#linear-gradient-29"/><linearGradient id="linear-gradient-32" x1="843.11" y1="487.74" x2="876.89" y2="487.74" xlink:href="#linear-gradient-18"/><linearGradient id="linear-gradient-33" x1="896.59" y1="505.92" x2="957.28" y2="765.36" xlink:href="#linear-gradient-18"/></defs><g class="cls-3"><g id="Layer_2" data-name="Layer 2"><g id="Layer_1-2" data-name="Layer 1"><path class="cls-4" d="M455.37,113.38c-63.62,91.08,11,238.74-83.43,307.23C280.05,487.29,167.16,378,80.56,435.39c-128.47,85.15-105,474.74,82.82,716.8C219.87,1225,267.07,1253.31,288,1335.64c44.89,176.79-112.87,281.95-82.85,369.38,67.6,196.87,1107.18,362.07,1524.3-229.59,194.81-276.33,224-675.35,49.9-978.4C1464.8-50.6,598.12-91,455.37,113.38Z"/><path class="cls-1" d="M963.72,1803.13c.16-93.07,14.43-230.52,94.24-362,91.65-151,186-156.11,318.6-306.05,189.35-214,127.84-434.65,263.8-474.29,66.31-19.33,151.29,8.69,191.36,63.29,114.33,155.8-79.71,606-376.59,708.66-134.26,46.43-224.65,5.83-340.09,85.17C1013,1588,977.86,1713.3,963.72,1803.13Z"/><g class="cls-5"><g class="cls-6"><path class="cls-7" d="M1016.39,1586.13l-1.93-1.23a674.42,674.42,0,0,1,70.22-91.64c59.51-65.17,111.13-94.71,176.48-132.1,42.47-24.31,90.61-51.85,149.81-94.56,110.72-79.87,146.48-108.95,187.15-161.27,80.51-103.61,108.85-211,118.57-265.77A601.68,601.68,0,0,0,1712,605.32l2.24-.48A604,604,0,0,1,1718.94,840c-9.76,55-38.19,162.77-119,266.77-40.85,52.56-76.69,81.7-187.62,161.73-59.29,42.77-107.49,70.35-150,94.68-65.18,37.3-116.66,66.76-175.93,131.67A671.18,671.18,0,0,0,1016.39,1586.13Z"/><path class="cls-7" d="M1648.49,1030l.56-1.8c27-87-9.79-161.24-45.43-208.19-38.67-51-84.3-81.67-84.76-82l1.27-1.91c.46.31,46.42,31.23,85.32,82.49,35.71,47.06,72.57,121.29,46.35,208.42,9.76-2.08,56.4-13.24,105.76-45.64,50.94-33.45,115.28-97,132.53-210l2.26.35c-17.38,113.88-82.25,178-133.61,211.66-55.63,36.51-107.87,46.22-108.4,46.31Z"/><path class="cls-7" d="M1624.82,1316.8c-42.2,0-78.87-11-106.06-22.83-47.11-20.48-76.72-47.73-77-48l-.71-.65.53-.81c50.29-77.55,51.62-146.49,43.88-190.66-8.4-47.89-29-77.83-29.17-78.13l1.88-1.31c.21.3,21,30.58,29.52,78.93,7.82,44.45,6.55,113.7-43.66,191.6,4.76,4.22,33,28.39,75.73,47,43.11,18.73,110.27,35.42,185.4,8.63l.77,2.16A240,240,0,0,1,1624.82,1316.8Z"/><path class="cls-7" d="M1503.86,1449.61c-86.71,0-142.81-24.7-175.12-46.09-37-24.5-51.72-50.13-51.87-50.39l-.4-.71.55-.61c66.13-73.83,60.18-232.29,60.11-233.88l2.29-.1c.06,1.6,6,160.1-60.13,234.87,2.6,4.24,17.62,27,50.84,49,33.82,22.35,93.95,48.37,188.42,45.39l.07,2.29Q1511.09,1449.62,1503.86,1449.61Z"/></g></g><path class="cls-2" d="M867.92,1751.62c4.65-57.37,20.9-144.73,85-210.49,111.77-114.71,243.27-34.57,415.69-144.32,139.07-88.52,126.89-187.34,268.14-234,23.64-7.8,149.28-51.88,218.84,10.93,39.2,35.39,43.22,89,44,99,11.42,152-186.46,336.1-398,390.09-121.51,31-151.35,3.52-356.62,23.83A1093,1093,0,0,0,867.92,1751.62Z"/><g class="cls-8"><g class="cls-6"><path class="cls-7" d="M835.37,1813.92l-2.07-1c60.32-124.89,134.44-200.4,220.31-224.46,42-11.78,72.16-7.78,104.06-3.54,34.28,4.55,69.73,9.26,122.1-6.9,50.89-15.69,73.17-37.48,101.38-65.07,25.39-24.83,57-55.72,119.59-91.76,54.87-31.58,92.06-43.49,124.87-54,35.52-11.38,63.58-20.37,100.92-50.21,61-48.74,104.29-120,128.7-211.69l2.21.59c-24.53,92.2-68.1,163.83-129.48,212.89-37.67,30.11-65.91,39.15-101.66,50.6-32.7,10.47-69.76,22.34-124.42,53.8-62.35,35.89-93.83,66.67-119.13,91.41-28.43,27.8-50.89,49.76-102.31,65.62-52.84,16.3-88.54,11.56-123.07,7-31.65-4.2-61.56-8.17-103.14,3.48C969,1614.55,895.38,1689.66,835.37,1813.92Z"/><path class="cls-7" d="M1712.78,1388.23A371.7,371.7,0,0,1,1611.36,1374l-1.47-.41.81-1.3c1.07-1.69,105.8-169.68,57.36-262l2-1.06c25.68,48.93,8.66,118.23-10.14,167.75a614.55,614.55,0,0,1-46.49,95.23c99.39,27.64,183.26,8.36,236.2-12.76,57.69-23,92.16-53.1,92.5-53.4l1.52,1.72c-.35.3-35.05,30.61-93.08,53.77A372.76,372.76,0,0,1,1712.78,1388.23Z"/><path class="cls-7" d="M1699,1548.05a451,451,0,0,1-150-26.16c-68.38-24.24-110.68-57.05-111.1-57.38l-.78-.6.49-.86c50.11-88.71,60.75-230.12,60.85-231.54l2.28.17c-.1,1.42-10.7,142.41-60.65,231.63,6,4.54,46.78,34.14,109.76,56.45,62.77,22.24,161.14,41.59,273.27,7.47l.67,2.2A427.09,427.09,0,0,1,1699,1548.05Z"/><path class="cls-7" d="M1466.89,1739.66c-189.36-43-278.42-148.28-279.3-149.34l-.77-.93,1-.72c94.4-70.25,102.64-223.2,102.71-224.74l2.29.11c-.07,1.54-8.33,154.52-102.64,225.73,9.17,10.43,98.1,107,277.25,147.66Z"/></g></g><path class="cls-9" d="M955.7,338.77c13.54,6.88,30.55.56,38-14.1s2.5-32.12-11-39c-.71-.35-1.42-.65-2.14-.94a170.76,170.76,0,0,0,5.68-24.47c.78,0,1.56,0,2.35-.09,15.45-1.37,27.71-15.57,27.39-31.71s-13.11-28.1-28.56-26.72c-.81.07-1.6.2-2.39.34a156.87,156.87,0,0,0-6.61-23.37c.71-.42,1.41-.85,2.1-1.33,13.22-9.26,17.45-27.54,9.44-40.82S964.71,120,951.5,129.27c-.68.47-1.32,1-2,1.51a140,140,0,0,0-17.14-16c.43-.71.86-1.43,1.25-2.19,7.44-14.67,17.17-30.68,3.52-37.35C905.61,59.82,892.06,73,884.62,87.68c-.39.76-.72,1.53-1,2.3a138.75,138.75,0,0,0-23-4.39c0-.82.08-1.64.07-2.46-.33-16.14,4.46-24.87-11-25.17-33.82-.66-45.23,14-44.9,30.15,0,.85.08,1.67.17,2.49a157.19,157.19,0,0,0-22.77,8.45c-.35-.72-.72-1.44-1.14-2.13-8-13.29-25.21-16.55-38.43-7.29s-17.44,27.54-9.44,40.83c.41.68.86,1.31,1.32,1.94a171.93,171.93,0,0,0-16.4,19c-.66-.41-1.32-.81-2-1.17-13.54-6.87-30.56-.56-38,14.1s-2.5,32.13,11,39c.7.36,1.42.66,2.13.94a172.56,172.56,0,0,0-5.68,24.48c-.78,0-1.56,0-2.35.08-15.45,1.38-27.71,15.58-27.39,31.71s13.11,28.1,28.56,26.73c.81-.08,1.61-.2,2.39-.34a158.33,158.33,0,0,0,6.62,23.36c-.71.42-1.42.85-2.11,1.33-13.22,9.26-17.44,27.54-9.44,40.83s34.51,19.46,47.73,10.2c.67-.48-8-3.9-7.36-4.42a139.24,139.24,0,0,0,17.15,16c-.44.71-.87,1.44-1.25,2.2-7.45,14.66-2.5,32.12,11,39s30.55.56,38-14.1c.38-.76.72-1.54,1-2.31a139.92,139.92,0,0,0,23,4.4c-.05.81-.09,1.63-.07,2.46.32,16.13,13.11,28.1,28.56,26.72s27.71-15.57,27.39-31.71c0-.84-.09-1.67-.17-2.49A157.19,157.19,0,0,0,889.59,390c.35.72.71,1.44,1.13,2.13,8,13.29,25.21,16.55,38.43,7.29s17.44-27.54,9.44-40.82c-.41-.68-.86-1.32-1.32-1.95a171.1,171.1,0,0,0,16.41-19C954.33,338,955,338.41,955.7,338.77Zm-168.82,2.14c-49.16-25-67.11-88.35-40.08-141.59s88.8-76.16,138-51.2,67.11,88.36,40.08,141.6S836.05,365.88,786.88,340.91Z"/><path class="cls-10" d="M988.55,260.17c15.45-1.37,27.71-15.57,27.39-31.71s-13.11-28.1-28.56-26.72c-.81.07-1.6.2-2.39.34a156.87,156.87,0,0,0-6.61-23.37c.71-.42,1.41-.85,2.1-1.33,13.22-9.26,29.58-31.64,20.25-44-17.7-23.52-36-13.34-49.23-4.08-.68.47-1.32,1-2,1.5a140.65,140.65,0,0,0-17.14-16c.43-.71.86-1.43,1.25-2.19a30.76,30.76,0,0,0,1.73-24.26Q916.24,122,897.66,156c39.22,28.75,51.71,85.39,27.19,133.68-20.77,40.92-62.07,63.9-102.4,61-1.8,4.66-3.57,9.35-5.49,14-5.23,12.54-11.17,24.82-17.11,37.08q5.61,1.06,11.26,1.66c-.05.81-.09,1.63-.07,2.46.32,16.13,10.12,29.84,38.12,28.36,15.49-.82,18.15-17.21,17.83-33.35,0-.84-.09-1.67-.17-2.49A157.19,157.19,0,0,0,889.59,390c.35.72.71,1.44,1.13,2.13,8,13.29,35.78,18.93,49,9.67s6.87-29.92-1.13-43.2c-.41-.68-.86-1.32-1.32-1.95a171.1,171.1,0,0,0,16.41-19,22.17,22.17,0,0,0,2,1.17c13.54,6.88,30.55.56,38-14.1s2.5-32.12-11-39c-.71-.36-1.42-.65-2.14-.94a170.76,170.76,0,0,0,5.68-24.47C987,260.26,987.76,260.24,988.55,260.17Z"/><path class="cls-11" d="M970.26,340.43c13.54,6.87,30.56.56,38-14.1s2.5-32.13-11-39a22.42,22.42,0,0,0-2.14-.94,170.93,170.93,0,0,0,5.69-24.48c.78,0,1.56,0,2.35-.08,15.45-1.38,27.71-15.58,27.38-31.71s-13.11-28.1-28.56-26.73c-.8.08-1.6.2-2.38.34a158.33,158.33,0,0,0-6.62-23.36c.71-.42,1.42-.85,2.11-1.33,13.22-9.26,17.44-27.54,9.44-40.83s-25.21-16.55-38.43-7.29c-.68.48-1.31,1-1.94,1.51a139.24,139.24,0,0,0-17.15-16c.44-.71.87-1.44,1.25-2.2,7.45-14.66,2.5-32.12-11-39s-30.55-.56-38,14.1c-.38.76-.72,1.54-1,2.31a139.61,139.61,0,0,0-23-4.4c0-.81.09-1.63.07-2.46-.32-16.13-13.11-28.1-28.56-26.72s-27.71,15.57-27.39,31.71c0,.84.09,1.67.17,2.49a157.19,157.19,0,0,0-22.77,8.45c-.35-.72-.71-1.44-1.13-2.13-8-13.29-25.21-16.55-38.43-7.29s-17.45,27.54-9.44,40.82c.41.68.86,1.32,1.32,1.95a171.1,171.1,0,0,0-16.41,19c-.65-.41-1.32-.81-2-1.17C717,145,700,151.36,692.52,166s-2.5,32.12,11,39c.7.36,1.42.65,2.14.94A172.16,172.16,0,0,0,700,230.43c-.77,0-1.55,0-2.34.09-15.45,1.37-27.71,15.57-27.39,31.71s13.11,28.1,28.56,26.72c.81-.07,1.6-.2,2.39-.34A156.87,156.87,0,0,0,707.84,312c-.71.42-1.41.85-2.11,1.33-13.21,9.26-17.44,27.54-9.43,40.82s25.21,16.55,38.42,7.29c.68-.47,1.32-1,1.95-1.5a139.87,139.87,0,0,0,17.14,16c-.44.71-.86,1.43-1.25,2.19-7.44,14.67-2.5,32.13,11,39s30.56.56,38-14.1c.39-.76.72-1.53,1-2.3a138.75,138.75,0,0,0,23,4.39c0,.82-.08,1.64-.07,2.46.33,16.14,13.11,28.1,28.56,26.73s27.72-15.58,27.39-31.71c0-.85-.08-1.67-.17-2.49a157.19,157.19,0,0,0,22.77-8.45c.35.72.72,1.44,1.14,2.13,8,13.29,25.21,16.55,38.43,7.29s17.44-27.54,9.43-40.83c-.41-.68-.85-1.31-1.31-1.94a173,173,0,0,0,16.4-19C968.9,339.67,969.56,340.07,970.26,340.43Zm-168.81,2.14c-49.17-25-67.11-88.36-40.08-141.6s88.8-76.16,138-51.19,67.12,88.35,40.09,141.59S850.62,367.53,801.45,342.57Z"/><path class="cls-12" d="M587.53,486.75c9.28,4.71,20.94.39,26-9.66s1.71-22-7.57-26.73c-.48-.24-1-.45-1.46-.64A118.17,118.17,0,0,0,608.43,433c.54,0,1.07,0,1.61-.06,10.59-.94,19-10.67,18.77-21.73s-9-19.26-19.57-18.32c-.55.05-1.1.14-1.64.24a107.45,107.45,0,0,0-4.53-16c.49-.28,1-.58,1.44-.91,9.06-6.34,12-18.87,6.47-28s-17.27-11.34-26.33-5c-.47.33-.9.68-1.33,1a96.27,96.27,0,0,0-11.75-11c.3-.49.59-1,.85-1.51,5.11-10,11.77-21,2.42-25.59-21.64-10.56-30.92-1.52-36,8.53-.27.52-.49,1.05-.71,1.58a95.57,95.57,0,0,0-15.79-3c0-.56.06-1.12,0-1.69-.22-11.05,3.06-17-7.57-17.25-23.17-.45-31,9.61-30.77,20.67,0,.58.06,1.14.12,1.7a109,109,0,0,0-15.61,5.79c-.24-.49-.49-1-.78-1.45-5.48-9.11-17.27-11.35-26.33-5s-11.95,18.87-6.47,28c.28.46.59.9.9,1.33a118.84,118.84,0,0,0-11.24,13,15.52,15.52,0,0,0-1.38-.8c-9.28-4.71-20.94-.39-26,9.66s-1.72,22,7.56,26.73c.49.24,1,.45,1.47.64a116.86,116.86,0,0,0-3.9,16.77c-.53,0-1.06,0-1.61.06-10.58.95-19,10.67-18.76,21.73s9,19.26,19.57,18.32c.55-.05,1.09-.14,1.63-.24a108.7,108.7,0,0,0,4.54,16c-.49.28-1,.58-1.45.91-9.06,6.34-11.95,18.87-6.47,28s23.65,13.34,32.71,7c.46-.32-5.47-2.67-5-3a95.47,95.47,0,0,0,11.75,11c-.3.49-.59,1-.86,1.51-5.1,10-1.71,22,7.57,26.72s20.94.39,26-9.66c.26-.52.49-1,.71-1.58a95.65,95.65,0,0,0,15.78,3c0,.56-.06,1.12,0,1.69.22,11.06,9,19.26,19.57,18.31s19-10.67,18.77-21.73c0-.58-.06-1.14-.12-1.7a108.45,108.45,0,0,0,15.6-5.79c.24.49.5,1,.78,1.46,5.49,9.1,17.28,11.34,26.34,5s11.95-18.87,6.46-28c-.28-.46-.58-.9-.9-1.33a117.77,117.77,0,0,0,11.24-13C586.59,486.23,587.05,486.51,587.53,486.75Zm-115.69,1.47c-33.69-17.11-46-60.55-27.46-97S505.23,339,538.92,356.1s46,60.55,27.47,97S505.54,505.33,471.84,488.22Z"/><path class="cls-13" d="M610,432.89c10.59-.94,19-10.67,18.77-21.73s-9-19.26-19.57-18.31a15,15,0,0,0-1.64.23,107.79,107.79,0,0,0-4.53-16c.49-.28,1-.58,1.44-.91,9.06-6.34,20.27-21.68,13.88-30.17-12.13-16.12-24.68-9.14-33.74-2.8-.47.33-.9.68-1.33,1a96.27,96.27,0,0,0-11.75-11c.3-.49.59-1,.85-1.51a21,21,0,0,0,1.19-16.62q-13.12,23.1-25.86,46.41c26.88,19.7,35.44,58.51,18.64,91.61-14.24,28-42.54,43.78-70.17,41.81-1.24,3.2-2.45,6.41-3.77,9.58-3.58,8.59-7.65,17-11.72,25.41q3.84.72,7.71,1.13c0,.56-.06,1.12,0,1.69.22,11.06,6.93,20.45,26.12,19.43,10.61-.56,12.44-11.79,12.22-22.85,0-.58-.06-1.14-.12-1.7a108.45,108.45,0,0,0,15.6-5.79c.24.49.5,1,.78,1.46,5.49,9.1,24.52,13,33.58,6.62s4.71-20.5-.78-29.61c-.28-.46-.58-.9-.9-1.33a117.77,117.77,0,0,0,11.24-13c.45.28.91.56,1.39.8,9.28,4.71,20.94.39,26-9.66s1.71-22-7.57-26.73c-.48-.24-1-.45-1.46-.64A118.17,118.17,0,0,0,608.43,433C609,433,609.5,432.94,610,432.89Z"/><path class="cls-14" d="M597.51,487.89c9.28,4.71,20.94.38,26-9.67s1.71-22-7.57-26.72c-.48-.25-1-.45-1.46-.65a117.85,117.85,0,0,0,3.89-16.77c.54,0,1.07,0,1.61-.06,10.59-.94,19-10.67,18.77-21.73s-9-19.25-19.57-18.31c-.55,0-1.1.14-1.64.23a107.33,107.33,0,0,0-4.53-16c.49-.29,1-.58,1.44-.91,9.06-6.35,12-18.87,6.47-28s-17.27-11.34-26.33-5a16.82,16.82,0,0,0-1.33,1,95.47,95.47,0,0,0-11.75-11c.3-.49.59-1,.85-1.51,5.11-10.05,1.72-22-7.56-26.73s-20.94-.38-26,9.67c-.27.52-.49,1.05-.71,1.58a95.6,95.6,0,0,0-15.79-3c0-.56.06-1.12.05-1.68-.22-11.06-9-19.26-19.57-18.32s-19,10.68-18.77,21.74c0,.57.06,1.14.12,1.7a107.83,107.83,0,0,0-15.61,5.79c-.24-.49-.49-1-.77-1.46-5.49-9.1-17.28-11.34-26.34-5s-12,18.87-6.47,28c.28.47.59.9.9,1.34a116.79,116.79,0,0,0-11.23,13,14.72,14.72,0,0,0-1.39-.8c-9.28-4.72-20.94-.39-26,9.66s-1.71,22,7.57,26.72c.48.25,1,.45,1.46.65a116.55,116.55,0,0,0-3.9,16.77c-.53,0-1.06,0-1.6.06-10.59.94-19,10.67-18.77,21.73s9,19.25,19.57,18.31c.55-.05,1.1-.14,1.64-.23a107.33,107.33,0,0,0,4.53,16c-.49.29-1,.58-1.45.91-9.05,6.35-12,18.87-6.46,28s17.27,11.34,26.33,5c.46-.32.9-.67,1.33-1a95.54,95.54,0,0,0,11.75,11c-.3.49-.59,1-.86,1.5-5.1,10-1.71,22,7.57,26.73s20.94.38,26-9.67c.26-.52.49-1,.71-1.57a96.7,96.7,0,0,0,15.78,3c0,.56-.05,1.12,0,1.68.22,11.06,9,19.26,19.57,18.32s19-10.68,18.77-21.73c0-.58-.06-1.15-.12-1.71A107.28,107.28,0,0,0,552.2,523c.25.49.5,1,.78,1.46,5.49,9.1,17.28,11.34,26.34,5s11.95-18.87,6.47-28c-.29-.47-.59-.9-.91-1.33a116.83,116.83,0,0,0,11.24-13.05C596.57,487.37,597,487.64,597.51,487.89Zm-115.68,1.46c-33.7-17.1-46-60.55-27.47-97s60.85-52.19,94.54-35.08,46,60.55,27.47,97S515.52,506.46,481.83,489.35Z"/><path class="cls-15" d="M1705.17,332.16C1705.17,157.54,1556.5,16,1373.11,16s-332.06,141.56-332.06,316.18c0,106,54.76,199.77,138.8,257.14a130.44,130.44,0,0,1,57.28,107.62v24.2a95.19,95.19,0,0,0,95.19,95.19h81.58a95.19,95.19,0,0,0,95.19-95.19v-24.2a130.42,130.42,0,0,1,57.28-107.62C1650.41,531.93,1705.17,438.14,1705.17,332.16Z"/><path class="cls-16" d="M1446.77,957.28c0,21.54-33,39-73.66,39s-73.66-17.46-73.66-39,33-39,73.66-39S1446.77,935.75,1446.77,957.28Z"/><path class="cls-17" d="M1275.24,887.62v39.82a35,35,0,0,0,19.83,31.62c16.89,8.05,45,16.89,85.75,15.85,33.1-.85,54.68-6.26,68.4-11.94A35.56,35.56,0,0,0,1471,930V908Z"/><path class="cls-18" d="M1275.24,922.5a38.64,38.64,0,0,0,10.32,7.21c18.94,9,143,29.22,172.94,18a40.32,40.32,0,0,0,10.45-5.77,36.07,36.07,0,0,0,2-11.88V908l-195.74-20.38Z"/><path class="cls-19" d="M1283.93,860.52a18.69,18.69,0,0,0-20.62,18.58v1.13a39.27,39.27,0,0,0,22.25,35.48c18.94,9,143,29.21,172.94,18,15.07-5.66,24.4-18.6,24.4-34.69v-.91a18.68,18.68,0,0,0-16.74-18.58Z"/><path class="cls-20" d="M1466.16,879.5l-182.23-19a18.63,18.63,0,0,0-17.46,8.23,39,39,0,0,0,19.09,20c18.94,9,148.3,31.84,172.94,20.23a42.75,42.75,0,0,0,21.15-21.43A18.65,18.65,0,0,0,1466.16,879.5Z"/><path class="cls-21" d="M1276.8,796a13.49,13.49,0,0,0-13.49,13.49v31.19a39.25,39.25,0,0,0,22.25,35.47c18.94,9,148.3,31.85,172.94,20.24,14.56-6.86,24.4-20.86,24.4-37V809.49A13.49,13.49,0,0,0,1469.42,796Z"/><path class="cls-22" d="M1480.19,805.71c0,14-47.94,25.32-107.08,25.32S1266,819.69,1266,805.71s47.94-25.32,107.08-25.32S1480.19,791.73,1480.19,805.71Z"/><path class="cls-23" d="M1705.17,332.16C1705.17,157.54,1556.5,16,1373.11,16s-332.06,141.56-332.06,316.18c0,106,54.76,199.77,138.8,257.14a130.44,130.44,0,0,1,57.28,107.62v24.2a95.19,95.19,0,0,0,95.19,95.19h81.58a95.19,95.19,0,0,0,95.19-95.19v-24.2a130.42,130.42,0,0,1,57.28-107.62C1650.41,531.93,1705.17,438.14,1705.17,332.16Z"/><ellipse class="cls-24" cx="1373.11" cy="785.75" rx="78.35" ry="18.52"/><path class="cls-25" d="M1352.69,797.07a4.54,4.54,0,0,1-4.49-4l-57.64-448.26a4.53,4.53,0,0,1,9-1.16L1357.19,792a4.53,4.53,0,0,1-3.92,5.07A3.77,3.77,0,0,1,1352.69,797.07Z"/><path class="cls-26" d="M1388.49,797.07a3.86,3.86,0,0,1-.58,0A4.53,4.53,0,0,1,1384,792l57.64-448.26a4.53,4.53,0,0,1,9,1.16L1393,793.12A4.53,4.53,0,0,1,1388.49,797.07Z"/><path class="cls-27" d="M1435.44,344.49a4.53,4.53,0,0,1-3.79-2l-15.91-24.14a.69.69,0,0,0-.64-.36.72.72,0,0,0-.62.38L1404,335.93a9.78,9.78,0,0,1-16.57.41L1373,314.71a.73.73,0,0,0-1.23,0L1359.09,333a9.79,9.79,0,0,1-8,4.23h0a9.83,9.83,0,0,1-8-4.21l-18.26-26.17a.83.83,0,0,0-.64-.34.69.69,0,0,0-.61.39l-16.68,28.78a4.53,4.53,0,1,1-7.83-4.54l16.67-28.78a9.77,9.77,0,0,1,16.52-.69l18.26,26.17a.75.75,0,0,0,.62.34h0a.72.72,0,0,0,.6-.33l12.67-18.32a9.77,9.77,0,0,1,16.2.16L1395,331.31c.16.24.4.45.64.36a.7.7,0,0,0,.61-.38l10.51-17.59a9.77,9.77,0,0,1,16.59-.36l15.91,24.13a4.52,4.52,0,0,1-3.77,7Z"/><path class="cls-28" d="M1379.13,581.56c7.12-121.87,212.56-150.39,211.68-259.22-.54-67-82.18-116.81-99.61-126.78-128.45-73.47-286.56,11.37-319.22-48.68-8.13-14.95-4.32-31.22-2.14-40.49,3.28-14,10.71-27.06,21.73-39-90.63,56.46-150.52,153.94-150.52,264.76,0,106,54.76,199.77,138.8,257.14a130.44,130.44,0,0,1,57.28,107.62v24.2a95.19,95.19,0,0,0,95.19,95.19h81.58a95.19,95.19,0,0,0,95.19-95.19V701.77c-11.23,8.61-24.12,14.61-38.26,14.5C1421.76,715.86,1375.6,642.2,1379.13,581.56Z"/><ellipse class="cls-29" cx="1378.42" cy="344.49" rx="285.75" ry="275.57"/><path class="cls-30" d="M346.61,1840.57c63.22,64.8,178.47,25.94,395.31,14.12a2175.93,2175.93,0,0,1,391.54,13.92c13.3-71.72,29.51-171.65,41.43-291.58,43.4-436.9,71.45-719.2-76.68-870.77C883,486.09,402,650,348.37,668.93c68.14,412.24,34.91,701.51-11.17,894C318.35,1641.64,280.84,1773.15,346.61,1840.57Z"/><path class="cls-31" d="M346.61,1840.57c63.22,64.8,178.47,25.94,395.31,14.12a2175.93,2175.93,0,0,1,391.54,13.92L1174.89,1577c8.86-348-43.31-455.77-103.81-474.92-100.15-31.72-221,180-332.59,138.05-102.25-38.45-75.26-244.38-198.42-285.63C474,932.38,430.59,979.84,384,951.5c-62.9-38.21-55.37-167.86-35.58-282.57,68.14,412.24,34.9,701.51-11.17,894C318.35,1641.64,280.84,1773.15,346.61,1840.57Z"/><path class="cls-32" d="M348.37,668.93C320.9,683.07,102.49,800.27,52.94,1059.75c-33.46,175.19,14.61,391.44,152.17,491,200.28,145,609.78,56.83,862.83-323.17q-3.14-39.22-6.28-78.44c-410.29,200.25-547.14,186.27-594.57,133.35-36-40.17-16.26-98.08-23.53-225.91C434,888.68,386.69,755.21,348.37,668.93Z"/><path class="cls-33" d="M1000.38,637.79C1172.88,726,1269.25,839.15,1317,905.49c52,72.34,212.35,295.3,125.54,460.45-5,9.52-54.8,101.33-131.39,104.68-137.53,6-249-278.17-287.09-416.24C977.3,885.05,985.89,735.85,1000.38,637.79Z"/><path class="cls-34" d="M916.41,708.26c8.5,61.13,23.12,152.26,48.44,261.47,60.19,259.63,99.09,417.78,222.8,477,48.53,23.21,124.67,38.17,162.67,3.69,81.62-74.07-55.91-337-62.75-349.84-32.88-61.75-79.37-119.4-171-232.18C1053.8,791.1,999.93,728.88,962.48,686.52Z"/><path class="cls-35" d="M781.62,409.68a581.15,581.15,0,0,1-16.55,115.4c-7.65,30.56-12.4,38.31-18.27,44.49-8.82,9.3-21.85,16.81-93.91,30.64-39.21,7.53-44.18,7-45.24,10.8-5.16,18.51,97,88,206.81,78.43,67.23-5.85,130-40.68,127.31-60.87s-69.9-13.08-87.83-50.54c-12.46-26.06,4.95-61.18,24.85-90C862.83,453.88,797.58,443.86,781.62,409.68Z"/><path class="cls-36" d="M869.31,409.74c10.73-23.93,3.57-59.81-19.27-78.32-19.66-15.93-44.28-13.25-59-11.64-42.72,4.65-91.29,34-100.85,76.44-5.67,25.16,28.48,67,34.07,74.67,6.33,8.64,14.61,10.22,23.22,15.89,11.94,7.86,30.68,20.42,61.43,41.55a174.89,174.89,0,0,1,3-30.4c.85-4.48,4.39-22,12.22-37.68C839.82,428.86,859.13,432.41,869.31,409.74Z"/><path class="cls-37" d="M768.58,513.84s37.57,38.68,91.26,22.75c48.06-14.27,30.34-125.29-6.1-141.43-12.16-5.38-33.71-3.86-49.56,4.73-9.36,5.08-11.8,10-27.26,18-14.26,7.38-18.92,6.67-22.62,11.56-4.62,6.11-6.13,18.87,10.69,48.68-11.45-7.31-23.44-8.38-30.51-2.85a17.11,17.11,0,0,0-5.06,7.81C725.44,497.12,740.48,510.49,768.58,513.84Z"/><path class="cls-38" d="M750.61,423.4c2.75,1.22-2.45,11.63-.16,24.17,4.44,24.36,35.43,47.75,60.89,44.55,15-1.9,17.08-11.69,40.83-19.79a114.27,114.27,0,0,1,36-6c13.66,24.71,12.46,52.71-2.44,69-16,17.5-42.17,15-53.09,14-7.31-.69-30.72-2.86-46.65-20.25-16.6-18.13-7.8-33.33-24.62-44.31-8.48-5.55-18.2-6.57-30.1-18.33a69.87,69.87,0,0,1-7.06-8.14C733.74,442.05,746.62,421.63,750.61,423.4Z"/><path class="cls-39" d="M872.66,480.13s-9.29,7.91-27.73,11c-.89.15-1.81.63-1.82,1.12,0,1.82,13.41,6.91,23.49,1.44,7.15-3.89,11.45-12.47,10-14.08C876,479,874.29,479.45,872.66,480.13Z"/><path class="cls-40" d="M911.06,507.94l33,67.83s3.93,74.82,18.41,110.75l-25.71,12.14s-76.77-53.07-18-113.49C918.77,585.17,895.37,513.06,911.06,507.94Z"/></g></g></g></svg>