<svg xmlns="http://www.w3.org/2000/svg" xmlns:xlink="http://www.w3.org/1999/xlink" viewBox="0 0 1847.19 1879.02"><defs><style>.cls-1{isolation:isolate;}.cls-2{fill:url(#linear-gradient);}.cls-3{fill:url(#linear-gradient-2);}.cls-4{opacity:0.3;mix-blend-mode:soft-light;}.cls-5{fill:#fff;}</style><linearGradient id="linear-gradient" x1="361.75" y1="1698.75" x2="1649.43" y2="733.88" gradientUnits="userSpaceOnUse"><stop offset="0" stop-color="#af206e"/><stop offset="1" stop-color="#5f2d78"/></linearGradient><linearGradient id="linear-gradient-2" x1="355.92" y1="1684.41" x2="1638.23" y2="723.57" gradientUnits="userSpaceOnUse"><stop offset="0" stop-color="#f6cc1b"/><stop offset="0.05" stop-color="#f6cc1b"/><stop offset="0.32" stop-color="#f6cc1b"/><stop offset="0.45" stop-color="#f4c11c"/><stop offset="0.69" stop-color="#efa420"/><stop offset="0.87" stop-color="#eb8b23"/><stop offset="1" stop-color="#eb8b23"/></linearGradient></defs><g class="cls-1"><g id="Layer_2" data-name="Layer 2"><g id="Layer_1-2" data-name="Layer 1"><path class="cls-2" d="M1604.87,22.57,1582.44,0l-27.57,140.88-173,371.4,19.23,22.57,119.52-.06v518.89c0,339.78-261.47,622.34-600.23,648.65L0,1753.31l1.73,16.6L383,1879l675.4-58.93c385.24-33.32,681-355.76,681-742.44V531.17L1847.19,525Z"/><path class="cls-3" d="M1582.44,0,1381.91,512.28l117.64-.06v518.89c0,339.78-257.37,622.34-590.81,648.65L0,1753.31l385.26,102,659.32-57.82c379.19-33.32,670.31-355.76,670.31-742.44V508.6L1821,502.38Z"/><g class="cls-4"><path class="cls-5" d="M1655.34,1083.56c-31.15-139.24-104.74-204.36-101.63-373.15,2.44-132.34,49.53-193,78-299.1,19.29-71.83,30.15-164.9,11.8-282.65L1582.44,0,1381.91,512.28l117.64-.06v518.89c0,339.78-257.37,622.34-590.81,648.65L0,1753.31l385.25,102,659.33-57.82c272.84-24,500.07-197.64,606.07-437.21C1671.19,1271,1676.06,1176.13,1655.34,1083.56Z"/></g></g></g></g></svg>