<svg xmlns="http://www.w3.org/2000/svg" xmlns:xlink="http://www.w3.org/1999/xlink" viewBox="0 0 341.98 648.73"><defs><style>.cls-1{isolation:isolate;}.cls-2{fill:url(#New_Gradient_Swatch_3);}.cls-3{fill:#fff;opacity:0.16;mix-blend-mode:screen;}</style><linearGradient id="New_Gradient_Swatch_3" x1="-516.63" y1="1955.04" x2="-177.55" y2="1414.12" gradientTransform="translate(109.8 -1581.16) rotate(-16.4)" gradientUnits="userSpaceOnUse"><stop offset="0" stop-color="#5f2d78"/><stop offset="1" stop-color="#af206e"/></linearGradient></defs><g class="cls-1"><g id="Layer_2" data-name="Layer 2"><g id="Layer_1-2" data-name="Layer 1"><path class="cls-2" d="M177.34,643.66c17.9,3.88,48,10.41,80-2.88,58.09-24.16,84.45-98.16,84.65-154.48.17-48.38-24.28-93.51-73.17-183.77-46.05-85-67.49-103.79-58.16-134.8C223.94,123.51,281,117,288.74,63c.93-6.47,4.14-28.68-8.74-44.91C258-9.64,204.24-.36,174.6,12.06,146,24,106.26,53,102.18,92c-3,28.3,15.31,37.87,7.4,61s-28.86,20.6-56.18,51c-10.92,12.13-32.83,36.48-33.94,67.33C18,311.22,52.66,325.88,44.2,355,38.09,376,18,375.26,6.3,397-9.11,425.71,6.91,462,20.65,492,36.83,527.33,80.48,622.67,177.34,643.66Z"/><path class="cls-3" d="M262.3,24.08c8.93,19.78-63.58,40.71-88.47,110.68C147.05,210,191.74,296.15,212.4,336c35.23,67.9,63.39,74.8,76.1,135.17,5,23.89,15.51,73.67-14.39,116.17-2.78,4-34.41,47.51-82.93,48.07-55,.64-89.92-54.52-120-102.06C53,504.58,16.7,447.2,37.73,420.57,50.58,404.28,81.9,403.24,103,410.15c30.13,9.86,43.61,37.26,48.76,34.08,4.64-2.87-1.82-27.86-16.56-52.31-29.46-48.92-61.88-45.7-81.17-86.35-2.34-4.93-20.31-44.25-1.71-76.71,10.72-18.72,33.89-35.65,51.1-30.48,19.47,5.84,22.93,37.42,29,36.14,5.84-1.22,6.22-30.85,2.32-60.18-5.74-43.09-15.93-49.65-13.47-73.29,3.77-36.07,31.55-59.5,35.59-62.81C194.77,7.22,254.67,7.17,262.3,24.08Z"/></g></g></g></svg>