<svg xmlns="http://www.w3.org/2000/svg" xmlns:xlink="http://www.w3.org/1999/xlink" viewBox="0 0 315.73 307.57"><defs><style>.cls-1{isolation:isolate;}.cls-2{fill:url(#New_Gradient_Swatch_3);}.cls-3{fill:#fff;opacity:0.16;mix-blend-mode:screen;}</style><linearGradient id="New_Gradient_Swatch_3" x1="-4406.49" y1="3918.86" x2="-4208.13" y2="3602.43" gradientTransform="matrix(0.42, -0.91, 0.91, 0.42, -1500.7, -5436.14)" gradientUnits="userSpaceOnUse"><stop offset="0" stop-color="#5f2d78"/><stop offset="1" stop-color="#af206e"/></linearGradient></defs><g class="cls-1"><g id="Layer_2" data-name="Layer 2"><g id="Layer_1-2" data-name="Layer 1"><path class="cls-2" d="M282.77,287.05c8.63-6.36,23.15-17.06,29.68-36.22,11.87-34.84-10.41-75-35.05-96.9-21.16-18.79-50.42-25.52-108.94-39-55.11-12.67-71.65-10.53-81.65-26.62-14.26-22.94,4.92-50.5-15.73-74.76C68.61,10.66,60.1.65,48,0,27.28-1,10.58,26.12,4.56,43.93c-5.81,17.18-8.48,45.82,7.08,62.72,11.27,12.24,22.54,7.92,29.63,20.34s-2.13,20.64.63,44.37c1.1,9.48,3.31,28.51,16.41,40.93,17,16.07,36.79,6.54,46.29,21.52,6.87,10.82-1.24,19.33,3.79,32.89,6.62,17.85,28.74,24.85,47.22,30.43C177.37,303.7,236.09,321.43,282.77,287.05Z"/><path class="cls-3" d="M43.76,10.1C55.89,13.83,37,53.75,58.1,91.73c22.68,40.87,77.75,54.57,103.2,60.9,43.43,10.8,57.35,1.12,88.76,18.89,12.43,7,38.32,21.69,45.41,51.26.65,2.74,7.53,33.47-11,55-21,24.39-58.71,18.37-91.2,13.18-19.64-3.14-58.86-9.4-62.41-28.93-2.17-11.94,9.49-26.09,20.68-32.68,16-9.41,33.22-4.72,33.82-8.22.54-3.14-12.93-10-29.36-13-32.86-6-44,9.47-69.29,2.21-3.07-.88-27.27-8.2-34.32-28.92-4.07-11.94-2.53-28.66,6.39-34.21,10.1-6.29,25.3,4.41,27.09,1.24s-11.13-14.66-25.51-24.29C39.24,110,32.42,112,23,101.73,8.63,86.13,9.09,64.88,9.2,61.82,10.24,33.21,33.39,6.91,43.76,10.1Z"/></g></g></g></svg>