<svg xmlns="http://www.w3.org/2000/svg" xmlns:xlink="http://www.w3.org/1999/xlink" viewBox="0 0 519.93 731"><defs><style>.cls-1{isolation:isolate;}.cls-2{fill:url(#New_Gradient_Swatch_2);}.cls-3{fill:#fff;opacity:0.16;mix-blend-mode:screen;}</style><linearGradient id="New_Gradient_Swatch_2" x1="-101.75" y1="-652.53" x2="435.08" y2="-652.53" gradientTransform="translate(67.25 1011.72) rotate(2.3)" gradientUnits="userSpaceOnUse"><stop offset="0" stop-color="#af206e"/><stop offset="0.55" stop-color="#e34256"/><stop offset="1" stop-color="#eb8b23"/></linearGradient></defs><g class="cls-1"><g id="Layer_2" data-name="Layer 2"><g id="Layer_1-2" data-name="Layer 1"><path class="cls-2" d="M407.77,722.09c21.11-6.37,56.65-17.1,82.52-49.76,47-59.36,31.55-152.65-1.14-212-28.08-51-80.17-84.24-184.36-150.69-98.12-62.58-131.66-69.83-140-107.92-11.84-54.3,44.35-94.52,21-155.8-2.8-7.35-12.4-32.61-35.44-42.16C111-12.64,59.92,28.5,36,58.88c-23.1,29.31-48,83-29.52,126.49,13.41,31.51,38.24,30.91,43.42,59.87,5.22,29.15-18.34,38.55-29.37,86.46-4.4,19.15-13.24,57.57,3.61,90.69C45.9,465.23,90.92,460.43,99,496c5.85,25.72-15.74,36.63-15.34,66.39.52,39.17,38.58,68,70.57,91.56C191.93,681.72,293.57,756.57,407.77,722.09Z"/><path class="cls-3" d="M135.3,20.31c20.95,15.6-43.14,80-28.47,168.18C122.61,283.36,220,347.9,264.94,377.72c76.75,50.89,110.41,41.71,159.05,97.83,19.25,22.21,59.36,68.48,52.71,130.68-.62,5.78-8.47,70.11-59.2,99C360,738.08,291,700.4,231.57,667.93c-35.91-19.61-107.63-58.8-101.06-99.12,4-24.64,36.38-44,62.64-49.1,37.47-7.22,67.66,13.75,71.23,7.39,3.21-5.73-18.19-28.25-48-45.39-59.59-34.27-91.83-11.95-135.88-43.47-5.34-3.82-47.21-34.71-46.6-79.74.35-26,14.84-57.32,36-61.94,23.91-5.22,46,26,51.67,21.09C127,313,110.09,281.55,88.85,253c-31.2-42-45.77-43-57-69.29-17.1-40.17-1.55-81,.77-86.89C54.38,42,117.39,7,135.3,20.31Z"/></g></g></g></svg>