<svg xmlns="http://www.w3.org/2000/svg" xmlns:xlink="http://www.w3.org/1999/xlink" viewBox="0 0 231.11 525.41"><defs><style>.cls-1{fill:url(#linear-gradient);}.cls-2{isolation:isolate;}.cls-3{clip-path:url(#clip-path);}.cls-4{fill:#fff;opacity:0.7;mix-blend-mode:soft-light;}</style><linearGradient id="linear-gradient" x1="41.29" y1="41.5" x2="112.99" y2="293.69" gradientUnits="userSpaceOnUse"><stop offset="0" stop-color="#eb8b23"/><stop offset="1" stop-color="#f6cc1b"/></linearGradient><clipPath id="clip-path" transform="translate(0 29.22)"><path class="cls-1" d="M12.11,461.05C-7,439.12-.72,395.41,11.92,368.13c14.76-31.85,32.25-28.53,41.8-54.19C71.5,266.16,18.13,235,32.24,185.42c11.53-40.55,51.58-35.14,62.3-80.63C102.29,72,85.16,53.37,101.31,27c1.38-2.26,16.62-26.34,40.53-27,24.12-.67,43,22.9,50.92,40.12,14.71,31.85-5.56,46.76-2,90.91,4.89,60.1,45.36,68,39.81,113-4.59,37.16-33.24,40.32-37.5,81.62-4,38.36,19.3,49.56,14.17,75.11C195.44,459.57,51.09,505.78,12.11,461.05Z"/></clipPath></defs><g class="cls-2"><g id="Layer_2" data-name="Layer 2"><g id="Layer_1-2" data-name="Layer 1"><path class="cls-1" d="M12.11,461.05C-7,439.12-.72,395.41,11.92,368.13c14.76-31.85,32.25-28.53,41.8-54.19C71.5,266.16,18.13,235,32.24,185.42c11.53-40.55,51.58-35.14,62.3-80.63C102.29,72,85.16,53.37,101.31,27c1.38-2.26,16.62-26.34,40.53-27,24.12-.67,43,22.9,50.92,40.12,14.71,31.85-5.56,46.76-2,90.91,4.89,60.1,45.36,68,39.81,113-4.59,37.16-33.24,40.32-37.5,81.62-4,38.36,19.3,49.56,14.17,75.11C195.44,459.57,51.09,505.78,12.11,461.05Z" transform="translate(0 29.22)"/><g class="cls-3"><path class="cls-4" d="M38.93,496.19a.5.5,0,0,1-.47-.35.49.49,0,0,1,.33-.6A171.47,171.47,0,0,0,104.07,459c17.73-15.8,36.07-32.15,40.93-56.79,3.67-18.62-2.55-30.66-10.44-45.91-7.68-14.85-17.25-33.33-19.66-63.89-1.37-17.44-3.09-39.15,7.93-62.09,6.42-13.36,13.85-20,20.41-25.79,6.85-6.09,12.27-10.9,14-21.37C160,166,153.6,153,146.17,137.89c-4.58-9.32-9.33-19-12.68-30.85-9.44-33.45-.28-73.05,27.22-117.72a.48.48,0,0,1,.66-.16.49.49,0,0,1,.16.67c-27.35,44.42-36.47,83.77-27.11,117,3.33,11.8,8.05,21.4,12.62,30.69,7.5,15.24,14,28.4,11.13,45.79-1.77,10.81-7.57,16-14.29,22-6.49,5.76-13.84,12.3-20.18,25.48-10.9,22.7-9.2,44.27-7.83,61.6,2.39,30.36,11.9,48.74,19.55,63.52,8,15.41,14.27,27.58,10.53,46.54-4.92,25-23.38,41.41-41.24,57.32a172.47,172.47,0,0,1-65.64,36.5Z" transform="translate(0 29.22)"/><path class="cls-4" d="M118.85,242.08a.49.49,0,0,1-.4-.21c-28.9-42-38.78-76.91-42-98.78-3.47-23.74,0-37.73,0-37.87a.49.49,0,0,1,.59-.35.5.5,0,0,1,.35.59c0,.14-3.43,14,0,37.55,3.19,21.76,13,56.47,41.8,98.31a.48.48,0,0,1-.12.67A.46.46,0,0,1,118.85,242.08Z" transform="translate(0 29.22)"/><path class="cls-4" d="M119.21,317.32a.47.47,0,0,1-.43-.27.48.48,0,0,1,.23-.65c24.4-11.66,44.46-26.73,59.63-44.8a143.22,143.22,0,0,0,26.88-48.71c9.73-30.44,6.35-55,6.31-55.21a.5.5,0,0,1,.41-.55.49.49,0,0,1,.55.41c0,.25,3.45,25-6.33,55.6A144.36,144.36,0,0,1,179.4,272.2c-15.26,18.18-35.44,33.35-60,45.08A.49.49,0,0,1,119.21,317.32Z" transform="translate(0 29.22)"/><path class="cls-4" d="M124.19,442.71a.45.45,0,0,1-.25-.07c-50.61-29.28-72-65.31-81-90.38-9.76-27.18-7.51-47.73-7.48-47.94a.48.48,0,0,1,.53-.42.49.49,0,0,1,.43.54c0,.2-2.25,20.56,7.45,47.55,9,24.9,30.2,60.7,80.53,89.82a.48.48,0,0,1,.17.66A.49.49,0,0,1,124.19,442.71Z" transform="translate(0 29.22)"/><path class="cls-4" d="M133.48,101.44a.5.5,0,0,1-.4-.22.48.48,0,0,1,.14-.67C172,74.8,184.14,41.07,187.55,17.31c3.69-25.78-1.86-45.72-1.92-45.92a.48.48,0,0,1,.33-.59.49.49,0,0,1,.6.33c.06.2,5.66,20.31,1.95,46.27-3.43,24-15.71,58-54.76,84A.5.5,0,0,1,133.48,101.44Z" transform="translate(0 29.22)"/></g></g></g></g></svg>