<svg xmlns="http://www.w3.org/2000/svg" xmlns:xlink="http://www.w3.org/1999/xlink" viewBox="0 0 396.27 484.95"><defs><style>.cls-1{fill:url(#Orange_Yellow);}.cls-2{opacity:0.22;}.cls-3{fill:url(#Orange_Yellow-2);}.cls-4{fill:#fff;}.cls-5{fill:url(#Orange_Yellow-3);}.cls-6{fill:url(#Orange_Yellow-4);}.cls-7{fill:url(#Orange_Yellow-5);}.cls-8{fill:url(#Orange_Yellow-6);}.cls-9{fill:url(#Orange_Yellow-7);}</style><linearGradient id="Orange_Yellow" x1="27.41" y1="236.68" x2="367.41" y2="248.82" gradientUnits="userSpaceOnUse"><stop offset="0" stop-color="#fff33b"/><stop offset="0.04" stop-color="#fee72e"/><stop offset="0.12" stop-color="#fed51b"/><stop offset="0.2" stop-color="#fdca10"/><stop offset="0.28" stop-color="#fdc70c"/><stop offset="0.67" stop-color="#f3903f"/><stop offset="0.89" stop-color="#ed683c"/><stop offset="1" stop-color="#e93e3a"/></linearGradient><linearGradient id="Orange_Yellow-2" x1="35.96" y1="236.34" x2="358.84" y2="247.87" xlink:href="#Orange_Yellow"/><linearGradient id="Orange_Yellow-3" x1="25.41" y1="353.83" x2="362.55" y2="365.87" xlink:href="#Orange_Yellow"/><linearGradient id="Orange_Yellow-4" x1="27.96" y1="256.86" x2="366.18" y2="268.94" xlink:href="#Orange_Yellow"/><linearGradient id="Orange_Yellow-5" x1="29.71" y1="185.19" x2="367.92" y2="197.27" xlink:href="#Orange_Yellow"/><linearGradient id="Orange_Yellow-6" x1="21.43" y1="412.54" x2="360.15" y2="424.64" xlink:href="#Orange_Yellow"/><linearGradient id="Orange_Yellow-7" x1="25.67" y1="292.23" x2="364.44" y2="304.33" xlink:href="#Orange_Yellow"/></defs><g id="Layer_2" data-name="Layer 2"><g id="Layer_1-2" data-name="Layer 1"><path class="cls-1" d="M188,481.54l-.09,0c-24.89,4.39-58,5.69-92.95-6.11-38-12.8-91.6-45.4-87.7-75.8,1.5-11.3,11-23.2,21.7-25.1,15.7-2.8,23.1,18.2,55.9,34.5,6.1,3,37.4,18.6,48.2,7.8,5.4-5.4,4.5-16.2,1.5-23.8-9-22.2-37.9-18.4-71.3-36.3-33.8-18.1-68-56.1-62.7-89.2,3-19,19.3-37.6,33.3-37.2,6,.2,10.7,3.8,37,35.9,21.6,26.3,26.9,34.2,36.6,34.8,9.9.5,23.3-6.8,26.4-17.3,8-27.2-62.1-46.2-84.8-110.7-10.3-28.9-13.7-74.8,10.7-91.1,16.5-11,44.8-8,58.4,6.2,12.3,12.8,5,26.7,20.1,58.7,4.6,9.7,14,29.7,22.8,28.6,10.3-1.3,14.4-30.9,15.3-38.1,6.6-54.1-22.1-73.6-10.1-102.2,9.4-22.3,38.3-37.7,65.3-34.7,23.5,2.5,46.1,19.5,53,41.3,7,22.2-6.1,49.6-32.4,104.2-12.5,25.9-23,44-16.7,64.9,3.1,10.2,10.9,23.6,18.6,23,17-1.3,8.1-69,44-89.1,18.4-10.3,45.6-6.5,61,8.5,18.9,18.4,18,51.6,5.7,72.2-16.2,26.8-42.6,16.5-77.4,49.9-15.5,14.8-38.3,43.7-29.5,60.4,3.8,7.3,13.9,12.8,23.1,11.5,20.6-2.9,18.7-37.4,47-60.1,20.4-16.4,52.7-23.5,63.7-12.5,15.5,15.6-11.7,67.3-27.2,91.1C345.75,394.45,299.06,451.84,188,481.54Z"/><g class="cls-2"><path class="cls-3" d="M196,484.24c-11.38-13.93-16.28-59.57-13.79-128.68C184.46,292.42,192.27,225.41,199,187,211.34,113.43,215,2,215,.92a.36.36,0,0,1,.34-.36l.51,0a.37.37,0,0,1,.33.38c0,1.12-3.64,112.68-16,186.48-18.52,109.91-14.36,247.53-3.37,294A2.77,2.77,0,0,1,196,484.24Z"/><path class="cls-4" d="M215.54,1.14h.05c-.17,5.27-3.87,113.85-16,186.22-6.46,38.37-11.28,95.43-12.56,148.9-1.49,62.31,1.77,113.92,9.2,145.31a2.39,2.39,0,0,1-.26,1.8c-11-14.4-15.72-59.64-13.26-127.79,2.27-63.11,10.08-130.09,16.81-168.48,12.09-72.11,15.8-180.53,16-186M215.32,0a.92.92,0,0,0-.9.9c-.35,11.08-4.18,115.67-16,186-14.63,83.46-29.37,266.87-2.6,298h0a3.13,3.13,0,0,0,1.52-3.64c-16.43-69.41-9.16-219.39,3.38-293.76,11.8-70.68,15.63-175.69,16-186.56a.92.92,0,0,0-.86-1l-.49,0Z"/><path class="cls-5" d="M190.27,455.18a4.15,4.15,0,0,1-.89-.33v-.24c-1.34-43.19,60.27-72.28,105.27-93.52,11.84-5.59,23-10.87,31.46-15.67,30.87-17.56,37.64-42.19,43.08-62,1.23-4.49,2.41-8.78,3.79-12.7-1.32,18.39-7.85,55.31-38.4,72.74-8.37,4.74-19.26,10-31.88,16.14-47.68,23.12-113,54.79-111.4,92.3l-.83,3.32Z"/><path class="cls-4" d="M372,275.47c-2.08,19.29-9.81,51.62-37.7,67.54-8.35,4.73-19.24,10-31.85,16.12-47.61,23.1-112.73,54.69-111.71,92.34l-.84.74c1-41.53,61-69.85,105-90.63,11.85-5.59,23.05-10.88,31.5-15.69,31.07-17.67,37.87-42.42,43.33-62.31.77-2.79,1.52-5.51,2.3-8.11m0-9.93a2,2,0,0,0-.47.06l2.12,1.26a1.69,1.69,0,0,0-1.65-1.32Zm1.65,1.32a1.23,1.23,0,0,1,0,.39l.13-.3-.17-.09Zm0,.39c-8.67,21.14-8.23,55.15-47.87,77.7-40.27,22.91-138.73,54.62-137,109.67.45-.41,1.38-1.24,3-2.67-2-46.91,102.59-85.12,143-108,35.27-20.13,38.38-65.54,38.87-76.64v-.06ZM191.85,452v0Zm0,0a26.07,26.07,0,0,1-3,2.74,1.77,1.77,0,0,0,0,.23c0,.57,1.5.72,2,1l1-4Zm-3,2.64c-.25.24-.35.35-.33.35a3.46,3.46,0,0,0,.34-.25v-.1Z"/><path class="cls-6" d="M185.14,378.25a.45.45,0,0,1-.16,0l-.4-.14a.49.49,0,0,1-.31-.54c8.11-43,63.48-113.36,98-142.87,33.56-28.68,71.6-79.54,73.2-81.69a.45.45,0,0,1,.37-.19.47.47,0,0,1,.28.09l.4.28a.48.48,0,0,1,.2.32.49.49,0,0,1-.09.35c-1.6,2.15-39.69,53.07-73.2,81.76-34.37,29.28-89.57,99.26-97.85,142.28A.46.46,0,0,1,185.14,378.25Z"/><path class="cls-4" d="M355.86,152.36l0,.87.4.28.5-.7-.49.76c-1.6,2.15-39.67,53.05-73.13,81.69-34.41,29.32-89.69,99.42-98,142.53l-.05,0-.4-.15a.07.07,0,0,1,0-.05c8.1-42.93,63.38-113.15,97.88-142.63,33.59-28.69,71.66-79.6,73.27-81.76h0v-.86m0,0a.89.89,0,0,0-.72.36C350.39,159.1,314.06,207,282,234.34c-34.82,29.75-90,100-98.16,143.12a.89.89,0,0,0,.58,1l.4.15a.84.84,0,0,0,.31.05A.89.89,0,0,0,186,378c8.25-42.86,63.09-112.53,97.71-142,32.07-27.45,68.4-75.31,73.27-81.84a.9.9,0,0,0-.21-1.27l-.4-.28a.88.88,0,0,0-.53-.17Z"/><path class="cls-7" d="M189.63,275a.49.49,0,0,1-.38-.18c-5.68-6.69-34.74-41.62-48.41-72.33C125.94,168.79,81.59,113.25,46,103a.5.5,0,0,1-.34-.32.51.51,0,0,1,.06-.45l.28-.4a.51.51,0,0,1,.42-.22l.13,0c35.65,9.75,80.38,65.53,95.51,99.64,14.88,33.53,47.86,71.21,48.19,71.58a.51.51,0,0,1,.11.43l-.23,1.3A.51.51,0,0,1,189.63,275Z"/><path class="cls-4" d="M46.43,101.25l0,.8c35.53,9.73,80.15,65.38,95.25,99.42C156.6,235,189.63,272.78,190,273.16a.07.07,0,0,1,0,.08l-.24,1.31a.1.1,0,0,1-.11.09.09.09,0,0,1-.07,0c-5.68-6.69-34.71-41.59-48.35-72.24-7.79-17.64-23-40.18-39.78-58.81-19.55-21.75-39.19-36.28-55.31-40.9a.1.1,0,0,1-.07-.07.08.08,0,0,1,0-.09l.28-.4a.11.11,0,0,1,.09,0v-.8m0,0a1,1,0,0,0-.75.39l-.27.4a.89.89,0,0,0,.49,1.38c35.43,10.17,79.53,65.19,94.58,99.27,13.45,30.22,42.16,65,48.47,72.43a.89.89,0,0,0,.68.32.91.91,0,0,0,.9-.75l.24-1.3a.92.92,0,0,0-.21-.76c-3.3-3.75-33.87-39.36-48.12-71.48-15.27-34.41-60-90.08-95.77-99.87a1,1,0,0,0-.24,0Z"/><path class="cls-8" d="M161.35,448.06c-30.92,0-67.22-9-86.33-21.38-11.31-7.34-20.64-16.24-28.86-24.1-2.82-2.68-5.53-5.27-8.17-7.65,2.13,1.72,4.33,3.53,6.6,5.38C54,408,64.73,416.8,74.67,423.23c20.36,13.25,59,23.24,89.89,23.24h0A96.51,96.51,0,0,0,187,444.18l.14,0a.57.57,0,0,1,.44.2.55.55,0,0,1,.13.45.58.58,0,0,1-.43.49,106.2,106.2,0,0,1-25.88,2.76ZM26.06,385.84a23.49,23.49,0,0,0-9.12-3.21l-.23-.12a.43.43,0,0,1-.09-.38c0-.16.22-.27.47-.31a2.15,2.15,0,0,1,.45,0C19.41,381.78,22.36,383.32,26.06,385.84Z"/><path class="cls-4" d="M17.54,382.11a8.55,8.55,0,0,1,3.58,1.12,19.28,19.28,0,0,0-4.09-.92l-.07,0,0,0h0a.38.38,0,0,1,.23-.09,2.38,2.38,0,0,1,.39,0m27.78,19.22c9.21,7.54,19.54,15.94,29.17,22.17,20.41,13.28,59.13,23.3,90.07,23.3A96.74,96.74,0,0,0,187,444.5h.06a.25.25,0,0,1,.19.09.24.24,0,0,1,.06.19.26.26,0,0,1-.19.21,105.61,105.61,0,0,1-25.8,2.75c-30.86,0-67.09-9-86.15-21.33-11.28-7.32-20.6-16.21-28.82-24.06l-1.06-1M17.54,381.45a3.9,3.9,0,0,0-.5,0c-.77.13-1,.8-.48,1.32l.29.14c16.26,1.63,31.75,27,58,44C95,440,131.63,448.39,161.35,448.39a107.33,107.33,0,0,0,26-2.77.9.9,0,0,0-.23-1.78.86.86,0,0,0-.22,0,96.09,96.09,0,0,1-22.31,2.29c-30.26,0-69-9.72-89.71-23.2-22.79-14.74-49.29-41.5-57.31-41.5Z"/><path class="cls-9" d="M161.07,328.59c-33.84,0-74-9.64-95.61-22.93-12.23-7.53-22.36-16.6-31.3-24.6-3-2.66-5.83-5.22-8.61-7.58q3.35,2.55,6.92,5.32C42.7,286.69,54.3,295.64,65,302.24c22.52,13.93,66.06,24.84,99.11,24.84a104,104,0,0,0,21.45-1.95h.12a.59.59,0,0,1,.43.19.59.59,0,0,1-.31.95A115.26,115.26,0,0,1,161.07,328.59ZM12.14,263.84a26.71,26.71,0,0,0-9.56-3.24l-.26-.12a.49.49,0,0,1-.12-.38c0-.14.24-.25.51-.29a2.77,2.77,0,0,1,.42,0C5.08,259.78,8.21,261.31,12.14,263.84Z"/><path class="cls-4" d="M3.13,260.12a9.3,9.3,0,0,1,3.58,1,22.44,22.44,0,0,0-4-.87l-.1,0v0a.5.5,0,0,1,.19-.05,2.34,2.34,0,0,1,.38,0m30.44,19.95c9.91,7.65,21,16.13,31.29,22.46,22.57,14,66.18,24.89,99.29,24.89a104.6,104.6,0,0,0,21.52-2h.05a.21.21,0,0,1,.17.07.22.22,0,0,1,.05.2.22.22,0,0,1-.17.2,115.21,115.21,0,0,1-24.7,2.33c-33.78,0-73.92-9.63-95.43-22.88-12.2-7.52-22.32-16.58-31.25-24.58l-.82-.73M3.13,259.45a3.59,3.59,0,0,0-.47,0c-.82.11-1.07.77-.49,1.3l.31.15c17.43,1.91,34.43,27.54,62.81,45,22.45,13.84,63.52,23,95.78,23a116.16,116.16,0,0,0,24.85-2.34.89.89,0,0,0,.69-.78v0a.91.91,0,0,0-.9-1l-.19,0a104.23,104.23,0,0,1-21.38,1.94c-32.7,0-75.95-10.58-98.93-24.79-24.7-15.18-53.59-42.5-62.09-42.5Z"/></g></g></g></svg>